<svg width="500" height="500" viewBox="0 0 500 500" fill="none" xmlns="http://www.w3.org/2000/svg">
<path d="M238.4 445.05H45.2998C43.7855 445.05 42.3331 444.448 41.2623 443.378C40.1914 442.307 39.5898 440.854 39.5898 439.34V60.66C39.603 59.1543 40.2104 57.7147 41.2798 56.6547C42.3492 55.5947 43.7941 54.9999 45.2998 55H238.4C239.15 55 239.892 55.1477 240.585 55.4346C241.278 55.7216 241.907 56.1422 242.437 56.6724C242.968 57.2026 243.388 57.8321 243.675 58.5249C243.962 59.2176 244.11 59.9602 244.11 60.71V439.34C244.11 440.09 243.962 440.832 243.675 441.525C243.388 442.218 242.968 442.847 242.437 443.378C241.907 443.908 241.278 444.328 240.585 444.615C239.892 444.902 239.15 445.05 238.4 445.05ZM45.2998 55.2C43.8526 55.2026 42.4653 55.7787 41.442 56.8021C40.4186 57.8255 39.8425 59.2127 39.8398 60.66V439.34C39.8425 440.787 40.4186 442.174 41.442 443.198C42.4653 444.221 43.8526 444.797 45.2998 444.8H238.4C239.847 444.797 241.234 444.221 242.258 443.198C243.281 442.174 243.857 440.787 243.86 439.34V60.66C243.857 59.2127 243.281 57.8255 242.258 56.8021C241.234 55.7787 239.847 55.2026 238.4 55.2H45.2998Z" fill="#EBEBEB"/>
<path d="M454.7 445.05H261.6C260.085 445.05 258.633 444.448 257.562 443.378C256.491 442.307 255.89 440.854 255.89 439.34V60.66C255.903 59.1543 256.51 57.7147 257.58 56.6547C258.649 55.5947 260.094 54.9999 261.6 55H454.7C456.214 55 457.666 55.6016 458.737 56.6724C459.808 57.7433 460.41 59.1956 460.41 60.71V439.34C460.41 440.09 460.262 440.832 459.975 441.525C459.688 442.218 459.267 442.847 458.737 443.378C458.207 443.908 457.578 444.328 456.885 444.615C456.192 444.902 455.45 445.05 454.7 445.05ZM261.6 55.2C260.152 55.2026 258.765 55.7787 257.742 56.8021C256.718 57.8255 256.142 59.2127 256.14 60.66V439.34C256.142 440.787 256.718 442.174 257.742 443.198C258.765 444.221 260.152 444.797 261.6 444.8H454.7C456.147 444.797 457.534 444.221 458.558 443.198C459.581 442.174 460.157 440.787 460.16 439.34V60.66C460.157 59.2127 459.581 57.8255 458.558 56.8021C457.534 55.7787 456.147 55.2026 454.7 55.2H261.6Z" fill="#EBEBEB"/>
<path d="M113.05 168.25L114.67 171.52L118.29 172.05L115.67 174.6L116.29 178.2L113.05 176.5L109.82 178.2L110.44 174.6L107.82 172.05L111.44 171.52L113.05 168.25Z" fill="#EBEBEB"/>
<path d="M436.7 322.48L438.32 325.76L441.94 326.29L439.32 328.83L439.94 332.44L436.7 330.74L433.47 332.44L434.09 328.83L431.47 326.29L435.09 325.76L436.7 322.48Z" fill="#F5F5F5"/>
<path d="M372.6 417.57L374.22 420.84L377.83 421.37L375.21 423.92L375.83 427.52L372.6 425.82L369.37 427.52L369.98 423.92L367.37 421.37L370.98 420.84L372.6 417.57Z" fill="#F5F5F5"/>
<path d="M225.94 110.15L226.54 111.37L227.89 111.57C227.966 111.58 228.037 111.611 228.095 111.66C228.153 111.709 228.197 111.773 228.22 111.845C228.243 111.918 228.245 111.995 228.225 112.069C228.206 112.142 228.166 112.209 228.11 112.26L227.11 113.21L227.34 114.55C227.352 114.625 227.343 114.701 227.314 114.771C227.286 114.841 227.238 114.901 227.177 114.946C227.116 114.99 227.044 115.017 226.969 115.023C226.893 115.029 226.818 115.014 226.75 114.98L225.55 114.34L224.35 114.98C224.283 115.014 224.208 115.029 224.132 115.023C224.057 115.017 223.985 114.99 223.924 114.946C223.863 114.901 223.815 114.841 223.787 114.771C223.758 114.701 223.749 114.625 223.76 114.55L223.98 113.21L222.98 112.26C222.924 112.208 222.885 112.141 222.866 112.066C222.847 111.992 222.85 111.914 222.874 111.841C222.898 111.769 222.943 111.705 223.002 111.656C223.062 111.608 223.134 111.578 223.21 111.57L224.55 111.37L225.15 110.15C225.174 110.064 225.226 109.988 225.297 109.934C225.369 109.879 225.456 109.85 225.545 109.85C225.635 109.85 225.722 109.879 225.794 109.934C225.865 109.988 225.916 110.064 225.94 110.15Z" fill="#EBEBEB"/>
<path d="M60.7805 402L61.3805 403.21L62.7205 403.41C62.7965 403.42 62.8681 403.452 62.9271 403.501C62.9861 403.55 63.0301 403.615 63.054 403.688C63.078 403.761 63.081 403.839 63.0627 403.914C63.0444 403.988 63.0055 404.056 62.9505 404.11L61.9505 405.05L62.1805 406.39C62.1923 406.464 62.1833 406.541 62.1544 406.611C62.1256 406.68 62.078 406.741 62.017 406.785C61.956 406.83 61.8839 406.857 61.8086 406.863C61.7333 406.869 61.6579 406.854 61.5905 406.82L60.3905 406.19L59.1905 406.82C59.1231 406.854 59.0476 406.869 58.9723 406.863C58.8971 406.857 58.825 406.83 58.7639 406.785C58.7029 406.741 58.6554 406.68 58.6265 406.611C58.5977 406.541 58.5887 406.464 58.6005 406.39L58.8305 405.05L57.8305 404.11C57.7756 404.057 57.7366 403.99 57.7178 403.916C57.699 403.842 57.7011 403.764 57.7239 403.692C57.7468 403.619 57.7894 403.554 57.8471 403.504C57.9048 403.455 57.9752 403.422 58.0505 403.41L59.3905 403.21L60.0005 402C60.0272 401.917 60.0793 401.846 60.1494 401.795C60.2195 401.744 60.3038 401.716 60.3905 401.716C60.4771 401.716 60.5615 401.744 60.6315 401.795C60.7016 401.846 60.7537 401.917 60.7805 402Z" fill="#F5F5F5"/>
<path d="M87.7501 97.2999L88.3501 98.5199L89.7001 98.7099C89.7753 98.7219 89.8457 98.7547 89.9034 98.8045C89.9611 98.8543 90.0038 98.9192 90.0266 98.9919C90.0495 99.0646 90.0516 99.1422 90.0328 99.216C90.014 99.2899 89.9749 99.357 89.9201 99.4099L88.9201 100.41L89.1501 101.74C89.1661 101.815 89.1599 101.894 89.1322 101.966C89.1046 102.038 89.0567 102.101 88.9943 102.146C88.932 102.191 88.8578 102.218 88.7807 102.222C88.7037 102.226 88.6271 102.208 88.5601 102.17L87.3601 101.54L86.1601 102.17C86.0931 102.208 86.0165 102.226 85.9394 102.222C85.8624 102.218 85.7882 102.191 85.7258 102.146C85.6635 102.101 85.6156 102.038 85.5879 101.966C85.5603 101.894 85.5541 101.815 85.5701 101.74L85.7901 100.41L84.7901 99.4099C84.735 99.3564 84.6962 99.2884 84.6778 99.2138C84.6595 99.1393 84.6625 99.061 84.6865 98.9881C84.7105 98.9151 84.7545 98.8504 84.8134 98.8012C84.8724 98.752 84.944 98.7204 85.0201 98.7099L86.3601 98.5199L87.0001 97.2999C87.0322 97.2272 87.0847 97.1655 87.1513 97.1221C87.2179 97.0787 87.2956 97.0557 87.3751 97.0557C87.4545 97.0557 87.5323 97.0787 87.5988 97.1221C87.6654 97.1655 87.718 97.2272 87.7501 97.2999Z" fill="#EBEBEB"/>
<path d="M86.1297 338.32C86.1317 338.583 86.0553 338.842 85.9104 339.062C85.7655 339.282 85.5585 339.454 85.3156 339.556C85.0728 339.658 84.8051 339.686 84.5464 339.636C84.2878 339.585 84.0498 339.46 83.8628 339.274C83.6758 339.088 83.5482 338.851 83.496 338.593C83.4439 338.335 83.4696 338.067 83.57 337.823C83.6704 337.58 83.8408 337.371 84.0598 337.225C84.2787 337.078 84.5362 337 84.7997 337C85.1507 337 85.4875 337.139 85.7366 337.386C85.9858 337.633 86.127 337.969 86.1297 338.32Z" fill="#EBEBEB"/>
<path d="M275.67 171.89C275.672 172.153 275.595 172.411 275.45 172.631C275.306 172.851 275.098 173.024 274.856 173.126C274.613 173.228 274.345 173.256 274.086 173.206C273.828 173.155 273.59 173.029 273.403 172.844C273.216 172.658 273.088 172.421 273.036 172.163C272.984 171.905 273.01 171.637 273.11 171.393C273.21 171.15 273.381 170.941 273.6 170.795C273.819 170.648 274.076 170.57 274.34 170.57C274.514 170.569 274.687 170.602 274.848 170.667C275.009 170.733 275.156 170.83 275.28 170.953C275.403 171.076 275.501 171.222 275.568 171.382C275.635 171.543 275.67 171.716 275.67 171.89Z" fill="#EBEBEB"/>
<path d="M206.71 98.3998C206.71 98.6629 206.632 98.92 206.486 99.1387C206.34 99.3575 206.132 99.5279 205.889 99.6286C205.646 99.7293 205.378 99.7556 205.12 99.7043C204.862 99.653 204.625 99.5263 204.439 99.3403C204.253 99.1543 204.127 98.9173 204.075 98.6593C204.024 98.4013 204.05 98.1339 204.151 97.8909C204.252 97.6478 204.422 97.4401 204.641 97.294C204.86 97.1478 205.117 97.0698 205.38 97.0698C205.732 97.0724 206.069 97.2134 206.317 97.4623C206.566 97.7111 206.707 98.0479 206.71 98.3998Z" fill="#F5F5F5"/>
<path d="M208.816 422.544C212.767 421.611 215.214 417.653 214.281 413.702C213.349 409.751 209.39 407.304 205.44 408.237C201.489 409.169 199.042 413.128 199.975 417.079C200.907 421.029 204.866 423.476 208.816 422.544Z" fill="#F0F0F0"/>
<path d="M204.6 411.09C203.095 411.087 201.627 411.563 200.41 412.45C199.789 413.876 199.636 415.462 199.975 416.98C200.313 418.498 201.125 419.869 202.293 420.896C203.461 421.923 204.925 422.552 206.474 422.693C208.023 422.834 209.576 422.479 210.91 421.68C211.501 420.587 211.798 419.36 211.772 418.119C211.745 416.877 211.397 415.664 210.761 414.597C210.125 413.531 209.223 412.648 208.143 412.035C207.063 411.421 205.842 411.099 204.6 411.1V411.09Z" fill="#E6E6E6"/>
<path d="M147.68 287.64H86.8301V260.17L147.68 187.83H176.8V261.73H191.89V287.64H176.8V310.12H147.68V287.64ZM147.68 261.73V223.89L115.52 261.73H147.68Z" fill="#6C63FF"/>
<path d="M202.3 249.51C202.3 226.65 206.413 210.65 214.64 201.51C222.866 192.37 235.403 187.803 252.25 187.81C260.336 187.81 266.98 188.81 272.18 190.81C276.903 192.512 281.229 195.163 284.89 198.6C287.975 201.546 290.589 204.949 292.64 208.69C294.669 212.596 296.197 216.742 297.19 221.03C299.45 230.191 300.579 239.594 300.55 249.03C300.55 270.843 296.86 286.807 289.48 296.92C282.1 307.033 269.39 312.093 251.35 312.1C241.23 312.1 233.053 310.487 226.82 307.26C220.536 303.981 215.244 299.082 211.49 293.07C208.59 288.643 206.333 282.587 204.72 274.9C203.045 266.542 202.234 258.034 202.3 249.51ZM235.44 249.59C235.44 264.923 236.79 275.38 239.49 280.96C242.19 286.54 246.113 289.343 251.26 289.37C252.893 289.388 254.513 289.082 256.028 288.469C257.542 287.857 258.919 286.949 260.08 285.8C262.573 283.42 264.406 279.66 265.58 274.52C266.753 269.38 267.34 261.38 267.34 250.52C267.34 234.56 265.986 223.83 263.28 218.33C260.573 212.83 256.513 210.083 251.1 210.09C245.58 210.09 241.58 212.893 239.1 218.5C236.62 224.107 235.4 234.47 235.44 249.59Z" fill="#6C63FF"/>
<path d="M371.74 287.64H310.89V260.17L371.74 187.83H400.86V261.73H416V287.64H400.86V310.12H371.74V287.64ZM371.74 261.73V223.89L339.59 261.73H371.74Z" fill="#6C63FF"/>
<path d="M201 145.62C201 145.99 200.89 146.352 200.684 146.66C200.478 146.968 200.185 147.207 199.843 147.349C199.501 147.49 199.124 147.526 198.761 147.453C198.398 147.38 198.065 147.201 197.804 146.939C197.543 146.676 197.366 146.342 197.294 145.979C197.223 145.615 197.262 145.239 197.405 144.897C197.548 144.556 197.789 144.265 198.098 144.06C198.407 143.856 198.769 143.748 199.14 143.75C199.385 143.75 199.628 143.798 199.854 143.893C200.08 143.987 200.286 144.125 200.459 144.298C200.631 144.472 200.768 144.678 200.861 144.905C200.954 145.132 201.001 145.375 201 145.62Z" fill="#6C63FF"/>
<path d="M72.9704 217.45C73.6994 217.45 74.2904 216.859 74.2904 216.13C74.2904 215.401 73.6994 214.81 72.9704 214.81C72.2414 214.81 71.6504 215.401 71.6504 216.13C71.6504 216.859 72.2414 217.45 72.9704 217.45Z" fill="#6C63FF"/>
<path d="M291.05 410.22C292.094 410.22 292.94 409.374 292.94 408.33C292.94 407.286 292.094 406.44 291.05 406.44C290.006 406.44 289.16 407.286 289.16 408.33C289.16 409.374 290.006 410.22 291.05 410.22Z" fill="#6C63FF"/>
<path d="M336.5 333.32C337.229 333.32 337.82 332.729 337.82 332C337.82 331.271 337.229 330.68 336.5 330.68C335.771 330.68 335.18 331.271 335.18 332C335.18 332.729 335.771 333.32 336.5 333.32Z" fill="#6C63FF"/>
<path d="M424.17 95.6198C424.17 95.8809 424.093 96.1361 423.948 96.3532C423.803 96.5702 423.597 96.7394 423.355 96.8393C423.114 96.9392 422.849 96.9654 422.593 96.9144C422.337 96.8635 422.102 96.7378 421.917 96.5532C421.732 96.3686 421.607 96.1334 421.556 95.8773C421.505 95.6213 421.531 95.3559 421.631 95.1147C421.731 94.8735 421.9 94.6673 422.117 94.5223C422.334 94.3772 422.589 94.2998 422.85 94.2998C423.2 94.2998 423.536 94.4389 423.784 94.6864C424.031 94.934 424.17 95.2697 424.17 95.6198Z" fill="#6C63FF"/>
<path d="M172.75 69.0002C172.75 69.2612 172.673 69.5165 172.528 69.7335C172.383 69.9506 172.177 70.1198 171.935 70.2197C171.694 70.3196 171.429 70.3457 171.173 70.2948C170.917 70.2439 170.682 70.1182 170.497 69.9336C170.312 69.749 170.187 69.5138 170.136 69.2577C170.085 69.0016 170.111 68.7362 170.211 68.495C170.311 68.2538 170.48 68.0477 170.697 67.9026C170.914 67.7576 171.169 67.6802 171.43 67.6802C171.78 67.6828 172.114 67.8227 172.361 68.0697C172.608 68.3167 172.748 68.6509 172.75 69.0002Z" fill="#6C63FF"/>
<path d="M277.7 138.26C278.429 138.26 279.02 137.669 279.02 136.94C279.02 136.211 278.429 135.62 277.7 135.62C276.971 135.62 276.38 136.211 276.38 136.94C276.38 137.669 276.971 138.26 277.7 138.26Z" fill="#6C63FF"/>
<path d="M141.23 138.27C153.331 138.27 163.14 128.461 163.14 116.36C163.14 104.26 153.331 94.4502 141.23 94.4502C129.13 94.4502 119.32 104.26 119.32 116.36C119.32 128.461 129.13 138.27 141.23 138.27Z" fill="#6C63FF"/>
<path opacity="0.7" d="M141.23 138.27C153.331 138.27 163.14 128.461 163.14 116.36C163.14 104.26 153.331 94.4502 141.23 94.4502C129.13 94.4502 119.32 104.26 119.32 116.36C119.32 128.461 129.13 138.27 141.23 138.27Z" fill="white"/>
<path opacity="0.2" d="M133.68 99.8302C130.696 99.821 127.742 100.423 125 101.6C121.63 105.304 119.629 110.05 119.332 115.049C119.034 120.048 120.457 124.998 123.364 129.075C126.27 133.153 130.485 136.112 135.308 137.462C140.13 138.811 145.269 138.468 149.87 136.49C152.722 133.347 154.6 129.443 155.277 125.253C155.953 121.062 155.398 116.766 153.679 112.885C151.961 109.003 149.152 105.705 145.595 103.389C142.037 101.074 137.884 99.8408 133.64 99.8402L133.68 99.8302Z" fill="#6C63FF"/>
<path opacity="0.2" d="M131.5 105.62C131.5 106.016 131.383 106.402 131.163 106.731C130.943 107.06 130.631 107.316 130.265 107.468C129.9 107.619 129.498 107.659 129.11 107.582C128.722 107.505 128.365 107.314 128.086 107.034C127.806 106.755 127.616 106.398 127.538 106.01C127.461 105.622 127.501 105.22 127.652 104.855C127.804 104.489 128.06 104.177 128.389 103.957C128.718 103.737 129.104 103.62 129.5 103.62C130.03 103.62 130.539 103.831 130.914 104.206C131.289 104.581 131.5 105.09 131.5 105.62Z" fill="#6C63FF"/>
<path opacity="0.2" d="M155.06 103.62C155.06 104.016 154.942 104.402 154.723 104.731C154.503 105.06 154.19 105.316 153.825 105.468C153.459 105.619 153.057 105.659 152.669 105.582C152.281 105.505 151.925 105.314 151.645 105.034C151.366 104.755 151.175 104.398 151.098 104.01C151.021 103.622 151.06 103.22 151.212 102.855C151.363 102.489 151.62 102.177 151.948 101.957C152.277 101.737 152.664 101.62 153.06 101.62C153.59 101.62 154.099 101.831 154.474 102.206C154.849 102.581 155.06 103.09 155.06 103.62Z" fill="#6C63FF"/>
<path opacity="0.2" d="M151.06 117.9C151.06 118.549 150.868 119.183 150.507 119.722C150.147 120.262 149.635 120.682 149.035 120.93C148.436 121.179 147.776 121.244 147.14 121.117C146.504 120.991 145.919 120.678 145.461 120.219C145.002 119.761 144.69 119.176 144.563 118.54C144.436 117.904 144.501 117.244 144.75 116.645C144.998 116.046 145.418 115.533 145.958 115.173C146.497 114.812 147.131 114.62 147.78 114.62C148.65 114.62 149.484 114.966 150.099 115.581C150.714 116.196 151.06 117.03 151.06 117.9Z" fill="#6C63FF"/>
<path opacity="0.2" d="M140.64 127.25C140.64 128.116 140.383 128.963 139.902 129.684C139.42 130.404 138.736 130.965 137.936 131.297C137.136 131.628 136.255 131.715 135.405 131.546C134.556 131.377 133.775 130.96 133.163 130.347C132.55 129.735 132.133 128.954 131.964 128.105C131.795 127.255 131.882 126.374 132.213 125.574C132.545 124.774 133.106 124.09 133.826 123.608C134.547 123.127 135.394 122.87 136.26 122.87C137.422 122.87 138.536 123.332 139.357 124.153C140.178 124.974 140.64 126.088 140.64 127.25Z" fill="#6C63FF"/>
<path d="M400.9 380.646C403.339 370.31 396.938 359.953 386.601 357.513C376.265 355.074 365.908 361.475 363.468 371.812C361.028 382.148 367.43 392.505 377.767 394.945C388.103 397.384 398.46 390.983 400.9 380.646Z" fill="#6C63FF"/>
<path opacity="0.3" d="M400.9 380.646C403.339 370.31 396.938 359.953 386.601 357.513C376.265 355.074 365.908 361.475 363.468 371.812C361.028 382.148 367.43 392.505 377.767 394.945C388.103 397.384 398.46 390.983 400.9 380.646Z" fill="white"/>
<path opacity="0.4" d="M394.33 361.34C390.067 360.053 385.49 360.287 381.38 362C377.27 363.714 373.883 366.801 371.797 370.735C369.71 374.669 369.055 379.205 369.942 383.569C370.829 387.933 373.204 391.853 376.66 394.66C378.453 395.204 380.317 395.481 382.19 395.48C386.16 395.479 390.033 394.249 393.276 391.96C396.519 389.67 398.974 386.433 400.305 382.693C401.635 378.952 401.774 374.892 400.705 371.069C399.635 367.245 397.408 363.847 394.33 361.34Z" fill="#6C63FF"/>
<path d="M363.83 382C343.3 391.66 358.61 399.11 387.54 388.71C414.33 379.08 424.54 366.94 400.54 370.71C401.83 375.76 368.28 388.83 363.83 382Z" fill="#6C63FF"/>
<path opacity="0.2" d="M394.1 187.83C367.21 206 332.4 230 322.79 287.64H320.74C330.09 230.64 363.63 206.07 390.53 187.83H394.1Z" fill="black"/>
<path d="M255 368.27C238 368.27 221.19 360.6 213 348.08C207.95 340.34 202.08 324.13 219.56 302.5L221.11 303.76C208.75 319.06 206.47 334.41 214.68 346.99C224.68 362.29 248.27 369.99 268.41 364.51C289.04 358.9 301.56 340.96 302.77 315.29C306.9 227.48 353.55 200.43 387.61 180.68C408.78 168.41 424.07 159.55 420.71 140.84C420.24 138.25 419.21 136.46 417.54 135.36C413.19 132.49 404.69 134.48 394.85 136.77C375.54 141.27 349.1 147.43 333.35 120.64L335.08 119.64C350.08 145.17 374.65 139.44 394.4 134.84C404.69 132.45 413.57 130.38 418.64 133.71C420.79 135.12 422.11 137.35 422.64 140.51C426.25 160.59 409.64 170.23 388.59 182.43C354.92 201.95 308.82 228.68 304.74 315.43C303.48 342.03 290.42 360.64 268.9 366.49C264.366 367.697 259.692 368.296 255 368.27Z" fill="#6C63FF"/>
<path opacity="0.2" d="M255 368.27C238 368.27 221.19 360.6 213 348.08C207.95 340.34 202.08 324.13 219.56 302.5L221.11 303.76C208.75 319.06 206.47 334.41 214.68 346.99C224.68 362.29 248.27 369.99 268.41 364.51C289.04 358.9 301.56 340.96 302.77 315.29C306.9 227.48 353.55 200.43 387.61 180.68C408.78 168.41 424.07 159.55 420.71 140.84C420.24 138.25 419.21 136.46 417.54 135.36C413.19 132.49 404.69 134.48 394.85 136.77C375.54 141.27 349.1 147.43 333.35 120.64L335.08 119.64C350.08 145.17 374.65 139.44 394.4 134.84C404.69 132.45 413.57 130.38 418.64 133.71C420.79 135.12 422.11 137.35 422.64 140.51C426.25 160.59 409.64 170.23 388.59 182.43C354.92 201.95 308.82 228.68 304.74 315.43C303.48 342.03 290.42 360.64 268.9 366.49C264.366 367.697 259.692 368.296 255 368.27Z" fill="white"/>
<path d="M312.76 97C317.368 97.0266 321.945 97.7446 326.34 99.13C326.34 99.13 337.34 117.9 338.64 122.2C338.18 126.44 331.03 133.39 331.03 133.39L312.76 97Z" fill="#6C63FF"/>
<path opacity="0.3" d="M312.76 97C317.368 97.0266 321.945 97.7446 326.34 99.13C326.34 99.13 337.34 117.9 338.64 122.2C338.18 126.44 331.03 133.39 331.03 133.39L312.76 97Z" fill="white"/>
<path d="M345.34 188.13C341.104 182.951 337.241 177.477 333.78 171.75C332.94 170.303 332.143 168.83 331.39 167.33C330.96 166.48 330.55 165.63 330.15 164.77C329.625 163.933 329.218 163.028 328.94 162.08C327.74 149.41 332.08 140.08 327.94 129.91L311.46 136.35C311.46 136.35 312.86 154.47 316.06 165.35C318.06 172.08 322.54 177.9 326.87 183.29C328.22 184.97 329.52 186.7 330.87 188.39C332.22 190.08 333.58 191.45 334.87 193.04C336.82 195.45 337.46 197.76 335.99 200.6L335.74 201.05C335.32 201.79 337.28 202.63 338.52 201.05C340.52 198.47 340.24 198.63 341.98 196.43C343.04 195.1 344.25 193.65 345.3 192.43C345.806 191.83 346.088 191.072 346.095 190.287C346.102 189.502 345.835 188.739 345.34 188.13Z" fill="#6C63FF"/>
<path opacity="0.7" d="M345.34 188.13C341.104 182.951 337.241 177.477 333.78 171.75C332.94 170.303 332.143 168.83 331.39 167.33C330.96 166.48 330.55 165.63 330.15 164.77C329.625 163.933 329.218 163.028 328.94 162.08C327.74 149.41 332.08 140.08 327.94 129.91L311.46 136.35C311.46 136.35 312.86 154.47 316.06 165.35C318.06 172.08 322.54 177.9 326.87 183.29C328.22 184.97 329.52 186.7 330.87 188.39C332.22 190.08 333.58 191.45 334.87 193.04C336.82 195.45 337.46 197.76 335.99 200.6L335.74 201.05C335.32 201.79 337.28 202.63 338.52 201.05C340.52 198.47 340.24 198.63 341.98 196.43C343.04 195.1 344.25 193.65 345.3 192.43C345.806 191.83 346.088 191.072 346.095 190.287C346.102 189.502 345.835 188.739 345.34 188.13Z" fill="white"/>
<path opacity="0.3" d="M341.31 182.92C338.695 185.723 335.793 188.244 332.65 190.44C333.08 190.92 333.5 191.44 333.93 191.9C337.076 189.775 339.934 187.25 342.43 184.39L341.31 182.92Z" fill="#6C63FF"/>
<path opacity="0.3" d="M345.34 188.13L345.22 187.99C344.45 188.873 344.002 189.99 343.95 191.16C343.885 191.963 344.016 192.769 344.33 193.51L345.28 192.38C345.776 191.786 346.053 191.04 346.064 190.266C346.075 189.492 345.819 188.738 345.34 188.13Z" fill="#6C63FF"/>
<path d="M308.84 109C307.053 111.675 304.91 114.094 302.47 116.19C301.117 117.356 299.633 118.363 298.05 119.19C297.218 119.616 296.356 119.981 295.47 120.28L294.79 120.5L294.57 120.56L294.1 120.69C293.81 120.759 293.516 120.806 293.22 120.83C292.376 120.895 291.528 120.817 290.71 120.6C289.678 120.307 288.69 119.88 287.77 119.33C287.029 118.897 286.312 118.427 285.62 117.92C284.37 116.99 283.174 115.988 282.04 114.92C279.852 112.847 277.845 110.593 276.04 108.18C275.692 107.71 275.52 107.133 275.552 106.55C275.584 105.966 275.819 105.412 276.216 104.983C276.613 104.554 277.147 104.277 277.727 104.199C278.306 104.122 278.894 104.25 279.39 104.56H279.47C281.83 106.06 284.21 107.64 286.53 109.05C287.71 109.74 288.85 110.44 289.98 110.98C290.496 111.25 291.027 111.491 291.57 111.7C291.908 111.849 292.271 111.938 292.64 111.96C292.7 111.96 292.64 111.89 292.27 111.9C292.153 111.893 292.036 111.893 291.92 111.9L291.7 111.95L292.03 111.78C292.474 111.541 292.905 111.277 293.32 110.99C294.215 110.359 295.051 109.65 295.82 108.87C297.567 107.039 299.203 105.106 300.72 103.08C301.551 102.15 302.699 101.565 303.94 101.438C305.18 101.311 306.423 101.653 307.425 102.395C308.427 103.138 309.115 104.228 309.355 105.452C309.594 106.676 309.368 107.945 308.72 109.01L308.84 109Z" fill="#6C63FF"/>
<path opacity="0.7" d="M308.84 109C307.053 111.675 304.91 114.094 302.47 116.19C301.117 117.356 299.633 118.363 298.05 119.19C297.218 119.616 296.356 119.981 295.47 120.28L294.79 120.5L294.57 120.56L294.1 120.69C293.81 120.759 293.516 120.806 293.22 120.83C292.376 120.895 291.528 120.817 290.71 120.6C289.678 120.307 288.69 119.88 287.77 119.33C287.029 118.897 286.312 118.427 285.62 117.92C284.37 116.99 283.174 115.988 282.04 114.92C279.852 112.847 277.845 110.593 276.04 108.18C275.692 107.71 275.52 107.133 275.552 106.55C275.584 105.966 275.819 105.412 276.216 104.983C276.613 104.554 277.147 104.277 277.727 104.199C278.306 104.122 278.894 104.25 279.39 104.56H279.47C281.83 106.06 284.21 107.64 286.53 109.05C287.71 109.74 288.85 110.44 289.98 110.98C290.496 111.25 291.027 111.491 291.57 111.7C291.908 111.849 292.271 111.938 292.64 111.96C292.7 111.96 292.64 111.89 292.27 111.9C292.153 111.893 292.036 111.893 291.92 111.9L291.7 111.95L292.03 111.78C292.474 111.541 292.905 111.277 293.32 110.99C294.215 110.359 295.051 109.65 295.82 108.87C297.567 107.039 299.203 105.106 300.72 103.08C301.551 102.15 302.699 101.565 303.94 101.438C305.18 101.311 306.423 101.653 307.425 102.395C308.427 103.138 309.115 104.228 309.355 105.452C309.594 106.676 309.368 107.945 308.72 109.01L308.84 109Z" fill="white"/>
<path d="M272.29 102.42L273.46 104.42C273.46 104.42 274.35 107.04 276.14 107.52L281 105.95L280.75 105.54C280.13 104.6 280.2 102.77 280.41 101.25C280.62 99.7301 279.84 99.6801 279.26 100.06C278.849 100.533 278.561 101.1 278.42 101.71C278.182 101.38 277.918 101.069 277.63 100.78L276.15 99.3001C275.84 98.9966 275.426 98.8218 274.992 98.8106C274.558 98.7995 274.136 98.9529 273.81 99.2401L272.61 100.31C272.326 100.573 272.139 100.926 272.081 101.309C272.023 101.692 272.097 102.084 272.29 102.42Z" fill="#6C63FF"/>
<path opacity="0.7" d="M272.29 102.42L273.46 104.42C273.46 104.42 274.35 107.04 276.14 107.52L281 105.95L280.75 105.54C280.13 104.6 280.2 102.77 280.41 101.25C280.62 99.7301 279.84 99.6801 279.26 100.06C278.849 100.533 278.561 101.1 278.42 101.71C278.182 101.38 277.918 101.069 277.63 100.78L276.15 99.3001C275.84 98.9966 275.426 98.8218 274.992 98.8106C274.558 98.7995 274.136 98.9529 273.81 99.2401L272.61 100.31C272.326 100.573 272.139 100.926 272.081 101.309C272.023 101.692 272.097 102.084 272.29 102.42Z" fill="white"/>
<path d="M317.67 95.22C312.279 96.6488 307.116 98.8267 302.33 101.69C301.583 102.157 300.997 102.842 300.651 103.651C300.304 104.461 300.213 105.357 300.39 106.22C302.32 115.66 306.71 128.3 311.45 136.35L333.56 127.2C333.71 123.3 328.34 110.68 322.87 98.48C321.89 96.29 320 94.66 317.67 95.22Z" fill="#6C63FF"/>
<path opacity="0.8" d="M317.67 95.22C312.279 96.6488 307.116 98.8267 302.33 101.69C301.583 102.157 300.997 102.842 300.651 103.651C300.304 104.461 300.213 105.357 300.39 106.22C302.32 115.66 306.71 128.3 311.45 136.35L333.56 127.2C333.71 123.3 328.34 110.68 322.87 98.48C321.89 96.29 320 94.66 317.67 95.22Z" fill="white"/>
<path opacity="0.3" d="M326.3 106.21L321.91 104.74C322.91 107.31 326.44 110.56 328.91 112.47C328.11 110.47 327.22 108.37 326.3 106.21Z" fill="#6C63FF"/>
<path d="M316.22 85.3199C314.39 81.8399 310.44 80.0899 305.7 80.4799C301.7 80.8199 298.16 84.8999 298.58 87.0999C299 89.2999 302.36 90.2399 303 90.9999L300.23 92.9999C299.902 93.2367 299.625 93.5375 299.416 93.8842C299.207 94.2308 299.071 94.6161 299.015 95.0169C298.959 95.4177 298.984 95.8256 299.09 96.2163C299.196 96.6069 299.379 96.9721 299.63 97.2899C300.8 98.7699 302.34 100.29 303.23 101.41C310.89 101.21 316.56 98.2899 318.61 95.4799C317.84 91.9199 318 88.7799 316.22 85.3199Z" fill="#6C63FF"/>
<path opacity="0.8" d="M316.22 85.3199C314.39 81.8399 310.44 80.0899 305.7 80.4799C301.7 80.8199 298.16 84.8999 298.58 87.0999C299 89.2999 302.36 90.2399 303 90.9999L300.23 92.9999C299.902 93.2367 299.625 93.5375 299.416 93.8842C299.207 94.2308 299.071 94.6161 299.015 95.0169C298.959 95.4177 298.984 95.8256 299.09 96.2163C299.196 96.6069 299.379 96.9721 299.63 97.2899C300.8 98.7699 302.34 100.29 303.23 101.41C310.89 101.21 316.56 98.2899 318.61 95.4799C317.84 91.9199 318 88.7799 316.22 85.3199Z" fill="white"/>
<path d="M312.46 87.4801C313.004 88.8747 313.122 90.3992 312.799 91.861C312.477 93.3227 311.728 94.656 310.648 95.6924C309.568 96.7287 308.205 97.4216 306.731 97.6834C305.257 97.9453 303.739 97.7643 302.368 97.1633C300.997 96.5624 299.835 95.5685 299.029 94.3073C298.222 93.0461 297.808 91.5742 297.838 90.0776C297.869 88.581 298.342 87.127 299.198 85.8993C300.055 84.6716 301.256 83.7253 302.65 83.1801C304.521 82.4511 306.605 82.4945 308.444 83.3007C310.284 84.1069 311.728 85.6101 312.46 87.4801Z" fill="#263238"/>
<path d="M377.39 177.6C377.28 174.31 377.13 174.6 377.04 171.83C376.98 170.13 376.97 168.24 376.96 166.61C376.957 165.836 376.686 165.087 376.194 164.489C375.702 163.892 375.019 163.482 374.26 163.33C372.94 163.06 371.61 162.81 370.26 162.53C368.53 162.16 366.82 161.76 365.13 161.27C363.81 160.89 362.51 160.47 361.22 160C359.93 159.53 358.48 159 357.14 158.38C355.56 157.71 354 156.99 352.46 156.24C350.73 155.42 349.02 154.56 347.31 153.69C340.73 142.8 340.59 135.62 333.53 127.2L318.37 134.06C318.37 134.06 329.51 153.82 337.09 162.2C341.46 167.02 348.31 169.2 354.42 170.78C358.83 171.91 363.3 172.78 367.77 173.61C369.51 173.93 371.4 174.05 372.9 175.09C374.01 175.941 374.771 177.168 375.04 178.54C375.107 178.82 375.167 179.1 375.22 179.38C375.41 180.22 377.46 179.58 377.39 177.6Z" fill="#6C63FF"/>
<path opacity="0.8" d="M377.39 177.6C377.28 174.31 377.13 174.6 377.04 171.83C376.98 170.13 376.97 168.24 376.96 166.61C376.957 165.836 376.686 165.087 376.194 164.489C375.702 163.892 375.019 163.482 374.26 163.33C372.94 163.06 371.61 162.81 370.26 162.53C368.53 162.16 366.82 161.76 365.13 161.27C363.81 160.89 362.51 160.47 361.22 160C359.93 159.53 358.48 159 357.14 158.38C355.56 157.71 354 156.99 352.46 156.24C350.73 155.42 349.02 154.56 347.31 153.69C340.73 142.8 340.59 135.62 333.53 127.2L318.37 134.06C318.37 134.06 329.51 153.82 337.09 162.2C341.46 167.02 348.31 169.2 354.42 170.78C358.83 171.91 363.3 172.78 367.77 173.61C369.51 173.93 371.4 174.05 372.9 175.09C374.01 175.941 374.771 177.168 375.04 178.54C375.107 178.82 375.167 179.1 375.22 179.38C375.41 180.22 377.46 179.58 377.39 177.6Z" fill="white"/>
<path opacity="0.3" d="M369.7 162.4C369.1 162.27 368.5 162.14 367.89 161.99C367.94 165.45 366.32 171.41 365.73 173.22L367.63 173.58C368.876 169.978 369.573 166.209 369.7 162.4Z" fill="#6C63FF"/>
<path opacity="0.3" d="M377 166.61C376.997 165.837 376.728 165.089 376.238 164.492C375.748 163.895 375.067 163.484 374.31 163.33L373.31 163.14C373.47 164.277 374.052 165.312 374.94 166.04C375.51 166.568 376.195 166.958 376.94 167.18C377 167 377 166.8 377 166.61Z" fill="#6C63FF"/>
<path d="M311.05 87.5398C311.45 89.0598 309.75 90.6498 308.4 89.3398C307.14 87.9889 305.761 86.7539 304.28 85.6498C302.89 84.7798 304.74 83.2598 306.93 83.8498C307.864 84.0846 308.728 84.5432 309.446 85.1861C310.163 85.8289 310.714 86.6367 311.05 87.5398Z" fill="white"/>
<path d="M311.16 135.86C310.46 136.12 311.74 137.32 311.74 137.32C311.74 137.32 325.74 132.53 334.24 127.6C334.261 127.302 334.21 127.002 334.092 126.728C333.974 126.453 333.791 126.21 333.56 126.02C326.286 129.721 318.807 133.006 311.16 135.86Z" fill="#6C63FF"/>
<path opacity="0.5" d="M311.16 135.86C310.46 136.12 311.74 137.32 311.74 137.32C311.74 137.32 325.74 132.53 334.24 127.6C334.261 127.302 334.21 127.002 334.092 126.728C333.974 126.453 333.791 126.21 333.56 126.02C326.286 129.721 318.807 133.006 311.16 135.86Z" fill="white"/>
<path d="M321.46 94.5599C324.22 95.9599 326.81 97.4299 329.46 99.0599C330.75 99.8799 332.03 100.71 333.3 101.61C334.57 102.51 335.83 103.43 337.1 104.47L337.57 104.86L338.16 105.4C338.512 105.714 338.845 106.048 339.16 106.4C339.48 106.75 339.75 107.09 340.01 107.4C340.27 107.71 340.55 108.08 340.78 108.4C341.712 109.685 342.573 111.021 343.36 112.4C344.91 115.074 346.247 117.866 347.36 120.75C347.566 121.295 347.576 121.894 347.39 122.446C347.204 122.998 346.832 123.468 346.338 123.777C345.845 124.085 345.259 124.214 344.681 124.139C344.104 124.065 343.57 123.793 343.17 123.37L343.12 123.31C341.12 121.18 339.19 118.94 337.25 116.85C335.31 114.76 333.34 112.64 331.71 111.71C329.44 110.3 326.91 108.89 324.4 107.51L316.84 103.31C315.668 102.689 314.79 101.628 314.4 100.361C314.01 99.0929 314.139 97.7221 314.76 96.5499C315.381 95.3776 316.441 94.4999 317.709 94.1098C318.977 93.7198 320.348 93.8493 321.52 94.4699L321.46 94.5599Z" fill="#6C63FF"/>
<path opacity="0.8" d="M321.46 94.5599C324.22 95.9599 326.81 97.4299 329.46 99.0599C330.75 99.8799 332.03 100.71 333.3 101.61C334.57 102.51 335.83 103.43 337.1 104.47L337.57 104.86L338.16 105.4C338.512 105.714 338.845 106.048 339.16 106.4C339.48 106.75 339.75 107.09 340.01 107.4C340.27 107.71 340.55 108.08 340.78 108.4C341.712 109.685 342.573 111.021 343.36 112.4C344.91 115.074 346.247 117.866 347.36 120.75C347.566 121.295 347.576 121.894 347.39 122.446C347.204 122.998 346.832 123.468 346.338 123.777C345.845 124.085 345.259 124.214 344.681 124.139C344.104 124.065 343.57 123.793 343.17 123.37L343.12 123.31C341.12 121.18 339.19 118.94 337.25 116.85C335.31 114.76 333.34 112.64 331.71 111.71C329.44 110.3 326.91 108.89 324.4 107.51L316.84 103.31C315.668 102.689 314.79 101.628 314.4 100.361C314.01 99.0929 314.139 97.7221 314.76 96.5499C315.381 95.3776 316.441 94.4999 317.709 94.1098C318.977 93.7198 320.348 93.8493 321.52 94.4699L321.46 94.5599Z" fill="white"/>
<path d="M349.73 125.74L348.88 123.61C348.88 123.61 348.41 120.89 346.72 120.13L341.72 120.92L341.89 121.36C342.35 122.36 342 124.19 341.55 125.65C341.1 127.11 341.86 127.3 342.5 127.01C342.86 126.85 343.21 126.2 343.59 125.51C343.776 125.858 343.987 126.192 344.22 126.51L345.45 128.2C345.707 128.55 346.087 128.79 346.513 128.872C346.94 128.953 347.382 128.871 347.75 128.64L349.11 127.77C349.428 127.552 349.663 127.232 349.776 126.864C349.888 126.495 349.872 126.098 349.73 125.74Z" fill="#6C63FF"/>
<path opacity="0.8" d="M349.73 125.74L348.88 123.61C348.88 123.61 348.41 120.89 346.72 120.13L341.72 120.92L341.89 121.36C342.35 122.36 342 124.19 341.55 125.65C341.1 127.11 341.86 127.3 342.5 127.01C342.86 126.85 343.21 126.2 343.59 125.51C343.776 125.858 343.987 126.192 344.22 126.51L345.45 128.2C345.707 128.55 346.087 128.79 346.513 128.872C346.94 128.953 347.382 128.871 347.75 128.64L349.11 127.77C349.428 127.552 349.663 127.232 349.776 126.864C349.888 126.495 349.872 126.098 349.73 125.74Z" fill="white"/>
<path opacity="0.3" d="M317.24 106.06L316.02 106.16L308.53 124.24C308.94 124.27 309.351 124.236 309.75 124.14C309.75 124.14 319.51 120.5 322.46 119.14C320.48 115.05 317.24 106.06 317.24 106.06Z" fill="#6C63FF"/>
<path d="M303.57 110.8C304.48 115.526 306.17 120.068 308.57 124.24C312.23 122.98 318.33 120.6 321.29 119.24C319.301 114.975 317.535 110.609 316 106.16C312.87 106.37 306 109 303.57 110.8Z" fill="white"/>
<path opacity="0.3" d="M311 114.71C310.854 115.199 310.566 115.634 310.173 115.959C309.779 116.284 309.298 116.486 308.791 116.538C308.283 116.59 307.771 116.49 307.32 116.251C306.869 116.012 306.499 115.644 306.257 115.195C306.015 114.746 305.911 114.235 305.96 113.727C306.008 113.219 306.206 112.736 306.529 112.341C306.851 111.945 307.284 111.654 307.772 111.504C308.26 111.355 308.781 111.353 309.27 111.5C309.925 111.697 310.475 112.145 310.799 112.747C311.124 113.349 311.196 114.055 311 114.71Z" fill="#6C63FF"/>
<path opacity="0.6" d="M312.91 111.27C312.871 111.437 312.783 111.588 312.656 111.704C312.53 111.819 312.371 111.894 312.202 111.918C312.032 111.942 311.859 111.914 311.705 111.838C311.552 111.762 311.425 111.641 311.341 111.492C311.257 111.342 311.22 111.171 311.236 111C311.251 110.829 311.318 110.667 311.427 110.535C311.536 110.403 311.683 110.307 311.848 110.26C312.012 110.212 312.187 110.216 312.35 110.27C312.553 110.335 312.723 110.474 312.827 110.659C312.931 110.845 312.961 111.063 312.91 111.27Z" fill="#6C63FF"/>
<path opacity="0.6" d="M315.15 110.4C315.126 110.516 315.079 110.626 315.011 110.722C314.942 110.819 314.854 110.9 314.753 110.961C314.651 111.022 314.538 111.06 314.421 111.075C314.303 111.089 314.184 111.079 314.071 111.045C313.957 111.011 313.853 110.953 313.763 110.876C313.673 110.799 313.6 110.704 313.549 110.597C313.499 110.49 313.471 110.374 313.467 110.255C313.464 110.137 313.485 110.019 313.53 109.91C313.562 109.804 313.614 109.706 313.685 109.62C313.755 109.535 313.841 109.464 313.939 109.412C314.036 109.36 314.143 109.328 314.253 109.317C314.363 109.306 314.474 109.317 314.58 109.35C314.794 109.415 314.974 109.561 315.081 109.758C315.187 109.954 315.212 110.185 315.15 110.4Z" fill="#6C63FF"/>
<path opacity="0.5" d="M318.29 118.19L309.04 121.84L308.49 120.02L317.73 116.37L318.29 118.19Z" fill="#6C63FF"/>
<path opacity="0.2" d="M267.26 257.17C267.238 262.993 266.676 268.801 265.58 274.52C264.4 279.66 262.566 283.42 260.08 285.8C258.921 286.95 257.546 287.858 256.033 288.47C254.521 289.083 252.901 289.389 251.27 289.37C246.13 289.37 242.206 286.567 239.5 280.96C239.024 279.953 238.62 278.914 238.29 277.85C232.573 282.76 227.25 288.109 222.37 293.85L217.06 300.11C219.917 303.006 223.214 305.433 226.83 307.3C233.056 310.52 241.23 312.133 251.35 312.14C253.13 312.14 254.85 312.09 256.52 311.99C262.642 302.931 267.708 293.201 271.62 282.99L286.47 244.27L267.26 257.17Z" fill="black"/>
<path d="M133.39 310L150.89 327.5L199.89 281.33C183 274.88 150.16 293.19 133.39 310Z" fill="#263238"/>
<path d="M194.42 371C188.83 365.4 176.92 353.5 176.92 353.5L223.09 304.5C229.5 321.35 211.19 354.22 194.42 371Z" fill="#263238"/>
<path d="M261.4 260.7L280.49 223.89L243.68 243C231.857 249.132 220.94 256.872 211.24 266L148.49 325.07L179.32 355.9L238.39 293.15C247.522 283.448 255.266 272.528 261.4 260.7Z" fill="#6C63FF"/>
<path opacity="0.6" d="M261.4 260.7L280.49 223.89L243.68 243C231.857 249.132 220.94 256.872 211.24 266L148.49 325.07L179.32 355.9L238.39 293.15C247.522 283.448 255.266 272.528 261.4 260.7Z" fill="white"/>
<path d="M222.2 295.08C229.324 295.08 235.1 289.304 235.1 282.18C235.1 275.055 229.324 269.28 222.2 269.28C215.075 269.28 209.3 275.055 209.3 282.18C209.3 289.304 215.075 295.08 222.2 295.08Z" fill="white"/>
<path d="M222.2 290.47C226.779 290.47 230.49 286.759 230.49 282.18C230.49 277.602 226.779 273.89 222.2 273.89C217.622 273.89 213.91 277.602 213.91 282.18C213.91 286.759 217.622 290.47 222.2 290.47Z" fill="#6C63FF"/>
<path opacity="0.3" d="M189.75 344.82L159.56 314.63L184.28 291.37L213.01 320.11L189.75 344.82Z" fill="#6C63FF"/>
<path d="M140.22 337.62C117.62 339.45 110.13 353.92 107.57 373.15C106.27 382.96 105.69 392.89 97.46 398.63C96.9649 398.967 96.5921 399.454 96.3975 400.021C96.2029 400.587 96.1969 401.201 96.3805 401.77C96.564 402.34 96.9273 402.835 97.4157 403.181C97.9042 403.527 98.4916 403.706 99.09 403.69C129.43 402.74 143.58 387.89 145.36 381.69C144.893 384.931 144.057 388.108 142.87 391.16C142.652 391.699 142.609 392.292 142.748 392.857C142.887 393.421 143.2 393.927 143.643 394.302C144.087 394.678 144.637 394.904 145.217 394.949C145.796 394.993 146.375 394.854 146.87 394.55C155.38 389.22 166.06 379.4 166.77 363.47C160.51 354.6 140.22 337.62 140.22 337.62Z" fill="#6C63FF"/>
<path opacity="0.2" d="M140.22 337.62C117.62 339.45 110.13 353.92 107.57 373.15C106.27 382.96 105.69 392.89 97.46 398.63C96.9649 398.967 96.5921 399.454 96.3975 400.021C96.2029 400.587 96.1969 401.201 96.3805 401.77C96.564 402.34 96.9273 402.835 97.4157 403.181C97.9042 403.527 98.4916 403.706 99.09 403.69C129.43 402.74 143.58 387.89 145.36 381.69C144.893 384.931 144.057 388.108 142.87 391.16C142.652 391.699 142.609 392.292 142.748 392.857C142.887 393.421 143.2 393.927 143.643 394.302C144.087 394.678 144.637 394.904 145.217 394.949C145.796 394.993 146.375 394.854 146.87 394.55C155.38 389.22 166.06 379.4 166.77 363.47C160.51 354.6 140.22 337.62 140.22 337.62Z" fill="white"/>
<path d="M170.28 370.3L134.08 334.1L153.36 329.93L174.45 351.02L170.28 370.3Z" fill="#6C63FF"/>
</svg>
