<svg width="500" height="500" viewBox="0 0 500 500" fill="none" xmlns="http://www.w3.org/2000/svg">
<path d="M44.3096 258.15C44.3096 258.15 46.6596 331.15 107.58 379.75C168.5 428.35 252.9 431.87 321.23 436.49C389.56 441.11 442 402.43 450 344C458 285.57 405.7 268.37 377.37 201.8C349.04 135.23 351.56 113.36 291.62 72.4202C231.68 31.4802 137.86 56.5702 88.6996 126.71C39.5396 196.85 44.3096 258.15 44.3096 258.15Z" fill="#6C63FF"/>
<path opacity="0.7" d="M44.3096 258.15C44.3096 258.15 46.6596 331.15 107.58 379.75C168.5 428.35 252.9 431.87 321.23 436.49C389.56 441.11 442 402.43 450 344C458 285.57 405.7 268.37 377.37 201.8C349.04 135.23 351.56 113.36 291.62 72.4202C231.68 31.4802 137.86 56.5702 88.6996 126.71C39.5396 196.85 44.3096 258.15 44.3096 258.15Z" fill="white"/>
<path d="M341.49 407.21C381.365 407.21 413.69 397.62 413.69 385.79C413.69 373.96 381.365 364.37 341.49 364.37C301.615 364.37 269.29 373.96 269.29 385.79C269.29 397.62 301.615 407.21 341.49 407.21Z" fill="#263238" stroke="#263238" stroke-width="1.193" stroke-linecap="round" stroke-linejoin="round"/>
<path d="M341.49 374.22C375.64 374.22 404.24 381.22 411.75 390.71C412.936 389.337 413.62 387.602 413.69 385.79C413.69 373.95 381.36 364.36 341.49 364.36C301.62 364.36 269.28 373.95 269.28 385.79C269.35 387.602 270.035 389.337 271.22 390.71C278.73 381.26 307.33 374.22 341.49 374.22Z" fill="white" stroke="#263238" stroke-width="1.193" stroke-linecap="round" stroke-linejoin="round"/>
<path d="M331.63 404.52C307.51 403.43 289.31 398.52 289.31 392.52C289.322 391.865 289.527 391.229 289.9 390.69" stroke="white" stroke-width="1.193" stroke-linecap="round" stroke-linejoin="round"/>
<path d="M387.6 386.68C391.73 388.43 394.09 390.43 394.09 392.56C394.09 399.29 370.63 404.74 341.7 404.74H340.45" stroke="white" stroke-width="1.193" stroke-linecap="round" stroke-linejoin="round"/>
<path d="M296.36 386.45C305.43 382.82 322.36 380.37 341.7 380.37C352.705 380.285 363.696 381.185 374.54 383.06" stroke="white" stroke-width="1.193" stroke-linecap="round" stroke-linejoin="round"/>
<path d="M330.94 396.74C324.83 395.89 320.74 394.34 320.74 392.56C320.74 389.87 330.13 387.69 341.74 387.69C353.35 387.69 362.69 389.87 362.69 392.56C362.69 394.87 355.79 396.8 346.53 397.3" stroke="white" stroke-width="1.193" stroke-linecap="round" stroke-linejoin="round"/>
<path d="M51.5195 299.68C83.0095 290.73 149.27 273.07 185.84 271.74C235 270 318 305.68 369.82 311.93C421.64 318.18 456.46 316.4 456.46 316.4" stroke="#263238" stroke-width="1.193" stroke-linecap="round" stroke-linejoin="round"/>
<path d="M34 304.79C34 304.79 36.72 303.96 41.49 302.57" stroke="#263238" stroke-width="1.193" stroke-linecap="round" stroke-linejoin="round"/>
<path d="M442.47 249.12C424.318 245.133 405.747 243.376 387.17 243.89C348.75 245.18 307.17 250.26 255.76 256.89C204.35 263.52 131.14 226.89 81.3597 240.48C31.5797 254.07 35.3597 258.16 35.3597 258.16" stroke="#263238" stroke-width="1.193" stroke-linecap="round" stroke-linejoin="round"/>
<path d="M456.63 252.8C456.63 252.8 454.69 252.16 451.18 251.23" stroke="#263238" stroke-width="1.193" stroke-linecap="round" stroke-linejoin="round"/>
<path d="M364.45 158.35C363.896 156.102 362.606 154.105 360.784 152.677C358.962 151.25 356.714 150.474 354.4 150.474C352.085 150.474 349.837 151.25 348.015 152.677C346.193 154.105 344.903 156.102 344.35 158.35H364.45Z" stroke="#263238" stroke-width="1.193" stroke-linecap="round" stroke-linejoin="round"/>
<path d="M466 158.35C465.393 155.789 464.011 153.477 462.042 151.729C460.074 149.98 457.615 148.881 455 148.58C455.822 144.236 455.674 139.764 454.567 135.484C453.459 131.204 451.419 127.221 448.593 123.821C445.766 120.421 442.223 117.688 438.217 115.818C434.211 113.947 429.841 112.985 425.42 113C418.36 113 411.525 115.484 406.112 120.016C400.698 124.548 397.052 130.84 395.81 137.79C392.971 135.57 389.565 134.193 385.981 133.816C382.396 133.439 378.778 134.077 375.54 135.658C372.301 137.239 369.572 139.698 367.664 142.756C365.756 145.814 364.746 149.346 364.75 152.95C364.756 154.785 365.022 156.61 365.54 158.37L466 158.35Z" stroke="#263238" stroke-width="1.193" stroke-linecap="round" stroke-linejoin="round"/>
<path d="M185.57 182.49C185.295 181.343 184.642 180.323 183.716 179.592C182.79 178.862 181.645 178.465 180.465 178.465C179.286 178.465 178.141 178.862 177.215 179.592C176.289 180.323 175.636 181.343 175.36 182.49H185.57Z" stroke="#263238" stroke-width="1.193" stroke-linecap="round" stroke-linejoin="round"/>
<path d="M237.12 182.49C236.816 181.183 236.116 180.001 235.116 179.106C234.115 178.211 232.863 177.647 231.53 177.49C232.011 175.473 232.076 173.378 231.721 171.335C231.366 169.292 230.599 167.342 229.466 165.605C228.333 163.868 226.858 162.38 225.13 161.232C223.403 160.083 221.46 159.299 219.42 158.926C217.38 158.554 215.285 158.6 213.264 159.064C211.242 159.527 209.336 160.398 207.662 161.622C205.988 162.846 204.581 164.399 203.527 166.185C202.472 167.971 201.793 169.953 201.53 172.01C200.089 170.884 198.36 170.185 196.541 169.994C194.722 169.802 192.886 170.126 191.242 170.928C189.598 171.729 188.212 172.977 187.243 174.528C186.274 176.079 185.76 177.871 185.76 179.7C185.764 180.634 185.899 181.563 186.16 182.46L237.12 182.49Z" stroke="#263238" stroke-width="1.193" stroke-linecap="round" stroke-linejoin="round"/>
<path d="M231.93 198.63C231.758 197.906 231.346 197.26 230.762 196.799C230.178 196.337 229.455 196.086 228.71 196.086C227.966 196.086 227.243 196.337 226.659 196.799C226.074 197.26 225.663 197.906 225.49 198.63H231.93Z" stroke="#263238" stroke-width="1.193" stroke-linecap="round" stroke-linejoin="round"/>
<path d="M264.47 198.63C264.275 197.808 263.832 197.067 263.2 196.507C262.568 195.946 261.779 195.595 260.94 195.5C261.048 194.916 261.102 194.324 261.1 193.73C261.07 191.345 260.157 189.055 258.537 187.304C256.917 185.553 254.706 184.465 252.33 184.25C249.954 184.035 247.583 184.708 245.675 186.139C243.767 187.571 242.458 189.659 242 192C241.09 191.29 239.998 190.85 238.85 190.73C237.702 190.61 236.544 190.815 235.506 191.321C234.469 191.828 233.595 192.616 232.984 193.595C232.373 194.574 232.049 195.706 232.05 196.86C232.051 197.449 232.135 198.035 232.3 198.6L264.47 198.63Z" stroke="#263238" stroke-width="1.193" stroke-linecap="round" stroke-linejoin="round"/>
<path d="M162.65 313.83C162.298 313.835 161.952 313.741 161.65 313.56C161.213 313.29 160.896 312.862 160.766 312.365C160.635 311.868 160.701 311.34 160.95 310.89C161.44 310.03 285.08 175.2 341.65 125.76C341.847 125.602 342.097 125.524 342.35 125.542C342.602 125.561 342.838 125.674 343.01 125.86C343.174 126.059 343.256 126.313 343.237 126.57C343.219 126.827 343.101 127.067 342.91 127.24C286.62 176.47 164.81 312 164.32 312.85C164.153 313.147 163.911 313.394 163.618 313.566C163.324 313.738 162.99 313.829 162.65 313.83Z" fill="#263238"/>
<path d="M169.48 287C169.48 287 175.61 280.46 179.29 280.46C182.97 280.46 189.92 286.59 189.51 289.86C189.1 293.13 182.97 290.27 182.97 290.27C182.97 290.27 177.24 298.04 171.52 296.81C165.8 295.58 169.48 287 169.48 287Z" fill="#6C63FF" stroke="#263238" stroke-width="1.193" stroke-linecap="round" stroke-linejoin="round"/>
<path d="M183 290.25C183 290.25 186.75 292.85 187.08 294.68C187.41 296.51 182.92 301.68 177.93 302.84C172.94 304 170.27 301.17 171.77 298.51C173.27 295.85 179.22 290.49 183 290.25Z" fill="#6C63FF" stroke="#263238" stroke-width="1.193" stroke-linecap="round" stroke-linejoin="round"/>
<path d="M337 266.56V131.27C337 131.27 334.27 141.06 334.27 141.77" stroke="#263238" stroke-width="1.193" stroke-linecap="round" stroke-linejoin="round"/>
<path d="M393.42 273.69H289.68V356.81H393.42V273.69Z" fill="#6C63FF" stroke="#263238" stroke-width="1.193" stroke-linecap="round" stroke-linejoin="round"/>
<path d="M338.48 273.34V268.58C338.48 268.265 338.354 267.962 338.131 267.739C337.908 267.516 337.605 267.39 337.29 267.39C336.974 267.39 336.671 267.516 336.448 267.739C336.225 267.962 336.1 268.265 336.1 268.58V273.34H338.48Z" fill="#263238"/>
<path d="M348 261.76V262C347.903 261.818 347.759 261.666 347.584 261.558C347.408 261.451 347.206 261.393 347 261.39C346.682 261.39 346.377 261.517 346.151 261.742C345.926 261.967 345.8 262.272 345.8 262.59V275.3C345.8 276.272 345.415 277.204 344.729 277.892C344.043 278.58 343.112 278.967 342.14 278.97C341.637 278.971 341.139 278.865 340.68 278.66C340.415 279.055 340.299 279.533 340.354 280.005C340.409 280.478 340.631 280.916 340.98 281.24C341.363 281.312 341.751 281.349 342.14 281.35C342.935 281.35 343.721 281.194 344.455 280.89C345.189 280.586 345.856 280.14 346.418 279.578C346.98 279.016 347.425 278.349 347.729 277.615C348.034 276.881 348.19 276.095 348.19 275.3V269.41H350.93L348 261.76Z" fill="#263238"/>
<path d="M337.1 130C337.1 130 339.22 122.47 337.34 123.17C335.46 123.87 337.1 130 337.1 130Z" stroke="#263238" stroke-width="1.193" stroke-linecap="round" stroke-linejoin="round"/>
<path d="M337.1 130C337.1 130 329.1 127.17 329.81 129.76C330.52 132.35 337.1 130 337.1 130Z" stroke="#263238" stroke-width="1.193" stroke-linecap="round" stroke-linejoin="round"/>
<path d="M164.59 195.63C164.59 195.63 154.72 190.1 135.36 192.87C116 195.64 112.31 211.6 115.47 228.19C118.63 244.78 136.94 258.83 139.71 257.65C142.48 256.47 138.92 219.33 145.24 212.22C151.56 205.11 172.1 206.3 173.24 200.77C174.38 195.24 164.59 195.63 164.59 195.63Z" fill="#263238" stroke="#263238" stroke-width="1.193" stroke-linecap="round" stroke-linejoin="round"/>
<path d="M130.18 205.48L132.18 218.55C132.18 218.55 119.78 252.4 121.79 257.1C123.8 261.8 142.56 263.46 142.56 263.46C142.56 263.46 173.06 267.15 182.11 263.46C191.16 259.77 186.47 249.05 185.46 246.04C184.45 243.03 178.76 218.89 178.76 218.89C178.76 218.89 180.76 213.19 180.76 210.18C180.76 207.17 180.42 198.78 179.08 196.77C177.74 194.76 154.28 192.41 143.89 194.09C133.5 195.77 128.84 198.45 130.18 205.48Z" fill="#757575" stroke="#263238" stroke-width="1.193" stroke-linecap="round" stroke-linejoin="round"/>
<path d="M135.55 220.57C135.55 220.57 135.21 249.72 136.89 255.42C138.57 261.12 145.27 267.82 159.34 266.14C173.41 264.46 174.76 251.06 174.76 251.06L173.76 219.9L135.55 220.57Z" fill="white" stroke="#263238" stroke-width="1.193" stroke-linecap="round" stroke-linejoin="round"/>
<path d="M159.68 241.51C159.682 242.009 159.536 242.497 159.26 242.913C158.984 243.328 158.591 243.653 158.131 243.845C157.671 244.038 157.164 244.089 156.674 243.993C156.185 243.897 155.735 243.657 155.381 243.305C155.028 242.953 154.787 242.504 154.689 242.015C154.591 241.526 154.64 241.019 154.831 240.558C155.021 240.097 155.344 239.703 155.759 239.425C156.173 239.148 156.661 239 157.16 239C157.49 238.999 157.818 239.063 158.123 239.188C158.429 239.314 158.707 239.498 158.941 239.732C159.175 239.965 159.361 240.242 159.488 240.547C159.614 240.852 159.68 241.18 159.68 241.51Z" stroke="#263238" stroke-width="1.193" stroke-miterlimit="10"/>
<path d="M159.34 252.07C159.34 252.403 159.242 252.728 159.057 253.005C158.872 253.281 158.609 253.496 158.301 253.623C157.993 253.75 157.655 253.783 157.329 253.717C157.003 253.651 156.704 253.49 156.469 253.255C156.234 253.019 156.075 252.718 156.012 252.392C155.948 252.065 155.983 251.727 156.111 251.42C156.24 251.114 156.457 250.852 156.734 250.668C157.012 250.485 157.338 250.388 157.67 250.39C157.891 250.39 158.109 250.434 158.312 250.518C158.515 250.603 158.7 250.727 158.855 250.883C159.01 251.039 159.133 251.224 159.216 251.428C159.3 251.632 159.342 251.85 159.34 252.07Z" fill="#263238"/>
<path d="M149.22 230.76C150.29 231.92 150.66 233.31 150.06 233.88C149.46 234.45 148.06 233.97 147.01 232.82C145.96 231.67 145.56 230.28 146.17 229.71C146.78 229.14 148.15 229.61 149.22 230.76Z" fill="#263238"/>
<path d="M162.83 230.76C161.76 231.92 161.38 233.31 161.99 233.88C162.6 234.45 163.99 233.97 164.99 232.82C165.99 231.67 166.44 230.28 165.83 229.71C165.22 229.14 163.9 229.61 162.83 230.76Z" fill="#263238"/>
<path d="M142.06 226.81C142.81 225.702 143.889 224.857 145.145 224.394C146.4 223.932 147.77 223.874 149.06 224.23" stroke="#263238" stroke-width="1.193" stroke-linecap="round" stroke-linejoin="round"/>
<path d="M162.3 224.6C162.3 224.6 167.08 223.13 168.56 227.18" stroke="#263238" stroke-width="1.193" stroke-linecap="round" stroke-linejoin="round"/>
<path d="M178.44 411.62C178.44 411.62 183.71 408.46 186.63 407.22C186.903 407.094 187.184 406.984 187.47 406.89C190.05 406.03 197.36 406.46 204.23 402.16C211.1 397.86 207.67 392.7 202.51 391.41C197.35 390.12 191.77 388.41 191.77 388.41L190.48 368.2C190.48 368.2 175 372.5 169.84 374.65C164.68 376.8 167.69 407.32 168.12 409.9C168.55 412.48 168.55 414.2 178.44 411.62Z" fill="#263238" stroke="#263238" stroke-width="1.193" stroke-linecap="round" stroke-linejoin="round"/>
<path d="M195.64 402.16C186.64 403.88 186.64 405.6 176.72 407.32C173.814 407.9 170.851 408.142 167.89 408.04C167.99 408.96 168.07 409.61 168.12 409.9C168.55 412.48 168.55 414.2 178.44 411.62C178.44 411.62 183.71 408.46 186.63 407.22C186.903 407.094 187.184 406.984 187.47 406.89C190.05 406.03 197.36 406.46 204.23 402.16C206.44 400.79 207.57 399.32 207.94 397.92C204.035 399.847 199.902 401.272 195.64 402.16Z" fill="white" stroke="#263238" stroke-width="1.193" stroke-linecap="round" stroke-linejoin="round"/>
<path d="M199.22 391.15C199.22 391.15 198.89 414.61 198.22 419.63C197.55 424.65 198.55 431.03 206.22 431.03C213.89 431.03 229.01 426.03 234.37 425.03C239.73 424.03 248.45 421.67 252.13 413.3C255.81 404.93 233.37 405.92 233.37 405.92L234.71 388.83C234.71 388.83 211.62 393.49 199.22 391.15Z" fill="#263238" stroke="#263238" stroke-width="1.193" stroke-linecap="round" stroke-linejoin="round"/>
<path d="M252.17 413.27C252.58 412.457 252.68 411.522 252.45 410.64C250.153 413.759 247.038 416.181 243.45 417.64C235.45 420.99 220.32 424.64 208.93 426.36C203.72 427.12 200.42 426.27 198.35 425.13C199.09 428.38 201.26 431.05 206.25 431.05C213.96 431.05 229.04 426.05 234.4 425.05C239.76 424.05 248.49 421.64 252.17 413.27Z" fill="white" stroke="#263238" stroke-width="1.193" stroke-linecap="round" stroke-linejoin="round"/>
<path d="M233.41 405.89C233.41 405.89 235.08 411.59 230.41 415.28" stroke="white" stroke-width="1.193" stroke-linecap="round" stroke-linejoin="round"/>
<path d="M196.88 378.75C196.88 378.75 196.36 388.94 196.93 390.98C199.07 398.72 199.75 396.91 215.84 396.57C231.93 396.23 238.43 389.81 240.11 385.79C241.79 381.77 240.11 373.05 239.44 370.03C238.77 367.01 233.44 366.03 231.39 366.35C229.34 366.67 197.88 375.4 196.88 378.75Z" fill="#757575" stroke="#263238" stroke-width="1.193" stroke-linecap="round" stroke-linejoin="round"/>
<path d="M86.2803 404.22V426.74C86.2877 427.621 86.5357 428.484 86.9974 429.235C87.4591 429.985 88.1171 430.596 88.9003 431L125.1 449.69C125.744 450.025 126.456 450.21 127.182 450.231C127.907 450.251 128.628 450.108 129.29 449.81L182.62 429.48C183.471 429.099 184.194 428.479 184.701 427.697C185.208 426.915 185.479 426.003 185.48 425.07V397.85L124.48 416.28L86.2803 404.22Z" fill="#6C63FF"/>
<path d="M86.2803 404.22V426.74C86.2877 427.621 86.5357 428.484 86.9974 429.235C87.4591 429.985 88.1171 430.596 88.9003 431L125.1 449.69C125.744 450.025 126.456 450.21 127.182 450.231C127.907 450.251 128.628 450.108 129.29 449.81L182.62 429.48C183.471 429.099 184.194 428.479 184.701 427.697C185.208 426.915 185.479 426.003 185.48 425.07V397.85L124.48 416.28L86.2803 404.22Z" fill="black"/>
<path opacity="0.18" d="M127.17 415.47L124.49 416.28L86.2803 404.22V426.74C86.2877 427.622 86.5357 428.484 86.9974 429.235C87.4591 429.986 88.1171 430.596 88.9003 431L125.1 449.69C125.74 450.025 126.448 450.21 127.17 450.23V415.47Z" fill="black"/>
<path d="M86.2803 404.22V426.74C86.2877 427.621 86.5357 428.484 86.9974 429.235C87.4591 429.985 88.1171 430.596 88.9003 431L125.1 449.69C125.744 450.025 126.456 450.21 127.182 450.231C127.907 450.251 128.628 450.108 129.29 449.81L182.62 429.48C183.471 429.099 184.194 428.479 184.701 427.697C185.208 426.915 185.479 426.003 185.48 425.07V397.85L124.48 416.28L86.2803 404.22Z" stroke="#263238" stroke-width="1.193" stroke-linecap="round" stroke-linejoin="round"/>
<path d="M142 366.2L83.4997 385C83.0425 385.146 82.6439 385.435 82.3616 385.823C82.0793 386.212 81.928 386.68 81.9297 387.16V403.84C81.9385 404.26 82.0638 404.669 82.2916 405.022C82.5193 405.376 82.8406 405.659 83.2197 405.84L124 425.25C124.274 425.381 124.572 425.456 124.877 425.47C125.181 425.483 125.484 425.436 125.77 425.33L187 402.42C187.433 402.259 187.807 401.97 188.071 401.591C188.335 401.212 188.478 400.762 188.48 400.3L188.59 384.65C188.586 384.132 188.408 383.63 188.082 383.227C187.757 382.824 187.305 382.543 186.8 382.43L143.16 366.14C142.774 366.063 142.375 366.084 142 366.2Z" fill="white"/>
<path d="M142 366.2L83.4997 385C83.0425 385.146 82.6439 385.435 82.3616 385.823C82.0793 386.212 81.928 386.68 81.9297 387.16V403.84C81.9385 404.26 82.0638 404.669 82.2916 405.022C82.5193 405.376 82.8406 405.659 83.2197 405.84L124 425.25C124.274 425.381 124.572 425.456 124.877 425.47C125.181 425.483 125.484 425.436 125.77 425.33L187 402.42C187.433 402.259 187.807 401.97 188.071 401.591C188.335 401.212 188.478 400.762 188.48 400.3L188.59 384.65C188.586 384.132 188.408 383.63 188.082 383.227C187.757 382.824 187.305 382.543 186.8 382.43L143.16 366.14C142.774 366.063 142.375 366.084 142 366.2Z" fill="black"/>
<path d="M123.93 425.24C124.204 425.371 124.502 425.446 124.807 425.46C125.111 425.474 125.414 425.426 125.7 425.32L187 402.42C187.433 402.259 187.807 401.97 188.071 401.591C188.335 401.213 188.478 400.762 188.48 400.3L188.59 384.65C188.591 384.117 188.399 383.602 188.05 383.2L124.8 406.56L123.93 425.24Z" fill="#6C63FF"/>
<path opacity="0.5" d="M123.93 425.24C124.204 425.371 124.502 425.446 124.807 425.46C125.111 425.474 125.414 425.426 125.7 425.32L187 402.42C187.433 402.259 187.807 401.97 188.071 401.591C188.335 401.213 188.478 400.762 188.48 400.3L188.59 384.65C188.591 384.117 188.399 383.602 188.05 383.2L124.8 406.56L123.93 425.24Z" fill="white"/>
<path d="M81.9297 387.11V403.79C81.9385 404.21 82.0638 404.62 82.2916 404.973C82.5193 405.326 82.8406 405.609 83.2197 405.79L124 425.25C124.272 425.381 124.568 425.456 124.87 425.47V406.56L81.9997 386.72C81.961 386.847 81.9375 386.978 81.9297 387.11Z" fill="#6C63FF"/>
<path d="M142 366.2L83.4997 385C83.0425 385.146 82.6439 385.435 82.3616 385.823C82.0793 386.212 81.928 386.68 81.9297 387.16V403.84C81.9385 404.26 82.0638 404.669 82.2916 405.022C82.5193 405.376 82.8406 405.659 83.2197 405.84L124 425.25C124.274 425.381 124.572 425.456 124.877 425.47C125.181 425.483 125.484 425.436 125.77 425.33L187 402.42C187.433 402.259 187.807 401.97 188.071 401.591C188.335 401.212 188.478 400.762 188.48 400.3L188.59 384.65C188.586 384.132 188.408 383.63 188.082 383.227C187.757 382.824 187.305 382.543 186.8 382.43L143.16 366.14C142.774 366.063 142.375 366.084 142 366.2Z" stroke="#263238" stroke-width="1.193" stroke-linecap="round" stroke-linejoin="round"/>
<path d="M222.35 335.52C222.35 335.52 230.05 339.2 234.08 346.58C238.11 353.96 235.08 368.02 232.73 372.38C230.38 376.74 214.64 378.75 209.28 378.75C203.92 378.75 202.91 378.08 202.91 378.08C202.91 378.08 185.82 381.43 175.09 383.44C164.36 385.45 167.09 360.32 170.4 348.92C173.71 337.52 192.52 331.83 200.23 331.83C207.94 331.83 222.35 335.52 222.35 335.52Z" fill="#263238" stroke="#263238" stroke-width="1.193" stroke-linecap="round" stroke-linejoin="round"/>
<path d="M202.91 378.08C202.91 378.08 217.32 373.08 223.35 360.32" stroke="white" stroke-width="1.193" stroke-linecap="round" stroke-linejoin="round"/>
<path d="M216.65 370.7C221.294 368.753 225.508 365.909 229.05 362.33" stroke="white" stroke-width="1.193" stroke-linecap="round" stroke-linejoin="round"/>
<path d="M182.8 346.58C182.8 346.58 186.8 367.69 184.8 376.4C182.8 385.11 171.06 386.46 168.38 385.45C165.7 384.44 167.04 363.67 167.04 353.28C167.04 342.89 177.44 343.56 182.8 346.58Z" fill="#757575" stroke="#263238" stroke-width="1.193" stroke-linecap="round" stroke-linejoin="round"/>
<path d="M97.3401 290.27C97.3401 290.27 95.0001 304 96.6701 310.72C97.5209 314.463 99.1159 317.996 101.36 321.11C101.36 321.11 92.9801 333.51 94.6601 343.89C96.3401 354.27 100.66 355.62 100.66 355.62C100.66 355.62 96.9801 374.73 103.66 381.43C110.34 388.13 125.11 395.5 141.53 392.49C157.95 389.48 169.01 388.8 172.36 383.1C175.71 377.4 173.7 352.27 173.7 352.27C173.7 352.27 173.03 324.46 172.36 307.36C171.69 290.26 169.36 276.53 161.3 269.83C153.24 263.13 117.73 273.52 107.01 280.55C96.2901 287.58 97.3401 290.27 97.3401 290.27Z" fill="#6C63FF"/>
<path d="M97.3401 290.27C97.3401 290.27 95.0001 304 96.6701 310.72C97.5209 314.463 99.1159 317.996 101.36 321.11C101.36 321.11 92.9801 333.51 94.6601 343.89C96.3401 354.27 100.66 355.62 100.66 355.62C100.66 355.62 96.9801 374.73 103.66 381.43C110.34 388.13 125.11 395.5 141.53 392.49C157.95 389.48 169.01 388.8 172.36 383.1C175.71 377.4 173.7 352.27 173.7 352.27C173.7 352.27 173.03 324.46 172.36 307.36C171.69 290.26 169.36 276.53 161.3 269.83C153.24 263.13 117.73 273.52 107.01 280.55C96.2901 287.58 97.3401 290.27 97.3401 290.27Z" fill="black"/>
<path opacity="0.3" d="M99.7298 290.27C99.7298 290.27 97.3798 304.01 99.0598 310.72C99.9056 314.464 101.501 317.999 103.75 321.11C103.75 321.11 95.3698 333.51 97.0498 343.89C98.7298 354.27 103.05 355.62 103.05 355.62C103.05 355.62 99.3598 374.73 106.05 381.43C112.74 388.13 127.54 395.5 144 392.49C160.46 389.48 171.49 388.8 174.84 383.1C178.19 377.4 176.18 352.27 176.18 352.27C176.18 352.27 175.51 324.46 174.84 307.36C174.17 290.26 171.84 276.53 163.78 269.83C155.72 263.13 120.21 273.52 109.49 280.55C98.7698 287.58 99.7298 290.27 99.7298 290.27Z" fill="black"/>
<path d="M97.3401 290.27C97.3401 290.27 95.0001 304 96.6701 310.72C97.5209 314.463 99.1159 317.996 101.36 321.11C101.36 321.11 92.9801 333.51 94.6601 343.89C96.3401 354.27 100.66 355.62 100.66 355.62C100.66 355.62 96.9801 374.73 103.66 381.43C110.34 388.13 125.11 395.5 141.53 392.49C157.95 389.48 169.01 388.8 172.36 383.1C175.71 377.4 173.7 352.27 173.7 352.27C173.7 352.27 173.03 324.46 172.36 307.36C171.69 290.26 169.36 276.53 161.3 269.83C153.24 263.13 117.73 273.52 107.01 280.55C96.2901 287.58 97.3401 290.27 97.3401 290.27Z" stroke="#263238" stroke-width="1.193" stroke-linecap="round" stroke-linejoin="round"/>
<path d="M101.36 321.11C106.549 324.649 112.485 326.942 118.705 327.809C124.925 328.676 131.262 328.095 137.22 326.11" stroke="#263238" stroke-width="1.193" stroke-linecap="round" stroke-linejoin="round"/>
<path d="M100.69 355.62C100.69 355.62 117.78 372.38 145.94 356.29" stroke="#263238" stroke-width="1.193" stroke-linecap="round" stroke-linejoin="round"/>
<path d="M167.38 273.85C167.38 273.85 161.02 264.13 152.3 258.77C143.58 253.41 121.14 249.39 112.09 247.71C103.04 246.03 93.3197 246.71 90.6397 256.71C87.9597 266.71 88.2897 283.52 90.9697 290.89C93.6497 298.26 104.71 302.62 113.43 297.6C122.15 292.58 146.27 273.13 154.65 272.13C163.03 271.13 166.71 277.54 167.38 273.85Z" fill="#757575"/>
<path d="M167.38 273.85C167.38 273.85 161.02 264.13 152.3 258.77C143.58 253.41 121.14 249.39 112.09 247.71C103.04 246.03 93.3197 246.71 90.6397 256.71C87.9597 266.71 88.2897 283.52 90.9697 290.89C93.6497 298.26 104.71 302.62 113.43 297.6C122.15 292.58 146.27 273.13 154.65 272.13C163.03 271.13 166.71 277.54 167.38 273.85Z" fill="black"/>
<path opacity="0.3" d="M148.79 272C153.9 269.87 141.12 273.7 140.27 272.42C139.42 271.14 149.21 264.76 151.34 263.91C153.47 263.06 138.99 266.04 139.42 263.91C139.85 261.78 153.47 261.35 144.1 259.22C134.73 257.09 104.1 251.55 98.0997 249.42C97.6408 249.271 97.2061 249.055 96.8097 248.78C95.2582 249.58 93.9014 250.711 92.8352 252.094C91.7691 253.476 91.0196 255.076 90.6397 256.78C87.9597 266.83 88.2897 283.59 90.9697 290.96C93.3097 297.38 101.97 301.51 109.97 299.16C113.66 296.16 117.07 292.22 122.84 288.59C134.31 281.33 143.68 274.09 148.79 272Z" fill="black"/>
<path d="M167.38 273.85C167.38 273.85 161.02 264.13 152.3 258.77C143.58 253.41 121.14 249.39 112.09 247.71C103.04 246.03 93.3197 246.71 90.6397 256.71C87.9597 266.71 88.2897 283.52 90.9697 290.89C93.6497 298.26 104.71 302.62 113.43 297.6C122.15 292.58 146.27 273.13 154.65 272.13C163.03 271.13 166.71 277.54 167.38 273.85Z" stroke="#263238" stroke-width="1.193" stroke-linecap="round" stroke-linejoin="round"/>
<path d="M203.58 319.43C203.58 319.43 211.29 320.43 216.31 322.43C221.33 324.43 224.69 336.84 222.68 338.51C220.67 340.18 216.68 338.18 216.68 338.18C213.529 339.289 210.272 340.073 206.96 340.52C202.91 340.88 198.55 321.78 203.58 319.43Z" fill="#6C63FF" stroke="#263238" stroke-width="1.193" stroke-linecap="round" stroke-linejoin="round"/>
<path d="M178.11 318.42C178.11 318.42 179.45 318.42 186.82 315.07C194.19 311.72 200.23 311.72 204.92 319.07C209.61 326.42 211.62 335.5 208.92 340.86C206.22 346.22 196.19 349.91 190.82 349.91C185.45 349.91 184.82 342.91 184.82 342.91C184.82 342.91 184.15 331.85 180.82 327.83C177.49 323.81 176.77 319.43 178.11 318.42Z" fill="#757575" stroke="#263238" stroke-width="1.193" stroke-linecap="round" stroke-linejoin="round"/>
<path d="M153.31 273.85C160.68 271.17 170.07 272.85 173.42 282.23C176.77 291.61 179.78 319.09 179.78 319.09C179.78 319.09 188.16 320.09 191.51 323.79C194.86 327.49 196.51 336.86 195.87 341.55C195.23 346.24 183.47 354.95 170.07 355.29C156.67 355.63 146.94 349.29 142.25 332.16C137.56 315.03 139.42 289 139.42 289C139.42 289 141.12 281.33 143.68 279.62" fill="#6C63FF"/>
<path d="M153.31 273.85C160.68 271.17 170.07 272.85 173.42 282.23C176.77 291.61 179.78 319.09 179.78 319.09C179.78 319.09 188.16 320.09 191.51 323.79C194.86 327.49 196.51 336.86 195.87 341.55C195.23 346.24 183.47 354.95 170.07 355.29C156.67 355.63 146.94 349.29 142.25 332.16C137.56 315.03 139.42 289 139.42 289C139.42 289 141.12 281.33 143.68 279.62" fill="black"/>
<path opacity="0.3" d="M195.87 341.55C196.54 336.86 194.87 327.47 191.51 323.79C191.38 323.64 191.22 323.5 191.08 323.36C191.482 326.372 191.722 329.403 191.8 332.44C192.47 352.11 164.98 348.82 159.44 334.57C156.44 326.9 155.6 293.25 146.66 290.7C141.5 289.23 139.74 293.27 139.18 296.96C139 306.61 139.32 321.48 142.25 332.16C146.94 349.26 156.66 355.62 170.07 355.29C183.48 354.96 195.2 346.24 195.87 341.55Z" fill="black"/>
<path d="M153.31 273.85C160.68 271.17 170.07 272.85 173.42 282.23C176.77 291.61 179.78 319.09 179.78 319.09C179.78 319.09 188.16 320.09 191.51 323.79C194.86 327.49 196.51 336.86 195.87 341.55C195.23 346.24 183.47 354.95 170.07 355.29C156.67 355.63 146.94 349.29 142.25 332.16C137.56 315.03 139.42 289 139.42 289C139.42 289 141.12 281.33 143.68 279.62" stroke="#263238" stroke-width="1.193" stroke-linecap="round" stroke-linejoin="round"/>
<path d="M179.78 319.09C179.78 319.09 182.4 331.3 168.94 338" stroke="#263238" stroke-width="1.193" stroke-linecap="round" stroke-linejoin="round"/>
<path d="M113.1 106.25C113.1 103.47 114.38 101.42 117.27 101.42C120.16 101.42 121.5 103.42 121.5 106.25V116C121.5 118.78 120.21 120.83 117.27 120.83C114.33 120.83 113.1 118.83 113.1 116V106.25ZM114.35 116.09C114.35 118.17 115.17 119.69 117.27 119.69C119.37 119.69 120.27 118.17 120.27 116.09V106.17C120.27 104.1 119.43 102.57 117.27 102.57C115.11 102.57 114.35 104.1 114.35 106.17V116.09Z" fill="#263238"/>
<path d="M123.49 106.25C123.49 103.47 124.77 101.42 127.66 101.42C130.55 101.42 131.89 103.42 131.89 106.25V116C131.89 118.78 130.61 120.83 127.66 120.83C124.71 120.83 123.49 118.83 123.49 116V106.25ZM124.74 116.09C124.74 118.17 125.56 119.69 127.66 119.69C129.76 119.69 130.66 118.17 130.66 116.09V106.17C130.66 104.1 129.82 102.57 127.66 102.57C125.5 102.57 124.74 104.1 124.74 106.17V116.09Z" fill="#263238"/>
<path d="M137.92 101.59C140.86 101.59 142.01 103.44 142.01 106.22V108.3C142.01 111.3 140.61 112.82 137.59 112.82H135.22V120.68H134V101.59H137.92ZM137.59 111.68C139.8 111.68 140.75 110.68 140.75 108.38V106.14C140.75 104.07 140.04 102.73 137.92 102.73H135.22V111.73L137.59 111.68Z" fill="#263238"/>
<path d="M151.93 106.2V106.6H150.73V106.11C150.73 104.11 149.97 102.57 147.9 102.57C145.83 102.57 145.06 104.07 145.06 106.09C145.06 110.72 151.96 110.8 151.96 116.09C151.96 118.84 150.76 120.86 147.84 120.86C144.92 120.86 143.73 118.86 143.73 116.09V115.09H144.93V116.15C144.93 118.15 145.72 119.67 147.82 119.67C149.92 119.67 150.71 118.19 150.71 116.15C150.71 111.57 143.81 111.49 143.81 106.15C143.81 103.29 145.06 101.43 147.87 101.4C150.68 101.37 151.93 103.44 151.93 106.2Z" fill="#263238"/>
<path d="M155.07 118.28V120.68H153.85V118.28H155.07Z" fill="#263238"/>
<path d="M158.48 118.28V120.68H157.26V118.28H158.48Z" fill="#263238"/>
<path d="M161.89 118.28V120.68H160.66V118.28H161.89Z" fill="#263238"/>
<path d="M117.13 129.36C120.13 129.36 121.22 131.21 121.22 134V136.07C121.22 139.07 119.83 140.6 116.81 140.6H114.43V148.45H113.18V129.36H117.13ZM116.81 139.45C119.01 139.45 119.97 138.45 119.97 136.15V133.91C119.97 131.84 119.26 130.51 117.13 130.51H114.43V139.45H116.81Z" fill="#263238"/>
<path d="M124.58 144.22L123.58 148.45H122.43L126.6 129.33H128.43L132.68 148.45H131.43L130.43 144.22H124.58ZM124.77 143.13H130.33L127.52 130.78L124.77 143.13Z" fill="#263238"/>
<path d="M142.77 134V135.42H141.57V133.92C141.57 131.92 140.78 130.32 138.68 130.32C136.58 130.32 135.79 131.88 135.79 133.92V143.85C135.79 145.85 136.58 147.42 138.68 147.42C140.78 147.42 141.57 145.89 141.57 143.85V139.73H139V138.59H142.73V143.77C142.73 146.52 141.53 148.59 138.61 148.59C135.69 148.59 134.5 146.52 134.5 143.77V134C134.5 131.25 135.7 129.18 138.61 129.18C141.52 129.18 142.77 131.27 142.77 134Z" fill="#263238"/>
<path d="M151.34 138.2V139.34H146.13V147.34H152.4V148.49H144.87V129.36H152.4V130.51H146.13V138.2H151.34Z" fill="#263238"/>
<path d="M159.82 148.45H158.67V129.36H160.31L166 145.48V129.36H167.14V148.45H165.75L159.75 131.45L159.82 148.45Z" fill="#263238"/>
<path d="M169.26 134C169.26 131.22 170.54 129.18 173.43 129.18C176.32 129.18 177.66 131.18 177.66 134V143.77C177.66 146.55 176.37 148.59 173.43 148.59C170.49 148.59 169.26 146.59 169.26 143.77V134ZM170.51 143.85C170.51 145.92 171.33 147.45 173.43 147.45C175.53 147.45 176.43 145.92 176.43 143.85V133.92C176.43 131.85 175.59 130.32 173.43 130.32C171.27 130.32 170.51 131.85 170.51 133.92V143.85Z" fill="#263238"/>
<path d="M183 148.45V130.51H179.13V129.36H188.13V130.51H184.23V148.45H183Z" fill="#263238"/>
<path d="M200.08 138.66V139.8H195.14V148.45H193.89V129.36H201.14V130.51H195.14V138.66H200.08Z" fill="#263238"/>
<path d="M203 134C203 131.22 204.28 129.18 207.17 129.18C210.06 129.18 211.4 131.18 211.4 134V143.77C211.4 146.55 210.12 148.59 207.17 148.59C204.22 148.59 203 146.59 203 143.77V134ZM204.25 143.85C204.25 145.92 205.07 147.45 207.17 147.45C209.27 147.45 210.17 145.92 210.17 143.85V133.92C210.17 131.85 209.33 130.32 207.17 130.32C205.01 130.32 204.25 131.85 204.25 133.92V143.85Z" fill="#263238"/>
<path d="M214.64 143.84C214.64 145.84 215.41 147.47 217.51 147.47C219.61 147.47 220.37 145.89 220.37 143.84V129.36H221.54V143.79C221.54 146.51 220.4 148.61 217.48 148.61C214.56 148.61 213.39 146.51 213.39 143.79V129.36H214.64V143.84Z" fill="#263238"/>
<path d="M224.84 148.45H223.7V129.36H225.33L231.06 145.48V129.36H232.21V148.45H230.81L224.81 131.45L224.84 148.45Z" fill="#263238"/>
<path d="M238.56 129.36C241.51 129.36 242.79 131.3 242.79 134.11V143.7C242.79 146.51 241.51 148.45 238.56 148.45H234.36V129.36H238.56ZM238.56 147.3C240.69 147.3 241.56 145.86 241.56 143.76V134.05C241.56 131.95 240.66 130.51 238.56 130.51H235.65V147.3H238.56Z" fill="#263238"/>
<path d="M302 325.13L315.61 293H323.76V325.13H327.29V331.92H323.76V340.55H316.42V331.92H302V325.13ZM316.4 325.13V307.27L308.86 325.13H316.4Z" fill="#263238"/>
<path d="M330.08 304.41C330.08 296.81 334.08 292.41 341.42 292.41C348.76 292.41 352.76 296.76 352.76 304.41V329.13C352.76 336.74 348.76 341.13 341.42 341.13C334.08 341.13 330.08 336.78 330.08 329.13V304.41ZM337.55 329.61C337.55 333.01 339.04 334.3 341.42 334.3C343.8 334.3 345.29 333.01 345.29 329.61V303.94C345.29 300.54 343.79 299.25 341.42 299.25C339.05 299.25 337.55 300.54 337.55 303.94V329.61Z" fill="#263238"/>
<path d="M355.82 325.13L369.4 293H377.55V325.13H381.08V331.92H377.55V340.55H370.21V331.92H355.82V325.13ZM370.21 325.13V307.27L362.68 325.13H370.21Z" fill="#263238"/>
</svg>
