<svg width="500" height="500" viewBox="0 0 500 500" fill="none" xmlns="http://www.w3.org/2000/svg">
<path d="M500 382.4H0V382.65H500V382.4Z" fill="#EBEBEB"/>
<path d="M449.9 391.92H359V392.17H449.9V391.92Z" fill="#EBEBEB"/>
<path d="M331.22 389.21H306.33V389.46H331.22V389.21Z" fill="#EBEBEB"/>
<path d="M388.11 401.21H349.52V401.46H388.11V401.21Z" fill="#EBEBEB"/>
<path d="M75.1 399.53H52.46V399.78H75.1V399.53Z" fill="#EBEBEB"/>
<path d="M110.89 399.53H84V399.78H110.89V399.53Z" fill="#EBEBEB"/>
<path d="M225.15 395.31H178.31V395.56H225.15V395.31Z" fill="#EBEBEB"/>
<path d="M237 337.8H43.91C42.3973 337.797 40.9475 337.195 39.8788 336.124C38.8102 335.054 38.21 333.603 38.21 332.09V60.66C38.2231 59.156 38.8292 57.718 39.8964 56.6582C40.9637 55.5985 42.4059 55.0026 43.91 55H237C238.514 55 239.967 55.6016 241.038 56.6724C242.108 57.7433 242.71 59.1956 242.71 60.71V332.09C242.71 333.604 242.108 335.057 241.038 336.128C239.967 337.198 238.514 337.8 237 337.8ZM43.91 55.2C42.4636 55.2026 41.0774 55.7791 40.0556 56.8027C39.0338 57.8264 38.46 59.2136 38.46 60.66V332.09C38.46 333.536 39.0338 334.924 40.0556 335.947C41.0774 336.971 42.4636 337.547 43.91 337.55H237C238.447 337.547 239.834 336.971 240.858 335.948C241.881 334.924 242.457 333.537 242.46 332.09V60.66C242.457 59.2127 241.881 57.8255 240.858 56.8021C239.834 55.7787 238.447 55.2026 237 55.2H43.91Z" fill="#EBEBEB"/>
<path d="M453.31 337.8H260.21C258.696 337.797 257.246 337.195 256.175 336.125C255.105 335.054 254.503 333.604 254.5 332.09V60.66C254.516 59.1551 255.124 57.7171 256.193 56.6576C257.262 55.5981 258.705 55.0025 260.21 55H453.31C454.812 55.0052 456.252 55.6022 457.317 56.6617C458.382 57.7212 458.987 59.1578 459 60.66V332.09C459 333.601 458.401 335.05 457.335 336.121C456.268 337.191 454.821 337.795 453.31 337.8ZM260.21 55.2C258.763 55.2026 257.375 55.7787 256.352 56.8021C255.329 57.8255 254.753 59.2127 254.75 60.66V332.09C254.753 333.537 255.329 334.924 256.352 335.948C257.375 336.971 258.763 337.547 260.21 337.55H453.31C454.757 337.547 456.145 336.971 457.168 335.948C458.191 334.924 458.767 333.537 458.77 332.09V60.66C458.767 59.2127 458.191 57.8255 457.168 56.8021C456.145 55.7787 454.757 55.2026 453.31 55.2H260.21Z" fill="#EBEBEB"/>
<path d="M429.17 262.11C427.689 262.115 426.214 262.307 424.78 262.68C423.362 260.75 421.565 259.13 419.499 257.918C417.433 256.707 415.142 255.93 412.766 255.634C410.389 255.338 407.977 255.53 405.677 256.198C403.378 256.866 401.238 257.997 399.39 259.52C396.357 254.396 391.78 250.364 386.313 248.003C380.847 245.642 374.773 245.074 368.964 246.378C363.154 247.683 357.907 250.795 353.976 255.267C350.044 259.739 347.63 265.341 347.08 271.27C343.931 270.57 340.659 270.642 337.544 271.48C334.429 272.318 331.563 273.897 329.19 276.083C326.817 278.269 325.008 280.996 323.918 284.032C322.827 287.068 322.487 290.323 322.927 293.519C323.366 296.714 324.573 299.757 326.442 302.385C328.312 305.014 330.79 307.152 333.665 308.616C336.54 310.08 339.726 310.826 342.952 310.792C346.177 310.758 349.347 309.944 352.19 308.42C353.462 313.016 356.085 317.124 359.719 320.212C363.353 323.3 367.83 325.225 372.571 325.739C377.312 326.253 382.098 325.332 386.309 323.094C390.521 320.857 393.963 317.406 396.19 313.19C400.007 316.447 404.667 318.557 409.632 319.276C414.598 319.995 419.665 319.293 424.249 317.252C428.832 315.211 432.744 311.914 435.531 307.742C438.319 303.571 439.868 298.695 440 293.68C442.914 291.432 445.05 288.328 446.11 284.804C447.17 281.281 447.1 277.513 445.909 274.031C444.719 270.549 442.469 267.527 439.474 265.389C436.479 263.251 432.89 262.104 429.21 262.11H429.17Z" fill="#F5F5F5"/>
<path d="M72.6695 156.32C70.4244 155.341 67.8824 155.293 65.6022 156.188C63.322 157.082 61.4903 158.846 60.5095 161.09C59.3881 160.528 58.164 160.2 56.9117 160.126C55.6595 160.052 54.4052 160.234 53.2256 160.661C52.0459 161.087 50.9654 161.749 50.05 162.607C49.1346 163.465 48.4035 164.5 47.9011 165.65C47.3988 166.799 47.1358 168.039 47.1281 169.293C47.1204 170.548 47.3683 171.791 47.8565 172.946C48.3448 174.102 49.0632 175.146 49.968 176.015C50.8729 176.883 51.9452 177.559 53.1195 178L70.0495 185.39L77.4395 168.46C78.415 166.217 78.4605 163.679 77.5662 161.403C76.6718 159.127 74.9107 157.299 72.6695 156.32Z" fill="#F5F5F5"/>
<path d="M151.61 75.66C151.233 74.9419 150.718 74.3051 150.095 73.7862C149.471 73.2672 148.752 72.8763 147.977 72.6358C147.202 72.3952 146.388 72.3097 145.58 72.3843C144.773 72.4588 143.987 72.6918 143.27 73.07C142.479 71.6696 141.174 70.6324 139.631 70.1787C138.088 69.7251 136.43 69.8907 135.007 70.6405C133.584 71.3902 132.51 72.665 132.012 74.1942C131.514 75.7233 131.632 77.3863 132.34 78.83L138.1 89.76L149 84C149.72 83.6247 150.358 83.1111 150.879 82.4884C151.4 81.8658 151.793 81.1465 152.036 80.3717C152.278 79.597 152.366 78.782 152.292 77.9734C152.219 77.1649 151.987 76.3788 151.61 75.66Z" fill="#E6E6E6"/>
<path d="M403 50.8399C402.622 50.1226 402.107 49.4868 401.483 48.9689C400.859 48.451 400.139 48.0611 399.365 47.8214C398.59 47.5818 397.776 47.4972 396.969 47.5725C396.162 47.6477 395.377 47.8813 394.66 48.2599C394.283 47.5403 393.768 46.9019 393.145 46.3813C392.521 45.8606 391.801 45.4679 391.026 45.2256C390.25 44.9832 389.435 44.8959 388.626 44.9687C387.817 45.0416 387.03 45.273 386.31 45.6499C385.591 46.0268 384.952 46.5417 384.432 47.1653C383.911 47.7889 383.518 48.509 383.276 49.2844C383.034 50.0597 382.946 50.8752 383.019 51.6843C383.092 52.4934 383.323 53.2803 383.7 53.9999L389.46 64.9199L400.38 59.1699C401.829 58.4097 402.918 57.1066 403.409 55.5456C403.9 53.9846 403.753 52.2927 403 50.8399Z" fill="#F5F5F5"/>
<path d="M443 231.57C442.81 230.374 442.154 229.301 441.176 228.587C440.198 227.873 438.977 227.576 437.78 227.76C437.544 226.612 436.875 225.599 435.911 224.931C434.948 224.263 433.765 223.992 432.607 224.173C431.449 224.355 430.406 224.975 429.693 225.905C428.98 226.836 428.653 228.005 428.78 229.17L430.19 238.17L439.19 236.76C440.381 236.573 441.45 235.922 442.164 234.95C442.877 233.978 443.178 232.763 443 231.57Z" fill="#EBEBEB"/>
<path d="M350.53 154.26C350.062 154.113 349.569 154.06 349.081 154.103C348.592 154.147 348.117 154.286 347.682 154.514C347.247 154.741 346.861 155.053 346.547 155.429C346.233 155.806 345.996 156.241 345.85 156.71C345.381 156.564 344.888 156.511 344.399 156.555C343.91 156.599 343.434 156.739 342.999 156.967C342.564 157.195 342.178 157.507 341.864 157.884C341.549 158.261 341.312 158.696 341.165 159.165C341.019 159.634 340.966 160.127 341.01 160.616C341.054 161.105 341.194 161.581 341.422 162.016C341.65 162.451 341.962 162.837 342.339 163.152C342.716 163.466 343.151 163.704 343.62 163.85L350.76 166.08L352.99 158.94C353.284 157.993 353.19 156.968 352.729 156.091C352.268 155.213 351.477 154.555 350.53 154.26Z" fill="#F5F5F5"/>
<path d="M73.3903 63.0001C72.4421 62.7058 71.4159 62.7995 70.5368 63.2606C69.6576 63.7218 68.9971 64.5128 68.7003 65.4601C68.2321 65.3143 67.7398 65.2622 67.2515 65.3067C66.7632 65.3512 66.2884 65.4914 65.8543 65.7194C65.4202 65.9473 65.0352 66.2586 64.7214 66.6353C64.4076 67.0121 64.171 67.4469 64.0253 67.9151C63.8795 68.3833 63.8274 68.8755 63.8718 69.3639C63.9163 69.8522 64.0566 70.3269 64.2845 70.761C64.5125 71.1952 64.8237 71.5801 65.2005 71.8939C65.5772 72.2078 66.0121 72.4443 66.4803 72.5901L73.6103 74.8201L75.8403 67.6801C75.9874 67.212 76.0407 66.7194 75.9972 66.2306C75.9536 65.7418 75.8141 65.2664 75.5865 64.8317C75.3589 64.3969 75.0477 64.0113 74.6709 63.697C74.294 63.3828 73.8588 63.1459 73.3903 63.0001Z" fill="#F5F5F5"/>
<path d="M184.91 229.92C184.904 223.964 182.684 218.224 178.68 213.814C174.677 209.405 169.178 206.641 163.25 206.06C160.291 199.408 155.63 193.654 149.736 189.379C143.842 185.104 136.926 182.459 129.683 181.712C122.441 180.964 115.13 182.14 108.487 185.121C101.845 188.102 96.1061 192.783 91.8504 198.69C88.3226 196.119 84.0846 194.703 79.7195 194.639C75.3544 194.575 71.0767 195.865 67.475 198.332C63.8732 200.799 61.1245 204.322 59.6069 208.415C58.0893 212.508 57.8774 216.971 59.0004 221.19C55.6638 224 52.9387 227.464 50.9934 231.368C49.0481 235.272 47.924 239.534 47.6903 243.89C47.4567 248.245 48.1186 252.603 49.6351 256.693C51.1517 260.783 53.4906 264.518 56.5076 267.669C59.5245 270.819 63.1553 273.318 67.1757 275.01C71.1961 276.702 75.5208 277.552 79.8826 277.507C84.2444 277.462 88.5507 276.523 92.5355 274.749C96.5202 272.975 100.099 270.402 103.05 267.19C106.978 272.294 112.281 276.171 118.336 278.365C124.391 280.559 130.946 280.979 137.231 279.576C143.517 278.173 149.271 275.005 153.818 270.444C158.365 265.884 161.516 260.12 162.9 253.83C168.899 253.331 174.491 250.596 178.568 246.167C182.645 241.738 184.909 235.94 184.91 229.92Z" fill="#EBEBEB"/>
<path d="M346.8 117.42C346.803 113.383 348.308 109.492 351.021 106.503C353.734 103.515 357.462 101.642 361.48 101.25C363.474 96.7314 366.627 92.8207 370.621 89.9146C374.614 87.0084 379.305 85.2103 384.218 84.7026C389.131 84.1948 394.09 84.9956 398.594 87.0236C403.097 89.0516 406.984 92.2347 409.86 96.2499C412.252 94.5198 415.12 93.5713 418.072 93.5343C421.024 93.4972 423.915 94.3734 426.35 96.0429C428.785 97.7125 430.644 100.094 431.674 102.861C432.703 105.628 432.852 108.645 432.1 111.5C434.37 113.401 436.225 115.748 437.551 118.396C438.876 121.043 439.644 123.935 439.806 126.892C439.968 129.848 439.521 132.806 438.493 135.583C437.464 138.36 435.877 140.895 433.828 143.033C431.78 145.171 429.314 146.865 426.583 148.011C423.853 149.156 420.917 149.729 417.956 149.693C414.995 149.657 412.073 149.014 409.372 147.802C406.67 146.59 404.246 144.837 402.25 142.65C399.593 146.111 396.004 148.742 391.904 150.234C387.803 151.726 383.362 152.016 379.103 151.071C374.843 150.126 370.942 147.984 367.857 144.898C364.773 141.812 362.633 137.91 361.69 133.65C357.623 133.308 353.834 131.449 351.076 128.442C348.317 125.435 346.791 121.501 346.8 117.42Z" fill="#F0F0F0"/>
<path d="M250 427.56C357.083 427.56 443.89 422.492 443.89 416.24C443.89 409.988 357.083 404.92 250 404.92C142.918 404.92 56.1104 409.988 56.1104 416.24C56.1104 422.492 142.918 427.56 250 427.56Z" fill="#F5F5F5"/>
<path d="M136.11 390.75H81.78C80.5077 390.737 79.292 390.222 78.3969 389.318C77.5019 388.413 76.9999 387.192 77 385.92V363.63C77.0024 362.491 77.4061 361.39 78.14 360.52L139.54 287.52C139.994 286.981 140.561 286.548 141.2 286.251C141.839 285.954 142.535 285.8 143.24 285.8H166.77C168.051 285.8 169.28 286.309 170.185 287.214C171.091 288.12 171.6 289.349 171.6 290.63V358.63C171.6 359.911 172.109 361.139 173.015 362.045C173.92 362.951 175.149 363.46 176.43 363.46H182.64C183.921 363.46 185.15 363.969 186.055 364.874C186.961 365.78 187.47 367.009 187.47 368.29V385.88C187.47 387.161 186.961 388.389 186.055 389.295C185.15 390.201 183.921 390.71 182.64 390.71H176.43C175.149 390.71 173.92 391.219 173.015 392.124C172.109 393.03 171.6 394.259 171.6 395.54V409.54C171.6 410.821 171.091 412.049 170.185 412.955C169.28 413.861 168.051 414.37 166.77 414.37H145.77C144.489 414.37 143.26 413.861 142.355 412.955C141.449 412.049 140.94 410.821 140.94 409.54V395.54C140.929 394.266 140.416 393.047 139.511 392.15C138.607 391.253 137.384 390.75 136.11 390.75ZM140.94 360.12V332.92C140.951 332.217 140.744 331.529 140.346 330.95C139.948 330.371 139.379 329.93 138.719 329.69C138.059 329.449 137.341 329.419 136.663 329.606C135.986 329.792 135.384 330.185 134.94 330.73L111.83 357.93C111.412 358.421 111.144 359.022 111.056 359.661C110.968 360.3 111.065 360.95 111.335 361.536C111.606 362.122 112.038 362.618 112.581 362.966C113.124 363.314 113.755 363.499 114.4 363.5H137.52C137.967 363.505 138.411 363.422 138.826 363.254C139.24 363.087 139.618 362.838 139.936 362.524C140.254 362.21 140.507 361.835 140.679 361.423C140.851 361.01 140.94 360.567 140.94 360.12Z" fill="#263238"/>
<path d="M198.37 350.66C198.37 326.66 202.703 309.843 211.37 300.21C220.037 290.576 233.213 285.776 250.9 285.81C259.407 285.81 266.407 286.86 271.9 288.96C276.865 290.751 281.411 293.538 285.26 297.15C288.505 300.243 291.254 303.819 293.41 307.75C295.546 311.865 297.155 316.232 298.2 320.75C300.587 330.397 301.775 340.302 301.74 350.24C301.74 373.18 297.857 389.966 290.09 400.6C282.323 411.233 268.96 416.566 250 416.6C239.333 416.6 230.737 414.903 224.21 411.51C217.56 408.062 211.961 402.887 208 396.53C204.947 391.863 202.573 385.496 200.88 377.43C199.127 368.616 198.286 359.646 198.37 350.66ZM233.21 350.74C233.21 366.84 234.633 377.84 237.48 383.74C240.327 389.64 244.45 392.59 249.85 392.59C251.567 392.606 253.27 392.282 254.861 391.637C256.452 390.992 257.9 390.038 259.12 388.83C261.74 386.33 263.667 382.376 264.9 376.97C266.133 371.563 266.75 363.143 266.75 351.71C266.75 334.93 265.327 323.65 262.48 317.87C259.633 312.09 255.367 309.2 249.68 309.2C243.867 309.2 239.67 312.146 237.09 318.04C234.51 323.933 233.217 334.833 233.21 350.74Z" fill="#263238"/>
<path d="M371.69 390.75H317.37C316.089 390.75 314.861 390.241 313.955 389.335C313.049 388.429 312.54 387.201 312.54 385.92V363.63C312.54 362.493 312.94 361.392 313.67 360.52L375.08 287.52C375.532 286.981 376.097 286.548 376.735 286.251C377.372 285.954 378.067 285.8 378.77 285.8H402.31C403.591 285.8 404.82 286.309 405.725 287.214C406.631 288.12 407.14 289.349 407.14 290.63V358.63C407.135 359.27 407.257 359.905 407.499 360.497C407.741 361.09 408.099 361.629 408.551 362.082C409.003 362.535 409.541 362.894 410.133 363.137C410.725 363.381 411.36 363.504 412 363.5H418.2C419.481 363.5 420.71 364.009 421.615 364.914C422.521 365.82 423.03 367.049 423.03 368.33V385.92C423.03 387.201 422.521 388.429 421.615 389.335C420.71 390.241 419.481 390.75 418.2 390.75H412C410.719 390.75 409.491 391.259 408.585 392.164C407.679 393.07 407.17 394.299 407.17 395.58V409.58C407.17 410.861 406.661 412.089 405.755 412.995C404.85 413.901 403.621 414.41 402.34 414.41H381.34C380.059 414.41 378.831 413.901 377.925 412.995C377.019 412.089 376.51 410.861 376.51 409.58V395.58C376.51 394.301 376.003 393.074 375.099 392.168C374.195 391.263 372.969 390.752 371.69 390.75ZM376.52 360.12V332.92C376.519 332.229 376.306 331.555 375.911 330.989C375.515 330.423 374.956 329.992 374.308 329.753C373.659 329.515 372.954 329.48 372.286 329.655C371.617 329.83 371.019 330.205 370.57 330.73L347.45 357.93C347.033 358.42 346.765 359.019 346.677 359.656C346.588 360.293 346.683 360.942 346.951 361.527C347.219 362.112 347.648 362.608 348.188 362.958C348.728 363.307 349.357 363.495 350 363.5H373.11C373.556 363.504 373.999 363.419 374.413 363.251C374.826 363.083 375.202 362.835 375.519 362.521C375.837 362.206 376.088 361.832 376.26 361.42C376.432 361.008 376.52 360.566 376.52 360.12Z" fill="#263238"/>
<path d="M157.82 298.88C156.89 300.88 155.91 302.68 154.96 304.54L152.16 310.09L149.36 315.66C148.42 317.53 147.45 319.4 146.3 321.24C146.472 319.097 146.884 316.98 147.53 314.93C148.143 312.865 148.936 310.857 149.9 308.93C150.859 307.001 151.998 305.166 153.3 303.45C154.587 301.724 156.108 300.186 157.82 298.88Z" fill="white"/>
<path d="M161.38 303.58C160.51 305.31 159.61 306.94 158.73 308.58L156.14 313.48L153.55 318.4C152.68 320.05 151.79 321.71 150.73 323.33C150.918 321.422 151.317 319.54 151.92 317.72C152.505 315.897 153.244 314.127 154.13 312.43C155.014 310.725 156.063 309.111 157.26 307.61C158.437 306.079 159.824 304.722 161.38 303.58Z" fill="white"/>
<path d="M151.66 296.91C150.89 298.71 150.07 300.4 149.27 302.1L146.92 307.19L144.57 312.29C143.77 314 142.96 315.72 141.98 317.41C142.072 315.474 142.384 313.555 142.91 311.69C143.412 309.817 144.081 307.993 144.91 306.24C145.716 304.487 146.684 302.813 147.8 301.24C148.884 299.627 150.182 298.171 151.66 296.91Z" fill="white"/>
<path d="M381 372.91C382.711 374.228 384.232 375.776 385.52 377.51C386.849 379.227 388.014 381.066 389 383C389.958 384.929 390.747 386.936 391.36 389C392.004 391.052 392.42 393.168 392.6 395.31C391.44 393.47 390.48 391.6 389.53 389.73L386.73 384.16L383.93 378.61C382.94 376.71 382 374.87 381 372.91Z" fill="white"/>
<path d="M377.48 377.61C379.028 378.748 380.411 380.094 381.59 381.61C382.79 383.113 383.838 384.731 384.72 386.44C385.615 388.133 386.355 389.904 386.93 391.73C387.542 393.548 387.945 395.43 388.13 397.34C387.07 395.72 386.18 394.06 385.3 392.41L382.71 387.49L380.12 382.59C379.24 381 378.34 379.34 377.48 377.61Z" fill="white"/>
<path d="M387.19 370.94C388.687 372.188 390.006 373.634 391.11 375.24C392.227 376.811 393.192 378.485 393.99 380.24C394.815 381.995 395.485 383.818 395.99 385.69C396.512 387.556 396.824 389.475 396.92 391.41C395.92 389.71 395.12 388 394.33 386.29L391.98 381.18L389.63 376.1C388.79 374.43 388 372.74 387.19 370.94Z" fill="white"/>
<path d="M299.12 401.62H312.4V405H304.09V407.55H311.8V410.82H304.09V414H312.64V417.63H299.12V401.62Z" fill="#6C63FF"/>
<path d="M312.64 419.59H299.12C298.609 419.59 298.118 419.387 297.756 419.025C297.394 418.663 297.19 418.172 297.19 417.66V401.66C297.189 401.406 297.238 401.155 297.335 400.92C297.431 400.685 297.573 400.472 297.753 400.292C297.932 400.113 298.146 399.971 298.38 399.874C298.615 399.778 298.867 399.729 299.12 399.73H312.4C312.654 399.729 312.906 399.778 313.141 399.874C313.375 399.971 313.589 400.113 313.768 400.292C313.948 400.472 314.09 400.685 314.186 400.92C314.283 401.155 314.332 401.406 314.33 401.66V405C313.928 405.272 313.643 405.685 313.532 406.158C313.42 406.63 313.491 407.127 313.73 407.55V410.82C313.508 411.06 313.35 411.352 313.27 411.67C313.191 411.987 313.194 412.32 313.277 412.636C313.361 412.953 313.524 413.243 313.75 413.479C313.976 413.716 314.258 413.892 314.57 413.99V417.62C314.576 417.877 314.53 418.132 314.435 418.371C314.341 418.61 314.199 418.827 314.019 419.011C313.84 419.194 313.625 419.34 313.388 419.439C313.152 419.539 312.897 419.59 312.64 419.59ZM301.05 415.73H303.18C302.875 415.564 302.62 415.319 302.444 415.019C302.268 414.72 302.177 414.378 302.18 414.03V410.86C302.455 410.685 302.681 410.443 302.838 410.157C302.994 409.871 303.076 409.551 303.076 409.225C303.076 408.899 302.994 408.579 302.838 408.293C302.681 408.007 302.455 407.765 302.18 407.59V405C302.181 404.714 302.244 404.433 302.367 404.175C302.49 403.917 302.669 403.69 302.89 403.51H301.07L301.05 415.73Z" fill="#6C63FF"/>
<path d="M315.38 417.66V401.66H323.64C324.823 401.618 326.005 401.749 327.15 402.05C327.964 402.293 328.67 402.809 329.15 403.51C329.505 404.019 329.752 404.596 329.875 405.205C329.998 405.813 329.994 406.441 329.863 407.048C329.733 407.655 329.479 408.228 329.117 408.733C328.755 409.237 328.293 409.662 327.76 409.98C327.218 410.285 326.63 410.501 326.02 410.62C326.476 410.754 326.91 410.953 327.31 411.21C327.606 411.457 327.871 411.739 328.1 412.05C328.362 412.363 328.596 412.697 328.8 413.05L331.2 417.7H325.6L322.95 412.8C322.737 412.33 322.431 411.908 322.05 411.56C321.695 411.313 321.272 411.183 320.84 411.19H320.4V417.7L315.38 417.66ZM320.38 408.12H322.47C322.912 408.082 323.35 408.008 323.78 407.9C324.105 407.838 324.394 407.656 324.59 407.39C324.819 407.074 324.926 406.686 324.893 406.297C324.86 405.908 324.689 405.543 324.41 405.27C323.854 404.937 323.205 404.793 322.56 404.86H320.38V408.12Z" fill="#6C63FF"/>
<path d="M331.16 419.59H325.56C325.213 419.59 324.872 419.498 324.573 419.322C324.274 419.146 324.028 418.893 323.86 418.59L322.29 415.67V417.67C322.287 418.181 322.083 418.67 321.722 419.032C321.36 419.393 320.871 419.597 320.36 419.6H315.36C315.106 419.6 314.855 419.55 314.621 419.453C314.387 419.356 314.174 419.214 313.995 419.035C313.816 418.855 313.674 418.643 313.577 418.408C313.48 418.174 313.43 417.923 313.43 417.67V401.67C313.428 401.416 313.477 401.164 313.574 400.93C313.67 400.695 313.813 400.482 313.992 400.302C314.172 400.123 314.385 399.981 314.62 399.884C314.854 399.787 315.106 399.738 315.36 399.74H323.62C325.007 399.693 326.393 399.858 327.73 400.23C328.927 400.611 329.962 401.382 330.67 402.42C331.412 403.509 331.793 404.803 331.76 406.12C331.781 407.268 331.495 408.4 330.93 409.4C330.586 409.989 330.147 410.516 329.63 410.96C329.947 411.345 330.225 411.76 330.46 412.2L332.85 416.82C333.003 417.114 333.077 417.442 333.066 417.773C333.055 418.104 332.959 418.427 332.787 418.711C332.616 418.994 332.374 419.228 332.085 419.391C331.797 419.554 331.471 419.639 331.14 419.64L331.16 419.59ZM326.71 415.73H328L327 413.9C326.867 413.655 326.706 413.427 326.52 413.22C326.38 413.041 326.23 412.871 326.07 412.71C325.834 412.584 325.586 412.483 325.33 412.41C325.083 412.325 324.855 412.192 324.66 412.02L326.71 415.73ZM317.31 415.73H318.43V411.15C318.43 410.857 318.496 410.568 318.624 410.304C318.753 410.041 318.939 409.81 319.17 409.63C318.939 409.451 318.753 409.222 318.625 408.961C318.496 408.699 318.43 408.411 318.43 408.12V404.86C318.43 404.375 318.612 403.907 318.94 403.55H317.31V415.73ZM323.17 409.98C323.532 410.26 323.847 410.598 324.1 410.98C324.063 410.812 324.046 410.641 324.05 410.47C324.068 410.224 324.129 409.984 324.23 409.76H324.14C323.76 409.88 323.44 409.94 323.17 410V409.98ZM325.4 403.63L325.63 403.8C326.015 404.125 326.321 404.533 326.526 404.994C326.73 405.455 326.827 405.956 326.81 406.46C326.815 407.215 326.569 407.95 326.11 408.55C326.324 408.492 326.529 408.404 326.72 408.29C327.092 408.073 327.405 407.768 327.63 407.4C327.845 406.991 327.949 406.532 327.93 406.07C327.957 405.543 327.817 405.022 327.53 404.58C327.294 404.223 326.94 403.961 326.53 403.84C326.16 403.736 325.782 403.666 325.4 403.63Z" fill="#6C63FF"/>
<path d="M332.81 417.66V401.66H341.07C342.256 401.617 343.442 401.749 344.59 402.05C345.405 402.292 346.111 402.808 346.59 403.51C346.945 404.019 347.192 404.596 347.315 405.205C347.437 405.813 347.434 406.441 347.303 407.048C347.173 407.655 346.919 408.229 346.557 408.733C346.195 409.238 345.733 409.662 345.2 409.98C344.657 410.285 344.07 410.501 343.46 410.62C343.915 410.755 344.35 410.953 344.75 411.21C345.05 411.456 345.318 411.738 345.55 412.05C345.806 412.365 346.036 412.699 346.24 413.05L348.64 417.7H343L340.35 412.8C340.14 412.328 339.834 411.905 339.45 411.56C339.097 411.309 338.672 411.179 338.24 411.19H337.8V417.7L332.81 417.66ZM337.81 408.12H339.9C340.342 408.083 340.78 408.009 341.21 407.9C341.534 407.838 341.824 407.656 342.02 407.39C342.228 407.126 342.337 406.797 342.33 406.46C342.343 406.238 342.306 406.015 342.221 405.809C342.136 405.603 342.006 405.419 341.84 405.27C341.283 404.937 340.634 404.793 339.99 404.86H337.81V408.12Z" fill="#6C63FF"/>
<path d="M348.59 419.59H343C342.653 419.591 342.313 419.498 342.014 419.322C341.715 419.146 341.468 418.893 341.3 418.59L339.73 415.67V417.67C339.73 418.182 339.527 418.673 339.165 419.035C338.803 419.397 338.312 419.6 337.8 419.6H332.8C332.289 419.597 331.8 419.393 331.438 419.032C331.077 418.67 330.873 418.181 330.87 417.67V401.67C330.87 401.158 331.073 400.667 331.435 400.305C331.797 399.943 332.288 399.74 332.8 399.74H341.06C342.447 399.692 343.833 399.857 345.17 400.23C346.371 400.608 347.41 401.38 348.12 402.42C348.791 403.455 349.168 404.653 349.212 405.885C349.256 407.118 348.965 408.34 348.37 409.42C348.027 410.006 347.592 410.533 347.08 410.98C347.394 411.368 347.671 411.783 347.91 412.22L350.29 416.84C350.443 417.134 350.517 417.462 350.507 417.794C350.496 418.125 350.4 418.447 350.228 418.731C350.056 419.014 349.814 419.248 349.526 419.411C349.237 419.574 348.911 419.66 348.58 419.66L348.59 419.59ZM344.14 415.73H345.43L344.48 413.9C344.336 413.66 344.172 413.433 343.99 413.22C343.858 413.035 343.707 412.864 343.54 412.71C343.305 412.584 343.057 412.484 342.8 412.41C342.557 412.324 342.333 412.191 342.14 412.02L344.14 415.73ZM334.74 415.73H335.86V411.15C335.86 410.857 335.927 410.568 336.055 410.305C336.183 410.041 336.37 409.811 336.6 409.63C336.37 409.451 336.183 409.223 336.055 408.961C335.927 408.699 335.86 408.411 335.86 408.12V404.86C335.86 404.373 336.046 403.904 336.38 403.55H334.74V415.73ZM340.6 410C340.963 410.28 341.277 410.618 341.53 411C341.505 410.831 341.505 410.659 341.53 410.49C341.54 410.245 341.598 410.003 341.7 409.78H341.62C341.19 409.88 340.87 409.94 340.6 410ZM342.84 403.65L343.06 403.82C343.445 404.145 343.752 404.554 343.956 405.014C344.16 405.475 344.258 405.976 344.24 406.48C344.245 407.235 343.999 407.97 343.54 408.57C343.757 408.511 343.966 408.424 344.16 408.31C344.53 408.093 344.839 407.787 345.06 407.42C345.276 407.011 345.379 406.552 345.36 406.09C345.387 405.564 345.247 405.042 344.96 404.6C344.724 404.244 344.37 403.982 343.96 403.86C343.594 403.751 343.219 403.674 342.84 403.63V403.65Z" fill="#6C63FF"/>
<path d="M349.17 409.65C349.06 408.533 349.199 407.406 349.577 406.349C349.954 405.292 350.561 404.332 351.353 403.538C352.146 402.743 353.105 402.134 354.16 401.754C355.216 401.374 356.343 401.233 357.46 401.34C358.58 401.269 359.703 401.422 360.763 401.791C361.822 402.161 362.797 402.738 363.63 403.49C364.376 404.293 364.951 405.239 365.322 406.27C365.694 407.301 365.853 408.396 365.79 409.49C365.852 411.08 365.53 412.661 364.85 414.1C364.232 415.283 363.279 416.257 362.11 416.9C360.735 417.612 359.198 417.956 357.65 417.9C356.108 417.951 354.574 417.657 353.16 417.04C351.946 416.439 350.942 415.483 350.28 414.3C349.501 412.877 349.117 411.271 349.17 409.65ZM354.17 409.65C354.061 410.882 354.379 412.114 355.07 413.14C355.389 413.472 355.772 413.736 356.196 413.916C356.619 414.096 357.075 414.189 357.535 414.189C357.996 414.189 358.451 414.096 358.875 413.916C359.298 413.736 359.681 413.472 360 413.14C360.698 412.028 361.008 410.716 360.88 409.41C360.974 408.233 360.648 407.06 359.96 406.1C359.646 405.761 359.261 405.496 358.832 405.323C358.403 405.15 357.942 405.074 357.48 405.1C357.026 405.083 356.574 405.17 356.158 405.354C355.743 405.537 355.374 405.813 355.08 406.16C354.365 407.184 354.029 408.425 354.13 409.67L354.17 409.65Z" fill="#6C63FF"/>
<path d="M357.65 419.86C355.816 419.912 353.994 419.55 352.32 418.8C350.762 418.038 349.472 416.821 348.62 415.31C347.654 413.584 347.177 411.627 347.24 409.65C347.312 407.626 347.961 405.665 349.11 403.996C350.258 402.328 351.859 401.022 353.724 400.233C355.59 399.443 357.641 399.202 359.639 399.538C361.636 399.874 363.496 400.773 365 402.13C365.933 403.112 366.658 404.273 367.129 405.544C367.6 406.814 367.808 408.167 367.74 409.52C367.802 411.424 367.4 413.315 366.57 415.03C365.783 416.543 364.565 417.789 363.07 418.61C361.401 419.488 359.534 419.918 357.65 419.86ZM359 403.37C359.924 403.623 360.753 404.145 361.38 404.87C362.394 406.172 362.889 407.804 362.77 409.45C362.77 411.74 362.34 413.36 361.45 414.45C360.879 415.127 360.131 415.633 359.29 415.91C359.952 415.813 360.592 415.6 361.18 415.28C362.03 414.827 362.727 414.131 363.18 413.28C363.716 412.12 363.966 410.847 363.91 409.57C363.972 408.726 363.863 407.877 363.588 407.076C363.313 406.275 362.878 405.538 362.31 404.91C361.408 404.043 360.244 403.502 359 403.37ZM355.91 403.37C354.712 403.515 353.595 404.049 352.73 404.89C352.153 405.531 351.712 406.283 351.433 407.099C351.155 407.916 351.045 408.78 351.11 409.64C351.053 410.926 351.344 412.204 351.95 413.34C352.415 414.203 353.134 414.901 354.01 415.34C354.521 415.581 355.063 415.753 355.62 415.85C354.824 415.56 354.117 415.067 353.57 414.42C352.678 412.996 352.205 411.35 352.205 409.67C352.205 407.99 352.678 406.344 353.57 404.92C354.178 404.189 354.989 403.653 355.9 403.38L355.91 403.37ZM357.45 407.02C357.274 407.003 357.097 407.028 356.933 407.094C356.769 407.16 356.624 407.265 356.51 407.4C356.127 408.088 355.973 408.879 356.07 409.66C355.973 410.435 356.127 411.22 356.51 411.9C356.633 412.04 356.788 412.148 356.962 412.215C357.137 412.281 357.325 412.303 357.51 412.28C358.21 412.28 358.41 412.05 358.51 411.93C358.61 411.81 358.93 411.37 358.93 409.44C359.009 408.743 358.854 408.039 358.49 407.44C358.364 407.287 358.202 407.167 358.019 407.09C357.836 407.013 357.637 406.983 357.44 407L357.45 407.02Z" fill="#6C63FF"/>
<path d="M368.53 417.66V401.66H376.79C377.973 401.618 379.156 401.749 380.3 402.05C381.114 402.293 381.82 402.809 382.3 403.51C382.656 404.019 382.903 404.596 383.025 405.205C383.148 405.813 383.144 406.441 383.014 407.048C382.883 407.655 382.629 408.228 382.267 408.733C381.905 409.237 381.444 409.662 380.91 409.98C380.368 410.285 379.781 410.501 379.17 410.62C379.626 410.754 380.06 410.953 380.46 411.21C380.757 411.457 381.022 411.739 381.25 412.05C381.512 412.363 381.746 412.697 381.95 413.05L384.35 417.7H378.75L376.1 412.8C375.888 412.33 375.581 411.908 375.2 411.56C374.846 411.313 374.422 411.183 373.99 411.19H373.55V417.7L368.53 417.66ZM373.53 408.12H375.62C376.062 408.082 376.5 408.008 376.93 407.9C377.255 407.838 377.544 407.656 377.74 407.39C377.969 407.074 378.077 406.686 378.044 406.297C378.011 405.908 377.839 405.543 377.56 405.27C377.004 404.937 376.355 404.793 375.71 404.86H373.53V408.12Z" fill="#6C63FF"/>
<path d="M384.31 419.59H378.71C378.363 419.59 378.023 419.498 377.724 419.322C377.425 419.146 377.178 418.893 377.01 418.59L375.44 415.67V417.67C375.437 418.181 375.233 418.67 374.872 419.032C374.511 419.393 374.021 419.597 373.51 419.6H368.51C367.998 419.6 367.507 419.396 367.145 419.035C366.783 418.673 366.58 418.182 366.58 417.67V401.67C366.579 401.416 366.628 401.164 366.724 400.93C366.821 400.695 366.963 400.482 367.142 400.302C367.322 400.123 367.535 399.981 367.77 399.884C368.005 399.787 368.256 399.738 368.51 399.74H376.77C378.157 399.693 379.543 399.858 380.88 400.23C382.077 400.611 383.112 401.382 383.82 402.42C384.566 403.507 384.95 404.802 384.92 406.12C384.94 407.269 384.649 408.402 384.08 409.4C383.737 409.989 383.297 410.516 382.78 410.96C383.097 411.345 383.375 411.76 383.61 412.2L386 416.82C386.153 417.114 386.227 417.442 386.217 417.773C386.206 418.104 386.11 418.427 385.938 418.711C385.766 418.994 385.524 419.228 385.236 419.391C384.947 419.554 384.621 419.639 384.29 419.64L384.31 419.59ZM379.86 415.73H381.14L380.2 413.9C380.056 413.66 379.892 413.432 379.71 413.22C379.571 413.041 379.42 412.871 379.26 412.71C379.025 412.584 378.777 412.483 378.52 412.41C378.273 412.325 378.046 412.192 377.85 412.02L379.86 415.73ZM370.46 415.73H371.58V411.15C371.58 410.857 371.647 410.568 371.775 410.304C371.903 410.041 372.09 409.81 372.32 409.63C372.09 409.451 371.903 409.222 371.775 408.961C371.647 408.699 371.58 408.411 371.58 408.12V404.86C371.576 404.374 371.759 403.905 372.09 403.55H370.46V415.73ZM376.32 409.98C376.683 410.26 376.997 410.598 377.25 410.98C377.225 410.811 377.225 410.639 377.25 410.47C377.26 410.224 377.318 409.983 377.42 409.76H377.33C376.91 409.88 376.59 409.94 376.32 410V409.98ZM378.56 403.63L378.78 403.8C379.165 404.125 379.472 404.533 379.676 404.994C379.88 405.455 379.978 405.956 379.96 406.46C379.965 407.215 379.719 407.95 379.26 408.55C379.891 408.372 380.431 407.961 380.77 407.4C380.988 406.958 381.093 406.47 381.077 405.979C381.062 405.487 380.925 405.006 380.68 404.58C380.444 404.223 380.09 403.961 379.68 403.84C379.314 403.737 378.939 403.667 378.56 403.63Z" fill="#6C63FF"/>
<path d="M299.12 401.62H312.4V405H304.09V407.55H311.8V410.82H304.09V414H312.64V417.63H299.12V401.62Z" fill="white"/>
<path d="M315.38 417.66V401.66H323.64C324.823 401.618 326.005 401.749 327.15 402.05C327.964 402.293 328.67 402.809 329.15 403.51C329.505 404.019 329.752 404.596 329.875 405.205C329.998 405.813 329.994 406.441 329.863 407.048C329.733 407.655 329.479 408.228 329.117 408.733C328.755 409.237 328.293 409.662 327.76 409.98C327.218 410.285 326.63 410.501 326.02 410.62C326.476 410.754 326.91 410.953 327.31 411.21C327.606 411.457 327.871 411.739 328.1 412.05C328.362 412.363 328.596 412.697 328.8 413.05L331.2 417.7H325.6L322.95 412.8C322.737 412.33 322.431 411.908 322.05 411.56C321.695 411.313 321.272 411.183 320.84 411.19H320.4V417.7L315.38 417.66ZM320.38 408.12H322.47C322.912 408.082 323.35 408.008 323.78 407.9C324.105 407.838 324.394 407.656 324.59 407.39C324.819 407.074 324.926 406.686 324.893 406.297C324.86 405.908 324.689 405.543 324.41 405.27C323.854 404.937 323.205 404.793 322.56 404.86H320.38V408.12Z" fill="white"/>
<path d="M332.81 417.66V401.66H341.07C342.256 401.617 343.442 401.749 344.59 402.05C345.405 402.292 346.111 402.808 346.59 403.51C346.945 404.019 347.192 404.596 347.315 405.205C347.437 405.813 347.434 406.441 347.303 407.048C347.173 407.655 346.919 408.229 346.557 408.733C346.195 409.238 345.733 409.662 345.2 409.98C344.657 410.285 344.07 410.501 343.46 410.62C343.915 410.755 344.35 410.953 344.75 411.21C345.05 411.456 345.318 411.738 345.55 412.05C345.806 412.365 346.036 412.699 346.24 413.05L348.64 417.7H343L340.35 412.8C340.14 412.328 339.834 411.905 339.45 411.56C339.097 411.309 338.672 411.179 338.24 411.19H337.8V417.7L332.81 417.66ZM337.81 408.12H339.9C340.342 408.083 340.78 408.009 341.21 407.9C341.534 407.838 341.824 407.656 342.02 407.39C342.228 407.126 342.337 406.797 342.33 406.46C342.343 406.238 342.306 406.015 342.221 405.809C342.136 405.603 342.006 405.419 341.84 405.27C341.283 404.937 340.634 404.793 339.99 404.86H337.81V408.12Z" fill="white"/>
<path d="M349.17 409.65C349.06 408.533 349.199 407.406 349.577 406.349C349.954 405.292 350.561 404.332 351.353 403.538C352.146 402.743 353.105 402.134 354.16 401.754C355.216 401.374 356.343 401.233 357.46 401.34C358.58 401.269 359.703 401.422 360.763 401.791C361.822 402.161 362.797 402.738 363.63 403.49C364.376 404.293 364.951 405.239 365.322 406.27C365.694 407.301 365.853 408.396 365.79 409.49C365.852 411.08 365.53 412.661 364.85 414.1C364.232 415.283 363.279 416.257 362.11 416.9C360.735 417.612 359.198 417.956 357.65 417.9C356.108 417.951 354.574 417.657 353.16 417.04C351.946 416.439 350.942 415.483 350.28 414.3C349.501 412.877 349.117 411.271 349.17 409.65ZM354.17 409.65C354.061 410.882 354.379 412.114 355.07 413.14C355.389 413.472 355.772 413.736 356.196 413.916C356.619 414.096 357.075 414.189 357.535 414.189C357.996 414.189 358.451 414.096 358.875 413.916C359.298 413.736 359.681 413.472 360 413.14C360.698 412.028 361.008 410.716 360.88 409.41C360.974 408.233 360.648 407.06 359.96 406.1C359.646 405.761 359.261 405.496 358.832 405.323C358.403 405.15 357.942 405.074 357.48 405.1C357.026 405.083 356.574 405.17 356.158 405.354C355.743 405.537 355.374 405.813 355.08 406.16C354.365 407.184 354.029 408.425 354.13 409.67L354.17 409.65Z" fill="white"/>
<path d="M368.53 417.66V401.66H376.79C377.973 401.618 379.156 401.749 380.3 402.05C381.114 402.293 381.82 402.809 382.3 403.51C382.656 404.019 382.903 404.596 383.025 405.205C383.148 405.813 383.144 406.441 383.014 407.048C382.883 407.655 382.629 408.228 382.267 408.733C381.905 409.237 381.444 409.662 380.91 409.98C380.368 410.285 379.781 410.501 379.17 410.62C379.626 410.754 380.06 410.953 380.46 411.21C380.757 411.457 381.022 411.739 381.25 412.05C381.512 412.363 381.746 412.697 381.95 413.05L384.35 417.7H378.75L376.1 412.8C375.888 412.33 375.581 411.908 375.2 411.56C374.846 411.313 374.422 411.183 373.99 411.19H373.55V417.7L368.53 417.66ZM373.53 408.12H375.62C376.062 408.082 376.5 408.008 376.93 407.9C377.255 407.838 377.544 407.656 377.74 407.39C377.969 407.074 378.077 406.686 378.044 406.297C378.011 405.908 377.839 405.543 377.56 405.27C377.004 404.937 376.355 404.793 375.71 404.86H373.53V408.12Z" fill="white"/>
<path d="M426.5 156.28C422.298 154.945 417.908 154.3 413.5 154.37C409.22 154.395 404.982 155.212 401 156.78C399.327 157.437 397.755 158.326 396.33 159.42C396.19 159.54 396.03 159.65 395.92 159.76C395.81 159.87 395.7 159.95 395.52 160.14C395.34 160.33 394.87 160.81 394.52 161.14C393.881 161.865 393.29 162.63 392.75 163.43C390.515 166.716 389.096 170.487 388.61 174.43C388.372 176.298 388.395 178.189 388.68 180.05C388.813 180.925 389.017 181.788 389.29 182.63C389.561 183.474 389.896 184.296 390.29 185.09C391.386 187.145 392.626 189.12 394 191C395.53 193.18 397.3 195.56 399 198.47C400.977 201.693 402.388 205.231 403.17 208.93C403.568 211.012 403.716 213.134 403.61 215.25C403.49 217.326 403.124 219.381 402.52 221.37C401.353 225.182 399.412 228.712 396.82 231.74C395.541 233.228 394.117 234.585 392.57 235.79C391.075 236.966 389.475 238 387.79 238.88C384.537 240.558 381.041 241.716 377.43 242.31C374.05 242.87 370.617 243.031 367.2 242.79C363.942 242.559 360.711 242.03 357.55 241.21C354.58 240.44 351.658 239.495 348.8 238.38C343.24 236.25 338.2 233.81 333.39 231.74C328.934 229.695 324.275 228.126 319.49 227.06C317.321 226.62 315.113 226.399 312.9 226.4C310.655 226.407 308.415 226.622 306.21 227.04C301.56 227.989 297.064 229.578 292.85 231.76C284.11 236.17 276.03 242.89 267.67 249.93C266.157 251.209 264.2 251.837 262.227 251.678C260.253 251.519 258.422 250.586 257.133 249.082C255.844 247.579 255.203 245.626 255.348 243.651C255.494 241.676 256.415 239.839 257.91 238.54C266.16 231.35 274.85 223.64 285.63 217.88C291.11 214.908 296.981 212.72 303.07 211.38C306.238 210.711 309.462 210.339 312.7 210.27C315.974 210.197 319.247 210.455 322.47 211.04C328.428 212.206 334.244 214.006 339.82 216.41C345.12 218.58 350.01 220.81 354.73 222.51C356.994 223.344 359.304 224.045 361.65 224.61C363.809 225.129 366.012 225.444 368.23 225.55C372.129 225.869 376.041 225.111 379.54 223.36C380.275 222.951 380.971 222.476 381.62 221.94C382.224 221.444 382.78 220.892 383.28 220.29C384.239 219.113 384.946 217.751 385.36 216.29C385.545 215.639 385.646 214.967 385.66 214.29C385.676 213.665 385.615 213.04 385.48 212.43C385.045 210.777 384.343 209.206 383.4 207.78C382.29 205.98 380.77 203.96 379.1 201.69C377.172 199.153 375.431 196.479 373.89 193.69C373.017 192.055 372.269 190.357 371.65 188.61C371.044 186.856 370.576 185.057 370.25 183.23C369.616 179.676 369.478 176.052 369.84 172.46C370.537 165.459 372.903 158.728 376.74 152.83C377.704 151.338 378.763 149.908 379.91 148.55C380.5 147.87 381.1 147.2 381.73 146.55C382.02 146.24 382.44 145.85 382.81 145.5C383.18 145.15 383.57 144.83 383.95 144.5C386.806 142.162 389.986 140.249 393.39 138.82C399.587 136.226 406.213 134.809 412.93 134.64C419.49 134.431 426.042 135.286 432.33 137.17C434.713 138.05 436.672 139.804 437.809 142.076C438.945 144.348 439.175 146.967 438.451 149.402C437.727 151.837 436.103 153.905 433.909 155.186C431.715 156.467 429.116 156.866 426.64 156.3L426.5 156.28Z" fill="#263238"/>
<path d="M426.261 157.09C420.887 155.268 415.192 154.587 409.541 155.09C406.814 155.338 404.128 155.915 401.541 156.81C399.399 157.541 397.397 158.629 395.62 160.03L395.05 160.52C393.166 162.25 390.671 163.162 388.115 163.053C385.559 162.944 383.151 161.824 381.421 159.94C379.69 158.056 378.779 155.561 378.888 153.005C378.996 150.449 380.116 148.04 382 146.31C385.503 142.884 389.636 140.167 394.171 138.31C398.252 136.609 402.528 135.416 406.9 134.76C415.481 133.5 424.23 134.058 432.58 136.4C435.352 137.158 437.709 138.987 439.132 141.483C440.555 143.979 440.929 146.938 440.171 149.71C439.412 152.481 437.584 154.838 435.087 156.262C432.591 157.685 429.632 158.058 426.86 157.3L426.33 157.14L426.261 157.09Z" fill="#6C63FF"/>
<path d="M239.8 280.85L243.51 286.63C239.78 288.58 235.88 288.29 231.9 288.29C230.21 280.47 239.8 280.85 239.8 280.85Z" fill="#263238"/>
<path d="M217.19 250C221.92 263.61 239.46 281.66 239.46 281.66C239.46 281.66 232.06 283.14 234.07 288.25H244.4L266.64 284.06C267.382 283.887 268.031 283.439 268.454 282.806C268.878 282.172 269.044 281.402 268.92 280.65L260.71 253.11L217.19 250Z" fill="#6C63FF"/>
<path d="M303.46 257.79L305.46 265.9C309.38 264.35 312.69 263.29 314.39 259.65C312.42 254.59 303.46 257.79 303.46 257.79Z" fill="#263238"/>
<path d="M285.9 216.18C292.9 228.72 307.66 259.3 307.66 259.3C307.66 259.3 315.24 259.62 314.23 264.95L284.84 272.21C284.185 272.437 283.473 272.442 282.815 272.223C282.157 272.004 281.589 271.574 281.2 271L260.2 253.22C271.66 246.22 285 227.85 285.9 216.18Z" fill="#6C63FF"/>
<path opacity="0.1" d="M272.28 242.49C268.838 246.657 264.794 250.287 260.28 253.26L266.28 258.15C272.75 252.36 274.59 246.16 272.28 242.49Z" fill="black"/>
<path d="M264.8 179.77C272.96 181.16 306.85 176.56 309.37 176.44C309.64 174.57 310.5 169.94 312.53 170.76C314.56 171.58 315.6 175.08 315.19 176.76C320 175.9 326.32 185.76 319.13 193.76C308.6 205.58 270.13 207.39 270.13 207.39C270.13 207.39 249.26 181.73 264.8 179.77Z" fill="#6C63FF"/>
<path opacity="0.1" d="M267.34 195.5C265.713 195.32 264.068 195.501 262.52 196.03C264.752 200.014 267.3 203.813 270.14 207.39C270.14 207.39 277.9 207.02 287.4 205.56C282.17 201.82 273.88 196.55 267.34 195.5Z" fill="black"/>
<path d="M315.19 176.73C320.05 174.73 323.45 173.73 324.57 175.4C325.69 177.07 324.19 180.58 319.49 181.49C315.18 178.79 315.19 176.73 315.19 176.73Z" fill="#6C63FF"/>
<path d="M318.35 180.89C323.47 180.72 326.9 181.02 327.35 182.89C327.8 184.76 325.22 187.48 320.64 186.69C317.63 182.77 318.35 180.89 318.35 180.89Z" fill="#6C63FF"/>
<path d="M321.58 186.12C324.87 187.65 326.89 188.99 326.29 190.6C325.69 192.21 322.84 193.45 320.29 191.35C320.26 187.33 321.58 186.12 321.58 186.12Z" fill="#6C63FF"/>
<path d="M202.15 205.34C198.39 212.71 174.43 237.11 172.82 239.07C171.16 238.16 166.94 236.07 166.39 238.2C165.84 240.33 168.01 243.25 169.57 243.9C166.01 247.24 170.1 258.19 180.87 257.25C196.64 255.87 221.09 226.14 221.09 226.14C221.09 226.14 213 194.05 202.15 205.34Z" fill="#6C63FF"/>
<path opacity="0.1" d="M213.23 216.78C214.066 215.373 215.194 214.162 216.54 213.23C218.402 217.403 219.924 221.721 221.09 226.14C221.09 226.14 216.16 232.14 209.3 238.87C209.43 232.45 210.16 222.65 213.23 216.78Z" fill="black"/>
<path d="M169.57 243.9C165.04 246.58 162.23 248.73 162.9 250.62C163.57 252.51 167.28 253.42 170.82 250.2C171.23 245.13 169.57 243.9 169.57 243.9Z" fill="#6C63FF"/>
<path d="M171 248.93C167.8 252.93 166 255.85 167.26 257.34C168.52 258.83 172.2 258.34 174.31 254.22C173 249.47 171 248.93 171 248.93Z" fill="#6C63FF"/>
<path d="M173.28 254.64C172.53 258.19 172.4 260.64 174.06 261.1C175.72 261.56 178.4 260.04 178.22 256.76C175 254.31 173.28 254.64 173.28 254.64Z" fill="#6C63FF"/>
<path opacity="0.1" d="M260.73 253.21V253.15L247.43 252.15C247.16 257.88 253.83 261.51 262.79 259.97L260.73 253.21Z" fill="black"/>
<path d="M263.19 184.37L235.75 196.12L208.32 207.87C208.32 207.87 211.24 243.33 220.24 255.48C229.24 267.63 246.62 263.89 261.97 257.31C277.32 250.73 291.97 240.74 289.43 225.84C286.89 210.94 263.19 184.37 263.19 184.37Z" fill="#6C63FF"/>
<path opacity="0.2" d="M251.25 191L236.31 197.4L221.38 203.8C221.6 200.89 215.5 227.96 225.9 242.39C232.68 251.79 245.34 249.21 256.47 244.44C267.6 239.67 278.19 232.29 276.06 220.9C272.8 203.43 249 189.18 251.25 191Z" fill="white"/>
<path opacity="0.2" d="M246.5 195.22L236.5 199.48L226.55 203.75C226.62 201.65 223.17 221.12 230.55 231.84C235.38 238.84 243.89 237.28 251.31 234.1C258.73 230.92 265.73 225.83 264 217.51C261.41 204.76 244.92 193.83 246.5 195.22Z" fill="white"/>
<path opacity="0.2" d="M176.529 253.345C178.42 252.587 179.158 249.989 178.177 247.544C177.196 245.099 174.868 243.732 172.976 244.491C171.085 245.25 170.347 247.847 171.328 250.292C172.309 252.737 174.637 254.104 176.529 253.345Z" fill="white"/>
<path opacity="0.2" d="M319.48 185.84C319.67 188.47 318.18 190.72 316.15 190.84C314.12 190.96 312.31 188.98 312.15 186.36C311.99 183.74 313.45 181.48 315.48 181.36C317.51 181.24 319.29 183.22 319.48 185.84Z" fill="white"/>
<path d="M175.69 120C135.82 91.7802 74.5603 109.09 69.7503 119.75C64.6403 131.1 120.12 161.67 133.75 191.21C153.65 154.24 175.69 120 175.69 120Z" fill="#263238"/>
<path opacity="0.5" d="M161 131.57C129.44 109.57 84.9405 119.47 82.0605 126.97C78.9905 134.97 122.34 159.32 134.45 181.22C146.8 155.37 161 131.57 161 131.57Z" fill="#6C63FF"/>
<path d="M164.93 126.23C155.99 126.83 148.42 129.83 141.75 136.87C144.756 135.906 147.959 135.736 151.05 136.376C154.141 137.015 157.014 138.443 159.39 140.52L164.93 126.23Z" fill="#263238"/>
<path d="M223.4 99.5501C242.56 39.0901 310.8 38.8501 324.4 48.0001C334.73 55.0001 290.74 82.9301 302.53 123.25C262.85 109.67 223.4 99.5501 223.4 99.5501Z" fill="#263238"/>
<path opacity="0.5" d="M241.43 98.2399C257.43 63.2399 294.75 49.2399 312.18 52.3699C328.66 55.3099 279.42 93.7399 289.48 127.57C265.7 111.57 241.43 98.2399 241.43 98.2399Z" fill="#6C63FF"/>
<path d="M240.34 92.8399C243.424 91.1696 246.808 90.1267 250.298 89.7714C253.787 89.4161 257.312 89.7554 260.67 90.7699C258.203 91.3228 255.921 92.5049 254.046 94.2012C252.17 95.8975 250.766 98.0502 249.97 100.45L240.34 92.8399Z" fill="#263238"/>
<path d="M241.17 90C243.212 88.0907 245.612 86.6041 248.231 85.6259C250.85 84.6476 253.636 84.197 256.43 84.3C254.638 85.2256 253.117 86.5987 252.013 88.2861C250.909 89.9736 250.26 91.9178 250.13 93.93L241.17 90Z" fill="#263238"/>
<path d="M314.33 126.34C324.41 149.86 288.05 178.34 237.43 200.03C186.81 221.72 141.11 228.4 131 204.87C120.89 181.34 145.24 124.76 195.86 103.07C246.48 81.3801 304.25 102.81 314.33 126.34Z" fill="#6C63FF"/>
<path opacity="0.1" d="M294.35 128.58C303.69 150.39 275.21 175.39 234.35 192.89C193.49 210.39 155.76 213.76 146.42 191.94C137.08 170.12 159.66 131.37 200.5 113.88C241.34 96.3898 285 106.76 294.35 128.58Z" fill="black"/>
<path d="M212.17 160.37C211.29 158.31 213.98 155.95 217.83 154.29C221.68 152.63 225.26 152.29 226.14 154.38C227.02 156.47 225.67 161.92 221.81 163.58C217.95 165.24 213.05 162.43 212.17 160.37Z" fill="#263238"/>
<path opacity="0.3" d="M220.34 178.74C219.75 177.34 222.58 175.31 226.44 173.66C230.3 172.01 233.72 171.36 234.31 172.75C234.9 174.14 232.98 178.28 229.13 179.93C225.28 181.58 220.94 180.13 220.34 178.74Z" fill="black"/>
<path opacity="0.4" d="M148.91 161.77C154.42 145.99 167.01 134.28 179.85 131.35C201.5 126.41 207.85 153.52 197.39 172.21C185.71 193.13 159.91 189.94 157.39 180.37C153.76 186.74 139 190.07 148.91 161.77Z" fill="white"/>
<path d="M197.4 144C197.4 144 195.93 163.21 185.79 170C175.65 176.79 160.67 168.47 160.67 168.47C160.67 168.47 162.14 149.27 172.28 142.47C182.42 135.67 197.4 144 197.4 144Z" fill="white"/>
<path d="M160.67 168.37C160.579 163.665 161.254 158.977 162.67 154.49C163.366 152.194 164.326 149.985 165.53 147.91C166.746 145.757 168.342 143.843 170.24 142.26C172.197 140.664 174.509 139.563 176.98 139.05C179.381 138.54 181.855 138.472 184.28 138.85C188.976 139.54 193.454 141.283 197.38 143.95C193.115 142.313 188.635 141.303 184.08 140.95C181.896 140.804 179.701 141.006 177.58 141.55C175.509 142.029 173.582 142.996 171.96 144.37C170.28 145.737 168.849 147.385 167.73 149.24L167.27 149.93L166.86 150.66C166.6 151.15 166.31 151.66 166.06 152.13C165.59 153.13 165.06 154.13 164.67 155.2C162.965 159.468 161.627 163.874 160.67 168.37Z" fill="#263238"/>
<path d="M224.45 132.36C224.45 132.36 239.37 144.55 251.24 141.86C263.11 139.17 267.46 122.62 267.46 122.62C267.46 122.62 252.55 110.43 240.67 113.12C228.79 115.81 224.45 132.36 224.45 132.36Z" fill="white"/>
<path d="M267.46 122.62C263.544 120.221 259.433 118.157 255.17 116.45C254.17 116.03 253.04 115.71 251.98 115.35C251.45 115.18 250.9 115.06 250.36 114.91L249.56 114.7L248.74 114.56C246.626 114.094 244.448 113.992 242.3 114.26C240.186 114.495 238.158 115.224 236.38 116.39C234.523 117.547 232.865 118.995 231.47 120.68C228.581 124.212 226.223 128.147 224.47 132.36C225.243 127.678 227.069 123.233 229.81 119.36C231.211 117.344 232.966 115.599 234.99 114.21C237.075 112.772 239.476 111.859 241.99 111.55C244.443 111.269 246.926 111.435 249.32 112.04C251.633 112.601 253.875 113.426 256 114.5C260.235 116.567 264.105 119.31 267.46 122.62Z" fill="#263238"/>
<path d="M187.868 166.53C193.68 165.116 197.245 159.259 195.831 153.447C194.418 147.635 188.561 144.07 182.749 145.484C176.937 146.897 173.371 152.754 174.785 158.566C176.199 164.378 182.056 167.944 187.868 166.53Z" fill="#263238"/>
<path d="M176.61 156.65C176.968 157.477 177.562 158.18 178.319 158.67C179.076 159.159 179.961 159.414 180.862 159.401C181.763 159.388 182.64 159.108 183.383 158.597C184.125 158.086 184.699 157.366 185.033 156.529C185.366 155.691 185.444 154.774 185.257 153.892C185.069 153.011 184.624 152.205 183.979 151.576C183.333 150.947 182.516 150.523 181.63 150.358C180.744 150.193 179.829 150.295 179 150.65C178.449 150.886 177.949 151.229 177.531 151.659C177.112 152.088 176.782 152.596 176.56 153.154C176.338 153.711 176.228 154.307 176.237 154.907C176.245 155.507 176.372 156.099 176.61 156.65Z" fill="white"/>
<path d="M251.156 136.127C253.378 130.574 250.678 124.271 245.125 122.048C239.571 119.826 233.268 122.526 231.046 128.079C228.824 133.633 231.524 139.936 237.077 142.158C242.63 144.38 248.934 141.68 251.156 136.127Z" fill="#263238"/>
<path d="M232.4 132.74C232.757 133.568 233.352 134.27 234.108 134.76C234.865 135.25 235.75 135.504 236.651 135.491C237.552 135.478 238.43 135.198 239.172 134.687C239.914 134.176 240.488 133.456 240.822 132.619C241.155 131.782 241.233 130.864 241.046 129.983C240.858 129.101 240.414 128.295 239.768 127.666C239.123 127.037 238.305 126.613 237.419 126.448C236.533 126.284 235.618 126.385 234.79 126.74C234.237 126.975 233.737 127.318 233.317 127.747C232.898 128.177 232.568 128.685 232.345 129.243C232.123 129.8 232.014 130.397 232.023 130.997C232.032 131.597 232.16 132.19 232.4 132.74Z" fill="white"/>
<path d="M186.9 156.67C187.043 156.999 187.282 157.279 187.584 157.473C187.886 157.668 188.24 157.768 188.599 157.762C188.959 157.756 189.308 157.643 189.604 157.438C189.899 157.234 190.128 156.946 190.26 156.612C190.392 156.278 190.423 155.912 190.347 155.56C190.272 155.209 190.094 154.887 189.836 154.637C189.578 154.386 189.252 154.218 188.898 154.152C188.545 154.087 188.18 154.128 187.85 154.27C187.406 154.463 187.057 154.824 186.879 155.274C186.701 155.723 186.709 156.225 186.9 156.67Z" fill="white"/>
<path d="M242.69 132.76C242.828 133.091 243.061 133.374 243.36 133.573C243.659 133.772 244.01 133.878 244.369 133.878C244.727 133.878 245.078 133.772 245.377 133.573C245.676 133.375 245.909 133.092 246.048 132.761C246.187 132.43 246.224 132.065 246.156 131.713C246.088 131.36 245.917 131.036 245.665 130.78C245.413 130.525 245.091 130.349 244.739 130.276C244.388 130.203 244.023 130.236 243.69 130.37C243.465 130.459 243.261 130.592 243.088 130.761C242.916 130.93 242.779 131.131 242.686 131.354C242.593 131.577 242.545 131.816 242.546 132.057C242.547 132.299 242.595 132.538 242.69 132.76Z" fill="white"/>
<path d="M236.88 166.87C236.33 167.22 235.78 167.58 235.21 167.87C234.64 168.16 234.01 168.44 233.38 168.67C232.093 169.12 230.743 169.36 229.38 169.38C227.978 169.361 226.594 169.061 225.31 168.5C223.988 167.92 222.816 167.049 221.88 165.95L223.51 165.25C223.655 166.688 223.477 168.14 222.99 169.5C222.51 170.816 221.772 172.023 220.82 173.05C219.869 174.024 218.764 174.835 217.55 175.45C216.95 175.738 216.336 175.995 215.71 176.22C215.07 176.41 214.43 176.57 213.8 176.72C214.37 176.38 214.94 176.07 215.5 175.72C216.06 175.37 216.58 175.05 217.08 174.65C218.07 173.914 218.96 173.054 219.73 172.09C220.451 171.136 220.999 170.063 221.35 168.92C221.523 168.356 221.644 167.777 221.71 167.19C221.775 166.632 221.775 166.068 221.71 165.51C221.687 165.275 221.755 165.04 221.9 164.854C222.045 164.668 222.256 164.545 222.49 164.51C222.649 164.49 222.81 164.51 222.959 164.57C223.108 164.629 223.239 164.726 223.34 164.85C223.703 165.279 224.109 165.671 224.55 166.02C225.024 166.366 225.526 166.674 226.05 166.94C227.121 167.466 228.274 167.804 229.46 167.94C230.691 168.051 231.932 167.997 233.15 167.78C233.78 167.7 234.39 167.5 235.02 167.38C235.65 167.26 236.25 167.05 236.88 166.87Z" fill="#263238"/>
<path d="M222.61 166.35C222.432 166.348 222.259 166.295 222.11 166.198C221.961 166.1 221.843 165.962 221.77 165.8L219 159.29C218.907 159.068 218.905 158.819 218.995 158.596C219.085 158.373 219.259 158.195 219.48 158.1C219.59 158.051 219.709 158.024 219.83 158.022C219.95 158.019 220.07 158.041 220.182 158.086C220.294 158.131 220.396 158.197 220.481 158.282C220.567 158.367 220.634 158.468 220.68 158.58L223.47 165.08C223.53 165.219 223.554 165.37 223.541 165.521C223.527 165.671 223.477 165.816 223.393 165.942C223.31 166.068 223.197 166.171 223.063 166.242C222.93 166.314 222.781 166.351 222.63 166.35H222.61Z" fill="#263238"/>
<path d="M131.72 180.23C123.61 184.04 117.72 192.14 116.25 201.73C123.41 192.99 131.76 195.56 131.76 195.56L131.72 180.23Z" fill="#6C63FF"/>
<path d="M132.55 203.86C131.135 207.081 130.527 210.6 130.779 214.11C131.032 217.619 132.138 221.014 134 224C133.92 215.4 140.06 212.84 140.06 212.84L132.55 203.86Z" fill="#6C63FF"/>
<path d="M132.08 190.66C123.91 196.76 119.23 207.13 119.72 218.17C125.72 206.78 135.62 207.75 135.62 207.75L132.08 190.66Z" fill="#6C63FF"/>
<path d="M296 109.84C304.35 106.6 314.25 107.96 322.24 113.47C310.97 112.63 307.07 120.47 307.07 120.47L296 109.84Z" fill="#6C63FF"/>
<path d="M309.86 126.34C316.59 125.25 323.93 126.1 328.43 130.48C322.906 130.477 317.558 132.425 313.33 135.98L309.86 126.34Z" fill="#6C63FF"/>
<path d="M307.61 125.36C313.72 128.36 319.18 133.36 320.28 139.55C315.794 136.321 310.31 134.784 304.8 135.21L307.61 125.36Z" fill="#6C63FF"/>
<path d="M303.32 117.3C313.37 115.59 324.1 119.36 331.76 127.3C319.38 123.79 313.25 131.62 313.25 131.62L303.32 117.3Z" fill="#6C63FF"/>
<path d="M190 107.53C189.62 101.87 192.35 97.0002 199.11 91.9702C197.69 100.05 203.54 102.07 203.54 102.07L190 107.53Z" fill="#6C63FF"/>
<path d="M197.38 104.38C198.72 97.8 205.46 91.38 215.27 87.25C208.27 94.79 213.91 99.47 213.91 99.47L197.38 104.38Z" fill="#6C63FF"/>
<path d="M141.59 222.55C141.501 222.547 141.415 222.519 141.34 222.47C141.291 222.437 141.248 222.394 141.215 222.344C141.182 222.295 141.16 222.239 141.149 222.18C141.137 222.122 141.138 222.061 141.15 222.003C141.163 221.945 141.187 221.889 141.22 221.84C167.73 182.22 215.97 166.59 216.45 166.44C216.567 166.405 216.693 166.417 216.801 166.473C216.909 166.529 216.992 166.625 217.03 166.74C217.065 166.855 217.053 166.98 216.997 167.086C216.941 167.193 216.845 167.273 216.73 167.31C216.25 167.46 168.31 183 141.97 222.31C141.935 222.381 141.881 222.441 141.814 222.484C141.747 222.526 141.67 222.549 141.59 222.55Z" fill="#263238"/>
<path d="M148.89 247.51C148.84 247.519 148.789 247.519 148.74 247.51C148.625 247.471 148.53 247.388 148.475 247.28C148.421 247.171 148.412 247.045 148.45 246.93C166.75 193.48 214.65 170.32 215.13 170.1C215.237 170.048 215.361 170.042 215.473 170.081C215.586 170.12 215.678 170.203 215.73 170.31C215.757 170.364 215.773 170.422 215.777 170.482C215.781 170.542 215.773 170.602 215.754 170.659C215.734 170.716 215.703 170.769 215.663 170.813C215.623 170.858 215.574 170.894 215.52 170.92C215.04 171.15 167.52 194.15 149.32 247.23C149.283 247.313 149.223 247.384 149.146 247.434C149.07 247.484 148.981 247.51 148.89 247.51Z" fill="#263238"/>
<path d="M227.8 162.53C227.72 162.532 227.641 162.511 227.572 162.47C227.503 162.43 227.447 162.371 227.41 162.3C227.378 162.249 227.356 162.193 227.347 162.133C227.338 162.074 227.341 162.014 227.356 161.955C227.371 161.897 227.397 161.843 227.434 161.796C227.471 161.748 227.517 161.709 227.57 161.68C228.01 161.42 272.08 136.35 319.22 143.49C319.279 143.497 319.335 143.516 319.387 143.546C319.438 143.576 319.483 143.616 319.519 143.664C319.554 143.711 319.58 143.766 319.593 143.824C319.607 143.881 319.609 143.941 319.6 144C319.578 144.118 319.512 144.224 319.416 144.296C319.319 144.369 319.199 144.402 319.08 144.39C272.27 137.29 228.47 162.21 228.08 162.47C227.995 162.519 227.897 162.54 227.8 162.53Z" fill="#263238"/>
<path d="M322.38 165.89C322.334 165.9 322.286 165.9 322.24 165.89C266.44 147.89 231.83 163.89 231.48 164.07C231.371 164.122 231.246 164.128 231.133 164.088C231.02 164.048 230.927 163.964 230.875 163.855C230.823 163.746 230.817 163.622 230.857 163.508C230.898 163.395 230.981 163.302 231.09 163.25C231.43 163.08 266.34 146.89 322.52 165.02C322.634 165.061 322.727 165.144 322.781 165.252C322.835 165.36 322.845 165.485 322.81 165.6C322.777 165.687 322.718 165.761 322.641 165.813C322.564 165.865 322.473 165.892 322.38 165.89Z" fill="#263238"/>
<path d="M219.154 410.259C227.774 400.951 227.215 386.418 217.907 377.799C208.599 369.179 194.066 369.738 185.447 379.046C176.827 388.354 177.386 402.887 186.694 411.506C196.002 420.126 210.535 419.567 219.154 410.259Z" fill="#6C63FF"/>
<path d="M266.75 418.62C255.37 418.62 251.35 414.31 247.47 410.15C246.185 408.697 244.777 407.358 243.26 406.15C237.44 401.71 228.26 399.68 223.63 401.81C223.414 401.846 223.192 401.81 222.999 401.708C222.805 401.605 222.65 401.442 222.558 401.243C222.466 401.045 222.442 400.821 222.489 400.607C222.537 400.394 222.653 400.201 222.82 400.06C228.12 397.63 238.01 399.72 244.43 404.61C246.035 405.897 247.527 407.319 248.89 408.86C252.65 412.91 256.21 416.73 266.75 416.73C269.322 416.798 271.865 416.168 274.108 414.907C276.351 413.647 278.211 411.802 279.49 409.57C280.546 407.818 281.117 405.816 281.144 403.77C281.17 401.724 280.651 399.709 279.64 397.93C277.25 394.08 272.33 392.12 265.77 392.43C265.624 392.476 265.469 392.489 265.318 392.466C265.166 392.443 265.022 392.385 264.896 392.298C264.77 392.21 264.666 392.095 264.592 391.96C264.518 391.826 264.475 391.677 264.468 391.523C264.461 391.37 264.489 391.217 264.551 391.077C264.612 390.936 264.705 390.812 264.822 390.713C264.939 390.614 265.077 390.543 265.226 390.506C265.375 390.469 265.53 390.467 265.68 390.5C272.97 390.17 278.51 392.44 281.28 396.91C282.471 398.982 283.089 401.334 283.071 403.723C283.053 406.113 282.401 408.455 281.18 410.51C279.73 413.038 277.624 415.126 275.083 416.554C272.543 417.982 269.663 418.696 266.75 418.62Z" fill="#6C63FF"/>
<path d="M212 412.2C199.897 412.077 188.232 407.653 179.09 399.72C178.972 399.536 178.917 399.319 178.934 399.101C178.95 398.883 179.038 398.677 179.183 398.514C179.328 398.351 179.523 398.239 179.737 398.197C179.952 398.155 180.174 398.184 180.37 398.28C188.37 405.42 202.65 412.18 218.58 409.78C218.721 409.718 218.873 409.69 219.027 409.697C219.18 409.704 219.329 409.746 219.464 409.82C219.598 409.894 219.714 409.998 219.801 410.124C219.889 410.25 219.947 410.394 219.97 410.546C219.993 410.698 219.98 410.853 219.934 410.999C219.888 411.145 219.808 411.278 219.702 411.389C219.596 411.5 219.465 411.584 219.321 411.636C219.177 411.689 219.023 411.707 218.87 411.69C216.596 412.03 214.3 412.201 212 412.2Z" fill="#6C63FF"/>
<path d="M209.48 415.06C197.69 415.06 187.62 410.42 178.83 400.96C178.659 400.775 178.563 400.532 178.563 400.28C178.563 400.028 178.659 399.785 178.83 399.6C179.016 399.426 179.261 399.329 179.515 399.329C179.77 399.329 180.015 399.426 180.2 399.6C189.93 410.08 201.3 414.37 214.95 412.75C215.093 412.69 215.247 412.664 215.402 412.674C215.556 412.685 215.706 412.73 215.84 412.808C215.973 412.886 216.087 412.994 216.172 413.123C216.257 413.252 216.311 413.399 216.33 413.553C216.348 413.706 216.331 413.862 216.279 414.008C216.227 414.154 216.142 414.285 216.031 414.393C215.919 414.5 215.784 414.58 215.637 414.626C215.489 414.673 215.333 414.684 215.18 414.66C213.29 414.908 211.387 415.042 209.48 415.06Z" fill="#6C63FF"/>
<path d="M192.06 416.22C191.811 416.221 191.571 416.13 191.386 415.963C191.201 415.797 191.085 415.567 191.06 415.32C190.22 404.04 194.11 386.08 204.67 371.39C204.84 371.252 205.05 371.173 205.269 371.166C205.488 371.159 205.703 371.224 205.882 371.351C206.06 371.479 206.192 371.661 206.256 371.87C206.321 372.079 206.315 372.304 206.24 372.51C196 386.82 192.21 404.25 193 415.18C193.001 415.427 192.911 415.666 192.747 415.851C192.582 416.035 192.356 416.153 192.11 416.18L192.06 416.22Z" fill="#6C63FF"/>
<path d="M182.47 407.27C182.286 407.269 182.106 407.217 181.95 407.12C181.741 406.977 181.594 406.761 181.538 406.514C181.483 406.267 181.522 406.009 181.65 405.79C185.01 400.48 197.49 382.67 217.05 376.42C217.293 376.352 217.552 376.378 217.777 376.493C218.001 376.608 218.174 376.803 218.26 377.04C218.328 377.283 218.302 377.542 218.187 377.767C218.072 377.991 217.877 378.164 217.64 378.25C198.7 384.31 186.55 401.65 183.28 406.82C183.191 406.955 183.071 407.066 182.93 407.145C182.789 407.223 182.631 407.266 182.47 407.27Z" fill="#6C63FF"/>
<path d="M182.47 407.27C182.347 407.271 182.224 407.247 182.11 407.2C181.879 407.098 181.695 406.913 181.595 406.681C181.495 406.449 181.486 406.188 181.57 405.95C184.528 398.679 189.001 392.121 194.691 386.714C200.381 381.306 207.158 377.173 214.57 374.59C214.789 374.574 215.007 374.631 215.19 374.751C215.374 374.872 215.512 375.049 215.585 375.256C215.658 375.463 215.66 375.688 215.593 375.896C215.525 376.105 215.391 376.285 215.21 376.41C208.051 378.899 201.505 382.885 196.008 388.103C190.511 393.321 186.189 399.65 183.33 406.67C183.257 406.84 183.137 406.986 182.985 407.092C182.833 407.198 182.655 407.259 182.47 407.27Z" fill="#6C63FF"/>
<path d="M189.21 414.54C188.967 414.542 188.732 414.456 188.548 414.298C188.364 414.14 188.244 413.92 188.21 413.68C185.79 392.84 192.63 380.92 200.39 371.15C200.553 370.958 200.783 370.835 201.033 370.805C201.284 370.776 201.536 370.842 201.74 370.99C201.934 371.154 202.059 371.386 202.089 371.638C202.119 371.891 202.051 372.145 201.9 372.35C194.4 381.8 187.79 393.35 190.13 413.46C190.15 413.713 190.074 413.964 189.916 414.163C189.758 414.361 189.531 414.493 189.28 414.53L189.21 414.54Z" fill="#6C63FF"/>
<path d="M186.53 412.36C186.321 412.355 186.119 412.285 185.952 412.159C185.786 412.034 185.662 411.859 185.6 411.66C182.6 400.61 184.83 383.33 197.07 371.48C197.255 371.309 197.498 371.213 197.75 371.213C198.002 371.213 198.245 371.309 198.43 371.48C198.604 371.666 198.701 371.911 198.701 372.165C198.701 372.42 198.604 372.665 198.43 372.85C187.28 383.64 184.48 400.27 187.48 411.12C187.54 411.366 187.504 411.626 187.38 411.847C187.255 412.068 187.052 412.234 186.81 412.31L186.53 412.36Z" fill="#6C63FF"/>
<path d="M225 398.86C224.8 398.858 224.604 398.795 224.44 398.68C210.14 388.39 192.7 384.6 181.77 385.42C181.553 385.38 181.355 385.269 181.207 385.104C181.059 384.939 180.971 384.73 180.955 384.509C180.939 384.289 180.996 384.069 181.119 383.885C181.241 383.7 181.421 383.561 181.63 383.49C192.91 382.66 210.87 386.54 225.57 397.11C225.718 397.239 225.825 397.409 225.877 397.598C225.929 397.787 225.925 397.987 225.864 398.174C225.803 398.36 225.689 398.525 225.535 398.647C225.382 398.769 225.196 398.843 225 398.86Z" fill="#6C63FF"/>
<path d="M225.2 396.19C225.065 396.193 224.932 396.166 224.81 396.11C211.99 390.42 192.59 389.67 179.69 394.35C179.564 394.44 179.42 394.499 179.268 394.524C179.115 394.549 178.959 394.538 178.812 394.492C178.665 394.447 178.53 394.368 178.418 394.261C178.306 394.155 178.221 394.024 178.168 393.88C178.115 393.735 178.096 393.579 178.114 393.426C178.131 393.273 178.183 393.126 178.266 392.996C178.35 392.866 178.462 392.758 178.595 392.678C178.727 392.599 178.876 392.552 179.03 392.54C192.35 387.7 212.36 388.48 225.59 394.35C225.817 394.461 225.993 394.653 226.084 394.889C226.175 395.124 226.173 395.386 226.08 395.62C226 395.787 225.876 395.929 225.72 396.03C225.565 396.13 225.385 396.186 225.2 396.19Z" fill="#6C63FF"/>
<path d="M225.16 393.49C225.027 393.488 224.896 393.46 224.774 393.406C224.652 393.353 224.542 393.276 224.45 393.18C214.94 382.84 202.62 379.18 184.45 381.27C184.307 381.33 184.153 381.355 183.998 381.345C183.844 381.335 183.694 381.29 183.56 381.212C183.427 381.134 183.313 381.026 183.228 380.897C183.143 380.768 183.089 380.621 183.071 380.467C183.052 380.313 183.07 380.158 183.121 380.012C183.173 379.866 183.258 379.735 183.37 379.627C183.481 379.52 183.616 379.44 183.763 379.394C183.911 379.347 184.067 379.336 184.22 379.36C202.78 377.2 216 381.18 225.83 391.88C225.941 392.022 226.011 392.192 226.033 392.371C226.055 392.55 226.028 392.731 225.955 392.896C225.882 393.061 225.766 393.204 225.619 393.308C225.472 393.413 225.3 393.475 225.12 393.49H225.16Z" fill="#6C63FF"/>
<path d="M224.44 389.57C224.184 389.564 223.941 389.46 223.76 389.28C211.87 377.42 195.1 375.71 187.51 378.28C187.29 378.295 187.072 378.236 186.889 378.114C186.705 377.991 186.568 377.812 186.497 377.603C186.427 377.395 186.427 377.168 186.498 376.96C186.569 376.752 186.707 376.572 186.89 376.45C194.94 373.72 212.66 375.45 225.12 387.91C225.291 388.095 225.387 388.338 225.387 388.59C225.387 388.842 225.291 389.085 225.12 389.27C224.94 389.454 224.697 389.561 224.44 389.57Z" fill="#6C63FF"/>
<path d="M220 410.31C219.911 410.325 219.819 410.325 219.73 410.31C196.73 403.5 179.82 388.04 179.66 387.88C179.545 387.695 179.494 387.477 179.514 387.26C179.534 387.043 179.625 386.839 179.772 386.678C179.919 386.517 180.115 386.409 180.329 386.369C180.544 386.33 180.765 386.362 180.96 386.46C181.13 386.62 197.73 401.78 220.28 408.46C220.473 408.552 220.63 408.704 220.731 408.893C220.831 409.081 220.868 409.297 220.837 409.508C220.805 409.72 220.707 409.915 220.557 410.067C220.406 410.218 220.211 410.318 220 410.35V410.31Z" fill="#6C63FF"/>
<path d="M220.46 409.72C220.329 409.719 220.2 409.691 220.08 409.64C206.163 403.426 192.83 395.98 180.24 387.39C180.094 387.339 179.962 387.255 179.854 387.144C179.746 387.033 179.665 386.898 179.618 386.751C179.571 386.603 179.558 386.447 179.582 386.294C179.606 386.141 179.664 385.995 179.754 385.869C179.843 385.743 179.961 385.639 180.097 385.565C180.233 385.492 180.385 385.451 180.54 385.447C180.694 385.442 180.848 385.473 180.989 385.538C181.129 385.603 181.253 385.699 181.35 385.82C193.829 394.333 207.045 401.713 220.84 407.87C221.018 407.976 221.159 408.136 221.243 408.326C221.326 408.516 221.349 408.727 221.307 408.93C221.265 409.133 221.162 409.319 221.01 409.46C220.858 409.602 220.666 409.693 220.46 409.72Z" fill="#6C63FF"/>
<path d="M221.31 408.53C221.153 408.533 220.998 408.495 220.86 408.42C201.19 397.84 180.57 387.57 180.37 387.47C180.206 387.325 180.095 387.13 180.053 386.915C180.011 386.701 180.04 386.478 180.137 386.282C180.233 386.085 180.391 385.926 180.587 385.828C180.783 385.73 181.005 385.699 181.22 385.74C181.43 385.84 202.08 396.13 221.77 406.74C221.935 406.857 222.061 407.021 222.131 407.211C222.201 407.4 222.212 407.607 222.162 407.803C222.112 407.999 222.004 408.176 221.852 408.309C221.7 408.442 221.511 408.526 221.31 408.55V408.53Z" fill="#6C63FF"/>
<path d="M222 407.47C221.786 407.474 221.577 407.403 221.41 407.27C203.55 393.27 181.1 386.77 180.87 386.71C180.68 386.597 180.533 386.425 180.451 386.22C180.369 386.014 180.358 385.788 180.418 385.576C180.479 385.363 180.608 385.177 180.785 385.045C180.963 384.914 181.179 384.845 181.4 384.85C181.63 384.92 204.4 391.5 222.6 405.75C222.792 405.913 222.915 406.143 222.945 406.393C222.974 406.644 222.908 406.896 222.76 407.1C222.671 407.217 222.556 407.311 222.424 407.375C222.292 407.439 222.147 407.472 222 407.47Z" fill="#6C63FF"/>
<path d="M223.84 403.59C223.619 403.589 223.405 403.515 223.23 403.38C206.87 389.94 181.23 386.77 181.01 386.74C180.805 386.658 180.633 386.512 180.52 386.322C180.407 386.132 180.36 385.91 180.386 385.691C180.412 385.472 180.51 385.268 180.665 385.11C180.819 384.952 181.022 384.85 181.24 384.82C181.5 384.82 207.65 388.09 224.46 401.89C224.648 402.057 224.765 402.289 224.789 402.539C224.813 402.79 224.742 403.04 224.59 403.24C224.498 403.348 224.383 403.436 224.253 403.496C224.124 403.556 223.983 403.588 223.84 403.59Z" fill="#6C63FF"/>
<path d="M193.69 417C193.497 416.98 193.315 416.904 193.165 416.782C193.015 416.659 192.903 416.496 192.844 416.312C192.785 416.128 192.78 415.931 192.831 415.744C192.882 415.557 192.985 415.389 193.13 415.26C211.36 402.07 221.77 383.77 221.87 383.59C221.907 383.441 221.979 383.303 222.079 383.186C222.179 383.07 222.305 382.978 222.446 382.917C222.587 382.857 222.741 382.83 222.894 382.838C223.048 382.847 223.197 382.891 223.331 382.966C223.465 383.042 223.579 383.148 223.666 383.275C223.752 383.402 223.808 383.547 223.829 383.699C223.85 383.852 223.836 384.007 223.788 384.152C223.739 384.298 223.658 384.431 223.55 384.54C223.45 384.72 212.83 403.39 194.26 416.82C194.092 416.937 193.893 417 193.69 417Z" fill="#6C63FF"/>
<path d="M212 412.2C199.897 412.077 188.232 407.653 179.09 399.72C178.972 399.536 178.917 399.319 178.934 399.101C178.95 398.883 179.038 398.677 179.183 398.514C179.328 398.351 179.523 398.239 179.737 398.197C179.952 398.155 180.174 398.184 180.37 398.28C188.37 405.42 202.65 412.18 218.58 409.78C218.721 409.718 218.873 409.69 219.027 409.697C219.18 409.704 219.329 409.746 219.464 409.82C219.598 409.894 219.714 409.998 219.801 410.124C219.889 410.25 219.947 410.394 219.97 410.546C219.993 410.698 219.98 410.853 219.934 410.999C219.888 411.145 219.808 411.278 219.702 411.389C219.596 411.5 219.465 411.584 219.321 411.636C219.177 411.689 219.023 411.707 218.87 411.69C216.596 412.03 214.3 412.201 212 412.2Z" fill="black"/>
<path d="M209.48 415.06C197.69 415.06 187.62 410.42 178.83 400.96C178.659 400.775 178.563 400.532 178.563 400.28C178.563 400.028 178.659 399.785 178.83 399.6C179.016 399.426 179.261 399.329 179.515 399.329C179.77 399.329 180.015 399.426 180.2 399.6C189.93 410.08 201.3 414.37 214.95 412.75C215.093 412.69 215.247 412.664 215.402 412.674C215.556 412.685 215.706 412.73 215.84 412.808C215.973 412.886 216.087 412.994 216.172 413.123C216.257 413.252 216.311 413.399 216.33 413.553C216.348 413.706 216.331 413.862 216.279 414.008C216.227 414.154 216.142 414.285 216.031 414.393C215.919 414.5 215.784 414.58 215.637 414.626C215.489 414.673 215.333 414.684 215.18 414.66C213.29 414.908 211.387 415.042 209.48 415.06Z" fill="black"/>
<path d="M192.06 416.22C191.811 416.221 191.571 416.13 191.386 415.963C191.201 415.797 191.085 415.567 191.06 415.32C190.22 404.04 194.11 386.08 204.67 371.39C204.84 371.252 205.05 371.173 205.269 371.166C205.488 371.159 205.703 371.224 205.882 371.351C206.06 371.479 206.192 371.661 206.256 371.87C206.321 372.079 206.315 372.304 206.24 372.51C196 386.82 192.21 404.25 193 415.18C193.001 415.427 192.911 415.666 192.747 415.851C192.582 416.035 192.356 416.153 192.11 416.18L192.06 416.22Z" fill="black"/>
<path d="M182.47 407.27C182.286 407.269 182.106 407.217 181.95 407.12C181.741 406.977 181.594 406.761 181.538 406.514C181.483 406.267 181.522 406.009 181.65 405.79C185.01 400.48 197.49 382.67 217.05 376.42C217.293 376.352 217.552 376.378 217.777 376.493C218.001 376.608 218.174 376.803 218.26 377.04C218.328 377.283 218.302 377.542 218.187 377.767C218.072 377.991 217.877 378.164 217.64 378.25C198.7 384.31 186.55 401.65 183.28 406.82C183.191 406.955 183.071 407.066 182.93 407.145C182.789 407.223 182.631 407.266 182.47 407.27Z" fill="black"/>
<path d="M182.47 407.27C182.347 407.271 182.224 407.247 182.11 407.2C181.879 407.098 181.695 406.913 181.595 406.681C181.495 406.449 181.486 406.188 181.57 405.95C184.528 398.679 189.001 392.121 194.691 386.714C200.381 381.306 207.158 377.173 214.57 374.59C214.789 374.574 215.007 374.631 215.19 374.751C215.374 374.872 215.512 375.049 215.585 375.256C215.658 375.463 215.66 375.688 215.593 375.896C215.525 376.105 215.391 376.285 215.21 376.41C208.051 378.899 201.505 382.885 196.008 388.103C190.511 393.321 186.189 399.65 183.33 406.67C183.257 406.84 183.137 406.986 182.985 407.092C182.833 407.198 182.655 407.259 182.47 407.27Z" fill="black"/>
<path d="M189.21 414.54C188.967 414.542 188.732 414.456 188.548 414.298C188.364 414.14 188.244 413.92 188.21 413.68C185.79 392.84 192.63 380.92 200.39 371.15C200.553 370.958 200.783 370.835 201.033 370.805C201.284 370.776 201.536 370.842 201.74 370.99C201.934 371.154 202.059 371.386 202.089 371.638C202.119 371.891 202.051 372.145 201.9 372.35C194.4 381.8 187.79 393.35 190.13 413.46C190.15 413.713 190.074 413.964 189.916 414.163C189.758 414.361 189.531 414.493 189.28 414.53L189.21 414.54Z" fill="black"/>
<path d="M186.53 412.36C186.321 412.355 186.119 412.285 185.952 412.159C185.786 412.034 185.662 411.859 185.6 411.66C182.6 400.61 184.83 383.33 197.07 371.48C197.255 371.309 197.498 371.213 197.75 371.213C198.002 371.213 198.245 371.309 198.43 371.48C198.604 371.666 198.701 371.911 198.701 372.165C198.701 372.42 198.604 372.665 198.43 372.85C187.28 383.64 184.48 400.27 187.48 411.12C187.54 411.366 187.504 411.626 187.38 411.847C187.255 412.068 187.052 412.234 186.81 412.31L186.53 412.36Z" fill="black"/>
<path d="M225 398.86C224.8 398.858 224.604 398.795 224.44 398.68C210.14 388.39 192.7 384.6 181.77 385.42C181.553 385.38 181.355 385.269 181.207 385.104C181.059 384.939 180.971 384.73 180.955 384.509C180.939 384.289 180.996 384.069 181.119 383.885C181.241 383.7 181.421 383.561 181.63 383.49C192.91 382.66 210.87 386.54 225.57 397.11C225.718 397.239 225.825 397.409 225.877 397.598C225.929 397.787 225.925 397.987 225.864 398.174C225.803 398.36 225.689 398.525 225.535 398.647C225.382 398.769 225.196 398.843 225 398.86Z" fill="black"/>
<path d="M225.2 396.19C225.065 396.193 224.932 396.166 224.81 396.11C211.99 390.42 192.59 389.67 179.69 394.35C179.564 394.44 179.42 394.499 179.268 394.524C179.115 394.549 178.959 394.538 178.812 394.492C178.665 394.447 178.53 394.368 178.418 394.261C178.306 394.155 178.221 394.024 178.168 393.88C178.115 393.735 178.096 393.579 178.114 393.426C178.131 393.273 178.183 393.126 178.266 392.996C178.35 392.866 178.462 392.758 178.595 392.678C178.727 392.599 178.876 392.552 179.03 392.54C192.35 387.7 212.36 388.48 225.59 394.35C225.817 394.461 225.993 394.653 226.084 394.889C226.175 395.124 226.173 395.386 226.08 395.62C226 395.787 225.876 395.929 225.72 396.03C225.565 396.13 225.385 396.186 225.2 396.19Z" fill="black"/>
<path d="M225.16 393.49C225.027 393.488 224.896 393.46 224.774 393.406C224.652 393.353 224.542 393.276 224.45 393.18C214.94 382.84 202.62 379.18 184.45 381.27C184.307 381.33 184.153 381.355 183.998 381.345C183.844 381.335 183.694 381.29 183.56 381.212C183.427 381.134 183.313 381.026 183.228 380.897C183.143 380.768 183.089 380.621 183.071 380.467C183.052 380.313 183.07 380.158 183.121 380.012C183.173 379.866 183.258 379.735 183.37 379.627C183.481 379.52 183.616 379.44 183.763 379.394C183.911 379.347 184.067 379.336 184.22 379.36C202.78 377.2 216 381.18 225.83 391.88C225.941 392.022 226.011 392.192 226.033 392.371C226.055 392.55 226.028 392.731 225.955 392.896C225.882 393.061 225.766 393.204 225.619 393.308C225.472 393.413 225.3 393.475 225.12 393.49H225.16Z" fill="black"/>
<path d="M224.44 389.57C224.184 389.564 223.941 389.46 223.76 389.28C211.87 377.42 195.1 375.71 187.51 378.28C187.29 378.295 187.072 378.236 186.889 378.114C186.705 377.991 186.568 377.812 186.497 377.603C186.427 377.395 186.427 377.168 186.498 376.96C186.569 376.752 186.707 376.572 186.89 376.45C194.94 373.72 212.66 375.45 225.12 387.91C225.291 388.095 225.387 388.338 225.387 388.59C225.387 388.842 225.291 389.085 225.12 389.27C224.94 389.454 224.697 389.561 224.44 389.57Z" fill="black"/>
<path d="M220 410.31C219.911 410.325 219.819 410.325 219.73 410.31C196.73 403.5 179.82 388.04 179.66 387.88C179.545 387.695 179.494 387.477 179.514 387.26C179.534 387.043 179.625 386.839 179.772 386.678C179.919 386.517 180.115 386.409 180.329 386.369C180.544 386.33 180.765 386.362 180.96 386.46C181.13 386.62 197.73 401.78 220.28 408.46C220.473 408.552 220.63 408.704 220.731 408.893C220.831 409.081 220.868 409.297 220.837 409.508C220.805 409.72 220.707 409.915 220.557 410.067C220.406 410.218 220.211 410.318 220 410.35V410.31Z" fill="black"/>
<path d="M220.46 409.72C220.329 409.719 220.2 409.691 220.08 409.64C206.163 403.426 192.83 395.98 180.24 387.39C180.094 387.339 179.962 387.255 179.854 387.144C179.746 387.033 179.665 386.898 179.618 386.751C179.571 386.603 179.558 386.447 179.582 386.294C179.606 386.141 179.664 385.995 179.754 385.869C179.843 385.743 179.961 385.639 180.097 385.565C180.233 385.492 180.385 385.451 180.54 385.447C180.694 385.442 180.848 385.473 180.989 385.538C181.129 385.603 181.253 385.699 181.35 385.82C193.829 394.333 207.045 401.713 220.84 407.87C221.018 407.976 221.159 408.136 221.243 408.326C221.326 408.516 221.349 408.727 221.307 408.93C221.265 409.133 221.162 409.319 221.01 409.46C220.858 409.602 220.666 409.693 220.46 409.72Z" fill="black"/>
<path d="M221.31 408.53C221.153 408.533 220.998 408.495 220.86 408.42C201.19 397.84 180.57 387.57 180.37 387.47C180.206 387.325 180.095 387.13 180.053 386.915C180.011 386.701 180.04 386.478 180.137 386.282C180.233 386.085 180.391 385.926 180.587 385.828C180.783 385.73 181.005 385.699 181.22 385.74C181.43 385.84 202.08 396.13 221.77 406.74C221.935 406.857 222.061 407.021 222.131 407.211C222.201 407.4 222.212 407.607 222.162 407.803C222.112 407.999 222.004 408.176 221.852 408.309C221.7 408.442 221.511 408.526 221.31 408.55V408.53Z" fill="black"/>
<path d="M222 407.47C221.786 407.474 221.577 407.403 221.41 407.27C203.55 393.27 181.1 386.77 180.87 386.71C180.68 386.597 180.533 386.425 180.451 386.22C180.369 386.014 180.358 385.788 180.418 385.576C180.479 385.363 180.608 385.177 180.785 385.045C180.963 384.914 181.179 384.845 181.4 384.85C181.63 384.92 204.4 391.5 222.6 405.75C222.792 405.913 222.915 406.143 222.945 406.393C222.974 406.644 222.908 406.896 222.76 407.1C222.671 407.217 222.556 407.311 222.424 407.375C222.292 407.439 222.147 407.472 222 407.47Z" fill="black"/>
<path d="M223.84 403.59C223.619 403.589 223.405 403.515 223.23 403.38C206.87 389.94 181.23 386.77 181.01 386.74C180.805 386.658 180.633 386.512 180.52 386.322C180.407 386.132 180.36 385.91 180.386 385.691C180.412 385.472 180.51 385.268 180.665 385.11C180.819 384.952 181.022 384.85 181.24 384.82C181.5 384.82 207.65 388.09 224.46 401.89C224.648 402.057 224.765 402.289 224.789 402.539C224.813 402.79 224.742 403.04 224.59 403.24C224.498 403.348 224.383 403.436 224.253 403.496C224.124 403.556 223.983 403.588 223.84 403.59Z" fill="black"/>
<path d="M193.69 417C193.497 416.98 193.315 416.904 193.165 416.782C193.015 416.659 192.903 416.496 192.844 416.312C192.785 416.128 192.78 415.931 192.831 415.744C192.882 415.557 192.985 415.389 193.13 415.26C211.36 402.07 221.77 383.77 221.87 383.59C221.907 383.441 221.979 383.303 222.079 383.186C222.179 383.07 222.305 382.978 222.446 382.917C222.587 382.857 222.741 382.83 222.894 382.838C223.048 382.847 223.197 382.891 223.331 382.966C223.465 383.042 223.579 383.148 223.666 383.275C223.752 383.402 223.808 383.547 223.829 383.699C223.85 383.852 223.836 384.007 223.788 384.152C223.739 384.298 223.658 384.431 223.55 384.54C223.45 384.72 212.83 403.39 194.26 416.82C194.092 416.937 193.893 417 193.69 417Z" fill="black"/>
</svg>
