<svg width="500" height="500" viewBox="0 0 500 500" fill="none" xmlns="http://www.w3.org/2000/svg">
<path d="M443.92 330.2H263.17C261.616 330.198 260.127 329.579 259.029 328.481C257.93 327.383 257.312 325.894 257.31 324.34V61.0602C257.312 59.5068 257.93 58.0179 259.029 56.9195C260.127 55.8211 261.616 55.2028 263.17 55.2002H443.92C445.473 55.2028 446.962 55.8211 448.06 56.9195C449.159 58.0179 449.777 59.5068 449.78 61.0602V324.34C449.777 325.894 449.159 327.383 448.06 328.481C446.962 329.579 445.473 330.198 443.92 330.2ZM263.17 55.4502C261.683 55.4528 260.257 56.0447 259.206 57.0962C258.154 58.1478 257.562 59.5731 257.56 61.0602V324.34C257.562 325.827 258.154 327.253 259.206 328.304C260.257 329.356 261.683 329.948 263.17 329.95H443.92C445.407 329.95 446.834 329.359 447.886 328.307C448.939 327.255 449.53 325.828 449.53 324.34V61.0602C449.53 59.5723 448.939 58.1454 447.886 57.0933C446.834 56.0412 445.407 55.4502 443.92 55.4502H263.17Z" fill="#E0E0E0"/>
<path d="M235.49 330.2H54.7499C53.1948 330.2 51.7032 329.583 50.6027 328.484C49.5021 327.386 48.8825 325.895 48.8799 324.34V61.0602C48.8825 59.5051 49.5021 58.0146 50.6027 56.9159C51.7032 55.8173 53.1948 55.2002 54.7499 55.2002H235.49C237.044 55.2002 238.535 55.8176 239.634 56.9165C240.732 58.0155 241.35 59.506 241.35 61.0602V324.34C241.35 325.894 240.732 327.385 239.634 328.484C238.535 329.583 237.044 330.2 235.49 330.2ZM54.7499 55.4502C53.2611 55.4502 51.8331 56.0409 50.7795 57.0927C49.7258 58.1445 49.1325 59.5714 49.1299 61.0602V324.34C49.1246 325.082 49.2661 325.817 49.5461 326.503C49.8262 327.19 50.2393 327.814 50.7617 328.34C51.2841 328.866 51.9055 329.284 52.5899 329.569C53.2744 329.854 54.0085 330 54.7499 330H235.49C236.227 330 236.956 329.855 237.637 329.573C238.317 329.291 238.936 328.878 239.457 328.357C239.978 327.836 240.391 327.218 240.673 326.537C240.955 325.856 241.1 325.127 241.1 324.39V61.0602C241.1 60.3235 240.955 59.594 240.673 58.9133C240.391 58.2327 239.978 57.6143 239.457 57.0933C238.936 56.5724 238.317 56.1592 237.637 55.8772C236.956 55.5953 236.227 55.4502 235.49 55.4502H54.7499Z" fill="#E0E0E0"/>
<path d="M500 391.27H0V391.52H500V391.27Z" fill="#E0E0E0"/>
<path d="M67.7299 405.53H51.6699V405.78H67.7299V405.53Z" fill="#E0E0E0"/>
<path d="M223.88 402.82H170.35V403.07H223.88V402.82Z" fill="#E0E0E0"/>
<path d="M104.98 414.82H68.7305V415.07H104.98V414.82Z" fill="#E0E0E0"/>
<path d="M421.54 402.69H378.35V402.94H421.54V402.69Z" fill="#E0E0E0"/>
<path d="M436.78 402.69H430.45V402.94H436.78V402.69Z" fill="#E0E0E0"/>
<path d="M370.1 408.92H316.21V409.17H370.1V408.92Z" fill="#E0E0E0"/>
<path d="M424.26 269C423.433 268.391 422.446 268.035 421.421 267.975C420.395 267.914 419.374 268.152 418.48 268.66C417.214 266.335 415.1 264.587 412.579 263.779C410.058 262.971 407.322 263.164 404.94 264.32C404.327 261.741 402.855 259.448 400.765 257.818C398.676 256.188 396.093 255.317 393.443 255.35C390.793 255.383 388.233 256.316 386.184 257.997C384.135 259.679 382.72 262.007 382.17 264.6C382.102 265.433 381.801 266.23 381.3 266.9C380.35 267.9 378.77 267.55 377.42 267.44C375.284 267.327 373.172 267.931 371.418 269.156C369.664 270.38 368.37 272.156 367.74 274.2L426.26 273.98C426.481 273.045 426.407 272.064 426.049 271.173C425.691 270.282 425.066 269.523 424.26 269Z" fill="#E6E6E6"/>
<path d="M108.84 278.37C107.848 277.647 106.669 277.224 105.443 277.153C104.218 277.082 102.998 277.366 101.93 277.97C100.417 275.194 97.8927 273.107 94.8818 272.142C91.8708 271.178 88.6041 271.41 85.7596 272.79C85.0238 269.712 83.2632 266.976 80.767 265.03C78.2708 263.085 75.1873 262.046 72.0228 262.085C68.8583 262.123 65.8009 263.236 63.3526 265.241C60.9043 267.247 59.2106 270.025 58.5496 273.12C58.4836 274.113 58.1368 275.067 57.5496 275.87C56.4196 277.03 54.5496 276.64 52.9196 276.52C50.3677 276.384 47.8434 277.104 45.7474 278.566C43.6513 280.028 42.1035 282.148 41.3496 284.59L111.27 284.33C111.528 283.207 111.433 282.032 110.998 280.965C110.563 279.898 109.809 278.992 108.84 278.37Z" fill="#E6E6E6"/>
<path d="M385.28 222.94C384.668 222.492 383.939 222.229 383.182 222.185C382.424 222.141 381.67 222.316 381.01 222.69C380.075 220.973 378.514 219.681 376.652 219.083C374.79 218.486 372.77 218.628 371.01 219.48C370.553 217.577 369.463 215.887 367.918 214.685C366.374 213.484 364.467 212.842 362.511 212.867C360.554 212.891 358.664 213.58 357.151 214.82C355.637 216.059 354.589 217.777 354.18 219.69C354.129 220.307 353.904 220.897 353.53 221.39C352.83 222.11 351.66 221.87 350.66 221.79C349.081 221.705 347.519 222.152 346.223 223.058C344.927 223.964 343.972 225.278 343.51 226.79L386.77 226.63C386.934 225.936 386.879 225.209 386.612 224.548C386.346 223.887 385.88 223.325 385.28 222.94Z" fill="#E6E6E6"/>
<path d="M128.44 101.13C127.12 100.163 125.548 99.5974 123.914 99.5016C122.281 99.4058 120.654 99.7837 119.23 100.59C115.49 93.0399 105.08 89.7099 97.6498 93.6899C96.5836 89.6317 94.2147 86.0357 90.907 83.4542C87.5992 80.8727 83.5355 79.4483 79.3398 79.3999C75.1416 79.5438 71.1067 81.0619 67.8549 83.7212C64.6031 86.3805 62.3142 90.0338 61.3398 94.1199C61.0598 95.4199 60.8798 96.8499 59.9498 97.7999C58.4398 99.3399 55.9498 98.7999 53.7698 98.6499C50.366 98.4713 46.9999 99.4337 44.205 101.385C41.41 103.335 39.3459 106.163 38.3398 109.42L131.61 109.08C132.45 105.92 131.05 103.1 128.44 101.13Z" fill="#E6E6E6"/>
<path d="M153.62 231.52C152.887 230.984 152.016 230.671 151.109 230.617C150.203 230.564 149.301 230.773 148.51 231.22C147.392 229.156 145.518 227.604 143.281 226.89C141.044 226.176 138.618 226.355 136.51 227.39C135.971 225.113 134.673 223.087 132.828 221.646C130.984 220.205 128.704 219.435 126.364 219.463C124.024 219.491 121.763 220.315 119.954 221.8C118.144 223.284 116.895 225.341 116.41 227.63C116.336 228.353 116.07 229.044 115.64 229.63C114.8 230.48 113.4 230.2 112.21 230.1C110.321 230.006 108.453 230.545 106.905 231.632C105.356 232.719 104.214 234.291 103.66 236.1L155.35 235.91C155.546 235.089 155.485 234.228 155.176 233.443C154.866 232.658 154.323 231.987 153.62 231.52Z" fill="#E6E6E6"/>
<path d="M89.72 210.22C88.9868 209.685 88.1152 209.372 87.2091 209.319C86.303 209.266 85.4008 209.474 84.61 209.92C83.4917 207.855 81.6179 206.303 79.3809 205.589C77.144 204.876 74.7176 205.055 72.61 206.09C72.0655 203.815 70.7637 201.793 68.9184 200.356C67.0731 198.919 64.7939 198.152 62.4551 198.181C60.1163 198.21 57.857 199.034 56.0479 200.516C54.2389 201.999 52.9878 204.052 52.5 206.34C52.4362 207.066 52.1693 207.759 51.73 208.34C50.89 209.2 49.5 208.91 48.3 208.82C46.4096 208.722 44.541 209.26 42.9916 210.347C41.4421 211.435 40.3011 213.009 39.75 214.82L91.44 214.63C91.6414 213.807 91.5843 212.942 91.2765 212.153C90.9688 211.364 90.4252 210.689 89.72 210.22Z" fill="#F0F0F0"/>
<path d="M460.79 193.41C460.058 192.876 459.189 192.563 458.284 192.51C457.38 192.457 456.479 192.665 455.69 193.11C454.57 191.047 452.696 189.497 450.46 188.783C448.224 188.069 445.798 188.247 443.69 189.28C443.146 187.005 441.844 184.983 439.998 183.546C438.153 182.109 435.874 181.342 433.535 181.371C431.196 181.4 428.937 182.223 427.128 183.706C425.319 185.189 424.068 187.242 423.58 189.53C423.518 190.256 423.251 190.95 422.81 191.53C421.98 192.39 420.58 192.1 419.39 192.01C417.498 191.912 415.628 192.449 414.077 193.536C412.526 194.624 411.383 196.198 410.83 198.01L462.52 197.82C462.722 196.996 462.664 196.13 462.354 195.341C462.045 194.551 461.498 193.877 460.79 193.41Z" fill="#F0F0F0"/>
<path d="M250.44 56.2602C249.344 55.4603 248.04 54.9933 246.685 54.9153C245.33 54.8372 243.981 55.1514 242.8 55.8202C239.71 49.5602 231.08 46.8202 224.92 50.0902C224.112 46.6841 222.168 43.6547 219.408 41.5008C216.648 39.3469 213.238 38.1969 209.737 38.2399C206.237 38.283 202.855 39.5167 200.149 41.7378C197.444 43.959 195.575 47.0352 194.85 50.4602C194.75 51.5469 194.352 52.5848 193.7 53.4602C192.44 54.7402 190.35 54.3102 188.57 54.1702C185.75 54.0216 182.96 54.8183 180.644 56.434C178.327 58.0497 176.615 60.3921 175.78 63.0902L253.09 62.8102C253.76 60.2302 252.6 57.8902 250.44 56.2602Z" fill="#F0F0F0"/>
<path d="M405.06 88.73C404.153 88.0673 403.075 87.6799 401.954 87.6143C400.833 87.5487 399.717 87.8076 398.74 88.36C397.359 85.8311 395.059 83.9299 392.315 83.0495C389.572 82.1691 386.594 82.3769 384 83.63C383.332 80.8139 381.726 78.3091 379.444 76.5278C377.163 74.7466 374.344 73.7951 371.45 73.83C368.556 73.865 365.76 74.8842 363.523 76.72C361.285 78.5557 359.739 81.0986 359.14 83.93C359.066 84.8426 358.737 85.716 358.19 86.45C357.19 87.45 355.43 87.15 353.95 87.03C351.618 86.9099 349.313 87.5704 347.399 88.9069C345.485 90.2434 344.071 92.1798 343.38 94.41L407.27 94.17C407.508 93.146 407.424 92.0733 407.028 91.0992C406.633 90.1251 405.945 89.2975 405.06 88.73Z" fill="#E6E6E6"/>
<path d="M39.2197 451.2C39.2197 451.2 64.8097 410.65 63.0997 408.42C61.3897 406.19 100.21 353.25 107.45 351.07C110.51 350.14 116.29 340.15 121.94 328.92C129.62 313.64 137.04 296.11 137.04 296.11C140.239 295.604 143.496 295.587 146.7 296.06C152.41 296.81 155.59 286.52 155.59 286.52L175.48 281.33L182.95 286.52L194.24 293.64C194.24 293.64 204.9 295.84 208.24 296.06C211.58 296.28 243.87 244.63 243.87 244.63C243.87 244.63 250.34 240.04 253.8 240.01C257.26 239.98 262.95 235.27 262.95 235.27L274.69 232.27C274.69 232.27 288.82 253.44 295.17 261.59C301.52 269.74 311.92 274.36 315.4 281.31C318.88 288.26 335.78 283.48 342.4 292.44C349.02 301.4 440.6 400.11 440.6 400.11C451.44 411.83 468 451.2 468 451.2H39.2197Z" fill="#F0F0F0"/>
<path d="M315.38 305C310.75 311 317.67 333.32 318.69 336.51L306.44 301L315.38 288.18L278.61 247.1V252C278.61 252 270.34 240 267.28 240C264.22 240 258.74 256.81 258.74 256.81L252.74 244.62C252.74 244.62 231.27 264.33 232.65 270.38C234.03 276.43 216.48 294.75 217.65 296.1C218.82 297.45 183 336.88 183 336.88L194.29 303.88C194.29 303.88 191.1 299.58 186.89 298.57C182.68 297.56 175.71 294.22 170.31 294.75C164.91 295.28 170.31 294.75 168.57 298.57C166.83 302.39 164.92 301.73 155.64 307.13C146.36 312.53 153.34 303.34 153.34 303.34L143.34 302.25L121.96 328.91C129.64 313.63 137.06 296.1 137.06 296.1C140.259 295.593 143.516 295.577 146.72 296.05C152.43 296.8 155.61 286.51 155.61 286.51L175.5 281.32L182.97 286.51L194.26 293.63C194.26 293.63 204.92 295.83 208.26 296.05C211.6 296.27 243.89 244.62 243.89 244.62C243.89 244.62 250.36 240.03 253.82 240C257.28 239.97 262.97 235.26 262.97 235.26L274.71 232.26C274.71 232.26 288.84 253.43 295.19 261.58C301.54 269.73 311.94 274.35 315.42 281.3C318.9 288.25 335.8 283.47 342.42 292.43H327.87C323.304 296.2 319.121 300.41 315.38 305Z" fill="#E6E6E6"/>
<path d="M458.88 454.34C458.88 457.72 365.36 460.47 250 460.47C134.64 460.47 41.1201 457.72 41.1201 454.34C41.1201 450.96 134.64 448.2 250 448.2C365.36 448.2 458.88 451 458.88 454.34Z" fill="#F5F5F5"/>
<path d="M73.9202 351.89C72.8043 350.819 71.3089 350.234 69.7621 350.264C68.2154 350.294 66.7437 350.936 65.6702 352.05L65.5602 352.17C59.4702 358.84 49.0502 371.48 52.6702 376.17C54.0102 377.92 61.1402 373.76 61.1402 373.76C61.1402 373.76 62.4202 377.66 63.6302 377.92C65.8302 378.41 71.0802 372.92 71.0802 372.92C71.0802 372.92 75.4402 378.26 77.4502 377.92C78.9702 377.7 80.9502 372.92 80.9502 372.92C80.9502 372.92 87.4002 377.17 88.6402 375.56C92.3102 370.69 80.6102 358.31 73.9202 351.89Z" fill="#6C63FF"/>
<path opacity="0.3" d="M73.9202 351.89C72.8043 350.819 71.3089 350.234 69.7621 350.264C68.2154 350.294 66.7437 350.936 65.6702 352.05L65.5602 352.17C59.4702 358.84 49.0502 371.48 52.6702 376.17C54.0102 377.92 61.1402 373.76 61.1402 373.76C61.1402 373.76 62.4202 377.66 63.6302 377.92C65.8302 378.41 71.0802 372.92 71.0802 372.92C71.0802 372.92 75.4402 378.26 77.4502 377.92C78.9702 377.7 80.9502 372.92 80.9502 372.92C80.9502 372.92 87.4002 377.17 88.6402 375.56C92.3102 370.69 80.6102 358.31 73.9202 351.89Z" fill="black"/>
<path d="M68.7802 377.95L66.1602 457.56H73.0602L70.4302 377.95H68.7802Z" fill="#263238"/>
<path d="M68.8697 395.37C68.8697 395.37 30.9997 432.87 39.6497 444.16C41.9697 447.16 54.2597 439.99 54.2597 439.99C54.2597 439.99 56.5197 446.73 58.5597 447.18C62.3497 448.02 71.4197 438.48 71.4197 438.48C71.4197 438.48 78.9297 447.69 82.4197 447.18C85.0397 446.8 88.4197 438.48 88.4197 438.48C88.4197 438.48 99.5397 445.8 101.66 443.02C110.42 431.47 68.8697 395.37 68.8697 395.37Z" fill="#6C63FF"/>
<path opacity="0.3" d="M68.8697 395.37C68.8697 395.37 30.9997 432.87 39.6497 444.16C41.9697 447.16 54.2597 439.99 54.2597 439.99C54.2597 439.99 56.5197 446.73 58.5597 447.18C62.3497 448.02 71.4197 438.48 71.4197 438.48C71.4197 438.48 78.9297 447.69 82.4197 447.18C85.0397 446.8 88.4197 438.48 88.4197 438.48C88.4197 438.48 99.5397 445.8 101.66 443.02C110.42 431.47 68.8697 395.37 68.8697 395.37Z" fill="black"/>
<path d="M69.3705 360.79C69.3705 360.79 42.5704 387.34 48.7004 395.32C50.3304 397.45 59.0404 392.37 59.0404 392.37C59.0404 392.37 60.6404 397.14 62.0404 397.46C64.7304 398.06 71.1404 391.3 71.1404 391.3C71.1404 391.3 76.4505 397.82 78.9105 397.46C80.7605 397.19 83.1905 391.3 83.1905 391.3C83.1905 391.3 91.0604 396.49 92.5604 394.51C98.7904 386.36 69.3705 360.79 69.3705 360.79Z" fill="#6C63FF"/>
<path opacity="0.3" d="M69.3705 360.79C69.3705 360.79 42.5704 387.34 48.7004 395.32C50.3304 397.45 59.0404 392.37 59.0404 392.37C59.0404 392.37 60.6404 397.14 62.0404 397.46C64.7304 398.06 71.1404 391.3 71.1404 391.3C71.1404 391.3 76.4505 397.82 78.9105 397.46C80.7605 397.19 83.1905 391.3 83.1905 391.3C83.1905 391.3 91.0604 396.49 92.5604 394.51C98.7904 386.36 69.3705 360.79 69.3705 360.79Z" fill="black"/>
<path d="M69.1 375.24C69.1 375.24 36.22 407.81 43.74 417.61C45.74 420.22 56.43 413.99 56.43 413.99C56.43 413.99 58.43 419.84 60.16 420.23C63.45 420.96 71.33 412.68 71.33 412.68C71.33 412.68 77.84 420.68 80.85 420.23C83.13 419.9 86.1 412.68 86.1 412.68C86.1 412.68 95.77 419.04 97.6 416.62C105.18 406.61 69.1 375.24 69.1 375.24Z" fill="#6C63FF"/>
<path opacity="0.3" d="M69.1 375.24C69.1 375.24 36.22 407.81 43.74 417.61C45.74 420.22 56.43 413.99 56.43 413.99C56.43 413.99 58.43 419.84 60.16 420.23C63.45 420.96 71.33 412.68 71.33 412.68C71.33 412.68 77.84 420.68 80.85 420.23C83.13 419.9 86.1 412.68 86.1 412.68C86.1 412.68 95.77 419.04 97.6 416.62C105.18 406.61 69.1 375.24 69.1 375.24Z" fill="black"/>
<path d="M169.09 351.89C167.974 350.819 166.479 350.234 164.932 350.264C163.385 350.294 161.914 350.936 160.84 352.05L160.73 352.17C154.64 358.84 144.22 371.48 147.84 376.17C149.18 377.92 156.31 373.76 156.31 373.76C156.31 373.76 157.59 377.66 158.8 377.92C161 378.41 166.25 372.92 166.25 372.92C166.25 372.92 170.61 378.26 172.62 377.92C174.14 377.7 176.12 372.92 176.12 372.92C176.12 372.92 182.58 377.17 183.81 375.56C187.48 370.69 175.78 358.31 169.09 351.89Z" fill="#6C63FF"/>
<path opacity="0.3" d="M169.09 351.89C167.974 350.819 166.479 350.234 164.932 350.264C163.385 350.294 161.914 350.936 160.84 352.05L160.73 352.17C154.64 358.84 144.22 371.48 147.84 376.17C149.18 377.92 156.31 373.76 156.31 373.76C156.31 373.76 157.59 377.66 158.8 377.92C161 378.41 166.25 372.92 166.25 372.92C166.25 372.92 170.61 378.26 172.62 377.92C174.14 377.7 176.12 372.92 176.12 372.92C176.12 372.92 182.58 377.17 183.81 375.56C187.48 370.69 175.78 358.31 169.09 351.89Z" fill="black"/>
<path d="M163.95 377.95L161.33 457.56H168.23L165.6 377.95H163.95Z" fill="#263238"/>
<path d="M164 395.37C164 395.37 126.13 432.87 134.78 444.16C137.1 447.16 149.39 439.99 149.39 439.99C149.39 439.99 151.65 446.73 153.69 447.18C157.48 448.02 166.55 438.48 166.55 438.48C166.55 438.48 174.06 447.69 177.55 447.18C180.17 446.8 183.6 438.48 183.6 438.48C183.6 438.48 194.72 445.8 196.84 443.02C205.59 431.47 164 395.37 164 395.37Z" fill="#6C63FF"/>
<path opacity="0.3" d="M164 395.37C164 395.37 126.13 432.87 134.78 444.16C137.1 447.16 149.39 439.99 149.39 439.99C149.39 439.99 151.65 446.73 153.69 447.18C157.48 448.02 166.55 438.48 166.55 438.48C166.55 438.48 174.06 447.69 177.55 447.18C180.17 446.8 183.6 438.48 183.6 438.48C183.6 438.48 194.72 445.8 196.84 443.02C205.59 431.47 164 395.37 164 395.37Z" fill="black"/>
<path d="M164.54 360.79C164.54 360.79 137.75 387.34 143.87 395.32C145.51 397.45 154.21 392.37 154.21 392.37C154.21 392.37 155.81 397.14 157.21 397.46C159.9 398.06 166.31 391.3 166.31 391.3C166.31 391.3 171.62 397.82 174.08 397.46C175.93 397.19 178.36 391.3 178.36 391.3C178.36 391.3 186.23 396.49 187.73 394.51C194 386.36 164.54 360.79 164.54 360.79Z" fill="#6C63FF"/>
<path opacity="0.3" d="M164.54 360.79C164.54 360.79 137.75 387.34 143.87 395.32C145.51 397.45 154.21 392.37 154.21 392.37C154.21 392.37 155.81 397.14 157.21 397.46C159.9 398.06 166.31 391.3 166.31 391.3C166.31 391.3 171.62 397.82 174.08 397.46C175.93 397.19 178.36 391.3 178.36 391.3C178.36 391.3 186.23 396.49 187.73 394.51C194 386.36 164.54 360.79 164.54 360.79Z" fill="black"/>
<path d="M164.27 375.24C164.27 375.24 131.39 407.81 138.91 417.61C140.91 420.22 151.6 413.99 151.6 413.99C151.6 413.99 153.6 419.84 155.34 420.23C158.62 420.96 166.5 412.68 166.5 412.68C166.5 412.68 173.02 420.68 176.02 420.23C178.3 419.9 181.27 412.68 181.27 412.68C181.27 412.68 190.94 419.04 192.77 416.62C200.35 406.61 164.27 375.24 164.27 375.24Z" fill="#6C63FF"/>
<path opacity="0.3" d="M164.27 375.24C164.27 375.24 131.39 407.81 138.91 417.61C140.91 420.22 151.6 413.99 151.6 413.99C151.6 413.99 153.6 419.84 155.34 420.23C158.62 420.96 166.5 412.68 166.5 412.68C166.5 412.68 173.02 420.68 176.02 420.23C178.3 419.9 181.27 412.68 181.27 412.68C181.27 412.68 190.94 419.04 192.77 416.62C200.35 406.61 164.27 375.24 164.27 375.24Z" fill="black"/>
<path d="M121.36 350.26L117.82 457.56H127.12L123.58 350.26H121.36Z" fill="#263238"/>
<path d="M121.47 373.73C121.47 373.73 70.4696 424.28 82.0996 439.49C85.2096 443.55 101.79 433.88 101.79 433.88C101.79 433.88 104.79 442.96 107.58 443.57C112.69 444.7 124.92 431.84 124.92 431.84C124.92 431.84 135 444.25 139.7 443.57C143.23 443.05 147.85 431.84 147.85 431.84C147.85 431.84 162.85 441.71 165.7 437.97C177.48 422.4 121.47 373.73 121.47 373.73Z" fill="#6C63FF"/>
<path d="M121.78 346.6C121.78 346.6 77.4698 390.5 87.6098 403.71C90.3098 407.23 104.71 398.84 104.71 398.84C104.71 398.84 107.35 406.72 109.71 407.25C114.15 408.25 124.76 397.07 124.76 397.07C124.76 397.07 133.54 407.85 137.6 407.25C140.67 406.79 144.68 397.07 144.68 397.07C144.68 397.07 157.68 405.64 160.17 402.38C170.42 388.89 121.78 346.6 121.78 346.6Z" fill="#6C63FF"/>
<path d="M122.16 327.13C122.16 327.13 85.9997 362.91 94.2897 373.67C96.4897 376.54 108.22 369.67 108.22 369.67C108.22 369.67 110.38 376.09 112.33 376.52C115.95 377.33 124.59 368.22 124.59 368.22C124.59 368.22 131.75 377.01 135.06 376.52C137.56 376.15 140.83 368.22 140.83 368.22C140.83 368.22 151.44 375.22 153.46 372.54C161.8 361.59 122.16 327.13 122.16 327.13Z" fill="#6C63FF"/>
<path d="M128.29 315.14C127.546 314.423 126.667 313.859 125.705 313.482C124.743 313.104 123.716 312.92 122.682 312.939C121.648 312.959 120.629 313.182 119.681 313.595C118.734 314.009 117.877 314.605 117.16 315.35C117.109 315.399 117.062 315.452 117.02 315.51C108.81 324.51 94.7604 341.51 99.6404 347.9C101.44 350.25 111.06 344.65 111.06 344.65C111.06 344.65 112.78 349.91 114.42 350.26C117.42 350.92 124.42 343.47 124.42 343.47C124.42 343.47 130.3 350.66 133 350.26C135.05 349.96 137.72 343.47 137.72 343.47C137.72 343.47 146.42 349.19 148.09 347.02C153.08 340.47 137.3 323.78 128.29 315.14Z" fill="#6C63FF"/>
<path d="M403.47 351.89C402.354 350.819 400.859 350.234 399.312 350.264C397.765 350.294 396.294 350.936 395.22 352.05L395.11 352.17C389.02 358.84 378.6 371.48 382.22 376.17C383.56 377.92 390.69 373.76 390.69 373.76C390.69 373.76 391.97 377.66 393.18 377.92C395.38 378.41 400.64 372.92 400.64 372.92C400.64 372.92 404.99 378.26 407 377.92C408.52 377.7 410.5 372.92 410.5 372.92C410.5 372.92 416.96 377.17 418.19 375.56C421.86 370.69 410.16 358.31 403.47 351.89Z" fill="#6C63FF"/>
<path opacity="0.3" d="M403.47 351.89C402.354 350.819 400.859 350.234 399.312 350.264C397.765 350.294 396.294 350.936 395.22 352.05L395.11 352.17C389.02 358.84 378.6 371.48 382.22 376.17C383.56 377.92 390.69 373.76 390.69 373.76C390.69 373.76 391.97 377.66 393.18 377.92C395.38 378.41 400.64 372.92 400.64 372.92C400.64 372.92 404.99 378.26 407 377.92C408.52 377.7 410.5 372.92 410.5 372.92C410.5 372.92 416.96 377.17 418.19 375.56C421.86 370.69 410.16 358.31 403.47 351.89Z" fill="black"/>
<path d="M398.33 377.95L395.71 457.56H402.61L399.98 377.95H398.33Z" fill="#263238"/>
<path d="M398.42 395.37C398.42 395.37 360.55 432.87 369.2 444.16C371.52 447.16 383.81 439.99 383.81 439.99C383.81 439.99 386.07 446.73 388.11 447.18C391.9 448.02 400.97 438.48 400.97 438.48C400.97 438.48 408.48 447.69 411.97 447.18C414.59 446.8 418.02 438.48 418.02 438.48C418.02 438.48 429.14 445.8 431.26 443.02C440 431.47 398.42 395.37 398.42 395.37Z" fill="#6C63FF"/>
<path opacity="0.3" d="M398.42 395.37C398.42 395.37 360.55 432.87 369.2 444.16C371.52 447.16 383.81 439.99 383.81 439.99C383.81 439.99 386.07 446.73 388.11 447.18C391.9 448.02 400.97 438.48 400.97 438.48C400.97 438.48 408.48 447.69 411.97 447.18C414.59 446.8 418.02 438.48 418.02 438.48C418.02 438.48 429.14 445.8 431.26 443.02C440 431.47 398.42 395.37 398.42 395.37Z" fill="black"/>
<path d="M398.92 360.79C398.92 360.79 372.13 387.34 378.25 395.32C379.89 397.45 388.59 392.37 388.59 392.37C388.59 392.37 390.19 397.14 391.59 397.46C394.28 398.06 400.69 391.3 400.69 391.3C400.69 391.3 406 397.82 408.46 397.46C410.31 397.19 412.74 391.3 412.74 391.3C412.74 391.3 420.61 396.49 422.11 394.51C428.34 386.36 398.92 360.79 398.92 360.79Z" fill="#6C63FF"/>
<path opacity="0.3" d="M398.92 360.79C398.92 360.79 372.13 387.34 378.25 395.32C379.89 397.45 388.59 392.37 388.59 392.37C388.59 392.37 390.19 397.14 391.59 397.46C394.28 398.06 400.69 391.3 400.69 391.3C400.69 391.3 406 397.82 408.46 397.46C410.31 397.19 412.74 391.3 412.74 391.3C412.74 391.3 420.61 396.49 422.11 394.51C428.34 386.36 398.92 360.79 398.92 360.79Z" fill="black"/>
<path d="M398.65 375.24C398.65 375.24 365.77 407.81 373.29 417.61C375.3 420.22 386 414 386 414C386 414 388 419.85 389.74 420.24C393.02 420.97 400.9 412.69 400.9 412.69C400.9 412.69 407.42 420.69 410.42 420.24C412.7 419.91 415.68 412.69 415.68 412.69C415.68 412.69 425.34 419.05 427.17 416.63C434.73 406.61 398.65 375.24 398.65 375.24Z" fill="#6C63FF"/>
<path opacity="0.3" d="M398.65 375.24C398.65 375.24 365.77 407.81 373.29 417.61C375.3 420.22 386 414 386 414C386 414 388 419.85 389.74 420.24C393.02 420.97 400.9 412.69 400.9 412.69C400.9 412.69 407.42 420.69 410.42 420.24C412.7 419.91 415.68 412.69 415.68 412.69C415.68 412.69 425.34 419.05 427.17 416.63C434.73 406.61 398.65 375.24 398.65 375.24Z" fill="black"/>
<path d="M430.42 370.29L427.54 457.56H435.1L432.22 370.29H430.42Z" fill="#263238"/>
<path d="M430.51 389.38C430.51 389.38 389 430.5 398.51 442.87C401.05 446.17 414.51 438.3 414.51 438.3C414.51 438.3 416.98 445.68 419.22 446.18C423.37 447.1 433.32 436.64 433.32 436.64C433.32 436.64 441.55 446.74 445.32 446.18C448.19 445.76 451.95 436.64 451.95 436.64C451.95 436.64 464.15 444.64 466.46 441.64C476.06 429 430.51 389.38 430.51 389.38Z" fill="#6C63FF"/>
<path d="M430.76 367.31C430.76 367.31 394.71 403 403 413.76C405.2 416.63 416.91 409.76 416.91 409.76C416.91 409.76 419.06 416.17 421.01 416.6C424.61 417.4 433.24 408.32 433.24 408.32C433.24 408.32 440.39 417.09 443.68 416.6C446.18 416.23 449.44 408.32 449.44 408.32C449.44 408.32 460.04 415.32 462.05 412.64C470.32 401.71 430.76 367.31 430.76 367.31Z" fill="#6C63FF"/>
<path d="M431.06 351.48C431.06 351.48 401.68 380.58 408.4 389.33C410.19 391.66 419.73 386.1 419.73 386.1C419.73 386.1 421.49 391.32 423.07 391.68C426.01 392.33 433.07 384.92 433.07 384.92C433.07 384.92 438.9 392.07 441.59 391.68C443.59 391.37 446.28 384.92 446.28 384.92C446.28 384.92 454.91 390.61 456.55 388.44C463.31 379.51 431.06 351.48 431.06 351.48Z" fill="#6C63FF"/>
<path d="M436.05 341.72C435.444 341.137 434.729 340.68 433.946 340.374C433.164 340.068 432.328 339.919 431.488 339.935C430.647 339.952 429.818 340.134 429.048 340.471C428.278 340.808 427.582 341.294 427 341.9L426.88 342.02C420.21 349.34 408.78 363.2 412.75 368.37C414.22 370.28 422.03 365.73 422.03 365.73C422.03 365.73 423.44 370 424.77 370.29C427.18 370.83 432.94 364.76 432.94 364.76C432.94 364.76 437.71 370.61 439.94 370.29C441.61 370.05 443.79 364.76 443.79 364.76C443.79 364.76 450.86 369.42 452.22 367.65C456.21 362.33 443.38 348.75 436.05 341.72Z" fill="#6C63FF"/>
<path d="M354.21 350.26L350.67 457.56H359.97L356.43 350.26H354.21Z" fill="#263238"/>
<path d="M354.33 373.73C354.33 373.73 303.33 424.28 314.95 439.49C318.07 443.55 334.64 433.88 334.64 433.88C334.64 433.88 337.64 442.96 340.44 443.57C345.54 444.7 357.77 431.84 357.77 431.84C357.77 431.84 367.89 444.25 372.55 443.57C376.08 443.05 380.7 431.84 380.7 431.84C380.7 431.84 395.7 441.71 398.55 437.97C410.33 422.4 354.33 373.73 354.33 373.73Z" fill="#6C63FF"/>
<path d="M354.64 346.6C354.64 346.6 310.32 390.5 320.46 403.71C323.16 407.23 337.56 398.84 337.56 398.84C337.56 398.84 340.2 406.72 342.56 407.25C346.99 408.25 357.56 397.07 357.56 397.07C357.56 397.07 366.35 407.85 370.4 407.25C373.47 406.79 377.48 397.07 377.48 397.07C377.48 397.07 390.48 405.64 392.98 402.38C403.27 388.89 354.64 346.6 354.64 346.6Z" fill="#6C63FF"/>
<path d="M355 327.13C355 327.13 318.88 362.91 327.13 373.67C329.34 376.54 341.07 369.67 341.07 369.67C341.07 369.67 343.23 376.09 345.17 376.52C348.79 377.33 357.43 368.22 357.43 368.22C357.43 368.22 364.59 377.01 367.9 376.52C370.4 376.15 373.67 368.22 373.67 368.22C373.67 368.22 384.28 375.22 386.3 372.54C394.65 361.59 355 327.13 355 327.13Z" fill="#6C63FF"/>
<path d="M361.14 315.14C360.396 314.423 359.517 313.859 358.555 313.482C357.592 313.104 356.565 312.92 355.532 312.939C354.498 312.959 353.478 313.182 352.531 313.595C351.584 314.009 350.727 314.605 350.01 315.35L349.87 315.51C341.66 324.51 327.61 341.51 332.49 347.9C334.3 350.25 343.91 344.65 343.91 344.65C343.91 344.65 345.64 349.91 347.27 350.26C350.27 350.92 357.27 343.47 357.27 343.47C357.27 343.47 363.15 350.66 365.85 350.26C367.9 349.96 370.58 343.47 370.58 343.47C370.58 343.47 379.27 349.19 380.94 347.02C385.93 340.47 370.15 323.78 361.14 315.14Z" fill="#6C63FF"/>
<path d="M379.8 331.38C379.762 331.381 379.725 331.374 379.69 331.358C379.655 331.342 379.625 331.319 379.6 331.29C378.83 330.29 378.08 329.37 377.32 328.41C374.99 325.41 372.58 322.41 369.88 319.36C369.857 319.337 369.837 319.31 369.824 319.28C369.811 319.25 369.805 319.218 369.805 319.185C369.805 319.152 369.811 319.12 369.824 319.09C369.837 319.06 369.857 319.032 369.88 319.01C369.927 318.964 369.99 318.938 370.055 318.938C370.121 318.938 370.184 318.964 370.23 319.01C372.93 322.07 375.35 325.13 377.68 328.08L380 331C380.024 331.022 380.043 331.049 380.056 331.08C380.069 331.11 380.076 331.142 380.076 331.175C380.076 331.208 380.069 331.24 380.056 331.27C380.043 331.3 380.024 331.328 380 331.35C379.94 331.385 379.868 331.396 379.8 331.38Z" fill="#6C63FF"/>
<path d="M369.1 318.52C369.066 318.523 369.032 318.517 369 318.503C368.969 318.489 368.941 318.467 368.92 318.44L368.29 317.77C368.244 317.724 368.219 317.661 368.219 317.595C368.219 317.53 368.244 317.467 368.29 317.42C368.314 317.396 368.342 317.377 368.372 317.364C368.403 317.351 368.437 317.344 368.47 317.344C368.504 317.344 368.537 317.351 368.568 317.364C368.599 317.377 368.627 317.396 368.65 317.42L369.27 318.09C369.294 318.113 369.313 318.14 369.326 318.17C369.339 318.2 369.346 318.232 369.346 318.265C369.346 318.298 369.339 318.33 369.326 318.361C369.313 318.391 369.294 318.418 369.27 318.44C369.249 318.465 369.223 318.485 369.194 318.498C369.164 318.512 369.133 318.52 369.1 318.52Z" fill="#6C63FF"/>
<path opacity="0.3" d="M185.87 201.22L129.61 451.6H371.59L312.4 201.22" fill="#6C63FF"/>
<path d="M162.7 352.5C162.668 352.493 162.637 352.479 162.61 352.46C162.583 352.441 162.56 352.417 162.543 352.389C162.525 352.362 162.513 352.33 162.507 352.298C162.502 352.265 162.503 352.232 162.51 352.2L185.39 251.35C185.405 251.285 185.445 251.228 185.501 251.193C185.557 251.157 185.625 251.145 185.69 251.16C185.755 251.174 185.812 251.214 185.847 251.271C185.883 251.327 185.895 251.395 185.88 251.46L163 352.31C162.993 352.342 162.98 352.373 162.961 352.4C162.942 352.427 162.918 352.45 162.89 352.467C162.862 352.485 162.831 352.497 162.798 352.503C162.766 352.508 162.732 352.507 162.7 352.5Z" fill="#6C63FF"/>
<path d="M185.94 250.25H185.88C185.817 250.234 185.763 250.193 185.729 250.137C185.695 250.081 185.685 250.014 185.7 249.95L186.14 248.2C186.157 248.137 186.197 248.082 186.253 248.049C186.31 248.015 186.377 248.005 186.44 248.02C186.472 248.027 186.503 248.04 186.529 248.06C186.556 248.079 186.578 248.103 186.595 248.131C186.612 248.159 186.623 248.19 186.627 248.223C186.632 248.255 186.629 248.288 186.62 248.32L186.19 250.07C186.173 250.123 186.14 250.169 186.095 250.201C186.05 250.233 185.996 250.251 185.94 250.25Z" fill="#6C63FF"/>
<path d="M247.54 366.05C247.508 366.047 247.476 366.038 247.446 366.023C247.417 366.008 247.391 365.988 247.369 365.963C247.348 365.938 247.332 365.908 247.322 365.877C247.311 365.846 247.308 365.813 247.31 365.78L253.54 300.86C253.542 300.826 253.55 300.794 253.564 300.764C253.579 300.734 253.599 300.707 253.625 300.685C253.65 300.664 253.68 300.647 253.712 300.638C253.744 300.628 253.777 300.626 253.81 300.63C253.875 300.637 253.934 300.67 253.975 300.72C254.016 300.771 254.036 300.835 254.03 300.9L247.81 365.83C247.808 365.862 247.799 365.894 247.784 365.923C247.769 365.952 247.748 365.977 247.723 365.998C247.697 366.018 247.668 366.034 247.637 366.043C247.606 366.052 247.573 366.054 247.54 366.05Z" fill="#6C63FF"/>
<path d="M257.87 332.4C257.838 332.397 257.806 332.388 257.777 332.373C257.748 332.358 257.723 332.337 257.702 332.312C257.682 332.287 257.667 332.258 257.658 332.226C257.649 332.195 257.646 332.162 257.65 332.13L262.95 274.13C262.951 274.097 262.959 274.064 262.974 274.035C262.989 274.005 263.009 273.979 263.035 273.958C263.061 273.937 263.09 273.922 263.122 273.914C263.154 273.905 263.188 273.904 263.22 273.91C263.253 273.912 263.285 273.921 263.315 273.936C263.344 273.951 263.37 273.972 263.392 273.997C263.413 274.022 263.429 274.051 263.439 274.082C263.449 274.114 263.453 274.147 263.45 274.18L258.15 332.18C258.138 332.244 258.103 332.302 258.052 332.342C258 332.383 257.936 332.403 257.87 332.4Z" fill="#6C63FF"/>
<path d="M248 86C202.34 86 165.32 119.54 165.32 160.91H330.72C330.72 119.55 293.7 86 248 86Z" fill="#6C63FF"/>
<path opacity="0.3" d="M248 86C202.34 86 165.32 119.54 165.32 160.91H330.72C330.72 119.55 293.7 86 248 86Z" fill="white"/>
<path opacity="0.3" d="M248 86.0001L214.49 115.84L241.75 114.08L264.09 87.4201C264.09 87.4201 253.29 85.8601 248 86.0001Z" fill="white"/>
<path d="M248.04 199.44C346.026 199.44 425.46 180.332 425.46 156.76C425.46 133.189 346.026 114.08 248.04 114.08C150.054 114.08 70.6201 133.189 70.6201 156.76C70.6201 180.332 150.054 199.44 248.04 199.44Z" fill="#6C63FF"/>
<path opacity="0.3" d="M248.04 199.44C346.026 199.44 425.46 180.332 425.46 156.76C425.46 133.189 346.026 114.08 248.04 114.08C150.054 114.08 70.6201 133.189 70.6201 156.76C70.6201 180.332 150.054 199.44 248.04 199.44Z" fill="black"/>
<path d="M248.14 193.5C305.765 193.5 352.48 185.275 352.48 175.13C352.48 164.984 305.765 156.76 248.14 156.76C190.514 156.76 143.8 164.984 143.8 175.13C143.8 185.275 190.514 193.5 248.14 193.5Z" fill="#6C63FF"/>
<path d="M144.13 176.62L159.6 199.44H337.44L352.49 176.4L246.2 165.22L144.13 176.62Z" fill="#6C63FF"/>
<path d="M248.04 215.19C297.608 215.19 337.79 206.966 337.79 196.82C337.79 186.675 297.608 178.45 248.04 178.45C198.472 178.45 158.29 186.675 158.29 196.82C158.29 206.966 198.472 215.19 248.04 215.19Z" fill="#6C63FF"/>
<path opacity="0.3" d="M248.04 215.19C297.608 215.19 337.79 206.966 337.79 196.82C337.79 186.675 297.608 178.45 248.04 178.45C198.472 178.45 158.29 186.675 158.29 196.82C158.29 206.966 198.472 215.19 248.04 215.19Z" fill="black"/>
<path opacity="0.3" d="M248.04 212.96C287.374 212.96 319.26 206.432 319.26 198.38C319.26 190.327 287.374 183.8 248.04 183.8C208.707 183.8 176.82 190.327 176.82 198.38C176.82 206.432 208.707 212.96 248.04 212.96Z" fill="black"/>
<path d="M180.91 193.5L186.54 203.23L312.18 201.84L315.18 193.5C301.6 184.22 216.13 176 180.91 193.5Z" fill="#6C63FF"/>
<path d="M249.13 212.75C284.073 212.75 312.4 207.588 312.4 201.22C312.4 194.852 284.073 189.69 249.13 189.69C214.187 189.69 185.86 194.852 185.86 201.22C185.86 207.588 214.187 212.75 249.13 212.75Z" fill="#6C63FF"/>
<path opacity="0.3" d="M249.13 212.75C284.073 212.75 312.4 207.588 312.4 201.22C312.4 194.852 284.073 189.69 249.13 189.69C214.187 189.69 185.86 194.852 185.86 201.22C185.86 207.588 214.187 212.75 249.13 212.75Z" fill="white"/>
<path d="M248 114.09C150 114.09 70.5898 133.2 70.5898 156.76C70.5898 159.76 71.9098 162.76 74.4198 165.62C82.6798 147.62 106 139.76 126.06 134.83C201.96 116.2 283.74 116.22 360.44 131.23C383.77 135.8 408.28 142.85 425.19 158.96C425.341 158.236 425.418 157.499 425.42 156.76C425.46 133.2 346 114.09 248 114.09Z" fill="white"/>
<path opacity="0.3" d="M143.8 175.13L80.3604 156.76L144.13 173.66L143.8 175.13Z" fill="black"/>
<path opacity="0.3" d="M175.21 125.44L187.66 160.17L190.5 159.82L175.21 125.44Z" fill="black"/>
<path opacity="0.3" d="M297.18 158.92L303.06 122.58L300.19 159.14L297.18 158.92Z" fill="black"/>
<path opacity="0.3" d="M352.49 176.4L414 150.17L351.16 172.17C351.16 172.17 354.32 173.59 352.49 176.4Z" fill="black"/>
<path opacity="0.3" d="M248.04 114.09L267.98 88.21L273.22 89.55L253.77 114.22L248.04 114.09Z" fill="white"/>
<path d="M149.37 158.18C152.192 158.18 154.48 157.544 154.48 156.76C154.48 155.976 152.192 155.34 149.37 155.34C146.548 155.34 144.26 155.976 144.26 156.76C144.26 157.544 146.548 158.18 149.37 158.18Z" fill="white"/>
<path d="M250.32 148.75C250.32 149.53 248.03 150.17 245.21 150.17C242.39 150.17 240.1 149.53 240.1 148.75C240.1 147.97 242.39 147.34 245.21 147.34C248.03 147.34 250.32 148 250.32 148.75Z" fill="white"/>
<path d="M365.18 186.11C365.18 186.89 362.89 187.53 360.07 187.53C357.25 187.53 354.96 186.89 354.96 186.11C354.96 185.33 357.25 184.69 360.07 184.69C362.89 184.69 365.18 185.33 365.18 186.11Z" fill="white"/>
<path d="M342.77 157.93C342.59 158.69 340.21 158.79 337.47 158.14C334.73 157.49 332.63 156.36 332.81 155.6C332.99 154.84 335.36 154.74 338.11 155.39C340.86 156.04 342.94 157.17 342.77 157.93Z" fill="white"/>
<path d="M143.82 184.65C143.82 185.44 141.53 186.07 138.71 186.07C135.89 186.07 133.59 185.44 133.59 184.65C133.59 183.86 135.88 183.24 138.71 183.24C141.54 183.24 143.82 183.87 143.82 184.65Z" fill="white"/>
<path d="M181.81 108.23L181.45 107.88C192.81 96.1998 203.18 89.2698 214.06 86.0698L214.2 86.5498C203.4 89.7198 193.11 96.6098 181.81 108.23Z" fill="#6C63FF"/>
<path d="M218.822 84.7609L217.271 85.1548L217.395 85.6394L218.945 85.2456L218.822 84.7609Z" fill="#6C63FF"/>
</svg>
