<svg width="500" height="500" viewBox="0 0 500 500" fill="none" xmlns="http://www.w3.org/2000/svg">
<path d="M126.275 158.205C136.159 154.319 141.022 143.157 137.137 133.272C133.251 123.388 122.089 118.525 112.204 122.411C102.32 126.296 97.4574 137.459 101.343 147.343C105.228 157.227 116.391 162.09 126.275 158.205Z" fill="#EBEBEB"/>
<path d="M137.64 145.92C135.851 144.36 133.826 143.094 131.64 142.17C127.83 140.49 117.46 138.66 112.64 136.23C105.89 132.83 105.05 129.16 105.09 127.23C106.771 125.415 108.784 123.938 111.02 122.88C111.5 124.88 113.31 130.88 124.52 134.88C130.31 136.88 135.85 135.56 137.73 135.1C138.742 138.64 138.711 142.397 137.64 145.92Z" fill="#DBDBDB"/>
<path d="M129.79 156.41C126.102 158.827 121.696 159.907 117.309 159.468C112.921 159.03 108.816 157.1 105.68 154C106.772 153.413 107.93 152.956 109.13 152.64C114.3 151.38 119.99 153.85 122.07 155.02C124.396 156.385 127.133 156.878 129.79 156.41Z" fill="#DBDBDB"/>
<path d="M136.5 148.8L136.26 149.27L136.04 149.69C135.86 150.01 135.68 150.31 135.49 150.61C135.3 150.91 135.14 151.15 134.96 151.41L134.75 151.7L134.51 152.02L134.27 152.34L133.96 152.7L133.66 153.06L133.39 153.36C133.19 153.58 132.98 153.79 132.77 154C131.57 154.37 129.97 154.21 127.62 153.28C124.13 151.91 120.36 148.61 113.62 146.19C109.468 144.733 104.995 144.446 100.69 145.36C99.6475 141.525 99.8222 137.461 101.19 133.73C102.42 133.73 106.37 134.25 114.8 141.21C117.423 143.434 120.268 145.381 123.29 147.02C130.49 150.79 134.65 149.67 136.39 148.8H136.52H136.5Z" fill="#DBDBDB"/>
<path d="M118.22 156C118.56 155.22 119.76 155 120.9 155.48C122.04 155.96 122.69 157.02 122.34 157.8C121.99 158.58 120.8 158.8 119.66 158.32C118.52 157.84 117.88 156.83 118.22 156Z" fill="#C7C7C7"/>
<path d="M123.66 154.67C123.86 154.23 124.57 154.12 125.25 154.41C125.93 154.7 126.33 155.31 126.14 155.75C125.95 156.19 125.24 156.31 124.55 156.01C123.86 155.71 123.47 155.11 123.66 154.67Z" fill="#C7C7C7"/>
<path d="M108.75 131.05C109.04 130.38 110.08 130.19 111.08 130.63C112.08 131.07 112.65 131.96 112.36 132.63C112.07 133.3 111.02 133.49 110.02 133.05C109.02 132.61 108.45 131.72 108.75 131.05Z" fill="#C7C7C7"/>
<path d="M112.29 130.39C112.406 130.207 112.588 130.075 112.799 130.023C113.01 129.971 113.232 130.002 113.42 130.11C113.623 130.175 113.795 130.314 113.9 130.499C114.006 130.684 114.038 130.902 113.99 131.11C113.848 131.25 113.668 131.344 113.472 131.38C113.276 131.416 113.074 131.393 112.891 131.313C112.708 131.234 112.554 131.102 112.447 130.934C112.34 130.765 112.285 130.569 112.29 130.37V130.39Z" fill="#C7C7C7"/>
<path d="M112.86 132.17C112.937 132.059 113.053 131.982 113.185 131.954C113.317 131.926 113.455 131.95 113.57 132.02C113.87 132.15 114.04 132.43 113.94 132.64C113.84 132.85 113.53 132.92 113.23 132.79C112.93 132.66 112.77 132.39 112.86 132.17Z" fill="#C7C7C7"/>
<path d="M124.86 132.22C124.901 131.879 125.048 131.56 125.28 131.306C125.512 131.053 125.818 130.88 126.155 130.81C126.491 130.74 126.841 130.777 127.155 130.917C127.468 131.056 127.731 131.291 127.904 131.587C128.077 131.884 128.153 132.228 128.121 132.57C128.089 132.912 127.95 133.235 127.724 133.494C127.498 133.752 127.197 133.934 126.862 134.012C126.528 134.091 126.177 134.062 125.86 133.93C125.503 133.832 125.199 133.598 125.013 133.278C124.826 132.959 124.771 132.579 124.86 132.22Z" fill="#C7C7C7"/>
<path d="M124.4 134.84C124.446 134.693 124.535 134.563 124.656 134.467C124.777 134.372 124.924 134.316 125.078 134.306C125.231 134.296 125.385 134.333 125.517 134.412C125.649 134.491 125.754 134.608 125.818 134.749C125.882 134.889 125.902 135.045 125.875 135.197C125.848 135.348 125.776 135.488 125.668 135.598C125.559 135.708 125.421 135.782 125.269 135.811C125.118 135.84 124.961 135.822 124.82 135.76C124.645 135.69 124.504 135.556 124.425 135.384C124.347 135.213 124.338 135.018 124.4 134.84Z" fill="#C7C7C7"/>
<path d="M415.48 356.29C422.621 356.29 428.41 350.501 428.41 343.36C428.41 336.219 422.621 330.43 415.48 330.43C408.339 330.43 402.55 336.219 402.55 343.36C402.55 350.501 408.339 356.29 415.48 356.29Z" fill="#EBEBEB"/>
<path d="M420.19 335.69C420.22 336.309 420.052 336.922 419.71 337.44C419.364 337.976 418.876 338.405 418.3 338.68C417.712 338.979 417.032 339.04 416.4 338.85C415.805 338.655 415.295 338.259 414.96 337.73C415.416 338.077 415.947 338.313 416.51 338.42C416.771 338.465 417.039 338.465 417.3 338.42C417.564 338.378 417.82 338.297 418.06 338.18L418.42 337.98C418.53 337.9 418.65 337.83 418.75 337.75C418.974 337.586 419.175 337.395 419.35 337.18C419.722 336.741 420.007 336.235 420.19 335.69Z" fill="#C7C7C7"/>
<path d="M415.54 336.43C415.48 335.998 415.576 335.558 415.81 335.19C416.046 334.802 416.395 334.494 416.81 334.31C417.017 334.205 417.243 334.142 417.475 334.125C417.707 334.108 417.939 334.137 418.16 334.21C418.59 334.343 418.95 334.642 419.16 335.04C418.831 334.833 418.464 334.697 418.08 334.64C417.736 334.596 417.387 334.659 417.08 334.82C416.382 335.144 415.833 335.719 415.54 336.43Z" fill="#C7C7C7"/>
<path d="M415.48 349.44C415.625 349.837 415.625 350.273 415.48 350.67C415.344 351.089 415.082 351.456 414.73 351.72C414.381 351.989 413.942 352.113 413.505 352.066C413.067 352.02 412.664 351.806 412.38 351.47C412.736 351.581 413.107 351.631 413.48 351.62C413.812 351.599 414.13 351.477 414.39 351.27C414.668 351.061 414.902 350.799 415.08 350.5C415.271 350.171 415.407 349.813 415.48 349.44Z" fill="#C7C7C7"/>
<path d="M412.8 350.91C412.728 350.778 412.684 350.633 412.668 350.484C412.653 350.335 412.667 350.184 412.71 350.04C412.799 349.738 412.981 349.472 413.23 349.28C413.361 349.18 413.511 349.108 413.671 349.068C413.831 349.029 413.997 349.023 414.16 349.05C414.308 349.076 414.449 349.132 414.575 349.215C414.7 349.297 414.807 349.405 414.89 349.53C414.641 349.492 414.388 349.492 414.14 349.53C413.935 349.56 413.742 349.642 413.58 349.77C413.203 350.056 412.929 350.456 412.8 350.91Z" fill="#C7C7C7"/>
<path d="M410.82 337.8C410.934 337.906 411.026 338.034 411.09 338.177C411.154 338.319 411.188 338.474 411.19 338.63C411.193 338.973 411.06 339.304 410.82 339.55C410.696 339.671 410.546 339.763 410.381 339.819C410.217 339.874 410.042 339.892 409.87 339.87C409.563 339.836 409.277 339.699 409.06 339.48C409.327 339.49 409.595 339.474 409.86 339.43C410.07 339.395 410.265 339.297 410.42 339.15C410.573 338.992 410.686 338.8 410.75 338.59C410.816 338.332 410.839 338.065 410.82 337.8Z" fill="#C7C7C7"/>
<path d="M409.22 339.06C409.124 338.997 409.045 338.913 408.988 338.814C408.93 338.715 408.897 338.604 408.89 338.49C408.884 338.365 408.904 338.24 408.949 338.123C408.993 338.006 409.062 337.9 409.15 337.81C409.241 337.718 409.354 337.65 409.477 337.61C409.6 337.57 409.732 337.56 409.86 337.58C409.97 337.596 410.075 337.634 410.17 337.693C410.265 337.751 410.346 337.829 410.41 337.92C410.228 337.941 410.047 337.975 409.87 338.02C409.749 338.056 409.639 338.121 409.55 338.21C409.458 338.303 409.384 338.412 409.33 338.53C409.271 338.701 409.234 338.88 409.22 339.06Z" fill="#C7C7C7"/>
<path d="M419.81 351.44C419.735 351.578 419.632 351.699 419.508 351.795C419.384 351.892 419.242 351.961 419.09 352C418.922 352.047 418.747 352.059 418.575 352.035C418.403 352.011 418.238 351.951 418.09 351.86C417.943 351.771 417.818 351.651 417.725 351.507C417.631 351.363 417.571 351.2 417.55 351.03C417.506 350.722 417.569 350.407 417.73 350.14C417.784 350.405 417.868 350.663 417.98 350.91C418.06 351.105 418.2 351.27 418.38 351.38C418.571 351.492 418.788 351.554 419.01 351.56C419.281 351.562 419.551 351.522 419.81 351.44Z" fill="#C7C7C7"/>
<path d="M418.2 350.19C418.24 350.085 418.302 349.989 418.384 349.911C418.465 349.834 418.563 349.775 418.67 349.74C418.789 349.701 418.915 349.688 419.039 349.702C419.163 349.715 419.283 349.756 419.39 349.82C419.502 349.886 419.596 349.977 419.666 350.087C419.736 350.196 419.778 350.321 419.79 350.45C419.806 350.673 419.738 350.894 419.6 351.07C419.53 350.899 419.45 350.732 419.36 350.57C419.304 350.461 419.217 350.371 419.11 350.31C418.998 350.24 418.871 350.196 418.74 350.18C418.561 350.154 418.378 350.157 418.2 350.19Z" fill="#C7C7C7"/>
<path d="M424.24 342.34C424.253 342.495 424.235 342.651 424.187 342.798C424.139 342.946 424.061 343.083 423.96 343.2C423.85 343.328 423.715 343.433 423.564 343.509C423.413 343.584 423.248 343.629 423.08 343.64C422.907 343.65 422.734 343.62 422.574 343.552C422.415 343.484 422.273 343.381 422.16 343.25C421.947 343.024 421.823 342.73 421.81 342.42C422.001 342.608 422.213 342.776 422.44 342.92C422.62 343.03 422.828 343.086 423.04 343.08C423.261 343.063 423.474 342.991 423.66 342.87C423.881 342.727 424.077 342.548 424.24 342.34Z" fill="#C7C7C7"/>
<path d="M422.2 342.21C422.173 342.1 422.172 341.985 422.196 341.874C422.22 341.763 422.269 341.659 422.34 341.57C422.419 341.472 422.518 341.391 422.63 341.333C422.741 341.275 422.864 341.239 422.99 341.23C423.119 341.221 423.248 341.244 423.367 341.296C423.485 341.348 423.589 341.429 423.67 341.53C423.81 341.705 423.877 341.927 423.86 342.15C423.707 342.045 423.546 341.951 423.38 341.87C423.268 341.813 423.144 341.786 423.02 341.79C422.888 341.801 422.759 341.835 422.64 341.89C422.481 341.979 422.334 342.087 422.2 342.21Z" fill="#C7C7C7"/>
<path d="M407.1 345.26C407.118 345.416 407.103 345.573 407.056 345.723C407.01 345.873 406.933 346.011 406.83 346.13C406.72 346.258 406.585 346.363 406.434 346.438C406.283 346.514 406.118 346.559 405.95 346.57C405.776 346.579 405.601 346.549 405.44 346.481C405.279 346.414 405.136 346.311 405.02 346.18C404.815 345.949 404.692 345.657 404.67 345.35C404.867 345.536 405.081 345.704 405.31 345.85C405.49 345.961 405.698 346.017 405.91 346.01C406.131 345.992 406.344 345.92 406.53 345.8C406.754 345.659 406.947 345.476 407.1 345.26Z" fill="#C7C7C7"/>
<path d="M405.07 345.14C405.043 345.03 405.042 344.915 405.066 344.804C405.09 344.693 405.139 344.589 405.21 344.5C405.287 344.401 405.383 344.32 405.494 344.262C405.604 344.203 405.725 344.169 405.85 344.16C405.979 344.15 406.109 344.173 406.227 344.225C406.346 344.277 406.45 344.358 406.53 344.46C406.602 344.545 406.657 344.644 406.691 344.75C406.726 344.856 406.739 344.968 406.73 345.08C406.577 344.975 406.416 344.881 406.25 344.8C406.14 344.74 406.015 344.712 405.89 344.72C405.758 344.731 405.63 344.765 405.51 344.82C405.351 344.909 405.204 345.017 405.07 345.14Z" fill="#C7C7C7"/>
<path d="M370.11 60.1501L373.55 56.7201C374.021 56.2476 374.286 55.6075 374.286 54.9401C374.286 54.2727 374.021 53.6325 373.55 53.1601C373.317 52.9242 373.04 52.737 372.734 52.6092C372.429 52.4813 372.101 52.4155 371.77 52.4155C371.438 52.4155 371.111 52.4813 370.805 52.6092C370.499 52.737 370.222 52.9242 369.99 53.1601L366.55 56.5901C366.078 57.0625 365.813 57.7027 365.813 58.3701C365.813 59.0375 366.078 59.6776 366.55 60.1501C367.022 60.6215 367.662 60.8863 368.33 60.8863C368.997 60.8863 369.637 60.6215 370.11 60.1501Z" fill="#EBEBEB"/>
<path d="M417 94.1902L419.18 89.8502C419.331 89.5552 419.421 89.2332 419.447 88.9028C419.472 88.5725 419.431 88.2404 419.327 87.9259C419.223 87.6114 419.057 87.3208 418.84 87.0709C418.622 86.821 418.357 86.6168 418.06 86.4702C417.765 86.3208 417.443 86.2312 417.113 86.2066C416.783 86.1821 416.451 86.223 416.137 86.3271C415.823 86.4312 415.532 86.5964 415.282 86.8132C415.032 87.0299 414.828 87.294 414.68 87.5902L412.5 91.9302C412.204 92.5275 412.155 93.2177 412.365 93.8506C412.574 94.4835 413.026 95.0081 413.62 95.3102C414.217 95.6093 414.908 95.6594 415.542 95.4494C416.175 95.2394 416.7 94.7865 417 94.1902Z" fill="#EBEBEB"/>
<path d="M387 50.4499L389.58 50.0899C389.908 50.0433 390.223 49.9326 390.508 49.7641C390.793 49.5957 391.042 49.3727 391.24 49.1081C391.439 48.8434 391.584 48.5422 391.666 48.2217C391.748 47.9011 391.767 47.5675 391.72 47.2399C391.674 46.9122 391.563 46.5969 391.394 46.3121C391.226 46.0272 391.003 45.7783 390.738 45.5796C390.474 45.3808 390.173 45.2362 389.852 45.1539C389.531 45.0716 389.198 45.0532 388.87 45.0999L386.29 45.4699C385.963 45.5165 385.647 45.6271 385.362 45.7956C385.077 45.964 384.829 46.187 384.63 46.4516C384.431 46.7163 384.286 47.0175 384.204 47.338C384.122 47.6586 384.104 47.9922 384.15 48.3199C384.197 48.6472 384.307 48.9621 384.476 49.2465C384.645 49.5309 384.868 49.7791 385.133 49.9771C385.397 50.175 385.699 50.3186 386.019 50.3998C386.34 50.4809 386.673 50.4979 387 50.4499Z" fill="#EBEBEB"/>
<path d="M366.46 84.53L366.09 81.94C365.994 81.2801 365.64 80.6854 365.105 80.2861C364.571 79.8869 363.901 79.7157 363.24 79.81C362.913 79.8566 362.597 79.9673 362.313 80.1358C362.028 80.3042 361.779 80.5271 361.58 80.7918C361.381 81.0564 361.237 81.3576 361.154 81.6782C361.072 81.9988 361.054 82.3324 361.1 82.66L361.47 85.24C361.567 85.9006 361.921 86.4962 362.455 86.897C362.988 87.2979 363.659 87.4715 364.32 87.38C364.648 87.3334 364.963 87.2227 365.248 87.0543C365.533 86.8858 365.782 86.6629 365.981 86.3983C366.179 86.1336 366.324 85.8324 366.406 85.5119C366.489 85.1913 366.507 84.8577 366.46 84.53Z" fill="#EBEBEB"/>
<path d="M421.83 79.44V76.12C421.83 74.927 420.863 73.96 419.67 73.96H418.96C417.767 73.96 416.8 74.927 416.8 76.12V79.44C416.8 80.6329 417.767 81.6 418.96 81.6H419.67C420.863 81.6 421.83 80.6329 421.83 79.44Z" fill="#EBEBEB"/>
<path d="M382.28 106.41L384.8 107.09C385.444 107.261 386.13 107.17 386.707 106.836C387.285 106.503 387.706 105.954 387.88 105.31C387.966 104.99 387.988 104.657 387.946 104.328C387.903 104 387.796 103.683 387.63 103.396C387.465 103.109 387.245 102.857 386.982 102.656C386.719 102.454 386.42 102.306 386.1 102.22L383.58 101.55C383.261 101.464 382.928 101.442 382.6 101.485C382.272 101.528 381.956 101.635 381.67 101.8C381.384 101.966 381.133 102.186 380.932 102.448C380.731 102.711 380.584 103.011 380.5 103.33C380.414 103.649 380.391 103.982 380.434 104.31C380.477 104.638 380.585 104.954 380.75 105.24C380.915 105.526 381.136 105.777 381.398 105.978C381.661 106.178 381.96 106.325 382.28 106.41Z" fill="#EBEBEB"/>
<path d="M391 105.74C407.044 105.74 420.05 92.734 420.05 76.6901C420.05 60.6463 407.044 47.6401 391 47.6401C374.956 47.6401 361.95 60.6463 361.95 76.6901C361.95 92.734 374.956 105.74 391 105.74Z" fill="#EBEBEB"/>
<path d="M401.57 59.46C401.642 60.8552 401.264 62.2365 400.49 63.4C399.716 64.601 398.626 65.5661 397.34 66.19C396.016 66.8546 394.487 66.9836 393.07 66.55C391.729 66.1267 390.578 65.2453 389.82 64.06C390.856 64.8213 392.048 65.3438 393.31 65.59C393.899 65.6949 394.502 65.6949 395.09 65.59C395.68 65.5047 396.251 65.3223 396.78 65.05C397.058 64.9171 397.328 64.7702 397.59 64.61C397.85 64.44 398.11 64.28 398.35 64.09C398.845 63.7169 399.298 63.291 399.7 62.82C400.537 61.8327 401.172 60.6912 401.57 59.46Z" fill="#C7C7C7"/>
<path d="M391.13 61.13C390.994 60.1616 391.207 59.1764 391.73 58.35C392.249 57.4842 393.01 56.789 393.92 56.35C394.38 56.1166 394.883 55.9769 395.398 55.9392C395.913 55.9014 396.43 55.9663 396.92 56.13C397.868 56.4434 398.658 57.1142 399.12 58C398.383 57.5465 397.564 57.2439 396.71 57.11C395.94 57.0202 395.161 57.1593 394.47 57.51C392.944 58.2577 391.752 59.5489 391.13 61.13Z" fill="#C7C7C7"/>
<path d="M381.29 81.0801C381.648 81.9645 381.672 82.9487 381.36 83.8501C381.053 84.7867 380.467 85.6069 379.68 86.2001C379.279 86.5143 378.82 86.7445 378.328 86.8769C377.837 87.0092 377.324 87.0409 376.82 86.9701C375.871 86.8419 375.004 86.364 374.39 85.6301C375.189 85.8949 376.029 86.0135 376.87 85.9801C377.6 85.9211 378.296 85.6461 378.87 85.1901C379.494 84.7199 380.021 84.1322 380.42 83.4601C380.844 82.7223 381.138 81.9173 381.29 81.0801Z" fill="#C7C7C7"/>
<path d="M375.27 84.3798C374.952 83.7804 374.883 83.0794 375.08 82.4298C375.268 81.7505 375.676 81.1527 376.24 80.7298C376.531 80.503 376.867 80.3396 377.225 80.25C377.583 80.1605 377.956 80.1468 378.32 80.2098C378.66 80.2599 378.985 80.3812 379.274 80.5655C379.564 80.7499 379.811 80.9933 380 81.2798C379.441 81.1663 378.867 81.1394 378.3 81.1998C377.84 81.2679 377.406 81.454 377.04 81.7398C376.175 82.4007 375.553 83.3288 375.27 84.3798Z" fill="#C7C7C7"/>
<path d="M370.87 74.6201C371.128 74.8572 371.334 75.1445 371.477 75.4644C371.62 75.7842 371.696 76.1299 371.7 76.4801C371.7 77.2286 371.405 77.947 370.88 78.4801C370.606 78.7586 370.271 78.9695 369.901 79.0962C369.531 79.2229 369.137 79.2619 368.75 79.2101C368.059 79.1364 367.413 78.8295 366.92 78.3401C367.526 78.355 368.131 78.3149 368.73 78.2201C369.201 78.1432 369.638 77.9233 369.98 77.5901C370.327 77.2396 370.579 76.8057 370.71 76.3301C370.859 75.7732 370.913 75.1951 370.87 74.6201Z" fill="#C7C7C7"/>
<path d="M367.27 77.4401C367.059 77.2942 366.885 77.1021 366.76 76.8785C366.636 76.6549 366.564 76.4058 366.55 76.1501C366.535 75.8702 366.578 75.5903 366.678 75.3285C366.778 75.0666 366.932 74.8287 367.13 74.6301C367.331 74.4224 367.581 74.2673 367.856 74.1783C368.132 74.0894 368.425 74.0694 368.71 74.1201C368.958 74.1556 369.196 74.2402 369.41 74.369C369.625 74.4978 369.812 74.6682 369.96 74.8701C369.546 74.9261 369.135 75.0063 368.73 75.1101C368.465 75.1844 368.224 75.3256 368.03 75.5201C367.821 75.7293 367.654 75.9773 367.54 76.2501C367.397 76.6329 367.306 77.0331 367.27 77.4401Z" fill="#C7C7C7"/>
<path d="M410.67 66C410.703 66.3484 410.665 66.6999 410.558 67.0332C410.452 67.3666 410.279 67.675 410.05 67.94C409.802 68.2333 409.497 68.4732 409.153 68.6451C408.809 68.817 408.434 68.9173 408.05 68.94C407.662 68.9611 407.274 68.8937 406.915 68.743C406.557 68.5923 406.237 68.3622 405.98 68.07C405.511 67.556 405.235 66.8949 405.2 66.2C405.638 66.6171 406.117 66.989 406.63 67.31C407.027 67.5694 407.497 67.6955 407.97 67.67C408.464 67.6368 408.941 67.4823 409.36 67.22C409.86 66.8868 410.302 66.4748 410.67 66Z" fill="#C7C7C7"/>
<path d="M406.11 65.7301C406.048 65.4824 406.043 65.2236 406.097 64.9738C406.151 64.7241 406.261 64.4901 406.42 64.2901C406.594 64.0695 406.811 63.8879 407.059 63.7569C407.307 63.626 407.58 63.5487 407.86 63.5301C408.151 63.5127 408.442 63.5654 408.708 63.6837C408.974 63.8021 409.208 63.9826 409.39 64.2101C409.551 64.4016 409.671 64.6232 409.745 64.8618C409.819 65.1005 409.845 65.3515 409.82 65.6001C409.474 65.3671 409.113 65.1567 408.74 64.9701C408.495 64.8399 408.218 64.781 407.94 64.8001C407.646 64.8201 407.357 64.8947 407.09 65.0201C406.734 65.213 406.404 65.4517 406.11 65.7301Z" fill="#C7C7C7"/>
<path d="M402.832 82.4584C404.28 79.21 402.837 75.4097 399.609 73.9704C396.381 72.531 392.589 73.9976 391.141 77.2461C389.693 80.4945 391.136 84.2948 394.364 85.7341C397.592 87.1735 401.383 85.7069 402.832 82.4584Z" fill="#DBDBDB"/>
<path d="M400 76.8401C400.835 77.2143 401.571 77.7808 402.146 78.4933C402.721 79.2058 403.12 80.0442 403.31 80.9401C403.486 79.8774 403.392 78.7873 403.036 77.7706C402.679 76.7538 402.073 75.8433 401.272 75.1231C400.47 74.4028 399.501 73.8961 398.452 73.6498C397.403 73.4035 396.309 73.4254 395.271 73.7137C394.233 74.0019 393.284 74.5471 392.513 75.2989C391.741 76.0508 391.172 76.9849 390.856 78.0151C390.541 79.0453 390.491 80.1383 390.71 81.1931C390.929 82.2479 391.41 83.2305 392.11 84.0501C391.636 82.6626 391.708 81.1469 392.31 79.8101C392.938 78.3985 394.1 77.2933 395.541 76.7367C396.982 76.18 398.586 76.2172 400 76.8401Z" fill="#C7C7C7"/>
<path d="M405.88 81C405.917 82.7073 405.425 84.3842 404.47 85.8C403.501 87.2486 402.166 88.4148 400.6 89.18C398.993 89.9805 397.144 90.1482 395.42 89.65C393.787 89.1284 392.378 88.0714 391.42 86.65C392.671 87.6408 394.137 88.3257 395.7 88.65C396.074 88.7069 396.452 88.7437 396.83 88.76C397.202 88.7652 397.574 88.7351 397.94 88.67C398.657 88.5533 399.352 88.3274 400 88C400.34 87.83 400.69 87.64 401 87.45C401.31 87.26 401.65 87.03 401.94 86.78C402.554 86.3097 403.114 85.7731 403.61 85.18C404.647 83.9586 405.42 82.5353 405.88 81Z" fill="#C7C7C7"/>
<path d="M412.91 83.3902C413.373 83.501 413.858 83.4719 414.304 83.3066C414.75 83.1412 415.137 82.847 415.415 82.4613C415.694 82.0757 415.851 81.616 415.868 81.1406C415.885 80.6652 415.76 80.1955 415.509 79.7913C415.258 79.387 414.893 79.0664 414.46 78.8701C414.026 78.6738 413.545 78.6107 413.075 78.6888C412.606 78.7669 412.171 78.9827 411.824 79.3088C411.478 79.6348 411.236 80.0565 411.13 80.5202C410.986 81.1367 411.093 81.7853 411.426 82.3234C411.76 82.8615 412.294 83.2451 412.91 83.3902Z" fill="#DBDBDB"/>
<path d="M414.34 79.73C414.673 79.8081 414.984 79.9637 415.246 80.1844C415.509 80.4051 415.715 80.6845 415.85 81C415.834 80.4685 415.645 79.9566 415.311 79.543C414.977 79.1293 414.516 78.8367 414 78.71C413.379 78.5697 412.728 78.6815 412.19 79.0209C411.652 79.3603 411.27 79.8995 411.13 80.52C411.025 80.96 411.049 81.4207 411.197 81.8477C411.346 82.2748 411.614 82.6503 411.97 82.93C411.693 82.4562 411.61 81.8934 411.74 81.36C411.868 80.7991 412.214 80.3123 412.702 80.0066C413.19 79.7009 413.779 79.6014 414.34 79.73Z" fill="#C7C7C7"/>
<path d="M416.78 80.8198C416.95 81.4424 416.908 82.104 416.66 82.6998C416.419 83.3167 416.01 83.8537 415.48 84.2498C414.938 84.6714 414.253 84.8651 413.57 84.7898C412.922 84.7134 412.323 84.4085 411.88 83.9298C412.417 84.1751 413 84.3013 413.59 84.2998C414.138 84.2772 414.666 84.085 415.1 83.7498C415.561 83.3977 415.947 82.9572 416.235 82.4541C416.524 81.951 416.709 81.3954 416.78 80.8198Z" fill="#C7C7C7"/>
<path d="M396.44 98.9399C397.113 98.9785 397.783 98.8163 398.365 98.4739C398.946 98.1314 399.413 97.6242 399.706 97.0163C399.999 96.4084 400.105 95.7272 400.011 95.059C399.917 94.3908 399.626 93.7656 399.177 93.2625C398.727 92.7595 398.138 92.4012 397.484 92.233C396.831 92.0649 396.142 92.0944 395.505 92.3179C394.868 92.5414 394.312 92.9488 393.907 93.4886C393.502 94.0283 393.266 94.6761 393.23 95.3499C393.181 96.2513 393.491 97.1355 394.093 97.8084C394.694 98.4814 395.538 98.8883 396.44 98.9399Z" fill="#DBDBDB"/>
<path d="M397.54 93.4601C398.024 93.4868 398.494 93.6275 398.913 93.8708C399.332 94.1142 399.687 94.4531 399.95 94.8601C399.836 94.2999 399.582 93.7775 399.212 93.3414C398.842 92.9053 398.369 92.5695 397.835 92.365C397.301 92.1605 396.724 92.094 396.157 92.1716C395.591 92.2492 395.053 92.4684 394.594 92.8089C394.135 93.1495 393.768 93.6003 393.53 94.1198C393.291 94.6393 393.187 95.2106 393.227 95.781C393.268 96.3513 393.451 96.9022 393.761 97.3827C394.071 97.8633 394.497 98.2579 395 98.5301C394.618 98.0668 394.378 97.5025 394.31 96.9056C394.243 96.3087 394.35 95.705 394.619 95.1679C394.888 94.6309 395.307 94.1835 395.826 93.8803C396.345 93.5771 396.94 93.4311 397.54 93.4601Z" fill="#C7C7C7"/>
<path d="M401.22 94.3799C401.548 95.2207 401.614 96.1408 401.41 97.0199C401.21 97.9194 400.771 98.7485 400.14 99.4199C399.504 100.122 398.624 100.554 397.68 100.63C396.774 100.693 395.872 100.45 395.12 99.9399C395.925 100.208 396.783 100.277 397.62 100.14C398.411 99.9902 399.133 99.5906 399.68 98.9999C400.244 98.3968 400.673 97.6811 400.94 96.8999C401.207 96.0883 401.302 95.2302 401.22 94.3799Z" fill="#C7C7C7"/>
<path d="M381.24 65.9999C379.71 68.3499 376.31 68.8499 373.66 67.1099C371.01 65.3699 370.09 62.0599 371.66 59.7099C373.23 57.3599 376.59 56.8699 379.25 58.5999C381.91 60.3299 382.78 63.6899 381.24 65.9999Z" fill="#DBDBDB"/>
<path d="M372.8 61.9999C372.399 62.6338 372.166 63.3591 372.122 64.1076C372.079 64.8562 372.226 65.6036 372.55 66.2799C371.683 65.4629 371.12 64.3755 370.952 63.1961C370.785 62.0167 371.024 60.8156 371.63 59.7899C373.16 57.4399 376.56 56.9399 379.22 58.6799C380.106 59.223 380.832 59.9934 381.321 60.9112C381.81 61.8291 382.044 62.8609 382 63.8999C381.612 62.6623 380.801 61.6004 379.71 60.8999C377.28 59.3699 374.19 59.8199 372.8 61.9999Z" fill="#C7C7C7"/>
<path d="M383.12 62.1602C383.511 62.767 383.779 63.4451 383.907 64.1555C384.036 64.8659 384.023 65.5947 383.87 66.3002C383.703 67.0281 383.379 67.7108 382.92 68.3002C382.462 68.9046 381.9 69.4227 381.26 69.8302C380.594 70.2031 379.865 70.4506 379.11 70.5602C378.381 70.6506 377.643 70.6304 376.92 70.5002C375.528 70.2499 374.213 69.6781 373.08 68.8302C374.367 69.2042 375.692 69.4323 377.03 69.5102C378.273 69.6013 379.515 69.3341 380.61 68.7402C381.134 68.4364 381.604 68.0478 382 67.5902C382.407 67.1291 382.726 66.5969 382.94 66.0202C383.348 64.7735 383.41 63.4394 383.12 62.1602Z" fill="#C7C7C7"/>
<path d="M420.165 424.34C426.343 401.293 412.668 377.603 389.621 371.425C366.575 365.248 342.884 378.923 336.707 401.969C330.529 425.016 344.204 448.707 367.251 454.884C390.297 461.061 413.988 447.386 420.165 424.34Z" fill="#455A64"/>
<path d="M416.74 399.89C411.46 399.353 406.128 399.65 400.94 400.77C391.8 402.6 370.47 412.58 358.57 414.32C341.84 416.78 335.57 411.15 333.21 407.63C333.951 402.145 335.744 396.855 338.49 392.05C341.87 395 352.98 403.77 378.58 396.58C391.78 392.86 400.17 383.24 403.02 379.98C409.414 385.158 414.177 392.072 416.74 399.89Z" fill="#37474F"/>
<path d="M415.87 429.18C412.234 438.354 405.558 446 396.958 450.838C388.359 455.677 378.358 457.415 368.63 455.76C369.861 453.272 371.389 450.942 373.18 448.82C381.02 439.82 394.62 437.06 399.93 436.52C405.949 436.056 411.604 433.452 415.87 429.18Z" fill="#37474F"/>
<path d="M418.36 406.64C418.43 407.03 418.48 407.41 418.53 407.8C418.58 408.19 418.62 408.51 418.66 408.86C418.74 409.66 418.81 410.46 418.84 411.25C418.87 412.04 418.9 412.69 418.9 413.39C418.9 413.66 418.9 413.92 418.9 414.19C418.9 414.46 418.9 414.79 418.9 415.08C418.9 415.37 418.9 415.68 418.9 415.98C418.9 416.28 418.85 416.68 418.82 417.04C418.79 417.4 418.76 417.74 418.72 418.04C418.68 418.34 418.64 418.64 418.61 418.94C418.52 419.6 418.42 420.24 418.3 420.89C416.58 423.1 413.44 424.89 407.96 426.2C399.8 428.2 388.67 427 373.2 431.26C363.73 433.942 355.177 439.168 348.47 446.37C341.63 440.703 336.72 433.05 334.42 424.47C336.61 422.8 344.57 418.74 368.93 420.63C376.587 421.318 384.294 421.217 391.93 420.33C409.93 417.97 416.14 410.56 418.2 406.72C418.252 406.691 418.305 406.664 418.36 406.64Z" fill="#37474F"/>
<path d="M358.4 395.52C358.77 397.4 356.85 399.35 354.12 399.87C351.39 400.39 348.89 399.31 348.52 397.43C348.15 395.55 350.08 393.61 352.8 393.08C355.52 392.55 358 393.65 358.4 395.52Z" fill="#263238"/>
<path d="M350.11 404.94C350.31 406 349.11 407.11 347.51 407.43C345.91 407.75 344.38 407.15 344.18 406.09C343.98 405.03 345.13 403.92 346.77 403.6C348.41 403.28 349.9 403.89 350.11 404.94Z" fill="#263238"/>
<path d="M407.54 429.57C407.85 431.17 406.16 432.84 403.78 433.31C401.4 433.78 399.2 432.84 398.89 431.24C398.58 429.64 400.26 427.96 402.65 427.5C405.04 427.04 407.23 428 407.54 429.57Z" fill="#263238"/>
<path d="M401.85 435.28C402.02 436.13 401.24 437 400.11 437.22C399.648 437.368 399.147 437.33 398.713 437.116C398.278 436.901 397.944 436.526 397.78 436.07C397.61 435.22 398.39 434.35 399.52 434.13C399.982 433.982 400.483 434.02 400.917 434.234C401.352 434.449 401.687 434.824 401.85 435.28Z" fill="#263238"/>
<path d="M398.54 432.72C398.64 433.23 398.14 433.72 397.42 433.9C396.7 434.08 396.04 433.73 395.94 433.22C395.84 432.71 396.34 432.22 397.06 432.04C397.78 431.86 398.44 432.21 398.54 432.72Z" fill="#263238"/>
<path d="M376.35 447.84C376.63 449.28 375.35 450.74 373.35 451.11C371.35 451.48 369.67 450.61 369.35 449.18C369.03 447.75 370.35 446.29 372.3 445.92C374.25 445.55 376.08 446.41 376.35 447.84Z" fill="#263238"/>
<path d="M373.89 442.43C373.995 442.761 373.998 443.115 373.897 443.447C373.796 443.779 373.596 444.073 373.325 444.288C373.053 444.504 372.722 444.632 372.376 444.656C372.03 444.679 371.685 444.597 371.387 444.419C371.088 444.242 370.851 443.978 370.707 443.663C370.562 443.347 370.517 442.995 370.577 442.654C370.637 442.312 370.799 441.997 371.043 441.75C371.286 441.502 371.599 441.335 371.94 441.27C372.144 441.218 372.357 441.206 372.565 441.236C372.774 441.266 372.975 441.337 373.156 441.445C373.337 441.552 373.495 441.695 373.621 441.864C373.747 442.033 373.839 442.226 373.89 442.43Z" fill="#263238"/>
<path d="M418.84 411.25C406.963 417.566 394.729 423.186 382.2 428.08C369.403 433.197 356.309 437.539 342.99 441.08C322.38 446.44 307.69 447.37 305.8 442.58C303.91 437.79 314.99 428.49 333.16 418.5C333.28 419.5 333.44 420.5 333.63 421.5L333.87 422.64C324.65 428.5 319.53 433.57 320.68 436.49C321.83 439.41 329.26 439.63 340.27 437.49C351.05 435.41 365.27 431.13 380.5 425.12C395.73 419.11 409.07 412.48 418.36 406.61C427.82 400.66 433.09 395.48 431.92 392.52C430.75 389.56 423.59 389.41 412.92 391.41C412.182 390.146 411.374 388.924 410.5 387.75C431.01 382.44 446.03 381.63 447.92 386.41C449.81 391.19 438.08 400.88 418.84 411.25Z" fill="#263238"/>
<path d="M418.86 415.07C407.214 421.16 395.261 426.648 383.05 431.51C370.929 436.411 358.562 440.683 346 444.31C317.86 452.31 296.94 453.9 294.22 447.13C291.5 440.36 307.41 427.33 332.85 413.82C332.85 414.48 332.85 415.15 332.93 415.82C311.82 427.46 298.93 438.5 301.25 444.31C303.57 450.12 320.88 449.18 344.56 442.84C370.371 435.694 395.303 425.685 418.89 413C440.29 401.26 453.38 390.09 451.03 384.24C448.68 378.39 431.86 379.35 408.65 385.47C408.22 384.96 407.77 384.47 407.31 383.97C434.94 376.2 455.39 374.74 458.07 381.43C460.75 388.12 444.64 401.45 418.86 415.07Z" fill="#37474F"/>
<path d="M194.2 208.66C189.773 207.976 185.474 206.627 181.45 204.66C162.09 195.26 160.01 172.48 157.81 148.36C155.81 126.14 153.68 103.17 138.14 89.2998C105.79 60.4598 54.7898 81.4898 54.2798 81.7098L50.0898 71.8298C60.6913 67.6613 71.8154 64.9695 83.1498 63.8298C108.15 61.3098 129.67 67.3298 145.27 81.2498C163.98 97.9298 166.38 124.18 168.49 147.34C170.49 169.27 172.22 188.21 186.13 194.96C215.29 209.11 234.57 173.77 235.37 172.26L244.85 177.26C240.525 184.928 234.921 191.801 228.28 197.58C217.57 206.71 206 210.43 194.2 208.66Z" fill="#6C63FF"/>
<path opacity="0.1" d="M194.2 208.66C189.773 207.976 185.474 206.627 181.45 204.66C162.09 195.26 160.01 172.48 157.81 148.36C155.81 126.14 153.68 103.17 138.14 89.2998C105.79 60.4598 54.7898 81.4898 54.2798 81.7098L50.0898 71.8298C60.6913 67.6613 71.8154 64.9695 83.1498 63.8298C108.15 61.3098 129.67 67.3298 145.27 81.2498C163.98 97.9298 166.38 124.18 168.49 147.34C170.49 169.27 172.22 188.21 186.13 194.96C215.29 209.11 234.57 173.77 235.37 172.26L244.85 177.26C240.525 184.928 234.921 191.801 228.28 197.58C217.57 206.71 206 210.43 194.2 208.66Z" fill="black"/>
<path opacity="0.1" d="M244.85 177.29C240.527 184.956 234.922 191.826 228.28 197.6C221.84 203.08 215.08 206.6 208.15 208.16L196.08 198C219.6 201.15 234.66 173.55 235.38 172.23L244.85 177.29Z" fill="black"/>
<path d="M278.67 229.5C277.72 230.06 221.1 211.19 218.67 209.44C218.554 209.358 218.45 209.26 218.36 209.15C215.59 206.42 205.12 187.15 204.36 185.64C202.52 181.79 259.57 133.71 270.18 129.25C272.84 128.13 307.69 140.59 312.91 145.65C315.15 147.82 319.36 156.6 319.13 157.8C318.76 159.52 279.63 228.94 278.67 229.5Z" fill="#6C63FF"/>
<path opacity="0.1" d="M278.67 229.5C277.72 230.06 221.1 211.19 218.67 209.44C218.554 209.358 218.45 209.26 218.36 209.15C215.59 206.42 205.12 187.15 204.36 185.64C202.52 181.79 259.57 133.71 270.18 129.25C272.84 128.13 307.69 140.59 312.91 145.65C315.15 147.82 319.36 156.6 319.13 157.8C318.76 159.52 279.63 228.94 278.67 229.5Z" fill="black"/>
<path opacity="0.1" d="M278.67 229.5C277.72 230.06 221.1 211.19 218.67 209.44C218.555 209.358 218.45 209.26 218.36 209.15C228.6 197.3 276.72 141.73 277.58 141.59C278.44 141.45 311.42 154.24 319.14 157.81C318.76 159.52 279.63 228.94 278.67 229.5Z" fill="black"/>
<path d="M196.48 344.63L151.36 367.36C142.72 371.65 135.22 375.58 131.53 377.97C131.511 377.963 131.49 377.963 131.47 377.97C130.07 378.87 129.23 379.54 129.11 379.97V380.05C128.65 383.49 160.98 453.58 162.93 455.64C164.88 457.7 170.93 452.31 171.84 448.59C172.75 444.87 172.37 412.49 172.37 412.49L217.22 389.36L196.48 344.63Z" fill="#455A64"/>
<path d="M122.25 383L123.86 386.65C124.28 386.497 124.723 386.419 125.17 386.42C126.039 386.422 126.882 386.713 127.567 387.249C128.251 387.785 128.736 388.533 128.947 389.377C129.157 390.22 129.08 391.109 128.727 391.903C128.374 392.697 127.766 393.351 127 393.76L128.45 397.08C128.884 396.915 129.345 396.83 129.81 396.83C130.683 396.829 131.53 397.123 132.217 397.662C132.903 398.202 133.387 398.956 133.593 399.804C133.798 400.653 133.713 401.545 133.349 402.339C132.986 403.133 132.366 403.781 131.59 404.18L133.05 407.51C133.491 407.328 133.963 407.236 134.44 407.24C135.472 407.24 136.461 407.65 137.191 408.379C137.92 409.109 138.33 410.098 138.33 411.13C138.335 411.853 138.136 412.564 137.755 413.179C137.375 413.795 136.829 414.291 136.18 414.61L137.64 417.92C138.103 417.742 138.594 417.651 139.09 417.65C139.973 417.647 140.832 417.945 141.523 418.494C142.215 419.044 142.699 419.813 142.896 420.674C143.092 421.535 142.99 422.438 142.605 423.233C142.221 424.028 141.577 424.669 140.78 425.05L142.24 428.36C142.709 428.163 143.212 428.061 143.72 428.06C144.608 428.056 145.47 428.357 146.163 428.911C146.857 429.465 147.34 430.239 147.533 431.106C147.726 431.972 147.616 432.878 147.223 433.674C146.829 434.47 146.176 435.107 145.37 435.48L146.83 438.79C147.307 438.573 147.826 438.464 148.35 438.47C149.237 438.474 150.097 438.78 150.787 439.338C151.477 439.896 151.955 440.673 152.144 441.54C152.333 442.407 152.22 443.313 151.825 444.107C151.43 444.902 150.775 445.538 149.97 445.91L151.43 449.23C151.921 448.998 152.457 448.878 153 448.88C153.891 448.885 154.753 449.195 155.444 449.759C156.134 450.322 156.61 451.105 156.794 451.977C156.977 452.849 156.857 453.757 156.452 454.551C156.048 455.345 155.383 455.976 154.57 456.34L155.94 459.46L162.94 455.67L129.11 380L122.25 383Z" fill="#37474F"/>
<path d="M144.47 373.18C145.633 375.13 146.377 377.301 146.656 379.555C146.935 381.808 146.742 384.095 146.09 386.27C144.91 389.83 142.57 393.63 138.81 395.57C138.7 395.63 138.59 395.43 138.69 395.36C145.09 390.44 147.69 380.67 144.25 373.3C144.243 373.272 144.246 373.243 144.258 373.217C144.269 373.192 144.289 373.17 144.314 373.156C144.339 373.143 144.368 373.138 144.396 373.142C144.424 373.146 144.45 373.16 144.47 373.18Z" fill="#37474F"/>
<path d="M153.72 369.74C156.6 374.51 159.09 379.52 161.52 384.53C163.95 389.54 166.3 394.47 168.65 399.46C169.99 402.32 171.33 405.19 172.51 408.12C172.528 408.159 172.531 408.203 172.517 408.243C172.503 408.284 172.473 408.317 172.435 408.335C172.396 408.354 172.352 408.356 172.312 408.342C172.271 408.328 172.238 408.299 172.22 408.26C169.41 403.45 166.95 398.42 164.43 393.46C161.91 388.5 159.43 383.61 157.09 378.63C155.72 375.77 154.44 372.89 153.29 369.94C153.274 369.885 153.278 369.826 153.302 369.774C153.326 369.722 153.367 369.68 153.419 369.656C153.471 369.632 153.53 369.627 153.585 369.643C153.64 369.658 153.688 369.693 153.72 369.74Z" fill="#37474F"/>
<path d="M157.88 368.33C160.77 373.1 163.25 378.11 165.68 383.13C168.11 388.15 170.46 393.07 172.81 398.06C174.15 400.92 175.49 403.79 176.67 406.71C176.679 406.729 176.684 406.75 176.686 406.771C176.687 406.792 176.684 406.813 176.677 406.833C176.67 406.853 176.659 406.871 176.645 406.887C176.631 406.903 176.614 406.916 176.595 406.925C176.576 406.934 176.555 406.94 176.534 406.941C176.513 406.942 176.492 406.939 176.472 406.932C176.452 406.925 176.433 406.914 176.418 406.9C176.402 406.886 176.389 406.869 176.38 406.85C173.57 402.04 171.11 397.01 168.59 392.05C166.07 387.09 163.59 382.2 161.25 377.22C159.89 374.36 158.6 371.48 157.45 368.53C157.434 368.475 157.438 368.416 157.462 368.364C157.486 368.312 157.527 368.27 157.579 368.246C157.631 368.222 157.69 368.217 157.745 368.232C157.8 368.248 157.848 368.282 157.88 368.33Z" fill="#37474F"/>
<path d="M164.81 360.58L188.14 404.34C188.14 404.34 195.14 405.85 203.82 401.83C223.03 392.96 255.19 372.32 271.27 356.47C287.89 340.08 304.2 225.2 304.2 225.2L265 202.58C265 202.58 244.64 310.91 237.16 318.73C230.41 325.79 191.27 341.24 172.82 350.9C168.98 352.947 166.101 356.425 164.81 360.58Z" fill="#6C63FF"/>
<path d="M173.21 360.06C176.28 364.72 178.96 369.62 181.59 374.54C184.22 379.46 186.75 384.28 189.29 389.18C190.75 391.98 192.2 394.8 193.5 397.67C193.51 397.707 193.508 397.746 193.493 397.782C193.479 397.817 193.452 397.846 193.419 397.865C193.385 397.884 193.346 397.89 193.308 397.884C193.27 397.877 193.236 397.858 193.21 397.83C190.21 393.13 187.56 388.2 184.84 383.34C182.12 378.48 179.49 373.69 176.92 368.81C175.45 366.01 174.05 363.18 172.79 360.28C172.772 360.226 172.773 360.167 172.795 360.114C172.816 360.061 172.855 360.017 172.906 359.99C172.957 359.964 173.015 359.956 173.071 359.969C173.127 359.982 173.176 360.014 173.21 360.06Z" fill="#263238"/>
<path opacity="0.1" d="M251.64 268.16L304.2 225.16L265 202.58C265 202.58 258.6 236.8 251.64 268.16Z" fill="black"/>
<path opacity="0.1" d="M260.8 339.2C259.409 339.389 257.994 339.259 256.66 338.82C255.322 338.413 254.031 337.863 252.81 337.18C250.409 335.812 248.199 334.13 246.24 332.18C245.24 331.18 244.36 330.18 243.47 329.18C242.58 328.18 241.77 327.05 241.02 325.92C240.27 324.79 239.56 323.63 238.91 322.45C238.26 321.27 237.68 320.02 237.19 318.74C238.237 319.608 239.239 320.529 240.19 321.5C241.13 322.45 242.11 323.36 243 324.32C243.89 325.28 244.86 326.18 245.75 327.14L247.14 328.52C247.6 328.98 248.03 329.47 248.51 329.9C250.36 331.72 252.25 333.46 254.23 335.09C256.178 336.815 258.398 338.203 260.8 339.2Z" fill="black"/>
<path d="M280.715 350.408C285.068 341.238 283.322 331.3 276.816 328.212C270.31 325.125 261.507 330.055 257.154 339.226C252.802 348.396 254.548 358.334 261.054 361.422C267.56 364.51 276.363 359.579 280.715 350.408Z" fill="#6C63FF"/>
<path opacity="0.1" d="M280.715 350.408C285.068 341.238 283.322 331.3 276.816 328.212C270.31 325.125 261.507 330.055 257.154 339.226C252.802 348.396 254.548 358.334 261.054 361.422C267.56 364.51 276.363 359.579 280.715 350.408Z" fill="black"/>
<path d="M187.77 245.91L175.85 196.82C173.62 187.43 171.5 179.23 170.01 175.1C170.01 175.1 170.01 175.1 170.01 175.03C169.764 174.024 169.292 173.087 168.63 172.29C168.63 172.29 168.63 172.29 168.56 172.29C165.32 171.06 89.73 186.67 87.28 188.11C84.83 189.55 88.71 196.64 92.13 198.38C95.55 200.12 127.13 207.07 127.13 207.07L139.51 256L187.77 245.91Z" fill="#455A64"/>
<path d="M167.23 164.93L163.31 165.67C163.37 166.114 163.35 166.564 163.25 167C163.053 167.849 162.577 168.607 161.899 169.153C161.221 169.7 160.379 170.004 159.508 170.016C158.638 170.029 157.787 169.75 157.094 169.223C156.4 168.696 155.902 167.953 155.68 167.11L152.12 167.78C152.182 168.241 152.158 168.708 152.05 169.16C151.853 170.009 151.375 170.768 150.695 171.313C150.014 171.858 149.17 172.159 148.298 172.167C147.426 172.175 146.577 171.89 145.886 171.357C145.196 170.825 144.704 170.076 144.49 169.23L140.92 169.89C141.01 170.359 141.01 170.841 140.92 171.31C140.685 172.316 140.06 173.188 139.182 173.733C138.305 174.279 137.247 174.454 136.24 174.22C135.536 174.061 134.891 173.707 134.38 173.197C133.869 172.687 133.512 172.044 133.35 171.34L129.79 172.01C129.856 172.5 129.833 172.998 129.72 173.48C129.522 174.337 129.04 175.101 128.352 175.649C127.663 176.196 126.81 176.494 125.93 176.494C125.051 176.494 124.198 176.196 123.509 175.649C122.821 175.101 122.339 174.337 122.14 173.48L118.58 174.15C118.684 174.781 118.631 175.428 118.425 176.033C118.219 176.638 117.868 177.184 117.401 177.621C116.934 178.058 116.367 178.373 115.75 178.539C115.132 178.704 114.483 178.715 113.86 178.57C113.138 178.4 112.478 178.027 111.959 177.496C111.44 176.965 111.084 176.297 110.93 175.57L107.38 176.25C107.49 176.761 107.49 177.289 107.38 177.8C107.178 178.667 106.686 179.438 105.985 179.986C105.284 180.535 104.416 180.827 103.526 180.814C102.636 180.801 101.778 180.484 101.093 179.916C100.408 179.348 99.9376 178.562 99.7605 177.69L96.2005 178.36C96.3203 178.89 96.3203 179.44 96.2005 179.97C96.0022 180.844 95.5083 181.623 94.8022 182.175C94.0961 182.726 93.2211 183.018 92.3252 182.999C91.4293 182.98 90.5673 182.652 89.885 182.071C89.2027 181.49 88.7419 180.692 88.5805 179.81L85.2305 180.44L87.3405 188.07L168.7 172.3L167.23 164.93Z" fill="#37474F"/>
<path d="M171.74 188.79C169.576 189.481 167.292 189.714 165.034 189.475C162.775 189.236 160.591 188.529 158.62 187.4C155.42 185.4 152.25 182.31 151.21 178.2C151.21 178.09 151.4 178.02 151.45 178.14C154.79 185.48 163.72 190.2 171.67 188.55C171.698 188.55 171.726 188.559 171.748 188.576C171.771 188.593 171.788 188.616 171.795 188.644C171.803 188.671 171.802 188.7 171.792 188.726C171.782 188.752 171.764 188.775 171.74 188.79Z" fill="#37474F"/>
<path d="M173 198.58C167.7 200.31 162.26 201.58 156.82 202.82C151.38 204.06 146.06 205.23 140.66 206.38C137.58 207.04 134.48 207.7 131.36 208.19C131.317 208.199 131.273 208.191 131.237 208.168C131.2 208.145 131.174 208.108 131.165 208.065C131.156 208.023 131.164 207.978 131.187 207.942C131.21 207.905 131.247 207.879 131.29 207.87C136.61 206.22 142.06 204.97 147.47 203.63C152.88 202.29 158.19 201.02 163.58 199.84C166.67 199.16 169.76 198.56 172.9 198.12C172.955 198.119 173.01 198.137 173.053 198.172C173.097 198.206 173.127 198.255 173.139 198.309C173.15 198.363 173.143 198.42 173.118 198.469C173.092 198.519 173.051 198.558 173 198.58Z" fill="#37474F"/>
<path d="M173.43 203C168.12 204.73 162.68 206 157.25 207.24C151.82 208.48 146.48 209.65 141.09 210.8C138 211.46 134.9 212.12 131.78 212.61C131.737 212.618 131.693 212.609 131.658 212.584C131.622 212.56 131.598 212.523 131.59 212.48C131.582 212.438 131.591 212.394 131.615 212.358C131.64 212.323 131.677 212.298 131.72 212.29C137.04 210.64 142.49 209.39 147.89 208.06C153.29 206.73 158.62 205.45 164 204.26C167.1 203.59 170.19 202.99 173.33 202.54C173.385 202.539 173.439 202.557 173.483 202.592C173.526 202.626 173.557 202.675 173.568 202.729C173.58 202.783 173.573 202.84 173.548 202.889C173.522 202.939 173.481 202.978 173.43 203Z" fill="#37474F"/>
<path d="M304.26 225.23C304.26 225.23 293.4 237.13 284.18 246.48C277.45 253.32 271.23 259.14 269.58 259.17C267.71 259.17 259.2 258.27 256.38 257.9C256.38 257.9 214.44 304.04 192.91 315.2C185.54 319.02 162.39 315.1 155.69 303.78C144.82 285.41 133.79 257.65 129.76 240.19C127.96 232.4 129.81 223.98 129.81 223.98L179.4 210.28C179.4 210.28 184.76 219.21 186.4 224.82C188.82 233.29 190.99 259.23 190.99 259.23C204.4 249.65 217.46 231.95 217.46 231.95C217.46 231.95 221.32 211.39 245.46 191.2L304.26 225.23Z" fill="#6C63FF"/>
<path d="M269.53 258.92C263.251 257.882 256.893 257.394 250.53 257.46C250.485 257.47 250.446 257.495 250.418 257.53C250.389 257.566 250.374 257.61 250.374 257.655C250.374 257.7 250.389 257.744 250.418 257.78C250.446 257.815 250.485 257.84 250.53 257.85C256.82 258.52 263.16 259.35 269.47 259.68C269.519 259.684 269.57 259.678 269.617 259.663C269.665 259.647 269.709 259.622 269.747 259.59C269.785 259.557 269.816 259.518 269.839 259.473C269.862 259.429 269.876 259.38 269.88 259.33C269.884 259.28 269.878 259.23 269.862 259.182C269.847 259.135 269.822 259.091 269.79 259.053C269.757 259.014 269.717 258.983 269.673 258.96C269.628 258.938 269.579 258.924 269.53 258.92Z" fill="#263238"/>
<path d="M290.7 225.07C290.78 224.88 290.49 224.67 290.39 224.86C287.205 230.514 283.737 236.004 280 241.31C278.3 243.79 268.08 257.02 264.15 253.43C263.49 252.82 263.53 251.86 264.05 250.65C264.68 249.2 266.14 247.81 267.14 246.57C269.34 243.83 271.45 241.03 273.42 238.13C277.145 232.76 280.306 227.02 282.85 221C282.862 220.961 282.859 220.92 282.844 220.883C282.828 220.846 282.799 220.816 282.763 220.798C282.727 220.78 282.686 220.775 282.647 220.785C282.608 220.794 282.573 220.817 282.55 220.85C278.259 228.798 273.371 236.41 267.93 243.62C265.25 247.05 260.18 251.62 263.78 254.42C267.38 257.22 275.35 249.25 277.3 246.94C282.693 240.26 287.198 232.909 290.7 225.07Z" fill="#263238"/>
<path d="M264.07 253.88C263.119 254.628 262.217 255.436 261.37 256.3C260.639 256.924 260.029 257.676 259.57 258.52C259.5 258.69 259.7 258.82 259.85 258.76C260.734 258.285 261.539 257.678 262.24 256.96C263.11 256.23 263.99 255.52 264.83 254.76C264.888 254.71 264.935 254.649 264.97 254.581C265.004 254.513 265.024 254.439 265.03 254.363C265.035 254.286 265.026 254.21 265.002 254.137C264.978 254.065 264.94 253.998 264.89 253.94C264.84 253.882 264.779 253.835 264.711 253.801C264.643 253.766 264.569 253.746 264.492 253.74C264.416 253.735 264.34 253.744 264.267 253.768C264.195 253.792 264.128 253.83 264.07 253.88Z" fill="#263238"/>
<path d="M136.76 230.07C141.94 228.28 147.27 226.93 152.6 225.63C157.93 224.33 163.14 223.09 168.43 221.87C171.43 221.17 174.49 220.47 177.55 219.94C177.588 219.94 177.624 219.953 177.654 219.976C177.684 219.999 177.705 220.032 177.715 220.069C177.724 220.105 177.72 220.144 177.705 220.179C177.69 220.214 177.663 220.242 177.63 220.26C172.42 221.98 167.08 223.26 161.79 224.7C156.5 226.14 151.29 227.44 146 228.7C143 229.42 139.94 230.06 136.86 230.54C136.797 230.553 136.732 230.541 136.679 230.506C136.625 230.472 136.588 230.417 136.575 230.355C136.561 230.293 136.573 230.228 136.608 230.174C136.643 230.121 136.697 230.083 136.76 230.07Z" fill="#263238"/>
<path opacity="0.1" d="M183.14 297.2C182.253 295.736 181.738 294.078 181.64 292.37C181.54 291.53 181.54 290.69 181.49 289.84C181.44 288.99 181.49 288.16 181.57 287.32C181.816 283.991 182.378 280.692 183.25 277.47C184.097 274.269 185.166 271.132 186.45 268.08C187.702 265.01 189.207 262.05 190.95 259.23C190.44 262.53 189.63 265.71 188.84 268.87C188.05 272.03 187.2 275.16 186.36 278.28C185.52 281.4 184.72 284.52 184.05 287.66C183.74 289.22 183.41 290.8 183.22 292.38C182.923 293.971 182.896 295.6 183.14 297.2Z" fill="black"/>
<path d="M181.55 319.98C191.701 319.98 199.93 314.142 199.93 306.94C199.93 299.738 191.701 293.9 181.55 293.9C171.399 293.9 163.17 299.738 163.17 306.94C163.17 314.142 171.399 319.98 181.55 319.98Z" fill="#6C63FF"/>
<path opacity="0.1" d="M181.55 319.98C191.701 319.98 199.93 314.142 199.93 306.94C199.93 299.738 191.701 293.9 181.55 293.9C171.399 293.9 163.17 299.738 163.17 306.94C163.17 314.142 171.399 319.98 181.55 319.98Z" fill="black"/>
<path d="M302.93 165.7C332.33 177.4 355.86 182.13 365.16 179.42C373.3 177.04 396.52 167.05 407.82 156.22C411.23 152.96 395.82 130.7 391.1 132.47C386.38 134.24 362.72 147.54 356.54 149.73C353.03 150.97 314.77 152.4 306.07 152.55C291.55 152.81 289.88 160.51 302.93 165.7Z" fill="#F7A9A0"/>
<path d="M423.09 141.39C422.02 143.03 422.87 143.61 426.17 142.48C429.47 141.35 441.54 134.12 443.71 138.55C445.88 142.98 428.71 152.94 423.06 154.39C417.41 155.84 407.82 156.22 407.82 156.22C410.78 153.61 417.35 146.59 423.09 141.39Z" fill="#455A64"/>
<path d="M391.1 132.47C399.7 125.47 409.97 116.12 422.37 114.18C423.735 113.934 425.143 114.152 426.37 114.8C431.91 113.8 434.03 116.16 434.03 116.16C439.47 116.84 441.31 119.52 441.31 119.52C441.31 119.52 447.82 118.46 449.12 122.29C450.59 126.59 441.12 127.24 436.17 130.77C424.78 138.86 410.86 153.56 407.8 156.22L391.1 132.47Z" fill="#455A64"/>
<path d="M418.3 130.86C421.606 128.454 425.07 126.276 428.67 124.34C432.741 122.468 436.946 120.903 441.25 119.66C441.274 119.649 441.292 119.631 441.304 119.608C441.315 119.585 441.318 119.559 441.312 119.534C441.306 119.509 441.292 119.487 441.271 119.472C441.251 119.457 441.226 119.449 441.2 119.45C432.648 121.029 424.693 124.924 418.2 130.71C418 130.84 418.12 131 418.3 130.86Z" fill="#263238"/>
<path d="M412.41 124.7C415.84 122.63 421.9 119.03 434.08 116.29V116.22C426.194 116.915 418.658 119.797 412.32 124.54C412.11 124.68 412.18 124.84 412.41 124.7Z" fill="#263238"/>
<path d="M409.31 121.33C415.31 118.03 419.46 116.71 426.37 114.84V114.76C418.29 116.06 415.51 117.45 409.18 121.14C409 121.26 409.08 121.46 409.31 121.33Z" fill="#263238"/>
<path d="M391.1 132.47L407.82 156.22C407.062 159.4 405.411 162.298 403.06 164.57C399.14 168.36 368.58 181.02 359.12 181.16C349.66 181.3 312.7 172 299.46 165.3C286.22 158.6 293.31 152.8 303.01 152.14C312.71 151.48 353.3 149.14 355.63 148.57C357.96 148 377.21 135.85 381.29 133.73C385.37 131.61 391.1 132.47 391.1 132.47Z" fill="#6C63FF"/>
<path opacity="0.1" d="M299.46 165.3C309.05 170.15 331.07 176.36 346.08 179.38L301.91 152.23C292.8 153.25 286.73 158.86 299.46 165.3Z" fill="black"/>
<path opacity="0.1" d="M384.8 135.23C387.32 138.46 389.67 141.82 392 145.23C394.33 148.64 396.59 151.91 398.87 155.23C400.17 157.14 401.48 159.07 402.71 161.03C402.8 161.16 402.71 161.23 402.59 161.11C400.1 157.87 397.76 154.49 395.39 151.11C393.02 147.73 390.72 144.48 388.39 141.11C387.08 139.19 385.8 137.26 384.58 135.28C384.5 135.16 384.67 135.06 384.8 135.23Z" fill="black"/>
<path d="M304.2 225.2L245.4 191.2C244.719 187.74 245.419 184.151 247.35 181.2C254.82 168.99 272.71 148.89 288.69 141.49C300.21 136.17 309.27 140.68 312.69 149.17C313.56 151.32 322.02 179.26 320.97 189.22C319.86 199.76 314.74 212.82 310.14 219.98C308.624 222.186 306.582 223.98 304.2 225.2Z" fill="#6C63FF"/>
<path d="M303.73 228.78C304.6 228.91 307.2 224.11 306.96 223.41C306.72 222.71 245.63 187.73 245.18 187.65C244.73 187.57 241.76 193.47 242.3 193.9C242.84 194.33 302.57 228.6 303.73 228.78Z" fill="#6C63FF"/>
<path opacity="0.1" d="M303.73 228.78C304.6 228.91 307.2 224.11 306.96 223.41C306.72 222.71 245.63 187.73 245.18 187.65C244.73 187.57 241.76 193.47 242.3 193.9C242.84 194.33 302.57 228.6 303.73 228.78Z" fill="black"/>
<path d="M291.84 189.35L321.45 195.58L322.11 169.34L292.5 163.11L291.84 189.35Z" fill="#6C63FF"/>
<path opacity="0.2" d="M291.84 189.35L321.45 195.58L322.11 169.34L292.5 163.11L291.84 189.35Z" fill="black"/>
<path opacity="0.1" d="M291.84 189.35L295.59 190.14L296.25 163.9L292.5 163.11L291.84 189.35Z" fill="black"/>
<path opacity="0.1" d="M316.88 174.4C316.864 174.85 317.001 175.292 317.268 175.655C317.534 176.018 317.916 176.281 318.35 176.4C318.547 176.439 318.75 176.432 318.944 176.379C319.138 176.327 319.317 176.231 319.468 176.099C319.618 175.966 319.737 175.801 319.813 175.616C319.89 175.431 319.923 175.23 319.91 175.03C319.926 174.578 319.788 174.135 319.519 173.772C319.251 173.409 318.867 173.147 318.43 173.03C318.234 172.991 318.031 172.998 317.838 173.05C317.645 173.102 317.466 173.198 317.316 173.331C317.166 173.463 317.049 173.629 316.973 173.814C316.897 174 316.866 174.2 316.88 174.4Z" fill="black"/>
<path opacity="0.1" d="M316.74 180C316.724 180.45 316.86 180.893 317.127 181.256C317.394 181.619 317.775 181.881 318.21 182C318.407 182.041 318.611 182.035 318.806 181.984C319 181.933 319.18 181.837 319.331 181.704C319.483 181.571 319.601 181.405 319.677 181.219C319.753 181.032 319.785 180.831 319.77 180.63C319.786 180.18 319.65 179.737 319.383 179.374C319.116 179.011 318.734 178.749 318.3 178.63C318.103 178.589 317.899 178.595 317.704 178.646C317.51 178.698 317.33 178.793 317.179 178.926C317.027 179.059 316.909 179.225 316.833 179.412C316.757 179.598 316.725 179.799 316.74 180Z" fill="black"/>
<path opacity="0.1" d="M316.6 185.5C316.584 185.95 316.721 186.393 316.987 186.756C317.254 187.119 317.636 187.381 318.07 187.5C318.268 187.539 318.472 187.532 318.666 187.479C318.861 187.426 319.041 187.329 319.192 187.196C319.342 187.062 319.461 186.896 319.537 186.709C319.613 186.523 319.645 186.321 319.63 186.12C319.646 185.67 319.51 185.227 319.243 184.864C318.976 184.501 318.595 184.239 318.16 184.12C317.962 184.079 317.757 184.084 317.562 184.136C317.366 184.188 317.186 184.285 317.034 184.419C316.883 184.553 316.765 184.721 316.689 184.908C316.614 185.096 316.583 185.298 316.6 185.5Z" fill="black"/>
<path opacity="0.1" d="M312.16 173.41C312.144 173.86 312.28 174.303 312.547 174.666C312.814 175.029 313.195 175.291 313.63 175.41C313.827 175.451 314.031 175.446 314.226 175.394C314.42 175.343 314.6 175.247 314.751 175.114C314.903 174.981 315.021 174.815 315.097 174.629C315.173 174.442 315.205 174.241 315.19 174.04C315.206 173.59 315.07 173.148 314.803 172.785C314.536 172.422 314.154 172.159 313.72 172.04C313.523 172.002 313.32 172.009 313.126 172.061C312.933 172.113 312.754 172.209 312.603 172.341C312.452 172.474 312.334 172.639 312.257 172.824C312.18 173.01 312.147 173.21 312.16 173.41Z" fill="black"/>
<path opacity="0.1" d="M312 179C311.984 179.45 312.12 179.893 312.387 180.256C312.654 180.619 313.035 180.881 313.47 181C313.667 181.041 313.871 181.035 314.065 180.984C314.26 180.933 314.44 180.837 314.591 180.704C314.742 180.571 314.861 180.405 314.937 180.219C315.013 180.032 315.045 179.831 315.03 179.63C315.046 179.18 314.909 178.737 314.643 178.374C314.376 178.011 313.994 177.749 313.56 177.63C313.363 177.589 313.159 177.595 312.964 177.646C312.77 177.698 312.589 177.793 312.438 177.926C312.287 178.059 312.169 178.225 312.093 178.412C312.016 178.598 311.985 178.799 312 179Z" fill="black"/>
<path opacity="0.1" d="M311.88 184.51C311.864 184.961 312.002 185.405 312.271 185.768C312.54 186.131 312.923 186.393 313.36 186.51C313.556 186.551 313.76 186.546 313.954 186.494C314.148 186.443 314.328 186.347 314.478 186.214C314.629 186.081 314.746 185.914 314.821 185.728C314.896 185.541 314.926 185.34 314.91 185.14C314.926 184.69 314.789 184.247 314.522 183.884C314.256 183.521 313.874 183.259 313.44 183.14C313.243 183.101 313.04 183.108 312.846 183.16C312.652 183.213 312.473 183.309 312.323 183.441C312.172 183.573 312.053 183.739 311.977 183.924C311.9 184.109 311.867 184.31 311.88 184.51Z" fill="black"/>
<path opacity="0.1" d="M307.44 172.42C307.425 172.872 307.562 173.315 307.831 173.678C308.1 174.041 308.484 174.303 308.92 174.42C309.118 174.457 309.321 174.448 309.514 174.395C309.708 174.341 309.887 174.244 310.037 174.111C310.188 173.978 310.306 173.812 310.383 173.627C310.459 173.441 310.493 173.241 310.48 173.04C310.496 172.589 310.358 172.145 310.089 171.782C309.82 171.419 309.436 171.157 309 171.04C308.803 171.003 308.599 171.012 308.406 171.065C308.212 171.119 308.033 171.216 307.883 171.349C307.732 171.482 307.614 171.648 307.538 171.833C307.461 172.019 307.428 172.22 307.44 172.42Z" fill="black"/>
<path opacity="0.1" d="M307.31 178C307.294 178.45 307.431 178.893 307.697 179.256C307.964 179.619 308.346 179.881 308.78 180C308.977 180.039 309.18 180.032 309.374 179.979C309.567 179.927 309.747 179.831 309.897 179.699C310.048 179.566 310.166 179.401 310.243 179.216C310.32 179.031 310.353 178.83 310.34 178.63C310.356 178.178 310.218 177.735 309.949 177.372C309.68 177.009 309.296 176.747 308.86 176.63C308.664 176.591 308.461 176.598 308.268 176.65C308.074 176.702 307.896 176.798 307.746 176.931C307.596 177.064 307.478 177.229 307.403 177.414C307.327 177.6 307.295 177.8 307.31 178Z" fill="black"/>
<path opacity="0.1" d="M307.17 183.52C307.154 183.97 307.291 184.413 307.558 184.776C307.824 185.139 308.206 185.401 308.64 185.52C308.837 185.559 309.04 185.552 309.234 185.499C309.428 185.447 309.607 185.351 309.758 185.219C309.908 185.087 310.027 184.921 310.103 184.736C310.18 184.551 310.213 184.35 310.2 184.15C310.216 183.698 310.078 183.255 309.809 182.892C309.541 182.529 309.157 182.267 308.72 182.15C308.524 182.109 308.32 182.114 308.126 182.165C307.932 182.217 307.752 182.313 307.602 182.446C307.451 182.579 307.334 182.745 307.259 182.932C307.184 183.118 307.154 183.32 307.17 183.52Z" fill="black"/>
<path d="M317.33 95.9399C318.45 96.2699 323.54 96.4999 326.14 101.58C328.61 106.38 327.61 119.58 327.83 122.58C328.05 125.58 331.71 126.58 332.06 130.01C332.36 133.01 330.12 133.69 329.57 135.74C329.15 137.33 330.38 140.02 328.52 142.18C326.83 144.18 324.52 143.3 323.01 143.75C321.5 144.2 320.01 147.36 317.27 147.83C314.53 148.3 312.54 145.51 311.13 145.3C309.72 145.09 307.38 149.12 302.87 148.01C298.36 146.9 297.66 142.82 295.87 141.75C294.08 140.68 289.16 141.24 287.37 138.53C285.58 135.82 285.72 132.62 284.94 131.3C284.16 129.98 282.08 129.84 281.3 126.97C280.52 124.1 283.3 122.79 284.02 120.52C284.52 118.93 283.32 117.21 284.73 114.9C286.67 111.72 290.73 113.12 292.87 109.9C294.56 107.36 299.05 95.8999 306.73 94.0699C312.05 92.8299 317.33 95.9399 317.33 95.9399Z" fill="#263238"/>
<path d="M327.8 121.88C327.991 122.528 328.334 123.121 328.8 123.61L330.09 125.13C330.977 126.081 331.713 127.164 332.27 128.34C332.523 128.9 332.644 129.51 332.623 130.124C332.602 130.738 332.44 131.339 332.15 131.88C331.827 132.419 331.418 132.902 330.94 133.31C330.398 133.757 329.923 134.279 329.53 134.86C329.242 135.55 329.186 136.315 329.37 137.04C329.48 137.71 329.62 138.35 329.7 139.04C329.825 139.651 329.828 140.281 329.71 140.894C329.592 141.506 329.354 142.089 329.01 142.61C328.653 143.097 328.142 143.449 327.56 143.61C326.943 143.767 326.301 143.804 325.67 143.72C325.02 143.66 324.37 143.53 323.67 143.44C323.007 143.272 322.308 143.314 321.67 143.56C322.308 143.408 322.975 143.432 323.6 143.63C324.25 143.78 324.89 143.97 325.55 144.08C326.23 144.215 326.93 144.215 327.61 144.08C328.317 143.909 328.947 143.508 329.4 142.94C329.822 142.373 330.122 141.725 330.28 141.037C330.438 140.348 330.452 139.634 330.32 138.94C330.25 138.26 330.11 137.61 330.02 136.94C329.874 136.373 329.913 135.774 330.13 135.23C330.69 134.23 332.02 133.51 332.68 132.23C333.012 131.596 333.185 130.891 333.185 130.175C333.185 129.459 333.012 128.754 332.68 128.12C332.042 126.924 331.219 125.837 330.24 124.9L328.83 123.5C328.378 123.037 328.028 122.485 327.8 121.88Z" fill="#263238"/>
<path d="M299 99.71C297.551 101.589 296.215 103.552 295 105.59C294.34 106.59 293.71 107.59 293 108.49C292.655 108.937 292.266 109.349 291.84 109.72C291.749 109.807 291.644 109.878 291.53 109.93C291.422 110.001 291.304 110.055 291.18 110.09C290.91 110.18 290.63 110.25 290.35 110.32C289.179 110.591 288.024 110.925 286.89 111.32C285.691 111.715 284.644 112.469 283.89 113.48C283.523 114.008 283.296 114.621 283.23 115.26C283.202 115.881 283.29 116.501 283.49 117.09C283.941 118.185 284.136 119.368 284.06 120.55C284.281 119.367 284.209 118.148 283.85 117C283.7 116.45 283.652 115.877 283.71 115.31C283.801 114.766 284.028 114.253 284.37 113.82C285.09 112.968 286.036 112.337 287.1 112C288.19 111.61 289.34 111.4 290.51 111.11C290.8 111.03 291.1 110.94 291.39 110.84C291.711 110.729 292.006 110.556 292.26 110.33C292.725 109.921 293.145 109.461 293.51 108.96C294.235 108 294.903 106.999 295.51 105.96L297.25 102.85C297.774 101.772 298.359 100.723 299 99.71Z" fill="#263238"/>
<path d="M284 130.34C284.289 131.13 284.415 131.97 284.37 132.81C284.42 133.66 284.46 134.51 284.55 135.37C284.625 136.238 284.789 137.096 285.04 137.93C285.289 138.807 285.749 139.611 286.38 140.27C287.804 141.364 289.592 141.876 291.38 141.7C292.24 141.7 293.08 141.62 293.92 141.61C294.761 141.549 295.604 141.69 296.38 142.02C295.65 141.548 294.808 141.278 293.94 141.24C293.08 141.17 292.23 141.17 291.39 141.12C289.74 141.03 288 140.78 286.86 139.72C286.315 139.155 285.911 138.47 285.68 137.72C285.417 136.934 285.216 136.128 285.08 135.31C284.93 134.48 284.82 133.64 284.7 132.8C284.63 132.37 284.56 131.95 284.46 131.53C284.412 131.1 284.254 130.69 284 130.34Z" fill="#263238"/>
<path d="M298.06 144.6C298.14 145.88 302.64 154.88 308.31 155.6C310.15 155.83 311.84 145.8 311.84 145.8L312.13 145.09L316.24 135.09L305.41 125.18L303.83 123.84C303.83 123.84 302.88 126.64 301.74 130.14L301.58 130.64C301.51 130.83 301.44 131.02 301.39 131.2C301.21 131.72 301.03 132.26 300.87 132.79C300.71 133.32 300.61 133.59 300.49 134.02L300.11 135.3C299.216 138.35 298.532 141.457 298.06 144.6Z" fill="#F7A9A0"/>
<path d="M316.24 135.1L312.3 144.68C307.048 141.756 303.145 136.898 301.42 131.14L301.74 130.14C302.89 126.65 303.83 123.85 303.83 123.85L305.41 125.17L316.24 135.1Z" fill="#263238"/>
<path d="M332.31 120.86C331.14 139.74 319.7 141.17 315.63 140.86C311.94 140.63 299.38 139.37 298.63 120.47C297.88 101.57 307 96.2002 315.43 96.2802C323.86 96.3602 333.48 102 332.31 120.86Z" fill="#F7A9A0"/>
<path d="M299.32 120C302.32 120.66 303.94 114.33 303.94 114.33C303.94 114.33 310.17 115.2 313.46 106.53C312.909 109.182 311.595 111.615 309.68 113.53C309.68 113.53 320.83 113.88 326.68 105.32C326.68 105.32 324.19 109.75 322.23 111.18C322.23 111.18 327.01 110.53 329.77 107.1C329.77 107.1 330.97 112.67 332.25 114.34C332.25 114.34 334.44 95.0499 316.35 94.6499C316.35 94.6499 305.1 93.8499 299.88 102.13C294.66 110.41 299.32 120 299.32 120Z" fill="#263238"/>
<path d="M301.51 122.15C301.51 122.15 298.3 115.71 295.43 116.77C292.56 117.83 294.37 126.77 297.3 128.37C297.663 128.604 298.07 128.761 298.496 128.834C298.921 128.906 299.357 128.892 299.777 128.792C300.198 128.693 300.593 128.509 300.941 128.252C301.288 127.996 301.58 127.672 301.8 127.3L301.51 122.15Z" fill="#F7A9A0"/>
<path d="M296 119.31V119.39C298 120.6 298.9 122.79 299.39 125.01C299.295 124.773 299.151 124.56 298.966 124.384C298.781 124.208 298.561 124.075 298.32 123.992C298.079 123.909 297.822 123.88 297.569 123.905C297.315 123.931 297.07 124.011 296.85 124.14C296.837 124.145 296.826 124.154 296.818 124.166C296.81 124.177 296.806 124.191 296.806 124.205C296.806 124.219 296.81 124.233 296.818 124.244C296.826 124.256 296.837 124.265 296.85 124.27C297.245 124.219 297.646 124.286 298.003 124.464C298.359 124.643 298.654 124.923 298.85 125.27C299.169 125.868 299.424 126.498 299.61 127.15C299.69 127.36 300.05 127.31 300.01 127.08V127C300.53 124.25 299 120 296 119.31Z" fill="#263238"/>
<path d="M299.58 127.84C299.543 128.084 299.411 128.305 299.212 128.453C299.014 128.601 298.765 128.664 298.52 128.63C298.286 128.595 298.074 128.472 297.927 128.286C297.78 128.101 297.71 127.866 297.73 127.63C297.764 127.384 297.895 127.163 298.093 127.014C298.291 126.865 298.54 126.8 298.785 126.835C299.03 126.869 299.252 127 299.401 127.198C299.55 127.395 299.614 127.644 299.58 127.89V127.84Z" fill="white"/>
<path d="M329.09 116.55C328.675 116.439 328.268 116.302 327.87 116.14C327.42 116.062 327.008 115.837 326.7 115.5C326.624 115.374 326.591 115.226 326.608 115.08C326.624 114.933 326.688 114.796 326.79 114.69C327.023 114.514 327.298 114.402 327.588 114.367C327.878 114.332 328.172 114.374 328.44 114.49C329.019 114.633 329.523 114.99 329.85 115.49C329.922 115.609 329.957 115.746 329.951 115.885C329.946 116.023 329.9 116.157 329.819 116.27C329.738 116.383 329.626 116.469 329.496 116.519C329.367 116.569 329.225 116.58 329.09 116.55Z" fill="#263238"/>
<path d="M316.82 116.2C317.25 116.11 317.63 115.95 318.05 115.82C318.501 115.748 318.915 115.53 319.23 115.2C319.31 115.075 319.345 114.928 319.33 114.781C319.316 114.634 319.252 114.497 319.15 114.39C318.922 114.21 318.65 114.093 318.362 114.051C318.075 114.009 317.781 114.043 317.51 114.15C316.921 114.29 316.407 114.647 316.07 115.15C316.003 115.268 315.971 115.403 315.977 115.538C315.984 115.674 316.03 115.805 316.109 115.915C316.188 116.026 316.297 116.112 316.423 116.162C316.549 116.212 316.687 116.226 316.82 116.2Z" fill="#263238"/>
<path d="M319 120.22C319 120.22 318.89 120.22 318.89 120.32C318.82 121.59 318.53 123.02 317.35 123.32V123.4C318.78 123.34 319.15 121.43 319 120.22Z" fill="#263238"/>
<path d="M318 118.8C316 118.47 315.46 122.53 317.33 122.8C319.2 123.07 319.7 119.08 318 118.8Z" fill="#263238"/>
<path d="M317.18 118.91C316.8 119.1 316.4 119.46 315.97 119.45C315.54 119.44 315.15 118.96 314.88 118.51C314.88 118.46 314.81 118.51 314.8 118.51C314.69 118.874 314.723 119.265 314.892 119.606C315.061 119.946 315.354 120.208 315.71 120.34C316.45 120.54 317.09 119.93 317.38 119.17C317.44 119.07 317.34 118.84 317.18 118.91Z" fill="#263238"/>
<path d="M326.22 120.63C326.22 120.63 326.31 120.7 326.3 120.75C326.09 122 326.06 123.47 327.14 124.04C327.14 124.04 327.14 124.12 327.14 124.11C325.76 123.73 325.82 121.78 326.22 120.63Z" fill="#263238"/>
<path d="M327.51 119.47C329.56 119.59 329.17 123.66 327.28 123.55C325.39 123.44 325.8 119.37 327.51 119.47Z" fill="#263238"/>
<path d="M328.34 119.81C328.64 120.06 328.92 120.48 329.34 120.55C329.76 120.62 330.16 120.21 330.48 119.81H330.54C330.49 120.59 330.15 121.38 329.39 121.46C328.63 121.54 328.26 120.81 328.15 120.02C328.09 119.92 328.22 119.72 328.34 119.81Z" fill="#263238"/>
<path d="M317.88 130.49C318.13 130.84 318.36 131.29 318.81 131.41C319.274 131.479 319.747 131.452 320.2 131.33C320.25 131.33 320.28 131.33 320.25 131.4C320.026 131.613 319.75 131.763 319.449 131.833C319.148 131.904 318.834 131.892 318.54 131.8C318.297 131.69 318.093 131.511 317.953 131.285C317.812 131.059 317.742 130.796 317.75 130.53C317.749 130.515 317.753 130.499 317.762 130.486C317.771 130.473 317.784 130.464 317.799 130.459C317.814 130.455 317.83 130.455 317.845 130.461C317.859 130.466 317.872 130.477 317.88 130.49Z" fill="#263238"/>
<path d="M323.83 126.3C323.83 126.3 323.88 128.21 323.78 129.1C323.78 129.18 323.55 129.2 323.24 129.18C322.461 129.23 321.684 129.065 320.993 128.704C320.302 128.342 319.723 127.798 319.32 127.13C319.27 127.04 319.4 126.96 319.47 127.02C320.508 127.928 321.814 128.472 323.19 128.57C323.28 128.33 323.01 125.3 323.19 125.31C323.886 125.442 324.56 125.675 325.19 126C325.19 122 324.61 118.06 324.69 114.09C324.69 114.058 324.702 114.028 324.725 114.005C324.747 113.983 324.778 113.97 324.81 113.97C324.842 113.97 324.872 113.983 324.895 114.005C324.917 114.028 324.93 114.058 324.93 114.09C325.72 118.31 326.085 122.598 326.02 126.89C325.92 127.37 324.17 126.5 323.83 126.3Z" fill="#263238"/>
<path d="M322.88 129C322.295 129.613 321.561 130.064 320.75 130.31C320.301 130.425 319.828 130.404 319.39 130.25C318.45 129.89 318.52 128.99 318.78 128.25C318.927 127.858 319.114 127.482 319.34 127.13C320.292 128.113 321.532 128.768 322.88 129Z" fill="#263238"/>
<path d="M320.75 130.31C320.301 130.425 319.828 130.404 319.39 130.25C318.45 129.89 318.52 128.99 318.78 128.25C319.292 128.324 319.764 128.566 320.121 128.94C320.478 129.313 320.7 129.796 320.75 130.31Z" fill="#FF98B9"/>
<path d="M290 143.53C290.022 145.223 290.502 146.878 291.39 148.32C294.22 152.99 301.82 156.78 309.39 155.86C314.2 155.27 317.17 153.33 318.67 150.86C313.645 151.786 308.48 151.61 303.53 150.344C298.58 149.079 293.964 146.754 290 143.53Z" fill="#455A64"/>
<path d="M283.49 137.28C292.07 151.93 317.03 158.41 332.75 145.19C343.85 135.83 348.75 116.54 340.39 100.49C328.25 77.28 303.71 79.67 290 91C275.59 102.94 277 126.16 283.49 137.28ZM300.23 100.19C311.3 92.04 331.17 91.55 340.83 108.06C343.816 113.254 344.815 119.356 343.639 125.231C342.464 131.106 339.195 136.355 334.44 140C321.7 149.55 301.63 145.06 294.78 134.63C289.59 126.72 288.52 108.81 300.23 100.19Z" fill="#6C63FF"/>
<path opacity="0.1" d="M294.78 134.62C301.63 145.05 321.7 149.54 334.44 139.99C339.192 136.345 342.46 131.099 343.635 125.226C344.811 119.353 343.814 113.253 340.83 108.06C331.17 91.55 311.3 92.06 300.23 100.19C288.52 108.81 289.59 126.72 294.78 134.62Z" fill="#455A64"/>
<path opacity="0.1" d="M294.78 134.62C301.63 145.05 321.7 149.54 334.44 139.99C339.192 136.345 342.46 131.099 343.635 125.226C344.811 119.353 343.814 113.253 340.83 108.06C331.17 91.55 311.3 92.06 300.23 100.19C288.52 108.81 289.59 126.72 294.78 134.62Z" fill="#455A64"/>
<path d="M318.59 94.6899C327.991 104.245 336.318 114.801 343.42 126.17C344.265 122.806 344.371 119.299 343.73 115.89C339.125 109.276 334.098 102.966 328.68 96.9999C325.496 95.5893 322.07 94.805 318.59 94.6899Z" fill="white"/>
<path d="M291.4 125C291.835 128.416 292.986 131.701 294.78 134.64C297.058 137.895 300.166 140.481 303.78 142.13C300.069 136.131 295.932 130.406 291.4 125Z" fill="white"/>
<path d="M313.07 94.9998C324.092 105.831 333.662 118.046 341.54 131.34C341.73 130.97 341.9 130.6 342.06 130.22C334.314 117.316 324.985 105.43 314.29 94.8398L313.07 94.9998Z" fill="white"/>
<path d="M291.93 113.05C301.238 122.693 309.271 133.491 315.83 145.18C316.21 145.18 316.59 145.18 316.98 145.18C310.214 133.079 301.882 121.923 292.2 112C292.1 112.36 292 112.7 291.93 113.05Z" fill="white"/>
<path d="M291.06 120.09C291.06 120.57 291.06 121.03 291.06 121.5C297.035 128.326 302.389 135.672 307.06 143.45C307.51 143.61 307.96 143.76 308.42 143.89C303.417 135.414 297.603 127.443 291.06 120.09Z" fill="white"/>
<path d="M295.7 104.75C307.644 116.306 317.759 129.611 325.7 144.21C326.856 143.9 327.989 143.509 329.09 143.04C320.856 127.905 310.324 114.138 297.87 102.23C297.085 103.015 296.36 103.857 295.7 104.75Z" fill="white"/>
<path d="M274.59 124.59C272.95 120.59 272.92 112.31 277.1 108.37C281.1 104.65 287.89 104.28 290.91 112.72C292.99 118.55 291.34 125.26 288.12 128.35C283.56 132.72 276.75 129.94 274.59 124.59Z" fill="#6C63FF"/>
<path opacity="0.1" d="M274.59 124.59C272.95 120.59 272.92 112.31 277.1 108.37C281.1 104.65 287.89 104.28 290.91 112.72C292.99 118.55 291.34 125.26 288.12 128.35C283.56 132.72 276.75 129.94 274.59 124.59Z" fill="black"/>
<path d="M273.33 123.12C272.07 120 272.05 113.68 275.26 110.65C278.26 107.79 283.55 107.51 285.87 113.99C287.47 118.47 286.2 123.63 283.72 125.99C280.23 129.36 275 127.22 273.33 123.12Z" fill="#6C63FF"/>
<path d="M281.36 157.88C285.54 182.74 305.36 214.88 311.96 222.12C322.01 233.19 368.14 221.32 377.54 219.52C381.54 218.76 369.19 183.77 364.89 184.52C361.14 185.16 325.89 195.52 324.84 194.28C323.99 193.28 306.95 170.28 294.73 155.13C284.19 142.06 280.26 151.3 281.36 157.88Z" fill="#F7A9A0"/>
<path d="M356.59 186.63L363.04 184.92C365.112 184.313 367.083 183.403 368.89 182.22C376.12 178.05 396.4 172.53 414.71 187.22C421.71 192.83 420.85 200.22 412.53 195.67C406.66 192.47 402.87 189.75 400.67 189.24C400.67 189.24 404.67 198.66 401.53 203.7C398.801 208.106 395.763 212.313 392.44 216.29C391.574 215.844 390.736 215.347 389.93 214.8C388.523 216.679 386.613 218.123 384.42 218.963C382.228 219.804 379.843 220.007 377.54 219.55L367.15 221.77L356.59 186.63Z" fill="#455A64"/>
<path d="M376.42 179.35C380.71 180.19 389.78 182.14 396.64 186.35C404.26 190.98 417.7 201.97 414.22 207.56C411.67 211.66 406.17 207.91 406.17 207.91C406.17 207.91 410.76 213.62 407.65 216.82C404.81 219.74 400.73 216.59 400.73 216.59C400.73 216.59 402.92 220.53 399.65 222.81C395.71 225.56 391.76 216.81 385.37 216.17C383.93 216 376.42 179.35 376.42 179.35Z" fill="#455A64"/>
<path d="M390.4 193.55C394.31 195.01 402.33 200.55 406.18 207.7C406.26 207.86 406.18 208.01 406.08 207.88C401.435 202.51 396.156 197.722 390.36 193.62C390.36 193.62 390.36 193.54 390.4 193.55Z" fill="#263238"/>
<path d="M386 201.38C389.24 202.99 397.25 209.12 400.9 216.44C400.98 216.61 400.9 216.76 400.79 216.62C396.434 211.017 391.456 205.928 385.95 201.45C385.95 201.45 385.9 201.36 386 201.38Z" fill="#263238"/>
<path d="M356.59 186.63L367.15 221.74C367.15 221.74 365.04 225.74 355.59 227.56C346.14 229.38 318.59 229.87 312.24 224.05C305.89 218.23 288.32 188.05 282.19 165.72C276.06 143.39 288.92 145.48 295.66 155.15C302.4 164.82 324.87 192.87 325.54 193.15C326.21 193.43 341.97 187.41 347.68 186.25C353.39 185.09 356.59 186.63 356.59 186.63Z" fill="#6C63FF"/>
<path d="M321.63 188.56C320.05 186.95 318.57 185.27 317.1 183.56C315.63 181.85 314.21 180.13 312.8 178.39C311.39 176.65 310.02 174.88 308.69 173.06L306.69 170.34C306.05 169.41 305.39 168.5 304.79 167.55C305.58 168.35 306.32 169.19 307.09 170.01L309.31 172.54C310.79 174.23 312.2 175.97 313.61 177.71C315.02 179.45 316.4 181.23 317.72 183.05C319.04 184.87 320.4 186.68 321.63 188.56Z" fill="#263238"/>
<path d="M309 172.73C308.568 172.057 308.203 171.344 307.91 170.6C307.614 169.857 307.357 169.099 307.14 168.33C307.43 168.629 307.679 168.965 307.88 169.33C308.08 169.678 308.257 170.039 308.41 170.41C308.72 171.15 308.919 171.932 309 172.73Z" fill="#263238"/>
<path d="M309.47 220.9C308.11 219.28 306.86 217.56 305.6 215.85C304.34 214.14 303.19 212.35 302.03 210.57C299.72 207.01 297.6 203.33 295.57 199.57C293.54 195.81 291.71 192 290.05 188.08C288.37 184.181 286.898 180.195 285.64 176.14C286.52 178.08 287.26 180.06 288.17 181.97C289.08 183.88 289.88 185.85 290.81 187.74L293.57 193.45C294.57 195.33 295.48 197.22 296.51 199.06C298.45 202.82 300.58 206.47 302.73 210.06C304.88 213.65 307.13 217.37 309.47 220.9Z" fill="#263238"/>
<path d="M288.35 183.18C287.679 182.671 287.069 182.087 286.53 181.44C285.982 180.801 285.512 180.1 285.13 179.35C285.8 179.857 286.407 180.441 286.94 181.09C287.495 181.725 287.969 182.427 288.35 183.18Z" fill="#263238"/>
<path opacity="0.1" d="M351.45 190.5C352.87 194.33 354.09 198.25 355.28 202.17C356.47 206.09 357.64 209.93 358.79 213.81C359.45 216.04 360.11 218.27 360.69 220.51C360.69 220.66 360.6 220.69 360.55 220.51C359.16 216.66 357.96 212.73 356.71 208.84C355.46 204.95 354.27 201.1 353.1 197.22C352.43 194.99 351.8 192.77 351.24 190.51C351.18 190.34 351.37 190.29 351.45 190.5Z" fill="black"/>
<path d="M381.88 337.25L387.39 338.27L388.62 344.08L389.85 338.27L395.36 337.25L389.87 335.91L388.62 330.43L387.36 335.91L381.88 337.25Z" fill="#C7C7C7"/>
<path d="M114.28 321.65L119.78 322.67L121.02 328.47L122.25 322.67L127.75 321.64L122.27 320.3L121.02 314.82L119.76 320.3L114.28 321.65Z" fill="#C7C7C7"/>
<path d="M325.61 243.82L331.12 244.84L332.35 250.65L333.58 244.84L339.09 243.82L333.61 242.48L332.35 237L331.1 242.48L325.61 243.82Z" fill="#C7C7C7"/>
<path d="M434.24 303.07L437.32 303.64L438.01 306.88L438.7 303.64L441.77 303.07L438.71 302.32L438.01 299.25L437.31 302.32L434.24 303.07Z" fill="#C7C7C7"/>
<path d="M200.6 426.57L203.68 427.14L204.36 430.38L205.05 427.14L208.13 426.57L205.06 425.82L204.36 422.75L203.66 425.82L200.6 426.57Z" fill="#C7C7C7"/>
<path d="M426.71 156.97L429.79 157.54L430.48 160.79L431.16 157.54L434.24 156.97L431.18 156.22L430.48 153.16L429.77 156.22L426.71 156.97Z" fill="#C7C7C7"/>
<path d="M63.5195 226.78L66.5995 227.35L67.2895 230.6L67.9795 227.35L71.0595 226.78L67.9895 226.03L67.2895 222.97L66.5895 226.03L63.5195 226.78Z" fill="#C7C7C7"/>
<path d="M80.04 391.98L83.12 392.55L83.81 395.79L84.5 392.55L87.57 391.98L84.51 391.23L83.81 388.16L83.11 391.23L80.04 391.98Z" fill="#C7C7C7"/>
<path d="M414.83 239.19L417.91 239.75L418.6 243L419.28 239.75L422.36 239.18L419.3 238.44L418.6 235.37L417.89 238.44L414.83 239.19Z" fill="#C7C7C7"/>
<path d="M172.92 83.4601L176 84.0301L176.69 87.2701L177.38 84.0301L180.46 83.4501L177.39 82.7001L176.69 79.6401L175.99 82.7001L172.92 83.4601Z" fill="#C7C7C7"/>
<path d="M293.45 332.29L296.53 332.86L297.22 336.1L297.91 332.86L300.99 332.29L297.92 331.54L297.22 328.47L296.52 331.54L293.45 332.29Z" fill="#C7C7C7"/>
<path d="M193.31 433.59C193.546 433.59 193.772 433.684 193.939 433.851C194.106 434.017 194.2 434.244 194.2 434.48C194.2 434.716 194.106 434.942 193.939 435.109C193.772 435.276 193.546 435.37 193.31 435.37C193.074 435.37 192.848 435.276 192.681 435.109C192.514 434.942 192.42 434.716 192.42 434.48C192.42 434.244 192.514 434.017 192.681 433.851C192.848 433.684 193.074 433.59 193.31 433.59Z" fill="#C7C7C7"/>
<path d="M352.52 266.2C352.741 266.224 352.946 266.328 353.094 266.493C353.243 266.658 353.325 266.873 353.325 267.095C353.325 267.317 353.243 267.532 353.094 267.697C352.946 267.862 352.741 267.967 352.52 267.99C352.299 267.967 352.094 267.862 351.946 267.697C351.797 267.532 351.715 267.317 351.715 267.095C351.715 266.873 351.797 266.658 351.946 266.493C352.094 266.328 352.299 266.224 352.52 266.2Z" fill="#C7C7C7"/>
<path d="M144 426.89C144.221 426.914 144.425 427.018 144.574 427.183C144.723 427.348 144.805 427.563 144.805 427.785C144.805 428.007 144.723 428.222 144.574 428.387C144.425 428.552 144.221 428.657 144 428.68C143.779 428.657 143.574 428.552 143.425 428.387C143.277 428.222 143.194 428.007 143.194 427.785C143.194 427.563 143.277 427.348 143.425 427.183C143.574 427.018 143.779 426.914 144 426.89Z" fill="#C7C7C7"/>
<path d="M395 277.89C395.221 277.914 395.425 278.018 395.574 278.183C395.723 278.348 395.805 278.563 395.805 278.785C395.805 279.007 395.723 279.222 395.574 279.387C395.425 279.552 395.221 279.657 395 279.68C394.779 279.657 394.574 279.552 394.425 279.387C394.277 279.222 394.194 279.007 394.194 278.785C394.194 278.563 394.277 278.348 394.425 278.183C394.574 278.018 394.779 277.914 395 277.89Z" fill="#C7C7C7"/>
<path d="M215.67 417.54C215.837 417.54 215.997 417.606 216.116 417.725C216.234 417.843 216.3 418.003 216.3 418.17C216.3 418.337 216.234 418.497 216.116 418.616C215.997 418.734 215.837 418.8 215.67 418.8C215.503 418.8 215.343 418.734 215.225 418.616C215.106 418.497 215.04 418.337 215.04 418.17C215.04 418.003 215.106 417.843 215.225 417.725C215.343 417.606 215.503 417.54 215.67 417.54Z" fill="#C7C7C7"/>
<path d="M89.59 89.71C89.757 89.71 89.9173 89.7763 90.0354 89.8945C90.1536 90.0126 90.22 90.1729 90.22 90.34C90.22 90.507 90.1536 90.6673 90.0354 90.7854C89.9173 90.9036 89.757 90.97 89.59 90.97C89.4229 90.97 89.2626 90.9036 89.1445 90.7854C89.0263 90.6673 88.96 90.507 88.96 90.34C88.96 90.1729 89.0263 90.0126 89.1445 89.8945C89.2626 89.7763 89.4229 89.71 89.59 89.71Z" fill="#C7C7C7"/>
<path d="M333.09 292.64C333.257 292.64 333.417 292.706 333.535 292.825C333.654 292.943 333.72 293.103 333.72 293.27C333.72 293.437 333.654 293.597 333.535 293.716C333.417 293.834 333.257 293.9 333.09 293.9C332.923 293.9 332.763 293.834 332.645 293.716C332.526 293.597 332.46 293.437 332.46 293.27C332.46 293.103 332.526 292.943 332.645 292.825C332.763 292.706 332.923 292.64 333.09 292.64Z" fill="#C7C7C7"/>
<path d="M311.69 281.16C312.122 281.193 312.526 281.388 312.82 281.706C313.115 282.024 313.279 282.442 313.279 282.875C313.279 283.309 313.115 283.726 312.82 284.044C312.526 284.362 312.122 284.557 311.69 284.59C311.257 284.557 310.854 284.362 310.559 284.044C310.264 283.726 310.101 283.309 310.101 282.875C310.101 282.442 310.264 282.024 310.559 281.706C310.854 281.388 311.257 281.193 311.69 281.16Z" fill="#C7C7C7"/>
<path d="M186.4 147.26L191.91 148.28L193.14 154.08L194.37 148.28L199.88 147.25L194.39 145.91L193.14 140.43L191.88 145.91L186.4 147.26Z" fill="#C7C7C7"/>
<path d="M245.11 58.08L248.19 58.65L248.88 61.9L249.57 58.65L252.65 58.08L249.58 57.33L248.88 54.27L248.18 57.33L245.11 58.08Z" fill="#C7C7C7"/>
<path d="M58.4703 141.39C58.6914 141.414 58.8959 141.518 59.0446 141.683C59.1933 141.848 59.2756 142.063 59.2756 142.285C59.2756 142.507 59.1933 142.722 59.0446 142.887C58.8959 143.052 58.6914 143.157 58.4703 143.18C58.2492 143.157 58.0447 143.052 57.896 142.887C57.7473 142.722 57.665 142.507 57.665 142.285C57.665 142.063 57.7473 141.848 57.896 141.683C58.0447 141.518 58.2492 141.414 58.4703 141.39Z" fill="#C7C7C7"/>
<path d="M72.4896 378.09C72.7257 378.09 72.952 378.184 73.1189 378.351C73.2858 378.517 73.3796 378.744 73.3796 378.98C73.3796 379.216 73.2858 379.442 73.1189 379.609C72.952 379.776 72.7257 379.87 72.4896 379.87C72.2536 379.87 72.0272 379.776 71.8603 379.609C71.6934 379.442 71.5996 379.216 71.5996 378.98C71.5996 378.744 71.6934 378.517 71.8603 378.351C72.0272 378.184 72.2536 378.09 72.4896 378.09Z" fill="#C7C7C7"/>
<path d="M94.0005 216.21C94.2378 216.21 94.4655 216.304 94.6333 216.472C94.8012 216.64 94.8955 216.868 94.8955 217.105C94.8955 217.342 94.8012 217.57 94.6333 217.738C94.4655 217.906 94.2378 218 94.0005 218C93.7631 218 93.5355 217.906 93.3676 217.738C93.1998 217.57 93.1055 217.342 93.1055 217.105C93.1055 216.868 93.1998 216.64 93.3676 216.472C93.5355 216.304 93.7631 216.21 94.0005 216.21Z" fill="#C7C7C7"/>
<path d="M129.34 335.54C129.507 335.54 129.667 335.606 129.785 335.725C129.904 335.843 129.97 336.003 129.97 336.17C129.97 336.337 129.904 336.497 129.785 336.616C129.667 336.734 129.507 336.8 129.34 336.8C129.173 336.8 129.013 336.734 128.894 336.616C128.776 336.497 128.71 336.337 128.71 336.17C128.71 336.003 128.776 335.843 128.894 335.725C129.013 335.606 129.173 335.54 129.34 335.54Z" fill="#C7C7C7"/>
<path d="M262.52 416.47C262.687 416.47 262.847 416.537 262.965 416.655C263.083 416.773 263.15 416.933 263.15 417.1C263.15 417.267 263.083 417.428 262.965 417.546C262.847 417.664 262.687 417.73 262.52 417.73C262.353 417.73 262.192 417.664 262.074 417.546C261.956 417.428 261.89 417.267 261.89 417.1C261.89 416.933 261.956 416.773 262.074 416.655C262.192 416.537 262.353 416.47 262.52 416.47Z" fill="#C7C7C7"/>
<path d="M356.29 127.62C356.457 127.62 356.617 127.686 356.736 127.805C356.854 127.923 356.92 128.083 356.92 128.25C356.92 128.417 356.854 128.577 356.736 128.696C356.617 128.814 356.457 128.88 356.29 128.88C356.123 128.88 355.963 128.814 355.845 128.696C355.727 128.577 355.66 128.417 355.66 128.25C355.66 128.083 355.727 127.923 355.845 127.805C355.963 127.686 356.123 127.62 356.29 127.62Z" fill="#C7C7C7"/>
<path d="M242.23 89C242.397 89 242.557 89.0664 242.675 89.1845C242.793 89.3027 242.86 89.4629 242.86 89.63C242.86 89.7971 242.793 89.9573 242.675 90.0755C242.557 90.1936 242.397 90.26 242.23 90.26C242.063 90.26 241.902 90.1936 241.784 90.0755C241.666 89.9573 241.6 89.7971 241.6 89.63C241.6 89.4629 241.666 89.3027 241.784 89.1845C241.902 89.0664 242.063 89 242.23 89Z" fill="#C7C7C7"/>
<path d="M204.37 313.11C204.824 313.11 205.259 313.29 205.579 313.611C205.9 313.931 206.08 314.366 206.08 314.82C206.08 315.273 205.9 315.708 205.579 316.029C205.259 316.35 204.824 316.53 204.37 316.53C203.917 316.53 203.482 316.35 203.161 316.029C202.84 315.708 202.66 315.273 202.66 314.82C202.66 314.366 202.84 313.931 203.161 313.611C203.482 313.29 203.917 313.11 204.37 313.11Z" fill="#C7C7C7"/>
<path d="M429.72 183.84C430.173 183.84 430.608 184.02 430.929 184.341C431.25 184.661 431.43 185.096 431.43 185.55C431.43 186.003 431.25 186.438 430.929 186.759C430.608 187.08 430.173 187.26 429.72 187.26C429.266 187.26 428.831 187.08 428.511 186.759C428.19 186.438 428.01 186.003 428.01 185.55C428.01 185.096 428.19 184.661 428.511 184.341C428.831 184.02 429.266 183.84 429.72 183.84Z" fill="#C7C7C7"/>
<path d="M79.5996 333.83C80.0532 333.83 80.4881 334.01 80.8088 334.331C81.1295 334.652 81.3096 335.087 81.3096 335.54C81.3096 335.994 81.1295 336.429 80.8088 336.749C80.4881 337.07 80.0532 337.25 79.5996 337.25C79.1461 337.25 78.7112 337.07 78.3905 336.749C78.0698 336.429 77.8896 335.994 77.8896 335.54C77.8896 335.087 78.0698 334.652 78.3905 334.331C78.7112 334.01 79.1461 333.83 79.5996 333.83Z" fill="#C7C7C7"/>
<path d="M184 174.82L187.08 175.39L187.77 178.64L188.45 175.39L191.53 174.82L188.47 174.07L187.77 171.01L187.06 174.07L184 174.82Z" fill="#C7C7C7"/>
<path d="M288.73 423.25L291.81 423.82L292.5 427.07L293.18 423.82L296.26 423.25L293.2 422.5L292.5 419.44L291.8 422.5L288.73 423.25Z" fill="#C7C7C7"/>
<path d="M302.37 383.27C302.606 383.27 302.833 383.364 303 383.531C303.167 383.698 303.26 383.924 303.26 384.16C303.26 384.396 303.167 384.622 303 384.789C302.833 384.956 302.606 385.05 302.37 385.05C302.134 385.05 301.908 384.956 301.741 384.789C301.574 384.622 301.48 384.396 301.48 384.16C301.48 383.924 301.574 383.698 301.741 383.531C301.908 383.364 302.134 383.27 302.37 383.27Z" fill="#C7C7C7"/>
<path d="M337.15 359.53C337.386 359.53 337.612 359.624 337.779 359.79C337.946 359.957 338.04 360.184 338.04 360.42C338.04 360.656 337.946 360.882 337.779 361.049C337.612 361.216 337.386 361.31 337.15 361.31C336.914 361.31 336.687 361.216 336.52 361.049C336.354 360.882 336.26 360.656 336.26 360.42C336.26 360.184 336.354 359.957 336.52 359.79C336.687 359.624 336.914 359.53 337.15 359.53Z" fill="#C7C7C7"/>
<path d="M227.09 400.52L230.17 401.09L230.86 404.33L231.55 401.09L234.63 400.51L231.56 399.77L230.86 396.7L230.16 399.77L227.09 400.52Z" fill="#C7C7C7"/>
<path d="M353.83 113.07C354.051 113.093 354.255 113.198 354.404 113.363C354.553 113.528 354.635 113.743 354.635 113.965C354.635 114.187 354.553 114.402 354.404 114.567C354.255 114.732 354.051 114.836 353.83 114.86C353.609 114.836 353.404 114.732 353.255 114.567C353.107 114.402 353.024 114.187 353.024 113.965C353.024 113.743 353.107 113.528 353.255 113.363C353.404 113.198 353.609 113.093 353.83 113.07Z" fill="#C7C7C7"/>
<path d="M375.3 362.34C375.455 362.359 375.597 362.435 375.701 362.551C375.804 362.668 375.861 362.819 375.861 362.975C375.861 363.131 375.804 363.281 375.701 363.398C375.597 363.515 375.455 363.59 375.3 363.61C375.146 363.59 375.003 363.515 374.9 363.398C374.797 363.281 374.74 363.131 374.74 362.975C374.74 362.819 374.797 362.668 374.9 362.551C375.003 362.435 375.146 362.359 375.3 362.34Z" fill="#C7C7C7"/>
<path d="M106.65 255L109.73 255.57L110.42 258.82L111.1 255.57L114.18 255L111.12 254.25L110.42 251.19L109.72 254.25L106.65 255Z" fill="#C7C7C7"/>
<path d="M71.0599 304.12C71.296 304.12 71.5223 304.214 71.6892 304.381C71.8562 304.548 71.9499 304.774 71.9499 305.01C71.9499 305.246 71.8562 305.473 71.6892 305.639C71.5223 305.806 71.296 305.9 71.0599 305.9C70.8239 305.9 70.5975 305.806 70.4306 305.639C70.2637 305.473 70.1699 305.246 70.1699 305.01C70.1699 304.774 70.2637 304.548 70.4306 304.381C70.5975 304.214 70.8239 304.12 71.0599 304.12Z" fill="#C7C7C7"/>
<path d="M194.18 238.39C194.416 238.39 194.642 238.484 194.809 238.651C194.976 238.818 195.07 239.044 195.07 239.28C195.07 239.516 194.976 239.743 194.809 239.909C194.642 240.076 194.416 240.17 194.18 240.17C193.944 240.17 193.718 240.076 193.551 239.909C193.384 239.743 193.29 239.516 193.29 239.28C193.29 239.044 193.384 238.818 193.551 238.651C193.718 238.484 193.944 238.39 194.18 238.39Z" fill="#C7C7C7"/>
<path d="M89.59 148.22C89.757 148.22 89.9173 148.287 90.0354 148.405C90.1536 148.523 90.22 148.683 90.22 148.85C90.22 149.017 90.1536 149.178 90.0354 149.296C89.9173 149.414 89.757 149.48 89.59 149.48C89.4229 149.48 89.2626 149.414 89.1445 149.296C89.0263 149.178 88.96 149.017 88.96 148.85C88.96 148.683 89.0263 148.523 89.1445 148.405C89.2626 148.287 89.4229 148.22 89.59 148.22Z" fill="#C7C7C7"/>
<path d="M81.5098 142.41C81.9421 142.443 82.3459 142.638 82.6405 142.956C82.9351 143.274 83.0988 143.692 83.0988 144.125C83.0988 144.559 82.9351 144.976 82.6405 145.294C82.3459 145.612 81.9421 145.807 81.5098 145.84C81.0776 145.807 80.6738 145.612 80.3792 145.294C80.0846 144.976 79.9209 144.559 79.9209 144.125C79.9209 143.692 80.0846 143.274 80.3792 142.956C80.6738 142.638 81.0776 142.443 81.5098 142.41Z" fill="#C7C7C7"/>
<path d="M372.9 222C373.354 222 373.789 222.18 374.11 222.501C374.43 222.822 374.61 223.256 374.61 223.71C374.61 224.164 374.43 224.598 374.11 224.919C373.789 225.24 373.354 225.42 372.9 225.42C372.447 225.42 372.012 225.24 371.691 224.919C371.371 224.598 371.19 224.164 371.19 223.71C371.19 223.256 371.371 222.822 371.691 222.501C372.012 222.18 372.447 222 372.9 222Z" fill="#C7C7C7"/>
</svg>
