<svg width="500" height="500" viewBox="0 0 500 500" fill="none" xmlns="http://www.w3.org/2000/svg">
<path d="M166.19 77.9201C166.19 77.9201 90.4196 116.52 52.6296 176C14.8396 235.48 17.8296 312 63.7496 368.8C109.67 425.6 197.44 418.14 270.93 454.12C344.42 490.1 425.5 482.69 460.25 406.46C495 330.23 442.6 301.74 433.6 213.52C424.6 125.3 345.07 -3.87991 166.19 77.9201Z" fill="#6C63FF"/>
<path opacity="0.8" d="M166.19 77.9201C166.19 77.9201 90.4196 116.52 52.6296 176C14.8396 235.48 17.8296 312 63.7496 368.8C109.67 425.6 197.44 418.14 270.93 454.12C344.42 490.1 425.5 482.69 460.25 406.46C495 330.23 442.6 301.74 433.6 213.52C424.6 125.3 345.07 -3.87991 166.19 77.9201Z" fill="white"/>
<path d="M394.43 76.0001C389.75 73.4401 387.62 75.5701 385.91 73.4401C384.2 71.3101 390.6 65.7701 377.82 60.2401C377.82 60.2401 376.97 48.3101 359.5 47.8801C342.03 47.4501 346.72 59.8401 342 62.8201C337.28 65.8001 336 61.1201 331.35 64.1001C326.7 67.0801 328.79 73.1001 324.96 73.9001C321.13 74.7001 316.01 70.0601 311.33 73.0501C306.65 76.0401 306.64 78.5801 304.51 78.5801C302.38 78.5801 298.12 76.8801 295.57 78.5801C293.02 80.2801 290.03 82.4201 290.03 82.4201H397.84C397.84 82.4201 399.12 78.5801 394.43 76.0001Z" stroke="#263238" stroke-linecap="round" stroke-linejoin="round"/>
<path d="M330.68 74.28C330.068 74.6221 329.433 74.9228 328.78 75.18" stroke="#263238" stroke-linecap="round" stroke-linejoin="round"/>
<path d="M353.74 54.3799C352.683 54.8525 351.753 55.5711 351.03 56.4756C350.306 57.3801 349.809 58.4444 349.58 59.5799C348.8 63.4799 346.98 66.0799 344.9 66.3399C342.82 66.5999 335.02 65.8199 333.72 68.6799C333.374 69.5176 333.129 70.3939 332.99 71.2899" stroke="#263238" stroke-linecap="round" stroke-linejoin="round"/>
<path d="M339.79 106.65C337.33 105.31 336.22 106.43 335.32 105.31C334.42 104.19 337.78 101.31 331.08 98.39C331.08 98.39 330.63 92.13 321.48 91.91C312.33 91.69 314.78 98.16 312.32 99.73C309.86 101.3 309.19 98.83 306.74 100.4C304.29 101.97 305.4 105.09 303.39 105.53C301.38 105.97 298.69 103.53 296.24 105.09C293.79 106.65 293.78 107.99 292.66 107.99C291.54 107.99 289.31 107.1 287.97 107.99C286.63 108.88 285.07 109.99 285.07 109.99H341.58C341.58 109.99 342.25 108 339.79 106.65Z" stroke="#263238" stroke-linecap="round" stroke-linejoin="round"/>
<path d="M306.36 105.73C306.041 105.914 305.706 106.071 305.36 106.2" stroke="#263238" stroke-linecap="round" stroke-linejoin="round"/>
<path d="M318.45 95.3C317.899 95.5454 317.414 95.918 317.035 96.3874C316.656 96.8568 316.394 97.4095 316.27 98C315.86 100 314.91 101.41 313.82 101.55C312.73 101.69 308.64 101.28 307.96 102.78C307.777 103.216 307.646 103.673 307.57 104.14" stroke="#263238" stroke-linecap="round" stroke-linejoin="round"/>
<path d="M56.5802 201.5C56.5802 201.5 101.58 205.95 124.35 233.83C124.35 233.83 148.43 201.53 191.69 202.2C202.256 189.45 208.982 173.96 211.086 157.536C213.19 141.111 210.586 124.426 203.576 109.424C196.566 94.4225 185.439 81.7204 171.49 72.7967C157.541 63.8731 141.345 59.0952 124.786 59.0192C108.227 58.9433 91.9872 63.5723 77.9571 72.3676C63.9271 81.1628 52.6839 93.7623 45.5365 108.699C38.3891 123.636 35.6316 140.296 37.585 156.74C39.5383 173.183 46.1222 188.733 56.5702 201.58L56.5802 201.5Z" fill="#6C63FF"/>
<path opacity="0.5" d="M56.5802 201.5C56.5802 201.5 101.58 205.95 124.35 233.83C124.35 233.83 148.43 201.53 191.69 202.2C202.256 189.45 208.982 173.96 211.086 157.536C213.19 141.111 210.586 124.426 203.576 109.424C196.566 94.4225 185.439 81.7204 171.49 72.7967C157.541 63.8731 141.345 59.0952 124.786 59.0192C108.227 58.9433 91.9872 63.5723 77.9571 72.3676C63.9271 81.1628 52.6839 93.7623 45.5365 108.699C38.3891 123.636 35.6316 140.296 37.585 156.74C39.5383 173.183 46.1222 188.733 56.5702 201.58L56.5802 201.5Z" fill="white"/>
<path d="M122.86 65.1599L121.34 409H128.94L122.86 65.1599Z" fill="#263238"/>
<path d="M125.14 225.33C125.14 225.33 140.32 198.01 167.65 189.66C167.65 189.66 138.8 196.49 124.38 220.02L125.14 225.33Z" fill="#263238"/>
<path d="M125.14 147.91C125.14 147.91 140.32 120.58 167.65 112.23C167.65 112.23 138.8 119.06 124.38 142.59L125.14 147.91Z" fill="#263238"/>
<path d="M125.14 186.62C125.14 186.62 140.32 159.29 167.65 150.94C167.65 150.94 138.8 157.77 124.38 181.31L125.14 186.62Z" fill="#263238"/>
<path d="M122.89 167.64C122.89 167.64 108.24 140.31 81.8896 131.96C81.8896 131.96 109.73 138.8 123.64 162.33L122.89 167.64Z" fill="#263238"/>
<path d="M122.89 205.6C122.89 205.6 108.24 178.27 81.8896 169.92C81.8896 169.92 109.73 176.75 123.64 200.28L122.89 205.6Z" fill="#263238"/>
<path d="M345.8 230.93C345.8 230.93 384.4 234.75 403.96 258.68C403.96 258.68 424.62 230.96 461.74 231.53C470.803 220.589 476.572 207.299 478.376 193.207C480.179 179.115 477.943 164.8 471.928 151.93C465.912 139.059 456.365 128.161 444.397 120.506C432.429 112.85 418.532 108.752 404.325 108.687C390.118 108.622 376.185 112.593 364.148 120.139C352.11 127.685 342.463 138.495 336.331 151.31C330.198 164.125 327.831 178.418 329.505 192.526C331.18 206.635 336.827 219.977 345.79 231L345.8 230.93Z" fill="#6C63FF"/>
<path opacity="0.5" d="M345.8 230.93C345.8 230.93 384.4 234.75 403.96 258.68C403.96 258.68 424.62 230.96 461.74 231.53C470.803 220.589 476.572 207.299 478.376 193.207C480.179 179.115 477.943 164.8 471.928 151.93C465.912 139.059 456.365 128.161 444.397 120.506C432.429 112.85 418.532 108.752 404.325 108.687C390.118 108.622 376.185 112.593 364.148 120.139C352.11 127.685 342.463 138.495 336.331 151.31C330.198 164.125 327.831 178.418 329.505 192.526C331.18 206.635 336.827 219.977 345.79 231L345.8 230.93Z" fill="white"/>
<path d="M402.68 113.93L401.38 409H407.89L402.68 113.93Z" fill="#263238"/>
<path d="M404.63 251.38C404.63 251.38 417.63 227.93 441.11 220.77C441.11 220.77 416.36 226.63 403.98 246.77L404.63 251.38Z" fill="#263238"/>
<path d="M404.63 184.94C404.63 184.94 417.63 161.49 441.11 154.32C441.11 154.32 416.36 160.18 403.98 180.38L404.63 184.94Z" fill="#263238"/>
<path d="M404.63 218.16C404.63 218.16 417.63 194.71 441.11 187.54C441.11 187.54 416.36 193.41 403.98 213.6L404.63 218.16Z" fill="#263238"/>
<path d="M402.7 201.88C402.7 201.88 390.13 178.42 367.5 171.26C367.5 171.26 391.39 177.12 403.33 197.32L402.7 201.88Z" fill="#263238"/>
<path d="M402.7 234.45C402.7 234.45 390.13 211 367.5 203.83C367.5 203.83 391.39 209.69 403.33 229.89L402.7 234.45Z" fill="#263238"/>
<path d="M255.64 410.23C255.78 407.1 255.36 401.17 251.96 392.23C246.63 378.23 237.3 406.23 237.3 406.23C237.3 406.23 237.3 402.9 227.3 392.23C217.3 381.56 208.63 400.23 208.63 400.23C208.63 400.23 213.3 355.57 201.96 358.9C190.62 362.23 191.96 400.23 191.96 400.23C191.96 400.23 183.96 372.23 173.3 372.23C162.64 372.23 159.96 392.23 159.96 392.23C159.96 392.23 157.3 356.9 146.63 356.23C135.96 355.56 124 385.57 124 385.57C124 385.57 127.34 345.57 116.67 343.57C106 341.57 102 358.23 102 358.23C102 358.23 92.6698 302.9 74.6698 309.57C56.6698 316.24 71.9998 377.57 71.9998 377.57C71.9998 377.57 53.9998 334.9 39.2998 344.9C25.9998 354 42.9298 401.64 46.1298 410.23H255.64Z" fill="#6C63FF"/>
<path d="M40.6298 411.57C40.6298 411.57 32.6298 386.23 36.6298 382.23C40.6298 378.23 57.9998 395.57 57.9998 395.57C57.9998 395.57 45.3398 352.9 65.3398 347.57C85.3398 342.24 88.6298 388.9 88.6298 388.9C88.6298 388.9 103.3 367.57 106.63 375.57C108.655 380.439 109.796 385.63 110 390.9C110 390.9 117.34 332.9 134 335.57C150.66 338.24 135.34 395.57 135.34 395.57C135.34 395.57 144.67 375.57 155.34 377.57C166.01 379.57 170 392.23 170 392.23C170 392.23 174.67 380.9 178 380.9C181.33 380.9 185.34 400.9 185.34 400.9C185.34 400.9 189.34 370.23 196.67 371.57C204 372.91 219.3 398.9 219.3 398.9C219.3 398.9 216.63 384.23 224.63 383.57C232.63 382.91 237.3 406.23 237.3 406.23C237.3 406.23 247.96 384.23 254.63 388.23C261.3 392.23 258 413.57 258 413.57" stroke="#263238" stroke-linecap="round" stroke-linejoin="round"/>
<path d="M77.2999 411.57L70.6299 381.57" stroke="#263238" stroke-linecap="round" stroke-linejoin="round"/>
<path d="M117.96 410.23L121.3 391.57" stroke="#263238" stroke-linecap="round" stroke-linejoin="round"/>
<path d="M203.96 411.57L197.96 394.9" stroke="#263238" stroke-linecap="round" stroke-linejoin="round"/>
<path d="M150.63 410.9L157.96 397.57" stroke="#263238" stroke-linecap="round" stroke-linejoin="round"/>
<path d="M75.2998 398.9L80.6298 388.23" stroke="#263238" stroke-linecap="round" stroke-linejoin="round"/>
<path d="M117.96 404.23L113.3 394.9" stroke="#263238" stroke-linecap="round" stroke-linejoin="round"/>
<path d="M153.96 403.57L150.63 397.57" stroke="#263238" stroke-linecap="round" stroke-linejoin="round"/>
<path d="M201.3 402.9L203.3 396.23" stroke="#263238" stroke-linecap="round" stroke-linejoin="round"/>
<path d="M460.22 410.23C460.36 407.1 459.94 401.17 456.54 392.23C451.21 378.23 441.88 406.23 441.88 406.23C441.88 406.23 441.88 402.9 431.88 392.23C421.88 381.56 413.21 400.23 413.21 400.23C413.21 400.23 417.88 355.57 406.54 358.9C395.2 362.23 396.54 400.23 396.54 400.23C396.54 400.23 388.54 372.23 377.88 372.23C367.22 372.23 364.54 392.23 364.54 392.23C364.54 392.23 361.88 356.9 351.21 356.23C340.54 355.56 328.54 385.57 328.54 385.57C328.54 385.57 331.88 345.57 321.21 343.57C310.54 341.57 306.54 358.23 306.54 358.23C306.54 358.23 297.21 302.9 279.21 309.57C261.21 316.24 276.54 377.57 276.54 377.57C276.54 377.57 258.54 334.9 243.88 344.9C230.54 353.99 247.51 401.64 250.71 410.23H460.22Z" fill="#6C63FF"/>
<path d="M245.21 411.57C245.21 411.57 237.21 386.23 241.21 382.23C245.21 378.23 262.54 395.57 262.54 395.57C262.54 395.57 249.88 352.9 269.88 347.57C289.88 342.24 293.21 388.9 293.21 388.9C293.21 388.9 307.88 367.57 311.21 375.57C313.222 380.442 314.349 385.633 314.54 390.9C314.54 390.9 321.88 332.9 338.54 335.57C355.2 338.24 339.88 395.57 339.88 395.57C339.88 395.57 349.21 375.57 359.88 377.57C370.55 379.57 374.54 392.23 374.54 392.23C374.54 392.23 379.21 380.9 382.54 380.9C385.87 380.9 389.88 400.9 389.88 400.9C389.88 400.9 393.88 370.23 401.21 371.57C408.54 372.91 423.88 398.9 423.88 398.9C423.88 398.9 421.21 384.23 429.21 383.57C437.21 382.91 441.88 406.23 441.88 406.23C441.88 406.23 452.54 384.23 459.21 388.23C465.88 392.23 462.54 413.57 462.54 413.57" stroke="#263238" stroke-linecap="round" stroke-linejoin="round"/>
<path d="M281.88 411.57L275.21 381.57" stroke="#263238" stroke-linecap="round" stroke-linejoin="round"/>
<path d="M322.54 410.23L325.88 391.57" stroke="#263238" stroke-linecap="round" stroke-linejoin="round"/>
<path d="M408.54 411.57L402.54 394.9" stroke="#263238" stroke-linecap="round" stroke-linejoin="round"/>
<path d="M355.21 410.9L362.54 397.57" stroke="#263238" stroke-linecap="round" stroke-linejoin="round"/>
<path d="M279.88 398.9L285.21 388.23" stroke="#263238" stroke-linecap="round" stroke-linejoin="round"/>
<path d="M322.54 404.23L317.88 394.9" stroke="#263238" stroke-linecap="round" stroke-linejoin="round"/>
<path d="M358.54 403.57L355.21 397.57" stroke="#263238" stroke-linecap="round" stroke-linejoin="round"/>
<path d="M405.88 402.9L407.88 396.23" stroke="#263238" stroke-linecap="round" stroke-linejoin="round"/>
<path d="M242.39 335.82H231.28V413.57H242.39V335.82Z" fill="#CCCCCC" stroke="#263238" stroke-linecap="round" stroke-linejoin="round"/>
<path d="M251.91 335.82H240.8V413.57H251.91V335.82Z" fill="white" stroke="#263238" stroke-linecap="round" stroke-linejoin="round"/>
<path d="M361.39 335.82H350.28V413.57H361.39V335.82Z" fill="#CCCCCC" stroke="#263238" stroke-linecap="round" stroke-linejoin="round"/>
<path d="M370.91 335.82H359.8V413.57H370.91V335.82Z" fill="white" stroke="#263238" stroke-linecap="round" stroke-linejoin="round"/>
<path d="M429.62 335.82H418.51V413.57H429.62V335.82Z" fill="#CCCCCC" stroke="#263238" stroke-linecap="round" stroke-linejoin="round"/>
<path d="M439.14 335.82H428.03V413.57H439.14V335.82Z" fill="white" stroke="#263238" stroke-linecap="round" stroke-linejoin="round"/>
<path d="M415.34 335.82H404.23V413.57H415.34V335.82Z" fill="#CCCCCC" stroke="#263238" stroke-linecap="round" stroke-linejoin="round"/>
<path d="M424.86 335.82H413.75V413.57H424.86V335.82Z" fill="white" stroke="#263238" stroke-linecap="round" stroke-linejoin="round"/>
<path d="M463.73 335.82H452.62V413.57H463.73V335.82Z" fill="#CCCCCC" stroke="#263238" stroke-linecap="round" stroke-linejoin="round"/>
<path d="M473.25 335.82H462.14V413.57H473.25V335.82Z" fill="white" stroke="#263238" stroke-linecap="round" stroke-linejoin="round"/>
<path d="M370.47 164.07C369.609 163.397 368.544 163.04 367.452 163.058C366.36 163.076 365.307 163.469 364.47 164.17L297.38 220.08V232.47L367.61 173.94L442.56 232.34V220.28L370.47 164.07Z" fill="#B2B2B2" stroke="#263238" stroke-linecap="round" stroke-linejoin="round"/>
<path d="M438.95 340.24H301.23V222.92L367.54 167.83L438.95 222.92V340.24Z" fill="white" stroke="#263238" stroke-linecap="round" stroke-linejoin="round"/>
<path d="M375.67 340.24H420.89V296.16L375.67 265.22V340.24Z" fill="#CCCCCC" stroke="#263238" stroke-linecap="round" stroke-linejoin="round"/>
<path d="M368.56 340.24H230.84V222.92L297.15 167.83L368.56 222.92V340.24Z" fill="#CCCCCC" stroke="#263238" stroke-linecap="round" stroke-linejoin="round"/>
<path d="M258.7 199.37H335.39" stroke="#263238" stroke-linecap="round" stroke-linejoin="round"/>
<path d="M230.49 227.14H437.64" stroke="#263238" stroke-linecap="round" stroke-linejoin="round"/>
<path d="M230.49 254.9H438.28" stroke="#263238" stroke-linecap="round" stroke-linejoin="round"/>
<path d="M230.49 282.67H375.67" stroke="#263238" stroke-linecap="round" stroke-linejoin="round"/>
<path d="M230.49 310.44H376.16" stroke="#263238" stroke-linecap="round" stroke-linejoin="round"/>
<path d="M297.82 166.83H368.21L441.29 223.11H370.9L297.82 166.83Z" fill="white" stroke="#263238" stroke-linecap="round" stroke-linejoin="round"/>
<path d="M318.88 181.06H386.32" stroke="#263238" stroke-linecap="round" stroke-linejoin="round"/>
<path d="M337.73 195.38H404.71" stroke="#263238" stroke-linecap="round" stroke-linejoin="round"/>
<path d="M356.57 209.69H423.34" stroke="#263238" stroke-linecap="round" stroke-linejoin="round"/>
<path d="M370.82 219.2L300.08 164.07C299.22 163.397 298.154 163.04 297.062 163.058C295.97 163.076 294.917 163.469 294.08 164.17L227.25 219.86V232.25L297.25 173.94L370.82 231.27V219.2Z" fill="#B2B2B2" stroke="#263238" stroke-linecap="round" stroke-linejoin="round"/>
<path d="M479.53 301.75L428.09 268.87V251.73L479.53 284.61V301.75Z" fill="#B2B2B2" stroke="#263238" stroke-linecap="round" stroke-linejoin="round"/>
<path d="M418.51 340.24H476.42V296.16L418.51 265.22V340.24Z" fill="white" stroke="#263238" stroke-linecap="round" stroke-linejoin="round"/>
<path d="M424.9 296.2H478.84L431.2 265.22H375.67L424.9 296.2Z" fill="white" stroke="#263238" stroke-linecap="round" stroke-linejoin="round"/>
<path d="M424.39 301.75L372.96 268.87V251.73L424.39 284.61V301.75Z" fill="#B2B2B2" stroke="#263238" stroke-linecap="round" stroke-linejoin="round"/>
<path d="M320.14 275.98H273.33V340.24H320.14V275.98Z" fill="#263238" stroke="#263238" stroke-linecap="round" stroke-linejoin="round"/>
<path d="M320.14 213.3H273.33V277.56H320.14V213.3Z" fill="#CCCCCC" stroke="#263238" stroke-linecap="round" stroke-linejoin="round"/>
<path d="M320.14 222.2H273.33V231.1H320.14V222.2Z" fill="#B2B2B2" stroke="#263238" stroke-linecap="round" stroke-linejoin="round"/>
<path d="M273.28 340.24H320.88L287.66 413.57H240.06L273.28 340.24Z" fill="white" stroke="#263238" stroke-linecap="round" stroke-linejoin="round"/>
<path d="M268.45 350.89H316.05L313.18 357.24H265.58L268.45 350.89Z" fill="#CCCCCC" stroke="#263238" stroke-linecap="round" stroke-linejoin="round"/>
<path d="M258.75 372.31H306.35L303.47 378.66H255.87L258.75 372.31Z" fill="#CCCCCC" stroke="#263238" stroke-linecap="round" stroke-linejoin="round"/>
<path d="M249.04 393.73H296.64L293.77 400.08H246.17L249.04 393.73Z" fill="#CCCCCC" stroke="#263238" stroke-linecap="round" stroke-linejoin="round"/>
<path d="M197 470C282.604 470 352 460.598 352 449C352 437.402 282.604 428 197 428C111.396 428 42 437.402 42 449C42 460.598 111.396 470 197 470Z" fill="#6C63FF"/>
<path opacity="0.5" d="M197 470C282.604 470 352 460.598 352 449C352 437.402 282.604 428 197 428C111.396 428 42 437.402 42 449C42 460.598 111.396 470 197 470Z" fill="white"/>
<path d="M254 267C254 267 264.8 271.37 273 272.14C281.2 272.91 293.82 267 295.88 256.2C297.94 245.4 290.99 225.1 288.68 220.73C286.37 216.36 272.48 185.51 264.77 178.83C257.06 172.15 244.46 168.28 241.89 167.26C239.32 166.24 241.12 176 240.61 182.17C240.1 188.34 240.09 219.7 240.09 219.7L238.29 260.83C238.29 260.83 247.78 264.41 254 267Z" fill="white"/>
<path d="M254 267C254 267 264.8 271.37 273 272.14C281.2 272.91 293.82 267 295.88 256.2C297.94 245.4 290.99 225.1 288.68 220.73C286.37 216.36 272.48 185.51 264.77 178.83C257.06 172.15 244.46 168.28 241.89 167.26C239.32 166.24 241.12 176 240.61 182.17C240.1 188.34 240.09 219.7 240.09 219.7L238.29 260.83C238.29 260.83 247.78 264.41 254 267Z" fill="black"/>
<path d="M290.55 225.19C289.267 225.021 287.974 224.941 286.68 224.95C285.05 220.68 283.18 216.23 281.2 211.95C281.95 211.31 282.71 210.7 283.48 210.1L282.57 208.25C281.81 208.83 281.06 209.43 280.31 210.05C277.675 204.378 274.668 198.886 271.31 193.61C271.81 192.21 272.31 190.92 272.69 189.76C272.24 189.01 271.8 188.27 271.36 187.56C270.94 188.72 270.45 190.06 269.92 191.56C268.757 189.826 267.417 188.217 265.92 186.76C264.233 185.228 262.442 183.815 260.56 182.53C261.16 180.39 261.71 178.493 262.21 176.84C261.65 176.44 261.07 176.05 260.48 175.67C259.98 177.3 259.42 179.21 258.81 181.36C253.497 177.999 247.787 175.312 241.81 173.36L241.22 175.27C247.204 177.268 252.915 180.006 258.22 183.42C257.44 186.32 256.6 189.57 255.79 193.08C252.337 191.291 248.626 190.049 244.79 189.4L244.52 191.4C248.297 192.023 251.952 193.238 255.35 195C254.49 198.82 253.68 202.91 252.97 207.14C250.486 205.103 247.892 203.204 245.2 201.45L244.13 203.14C247.076 205.074 249.904 207.181 252.6 209.45C251.95 213.6 251.42 217.85 251.08 222.11C248.673 220.254 246.129 218.583 243.47 217.11L242.53 218.87C245.477 220.535 248.279 222.442 250.91 224.57C250.73 227.51 250.63 230.45 250.67 233.33H252.67C252.67 230.99 252.67 228.61 252.82 226.21C254.53 227.72 256.115 229.366 257.56 231.13C257.22 232.55 256.93 233.9 256.68 235.13L257.91 235.37C255.91 238.22 254.68 240.16 254.49 240.46L256.18 241.52L256.95 240.34L257.01 240.39C257.01 240.39 257.45 240 258.16 239.39V239.61C260.401 240.183 262.561 241.033 264.59 242.14L262.59 243.06C244.7 251.19 240.15 252.32 240.11 252.33L240.56 254.28C240.74 254.28 245.2 253.16 263.41 244.88C264.537 244.373 265.597 243.873 266.59 243.38C269.937 245.517 272.543 248.636 274.05 252.31H273.92C272.009 252.586 270.127 253.042 268.3 253.67C262.5 255.93 244.75 257.59 244.57 257.61L244.76 259.61C245.5 259.54 262.97 257.91 269.03 255.55C270.734 254.968 272.488 254.547 274.27 254.29L274.69 254.21C275.124 255.865 275.339 257.569 275.33 259.28C275.333 260.422 275.276 261.564 275.16 262.7C274.48 262.89 273.81 263.06 273.16 263.19C268.73 264.02 258.07 264.99 250.71 265.6L254 267L254.84 267.33C261.69 266.73 269.75 265.94 273.55 265.23C274 265.14 274.46 265.04 274.91 264.93C274.496 267.453 273.61 269.875 272.3 272.07L273.03 272.14C273.529 272.189 274.029 272.212 274.53 272.21C275.822 269.741 276.669 267.063 277.03 264.3C282.05 262.693 286.407 259.49 289.44 255.18C289.55 255.53 289.66 255.89 289.74 256.25C290.728 259.899 290.373 263.781 288.74 267.19C289.865 266.34 290.903 265.382 291.84 264.33C292.473 261.514 292.432 258.588 291.72 255.79C291.482 254.797 291.174 253.821 290.8 252.87C291.511 251.41 292.029 249.864 292.34 248.27C293.04 244.59 290.94 236.35 287.52 227.01C288.817 227.019 290.112 227.133 291.39 227.35C291.05 226.57 290.79 225.86 290.55 225.19ZM284.6 225.05C282.871 225.193 281.155 225.474 279.47 225.89C278.36 223.63 276.88 220.69 275.21 217.53C276.64 216.07 278.12 214.65 279.63 213.29C281.42 217.19 283.11 221.19 284.6 225.05ZM274.1 236.79C271.551 235.574 268.905 234.57 266.19 233.79C267.46 233.02 268.83 232.26 270.28 231.53C270.328 231.623 270.368 231.72 270.4 231.82C270.38 231.704 270.38 231.586 270.4 231.47L270.99 231.18L271.33 231.67L270.78 232.5L271.5 232.95L272.08 232.38C272.4 232.06 272.61 231.85 272.08 230.67C274.136 229.726 276.258 228.933 278.43 228.3C279.05 229.57 279.48 230.47 279.66 230.86C279.55 231.37 278.85 233.46 274.1 236.79ZM281.32 232.22C283.228 233.469 284.683 235.298 285.472 237.437C286.261 239.576 286.341 241.912 285.7 244.1C285.64 244.34 285.57 244.55 285.5 244.77C282.764 241.955 279.598 239.592 276.12 237.77C279.41 235.37 280.78 233.49 281.32 232.22ZM267.43 223.05C267.04 222.44 266.62 221.81 266.17 221.12C265.32 219.835 264.405 218.594 263.43 217.4C264.51 213.88 265.66 210.3 266.8 206.85C268.8 210.04 270.86 213.68 272.73 217.16C270.86 219.1 269.09 221.09 267.43 223.05ZM273.74 219.05C275.19 221.8 276.48 224.35 277.49 226.4C275.299 227.058 273.157 227.87 271.08 228.83C270.51 227.83 269.7 226.55 268.59 224.83C270.2 222.92 271.93 221 273.74 219.06V219.05ZM267.24 226.45C268.15 227.88 268.8 228.94 269.24 229.71C266.271 231.225 263.42 232.959 260.71 234.9C262.5 232.47 264.71 229.54 267.24 226.46V226.45ZM270.51 196C273.546 200.972 276.293 206.114 278.74 211.4C277.19 212.77 275.67 214.2 274.2 215.68C272.13 211.85 269.84 207.84 267.61 204.44C268.62 201.41 269.61 198.55 270.51 196ZM260 184.55C261.6 185.676 263.13 186.898 264.58 188.21C266.311 189.913 267.844 191.805 269.15 193.85C268.25 196.41 267.25 199.27 266.22 202.32C265.001 200.488 263.59 198.792 262.01 197.26C260.658 196.049 259.195 194.967 257.64 194.03C258.41 190.61 259.22 187.41 260 184.55ZM257.17 196.11C258.411 196.884 259.582 197.764 260.67 198.74C262.476 200.553 264.07 202.566 265.42 204.74C264.24 208.27 263.04 211.97 261.9 215.64C259.669 213.175 257.281 210.857 254.75 208.7C255.45 204.3 256.28 200.07 257.16 196.11H257.17ZM258.17 228.71C256.578 226.914 254.849 225.242 253 223.71C253.29 219.46 253.78 215.21 254.4 211.05C256.831 213.168 259.11 215.453 261.22 217.89C260.05 221.64 259 225.33 258.15 228.71H258.17ZM259.7 230.82L259.82 230.73L259.75 230.64C260.56 227.29 261.6 223.58 262.75 219.74C263.38 220.55 263.98 221.38 264.53 222.22C265.08 223.06 265.64 223.91 266.11 224.65C263.33 228.02 260.91 231.23 259.02 233.87C259.19 232.9 259.43 231.87 259.68 230.82H259.7ZM259.9 238.07C261.04 237.19 262.5 236.14 264.19 235.07L264.13 235.34C266.875 236.035 269.552 236.972 272.13 238.14C270.63 239.08 268.83 240.09 266.68 241.14C264.542 239.854 262.259 238.824 259.88 238.07H259.9ZM268.55 242.43C270.8 241.25 272.68 240.15 274.23 239.13C278.151 241.046 281.687 243.666 284.66 246.86C282.85 250.17 279.66 251.25 276.06 251.97C274.542 248.12 271.923 244.801 268.53 242.43H268.55ZM277.25 262.08C277.31 261.21 277.35 260.3 277.35 259.33C277.359 257.494 277.127 255.665 276.66 253.89C280.24 253.14 283.81 251.94 286.02 248.51C287.02 249.831 287.863 251.264 288.53 252.78C285.973 257.111 281.972 260.404 277.23 262.08H277.25ZM290.31 247.88C290.146 248.734 289.912 249.574 289.61 250.39C288.865 249.014 287.991 247.711 287 246.5C287.256 245.873 287.467 245.228 287.63 244.57C288.363 241.798 288.152 238.86 287.029 236.222C285.906 233.583 283.936 231.394 281.43 230C281.24 229.6 280.89 228.84 280.43 227.84C282.074 227.457 283.746 227.209 285.43 227.1C288.81 236.27 291 244.39 290.29 247.88H290.31Z" fill="#CCCCCC"/>
<path d="M254 267C254 267 264.8 271.37 273 272.14C281.2 272.91 293.82 267 295.88 256.2C297.94 245.4 290.99 225.1 288.68 220.73C286.37 216.36 272.48 185.51 264.77 178.83C257.06 172.15 244.46 168.28 241.89 167.26C239.32 166.24 241.12 176 240.61 182.17C240.1 188.34 240.09 219.7 240.09 219.7L238.29 260.83C238.29 260.83 247.78 264.41 254 267Z" stroke="#263238" stroke-linecap="round" stroke-linejoin="round"/>
<path d="M267.06 233.82C267.06 233.82 279.15 224.56 288.4 237.16" stroke="#263238" stroke-linecap="round" stroke-linejoin="round"/>
<path d="M180.93 98.3799C180.41 99.2399 180.68 84.5199 184.85 77.3799C186.25 74.9899 199.05 70.5099 211.42 73.3799C223.79 76.2499 229.09 82.4399 229.53 85.3099C229.97 88.1799 228 106.56 228 106.56C228 106.56 208.1 95.0699 180.93 98.3799Z" fill="#6C63FF" stroke="#263238" stroke-linecap="round" stroke-linejoin="round"/>
<path d="M246.328 117.01C247.295 107.604 229.039 98.022 205.553 95.6073C182.067 93.1926 162.243 98.8599 161.276 108.265C160.309 117.671 178.565 127.253 202.051 129.668C225.538 132.082 245.361 126.415 246.328 117.01Z" fill="#A6A6A6" stroke="#263238" stroke-linecap="round" stroke-linejoin="round"/>
<path d="M156.33 162.33C156.33 162.33 140 167.67 132.33 174C124.66 180.33 96.6705 206.33 84.3305 215C71.9905 223.67 67.3305 238 73.6705 248.67C80.0105 259.34 92.3305 262 100.33 260C108.33 258 118.33 246.33 127.33 241C136.33 235.67 143.33 226 143.33 226C143.33 226 148 192.33 149.67 182.33C151.34 172.33 157.67 163.67 157.67 163.67C157.67 163.67 157.67 161.33 156.33 162.33Z" fill="white"/>
<path d="M156.33 162.33C156.33 162.33 140 167.67 132.33 174C124.66 180.33 96.6705 206.33 84.3305 215C71.9905 223.67 67.3305 238 73.6705 248.67C80.0105 259.34 92.3305 262 100.33 260C108.33 258 118.33 246.33 127.33 241C136.33 235.67 143.33 226 143.33 226C143.33 226 148 192.33 149.67 182.33C151.34 172.33 157.67 163.67 157.67 163.67C157.67 163.67 157.67 161.33 156.33 162.33Z" fill="black"/>
<path d="M140.15 181.11C140.65 175.63 141.15 171.18 141.56 168.36C140.84 168.71 140.12 169.08 139.41 169.46C139.01 172.6 138.49 177.11 138.02 182.46C134.796 184.589 131.762 186.992 128.95 189.64C127.45 191.08 125.75 192.54 123.95 194C123.71 188.78 123.57 184.53 123.49 181.73L121.49 183.46C121.58 186.46 121.73 190.6 121.97 195.46C117.67 198.73 112.75 202.02 107.81 205.27C106.9 202.35 106.07 199.79 105.38 197.67L103.74 199.1C104.42 201.18 105.21 203.64 106.07 206.42L104.83 207.23C101.02 209.72 97.3498 212.13 94.0498 214.44C92.9628 213.513 91.7871 212.696 90.5398 212C90.0698 211.74 89.6198 211.52 89.1798 211.33C88.5498 211.82 87.9398 212.33 87.3498 212.74C88.163 213.031 88.9493 213.393 89.6998 213.82C90.6393 214.362 91.5324 214.981 92.3698 215.67C90.2198 217.22 88.2598 218.72 86.6098 220.15C84.5877 221.868 82.7902 223.833 81.2598 226C78.7923 225.783 76.3059 225.972 73.8998 226.56C73.4798 227.36 73.0998 228.17 72.7598 228.99C75.0991 228.25 77.5477 227.915 79.9998 228C75.2598 236.27 75.9998 246 82.2698 256.56C82.3583 256.709 82.4841 256.833 82.6349 256.919C82.7857 257.005 82.9562 257.05 83.1298 257.05C83.3097 257.053 83.4867 257.005 83.6398 256.91C83.8678 256.775 84.0328 256.555 84.0984 256.298C84.1641 256.041 84.125 255.768 83.9898 255.54C77.9898 245.35 77.4098 236.05 82.2598 228.21C83.0661 228.327 83.8643 228.494 84.6498 228.71C87.5554 229.535 90.2726 230.917 92.6498 232.78C92.3698 233.26 92.0898 233.78 91.8498 234.23C86.5398 244.8 94.2898 251.4 94.3698 251.47C94.4708 251.554 94.5875 251.618 94.7131 251.657C94.8387 251.696 94.9708 251.71 95.1017 251.698C95.2327 251.686 95.36 251.648 95.4764 251.586C95.5927 251.525 95.6958 251.441 95.7798 251.34C95.864 251.239 95.9274 251.122 95.9665 250.997C96.0055 250.871 96.0194 250.739 96.0073 250.608C95.9952 250.477 95.9574 250.35 95.8961 250.234C95.8347 250.117 95.751 250.014 95.6498 249.93C95.5798 249.87 89.0298 244.29 93.6498 235.13C93.8198 234.78 94.0298 234.43 94.2298 234.07C97.4202 236.985 100.163 240.355 102.37 244.07C102.12 245.631 102.265 247.229 102.79 248.72C102.874 248.887 103.002 249.026 103.161 249.123C103.32 249.221 103.503 249.271 103.69 249.27C103.846 249.272 104 249.238 104.14 249.17C104.319 249.076 104.465 248.931 104.56 248.752C104.654 248.574 104.693 248.371 104.67 248.17C105.576 249.91 106.463 251.763 107.33 253.73C107.408 253.909 107.537 254.061 107.7 254.168C107.863 254.274 108.055 254.331 108.25 254.33C108.388 254.328 108.524 254.297 108.65 254.24C108.89 254.133 109.078 253.935 109.174 253.69C109.269 253.445 109.264 253.172 109.16 252.93C107.775 249.719 106.181 246.603 104.39 243.6C104.705 241.535 105.283 239.519 106.11 237.6C108.114 242.835 109.826 248.176 111.24 253.6C111.81 253.16 112.37 252.7 112.94 252.23C111.407 246.434 109.513 240.74 107.27 235.18C108.641 232.649 110.32 230.298 112.27 228.18C114.03 234.9 115.69 241.98 117.01 248.87L118.77 247.41C117.39 240.41 115.68 233.26 113.9 226.5C114.74 225.68 115.64 224.87 116.61 224.08C118.806 222.327 121.118 220.723 123.53 219.28C123.8 222.48 124.1 225.75 124.44 229.03C121.626 230.686 119.01 232.655 116.64 234.9C116.454 235.087 116.349 235.341 116.349 235.605C116.349 235.869 116.454 236.123 116.64 236.31C116.733 236.404 116.843 236.478 116.965 236.529C117.087 236.58 117.218 236.606 117.35 236.606C117.482 236.606 117.612 236.58 117.734 236.529C117.856 236.478 117.967 236.404 118.06 236.31C120.077 234.389 122.297 232.693 124.68 231.25C125.06 234.83 125.5 238.42 125.98 241.95C126.43 241.65 126.89 241.36 127.34 241.09L127.83 240.78C127.36 237.25 126.94 233.67 126.56 230.1C130.065 228.074 133.67 226.225 137.36 224.56C137.57 227.14 137.85 229.68 138.2 232.14C138.83 231.47 139.42 230.82 139.96 230.22C139.69 228.09 139.46 225.91 139.29 223.69C140.99 222.94 142.58 222.27 143.95 221.69C144.05 220.98 144.16 220.22 144.28 219.39C142.82 219.97 141.07 220.69 139.14 221.53C138.93 218.2 138.82 214.82 138.78 211.44C141.37 210.29 143.78 209.29 145.78 208.44C145.88 207.68 145.99 206.92 146.1 206.14C144.03 206.96 141.5 207.99 138.73 209.2C138.73 205.75 138.8 202.32 138.93 198.99C142.49 196.83 145.52 195.04 147.93 193.63C148.06 192.76 148.19 191.91 148.31 191.09C145.96 192.46 142.84 194.31 139.05 196.59C139.27 192 139.57 187.59 139.91 183.7C143.455 181.41 147.128 179.323 150.91 177.45C151.2 176.51 151.52 175.61 151.86 174.73C147.838 176.632 143.928 178.762 140.15 181.11ZM122.09 198C122.23 200.73 122.4 203.66 122.6 206.73C118.2 209.52 114.22 212.17 110.6 214.73C109.84 212.12 109.1 209.64 108.39 207.35C113.15 204.24 117.87 201.09 122.09 198ZM105.92 209C106.18 208.84 106.43 208.67 106.68 208.5C107.4 210.84 108.15 213.35 108.92 216C106.127 218.068 103.456 220.295 100.92 222.67C99.3873 220.235 97.5933 217.975 95.5698 215.93C98.7298 213.69 102.27 211.37 105.92 209ZM93.6898 231C91.1568 229.038 88.2715 227.578 85.1898 226.7C84.6298 226.55 84.0798 226.43 83.5398 226.32C84.8249 224.608 86.2936 223.042 87.9198 221.65C89.6098 220.19 91.6498 218.65 93.9198 217.03C96.0447 219.132 97.9081 221.482 99.4698 224.03C97.3089 226.149 95.3721 228.485 93.6898 231ZM102.86 241.12C100.737 237.841 98.1805 234.864 95.2598 232.27C96.7962 229.94 98.5653 227.772 100.54 225.8C102.258 228.772 103.775 231.855 105.08 235.03C104.116 236.985 103.372 239.041 102.86 241.16V241.12ZM106.28 232.81C105.021 229.924 103.592 227.116 102 224.4C104.39 222.152 106.904 220.039 109.53 218.07C110.24 220.56 110.96 223.15 111.67 225.82C109.598 227.939 107.788 230.299 106.28 232.85V232.81ZM115.34 222.4C114.62 222.98 113.95 223.57 113.34 224.17C112.65 221.62 111.96 219.17 111.27 216.74C114.74 214.19 118.59 211.6 122.79 208.92C122.956 211.513 123.153 214.18 123.38 216.92C120.57 218.564 117.883 220.408 115.34 222.44V222.4ZM124.67 207.7L126.98 206.25C130.6 204.003 133.913 201.967 136.92 200.14C136.81 203.37 136.75 206.68 136.77 210.01C133.06 211.69 129.07 213.65 125.25 215.81C125 213.07 124.84 210.36 124.67 207.74V207.7ZM126.33 227.78C125.99 224.49 125.7 221.22 125.43 218.02C129.14 215.89 133.09 213.92 136.79 212.23C136.79 215.6 136.96 218.97 137.19 222.29C133.73 223.89 129.9 225.76 126.33 227.82V227.78ZM137.01 197.78C133.72 199.78 130.01 202.04 125.93 204.58L124.52 205.46C124.32 202.28 124.16 199.27 124.02 196.46C126.217 194.779 128.326 192.987 130.34 191.09C132.672 188.906 135.166 186.9 137.8 185.09C137.48 189 137.2 193.3 137 197.79L137.01 197.78Z" fill="#CCCCCC"/>
<path d="M156.33 162.33C156.33 162.33 140 167.67 132.33 174C124.66 180.33 96.6705 206.33 84.3305 215C71.9905 223.67 67.3305 238 73.6705 248.67C80.0105 259.34 92.3305 262 100.33 260C108.33 258 118.33 246.33 127.33 241C136.33 235.67 143.33 226 143.33 226C143.33 226 148 192.33 149.67 182.33C151.34 172.33 157.67 163.67 157.67 163.67C157.67 163.67 157.67 161.33 156.33 162.33Z" stroke="#263238" stroke-linecap="round" stroke-linejoin="round"/>
<path d="M82.6699 238.67C80.4734 238.506 78.2776 238.995 76.358 240.075C74.4384 241.155 72.8805 242.778 71.8799 244.74C72.3355 246.11 72.9356 247.427 73.6699 248.67C76.5782 253.573 81.1369 257.281 86.5299 259.13C91.3999 257.25 94.9999 253.76 94.9999 250.67C94.9999 246.67 93.3299 239 82.6699 238.67Z" fill="white" stroke="#263238" stroke-linecap="round" stroke-linejoin="round"/>
<path d="M150 427.23L138.18 438.23C134.34 441.8 130.76 445.1 130.76 447.57C130.76 450.04 129.39 453.34 131.31 454.99C133.23 456.64 142.03 458.57 150.55 458.57C157.214 458.459 163.632 456.03 168.7 451.7C171.99 448.95 172.27 445.37 175.84 443.7C179.41 442.03 185.74 442.33 186.84 438.21C187.94 434.09 186.29 427.76 186.29 427.76L150 427.23Z" fill="#878787" stroke="#263238" stroke-linecap="round" stroke-linejoin="round"/>
<path d="M186.82 438.23C187.073 437.179 187.198 436.101 187.19 435.02C183.04 438.4 174.35 441.92 171.67 444.29C168.55 447.05 165.79 454.01 150.3 454.85C137.3 455.56 131.87 451.73 130.43 450.45C130.18 452.21 130.06 453.94 131.29 454.99C133.22 456.64 142.01 458.57 150.53 458.57C157.195 458.459 163.612 456.03 168.68 451.7C171.97 448.95 172.25 445.37 175.82 443.7C179.39 442.03 185.72 442.35 186.82 438.23Z" fill="#263238" stroke="#263238" stroke-linecap="round" stroke-linejoin="round"/>
<path d="M238 427.23L249.82 438.23C253.67 441.8 257.24 445.1 257.24 447.57C257.24 450.04 258.61 453.34 256.69 454.99C254.77 456.64 245.97 458.57 237.45 458.57C230.788 458.459 224.374 456.03 219.31 451.7C216.01 448.95 215.74 445.37 212.16 443.7C208.58 442.03 202.27 442.33 201.16 438.21C200.05 434.09 201.71 427.76 201.71 427.76L238 427.23Z" fill="#878787" stroke="#263238" stroke-linecap="round" stroke-linejoin="round"/>
<path d="M201.16 438.23C200.904 437.179 200.776 436.101 200.78 435.02C204.94 438.4 213.62 441.92 216.3 444.29C219.43 447.05 222.19 454.01 237.67 454.85C250.67 455.56 256.1 451.73 257.55 450.45C257.79 452.21 257.91 453.94 256.68 454.99C254.76 456.64 245.96 458.57 237.44 458.57C230.779 458.459 224.364 456.03 219.3 451.7C216 448.95 215.73 445.37 212.15 443.7C208.57 442.03 202.26 442.35 201.16 438.23Z" fill="#263238" stroke="#263238" stroke-linecap="round" stroke-linejoin="round"/>
<path d="M190.5 153C190.5 153 164.71 160.18 157.71 162.18C150.71 164.18 147 179 146 196C145 213 140 273 139.5 275.5C139 278 133.31 301 134.81 309C136.31 317 150.5 413 150.5 413C150.5 413 146.5 419 147.5 420.5C148.5 422 149 429.5 149 429.5C149 429.5 161.5 434 169.5 434C177.5 434 187.5 431 187.5 431C187.5 431 185 412.5 186 401.5C187 390.5 187 318.5 187 318.5L197 432.5C197 432.5 209 436 219.5 435.5C230 435 241 429 241 429C241 429 242.5 420.5 241.5 416.5C240.5 412.5 234.5 405.5 234.5 403C234.5 400.5 239.5 317 239.5 317C239.5 317 242.5 293.5 242 281.5C241.5 269.5 242.5 241.5 242.5 241.5C242.5 241.5 244.5 216 246 201.5C247.5 187 247.92 174 247.42 171C246.92 168 222.5 158 216.5 156C210.5 154 198 153.5 190.5 153Z" fill="white"/>
<path d="M190.5 153C190.5 153 164.71 160.18 157.71 162.18C150.71 164.18 147 179 146 196C145 213 140 273 139.5 275.5C139 278 133.31 301 134.81 309C136.31 317 150.5 413 150.5 413C150.5 413 146.5 419 147.5 420.5C148.5 422 149 429.5 149 429.5C149 429.5 161.5 434 169.5 434C177.5 434 187.5 431 187.5 431C187.5 431 185 412.5 186 401.5C187 390.5 187 318.5 187 318.5L197 432.5C197 432.5 209 436 219.5 435.5C230 435 241 429 241 429C241 429 242.5 420.5 241.5 416.5C240.5 412.5 234.5 405.5 234.5 403C234.5 400.5 239.5 317 239.5 317C239.5 317 242.5 293.5 242 281.5C241.5 269.5 242.5 241.5 242.5 241.5C242.5 241.5 244.5 216 246 201.5C247.5 187 247.92 174 247.42 171C246.92 168 222.5 158 216.5 156C210.5 154 198 153.5 190.5 153Z" fill="black"/>
<path d="M245.6 205.49C243.7 204.65 241.75 203.87 239.73 203.15L240.44 191.62C242.1 192.37 244.78 193.43 246.44 194.28L246.34 192.28C244.446 191.287 242.533 190.367 240.6 189.52L241.41 176.43C243.41 177.37 245.31 178.37 247.2 179.43L247.6 178.73C247.6 178.27 247.6 177.82 247.6 177.39C245.6 176.27 243.573 175.23 241.52 174.27L242 167C241.38 166.67 240.74 166.34 240.06 166L239.6 173.42C236.82 172.2 233.99 171.12 231.12 170.16L232.28 162.37L230.39 161.54L229.19 169.54C224.059 167.932 218.828 166.666 213.53 165.75L214.79 155.57C214.18 155.42 213.52 155.27 212.79 155.14L211.52 165.41C205.965 164.526 200.367 163.939 194.75 163.65L195.75 153.39L193.75 153.27L192.75 163.55C187.3 163.33 182.02 163.36 177.04 163.55C177.22 160.95 177.38 158.63 177.52 156.67L175.47 157.24C175.34 159.11 175.19 161.24 175.03 163.64C169.68 163.91 164.7 164.37 160.25 164.9C160.47 163.64 160.68 162.45 160.88 161.33L158.74 161.93C158.56 162.93 158.37 164.02 158.18 165.15C156.39 165.38 154.71 165.62 153.13 165.87C152.639 166.549 152.195 167.261 151.8 168C153.65 167.71 155.67 167.4 157.8 167.12C157.11 171.3 156.41 176.12 155.8 181.47C152.53 181.97 149.71 182.47 147.41 182.92C147.29 183.587 147.18 184.287 147.08 185.02C149.34 184.57 152.2 184.02 155.55 183.53C155.15 186.95 154.77 190.58 154.43 194.4C151.2 194.56 148.43 194.74 146.07 194.9C146.07 195.26 146.07 195.61 146 195.96C145.93 196.31 146 196.59 145.94 196.96C148.23 196.79 151.03 196.61 154.25 196.45C152.595 215.832 152.415 235.311 153.71 254.72L155.71 254.58C154.418 235.184 154.609 215.717 156.28 196.35C161.11 196.14 166.74 195.99 172.86 196C171.77 212.77 170.68 230.46 170.12 242.3L172.12 242.4C172.68 230.54 173.77 212.81 174.87 196C179.52 196 184.43 196.16 189.47 196.43L185.61 235L187.61 235.2L191.47 196.58C196.73 196.89 202.11 197.36 207.47 198.02L203.84 227.23L205.84 227.48L209.47 198.28C214.55 198.96 219.6 199.82 224.47 200.91L219.33 235.41L221.33 235.7L226.46 201.36C230.32 202.28 234.07 203.36 237.66 204.57L235.3 242.78L237.3 242.91L239.63 205.26C241.63 205.987 243.563 206.777 245.43 207.63C245.47 206.87 245.53 206.17 245.6 205.49ZM213.25 167.66C218.535 168.586 223.753 169.862 228.87 171.48L226.87 184.54C221.83 183.1 216.707 181.968 211.53 181.15L213.25 167.66ZM173 194C166.91 194 161.3 194.14 156.46 194.35C156.81 190.45 157.21 186.75 157.62 183.26C162.3 182.59 167.79 181.97 173.83 181.59C173.54 185.58 173.26 189.75 173 194ZM174 179.59C168 179.96 162.58 180.59 157.91 181.21C158.58 175.85 159.29 171.05 159.98 166.89C164.46 166.35 169.51 165.89 174.98 165.59C174.61 169.74 174.29 174.49 173.94 179.59H174ZM243.68 227C209.49 210.82 162.1 211.65 144.83 212.6C144.776 213.267 144.726 213.933 144.68 214.6C161.68 213.6 209.51 212.7 243.5 229.11C243.56 228.46 243.62 227.75 243.68 227ZM189.68 194.42C184.61 194.15 179.68 194.02 175.01 193.98C175.29 189.68 175.57 185.47 175.84 181.44C180.62 181.19 185.71 181.09 191 181.24L189.68 194.42ZM191.2 179.25C185.89 179.1 180.78 179.2 175.98 179.44C176.32 174.35 176.64 169.6 176.93 165.44C181.93 165.24 187.15 165.2 192.58 165.44L191.2 179.25ZM207.71 196C202.33 195.33 196.93 194.86 191.66 194.55L193 181.33C198.479 181.539 203.943 182.036 209.37 182.82L207.71 196ZM193.18 179.34L194.56 165.55C200.16 165.838 205.742 166.426 211.28 167.31L209.6 180.84C204.156 180.061 198.675 179.564 193.18 179.35V179.34ZM224.77 198.89C219.86 197.8 214.77 196.89 209.7 196.26L211.33 183.12C216.493 183.934 221.6 185.073 226.62 186.53L224.77 198.89ZM237.77 202.46C234.22 201.27 230.53 200.23 226.77 199.34L228.6 187.11C231.969 188.154 235.284 189.369 238.53 190.75L237.77 202.46ZM238.62 188.64C235.413 187.307 232.156 186.13 228.85 185.11L230.79 172.11C233.723 173.103 236.606 174.233 239.44 175.5L238.62 188.64Z" fill="#CCCCCC"/>
<path d="M190.5 153C190.5 153 164.71 160.18 157.71 162.18C150.71 164.18 147 179 146 196C145 213 140 273 139.5 275.5C139 278 133.31 301 134.81 309C136.31 317 150.5 413 150.5 413C150.5 413 146.5 419 147.5 420.5C148.5 422 149 429.5 149 429.5C149 429.5 161.5 434 169.5 434C177.5 434 187.5 431 187.5 431C187.5 431 185 412.5 186 401.5C187 390.5 187 318.5 187 318.5L197 432.5C197 432.5 209 436 219.5 435.5C230 435 241 429 241 429C241 429 242.5 420.5 241.5 416.5C240.5 412.5 234.5 405.5 234.5 403C234.5 400.5 239.5 317 239.5 317C239.5 317 242.5 293.5 242 281.5C241.5 269.5 242.5 241.5 242.5 241.5C242.5 241.5 244.5 216 246 201.5C247.5 187 247.92 174 247.42 171C246.92 168 222.5 158 216.5 156C210.5 154 198 153.5 190.5 153Z" stroke="#263238" stroke-linecap="round" stroke-linejoin="round"/>
<path d="M192.88 170.11L188.66 210.67" stroke="#263238" stroke-linecap="round" stroke-linejoin="round"/>
<path d="M187 318.5L197 432.5C197 432.5 209 436 219.5 435.5C230 435 241 429 241 429C241 429 242.5 420.5 241.5 416.5C240.5 412.5 234.5 405.5 234.5 403C234.5 400.5 239.5 317 239.5 317C239.5 317 242.5 293.5 242 281.5C241.94 280.17 241.91 278.63 241.89 276.97C240.89 273.76 236.29 258.97 232.68 243.43C228.6 225.86 224.3 208.94 224.3 208.94L163.3 203.94C160.48 203.31 160.17 206.45 160.17 206.45L141.49 253.45C140.49 265.45 139.64 274.64 139.49 275.59C139 278 133.31 301 134.81 309C136.31 317 150.5 413 150.5 413C150.5 413 146.5 419 147.5 420.5C148.5 422 149 429.5 149 429.5C149 429.5 161.5 434 169.5 434C177.5 434 187.5 431 187.5 431C187.5 431 185 412.5 186 401.5C187 390.5 187 318.5 187 318.5Z" fill="#6C63FF" stroke="#263238" stroke-linecap="round" stroke-linejoin="round"/>
<path d="M169.63 215.82L211 219.9L210.44 245.6C210.417 246.689 210.156 247.759 209.674 248.735C209.191 249.712 208.501 250.57 207.65 251.25L189.43 265.82C188.311 266.715 186.891 267.145 185.463 267.018C184.036 266.891 182.713 266.219 181.77 265.14L166.33 247.43C165.587 246.574 165.048 245.56 164.755 244.465C164.462 243.37 164.423 242.223 164.64 241.11L169.63 215.82Z" stroke="#263238" stroke-linecap="round" stroke-linejoin="round"/>
<path d="M173.08 280.76C173.08 280.76 185 284.52 201 281.38" stroke="#263238" stroke-linecap="round" stroke-linejoin="round"/>
<path d="M183.43 285.46L183.12 310.87L183.82 310.26C185.184 309.065 186.293 307.606 187.08 305.972C187.867 304.338 188.316 302.562 188.4 300.75L189.08 286.4" stroke="#263238" stroke-linecap="round" stroke-linejoin="round"/>
<path d="M174.33 314.64L192.21 319.34" stroke="#263238" stroke-linecap="round" stroke-linejoin="round"/>
<path d="M182.7 148.75C182.7 148.75 178.06 155.38 177.84 162.01C177.62 168.64 174.97 177.01 177.84 177.47C180.71 177.93 190.84 168.85 193.97 169.52C197.1 170.19 205.67 180.78 207.66 180.52C209.65 180.26 213.41 171.91 213.41 162.41C213.41 152.91 212.74 150.92 207.41 147.83C202.08 144.74 189.77 141.46 182.7 148.75Z" fill="white" stroke="#263238" stroke-linecap="round" stroke-linejoin="round"/>
<path d="M186.23 152.73C186.23 152.73 187.78 166.65 192.64 169.07C197.5 171.49 207 156.26 208.1 155.6C209.2 154.94 196 156.93 186.23 152.73Z" fill="#CCCCCC" stroke="#263238" stroke-linecap="round" stroke-linejoin="round"/>
<path d="M224.59 130.45C224.59 130.45 228.65 125.56 230.59 128.45C232.53 131.34 230.37 136.84 227.94 139.71C226.622 141.374 224.726 142.48 222.63 142.81L224.59 130.45Z" fill="white" stroke="#263238" stroke-linecap="round" stroke-linejoin="round"/>
<path d="M178.94 125.56C178.94 125.56 174.53 120.25 172.94 124.89C171.35 129.53 176.7 137.71 177.36 137.71H178.02L178.94 125.56Z" fill="white" stroke="#263238" stroke-linecap="round" stroke-linejoin="round"/>
<path d="M180.4 109.64C180.4 109.64 176.84 138.55 179.28 145.64C181.72 152.73 191.28 159.43 200.19 158.98C209.1 158.53 217.32 154.09 220.19 150.98C223.06 147.87 226.86 111.61 226.86 111.61C226.86 111.61 217.3 106.49 202.17 104.94C187.04 103.39 180.4 109.64 180.4 109.64Z" fill="white" stroke="#263238" stroke-linecap="round" stroke-linejoin="round"/>
<path d="M211.32 124.12C211.322 124.224 211.293 124.326 211.237 124.413C211.18 124.5 211.099 124.568 211.004 124.608C210.908 124.649 210.803 124.66 210.701 124.64C210.599 124.621 210.506 124.571 210.433 124.498C210.359 124.424 210.31 124.331 210.29 124.229C210.27 124.127 210.281 124.022 210.322 123.926C210.362 123.831 210.431 123.75 210.518 123.693C210.605 123.637 210.707 123.608 210.81 123.61C210.945 123.61 211.075 123.664 211.171 123.759C211.266 123.855 211.32 123.985 211.32 124.12Z" fill="white" stroke="#263238" stroke-width="0.5" stroke-linecap="round" stroke-linejoin="round"/>
<path d="M217.45 123.26C217.452 123.364 217.423 123.466 217.367 123.553C217.31 123.64 217.229 123.708 217.134 123.748C217.038 123.789 216.933 123.8 216.831 123.78C216.729 123.761 216.636 123.711 216.562 123.638C216.489 123.564 216.439 123.471 216.42 123.369C216.4 123.267 216.411 123.162 216.452 123.066C216.492 122.971 216.56 122.89 216.647 122.834C216.734 122.777 216.836 122.748 216.94 122.75C217.075 122.75 217.205 122.804 217.301 122.899C217.396 122.995 217.45 123.125 217.45 123.26Z" fill="white" stroke="#263238" stroke-width="0.5" stroke-linecap="round" stroke-linejoin="round"/>
<path d="M216.82 126.7C216.842 126.777 216.846 126.859 216.831 126.938C216.816 127.017 216.783 127.092 216.735 127.156C216.686 127.22 216.624 127.272 216.552 127.308C216.48 127.344 216.4 127.363 216.32 127.363C216.239 127.363 216.16 127.344 216.088 127.308C216.016 127.272 215.953 127.22 215.905 127.156C215.856 127.092 215.823 127.017 215.809 126.938C215.794 126.859 215.798 126.777 215.82 126.7C215.798 126.623 215.794 126.541 215.809 126.462C215.823 126.383 215.856 126.308 215.905 126.244C215.953 126.18 216.016 126.128 216.088 126.092C216.16 126.056 216.239 126.037 216.32 126.037C216.4 126.037 216.48 126.056 216.552 126.092C216.624 126.128 216.686 126.18 216.735 126.244C216.783 126.308 216.816 126.383 216.831 126.462C216.846 126.541 216.842 126.623 216.82 126.7Z" fill="white" stroke="#263238" stroke-width="0.5" stroke-linecap="round" stroke-linejoin="round"/>
<path d="M191.15 121.31C191.149 121.414 191.178 121.515 191.234 121.602C191.29 121.69 191.371 121.758 191.467 121.798C191.562 121.839 191.668 121.85 191.769 121.83C191.871 121.811 191.965 121.761 192.038 121.687C192.111 121.614 192.161 121.521 192.181 121.419C192.201 121.317 192.189 121.212 192.149 121.116C192.108 121.021 192.04 120.94 191.953 120.883C191.866 120.827 191.764 120.798 191.66 120.8C191.525 120.8 191.396 120.854 191.3 120.949C191.204 121.045 191.15 121.175 191.15 121.31Z" fill="white" stroke="#263238" stroke-width="0.5" stroke-linecap="round" stroke-linejoin="round"/>
<path d="M185 120.45C184.998 120.554 185.027 120.656 185.084 120.743C185.14 120.83 185.221 120.898 185.316 120.938C185.412 120.979 185.517 120.99 185.619 120.97C185.721 120.951 185.814 120.901 185.888 120.828C185.961 120.754 186.011 120.661 186.03 120.559C186.05 120.457 186.039 120.352 185.999 120.256C185.958 120.161 185.89 120.08 185.803 120.023C185.716 119.967 185.614 119.938 185.51 119.94C185.375 119.94 185.245 119.994 185.149 120.089C185.054 120.185 185 120.315 185 120.45Z" fill="white" stroke="#263238" stroke-width="0.5" stroke-linecap="round" stroke-linejoin="round"/>
<path d="M185.65 123.89C185.649 123.994 185.678 124.096 185.734 124.183C185.79 124.27 185.871 124.338 185.967 124.378C186.062 124.419 186.168 124.43 186.269 124.41C186.371 124.391 186.465 124.341 186.538 124.268C186.611 124.194 186.661 124.101 186.681 123.999C186.701 123.897 186.689 123.792 186.649 123.696C186.608 123.601 186.54 123.52 186.453 123.463C186.366 123.407 186.264 123.378 186.16 123.38C186.025 123.38 185.896 123.434 185.8 123.529C185.704 123.625 185.65 123.755 185.65 123.89Z" fill="white" stroke="#263238" stroke-width="0.5" stroke-linecap="round" stroke-linejoin="round"/>
<path d="M225.42 111.11C224.067 113.55 223.432 116.324 223.59 119.11C223.941 121.968 224.476 124.801 225.19 127.59L224.59 130.42L226.88 111.61L225.42 111.11Z" fill="#263238" stroke="#263238" stroke-linecap="round" stroke-linejoin="round"/>
<path d="M182.32 108.82C182.568 111.411 182.568 114.019 182.32 116.61C181.807 118.692 180.871 120.646 179.57 122.35L178.94 125.56L180.4 109.64L182.32 108.82Z" fill="#263238" stroke="#263238" stroke-linecap="round" stroke-linejoin="round"/>
<path d="M197.94 117.82C197.94 117.82 195.07 128.43 195.51 129.53C195.95 130.63 199.71 131.53 202.8 131.08C205.89 130.63 205 117.6 205 117.6" stroke="#263238" stroke-linecap="round" stroke-linejoin="round"/>
<path d="M210.53 119.15C210.53 119.15 213.63 116.94 217.82 119.81" stroke="#263238" stroke-linecap="round" stroke-linejoin="round"/>
<path d="M187.12 117.16C188.015 116.522 189.104 116.217 190.2 116.297C191.295 116.378 192.328 116.838 193.12 117.6" stroke="#263238" stroke-linecap="round" stroke-linejoin="round"/>
<path d="M196.4 109C196.4 109 188.66 108.11 184.91 111.43" stroke="#263238" stroke-width="3" stroke-linecap="round" stroke-linejoin="round"/>
<path d="M209 111.42C209 111.42 216.29 109.65 220.49 115.42" stroke="#263238" stroke-width="3" stroke-linecap="round" stroke-linejoin="round"/>
<path d="M222 134.39C220.46 137.26 216.48 140.39 216.48 140.39C216.48 140.39 216.7 132.39 213.83 131.99C210.96 131.59 200.57 132.21 195.49 130.45C195.49 130.45 185.33 128.9 184.89 131.11C184.45 133.32 183.34 138.62 183.34 138.62C183.34 138.62 182.46 139.06 180.91 135.09C179.914 132.357 179.204 129.529 178.79 126.65C178.29 134.31 178.12 142.38 179.26 145.65C181.71 152.77 191.26 159.44 200.17 158.99C209.08 158.54 217.3 154.1 220.17 150.99C221.6 149.45 223.25 139.79 224.55 130.43C223.595 131.68 222.742 133.004 222 134.39ZM209.41 144.33C207.67 145.33 204.56 145.58 201.22 145.39C200.13 141.69 199.68 142.12 196.82 142.12C194.91 142.12 194.76 143.58 194.82 144.56C192.76 144.196 190.747 143.602 188.82 142.79C184.62 140.79 188.15 135.5 188.15 135.5C194.56 137.93 210.24 137.04 210.24 137.04C210.24 137.04 213.63 141.9 209.43 144.33H209.41Z" fill="#263238" stroke="#263238" stroke-linecap="round" stroke-linejoin="round"/>
<path d="M160.22 206.41C160.22 206.41 161.16 214.25 163.04 214.57C164.92 214.89 166.81 205.78 166.81 205.78C166.81 205.78 161.79 206.41 160.22 206.41Z" stroke="#263238" stroke-linecap="round" stroke-linejoin="round"/>
<path d="M217.71 208.4C217.71 208.4 217.26 216.29 219.06 216.93C220.86 217.57 224.3 208.93 224.3 208.93C224.3 208.93 219.25 208.68 217.71 208.4Z" stroke="#263238" stroke-linecap="round" stroke-linejoin="round"/>
<path d="M163 159.36C163 159.36 159 198.88 159 203.59C159 208.3 165.9 210.8 167.79 202.96C169.68 195.12 173.43 157.79 173.43 157.79C173.43 157.79 167.43 157.16 163 159.36Z" fill="#6C63FF" stroke="#263238" stroke-linecap="round" stroke-linejoin="round"/>
<path d="M224.21 158.73C224.21 158.73 215.11 206.73 217 208.92C218.89 211.11 222.64 214.25 226.09 207.67C229.54 201.09 235.82 162.49 235.82 162.49C235.82 162.49 229.54 159 224.21 158.73Z" fill="#6C63FF" stroke="#263238" stroke-linecap="round" stroke-linejoin="round"/>
<path d="M165.55 211.9C165.55 212.295 165.433 212.682 165.213 213.011C164.993 213.34 164.681 213.596 164.315 213.748C163.95 213.899 163.548 213.939 163.16 213.861C162.772 213.784 162.415 213.594 162.136 213.314C161.856 213.034 161.665 212.678 161.588 212.29C161.511 211.902 161.551 211.5 161.702 211.135C161.853 210.769 162.11 210.457 162.439 210.237C162.768 210.017 163.154 209.9 163.55 209.9C164.08 209.9 164.589 210.111 164.964 210.486C165.339 210.861 165.55 211.369 165.55 211.9Z" fill="white" stroke="#263238" stroke-linecap="round" stroke-linejoin="round"/>
<path d="M221.7 215C221.7 215.396 221.583 215.782 221.363 216.111C221.143 216.44 220.831 216.696 220.466 216.848C220.1 216.999 219.698 217.039 219.31 216.962C218.922 216.884 218.566 216.694 218.286 216.414C218.006 216.135 217.816 215.778 217.739 215.39C217.661 215.002 217.701 214.6 217.852 214.235C218.004 213.869 218.26 213.557 218.589 213.337C218.918 213.117 219.305 213 219.7 213C220.231 213 220.739 213.211 221.114 213.586C221.489 213.961 221.7 214.47 221.7 215Z" fill="white" stroke="#263238" stroke-linecap="round" stroke-linejoin="round"/>
<path d="M262.18 248.22C262.18 248.22 269.89 250.79 268.35 259.78C266.81 268.77 260.89 268.78 259.35 268.52C257.542 268.103 255.757 267.596 254 267C254 267 257.86 262.12 256.06 256.72C254.26 251.32 254.47 247.7 262.18 248.22Z" fill="white" stroke="#263238" stroke-linecap="round" stroke-linejoin="round"/>
<path d="M223.88 262.1C224.662 265.26 226.36 268.12 228.76 270.32C232.62 273.67 239.81 274.18 239.81 274.18C238.538 277.509 236.516 280.5 233.9 282.92C229.79 286.52 225.16 291.66 223.9 295C222.64 298.34 224.9 297.32 226.47 295.26C228.04 293.2 230.07 289.86 230.07 289.86C230.07 289.86 228.01 296.8 230.07 295.52C232.13 294.24 233.41 288.83 233.41 288.83C233.41 288.83 233.41 295.52 234.95 293.98C236.49 292.44 236.24 287.55 236.24 286.78C236.24 286.01 239.06 285.23 240.61 283.69C242.16 282.15 235.72 283.69 235.72 283.69C235.72 283.69 244.98 277.27 246.52 274.95C248.06 272.63 244.2 268.52 243.18 267.24C242.16 265.96 223.88 262.1 223.88 262.1Z" fill="#CFCFCF" stroke="#263238" stroke-linecap="round" stroke-linejoin="round"/>
<path d="M239.81 274.18C238.538 277.509 236.516 280.5 233.9 282.92C229.79 286.52 225.16 291.66 223.9 295C222.64 298.34 224.9 297.32 226.47 295.26C228.04 293.2 230.07 289.86 230.07 289.86C230.07 289.86 228.01 296.8 230.07 295.52C232.13 294.24 233.41 288.83 233.41 288.83C233.41 288.83 233.41 295.52 234.95 293.98C236.49 292.44 236.24 287.55 236.24 286.78C236.24 286.01 239.06 285.23 240.61 283.69C242.16 282.15 235.72 283.69 235.72 283.69C235.72 283.69 244.98 277.27 246.52 274.95C247.16 273.95 246.86 272.7 246.22 271.44C242.27 270.43 239.81 274.18 239.81 274.18Z" fill="white" stroke="#263238" stroke-linecap="round" stroke-linejoin="round"/>
<path d="M222.89 252.76C223.679 255.92 225.379 258.779 227.78 260.98C231.63 264.32 238.83 264.84 238.83 264.84C237.554 268.167 235.532 271.157 232.92 273.58C228.81 277.18 224.18 282.32 222.92 285.66C221.66 289 223.92 287.98 225.49 285.92C227.06 283.86 229.09 280.52 229.09 280.52C229.09 280.52 227.04 287.46 229.09 286.18C231.14 284.9 232.43 279.49 232.43 279.49C232.43 279.49 232.43 286.18 233.98 284.63C235.53 283.08 235.26 278.21 235.26 277.44C235.26 276.67 238.09 275.89 239.63 274.35C241.17 272.81 234.75 274.35 234.75 274.35C234.75 274.35 244 267.92 245.55 265.61C247.1 263.3 243.23 259.18 242.2 257.9C241.17 256.62 222.89 252.76 222.89 252.76Z" fill="white" stroke="#263238" stroke-linecap="round" stroke-linejoin="round"/>
<path d="M238.83 264.84C237.554 268.167 235.532 271.157 232.92 273.58C228.81 277.18 224.18 282.32 222.92 285.66C221.66 289 223.92 287.98 225.49 285.92C227.06 283.86 229.09 280.52 229.09 280.52C229.09 280.52 227.04 287.46 229.09 286.18C231.14 284.9 232.43 279.49 232.43 279.49C232.43 279.49 232.43 286.18 233.98 284.63C235.53 283.08 235.26 278.21 235.26 277.44C235.26 276.67 238.09 275.89 239.63 274.35C241.17 272.81 234.75 274.35 234.75 274.35C234.75 274.35 244 267.92 245.55 265.61C246.19 264.61 245.89 263.36 245.24 262.1C241.28 261.09 238.83 264.84 238.83 264.84Z" fill="white" stroke="#263238" stroke-linecap="round" stroke-linejoin="round"/>
<path d="M224.67 221C224.67 221 216.67 215 210.67 221.33C204.67 227.66 208 241.67 212 247.33C216 252.99 235.33 259.67 247 258.67C258.67 257.67 267.33 245 267.33 238.33C267.33 231.66 261.67 227 257.33 226.67C252.99 226.34 244.67 225 244.67 225C244.67 225 228.33 224 224.67 221Z" fill="#CFCFCF" stroke="#263238" stroke-linecap="round" stroke-linejoin="round"/>
<path d="M255 209.86C255 209.86 256.43 207.19 254.9 202.38C253.37 197.57 250.09 197.38 250.09 198.66V200.66C250.09 200.66 246.82 197.16 245.94 197.82C245.06 198.48 245.72 202.19 245.72 202.19C245.72 202.19 252.65 203.79 255 209.86Z" fill="#263238" stroke="#263238" stroke-linecap="round" stroke-linejoin="round"/>
<path d="M255 209.86C255 209.86 252.81 203.27 247.16 201.7C241.51 200.13 235.24 202.7 233.04 205.16C230.104 208.868 227.383 212.741 224.89 216.76C222.69 220.21 211.4 225.55 213.6 227.43C215.8 229.31 221.75 226.49 221.75 226.49C221.75 226.49 217.67 232.76 222.69 231.82C227.71 230.88 228.03 228.68 228.03 228.68C228.03 228.68 226.77 236.53 230.22 235.27C233.67 234.01 233.36 231.19 233.36 231.19C233.36 231.19 231.79 238.41 235.24 238.41C238.69 238.41 239.32 233.41 239.32 233.41C239.32 233.41 240.26 240 244.32 239.05C248.38 238.1 246.2 234.35 246.2 234.35C246.2 234.35 251.2 238.74 252.2 236.23C253.2 233.72 250.32 229.02 250.32 229.02C250.32 229.02 246.87 221.49 250 218.35C253.13 215.21 259.73 213.35 259.73 213.35L255 209.86Z" fill="#878787" stroke="#263238" stroke-linecap="round" stroke-linejoin="round"/>
<path d="M253.07 215.19C253.28 215.38 253.49 215.55 253.7 215.72C255.623 214.737 257.631 213.931 259.7 213.31L255 209.86C255 209.86 249.62 212.06 253.07 215.19Z" fill="#6C63FF" stroke="#263238" stroke-linecap="round" stroke-linejoin="round"/>
<path d="M249.39 208.39C249.392 208.63 249.322 208.865 249.19 209.066C249.058 209.266 248.869 209.423 248.647 209.516C248.426 209.609 248.182 209.634 247.946 209.587C247.71 209.541 247.494 209.425 247.324 209.256C247.154 209.086 247.039 208.869 246.992 208.634C246.946 208.398 246.971 208.154 247.064 207.932C247.157 207.711 247.313 207.522 247.514 207.39C247.714 207.258 247.95 207.188 248.19 207.19C248.508 207.19 248.813 207.316 249.038 207.541C249.263 207.766 249.39 208.072 249.39 208.39Z" fill="white" stroke="#263238" stroke-linecap="round" stroke-linejoin="round"/>
<path d="M260.38 253.87C260.38 253.87 254.21 256.44 250.61 253.61C247.01 250.78 241.61 246.42 236.73 246.42C231.85 246.42 231.33 250.53 233.64 252.07C235.95 253.61 241.36 257.73 241.36 257.73C241.36 257.73 234.16 257.98 230.05 254.64C225.94 251.3 223.05 245.39 220.28 245.64C217.51 245.89 220.53 251.56 220.53 251.56C220.53 251.56 216.42 246.93 214.88 248.73C213.34 250.53 217.71 256.44 219.76 259.53C221.81 262.62 233.13 267 236.22 268C237.623 268.535 239.094 268.871 240.59 269C240.59 269 251.13 267.5 254 267C256.87 266.5 259.66 265.72 260.69 261.6C261.72 257.48 261.15 254.64 260.38 253.87Z" fill="white" stroke="#263238" stroke-linecap="round" stroke-linejoin="round"/>
<path d="M220.53 251.56C220.53 251.56 224.13 259.27 229.79 262.35Z" fill="white"/>
<path d="M220.53 251.56C220.53 251.56 224.13 259.27 229.79 262.35" stroke="#263238" stroke-linecap="round" stroke-linejoin="round"/>
<path d="M145 235.75L89.75 233.25L92 260H92.28C93.88 266.07 104.2 271.14 116.93 271.73C122.7 272 129.04 271.62 134.54 269.52C140.27 267.34 142.33 261.85 143.08 256.2C143.39 253.93 144.53 235.73 145 235.75Z" fill="#878787" stroke="#263238" stroke-linecap="round" stroke-linejoin="round"/>
<path d="M120.62 245.33C119.373 245.33 118.113 245.3 116.84 245.24C110.008 245.032 103.255 243.726 96.8397 241.37C89.1797 238.3 87.7097 234.72 87.8397 232.25C87.9697 229.78 89.7497 226.36 97.6697 224C104.286 222.25 111.14 221.575 117.97 222C124.801 222.208 131.554 223.514 137.97 225.87C145.63 228.94 147.1 232.52 146.97 234.99C146.85 237.45 145.06 240.88 137.14 243.24C131.758 244.705 126.197 245.409 120.62 245.33ZM114.11 225.92C108.925 225.837 103.754 226.483 98.7497 227.84C93.6897 229.34 91.8297 231.25 91.7497 232.44C91.6697 233.63 93.3697 235.7 98.2597 237.66C104.273 239.853 110.601 241.061 117 241.24C123.39 241.652 129.805 241.034 136 239.41C141.06 237.91 142.92 236 143 234.81C143.06 233.63 141.38 231.55 136.49 229.59C130.47 227.392 124.135 226.18 117.73 226C116.51 226 115.3 225.92 114.11 225.92Z" fill="#878787" stroke="#263238" stroke-linecap="round" stroke-linejoin="round"/>
<path d="M129.36 211.9C120.51 209.52 108.58 209.54 103.15 211.43C99.7003 212.707 96.5903 214.76 94.0601 217.43L92.4601 231.29C92.2099 231.591 92.0565 231.96 92.0201 232.35C91.9601 233.53 93.6201 235.58 98.4701 237.53C104.416 239.705 110.672 240.91 117 241.1C123.324 241.502 129.671 240.888 135.8 239.28C140.8 237.79 142.65 235.9 142.71 234.73L142.9 220.87C140.82 220.54 138 214.23 129.36 211.9Z" fill="black"/>
<path d="M144.726 234.835C144.971 229.572 132.928 224.737 117.829 224.035C102.729 223.334 90.2898 227.032 90.0453 232.295C89.8008 237.558 101.843 242.393 116.943 243.095C132.043 243.796 144.482 240.099 144.726 234.835Z" fill="white" stroke="#263238" stroke-linecap="round" stroke-linejoin="round"/>
<path d="M120.65 234.44C117.65 237.06 113.34 237.03 110.99 234.36C108.64 231.69 109.16 227.36 112.14 224.77C115.12 222.18 123.14 218.93 125.49 221.6C127.84 224.27 123.63 231.81 120.65 234.44Z" fill="white" stroke="#263238" stroke-miterlimit="10"/>
<path d="M115 229.7C115 233.7 112.12 236.89 108.56 236.89C105 236.89 102.12 233.67 102.12 229.7C102.12 225.73 105.01 217.58 108.56 217.58C112.11 217.58 115 225.72 115 229.7Z" fill="white" stroke="#263238" stroke-miterlimit="10"/>
<path d="M133.85 233.91C133.85 237.91 130.96 241.11 127.41 241.11C123.86 241.11 120.97 237.88 120.97 233.91C120.97 229.94 123.85 221.79 127.41 221.79C130.97 221.79 133.85 229.93 133.85 233.91Z" fill="white" stroke="#263238" stroke-miterlimit="10"/>
<path d="M125.43 239.11C125.43 243.11 122.54 246.31 118.99 246.31C115.44 246.31 112.55 243.08 112.55 239.11C112.55 235.14 115.43 227 119 227C122.57 227 125.43 235.13 125.43 239.11Z" fill="white" stroke="#263238" stroke-miterlimit="10"/>
<path d="M105.61 234.65C105.61 238.65 102.73 241.85 99.1705 241.85C95.6105 241.85 92.7305 238.63 92.7305 234.65C92.7305 230.67 95.6105 222.53 99.1705 222.53C102.73 222.53 105.61 230.68 105.61 234.65Z" fill="white" stroke="#263238" stroke-miterlimit="10"/>
<path d="M141.28 234.65C141.28 238.65 138.39 241.85 134.84 241.85C131.29 241.85 128.4 238.63 128.4 234.65C128.4 230.67 131.28 222.53 134.84 222.53C138.4 222.53 141.28 230.68 141.28 234.65Z" fill="white" stroke="#263238" stroke-miterlimit="10"/>
<path d="M112.23 242.86C109.23 245.49 104.92 245.45 102.57 242.78C100.22 240.11 100.73 235.78 103.72 233.19C106.71 230.6 114.72 227.35 117.07 230.02C119.42 232.69 115.21 240.23 112.23 242.86Z" fill="white" stroke="#263238" stroke-miterlimit="10"/>
<path d="M136.79 235.33C139.55 238.19 139.71 242.52 137.15 244.98C134.59 247.44 130.27 247.13 127.52 244.27C124.77 241.41 121.18 233.54 123.75 231.07C126.32 228.6 134 232.47 136.79 235.33Z" fill="white" stroke="#263238" stroke-miterlimit="10"/>
<path d="M144.51 235.93C144.009 235.932 143.526 235.746 143.156 235.409C142.786 235.072 142.555 234.609 142.51 234.11L141.4 214.32C141.081 210.68 139.865 207.177 137.862 204.121C135.859 201.066 133.13 198.554 129.92 196.81L127.75 195.63C124.634 193.929 121.155 193.001 117.606 192.922C114.056 192.844 110.54 193.618 107.351 195.179C104.163 196.74 101.395 199.044 99.281 201.896C97.1667 204.748 95.7672 208.065 95.2 211.57L91.96 231.57C91.8463 232.065 91.5484 232.498 91.1269 232.782C90.7053 233.066 90.1916 233.178 89.6901 233.097C89.1886 233.015 88.7369 232.746 88.4267 232.343C88.1166 231.941 87.9711 231.436 88.02 230.93L91.26 210.93C91.9286 206.794 93.5794 202.878 96.0739 199.512C98.5684 196.146 101.834 193.427 105.596 191.583C109.359 189.74 113.508 188.826 117.697 188.917C121.886 189.009 125.992 190.104 129.67 192.11L131.84 193.3C135.633 195.363 138.856 198.333 141.222 201.945C143.588 205.557 145.024 209.698 145.4 214L146.5 233.79C146.547 234.318 146.383 234.842 146.044 235.249C145.705 235.656 145.218 235.912 144.69 235.96L144.51 235.93Z" fill="#878787" stroke="#263238" stroke-linecap="round" stroke-linejoin="round"/>
<path d="M99 272.67C99 272.67 99.87 272.8 104.87 273.47C109.87 274.14 117.87 271.31 119 267.33C119.59 265.33 115.33 265.33 112.33 266.67C109.33 268.01 99 272.67 99 272.67Z" fill="white" stroke="#263238" stroke-linecap="round" stroke-linejoin="round"/>
<path d="M87.6704 247C87.6704 247 93.3304 244.67 98.6704 247.67C102.292 249.823 105.649 252.394 108.67 255.33C108.67 255.33 110.33 257.33 107 259.33C103.67 261.33 103 260 100.33 258C98.4405 256.722 96.2681 255.922 94.0004 255.67C94.0004 255.67 100.67 262 103 264C105.33 266 112 262.33 114 265C116 267.67 115 268.67 109.33 270.33C103.66 271.99 98.3304 275 93.6704 272C89.0104 269 78.0004 256.67 76.6704 252.67C75.3404 248.67 83.0004 244.33 87.6704 247Z" fill="white" stroke="#263238" stroke-linecap="round" stroke-linejoin="round"/>
</svg>
