<svg width="500" height="500" viewBox="0 0 500 500" fill="none" xmlns="http://www.w3.org/2000/svg">
<path d="M260.3 476.8C370.486 476.8 459.81 425.228 459.81 361.61C459.81 297.992 370.486 246.42 260.3 246.42C150.114 246.42 60.79 297.992 60.79 361.61C60.79 425.228 150.114 476.8 260.3 476.8Z" fill="#FAFAFA"/>
<path d="M289.89 397.66C318.929 397.66 342.47 384.958 342.47 369.29C342.47 353.622 318.929 340.92 289.89 340.92C260.85 340.92 237.31 353.622 237.31 369.29C237.31 384.958 260.85 397.66 289.89 397.66Z" fill="#F0F0F0"/>
<path d="M348.14 305.92L153.55 418.26C152.44 418.827 151.211 419.122 149.965 419.122C148.718 419.122 147.49 418.827 146.38 418.26L86.2998 383.57C84.2998 382.43 84.2998 380.57 86.2998 379.44L280.88 267.09C281.991 266.527 283.219 266.234 284.465 266.234C285.71 266.234 286.938 266.527 288.05 267.09L348.14 301.78C350.12 302.92 350.12 304.78 348.14 305.92Z" fill="#F0F0F0"/>
<path d="M406.46 339.77L398.56 335.25C398.56 335.25 389.02 313.92 390.71 295.83C392.81 273.34 403.43 265.44 409.71 267.95C415.99 270.46 414.66 279.41 408.05 291.43C402.77 301 399.44 326.44 406.46 339.77Z" fill="#6C63FF"/>
<path opacity="0.2" d="M406.46 339.77L398.56 335.25C398.56 335.25 389.02 313.92 390.71 295.83C392.81 273.34 403.43 265.44 409.71 267.95C415.99 270.46 414.66 279.41 408.05 291.43C402.77 301 399.44 326.44 406.46 339.77Z" fill="black"/>
<path d="M401.29 337.3C401.186 337.301 401.084 337.268 401 337.207C400.915 337.146 400.852 337.059 400.82 336.96C393.89 315.75 393.61 285.96 406.71 272.54C406.753 272.487 406.807 272.444 406.867 272.412C406.928 272.381 406.994 272.363 407.062 272.359C407.13 272.355 407.198 272.365 407.262 272.389C407.326 272.412 407.384 272.449 407.433 272.496C407.482 272.544 407.52 272.601 407.546 272.664C407.571 272.727 407.583 272.795 407.581 272.863C407.579 272.931 407.563 272.998 407.534 273.06C407.504 273.121 407.462 273.176 407.41 273.22C395.04 285.9 394.82 315.43 401.75 336.66C401.789 336.783 401.778 336.917 401.72 337.032C401.663 337.148 401.562 337.237 401.44 337.28L401.29 337.3Z" fill="white"/>
<path d="M428.38 352.43C429.62 353.15 432.2 351.58 433.18 350.92C434.885 349.776 436.264 348.208 437.18 346.37C438.202 344.292 438.551 341.946 438.18 339.66C437.981 338.455 437.697 337.265 437.33 336.1C437 334.95 436.67 333.79 436.33 332.64C435.932 331.522 435.762 330.335 435.83 329.15C436.13 326.78 438.23 325.15 440.14 323.69C442.25 322.11 444.45 320.02 444.44 317.17C444.295 314.946 443.411 312.835 441.93 311.17C440.57 309.44 438.93 307.92 437.72 306.1C436.748 304.831 436.24 303.268 436.28 301.67C436.422 300.689 436.762 299.747 437.28 298.9C438.428 297.135 439.432 295.279 440.28 293.35C440.97 291.35 440.87 288.88 439.28 287.45C438 286.28 436.1 286.12 434.37 286.23C432.751 286.431 431.195 286.981 429.81 287.84C425.29 290.36 422.71 295.71 417.91 297.65C416.004 298.244 414.064 298.719 412.1 299.07C410.17 299.58 408.2 300.57 407.3 302.35C405.54 305.87 408.81 310.21 407.57 313.94C406.48 317.25 403.26 318.52 401.46 321.5C400.722 322.812 400.428 324.327 400.62 325.82C400.773 328.351 401.39 330.832 402.44 333.14C403.608 335.433 404.945 337.635 406.44 339.73C406.53 339.84 428.18 352.32 428.38 352.43Z" fill="#6C63FF"/>
<path d="M415.44 345.44C415.327 345.429 415.222 345.379 415.141 345.299C415.061 345.219 415.011 345.113 415 345C412.67 326.53 421.49 301.62 434.65 289.47C434.696 289.42 434.752 289.381 434.814 289.354C434.876 289.327 434.943 289.313 435.011 289.313C435.079 289.313 435.146 289.327 435.208 289.355C435.27 289.382 435.325 289.422 435.371 289.472C435.417 289.522 435.452 289.581 435.474 289.645C435.495 289.709 435.504 289.777 435.498 289.844C435.492 289.912 435.473 289.977 435.44 290.037C435.408 290.096 435.364 290.149 435.31 290.19C422.31 302.19 413.67 326.68 415.97 344.88C415.985 345.007 415.949 345.135 415.87 345.235C415.792 345.336 415.677 345.403 415.55 345.42L415.44 345.44Z" fill="white"/>
<path d="M417.7 321.81C417.624 321.812 417.55 321.796 417.482 321.763C417.414 321.729 417.355 321.681 417.31 321.62C417.27 321.569 417.241 321.51 417.224 321.448C417.207 321.385 417.203 321.32 417.211 321.256C417.22 321.192 417.241 321.13 417.273 321.074C417.305 321.018 417.348 320.969 417.4 320.93C424.67 315.48 435.77 316.43 436.24 316.48C436.304 316.485 436.366 316.503 436.423 316.532C436.48 316.562 436.531 316.602 436.572 316.652C436.613 316.701 436.644 316.758 436.662 316.82C436.681 316.881 436.687 316.946 436.68 317.01C436.667 317.138 436.604 317.256 436.505 317.339C436.406 317.421 436.278 317.461 436.15 317.45C436.04 317.45 424.95 316.45 417.99 321.71C417.908 321.775 417.805 321.811 417.7 321.81Z" fill="white"/>
<path d="M418.79 317.28C418.663 317.28 418.542 317.231 418.45 317.143C418.359 317.056 418.305 316.936 418.3 316.81C417.97 308.35 411.58 303.24 411.52 303.19C411.469 303.151 411.427 303.102 411.396 303.047C411.365 302.991 411.345 302.93 411.337 302.867C411.33 302.803 411.335 302.739 411.353 302.678C411.37 302.617 411.4 302.56 411.44 302.51C411.519 302.409 411.634 302.343 411.761 302.326C411.889 302.309 412.017 302.343 412.12 302.42C414.223 304.204 415.943 306.397 417.173 308.865C418.404 311.334 419.121 314.026 419.28 316.78C419.283 316.844 419.272 316.907 419.25 316.967C419.228 317.027 419.194 317.082 419.15 317.129C419.106 317.175 419.054 317.213 418.995 317.239C418.937 317.265 418.874 317.279 418.81 317.28H418.79Z" fill="white"/>
<path d="M107.531 166.024L103.562 168.038L128.224 216.627L132.192 214.613L107.531 166.024Z" fill="#455A64"/>
<path d="M153.324 162.14L129.274 200.988L133.058 203.331L157.108 164.482L153.324 162.14Z" fill="#455A64"/>
<path d="M126.5 157.51V333.35C126.529 333.677 126.646 333.991 126.837 334.259C127.029 334.526 127.289 334.737 127.59 334.87C128.407 335.284 129.309 335.499 130.225 335.499C131.141 335.499 132.043 335.284 132.86 334.87C133.161 334.737 133.421 334.526 133.613 334.259C133.804 333.991 133.921 333.677 133.95 333.35V157.51H126.5Z" fill="#455A64"/>
<path d="M122.39 142.48C127.817 119.485 113.576 96.4442 90.581 91.0169C67.5861 85.5896 44.5453 99.8309 39.118 122.826C33.6907 145.821 47.9321 168.862 70.927 174.289C93.922 179.716 116.963 165.475 122.39 142.48Z" fill="#6C63FF"/>
<path opacity="0.15" d="M66.7398 137.66C54.4598 116.66 57.9998 99.5298 59.6798 95.4298C62.3898 88.8098 73.0898 89.8798 80.7598 89.8798C87.9684 89.8793 95.0603 91.7004 101.377 95.1739C107.693 98.6475 113.03 103.661 116.89 109.749C120.751 115.836 123.011 122.801 123.46 129.995C123.909 137.19 122.532 144.382 119.458 150.902C116.384 157.422 111.713 163.06 105.877 167.292C100.041 171.524 93.2308 174.213 86.078 175.108C78.9252 176.004 71.6621 175.078 64.9631 172.415C58.2641 169.753 52.3465 165.441 47.7598 159.88C60.4298 163.59 78.6698 158.07 66.7398 137.66Z" fill="black"/>
<path d="M215.212 145.226C220.06 124.682 207.337 104.098 186.793 99.2488C166.249 94.4 145.664 107.123 140.816 127.667C135.967 148.211 148.69 168.796 169.234 173.645C189.778 178.494 210.363 165.77 215.212 145.226Z" fill="#6C63FF"/>
<path opacity="0.15" d="M178 98.2398C186.018 98.2273 193.834 100.751 200.33 105.45C201.33 128.79 181.55 151.56 187.09 159.21C192.63 166.86 206.28 162.16 211.03 155.67C207.66 161.467 202.823 166.276 197.006 169.612C191.19 172.949 184.597 174.697 177.891 174.68C171.186 174.663 164.602 172.882 158.803 169.515C153.003 166.149 148.191 161.316 144.85 155.502C141.509 149.687 139.756 143.096 139.769 136.39C139.781 129.685 141.557 123.1 144.919 117.298C148.281 111.496 153.111 106.68 158.923 103.335C164.734 99.9897 171.324 98.2325 178.03 98.2398H178Z" fill="black"/>
<path d="M130.22 165.36C168.941 165.36 200.33 133.971 200.33 95.2501C200.33 56.5295 168.941 25.1401 130.22 25.1401C91.4997 25.1401 60.1104 56.5295 60.1104 95.2501C60.1104 133.971 91.4997 165.36 130.22 165.36Z" fill="#6C63FF"/>
<path opacity="0.1" d="M181.14 47.0801C182.372 52.3245 182.996 57.6931 183 63.0801C183 101.81 163.63 143.2 111.88 143.2C91.8205 143.2 68.1305 130.2 61.9805 111.27C63.544 117.94 66.0848 124.343 69.5205 130.27C69.9905 131.1 70.5205 131.91 70.9905 132.71C71.0193 132.739 71.043 132.773 71.0605 132.81C73.5651 136.754 76.456 140.439 79.6905 143.81L80.0605 144.2C80.5905 144.74 81.1205 145.26 81.6605 145.78L82.2805 146.37C82.8005 146.86 83.2805 147.37 83.8505 147.8L84.5905 148.44C85.1105 148.89 85.6405 149.34 86.1805 149.77C86.4305 149.98 86.6905 150.17 86.9505 150.38C87.5005 150.81 88.0505 151.24 88.6105 151.66L89.0805 151.99C90.2305 152.83 91.4105 153.63 92.6105 154.39L93.5305 154.98L95.0405 155.87L96.2605 156.57C96.7505 156.84 97.2605 157.1 97.7505 157.36C98.2405 157.62 98.6305 157.82 99.0805 158.05L100.55 158.76L101.98 159.4C102.47 159.62 102.98 159.83 103.44 160.03C103.9 160.23 104.44 160.45 105 160.65C105.56 160.85 105.93 161.02 106.4 161.19C107.08 161.43 107.77 161.66 108.4 161.88L110.23 162.45C110.93 162.66 111.63 162.86 112.34 163.05C112.8 163.17 113.27 163.27 113.73 163.38C114.19 163.49 114.91 163.67 115.51 163.79C116.11 163.91 116.51 163.99 116.98 164.08C117.45 164.17 118.15 164.3 118.73 164.4L120.24 164.63L122.03 164.86L123.53 165.02C124.16 165.08 124.8 165.12 125.44 165.16L126.86 165.26C127.69 165.26 128.53 165.31 129.37 165.32H130.16C143.859 165.329 157.261 161.324 168.708 153.799C180.155 146.274 189.146 135.56 194.57 122.98C199.994 110.401 201.612 96.5079 199.225 83.0185C196.839 69.5291 190.551 57.0348 181.14 47.0801Z" fill="black"/>
<path d="M403.55 64.85L411 69.15C410.96 68.8182 410.94 68.4843 410.94 68.15V66C410.94 62.16 413.63 60.6 416.94 62.52C418.377 63.4069 419.605 64.594 420.54 66C421.09 61.17 424.88 59.38 429.48 62C434.48 64.87 438.48 71.86 438.48 77.6V80.83C438.514 82.1183 438.255 83.3974 437.72 84.57L443.9 88.14C444.873 88.7714 445.684 89.6243 446.264 90.629C446.845 91.6336 447.179 92.7613 447.24 93.92C447.24 96.05 445.75 96.92 443.9 95.85L403.55 72.55C402.578 71.9168 401.769 71.0635 401.189 70.0592C400.609 69.055 400.273 67.9281 400.21 66.77C400.21 64.65 401.71 63.79 403.55 64.85Z" fill="#F0F0F0"/>
<path d="M348.63 64.4398L357.63 69.6098C357.579 69.2185 357.552 68.8244 357.55 68.4298V65.8298C357.55 61.1998 360.8 59.3298 364.8 61.6398C366.524 62.6981 367.998 64.1173 369.12 65.7998C369.78 59.9798 374.34 57.7998 379.88 61.0198C385.88 64.4698 390.73 72.8898 390.73 79.7998V83.6898C390.77 85.2403 390.456 86.7794 389.81 88.1898L397.26 92.4898C398.43 93.2606 399.401 94.2959 400.096 95.5121C400.791 96.7282 401.19 98.0909 401.26 99.4898C401.26 102.05 399.46 103.09 397.26 101.81L348.66 73.7498C347.488 72.9813 346.515 71.9465 345.82 70.7299C345.125 69.5133 344.727 68.1494 344.66 66.7498C344.61 64.1898 346.41 63.1498 348.63 64.4398Z" fill="#F0F0F0"/>
<path d="M238.07 302.76C237.346 302.76 236.635 302.567 236.01 302.2L191.61 276.57C189.222 275.183 187.239 273.195 185.859 270.804C184.478 268.413 183.748 265.701 183.74 262.94V211.66C183.74 210.567 184.174 209.519 184.947 208.747C185.72 207.974 186.768 207.54 187.86 207.54C188.953 207.54 190.001 207.974 190.774 208.747C191.546 209.519 191.98 210.567 191.98 211.66V262.94C191.984 264.255 192.332 265.546 192.99 266.685C193.648 267.823 194.593 268.77 195.73 269.43L240.13 295.07C240.917 295.523 241.531 296.223 241.879 297.061C242.227 297.9 242.288 298.829 242.053 299.706C241.819 300.583 241.301 301.357 240.581 301.91C239.86 302.462 238.978 302.761 238.07 302.76Z" fill="#6C63FF"/>
<path d="M147.43 353.93C146.706 353.93 145.994 353.737 145.37 353.37L101 327.74C98.6107 326.355 96.6266 324.367 95.2456 321.976C93.8647 319.584 93.1351 316.872 93.1299 314.11V262.84C93.1299 261.748 93.564 260.7 94.3366 259.927C95.1093 259.154 96.1572 258.72 97.2499 258.72C98.3426 258.72 99.3905 259.154 100.163 259.927C100.936 260.7 101.37 261.748 101.37 262.84V314.11C101.372 315.426 101.719 316.718 102.377 317.857C103.035 318.995 103.981 319.942 105.12 320.6L149.52 346.24C150.306 346.693 150.921 347.393 151.269 348.232C151.617 349.07 151.678 350 151.443 350.876C151.208 351.753 150.69 352.528 149.97 353.08C149.25 353.632 148.367 353.931 147.46 353.93H147.43Z" fill="#6C63FF"/>
<path d="M325.6 251.2C324.876 251.2 324.165 251.007 323.54 250.64L279.14 225C276.754 223.613 274.772 221.625 273.393 219.233C272.014 216.842 271.286 214.131 271.28 211.37V160.11C271.28 159.018 271.714 157.97 272.487 157.197C273.26 156.424 274.308 155.99 275.4 155.99C276.493 155.99 277.541 156.424 278.314 157.197C279.086 157.97 279.52 159.018 279.52 160.11V211.38C279.52 212.696 279.867 213.989 280.525 215.128C281.183 216.267 282.13 217.213 283.27 217.87L327.67 243.51C328.45 243.969 329.057 244.67 329.4 245.507C329.742 246.344 329.8 247.271 329.565 248.144C329.33 249.017 328.815 249.789 328.098 250.341C327.382 250.893 326.505 251.195 325.6 251.2Z" fill="#6C63FF"/>
<path d="M155.11 348.82V407.49C155.074 407.903 154.928 408.299 154.687 408.637C154.446 408.975 154.119 409.242 153.74 409.41C152.713 409.928 151.58 410.197 150.43 410.197C149.28 410.197 148.147 409.928 147.12 409.41C146.742 409.24 146.416 408.972 146.175 408.635C145.935 408.298 145.788 407.902 145.75 407.49V348.82H155.11Z" fill="#6C63FF"/>
<path d="M116 326.51V385.19C115.96 385.601 115.812 385.994 115.572 386.329C115.331 386.665 115.006 386.931 114.63 387.1C113.603 387.618 112.469 387.887 111.32 387.887C110.17 387.887 109.036 387.618 108.01 387.1C107.633 386.931 107.308 386.665 107.067 386.329C106.827 385.994 106.679 385.601 106.64 385.19V326.51H116Z" fill="#6C63FF"/>
<path d="M333.13 246V304.67C333.09 305.081 332.942 305.474 332.702 305.81C332.461 306.145 332.136 306.411 331.76 306.58C330.734 307.102 329.6 307.375 328.45 307.375C327.299 307.375 326.165 307.102 325.14 306.58C324.763 306.411 324.438 306.145 324.197 305.81C323.957 305.474 323.809 305.081 323.77 304.67V246H333.13Z" fill="#6C63FF"/>
<path d="M294 223.73V282.4C293.962 282.812 293.815 283.206 293.574 283.541C293.334 283.877 293.007 284.142 292.63 284.31C291.604 284.832 290.47 285.105 289.32 285.105C288.169 285.105 287.035 284.832 286.01 284.31C285.631 284.144 285.303 283.879 285.062 283.543C284.821 283.207 284.675 282.812 284.64 282.4V223.73H294Z" fill="#6C63FF"/>
<path opacity="0.2" d="M238.07 302.76C237.346 302.76 236.635 302.567 236.01 302.2L191.61 276.57C189.222 275.183 187.239 273.195 185.859 270.804C184.478 268.413 183.748 265.701 183.74 262.94V211.66C183.74 210.567 184.174 209.519 184.947 208.747C185.72 207.974 186.768 207.54 187.86 207.54C188.953 207.54 190.001 207.974 190.774 208.747C191.546 209.519 191.98 210.567 191.98 211.66V262.94C191.984 264.255 192.332 265.546 192.99 266.685C193.648 267.823 194.593 268.77 195.73 269.43L240.13 295.07C240.917 295.523 241.531 296.223 241.879 297.061C242.227 297.9 242.288 298.829 242.053 299.706C241.819 300.583 241.301 301.357 240.581 301.91C239.86 302.462 238.978 302.761 238.07 302.76Z" fill="black"/>
<path opacity="0.2" d="M147.43 353.93C146.706 353.93 145.994 353.737 145.37 353.37L101 327.74C98.6107 326.355 96.6266 324.367 95.2456 321.976C93.8647 319.584 93.1351 316.872 93.1299 314.11V262.84C93.1299 261.748 93.564 260.7 94.3366 259.927C95.1093 259.154 96.1572 258.72 97.2499 258.72C98.3426 258.72 99.3905 259.154 100.163 259.927C100.936 260.7 101.37 261.748 101.37 262.84V314.11C101.372 315.426 101.719 316.718 102.377 317.857C103.035 318.995 103.981 319.942 105.12 320.6L149.52 346.24C150.306 346.693 150.921 347.393 151.269 348.232C151.617 349.07 151.678 350 151.443 350.876C151.208 351.753 150.69 352.528 149.97 353.08C149.25 353.632 148.367 353.931 147.46 353.93H147.43Z" fill="black"/>
<path opacity="0.2" d="M325.6 251.2C324.876 251.2 324.165 251.007 323.54 250.64L279.14 225C276.754 223.613 274.772 221.625 273.393 219.233C272.014 216.842 271.286 214.131 271.28 211.37V160.11C271.28 159.018 271.714 157.97 272.487 157.197C273.26 156.424 274.308 155.99 275.4 155.99C276.493 155.99 277.541 156.424 278.314 157.197C279.086 157.97 279.52 159.018 279.52 160.11V211.38C279.52 212.696 279.867 213.989 280.525 215.128C281.183 216.267 282.13 217.213 283.27 217.87L327.67 243.51C328.45 243.969 329.057 244.67 329.4 245.507C329.742 246.344 329.8 247.271 329.565 248.144C329.33 249.017 328.815 249.789 328.098 250.341C327.382 250.893 326.505 251.195 325.6 251.2Z" fill="black"/>
<path opacity="0.4" d="M155.11 348.82V407.49C155.074 407.903 154.928 408.299 154.687 408.637C154.446 408.975 154.119 409.242 153.74 409.41C152.713 409.928 151.58 410.197 150.43 410.197C149.28 410.197 148.147 409.928 147.12 409.41C146.742 409.24 146.416 408.972 146.175 408.635C145.935 408.298 145.788 407.902 145.75 407.49V348.82H155.11Z" fill="black"/>
<path opacity="0.4" d="M116 326.51V385.19C115.96 385.601 115.812 385.994 115.572 386.329C115.331 386.665 115.006 386.931 114.63 387.1C113.603 387.618 112.469 387.887 111.32 387.887C110.17 387.887 109.036 387.618 108.01 387.1C107.633 386.931 107.308 386.665 107.067 386.329C106.827 385.994 106.679 385.601 106.64 385.19V326.51H116Z" fill="black"/>
<path opacity="0.4" d="M333.13 246V304.67C333.09 305.081 332.942 305.474 332.702 305.81C332.461 306.145 332.136 306.411 331.76 306.58C330.734 307.102 329.6 307.375 328.45 307.375C327.299 307.375 326.165 307.102 325.14 306.58C324.763 306.411 324.438 306.145 324.197 305.81C323.957 305.474 323.809 305.081 323.77 304.67V246H333.13Z" fill="black"/>
<path opacity="0.4" d="M294 223.73V282.4C293.962 282.812 293.815 283.206 293.574 283.541C293.334 283.877 293.007 284.142 292.63 284.31C291.604 284.832 290.47 285.105 289.32 285.105C288.169 285.105 287.035 284.832 286.01 284.31C285.631 284.144 285.303 283.879 285.062 283.543C284.821 283.207 284.675 282.812 284.64 282.4V223.73H294Z" fill="black"/>
<path d="M83.9197 274.47L83.0997 274C82.4083 273.548 81.8327 272.939 81.4193 272.223C81.006 271.508 80.7663 270.705 80.7197 269.88V262.49C80.764 261.665 81.0026 260.861 81.4162 260.145C81.8298 259.429 82.4066 258.821 83.0997 258.37L278.81 145.37C279.549 145.001 280.364 144.808 281.19 144.808C282.016 144.808 282.831 145.001 283.57 145.37L284.39 145.85C285.082 146.302 285.658 146.911 286.071 147.626C286.485 148.342 286.724 149.145 286.77 149.97V157.36C286.724 158.185 286.485 158.988 286.071 159.704C285.658 160.42 285.082 161.028 284.39 161.48L88.6797 274.48C87.9416 274.854 87.1257 275.047 86.2985 275.046C85.4713 275.044 84.6562 274.847 83.9197 274.47Z" fill="#6C63FF"/>
<path opacity="0.4" d="M284.39 148.6L88.6798 261.6C87.9867 262.051 87.4099 262.659 86.9963 263.375C86.5827 264.091 86.3441 264.894 86.2998 265.72V273.11C86.2998 274.62 87.3698 275.24 88.6798 274.48L284.39 161.48C285.082 161.028 285.658 160.42 286.071 159.704C286.485 158.988 286.724 158.185 286.77 157.36V150C286.77 148.45 285.7 147.84 284.39 148.6Z" fill="white"/>
<path opacity="0.7" d="M284.39 145.85L283.57 145.37C282.831 145.001 282.016 144.808 281.19 144.808C280.364 144.808 279.549 145.001 278.81 145.37L83.0999 258.37C82.3941 258.802 81.8147 259.413 81.4199 260.14L86.9999 263.36C87.41 262.644 87.9862 262.037 88.6799 261.59L284.39 148.59C285.7 147.83 286.77 148.44 286.77 149.96C286.723 149.137 286.483 148.336 286.069 147.622C285.656 146.908 285.081 146.301 284.39 145.85Z" fill="white"/>
<path opacity="0.2" d="M86.3005 265.71C86.3309 264.88 86.5717 264.071 87.0005 263.36L81.4205 260.14C81.2437 260.459 81.0964 260.794 80.9805 261.14C80.822 261.583 80.7375 262.05 80.7305 262.52V269.91C80.7606 270.756 81.0086 271.579 81.4505 272.3C81.8508 272.995 82.4179 273.579 83.1005 274L83.4205 274.19L83.9305 274.47C84.0463 274.538 84.1666 274.598 84.2905 274.65L84.3905 274.7L84.7205 274.81L84.9305 274.87L85.2605 274.94H85.5105H85.8405H86.4505H86.6705H87.0605H87.1505C87.4922 274.895 87.8277 274.811 88.1505 274.69C88.0391 274.722 87.9254 274.745 87.8105 274.76C87.6846 274.78 87.5563 274.78 87.4305 274.76H87.3305L87.0905 274.68L87.0005 274.62C86.9301 274.572 86.8663 274.515 86.8105 274.45C86.7847 274.429 86.7612 274.406 86.7405 274.38C86.6779 274.303 86.6242 274.219 86.5805 274.13C86.5769 274.104 86.5769 274.077 86.5805 274.05C86.5252 273.924 86.4817 273.794 86.4505 273.66C86.4342 273.487 86.4342 273.313 86.4505 273.14L86.3005 265.71Z" fill="white"/>
<path d="M83.9197 297.07L83.0997 296.59C82.4077 296.138 81.8317 295.53 81.4183 294.814C81.0049 294.098 80.7656 293.295 80.7197 292.47V285.08C80.7717 284.262 81.0139 283.467 81.427 282.759C81.8402 282.05 82.4129 281.448 83.0997 281L278.81 168C279.547 167.625 280.363 167.43 281.19 167.43C282.017 167.43 282.832 167.625 283.57 168L284.39 168.47C285.083 168.924 285.659 169.534 286.072 170.251C286.486 170.969 286.725 171.773 286.77 172.6V180C286.723 180.825 286.483 181.628 286.07 182.343C285.657 183.059 285.081 183.668 284.39 184.12L88.6797 297.12C87.9385 297.487 87.1209 297.674 86.2937 297.666C85.4665 297.657 84.6531 297.453 83.9197 297.07Z" fill="#6C63FF"/>
<path opacity="0.4" d="M284.39 171.19L88.6798 284.19C87.9867 284.641 87.4099 285.249 86.9963 285.965C86.5827 286.681 86.3441 287.485 86.2998 288.31V295.7C86.2998 297.21 87.3698 297.83 88.6798 297.07L284.39 184.07C285.082 183.618 285.658 183.01 286.071 182.294C286.485 181.578 286.724 180.775 286.77 179.95V172.56C286.77 171.05 285.7 170.44 284.39 171.19Z" fill="white"/>
<path opacity="0.7" d="M284.39 168.45L283.57 167.97C282.831 167.6 282.016 167.408 281.19 167.408C280.364 167.408 279.549 167.6 278.81 167.97L83.0999 281C82.3958 281.438 81.8171 282.051 81.4199 282.78L86.9999 286C87.41 285.284 87.9862 284.677 88.6799 284.23L284.39 171.23C285.7 170.48 286.77 171.09 286.77 172.61C286.73 171.778 286.494 170.967 286.08 170.244C285.666 169.52 285.087 168.906 284.39 168.45Z" fill="white"/>
<path opacity="0.2" d="M86.3005 288.31C86.3375 287.493 86.5782 286.699 87.0005 286L81.4205 282.78C81.2433 283.099 81.096 283.434 80.9805 283.78C80.822 284.226 80.7375 284.696 80.7305 285.17V292.56C80.7646 293.405 81.0123 294.227 81.4505 294.95C81.8495 295.654 82.4163 296.248 83.1005 296.68L83.4205 296.86L83.9305 297.15C84.0466 297.214 84.1668 297.271 84.2905 297.32L84.3905 297.37L84.7205 297.48L84.9305 297.55L85.2605 297.62H85.5105H85.8405H86.1005H86.6705H87.0605H87.1505C87.4912 297.57 87.8262 297.486 88.1505 297.37L87.8105 297.43C87.6843 297.445 87.5567 297.445 87.4305 297.43H87.3305C87.2474 297.409 87.1669 297.378 87.0905 297.34L87.0005 297.28L86.8105 297.12C86.7821 297.098 86.7583 297.071 86.7405 297.04C86.6758 296.964 86.6219 296.88 86.5805 296.79C86.5772 296.767 86.5772 296.743 86.5805 296.72C86.5252 296.594 86.4817 296.463 86.4505 296.33C86.4342 296.157 86.4342 295.983 86.4505 295.81L86.3005 288.31Z" fill="white"/>
<path d="M83.9197 319.66L83.0997 319.19C82.4077 318.738 81.8317 318.13 81.4183 317.414C81.0049 316.698 80.7656 315.895 80.7197 315.07V307.68C80.7656 306.855 81.0049 306.052 81.4183 305.336C81.8317 304.621 82.4077 304.012 83.0997 303.56L278.81 190.56C279.547 190.185 280.363 189.99 281.19 189.99C282.017 189.99 282.832 190.185 283.57 190.56L284.39 191.03C285.082 191.482 285.658 192.091 286.071 192.806C286.485 193.522 286.724 194.325 286.77 195.15V202.54C286.724 203.365 286.485 204.168 286.071 204.884C285.658 205.6 285.082 206.208 284.39 206.66L88.6797 319.66C87.9424 320.035 87.1269 320.231 86.2997 320.231C85.4725 320.231 84.657 320.035 83.9197 319.66Z" fill="#6C63FF"/>
<path opacity="0.4" d="M284.39 193.79L88.6798 306.79C87.9867 307.241 87.4099 307.849 86.9963 308.565C86.5827 309.281 86.3441 310.085 86.2998 310.91V318.3C86.2998 319.81 87.3698 320.43 88.6798 319.67L284.39 206.67C285.082 206.218 285.658 205.61 286.071 204.894C286.485 204.178 286.724 203.375 286.77 202.55V195.16C286.77 193.64 285.7 193 284.39 193.79Z" fill="white"/>
<path opacity="0.7" d="M284.39 191L283.57 190.52C282.831 190.15 282.016 189.958 281.19 189.958C280.364 189.958 279.549 190.15 278.81 190.52L83.0999 303.55C82.3958 303.989 81.8171 304.602 81.4199 305.33L86.9999 308.55C87.41 307.834 87.9862 307.227 88.6799 306.78L284.39 193.78C285.7 193.02 286.77 193.63 286.77 195.15C286.729 194.32 286.492 193.511 286.078 192.789C285.664 192.068 285.086 191.455 284.39 191Z" fill="white"/>
<path opacity="0.2" d="M86.3005 310.9C86.3309 310.07 86.5717 309.261 87.0005 308.55L81.4205 305.33C81.2433 305.649 81.096 305.984 80.9805 306.33C80.822 306.777 80.7375 307.246 80.7305 307.72V315.11C80.7646 315.955 81.0123 316.777 81.4505 317.5C81.8495 318.204 82.4163 318.798 83.1005 319.23L83.4205 319.41L83.9305 319.7C84.0466 319.765 84.1668 319.821 84.2905 319.87L84.3905 319.92L84.7205 320.03L84.9305 320.1L85.2605 320.17H85.5105H85.8405H86.1005H86.6705H87.0605H87.1505C87.4912 320.12 87.8262 320.036 88.1505 319.92L87.8105 319.98C87.6843 319.995 87.5567 319.995 87.4305 319.98H87.3305C87.2474 319.959 87.1669 319.929 87.0905 319.89L87.0005 319.83L86.8105 319.67C86.7821 319.648 86.7583 319.621 86.7405 319.59C86.6758 319.515 86.6219 319.43 86.5805 319.34C86.5772 319.317 86.5772 319.293 86.5805 319.27C86.5252 319.144 86.4817 319.014 86.4505 318.88C86.4342 318.707 86.4342 318.533 86.4505 318.36L86.3005 310.9Z" fill="white"/>
<path d="M130.93 355.89V356.84C130.976 357.665 131.215 358.468 131.628 359.184C132.042 359.9 132.618 360.508 133.31 360.96L139.71 364.65C140.447 365.025 141.262 365.221 142.09 365.221C142.917 365.221 143.732 365.025 144.47 364.65L340.18 251.65C340.872 251.198 341.448 250.59 341.861 249.874C342.275 249.158 342.514 248.355 342.56 247.53V246.58C342.513 245.755 342.273 244.952 341.86 244.237C341.447 243.521 340.871 242.913 340.18 242.46L333.78 238.77C333.042 238.395 332.227 238.2 331.4 238.2C330.572 238.2 329.757 238.395 329.02 238.77L133.31 351.77C132.618 352.222 132.042 352.831 131.628 353.546C131.215 354.262 130.976 355.065 130.93 355.89Z" fill="#6C63FF"/>
<path opacity="0.7" d="M144.47 358.21L340.18 245.21C341.49 244.45 341.49 243.21 340.18 242.46L333.78 238.77C333.042 238.395 332.227 238.2 331.4 238.2C330.572 238.2 329.757 238.395 329.02 238.77L133.31 351.77C132 352.53 132 353.77 133.31 354.52L139.71 358.21C140.447 358.585 141.262 358.781 142.09 358.781C142.917 358.781 143.732 358.585 144.47 358.21Z" fill="white"/>
<path opacity="0.4" d="M340.42 242.62C341.48 243.39 341.42 244.51 340.18 245.22L144.47 358.22C143.738 358.61 142.919 358.806 142.09 358.79V365.23C142.919 365.246 143.738 365.05 144.47 364.66L340.18 251.66C340.872 251.208 341.448 250.6 341.861 249.884C342.275 249.168 342.514 248.365 342.56 247.54V246.59C342.516 245.812 342.301 245.053 341.931 244.367C341.562 243.681 341.046 243.085 340.42 242.62Z" fill="white"/>
<path opacity="0.2" d="M139.71 358.21L133.31 354.51C132.16 353.84 132.02 352.82 132.88 352.07C132.306 352.535 131.836 353.115 131.5 353.773C131.164 354.431 130.97 355.152 130.93 355.89V356.83C130.997 358.093 131.511 359.291 132.38 360.21C132.654 360.499 132.967 360.748 133.31 360.95L139.71 364.65C140.442 365.039 141.261 365.236 142.09 365.22V358.78C141.261 358.795 140.442 358.599 139.71 358.21Z" fill="white"/>
<path d="M111.41 344.62V345.57C111.455 346.395 111.694 347.199 112.108 347.914C112.521 348.63 113.098 349.238 113.79 349.69L120.19 353.38C120.926 353.755 121.74 353.95 122.565 353.95C123.391 353.95 124.205 353.755 124.94 353.38L320.65 240.38C321.342 239.928 321.918 239.319 322.332 238.604C322.745 237.888 322.984 237.085 323.03 236.26V235.26C322.984 234.435 322.745 233.632 322.332 232.916C321.918 232.2 321.342 231.592 320.65 231.14L314.25 227.45C313.513 227.075 312.697 226.879 311.87 226.879C311.043 226.879 310.227 227.075 309.49 227.45L113.79 340.45C113.09 340.905 112.508 341.521 112.094 342.246C111.68 342.972 111.446 343.785 111.41 344.62Z" fill="#6C63FF"/>
<path opacity="0.7" d="M124.94 346.94L320.65 234C321.96 233.24 321.96 232 320.65 231.25L314.25 227.56C313.512 227.185 312.697 226.99 311.87 226.99C311.043 226.99 310.227 227.185 309.49 227.56L113.79 340.56C112.47 341.32 112.47 342.56 113.79 343.3L120.19 347C120.93 347.366 121.746 347.551 122.572 347.541C123.398 347.53 124.209 347.324 124.94 346.94Z" fill="white"/>
<path opacity="0.4" d="M320.89 231.35C321.95 232.12 321.89 233.24 320.65 233.95L124.94 346.95C124.208 347.34 123.388 347.536 122.56 347.52V354C123.388 354.016 124.208 353.82 124.94 353.43L320.65 240.43C321.342 239.978 321.918 239.37 322.331 238.654C322.744 237.938 322.984 237.135 323.03 236.31V235.31C322.984 234.534 322.769 233.777 322.399 233.093C322.029 232.408 321.514 231.814 320.89 231.35Z" fill="white"/>
<path opacity="0.2" d="M120.18 346.94L113.78 343.24C112.63 342.57 112.49 341.55 113.35 340.8C112.777 341.265 112.307 341.845 111.971 342.503C111.635 343.161 111.441 343.882 111.4 344.62V345.56C111.467 346.823 111.981 348.021 112.85 348.94C113.124 349.229 113.437 349.478 113.78 349.68L120.18 353.38C120.912 353.769 121.731 353.966 122.56 353.95V347.51C121.731 347.526 120.912 347.329 120.18 346.94Z" fill="white"/>
<path d="M91.8799 333.34V334.34C91.9233 335.166 92.1616 335.97 92.5753 336.686C92.989 337.402 93.5662 338.01 94.2599 338.46L100.66 342.16C101.397 342.535 102.213 342.73 103.04 342.73C103.867 342.73 104.683 342.535 105.42 342.16L301.12 229.16C301.818 228.705 302.397 228.09 302.811 227.367C303.225 226.644 303.461 225.832 303.5 225V224.05C303.456 223.224 303.218 222.42 302.804 221.704C302.391 220.988 301.814 220.38 301.12 219.93L294.72 216.23C293.984 215.855 293.17 215.66 292.345 215.66C291.519 215.66 290.705 215.855 289.97 216.23L94.2599 329.23C93.5686 329.68 92.993 330.287 92.5796 331.001C92.1662 331.715 91.9265 332.516 91.8799 333.34Z" fill="#6C63FF"/>
<path opacity="0.7" d="M94.2595 332L100.66 335.7C101.398 336.069 102.213 336.262 103.04 336.262C103.866 336.262 104.681 336.069 105.42 335.7L301.12 222.7C302.44 221.95 302.44 220.7 301.12 219.96L294.72 216.26C293.984 215.885 293.17 215.689 292.345 215.689C291.519 215.689 290.705 215.885 289.97 216.26L94.2595 329.26C92.9395 330 92.9395 331.21 94.2595 332Z" fill="white"/>
<path opacity="0.4" d="M301.37 220.08C302.43 220.85 302.37 221.97 301.13 222.68L105.42 335.68C104.688 336.07 103.869 336.266 103.04 336.25V342.69C103.869 342.706 104.688 342.51 105.42 342.12L301.13 229.12C301.822 228.668 302.398 228.06 302.811 227.344C303.225 226.628 303.464 225.825 303.51 225V224.05C303.466 223.272 303.251 222.513 302.882 221.827C302.512 221.141 301.996 220.545 301.37 220.08Z" fill="white"/>
<path opacity="0.2" d="M100.66 335.67L94.2601 331.97C93.1101 331.3 92.9701 330.28 93.8301 329.53C93.2472 329.99 92.7678 330.569 92.4232 331.227C92.0786 331.885 91.8765 332.608 91.8301 333.35V334.29C91.8971 335.553 92.411 336.751 93.2801 337.67C93.554 337.959 93.867 338.208 94.2101 338.41L100.61 342.11C101.342 342.499 102.161 342.695 102.99 342.68V336.24C102.178 336.247 101.377 336.051 100.66 335.67Z" fill="white"/>
<path d="M109.92 324.77C109.759 324.826 109.619 324.93 109.52 325.069C109.421 325.208 109.368 325.375 109.368 325.545C109.368 325.716 109.421 325.882 109.52 326.021C109.619 326.16 109.759 326.264 109.92 326.32C110.338 326.529 110.798 326.638 111.265 326.638C111.732 326.638 112.193 326.529 112.61 326.32C112.771 326.264 112.911 326.16 113.01 326.021C113.109 325.882 113.162 325.716 113.162 325.545C113.162 325.375 113.109 325.208 113.01 325.069C112.911 324.93 112.771 324.826 112.61 324.77C112.193 324.561 111.732 324.452 111.265 324.452C110.798 324.452 110.338 324.561 109.92 324.77Z" fill="white"/>
<path d="M129.51 336.13C129.346 336.183 129.202 336.288 129.1 336.428C128.998 336.568 128.943 336.737 128.943 336.91C128.943 337.083 128.998 337.252 129.1 337.392C129.202 337.532 129.346 337.636 129.51 337.69C129.928 337.899 130.388 338.008 130.855 338.008C131.322 338.008 131.783 337.899 132.2 337.69C132.365 337.636 132.509 337.532 132.611 337.392C132.713 337.252 132.767 337.083 132.767 336.91C132.767 336.737 132.713 336.568 132.611 336.428C132.509 336.288 132.365 336.183 132.2 336.13C131.783 335.921 131.322 335.812 130.855 335.812C130.388 335.812 129.928 335.921 129.51 336.13Z" fill="white"/>
<path d="M149.09 347.5C148.929 347.556 148.789 347.66 148.69 347.799C148.591 347.938 148.538 348.104 148.538 348.275C148.538 348.446 148.591 348.612 148.69 348.751C148.789 348.89 148.929 348.994 149.09 349.05C149.508 349.259 149.968 349.368 150.435 349.368C150.902 349.368 151.363 349.259 151.78 349.05C151.941 348.994 152.081 348.89 152.18 348.751C152.279 348.612 152.332 348.446 152.332 348.275C152.332 348.104 152.279 347.938 152.18 347.799C152.081 347.66 151.941 347.556 151.78 347.5C151.363 347.291 150.902 347.182 150.435 347.182C149.968 347.182 149.508 347.291 149.09 347.5Z" fill="white"/>
<path d="M287.94 222.05C287.779 222.106 287.639 222.21 287.54 222.349C287.441 222.488 287.388 222.654 287.388 222.825C287.388 222.995 287.441 223.162 287.54 223.301C287.639 223.44 287.779 223.544 287.94 223.6C288.357 223.809 288.818 223.918 289.285 223.918C289.752 223.918 290.212 223.809 290.63 223.6C290.791 223.544 290.931 223.44 291.03 223.301C291.129 223.162 291.182 222.995 291.182 222.825C291.182 222.654 291.129 222.488 291.03 222.349C290.931 222.21 290.791 222.106 290.63 222.05C290.212 221.84 289.752 221.731 289.285 221.731C288.818 221.731 288.357 221.84 287.94 222.05Z" fill="white"/>
<path d="M307.52 233.41C307.36 233.468 307.222 233.575 307.124 233.714C307.026 233.854 306.974 234.02 306.974 234.19C306.974 234.361 307.026 234.527 307.124 234.666C307.222 234.806 307.36 234.912 307.52 234.97C307.937 235.18 308.398 235.289 308.865 235.289C309.332 235.289 309.792 235.18 310.21 234.97C310.375 234.917 310.518 234.812 310.62 234.672C310.722 234.532 310.777 234.363 310.777 234.19C310.777 234.017 310.722 233.848 310.62 233.708C310.518 233.568 310.375 233.464 310.21 233.41C309.792 233.201 309.332 233.092 308.865 233.092C308.398 233.092 307.937 233.201 307.52 233.41Z" fill="white"/>
<path d="M327.11 244.78C326.948 244.836 326.809 244.94 326.71 245.079C326.611 245.218 326.558 245.384 326.558 245.555C326.558 245.725 326.611 245.892 326.71 246.031C326.809 246.17 326.948 246.274 327.11 246.33C327.527 246.539 327.988 246.648 328.455 246.648C328.922 246.648 329.382 246.539 329.8 246.33C329.961 246.274 330.101 246.17 330.2 246.031C330.299 245.892 330.352 245.725 330.352 245.555C330.352 245.384 330.299 245.218 330.2 245.079C330.101 244.94 329.961 244.836 329.8 244.78C329.382 244.57 328.922 244.461 328.455 244.461C327.988 244.461 327.527 244.57 327.11 244.78Z" fill="white"/>
<path d="M200.41 273.61C200.248 273.666 200.109 273.77 200.01 273.909C199.911 274.048 199.857 274.214 199.857 274.385C199.857 274.555 199.911 274.722 200.01 274.861C200.109 275 200.248 275.104 200.41 275.16C200.827 275.369 201.288 275.478 201.755 275.478C202.222 275.478 202.682 275.369 203.1 275.16C203.261 275.104 203.401 275 203.499 274.861C203.598 274.722 203.652 274.555 203.652 274.385C203.652 274.214 203.598 274.048 203.499 273.909C203.401 273.77 203.261 273.666 203.1 273.61C202.682 273.401 202.222 273.292 201.755 273.292C201.288 273.292 200.827 273.401 200.41 273.61Z" fill="white"/>
<path d="M220 285C219.839 285.056 219.699 285.16 219.6 285.299C219.501 285.438 219.448 285.604 219.448 285.775C219.448 285.946 219.501 286.112 219.6 286.251C219.699 286.39 219.839 286.494 220 286.55C220.418 286.759 220.878 286.868 221.345 286.868C221.812 286.868 222.273 286.759 222.69 286.55C223.44 286.13 223.44 285.43 222.69 285C222.273 284.791 221.812 284.682 221.345 284.682C220.878 284.682 220.418 284.791 220 285Z" fill="white"/>
<path d="M239.57 296.34C239.408 296.396 239.269 296.5 239.17 296.639C239.071 296.778 239.018 296.944 239.018 297.115C239.018 297.285 239.071 297.452 239.17 297.591C239.269 297.73 239.408 297.834 239.57 297.89C239.987 298.099 240.448 298.208 240.915 298.208C241.382 298.208 241.842 298.099 242.26 297.89C242.421 297.834 242.561 297.73 242.66 297.591C242.759 297.452 242.812 297.285 242.812 297.115C242.812 296.944 242.759 296.778 242.66 296.639C242.561 296.5 242.421 296.396 242.26 296.34C241.842 296.131 241.382 296.021 240.915 296.021C240.448 296.021 239.987 296.131 239.57 296.34Z" fill="white"/>
<path d="M97.2204 261.07C96.7755 261.361 96.4052 261.752 96.1394 262.213C95.8736 262.673 95.7198 263.189 95.6904 263.72C95.6904 264.72 96.3804 265.09 97.2204 264.61C97.6607 264.324 98.0282 263.939 98.2937 263.486C98.5593 263.033 98.7157 262.524 98.7504 262C98.7504 261 98.0704 260.58 97.2204 261.07Z" fill="white"/>
<path d="M97.2204 283.62C96.7755 283.911 96.4052 284.302 96.1394 284.763C95.8736 285.223 95.7198 285.739 95.6904 286.27C95.6904 287.27 96.3804 287.64 97.2204 287.15C97.6676 286.862 98.0396 286.471 98.3057 286.01C98.5717 285.549 98.7242 285.032 98.7504 284.5C98.7504 283.52 98.0704 283.13 97.2204 283.62Z" fill="white"/>
<path d="M97.2204 306.17C96.7749 306.46 96.4042 306.851 96.1384 307.312C95.8725 307.772 95.7191 308.289 95.6904 308.82C95.6904 309.82 96.3804 310.19 97.2204 309.7C97.6665 309.41 98.0376 309.019 98.3035 308.559C98.5695 308.098 98.7226 307.581 98.7504 307.05C98.7504 306.07 98.0704 305.68 97.2204 306.17Z" fill="white"/>
<path d="M275.4 158.39C274.954 158.68 274.581 159.071 274.314 159.531C274.046 159.991 273.891 160.508 273.86 161.04C273.86 162.04 274.55 162.42 275.4 161.93C275.844 161.638 276.214 161.246 276.479 160.786C276.745 160.326 276.899 159.81 276.93 159.28C276.93 158.3 276.24 157.9 275.4 158.39Z" fill="white"/>
<path d="M275.4 180.94C274.954 181.23 274.581 181.621 274.314 182.081C274.046 182.541 273.891 183.058 273.86 183.59C273.86 184.59 274.55 184.97 275.4 184.48C275.845 184.187 276.216 183.794 276.481 183.332C276.747 182.87 276.901 182.352 276.93 181.82C276.93 180.85 276.24 180.45 275.4 180.94Z" fill="white"/>
<path d="M275.4 203.49C274.953 203.779 274.58 204.17 274.313 204.63C274.045 205.091 273.89 205.608 273.86 206.14C273.86 207.14 274.55 207.51 275.4 207.03C275.845 206.737 276.216 206.344 276.481 205.882C276.747 205.42 276.901 204.902 276.93 204.37C276.93 203.4 276.24 203 275.4 203.49Z" fill="white"/>
<path d="M187.86 210C187.416 210.292 187.047 210.684 186.781 211.144C186.516 211.604 186.361 212.119 186.33 212.65C186.33 213.65 187.02 214.03 187.86 213.54C188.306 213.25 188.676 212.858 188.942 212.398C189.208 211.937 189.361 211.421 189.39 210.89C189.39 209.86 188.71 209.46 187.86 210Z" fill="white"/>
<path d="M187.86 232.5C187.416 232.792 187.047 233.184 186.781 233.644C186.516 234.104 186.361 234.62 186.33 235.15C186.33 236.15 187.02 236.52 187.86 236.04C188.307 235.749 188.678 235.356 188.944 234.894C189.21 234.431 189.363 233.913 189.39 233.38C189.39 232.41 188.71 232 187.86 232.5Z" fill="white"/>
<path d="M187.86 255.05C187.415 255.341 187.045 255.732 186.779 256.193C186.513 256.653 186.359 257.169 186.33 257.7C186.33 258.7 187.02 259.07 187.86 258.58C188.307 258.292 188.679 257.901 188.945 257.44C189.211 256.979 189.364 256.462 189.39 255.93C189.39 255 188.71 254.56 187.86 255.05Z" fill="white"/>
<path d="M362 146.84C357.14 141.95 355.41 143.84 354.79 149.22C354.56 151.472 354.015 153.68 353.17 155.78C353.019 154.663 352.713 153.572 352.26 152.54C352.045 151.985 351.63 151.531 351.097 151.268C350.563 151.005 349.95 150.952 349.38 151.12C348.9 151.32 349.49 152.46 349.38 154.54C349.29 157.2 348.43 158.67 349.05 161.54C349.269 162.6 349.099 163.705 348.57 164.65C345.95 169.5 337.57 178.48 331.7 184.94L309.27 164.68C301.61 157.79 299.12 154.68 291.72 155.19C294.032 156.045 296.165 157.324 298.01 158.96C301.44 161.86 300.63 178.46 300.63 178.46C300.63 178.46 326.08 196.72 328.7 198.46C329.09 198.72 329.48 198.95 329.87 199.16C331.122 199.808 332.555 200.016 333.94 199.749C335.324 199.482 336.578 198.757 337.5 197.69C342.93 191.48 350.85 179.26 355.43 172.9C357.503 169.824 359.351 166.602 360.96 163.26C365.5 154.24 365 149.91 362 146.84Z" fill="#FFA8A7"/>
<path d="M305.31 153.42H281.67C277.18 153.42 272.874 151.636 269.699 148.461C266.524 145.286 264.74 140.98 264.74 136.49V128.78C264.748 123.266 266.944 117.981 270.846 114.084C274.748 110.188 280.036 108 285.55 108C290.791 108 295.817 110.082 299.523 113.788C303.228 117.493 305.31 122.519 305.31 127.76V153.42Z" fill="#263238"/>
<path d="M262.46 356.48C262 359.062 261.752 361.677 261.72 364.3C261.63 369.05 260.72 370.73 260.64 374.63C260.51 379.08 261.27 380.74 263.08 383.24C264.89 385.74 269.63 388.01 271.63 383.79C273.63 379.57 273.38 376.79 272.73 372.42C272.08 368.05 271.99 365.42 271.6 361.97C271.27 358.97 270.86 356.64 270.86 356.64L262.46 356.48Z" fill="#263238"/>
<path d="M275.93 319.17L260.3 318.88C260.53 329.32 262.19 346.69 262.46 356.48C262.51 358.33 262.46 370.81 263.11 374.6C264.11 380.3 270.92 379.53 271.28 376.12C271.64 372.71 270.84 358.12 270.86 356.64C270.8 350.36 273.75 333.97 275.29 322.69C275.36 322.14 275.86 319.71 275.93 319.17Z" fill="#FFA8A7"/>
<path d="M298.91 348.36C298.91 348.36 298.1 348.41 297.97 349.07C297.84 349.73 297.79 351.07 297.46 352.37C296.932 354.388 296.743 356.48 296.9 358.56C297.17 360.02 300.5 362.19 302.78 362.56C305.06 362.93 308.26 365.19 310.04 366.87C312.899 369.245 316.441 370.646 320.15 370.87C323.95 370.87 326.6 369.6 327.85 367.57C329.1 365.54 326.71 365.29 322.37 362.47C321.37 361.83 320.26 361.11 319 360.28C312.12 355.79 309.6 353.39 307.66 348.89L298.91 348.36Z" fill="#263238"/>
<path d="M307.71 345.92C307.6 342.69 309.25 318.92 309.25 318.92L295.81 320.44C298.99 339.44 299.24 345.88 298.88 348.64C298.813 348.898 298.786 349.164 298.8 349.43C298.8 353.12 302.97 355.11 306.22 357.57C307.5 358.57 310.79 361.57 314.65 362.84C317.15 363.69 321.77 364.02 322.36 362.5C318.41 359.5 313.04 355.5 309.9 352.1C308.4 350.41 307.83 349.15 307.71 345.92Z" fill="#FFA8A7"/>
<path d="M263.92 211.25C256.59 227.25 264.19 283.71 264.19 283.71C263.97 286.31 261 291.43 259.89 302.87C258.58 316.39 262.3 352.59 262.3 352.59C262.3 352.59 265.88 355.26 271.06 352.77C271.06 352.77 280.52 299.59 282.22 286.15C283.7 274.41 286.54 248.61 286.54 248.61L294.61 286.08C293.431 289.861 292.575 293.735 292.05 297.66C291.29 305.57 298.99 345.26 298.99 345.26C298.99 345.26 302.59 347.16 307.71 345.09C307.71 345.09 311.12 293.81 311.84 284.29C313.04 268.29 308.84 218.37 305.84 208.9L263.92 211.25Z" fill="#6C63FF"/>
<path opacity="0.1" d="M286.54 248.61L288.92 233.73C288.92 233.73 299 231.65 303.57 227.35C303.57 227.35 298.77 233.35 291.65 235.27L289 246.72L293.67 281.42L286.54 248.61Z" fill="black"/>
<path d="M276.86 155.58C267.46 156.23 266.8 160.77 264.45 165.74C262.716 169.565 262.554 173.918 264 177.86L270.56 196.86C270.56 196.86 267.49 204.28 263.92 211.29C280.37 220.47 300.92 215.64 305.85 208.94C306.06 207.52 304.79 196.41 304.01 189.16C306.91 181.89 307.67 177.28 306.45 172.48C304.18 163.56 295.37 154.88 291.45 155.19L276.86 155.58Z" fill="#37474F"/>
<path d="M297.36 118.25C300.46 119.95 303.19 124.66 302.91 136.38C302.68 146.31 299.46 148.77 297.85 149.47C296.24 150.17 293.11 149.75 290.08 149.25V155.25C290.08 155.25 294.27 160.12 294.01 162.85C293.75 165.58 287.96 166.23 284.01 163.56C281.463 161.733 279.279 159.447 277.57 156.82V142.37C277.57 142.37 275.52 145.1 272.18 142.88C268.84 140.66 268.7 135.15 270.65 133.18C272.6 131.21 276.79 131.83 277.57 134.56C277.57 134.56 277.76 132.56 278.85 132.56C282.164 132.309 285.396 131.405 288.36 129.9C295.75 125.81 296.35 122.31 297.36 118.25Z" fill="#FFA8A7"/>
<path d="M300.43 129.86L297.66 128.53C297.738 128.346 297.852 128.179 297.996 128.04C298.14 127.902 298.311 127.794 298.498 127.722C298.685 127.651 298.884 127.619 299.084 127.627C299.284 127.635 299.48 127.684 299.66 127.77C300.031 127.954 300.318 128.273 300.461 128.662C300.605 129.05 300.593 129.479 300.43 129.86Z" fill="#263238"/>
<path d="M288.39 128.27L285.79 129.91C285.674 129.747 285.592 129.561 285.55 129.365C285.508 129.169 285.507 128.966 285.546 128.769C285.585 128.572 285.665 128.386 285.779 128.221C285.893 128.056 286.04 127.916 286.21 127.81C286.563 127.593 286.986 127.52 287.392 127.606C287.797 127.691 288.154 127.929 288.39 128.27Z" fill="#263238"/>
<path d="M277.49 131.82L277.66 137.9C278.456 137.9 279.219 137.584 279.782 137.021C280.344 136.459 280.66 135.695 280.66 134.9C280.629 134.077 280.283 133.298 279.692 132.725C279.102 132.151 278.313 131.827 277.49 131.82Z" fill="#263238"/>
<path d="M265.88 111.67L271 115C271.23 114.675 271.394 114.308 271.481 113.92C271.568 113.531 271.576 113.13 271.507 112.738C271.437 112.346 271.29 111.972 271.074 111.638C270.858 111.303 270.578 111.015 270.25 110.79C269.55 110.339 268.702 110.179 267.886 110.344C267.071 110.508 266.351 110.984 265.88 111.67Z" fill="#263238"/>
<path d="M271.66 107.5L271.18 113.56C271.575 113.613 271.978 113.585 272.362 113.477C272.747 113.369 273.105 113.184 273.416 112.934C273.726 112.683 273.983 112.371 274.169 112.018C274.355 111.665 274.468 111.278 274.5 110.88C274.553 110.059 274.288 109.249 273.759 108.619C273.23 107.99 272.478 107.588 271.66 107.5Z" fill="#263238"/>
<path d="M289.64 133.5C289.641 133.745 289.571 133.984 289.438 134.189C289.304 134.395 289.114 134.556 288.89 134.654C288.666 134.752 288.418 134.782 288.177 134.74C287.936 134.698 287.712 134.587 287.534 134.419C287.356 134.252 287.23 134.036 287.174 133.798C287.117 133.56 287.131 133.311 287.215 133.081C287.299 132.851 287.448 132.651 287.644 132.505C287.841 132.359 288.075 132.274 288.32 132.26C288.658 132.252 288.987 132.378 289.234 132.61C289.481 132.842 289.627 133.162 289.64 133.5Z" fill="#263238"/>
<path d="M291.08 142.3L293.98 143.23C293.924 143.42 293.831 143.597 293.705 143.751C293.58 143.905 293.425 144.032 293.25 144.125C293.075 144.218 292.883 144.275 292.686 144.293C292.488 144.311 292.289 144.29 292.1 144.23C291.719 144.095 291.402 143.822 291.213 143.464C291.024 143.106 290.976 142.691 291.08 142.3Z" fill="#F28F8F"/>
<path d="M299.85 133C299.862 133.166 299.841 133.333 299.788 133.492C299.735 133.65 299.652 133.796 299.542 133.921C299.432 134.047 299.298 134.15 299.149 134.223C298.999 134.297 298.836 134.34 298.67 134.35C298.411 134.374 298.151 134.319 297.924 134.194C297.696 134.069 297.511 133.878 297.393 133.646C297.275 133.415 297.229 133.154 297.261 132.896C297.293 132.638 297.401 132.395 297.572 132.2C297.743 132.004 297.969 131.864 298.22 131.798C298.471 131.732 298.737 131.743 298.982 131.829C299.227 131.915 299.441 132.073 299.595 132.281C299.75 132.49 299.839 132.74 299.85 133Z" fill="#263238"/>
<path d="M293.2 132.26L293.39 139.78L297.35 138.56L293.2 132.26Z" fill="#F28F8F"/>
<path d="M290.08 149.25C286.89 148.83 280.31 146.94 279.29 144.34C279.7 145.655 280.502 146.814 281.59 147.66C283.59 149.34 290.08 151.24 290.08 151.24V149.25Z" fill="#F28F8F"/>
<path d="M281.07 213C279.782 212.705 278.566 212.155 277.494 211.383C276.421 210.612 275.514 209.634 274.824 208.507C274.135 207.38 273.678 206.126 273.48 204.82C273.281 203.514 273.346 202.181 273.67 200.9C273.711 200.722 273.768 200.548 273.84 200.38C274.068 199.692 274.52 199.101 275.123 198.7C275.727 198.3 276.447 198.113 277.17 198.17C276.113 197.472 275.205 196.57 274.499 195.518C273.794 194.465 273.304 193.283 273.06 192.04L271.06 180.16C270.819 178.226 270.989 176.263 271.56 174.4L265 166.77L263.78 167.62C262.783 170.976 262.878 174.561 264.05 177.86L270.61 196.86C270.61 196.86 267.54 204.28 263.97 211.29C276.1 218.05 290.43 217.21 299.12 213.61C293.119 214.559 286.993 214.352 281.07 213Z" fill="#263238"/>
<path d="M249 195.22C252.21 182.13 262 156.22 272.36 156.37C275.36 159.99 274.55 170.92 269.76 177.56C269.76 177.56 259.09 200.07 257.39 208.07C255.89 215.07 254.2 223.95 254.31 229.99C254.341 231.061 254.761 232.085 255.49 232.87C257.44 234.98 257.49 236.68 258.71 239.02C259.71 240.84 260.78 241.53 260.47 241.94C260.065 242.376 259.511 242.643 258.917 242.687C258.324 242.732 257.736 242.551 257.27 242.18C256.36 241.515 255.542 240.732 254.84 239.85C255.177 242.086 255.827 244.264 256.77 246.32C258.96 251.26 258.42 253.78 251.77 252.02C247.59 250.92 244.97 247.44 244.34 237.4C244.039 233.704 244.002 229.991 244.23 226.29C245.11 215.837 246.704 205.456 249 195.22Z" fill="#FFA8A7"/>
</svg>
