<svg width="500" height="500" viewBox="0 0 500 500" fill="none" xmlns="http://www.w3.org/2000/svg">
<path d="M500 382.4H0V382.65H500V382.4Z" fill="#EBEBEB"/>
<path d="M449.9 398.49H416.78V398.74H449.9V398.49Z" fill="#EBEBEB"/>
<path d="M374.93 395.11H316.95V395.36H374.93V395.11Z" fill="#EBEBEB"/>
<path d="M415.78 389.21H361.67V389.46H415.78V389.21Z" fill="#EBEBEB"/>
<path d="M67.37 390.89H52.46V391.14H67.37V390.89Z" fill="#EBEBEB"/>
<path d="M140.67 390.89H76.2695V391.14H140.67V390.89Z" fill="#EBEBEB"/>
<path d="M225.15 395.11H182V395.36H225.15V395.11Z" fill="#EBEBEB"/>
<path d="M237 337.8H43.91C42.3973 337.797 40.9475 337.195 39.8788 336.124C38.8102 335.054 38.21 333.603 38.21 332.09V60.66C38.2231 59.156 38.8292 57.718 39.8964 56.6582C40.9637 55.5985 42.4059 55.0026 43.91 55H237C238.514 55 239.967 55.6016 241.038 56.6724C242.108 57.7433 242.71 59.1956 242.71 60.71V332.09C242.71 333.604 242.108 335.057 241.038 336.128C239.967 337.198 238.514 337.8 237 337.8ZM43.91 55.2C42.4636 55.2026 41.0774 55.7791 40.0556 56.8027C39.0338 57.8264 38.46 59.2136 38.46 60.66V332.09C38.46 333.536 39.0338 334.924 40.0556 335.947C41.0774 336.971 42.4636 337.547 43.91 337.55H237C238.447 337.547 239.834 336.971 240.858 335.948C241.881 334.924 242.457 333.537 242.46 332.09V60.66C242.457 59.2127 241.881 57.8255 240.858 56.8021C239.834 55.7787 238.447 55.2026 237 55.2H43.91Z" fill="#EBEBEB"/>
<path d="M453.31 337.8H260.21C258.696 337.797 257.246 337.195 256.175 336.125C255.105 335.054 254.503 333.604 254.5 332.09V60.66C254.516 59.1551 255.124 57.7171 256.193 56.6576C257.262 55.5981 258.705 55.0025 260.21 55H453.31C454.812 55.0052 456.252 55.6022 457.317 56.6617C458.382 57.7212 458.987 59.1578 459 60.66V332.09C459 333.601 458.401 335.05 457.335 336.121C456.268 337.191 454.821 337.795 453.31 337.8ZM260.21 55.2C258.763 55.2026 257.375 55.7787 256.352 56.8021C255.329 57.8255 254.753 59.2127 254.75 60.66V332.09C254.753 333.537 255.329 334.924 256.352 335.948C257.375 336.971 258.763 337.547 260.21 337.55H453.31C454.757 337.547 456.145 336.971 457.168 335.948C458.191 334.924 458.767 333.537 458.77 332.09V60.66C458.767 59.2127 458.191 57.8255 457.168 56.8021C456.145 55.7787 454.757 55.2026 453.31 55.2H260.21Z" fill="#EBEBEB"/>
<path d="M223.05 72.8398H64.6602V163.29H223.05V72.8398Z" fill="#FAFAFA"/>
<path d="M214.03 163.29L173.75 72.8398H143.51L183.8 163.29H214.03Z" fill="white"/>
<path d="M132.74 163.29L92.4499 72.8398H81.4199L121.71 163.29H132.74Z" fill="white"/>
<path d="M57.1004 68.9302H230.6C230.787 68.9328 230.965 69.0088 231.096 69.1416C231.227 69.2745 231.3 69.4536 231.3 69.6402C231.298 69.825 231.223 70.0016 231.093 70.1323C230.962 70.263 230.785 70.3376 230.6 70.3402H57.1004C56.9155 70.3376 56.739 70.263 56.6083 70.1323C56.4776 70.0016 56.403 69.825 56.4004 69.6402C56.4004 69.4536 56.4738 69.2745 56.6048 69.1416C56.7358 69.0088 56.9138 68.9328 57.1004 68.9302Z" fill="#E0E0E0"/>
<path d="M144.79 72.6001H142.91V163.54H144.79V72.6001Z" fill="#F0F0F0"/>
<path d="M142.91 72.6001H141.97V163.54H142.91V72.6001Z" fill="#E0E0E0"/>
<path d="M63.5596 117.13V119.01L224.14 119.01V117.13L63.5596 117.13Z" fill="#F0F0F0"/>
<path d="M63.5596 162.51V71.75H224.14V162.51V164.38H63.5596V162.51ZM222.26 162.51V73.62H65.4396V162.51H222.26Z" fill="#F0F0F0"/>
<path d="M63.5601 71.75H62.6201V164.39H63.5601V71.75Z" fill="#E0E0E0"/>
<path opacity="0.5" d="M88.42 65.75V190.81H55.46L61.51 65.75H88.42Z" fill="#EBEBEB"/>
<path opacity="0.5" d="M198.34 65.75V190.81H231.3L225.26 65.75H198.34Z" fill="#EBEBEB"/>
<path d="M436.28 72.8398H277.89V163.29H436.28V72.8398Z" fill="#FAFAFA"/>
<path d="M427.27 163.29L386.98 72.8398H356.75L397.04 163.29H427.27Z" fill="white"/>
<path d="M345.97 163.29L305.69 72.8398H294.66L334.94 163.29H345.97Z" fill="white"/>
<path d="M270.34 68.9302H443.83C444.018 68.9302 444.199 69.005 444.332 69.1381C444.465 69.2713 444.54 69.4519 444.54 69.6402C444.537 69.8267 444.461 70.0048 444.328 70.1358C444.195 70.2668 444.016 70.3402 443.83 70.3402H270.34C270.154 70.3402 269.976 70.2664 269.845 70.1351C269.713 70.0039 269.64 69.8258 269.64 69.6402C269.638 69.5474 269.656 69.4553 269.69 69.3692C269.725 69.2831 269.776 69.2048 269.841 69.1387C269.906 69.0727 269.984 69.0202 270.069 68.9844C270.155 68.9486 270.247 68.9302 270.34 68.9302Z" fill="#E0E0E0"/>
<path d="M358.03 72.6001H356.15V163.54H358.03V72.6001Z" fill="#F0F0F0"/>
<path d="M356.15 72.6001H355.21V163.54H356.15V72.6001Z" fill="#E0E0E0"/>
<path d="M276.8 117.12V119L437.38 119V117.12L276.8 117.12Z" fill="#F0F0F0"/>
<path d="M276.8 162.51V71.75H437.38V162.51V164.38H276.8V162.51ZM435.5 162.51V73.62H278.67V162.51H435.5Z" fill="#F0F0F0"/>
<path d="M276.8 71.75H275.86V164.39H276.8V71.75Z" fill="#E0E0E0"/>
<path opacity="0.5" d="M301.66 65.75V190.81H268.7L274.74 65.75H301.66Z" fill="#EBEBEB"/>
<path opacity="0.5" d="M411.58 65.75V190.81H444.54L438.49 65.75H411.58Z" fill="#EBEBEB"/>
<path d="M234.94 250.35L448.02 250.35V237.75L234.94 237.75V250.35Z" fill="#EBEBEB"/>
<path d="M234.94 250.35H289.91V237.75H234.94V250.35Z" fill="#E0E0E0"/>
<path d="M429.34 382.39H448.02V250.34H429.34V382.39Z" fill="#EBEBEB"/>
<path d="M234.94 382.39H253.62L253.62 250.34H234.94L234.94 382.39Z" fill="#E0E0E0"/>
<path d="M393.05 382.39H411.73V250.34H393.05V382.39Z" fill="#E0E0E0"/>
<path d="M234.94 299.82H448.02V287.22H234.94V299.82Z" fill="#EBEBEB"/>
<path d="M234.94 299.82H289.91V287.22H234.94V299.82Z" fill="#E0E0E0"/>
<path d="M234.94 349.29H448.02V336.69H234.94V349.29Z" fill="#EBEBEB"/>
<path d="M234.94 349.29H289.91V336.69H234.94V349.29Z" fill="#E0E0E0"/>
<path d="M271.23 382.39H289.91V250.34H271.23V382.39Z" fill="#E0E0E0"/>
<path d="M73.6303 247.48H56.7803V377.86H73.6303V247.48Z" fill="#F0F0F0"/>
<path d="M190.09 377.86H59.1201V382.4H190.09V377.86Z" fill="#E6E6E6"/>
<path d="M73.6399 377.86H192.42L192.42 247.48L73.6399 247.48L73.6399 377.86Z" fill="#FAFAFA"/>
<path d="M91.6303 327.82H174.41C176.824 327.82 178.78 325.863 178.78 323.45V300.86C178.78 298.446 176.824 296.49 174.41 296.49H91.6303C89.2168 296.49 87.2603 298.446 87.2603 300.86V323.45C87.2603 325.863 89.2168 327.82 91.6303 327.82Z" fill="white"/>
<path d="M91.6303 368.15H174.41C176.824 368.15 178.78 366.193 178.78 363.78V341.19C178.78 338.776 176.824 336.82 174.41 336.82H91.6303C89.2168 336.82 87.2603 338.776 87.2603 341.19V363.78C87.2603 366.193 89.2168 368.15 91.6303 368.15Z" fill="white"/>
<path d="M139.67 295.14H126.39C125.026 295.14 123.92 296.246 123.92 297.61V299.43C123.92 300.794 125.026 301.9 126.39 301.9H139.67C141.034 301.9 142.14 300.794 142.14 299.43V297.61C142.14 296.246 141.034 295.14 139.67 295.14Z" fill="#FAFAFA"/>
<path d="M91.6303 287.49H174.41C176.824 287.49 178.78 285.534 178.78 283.12V260.53C178.78 258.117 176.824 256.16 174.41 256.16H91.6303C89.2168 256.16 87.2603 258.117 87.2603 260.53V283.12C87.2603 285.534 89.2168 287.49 91.6303 287.49Z" fill="white"/>
<path d="M139.67 254.81H126.39C125.026 254.81 123.92 255.916 123.92 257.28V259.1C123.92 260.464 125.026 261.57 126.39 261.57H139.67C141.034 261.57 142.14 260.464 142.14 259.1V257.28C142.14 255.916 141.034 254.81 139.67 254.81Z" fill="#FAFAFA"/>
<path d="M139.67 335.46H126.39C125.026 335.46 123.92 336.566 123.92 337.93V339.75C123.92 341.114 125.026 342.22 126.39 342.22H139.67C141.034 342.22 142.14 341.114 142.14 339.75V337.93C142.14 336.566 141.034 335.46 139.67 335.46Z" fill="#FAFAFA"/>
<path d="M195.49 243.26H73.6299V247.48H195.49V243.26Z" fill="#F0F0F0"/>
<path d="M53.4699 247.48H73.6299V243.26H53.4699V247.48Z" fill="#E6E6E6"/>
<path d="M73.9004 201.45H146.49L152.34 241.07H79.7504L73.9004 201.45Z" fill="#E6E6E6"/>
<path d="M79.75 241.07L79.78 243.26H152.37L152.34 241.07H79.75Z" fill="#E6E6E6"/>
<path d="M76.1396 201.45H148.73L154.57 241.07H81.9797L76.1396 201.45Z" fill="#F0F0F0"/>
<path d="M83.7299 239.26L78.4199 203.26H146.98L152.29 239.26H83.7299Z" fill="white"/>
<path d="M100.89 241.07L100.93 243.26H180.87L180.83 241.07H100.89Z" fill="#F0F0F0"/>
<path d="M250 427.56C357.083 427.56 443.89 422.492 443.89 416.24C443.89 409.988 357.083 404.92 250 404.92C142.918 404.92 56.1104 409.988 56.1104 416.24C56.1104 422.492 142.918 427.56 250 427.56Z" fill="#F5F5F5"/>
<path d="M115 99.3698C115.78 92.8698 126 87.7598 134.87 90.8298C145.05 94.3598 143.44 103.69 150.17 104.06C156.9 104.43 160.27 116.35 154.38 121.87C148.49 127.39 159.31 129.87 159.67 137.61C160.03 145.35 160.06 151.36 166.4 157.09C174.4 164.3 162.07 187.56 141.82 176.93C123.67 167.4 100.95 181.11 96.8899 167.88C93.3799 156.46 110.6 144.07 107 138.54C103.4 133.01 105.79 127.81 109.88 121.12C114.91 112.92 102.56 100.69 115 99.3698Z" fill="#263238"/>
<path d="M155.38 153.26C157.85 158.26 160.38 163.39 163.03 168.34C164.37 170.8 165.73 173.25 167.12 175.62C168.423 177.883 169.883 180.051 171.49 182.11L171.82 182.5C171.878 182.575 171.949 182.639 172.03 182.69C172.29 182.868 172.577 183.003 172.88 183.09C173.855 183.364 174.868 183.482 175.88 183.44C178.445 183.333 180.99 182.944 183.47 182.28C186.1 181.64 188.74 180.8 191.38 179.88C194.02 178.96 196.67 177.94 199.21 176.88L201.53 181.09C196.554 184.39 191.228 187.13 185.65 189.26C182.673 190.405 179.566 191.177 176.4 191.56C174.546 191.775 172.671 191.701 170.84 191.34C169.739 191.102 168.679 190.708 167.69 190.17C167.148 189.883 166.632 189.549 166.15 189.17C165.901 188.97 165.664 188.756 165.44 188.53L165 188C162.89 185.681 160.983 183.185 159.3 180.54C157.63 178.05 156.12 175.54 154.67 172.97C151.75 167.86 149.09 162.73 146.67 157.38L155.38 153.26Z" fill="#CE7A63"/>
<path d="M149.51 144C153.51 143.86 160.7 158.56 160.7 158.56L150.18 171.33C150.18 171.33 137.9 155.94 139.59 151C141.34 145.77 143.62 144.21 149.51 144Z" fill="#6C63FF"/>
<path opacity="0.2" d="M150.18 147.56L155.65 164.71L150.72 170.68L150.18 147.56Z" fill="black"/>
<path d="M206.12 173.56L196.45 178.19L196.27 181.6C199.06 184.39 204.91 182.6 204.91 182.6L212.07 181.67L212.99 177.67C213.111 177.169 213.12 176.648 213.017 176.144C212.914 175.639 212.702 175.163 212.394 174.75C212.087 174.337 211.693 173.996 211.239 173.753C210.785 173.509 210.284 173.368 209.77 173.34L207.77 173.24C207.202 173.213 206.636 173.323 206.12 173.56Z" fill="#CE7A63"/>
<path d="M129.97 408.17H139.47L140.34 386.16H130.83L129.97 408.17Z" fill="#CE7A63"/>
<path d="M140.36 407.07H129.68C129.591 407.066 129.503 407.08 129.419 407.11C129.336 407.141 129.259 407.188 129.194 407.248C129.129 407.309 129.076 407.382 129.04 407.463C129.003 407.544 128.983 407.631 128.98 407.72L128.62 416.17C128.628 416.618 128.81 417.044 129.127 417.36C129.445 417.675 129.873 417.855 130.32 417.86C134.03 417.8 135.8 417.58 140.5 417.58C143.39 417.58 150.04 417.88 154.03 417.88C158.02 417.88 157.83 413.93 156.14 413.58C148.53 411.97 144.73 409.76 142 407.66C141.534 407.287 140.957 407.08 140.36 407.07Z" fill="#263238"/>
<path d="M140.34 386.17L139.89 397.51H130.38L130.83 386.17H140.34Z" fill="black"/>
<path d="M153.32 148.72C153.53 154.72 152.49 168.77 146.17 201.45L107.58 200.3C108.7 184.61 109 174.93 102.46 142.47C107.895 141.513 113.393 140.955 118.91 140.8C124.755 140.556 130.61 140.73 136.43 141.32C140.9 141.86 145.71 142.79 148.87 143.45C150.094 143.704 151.198 144.361 152.005 145.317C152.811 146.272 153.274 147.47 153.32 148.72Z" fill="#6C63FF"/>
<path d="M121.23 121.12C122.17 126.79 122.96 137.12 118.91 140.8C118.91 140.8 122.66 147.8 132.29 150.35C141.18 145.84 136.43 141.35 136.43 141.35C130.19 139.66 130.49 135 131.71 130.66L121.23 121.12Z" fill="#CE7A63"/>
<path d="M132.29 150.35L131.14 148.1L124.96 149.5L132.29 150.35Z" fill="#E0E0E0"/>
<path d="M131.14 148.1C129.14 147.2 119.97 141.21 119.61 139.35C118.042 139.501 116.498 139.837 115.01 140.35C115.01 140.35 116.18 147.11 123.39 154.89C125.25 150.67 127.72 148.82 131.14 148.1Z" fill="white"/>
<path d="M132.29 150.35L132.81 148.1L136.6 148.37L132.29 150.35Z" fill="#E0E0E0"/>
<path d="M132.81 148.1C135.87 146.1 135.12 141.81 134.81 139.95C136.369 140.167 137.91 140.502 139.42 140.95C140.873 142.965 141.694 145.366 141.778 147.849C141.861 150.331 141.204 152.783 139.89 154.89C138.41 150.89 135.88 149.45 132.81 148.1Z" fill="white"/>
<path opacity="0.2" d="M125.5 125L131.71 130.62C131.41 131.633 131.199 132.67 131.08 133.72C128.68 133.3 125.46 130.56 125.28 128.04C125.17 127.022 125.244 125.992 125.5 125Z" fill="black"/>
<path d="M118.24 109.08C118.65 118.5 118.63 122.5 123.3 127.42C130.3 134.81 141.81 132.23 144.22 122.88C146.39 114.45 145.34 100.45 136.22 96.5501C134.206 95.6713 131.999 95.3236 129.812 95.5401C127.625 95.7566 125.529 96.5301 123.726 97.7868C121.923 99.0435 120.472 100.741 119.511 102.718C118.551 104.696 118.113 106.886 118.24 109.08Z" fill="#CE7A63"/>
<path d="M116.93 98.8198C120.42 100.57 125.23 100.27 126.13 102.37C127.03 104.47 124.5 117 119.27 117.1C114.46 110.61 113.74 101.83 116.93 98.8198Z" fill="#263238"/>
<path d="M117.41 100.39C125.11 105.26 150.49 109.81 142.2 98.8202C135.9 90.4802 119.33 94.6802 117.41 100.39Z" fill="#263238"/>
<path d="M146.26 201.45C146.26 201.45 149.99 271.68 150.18 300.54C150.38 330.54 141.93 395.31 141.93 395.31H129.07C129.07 395.31 131.52 329.86 129.54 300.24C127.38 267.95 119.87 200.61 119.87 200.61L146.26 201.45Z" fill="#263238"/>
<path d="M128 395.78H143.09L143.71 390.96L126.76 390.38L128 395.78Z" fill="#6C63FF"/>
<path opacity="0.2" d="M122.59 225.83C123.98 224.1 125.8 224.99 128.18 229.93C136.3 246.77 132.18 273.64 128.7 289.12C127.14 269.85 124.56 244.46 122.59 225.83Z" fill="black"/>
<path d="M133.85 112.65C133.85 113.42 134.23 114.05 134.73 114.06C135.23 114.07 135.65 113.45 135.66 112.69C135.67 111.93 135.28 111.29 134.78 111.28C134.28 111.27 133.86 111.89 133.85 112.65Z" fill="#263238"/>
<path d="M142.51 112.58C142.51 113.35 142.89 113.98 143.39 113.99C143.89 114 144.31 113.38 144.32 112.62C144.33 111.86 143.94 111.22 143.44 111.21C142.94 111.2 142.52 111.82 142.51 112.58Z" fill="#263238"/>
<path d="M143.21 111.25L145.06 110.75C145.06 110.75 144.1 112.17 143.21 111.25Z" fill="#263238"/>
<path d="M139.18 113.32C139.831 115.081 140.723 116.743 141.83 118.26C141.434 118.534 140.982 118.718 140.507 118.799C140.032 118.88 139.545 118.856 139.08 118.73L139.18 113.32Z" fill="#BA4D3C"/>
<path d="M134.85 121.66C135.224 121.72 135.601 121.754 135.98 121.76C136.013 121.767 136.048 121.767 136.081 121.758C136.115 121.75 136.146 121.735 136.172 121.714C136.199 121.692 136.22 121.665 136.235 121.634C136.25 121.603 136.258 121.569 136.258 121.535C136.258 121.501 136.25 121.467 136.235 121.436C136.22 121.405 136.199 121.378 136.172 121.356C136.146 121.335 136.115 121.319 136.081 121.311C136.048 121.303 136.013 121.303 135.98 121.31C135.025 121.32 134.081 121.102 133.227 120.675C132.373 120.247 131.633 119.621 131.07 118.85C131.037 118.801 130.987 118.766 130.929 118.753C130.871 118.74 130.811 118.749 130.76 118.78C130.734 118.795 130.712 118.815 130.695 118.84C130.678 118.864 130.665 118.891 130.659 118.92C130.652 118.949 130.652 118.979 130.657 119.008C130.662 119.037 130.674 119.065 130.69 119.09C131.178 119.773 131.797 120.352 132.511 120.793C133.226 121.235 134.021 121.529 134.85 121.66Z" fill="#263238"/>
<path d="M115.54 117.67C116.149 119.388 117.415 120.794 119.06 121.58C121.25 122.58 122.74 120.74 122.46 118.46C122.21 116.46 120.77 113.46 118.46 113.35C117.94 113.335 117.425 113.452 116.963 113.69C116.5 113.927 116.105 114.277 115.814 114.708C115.523 115.139 115.345 115.636 115.297 116.154C115.249 116.672 115.333 117.193 115.54 117.67Z" fill="#CE7A63"/>
<path d="M130.36 110.12C130.453 110.14 130.55 110.129 130.635 110.087C130.72 110.045 130.789 109.976 130.83 109.89C131.83 108.05 134.46 107.68 134.49 107.68C134.549 107.672 134.606 107.653 134.658 107.624C134.71 107.594 134.755 107.554 134.792 107.507C134.828 107.459 134.854 107.405 134.87 107.347C134.885 107.289 134.888 107.229 134.88 107.17C134.862 107.052 134.799 106.946 134.703 106.874C134.608 106.803 134.488 106.773 134.37 106.79C134.24 106.79 131.22 107.22 130.04 109.47C130.012 109.522 129.995 109.58 129.989 109.639C129.984 109.698 129.99 109.758 130.008 109.814C130.025 109.871 130.054 109.924 130.092 109.969C130.13 110.015 130.177 110.052 130.23 110.08C130.269 110.104 130.314 110.117 130.36 110.12Z" fill="#263238"/>
<path d="M145.14 108.14C145.217 108.155 145.296 108.149 145.37 108.122C145.444 108.096 145.509 108.05 145.56 107.99C145.599 107.945 145.629 107.893 145.647 107.836C145.666 107.779 145.673 107.719 145.669 107.66C145.664 107.6 145.648 107.542 145.62 107.489C145.593 107.436 145.555 107.389 145.51 107.35C144.972 106.874 144.328 106.534 143.632 106.36C142.936 106.186 142.208 106.183 141.51 106.35C141.402 106.39 141.313 106.469 141.262 106.572C141.211 106.675 141.201 106.793 141.234 106.903C141.267 107.013 141.341 107.106 141.441 107.163C141.54 107.22 141.658 107.237 141.77 107.21C142.323 107.093 142.896 107.109 143.442 107.257C143.988 107.405 144.491 107.68 144.91 108.06C144.977 108.107 145.057 108.135 145.14 108.14Z" fill="#263238"/>
<path d="M106.34 157.36C103.6 161.28 100.84 165.47 98.2704 169.62C95.714 173.74 93.3774 177.993 91.2704 182.36L90.8904 183.16L90.7004 183.57C90.7004 183.57 90.6104 183.71 90.6104 184.02C90.6187 184.897 90.7499 185.769 91.0004 186.61C91.6298 188.803 92.4392 190.94 93.4204 193C95.4804 197.32 97.9704 201.7 100.49 205.92L96.6904 208.92C93.0837 205.128 89.8396 201.007 87.0004 196.61C85.4716 194.288 84.1849 191.815 83.1604 189.23C82.5422 187.695 82.1514 186.078 82.0004 184.43C81.9099 183.322 82.008 182.206 82.2904 181.13C82.2904 180.98 82.3804 180.82 82.4304 180.66L82.5804 180.26L82.7604 179.79L83.1204 178.86C84.1204 176.36 85.1804 173.96 86.3404 171.61C87.5004 169.26 88.7004 167 90.0004 164.69C92.5889 160.166 95.437 155.795 98.5304 151.6L106.34 157.36Z" fill="#CE7A63"/>
<path d="M102.46 142.47C98.5498 143.53 93.5098 156.71 93.5098 156.71L108.2 167.88C108.2 167.88 114 156.93 112.52 151.88C111 146.63 106.91 141.26 102.46 142.47Z" fill="#6C63FF"/>
<path d="M144.09 408.73C144.885 408.815 145.685 408.609 146.34 408.15C146.479 408.007 146.579 407.831 146.632 407.639C146.684 407.446 146.687 407.244 146.64 407.05C146.614 406.923 146.561 406.803 146.483 406.699C146.405 406.595 146.305 406.51 146.19 406.45C144.96 405.82 141.37 407.75 140.96 407.97C140.922 407.996 140.892 408.032 140.876 408.076C140.86 408.119 140.858 408.166 140.87 408.21C140.88 408.257 140.905 408.3 140.941 408.332C140.977 408.365 141.022 408.385 141.07 408.39C142.064 408.595 143.075 408.708 144.09 408.73ZM145.59 406.73C145.738 406.722 145.885 406.749 146.02 406.81C146.067 406.831 146.108 406.865 146.138 406.907C146.167 406.949 146.186 406.998 146.19 407.05C146.226 407.175 146.228 407.308 146.197 407.434C146.165 407.561 146.101 407.676 146.01 407.77C145.48 408.29 143.93 408.38 141.78 408.03C142.965 407.386 144.255 406.96 145.59 406.77V406.73Z" fill="#6C63FF"/>
<path d="M141.11 408.4H141.2C142.28 407.89 144.32 405.84 144.03 404.76C143.97 404.5 143.75 404.19 143.12 404.12C142.903 404.096 142.684 404.118 142.477 404.185C142.271 404.253 142.08 404.363 141.92 404.51C140.82 405.51 140.86 408.07 140.86 408.18C140.863 408.22 140.876 408.259 140.897 408.293C140.918 408.328 140.946 408.357 140.98 408.38C141.021 408.395 141.065 408.402 141.11 408.4ZM142.99 404.54H143.12C143.54 404.54 143.58 404.75 143.6 404.8C143.77 405.45 142.41 407.06 141.32 407.8C141.32 407.06 141.52 405.52 142.24 404.87C142.338 404.767 142.456 404.685 142.586 404.628C142.717 404.572 142.857 404.541 143 404.54H142.99Z" fill="#6C63FF"/>
<path d="M90.1201 408.17H99.6301L102.79 386.16H93.2801L90.1201 408.17Z" fill="#CE7A63"/>
<path d="M100 407.07H89.3003C89.1153 407.068 88.9356 407.132 88.7942 407.251C88.6528 407.371 88.5592 407.537 88.5303 407.72L87.2103 416.17C87.1832 416.382 87.2018 416.598 87.265 416.802C87.3281 417.007 87.4343 417.196 87.5764 417.356C87.7185 417.516 87.8932 417.644 88.0888 417.731C88.2844 417.817 88.4963 417.862 88.7103 417.86C92.4303 417.8 94.2303 417.58 98.9303 417.58C101.82 417.58 104.18 417.88 108.17 417.88C112.16 417.88 112.42 413.93 110.76 413.58C103.33 411.97 104.04 409.76 101.56 407.66C101.124 407.289 100.573 407.081 100 407.07Z" fill="#263238"/>
<path d="M101.5 408.73C102.317 408.805 103.135 408.601 103.82 408.15C103.972 408.013 104.09 407.842 104.163 407.651C104.236 407.459 104.262 407.254 104.24 407.05C104.235 406.925 104.197 406.804 104.13 406.699C104.064 406.594 103.97 406.508 103.86 406.45C102.71 405.82 98.8599 407.75 98.4599 407.97C98.4183 407.994 98.3846 408.029 98.3632 408.072C98.3419 408.114 98.3337 408.163 98.3399 408.21C98.3443 408.256 98.3647 408.299 98.3976 408.332C98.4304 408.365 98.4737 408.386 98.5199 408.39C99.5005 408.596 100.498 408.71 101.5 408.73ZM103.22 406.73C103.364 406.72 103.509 406.747 103.64 406.81C103.685 406.832 103.722 406.866 103.749 406.909C103.775 406.951 103.79 407 103.79 407.05C103.806 407.183 103.79 407.318 103.743 407.443C103.696 407.569 103.62 407.681 103.52 407.77C102.94 408.29 101.37 408.38 99.2699 408.03C100.507 407.392 101.842 406.966 103.22 406.77V406.73Z" fill="#6C63FF"/>
<path d="M98.5596 408.4H98.6496C99.7896 407.89 102.06 405.84 101.9 404.76C101.9 404.5 101.68 404.19 101.06 404.12C100.836 404.099 100.61 404.122 100.395 404.189C100.181 404.256 99.9815 404.365 99.8096 404.51C98.5996 405.51 98.3496 408.07 98.3396 408.18C98.3347 408.218 98.3405 408.257 98.3564 408.293C98.3723 408.328 98.3976 408.358 98.4296 408.38C98.4707 408.397 98.5153 408.404 98.5596 408.4ZM100.87 404.54H101C101.41 404.54 101.43 404.75 101.44 404.8C101.54 405.45 99.9996 407.06 98.8296 407.8C98.9359 406.718 99.3723 405.695 100.08 404.87C100.293 404.666 100.574 404.548 100.87 404.54Z" fill="#6C63FF"/>
<path d="M102.79 386.17L101.16 397.51H91.6504L93.2804 386.17H102.79Z" fill="black"/>
<path d="M107.58 200.3C98.3202 215 100.91 269.14 99.4502 298C97.9302 328 90.4502 395.27 90.4502 395.27H103.3C103.3 395.27 115.64 326.85 121.39 297.84C127.74 265.84 135.47 200.26 135.47 200.26L107.58 200.3Z" fill="#263238"/>
<path d="M89.63 395.78H104.71L105.25 390.96L88.29 390.38L89.63 395.78Z" fill="#6C63FF"/>
<path d="M134.56 111.32L136.41 110.82C136.41 110.82 135.44 112.24 134.56 111.32Z" fill="#263238"/>
<path d="M107.07 198L106 201.44C105.86 201.71 106.17 201.99 106.61 202L146.33 203.18C146.68 203.18 146.97 203.03 147 202.81L147.45 199.37C147.45 199.13 147.19 198.92 146.81 198.91L107.73 197.75C107.608 197.729 107.482 197.742 107.366 197.786C107.25 197.83 107.148 197.903 107.07 198Z" fill="#6C63FF"/>
<path d="M112.19 202.54H111.19C110.99 202.54 110.83 202.42 110.85 202.29L111.47 197.82C111.47 197.69 111.68 197.59 111.88 197.59H112.88C113.09 197.59 113.24 197.71 113.23 197.84L112.6 202.32C112.58 202.45 112.4 202.55 112.19 202.54Z" fill="#263238"/>
<path d="M143.36 203.47H142.31C142.1 203.47 141.95 203.35 141.97 203.22L142.59 198.75C142.59 198.62 142.8 198.51 143 198.52H144.05C144.26 198.52 144.41 198.64 144.4 198.77L143.77 203.24C143.75 203.37 143.57 203.48 143.36 203.47Z" fill="#263238"/>
<path d="M127.77 203H126.77C126.56 203 126.4 202.88 126.42 202.75L127.05 198.27C127.05 198.14 127.25 198.04 127.46 198.05H128.46C128.66 198.05 128.82 198.17 128.8 198.3L128.18 202.77C128.17 202.91 128 203 127.77 203Z" fill="#263238"/>
<path d="M97.3797 203.43L107.5 205.17L100.11 211.4C100.21 211.46 94.4997 209.25 93.9297 205.28L97.3797 203.43Z" fill="#CE7A63"/>
<path d="M110.34 213L108.11 214.68C107.613 215.05 107.01 215.25 106.39 215.25C105.771 215.25 105.167 215.05 104.67 214.68L100.11 211.37L107.5 205.14L110.75 208.71C111.025 209.01 111.234 209.363 111.363 209.749C111.492 210.134 111.539 210.542 111.5 210.946C111.461 211.351 111.338 211.743 111.138 212.096C110.939 212.45 110.667 212.758 110.34 213Z" fill="#CE7A63"/>
<path d="M400.62 181.66H156.25C151.334 181.66 147.35 185.645 147.35 190.56V335.56C147.35 340.475 151.334 344.46 156.25 344.46H400.62C405.535 344.46 409.52 340.475 409.52 335.56V190.56C409.52 185.645 405.535 181.66 400.62 181.66Z" fill="white"/>
<path d="M400.62 345H156.24C153.748 344.998 151.358 344.006 149.596 342.244C147.834 340.482 146.842 338.092 146.84 335.6V190.6C146.842 188.108 147.834 185.719 149.596 183.956C151.358 182.194 153.748 181.203 156.24 181.2H400.62C403.113 181.203 405.503 182.194 407.267 183.956C409.031 185.718 410.025 188.107 410.03 190.6V335.6C410.025 338.093 409.031 340.483 407.267 342.245C405.503 344.007 403.113 344.998 400.62 345ZM156.24 182.16C154.016 182.165 151.885 183.051 150.313 184.623C148.741 186.196 147.855 188.327 147.85 190.55V335.55C147.852 337.775 148.737 339.907 150.31 341.48C151.883 343.053 154.015 343.938 156.24 343.94H400.62C402.845 343.94 404.979 343.056 406.552 341.483C408.126 339.909 409.01 337.775 409.01 335.55V190.55C409.007 188.326 408.122 186.193 406.55 184.62C404.977 183.048 402.844 182.163 400.62 182.16H156.24Z" fill="#6C63FF"/>
<path d="M406.32 344.46H150.55C149.544 344.459 148.551 344.675 147.636 345.092C146.721 345.51 145.908 346.12 145.25 346.88L135.81 357.81C134.932 358.825 134.364 360.071 134.174 361.399C133.984 362.728 134.18 364.083 134.738 365.303C135.297 366.523 136.195 367.557 137.324 368.282C138.454 369.007 139.768 369.391 141.11 369.39H415.76C417.102 369.391 418.416 369.007 419.545 368.282C420.675 367.557 421.573 366.523 422.131 365.303C422.69 364.083 422.886 362.728 422.696 361.399C422.506 360.071 421.938 358.825 421.06 357.81L411.61 346.88C410.953 346.121 410.141 345.512 409.228 345.094C408.315 344.677 407.323 344.46 406.32 344.46Z" fill="white"/>
<path d="M415.76 369.89H141.11C139.671 369.89 138.263 369.476 137.053 368.698C135.843 367.921 134.881 366.812 134.283 365.504C133.685 364.195 133.475 362.743 133.678 361.319C133.881 359.894 134.489 358.559 135.43 357.47L144.87 346.55C145.575 345.735 146.447 345.081 147.427 344.633C148.407 344.184 149.472 343.951 150.55 343.95H406.31C407.389 343.95 408.456 344.182 409.438 344.63C410.42 345.079 411.294 345.734 412 346.55L421.44 357.47C422.38 358.559 422.989 359.894 423.192 361.319C423.395 362.743 423.185 364.195 422.587 365.504C421.989 366.812 421.027 367.921 419.817 368.698C418.607 369.476 417.199 369.89 415.76 369.89ZM150.55 345C149.618 344.999 148.696 345.2 147.849 345.588C147.001 345.977 146.248 346.544 145.64 347.25L136.19 358.18C135.374 359.121 134.847 360.277 134.67 361.51C134.494 362.743 134.676 364.001 135.194 365.133C135.713 366.265 136.547 367.225 137.596 367.896C138.645 368.568 139.864 368.923 141.11 368.92H415.76C417.005 368.921 418.223 368.564 419.271 367.892C420.318 367.22 421.15 366.261 421.668 365.129C422.185 363.997 422.366 362.74 422.189 361.508C422.012 360.276 421.485 359.121 420.67 358.18L411.23 347.25C410.62 346.543 409.865 345.976 409.016 345.588C408.166 345.2 407.244 344.999 406.31 345H150.55Z" fill="#6C63FF"/>
<path d="M138.64 362.29C137.998 362.289 137.371 362.486 136.845 362.854C136.319 363.222 135.919 363.743 135.7 364.347C135.482 364.951 135.454 365.608 135.623 366.227C135.791 366.847 136.146 367.4 136.64 367.81C137.888 368.843 139.46 369.403 141.08 369.39H415.75C417.471 369.404 419.136 368.776 420.42 367.63C420.865 367.198 421.17 366.643 421.297 366.036C421.423 365.429 421.366 364.798 421.132 364.225C420.897 363.651 420.497 363.16 419.982 362.815C419.466 362.47 418.86 362.288 418.24 362.29H138.64Z" fill="#6C63FF"/>
<path d="M404.45 335.55V190.55C404.45 188.435 402.735 186.72 400.62 186.72L156.24 186.72C154.125 186.72 152.41 188.435 152.41 190.55V335.55C152.41 337.665 154.125 339.38 156.24 339.38H400.62C402.735 339.38 404.45 337.665 404.45 335.55Z" fill="#6C63FF"/>
<path opacity="0.3" d="M398.69 336.64H158.18C157.384 336.64 156.621 336.324 156.058 335.762C155.496 335.199 155.18 334.436 155.18 333.64V192.49C155.18 191.695 155.496 190.932 156.058 190.369C156.621 189.806 157.384 189.49 158.18 189.49H398.69C399.485 189.49 400.248 189.806 400.811 190.369C401.374 190.932 401.69 191.695 401.69 192.49V333.63C401.691 334.025 401.614 334.416 401.464 334.781C401.314 335.146 401.093 335.478 400.815 335.758C400.536 336.038 400.205 336.26 399.84 336.411C399.475 336.562 399.085 336.64 398.69 336.64ZM158.18 190C157.849 190 157.521 190.065 157.215 190.192C156.91 190.319 156.632 190.504 156.398 190.738C156.164 190.972 155.978 191.25 155.852 191.556C155.725 191.862 155.66 192.189 155.66 192.52V333.63C155.662 334.297 155.929 334.935 156.401 335.406C156.874 335.876 157.513 336.14 158.18 336.14H398.69C399.355 336.138 399.991 335.872 400.462 335.402C400.932 334.932 401.197 334.295 401.2 333.63V192.49C401.2 191.824 400.936 191.184 400.465 190.712C399.995 190.24 399.356 189.973 398.69 189.97L158.18 190Z" fill="white"/>
<path d="M317.28 242.82C317.28 247.82 365.68 247.82 365.68 242.82C365.68 215.07 317.28 215.07 317.28 242.82Z" fill="#6C63FF"/>
<path d="M341.48 247.08C335.895 247.129 330.313 246.815 324.77 246.14C317.57 245.14 316.77 243.77 316.77 242.82C316.77 228.15 329.6 221.47 341.51 221.47C353.43 221.47 366.25 228.15 366.25 242.82C366.22 246.87 345.61 247.08 341.48 247.08ZM317.82 242.82C317.82 244.15 326.05 246 341.48 246C356.91 246 365.14 244.15 365.14 242.82C365.14 228.89 352.88 222.55 341.48 222.55C330.08 222.55 317.82 228.89 317.82 242.82Z" fill="white"/>
<path d="M369.67 180C373.41 187.85 377.8 206 378.48 220.41C378.507 220.941 378.391 221.47 378.146 221.942C377.901 222.414 377.535 222.812 377.085 223.096C376.635 223.38 376.118 223.539 375.587 223.558C375.055 223.576 374.528 223.452 374.06 223.2C372.963 222.595 371.768 222.185 370.53 221.99C369.08 221.77 367.97 219.74 367.94 217.29L367.46 181.29C367.44 179.36 368.93 178.47 369.67 180Z" fill="white"/>
<path d="M375.47 224.1C374.893 224.098 374.327 223.954 373.82 223.68C372.774 223.105 371.637 222.713 370.46 222.52C368.74 222.26 367.46 220.08 367.46 217.33L366.99 181.33C366.913 180.796 367.015 180.252 367.279 179.782C367.543 179.312 367.954 178.942 368.45 178.73C368.813 178.676 369.183 178.751 369.496 178.944C369.809 179.136 370.044 179.432 370.16 179.78C373.87 187.57 378.32 205.78 379.02 220.38C379.038 220.855 378.962 221.33 378.793 221.775C378.625 222.22 378.37 222.626 378.041 222.97C377.713 223.315 377.319 223.589 376.882 223.778C376.445 223.967 375.975 224.066 375.5 224.07L375.47 224.1ZM368.7 179.74H368.65C368.37 179.81 367.96 180.36 367.97 181.33L368.45 217.33C368.45 219.5 369.45 221.33 370.61 221.53C371.905 221.733 373.154 222.163 374.3 222.8C374.69 223.007 375.128 223.107 375.569 223.09C376.011 223.073 376.44 222.94 376.813 222.703C377.186 222.466 377.489 222.135 377.692 221.742C377.896 221.35 377.991 220.911 377.97 220.47C377.28 205.95 372.88 187.95 369.21 180.25C369.15 180.12 369 179.74 368.7 179.74Z" fill="#6C63FF"/>
<path d="M370.37 227.46C370.37 234.62 312.59 234.62 312.59 227.46V147.82C312.487 130.781 316.418 113.959 324.06 98.7299C328.86 89.2999 334.87 81.3599 341.48 81.3599C348.09 81.3599 354.1 89.2999 358.9 98.7299C366.542 113.959 370.473 130.781 370.37 147.82V227.46Z" fill="white"/>
<path d="M341.48 233.34C334.789 233.409 328.102 232.957 321.48 231.99C315.12 230.94 312.03 229.46 312.03 227.46V147.82C311.963 130.699 315.93 113.802 323.61 98.5001C329.61 86.7901 335.61 80.8501 341.48 80.8501C347.35 80.8501 353.39 86.7901 359.35 98.5001C367.013 113.807 370.963 130.703 370.88 147.82V227.46C370.88 233.17 344.49 233.34 341.48 233.34ZM341.48 81.8701C336 81.8701 330.29 87.6201 324.48 98.9601C316.89 114.124 312.978 130.863 313.06 147.82V227.46C313.06 230.19 325.53 232.32 341.45 232.32C357.37 232.32 369.84 230.19 369.84 227.46V147.82C369.925 130.879 366.023 114.155 358.45 99.0001C352.67 87.6201 347 81.8701 341.48 81.8701Z" fill="#6C63FF"/>
<path d="M341.48 119.82C332.16 119.82 323.59 117.28 317.97 112.82L318.6 112.02C323.96 116.25 332.52 118.77 341.48 118.77C350.44 118.77 359 116.25 364.36 112.02L364.99 112.82C359.37 117.28 350.8 119.82 341.48 119.82Z" fill="#6C63FF"/>
<path d="M314.49 180C308.03 188.06 300.49 207 299.63 221.56C299.595 222.08 299.696 222.6 299.924 223.069C300.151 223.538 300.497 223.94 300.927 224.235C301.357 224.53 301.856 224.707 302.376 224.75C302.895 224.793 303.417 224.7 303.89 224.48C306.759 223.129 309.842 222.289 313 222C314.177 221.889 315.273 221.349 316.077 220.482C316.881 219.615 317.338 218.482 317.36 217.3L318.15 181.3C318.15 180.874 318.019 180.458 317.773 180.11C317.528 179.762 317.181 179.499 316.779 179.356C316.378 179.214 315.942 179.199 315.532 179.314C315.122 179.429 314.758 179.669 314.49 180Z" fill="white"/>
<path d="M302.63 225.31C301.938 225.308 301.262 225.099 300.69 224.71C300.177 224.367 299.761 223.896 299.486 223.344C299.211 222.791 299.084 222.176 299.12 221.56C299.96 206.87 307.68 187.71 314.12 179.71C314.456 179.288 314.915 178.981 315.434 178.833C315.952 178.685 316.504 178.704 317.012 178.886C317.519 179.068 317.957 179.405 318.264 179.848C318.57 180.292 318.73 180.821 318.72 181.36L317.92 217.36C317.897 218.666 317.394 219.918 316.506 220.877C315.619 221.836 314.411 222.435 313.11 222.56C309.989 222.832 306.941 223.659 304.11 225C303.647 225.214 303.141 225.32 302.63 225.31ZM314.88 180.31C308.57 188.2 300.96 207.09 300.13 221.59C300.105 222.031 300.196 222.471 300.394 222.866C300.592 223.261 300.891 223.597 301.26 223.84C301.612 224.08 302.02 224.224 302.445 224.257C302.869 224.291 303.295 224.212 303.68 224.03C306.607 222.633 309.76 221.773 312.99 221.49C314.043 221.389 315.021 220.904 315.739 220.128C316.457 219.351 316.863 218.337 316.88 217.28L317.67 181.28C317.685 180.956 317.596 180.636 317.417 180.366C317.237 180.096 316.975 179.891 316.67 179.78C316.361 179.662 316.021 179.647 315.702 179.737C315.383 179.827 315.102 180.017 314.9 180.28L314.88 180.31Z" fill="#6C63FF"/>
<path d="M350.69 181.99C359.957 181.99 367.47 171.236 367.47 157.97C367.47 144.704 359.957 133.95 350.69 133.95C341.423 133.95 333.91 144.704 333.91 157.97C333.91 171.236 341.423 181.99 350.69 181.99Z" fill="#6C63FF"/>
<path d="M352.28 178.07C359.421 178.07 365.21 169.071 365.21 157.97C365.21 146.869 359.421 137.87 352.28 137.87C345.139 137.87 339.35 146.869 339.35 157.97C339.35 169.071 345.139 178.07 352.28 178.07Z" fill="white"/>
<path d="M204 339.93C203.856 339.93 203.718 339.873 203.615 339.772C203.512 339.671 203.453 339.534 203.45 339.39C203.45 338.87 203.45 338.22 203.45 337.49C203.28 331.86 202.93 320.16 210.14 313.49C214.53 309.4 221.07 307.76 229.58 308.62C256.31 311.33 271.2 303.92 282.68 282.21C287.78 272.57 298.84 271.21 308.61 270.05C316.08 269.14 323.13 268.29 326.31 263.88C328.25 261.19 328.67 257.31 327.6 252.03C327.586 251.959 327.585 251.887 327.599 251.817C327.613 251.746 327.641 251.679 327.681 251.62C327.721 251.56 327.772 251.509 327.832 251.469C327.892 251.43 327.959 251.403 328.03 251.39C328.099 251.375 328.17 251.375 328.24 251.388C328.309 251.401 328.375 251.428 328.433 251.467C328.492 251.507 328.542 251.557 328.581 251.616C328.62 251.675 328.647 251.741 328.66 251.81C329.8 257.41 329.32 261.56 327.19 264.51C323.73 269.3 316.45 270.19 308.74 271.12C298.74 272.33 288.47 273.58 283.64 282.72C271.91 304.89 256.72 312.46 229.47 309.72C221.28 308.89 215.02 310.43 210.87 314.3C204.03 320.68 204.37 332.05 204.53 337.52C204.53 338.26 204.58 338.92 204.58 339.45C204.565 339.59 204.496 339.718 204.387 339.808C204.279 339.897 204.14 339.941 204 339.93Z" fill="white"/>
<path d="M322 339.93C321.859 339.928 321.724 339.871 321.624 339.773C321.524 339.674 321.465 339.541 321.46 339.4V338.83C321.29 328.83 321.06 315.22 336.21 313.27C345.21 312.12 350.5 309.95 352.45 306.65C354.4 303.35 352.73 298.96 351.08 294.78C349.64 291.14 348.16 287.38 349.08 284.19C350.547 279.241 353.176 274.715 356.75 270.99C360.81 266.34 363.05 263.78 355.23 252.18C355.152 252.06 355.125 251.915 355.153 251.775C355.181 251.635 355.262 251.511 355.38 251.43C355.439 251.391 355.505 251.363 355.575 251.349C355.644 251.335 355.716 251.335 355.786 251.349C355.855 251.363 355.922 251.391 355.981 251.43C356.04 251.47 356.09 251.521 356.13 251.58C364.41 263.87 361.83 266.82 357.56 271.7C354.099 275.316 351.549 279.703 350.12 284.5C349.28 287.33 350.63 290.76 352.06 294.38C353.81 298.81 355.61 303.38 353.36 307.2C351.23 310.81 345.65 313.15 336.36 314.35C322.18 316.17 322.36 329.26 322.56 338.81V339.38C322.561 339.451 322.548 339.521 322.522 339.587C322.496 339.653 322.458 339.714 322.409 339.765C322.359 339.816 322.301 339.857 322.236 339.885C322.17 339.913 322.101 339.929 322.03 339.93H322Z" fill="white"/>
<path d="M210 232.14H209.66C208.968 230.392 207.787 228.881 206.258 227.789C204.729 226.696 202.917 226.068 201.04 225.98C200.03 225.928 199.019 226.029 198.04 226.28C197.182 224.254 195.683 222.566 193.773 221.474C191.864 220.382 189.648 219.946 187.467 220.235C185.286 220.523 183.26 221.519 181.7 223.07C180.139 224.621 179.131 226.641 178.83 228.82C176.815 228.89 174.904 229.732 173.493 231.172C172.082 232.612 171.279 234.539 171.251 236.555C171.222 238.571 171.971 240.521 173.341 242C174.711 243.479 176.597 244.374 178.61 244.5L209.36 246C210.269 246.044 211.178 245.909 212.035 245.601C212.892 245.294 213.68 244.821 214.354 244.209C215.028 243.597 215.576 242.858 215.964 242.035C216.353 241.211 216.576 240.32 216.62 239.41C216.663 238.501 216.528 237.592 216.221 236.735C215.913 235.878 215.44 235.089 214.828 234.415C214.216 233.741 213.477 233.194 212.654 232.805C211.831 232.417 210.939 232.194 210.03 232.15L210 232.14Z" fill="white"/>
<path d="M254.25 200.22C256.369 200.215 258.451 200.768 260.288 201.823C262.125 202.879 263.652 204.399 264.714 206.232C265.776 208.065 266.337 210.145 266.34 212.264C266.343 214.383 265.788 216.464 264.73 218.3L255.12 211.57L250.12 200.94C251.427 200.46 252.808 200.216 254.2 200.22M254.2 199.14C252.285 199.137 250.394 199.557 248.66 200.37L254.22 212.29L265 219.83C266.38 217.858 267.193 215.546 267.349 213.144C267.505 210.742 266.999 208.344 265.886 206.21C264.773 204.075 263.096 202.288 261.037 201.041C258.978 199.795 256.617 199.137 254.21 199.14H254.2Z" fill="white"/>
<path d="M254.27 212.29L265 219.83C264.563 220.459 264.071 221.048 263.53 221.59C262.173 222.956 260.533 224.007 258.726 224.67C256.918 225.332 254.987 225.591 253.069 225.426C251.151 225.261 249.293 224.678 247.625 223.717C245.957 222.755 244.52 221.44 243.416 219.863C242.311 218.286 241.566 216.486 241.233 214.59C240.901 212.694 240.988 210.748 241.489 208.889C241.99 207.03 242.893 205.304 244.133 203.832C245.374 202.36 246.923 201.178 248.67 200.37L254.27 212.29Z" fill="white"/>
<path d="M218.93 293.79C218.149 293.793 217.394 293.516 216.799 293.009C216.205 292.503 215.812 291.801 215.69 291.03L212.15 269.43C212.008 268.567 212.215 267.683 212.725 266.972C213.235 266.261 214.007 265.782 214.87 265.64L250.79 259.76C251.652 259.622 252.533 259.83 253.242 260.34C253.95 260.849 254.428 261.619 254.57 262.48L258.11 284.08C258.249 284.943 258.041 285.826 257.531 286.536C257.022 287.246 256.252 287.725 255.39 287.87L219.47 293.75C219.291 293.778 219.111 293.792 218.93 293.79ZM251.32 260.79H250.96L215 266.71C214.422 266.808 213.907 267.13 213.564 267.605C213.222 268.08 213.08 268.671 213.17 269.25L216.71 290.86C216.81 291.439 217.133 291.956 217.61 292.3C217.846 292.47 218.113 292.591 218.397 292.656C218.68 292.721 218.973 292.729 219.26 292.68L255.18 286.8C255.758 286.705 256.275 286.383 256.616 285.907C256.957 285.431 257.095 284.838 257 284.26L253.46 262.65C253.414 262.363 253.312 262.088 253.159 261.841C253.006 261.594 252.806 261.38 252.57 261.21C252.204 260.95 251.768 260.807 251.32 260.8V260.79Z" fill="white"/>
<path d="M241.74 275.67L229.6 271.08L231.7 283.9L241.74 275.67Z" fill="white"/>
<path d="M389.79 258.24H382.5V280.18H389.79V258.24Z" fill="white"/>
<path d="M389.79 281.71H382.5V285.84H389.79V281.71Z" fill="white"/>
<path d="M389.79 288.35H382.5V290.41H389.79V288.35Z" fill="white"/>
<path d="M389.79 294.18H382.5V295.21H389.79V294.18Z" fill="white"/>
<path d="M378.87 260.26L386.14 247.67L393.41 260.26H378.87Z" fill="white"/>
<path d="M288 222.94H283.4V236.79H288V222.94Z" fill="white"/>
<path d="M288 237.76H283.4V240.37H288V237.76Z" fill="white"/>
<path d="M288 241.96H283.4V243.26H288V241.96Z" fill="white"/>
<path d="M288 245.64H283.4V246.29H288V245.64Z" fill="white"/>
<path d="M281.11 224.22L285.7 216.26L290.3 224.22H281.11Z" fill="white"/>
<path d="M392.5 142.44H386.65V160.04H392.5V142.44Z" fill="#6C63FF"/>
<path d="M392.5 161.27H386.65V164.58H392.5V161.27Z" fill="#6C63FF"/>
<path d="M392.5 166.6H386.65V168.26H392.5V166.6Z" fill="#6C63FF"/>
<path d="M392.5 171.28H386.65V172.11H392.5V171.28Z" fill="#6C63FF"/>
<path d="M383.74 144.06L389.57 133.96L395.4 144.06H383.74Z" fill="#6C63FF"/>
</svg>
