<svg width="500" height="500" viewBox="0 0 500 500" fill="none" xmlns="http://www.w3.org/2000/svg">
<path d="M90.2105 74.6899H63.7305V85.8799H90.2105V74.6899Z" fill="#EBEBEB"/>
<path d="M75.44 60.5801H48.96V71.7701H75.44V60.5801Z" fill="#EBEBEB"/>
<path d="M104.98 60.5801H78.5V71.7701H104.98V60.5801Z" fill="#EBEBEB"/>
<path d="M436.27 60.5801H409.79V71.7701H436.27V60.5801Z" fill="#EBEBEB"/>
<path d="M436.27 362.53H409.79V373.72H436.27V362.53Z" fill="#EBEBEB"/>
<path d="M451.04 348.42H424.56V359.61H451.04V348.42Z" fill="#EBEBEB"/>
<path d="M332.3 306.57H305.82V317.76H332.3V306.57Z" fill="#EBEBEB"/>
<path d="M75.44 362.52H48.96V373.71H75.44V362.52Z" fill="#EBEBEB"/>
<path d="M253.19 134.21H279.67V123.02H253.19V134.21Z" fill="#EBEBEB"/>
<path d="M267.96 148.32H294.44V137.13H267.96V148.32Z" fill="#EBEBEB"/>
<path d="M122.48 66.52H56.1504V132.85H122.48V66.52Z" fill="white"/>
<path d="M52.7002 63.0698V136.31H125.93V63.0698H52.7002ZM122.48 132.86H56.1502V66.5198H122.48V132.86Z" fill="#DBDBDB"/>
<path d="M117.7 120.01V97.0801H66.0002V120.01H117.7Z" fill="#EBEBEB"/>
<path d="M102.56 112.93V86.4399H76.0696V112.93H102.56Z" fill="#C7C7C7"/>
<path d="M128.76 63.0698H125.93V136.31H128.76V63.0698Z" fill="#C7C7C7"/>
<path d="M122.48 160.71H56.1504V227.04H122.48V160.71Z" fill="white"/>
<path d="M84.8698 171.32H67.5498V221.35H84.8698V171.32Z" fill="#C7C7C7"/>
<path d="M52.7002 157.26V230.49H125.93V157.26H52.7002ZM122.48 227H56.1502V160.71H122.48V227Z" fill="#DBDBDB"/>
<path d="M102.56 180.63H76.0703V207.12H102.56V180.63Z" fill="#EBEBEB"/>
<path d="M128.76 157.26H125.93V230.5H128.76V157.26Z" fill="#C7C7C7"/>
<path d="M122.48 254.9H56.1504V321.23H122.48V254.9Z" fill="white"/>
<path d="M99.9098 263.94H63.5098V285.7H99.9098V263.94Z" fill="#EBEBEB"/>
<path d="M52.7002 251.45V324.68H125.93V251.45H52.7002ZM122.48 321.23H56.1502V254.9H122.48V321.23Z" fill="#DBDBDB"/>
<path d="M102.56 274.82H76.0703V301.31H102.56V274.82Z" fill="#C7C7C7"/>
<path d="M128.76 251.45H125.93V324.69H128.76V251.45Z" fill="#C7C7C7"/>
<path d="M321.17 116L451.55 116V108.26L321.17 108.26V116Z" fill="#EBEBEB"/>
<path d="M441.65 116H433.91V141.6H441.65V116Z" fill="#EBEBEB"/>
<path d="M441.65 116H433.91V123.91H441.65V116Z" fill="#DBDBDB"/>
<path d="M338.8 116H331.06V141.6H338.8V116Z" fill="#EBEBEB"/>
<path d="M338.8 116H331.06V123.91H338.8V116Z" fill="#DBDBDB"/>
<path d="M418.6 108.26V58.9199H406.18V108.26H418.6Z" fill="#C7C7C7"/>
<path d="M418.6 61.6998V56.2798H406.18V61.6998H418.6Z" fill="#DBDBDB"/>
<path d="M418.59 70.6702V68.6602H406.17V70.6702H418.59Z" fill="#DBDBDB"/>
<path d="M418.6 101.79V96.3701H404.63V101.79H418.6Z" fill="#DBDBDB"/>
<path d="M406.17 108.25V50.7002H397.49V108.25H406.17Z" fill="#DBDBDB"/>
<path d="M404.47 78.2601V56.1201H399.26V78.2601H404.47Z" fill="#EBEBEB"/>
<path d="M341.836 108.295L382.764 67.8364L376.661 61.6635L335.734 102.122L341.836 108.295Z" fill="#C7C7C7"/>
<path d="M350.191 97.5449L365.937 81.98L362.274 78.2748L346.529 93.8397L350.191 97.5449Z" fill="#DBDBDB"/>
<path d="M397.49 108.27V64.5498H382.74V108.27H397.49Z" fill="#A6A6A6"/>
<path d="M397.49 103.63V99.5601H382.74V103.63H397.49Z" fill="#C7C7C7"/>
<path d="M397.5 96.8901V95.3101H382.75V96.8901H397.5Z" fill="#C7C7C7"/>
<path d="M428.78 108.27V67.1899H418.59V108.27H428.78Z" fill="#A6A6A6"/>
<path d="M428.78 103.91V100.08H418.59V103.91H428.78Z" fill="#C7C7C7"/>
<path d="M428.78 79.4799V75.6499H418.59V79.4799H428.78Z" fill="#C7C7C7"/>
<path d="M428.78 83.5898V82.1099H418.59V83.5898H428.78Z" fill="#C7C7C7"/>
<path d="M223.88 255.59C262.96 302.68 293.29 339.59 291.23 355.59C286.6 391.37 267.13 396.47 263.64 395.69C239.85 390.35 205.49 308 192.55 266.16C181 228.79 203 230.47 223.88 255.59Z" fill="#6C63FF"/>
<path opacity="0.1" d="M288 341.85C284.103 344.214 280.422 346.918 277 349.93C272 354.29 267.47 359.03 262.26 363.1C257.489 366.864 252.322 370.096 246.85 372.74C245.09 373.58 243.31 374.37 241.5 375.07C240.387 373.45 239.277 371.763 238.17 370.01C243.919 367.825 249.385 364.958 254.45 361.47C259.69 357.89 264.39 353.61 269.32 349.63C274.005 345.823 279.026 342.45 284.32 339.55C284.987 339.17 285.687 338.8 286.42 338.44C287 339.61 287.54 340.75 288 341.85ZM272.09 316C268.574 317.284 264.976 318.333 261.32 319.14C244.64 322.49 230.45 312.05 216.18 304.68C220.351 299.875 224.98 295.488 230 291.58C233.564 288.84 237.479 286.59 241.64 284.89C243.276 284.247 244.945 283.693 246.64 283.23L242.93 278.67C238.86 279.884 234.961 281.615 231.33 283.82C223.59 288.56 217.23 295.22 211.19 301.9L210.96 302.15L209.91 301.69C208.07 300.91 206.207 300.2 204.32 299.56C205.94 303.75 207.65 308.02 209.43 312.32C209.98 311.69 210.53 311.05 211.09 310.42L212.09 309.27C217.17 311.78 222.09 314.66 227.09 317.27C235.36 321.63 244.46 325.73 254.01 325.52C259.39 325.4 264.45 323.59 269.32 321.45L274.38 319.21C273.65 318.18 272.88 317.09 272.09 316ZM219.46 250.64C216.951 252.046 214.363 253.308 211.71 254.42C204.82 257.35 197.14 257.1 189.95 255.42C189.597 253.348 189.4 251.252 189.36 249.15C191.116 249.613 192.895 249.984 194.69 250.26C198.337 250.782 202.037 250.806 205.69 250.33C208.865 250.045 211.99 249.356 214.99 248.28C210.73 246.82 206.44 245.47 202.07 244.4C198.21 243.434 194.277 242.789 190.31 242.47C190.738 241.018 191.613 239.738 192.811 238.811C194.008 237.885 195.467 237.36 196.98 237.31C199.14 237.66 201.28 238.11 203.41 238.63C208.21 240.62 213.79 244.71 219.46 250.63V250.64Z" fill="black"/>
<path opacity="0.1" d="M261.37 394.92C237.72 385.18 205.09 306.64 192.55 266.12C188.65 253.51 188.55 245.36 191.01 241.04L261.37 394.92Z" fill="black"/>
<path d="M237 439.28L56.3896 439C56.8396 435.28 94.5197 267.74 138.21 229.15C153.21 215.89 181.92 225.74 185.52 228.68C220.46 257.18 239.64 437.1 237 439.28Z" fill="#6C63FF"/>
<path d="M237 439.28L56.3896 439C56.4496 438.5 57.1697 435.09 58.4897 429.47C58.5597 429.12 58.6496 428.77 58.7296 428.41C59.9696 423.14 61.6696 416.14 63.7796 407.89C64.3196 405.77 64.8896 403.56 65.4896 401.28C70.5696 381.92 77.5597 357.23 85.8997 332.38C86.5097 330.54 87.1396 328.7 87.7696 326.85C88.1896 325.63 88.6196 324.42 89.0396 323.2L90.4896 319.09C96.2329 302.635 102.852 286.498 110.32 270.75C111.2 268.95 112.083 267.18 112.97 265.44C118.43 254.73 124.12 245.34 129.97 238C131.686 235.82 133.523 233.737 135.47 231.76C136.38 230.83 137.3 229.96 138.22 229.15C153.22 215.89 181.93 225.74 185.53 228.68C188.27 231.025 190.658 233.753 192.62 236.78C194.046 238.883 195.361 241.059 196.56 243.3C197.8 245.6 199.02 248.077 200.22 250.73C201.06 252.603 201.89 254.553 202.71 256.58C207.41 268.21 211.71 282.25 215.46 297.33C216 299.45 216.52 301.6 217.04 303.77C217.16 304.29 217.29 304.82 217.41 305.34C218.01 307.88 218.596 310.437 219.17 313.01C223.6 332.87 227.26 353.64 230.09 372.47C230.396 374.47 230.69 376.433 230.97 378.36C232.13 386.36 233.13 393.91 233.97 400.81C234.12 402.08 234.28 403.33 234.42 404.56C236.82 424.88 237.73 438.69 237 439.28Z" fill="#6C63FF"/>
<path opacity="0.1" d="M234.42 404.53C231.15 405.86 227.97 407.4 224.8 408.96C219.12 411.77 213.35 414.82 207.17 416.39C201.42 417.901 195.379 417.918 189.62 416.44C179.1 413.67 170.62 406.44 162.31 399.71C157.289 395.434 151.848 391.678 146.07 388.5L145.49 388.89C137.49 394.37 130.14 400.67 122.68 406.82C115.22 412.97 107.39 419.13 98.68 423.48C89.38 428.12 79.39 430.97 68.92 430.68C65.4167 430.577 61.9296 430.162 58.5 429.44C58.57 429.09 58.66 428.74 58.74 428.38C65.5187 429.575 72.4634 429.463 79.2 428.05C89 425.94 97.53 420.9 105.5 415C117.5 406 127.88 394.79 139.93 385.85C137.739 385.058 135.488 384.439 133.2 384C121.2 381.75 108.5 384.09 97.65 389.56C87.1 394.88 77.65 402.18 66.72 406.78C65.72 407.18 64.78 407.56 63.78 407.9C64.32 405.78 64.89 403.57 65.49 401.29C69.0896 399.525 72.5974 397.579 76 395.46C86.14 389.34 95.94 382.52 107.53 379.46C119.75 376.18 132.9 376.46 144.69 381.22C145.1 381.39 145.5 381.56 145.89 381.74C147.52 380.74 149.18 379.74 150.89 378.74C160.44 373.507 171.203 370.889 182.09 371.15C195.23 371.42 208.23 374.66 221.41 373.75C224.329 373.547 227.228 373.116 230.08 372.46C230.387 374.46 230.68 376.423 230.96 378.35L229.76 378.6C223.338 379.782 216.789 380.118 210.28 379.6C197.28 378.73 184.02 375.6 170.99 377.77C164.291 378.987 157.859 381.377 151.99 384.83C158.99 388.99 165.17 394.49 171.52 399.52C179.37 405.72 188.25 411.76 198.66 411.62C211.08 411.46 222.07 404.62 233.59 400.9L233.98 400.78C234.12 402.05 234.28 403.3 234.42 404.53ZM217.42 305.31L216.2 304.67L217.05 303.74C216.53 301.57 216.05 299.42 215.47 297.3C214.03 298.82 212.61 300.36 211.22 301.9L210.99 302.15L209.94 301.69C200.093 297.467 189.451 295.421 178.74 295.69C168.34 295.97 158.37 298.69 148.74 302.6C139.3 306.43 130.18 311.01 120.58 314.44C112.087 317.563 103.109 319.164 94.06 319.17C92.86 319.17 91.67 319.12 90.47 319.05L89 323.17C96.747 324.355 104.641 324.185 112.33 322.67C122.41 320.62 131.78 316.37 141.14 312.26C150.5 308.15 160 304.06 170.14 302.45C180.513 300.823 191.121 301.61 201.14 304.75C203.06 305.34 204.93 306.06 206.78 306.83C202.25 312.103 197.387 317.079 192.22 321.73C184.962 328.19 176.092 332.567 166.55 334.4C143.04 338.83 119.67 329.67 96.49 327.31C93.61 327.02 90.69 326.85 87.77 326.82C87.14 328.67 86.51 330.51 85.9 332.35C87.65 332.35 89.4 332.49 91.16 332.64C114.91 334.72 138.33 343.59 162.39 340.95C172.906 339.95 182.956 336.129 191.48 329.89C198.89 324.34 205.03 317.36 211.1 310.42L212.1 309.27C214.48 310.44 216.82 311.7 219.1 312.98C218.573 310.413 218.007 307.856 217.4 305.31H217.42ZM202.72 256.55C198.008 256.837 193.28 256.361 188.72 255.14C181.06 253.2 173.88 249.83 166.72 246.54C163.58 247.81 160.51 249.26 157.52 250.79C150.24 254.52 143.26 258.79 135.98 262.54C128.756 266.412 120.946 269.07 112.86 270.41C112.04 270.53 111.22 270.64 110.4 270.72C111.28 268.92 112.163 267.15 113.05 265.41C115.133 264.921 117.189 264.324 119.21 263.62C133.49 258.62 145.76 249.69 159.35 243.28C154.345 241.067 149.119 239.391 143.76 238.28C139.221 237.419 134.57 237.324 130 238C131.717 235.82 133.553 233.737 135.5 231.76C140.396 231.681 145.277 232.335 149.98 233.7C155.738 235.44 161.36 237.603 166.8 240.17C172.679 237.937 178.885 236.684 185.17 236.46C187.668 236.411 190.166 236.518 192.65 236.78C194.077 238.883 195.392 241.059 196.59 243.3C190.924 242.257 185.126 242.132 179.42 242.93C177.91 243.16 176.42 243.48 174.95 243.85C181.37 246.7 187.77 249.27 194.73 250.32C196.557 250.593 198.402 250.73 200.25 250.73C201.063 252.583 201.88 254.523 202.7 256.55H202.72Z" fill="black"/>
<path d="M179.52 275.76C179.52 275.76 147 248.07 127.35 250.11L111.63 266.11C111.63 266.11 106.26 268.29 104.32 264.92C99.5204 256.6 97.2504 235.82 114.24 221.07C129.8 207.56 156.73 206.63 179.55 211C201.47 215.19 221.12 228.19 215.48 242.69C209.84 257.19 179.52 275.76 179.52 275.76Z" fill="#6C63FF"/>
<path opacity="0.1" d="M181.22 269C181.22 269 204.7 249.68 206.53 239C208.36 228.32 186.75 219.87 173 216.88C151.67 212.27 137.51 214.59 126.56 226.56C115.61 238.53 181.22 269 181.22 269Z" fill="black"/>
<path d="M178.87 267.71C168.16 268.05 153.8 248.87 149.44 234.81C149.15 233.81 152.34 224.97 155.7 214C157.7 207.34 159.81 199.87 161.22 192.92C161.5 191.5 202.66 212.38 202.66 212.38C202.66 212.38 195.41 226.07 193.02 238.21C192.836 239.169 192.743 240.143 192.74 241.12C192.749 241.28 192.749 241.44 192.74 241.6C192.49 247.2 189.22 267.37 178.87 267.71Z" fill="#D3766A"/>
<path d="M163.86 193.65C163.5 205.81 165.03 235.65 188.19 240.94C189.672 241.29 191.181 241.514 192.7 241.61C192.718 241.447 192.718 241.283 192.7 241.12C192.709 240.144 192.799 239.171 192.97 238.21C195.36 226.06 202.62 212.36 202.62 212.36C202.62 212.36 173 197.3 163.86 193.65Z" fill="#263238"/>
<path d="M171.88 136.72C162.43 150.24 156.3 196.15 163.88 209.28C174.8 228.28 199.7 237.86 217.63 223.12C235.01 208.84 241.95 148.86 232.88 136.22C219.48 117.59 185.83 116.76 171.88 136.72Z" fill="#D3766A"/>
<path d="M205.73 177C205.73 176.88 205.47 177.13 205.46 177.25C205.25 180.37 204.46 183.9 201.57 184.65C201.48 184.65 201.47 184.83 201.57 184.82C205.05 184.64 206 180 205.73 177Z" fill="#263238"/>
<path d="M203.28 173.44C198.28 172.56 196.93 182.54 201.52 183.35C206.11 184.16 207.43 174.18 203.28 173.44Z" fill="#263238"/>
<path d="M223 179.47C223 179.36 223.22 179.65 223.2 179.78C222.67 182.86 222.58 186.47 225.2 187.88C225.28 187.93 225.2 188.08 225.15 188.05C221.85 187.1 222 182.3 223 179.47Z" fill="#263238"/>
<path d="M226.22 176.63C231.22 176.95 230.22 186.97 225.58 186.68C220.94 186.39 222 176.37 226.22 176.63Z" fill="#263238"/>
<path d="M199.57 165.17C200.951 165.212 202.333 165.178 203.71 165.07C205.29 165.07 206.56 165.14 207.91 164.17C208.26 163.857 208.496 163.437 208.581 162.975C208.666 162.514 208.595 162.037 208.38 161.62C207.38 159.88 205.38 159.46 203.49 159.44C201.563 159.364 199.677 160.01 198.2 161.25C196.63 162.5 197.71 165 199.57 165.17Z" fill="#263238"/>
<path d="M231.81 170C230.51 169.54 229.235 169.012 227.99 168.42C226.53 167.8 225.31 167.42 224.4 166.06C224.189 165.64 224.123 165.163 224.211 164.702C224.3 164.241 224.538 163.822 224.89 163.51C226.47 162.25 228.44 162.57 230.23 163.25C232.053 163.873 233.579 165.153 234.51 166.84C235.52 168.57 233.59 170.54 231.81 170Z" fill="#263238"/>
<path d="M196.55 205C197.19 205.83 197.79 206.93 198.9 207.18C200.052 207.317 201.221 207.211 202.33 206.87C202.352 206.856 202.38 206.851 202.406 206.856C202.432 206.862 202.455 206.878 202.47 206.9C202.484 206.923 202.489 206.95 202.484 206.976C202.478 207.003 202.462 207.026 202.44 207.04C201.913 207.587 201.248 207.981 200.516 208.18C199.783 208.379 199.011 208.375 198.28 208.17C197.681 207.912 197.172 207.483 196.816 206.937C196.46 206.391 196.274 205.752 196.28 205.1C196.21 204.86 196.46 204.83 196.55 205Z" fill="#263238"/>
<path d="M201.09 196.15C201.703 197.483 202.586 198.674 203.682 199.65C204.778 200.626 206.064 201.365 207.46 201.82C208.672 202.234 209.939 202.47 211.22 202.52C211.466 202.545 211.714 202.545 211.96 202.52C212.19 202.52 212.39 202.52 212.65 202.52C212.82 202.514 212.982 202.45 213.111 202.339C213.24 202.228 213.328 202.077 213.36 201.91C213.37 201.803 213.37 201.696 213.36 201.59V201.32C213.75 198.95 214.03 195.32 214.03 195.32C214.84 195.87 219.03 198.49 219.1 197.23C219.92 186.86 220.84 175.32 219.47 164.82C219.47 164.743 219.439 164.669 219.385 164.615C219.33 164.56 219.257 164.53 219.18 164.53C219.103 164.53 219.029 164.56 218.975 164.615C218.92 164.669 218.89 164.743 218.89 164.82C217.7 174.76 218.27 184.82 217.24 194.82C215.9 194.08 213.73 192.77 212.48 192.62C212.13 192.67 212.08 199.68 211.81 200.73C211.817 200.766 211.817 200.804 211.81 200.84C207.74 200.84 204.9 199.16 201.39 195.94C201.22 195.71 200.94 195.88 201.09 196.15Z" fill="#263238"/>
<path d="M210 201.12C208.456 202.634 206.549 203.726 204.46 204.29C203.305 204.562 202.094 204.461 201 204C198.62 203 198.88 200.73 199.6 198.86C199.995 197.867 200.505 196.924 201.12 196.05C203.462 198.646 206.574 200.423 210 201.12Z" fill="#263238"/>
<path d="M204.45 204.29C203.299 204.56 202.091 204.459 201 204C198.62 203 198.88 200.73 199.6 198.86C202.22 199.53 204.58 201.69 204.45 204.29Z" fill="#FF98B9"/>
<path d="M236.42 153.78C218.3 162.73 198.17 142.39 198.17 142.39C191.01 154.53 178.34 151.14 178.34 151.14C178.34 151.14 171.1 178.61 163.75 177.5C152.53 175.83 154.52 137.24 159.13 130.26C163.74 123.28 173.53 122.73 173.53 122.73C173.53 122.73 175.06 117.02 182.75 112.73C191.25 107.96 216.57 119.65 216.57 119.65C218.586 116.329 221.354 113.527 224.65 111.47C225.445 110.956 226.335 110.608 227.268 110.448C228.201 110.288 229.157 110.318 230.078 110.538C230.998 110.758 231.865 111.162 232.625 111.726C233.385 112.29 234.023 113.003 234.5 113.82C232.802 115.682 231.547 117.904 230.83 120.32C228.33 128.32 235.01 129.26 236.02 121.83C236.492 119.068 235.952 116.227 234.5 113.83C238.5 109.45 244.1 108.65 247 111.71C252.25 117.24 251.49 146.34 236.42 153.78Z" fill="#263238"/>
<path d="M178 142.08C178.002 142.027 177.993 141.975 177.973 141.926C177.953 141.877 177.923 141.833 177.884 141.797C177.846 141.761 177.8 141.733 177.751 141.716C177.701 141.699 177.648 141.692 177.595 141.697C177.543 141.703 177.492 141.719 177.446 141.745C177.4 141.771 177.361 141.807 177.33 141.85C177.299 141.893 177.278 141.942 177.268 141.994C177.257 142.045 177.258 142.099 177.27 142.15C177.46 147.89 177.67 153.69 176.49 159.38C175.31 165.07 170.31 178.72 162.49 175.9C162.414 175.867 162.327 175.865 162.249 175.895C162.171 175.924 162.108 175.983 162.073 176.059C162.038 176.134 162.033 176.221 162.061 176.299C162.088 176.378 162.146 176.443 162.22 176.48C167.22 179.8 171.86 173.48 174.29 168.98C178.68 160.82 179 151.06 178 142.08Z" fill="#263238"/>
<path d="M246.62 111.25C246.612 111.238 246.599 111.23 246.585 111.227C246.571 111.224 246.557 111.227 246.545 111.235C246.533 111.243 246.524 111.255 246.522 111.27C246.519 111.284 246.522 111.298 246.53 111.31C253.53 123.41 253.38 139.18 243.8 150.01C231.75 163.64 213.13 151.08 202.11 143.01C201.57 142.61 200.88 143.38 201.42 143.8C212.08 152.07 231.09 164.23 243.42 152.04C254.35 141.12 254.65 123.73 246.62 111.25Z" fill="#263238"/>
<path d="M175.9 123C164.71 122.6 156.08 126.68 153.32 138.2C150.56 149.72 153.45 162.64 160.23 172.2C160.301 172.278 160.398 172.328 160.503 172.34C160.608 172.352 160.714 172.326 160.802 172.267C160.889 172.207 160.952 172.118 160.979 172.016C161.007 171.914 160.996 171.805 160.95 171.71C156.37 163.76 153.31 155.29 153.55 145.99C153.73 139.11 155.62 131.67 161.12 127.08C165.12 123.77 171.07 123.7 175.94 123.45C176.22 123.45 176.17 123.05 175.9 123Z" fill="#263238"/>
<path d="M219.52 122.46C206.98 112.07 180.89 100.19 173.67 122.59C173.61 122.78 173.92 122.88 173.99 122.7C182.53 100.44 205.99 114.34 219.16 123.01C219.48 123.22 219.81 122.7 219.52 122.46Z" fill="#263238"/>
<path d="M172.65 176.27C172.65 176.27 167.05 159.19 159.59 160.77C152.13 162.35 153.36 185 160 190.1C160.81 190.807 161.755 191.344 162.778 191.677C163.801 192.011 164.88 192.134 165.952 192.041C167.024 191.948 168.066 191.639 169.016 191.134C169.965 190.629 170.803 189.937 171.48 189.1L172.65 176.27Z" fill="#D3766A"/>
<path d="M160.11 167.26C160.086 167.254 160.061 167.256 160.038 167.266C160.015 167.275 159.996 167.293 159.984 167.315C159.973 167.337 159.969 167.363 159.974 167.387C159.978 167.412 159.991 167.434 160.01 167.45C164.63 171.18 165.93 176.9 166.34 182.55C165.34 180.13 163.55 178.42 160.34 179.49C160.18 179.55 160.24 179.8 160.4 179.82C161.416 179.804 162.411 180.103 163.249 180.676C164.087 181.25 164.727 182.068 165.08 183.02C165.658 184.616 166.064 186.268 166.29 187.95C166.39 188.5 167.29 188.5 167.29 187.95C167.285 187.904 167.285 187.857 167.29 187.81C169.49 181.1 167.11 170.12 160.11 167.26Z" fill="#263238"/>
<path d="M181.22 269C181.22 269 153.97 229.36 123.22 227.37L127.36 250.1C127.36 250.1 145.54 248.89 179.53 275.75L181.22 269Z" fill="#6C63FF"/>
<path d="M119.16 251.09C124.69 250.01 130.32 250.87 135.67 252.16C141.037 253.559 146.224 255.572 151.13 258.16C156.076 260.668 160.849 263.501 165.42 266.64L172.16 271.55L178.68 276.77L179.41 277.36L180.15 276.91C185.647 273.61 190.909 269.934 195.9 265.91C198.423 263.927 200.821 261.789 203.08 259.51C205.368 257.269 207.428 254.807 209.23 252.16C205.03 256.97 199.98 260.84 194.87 264.56C192.31 266.41 189.66 268.14 186.98 269.82C184.3 271.5 181.61 273.19 178.88 274.72L180.35 274.86L173.81 269.45C171.56 267.74 169.26 266.08 166.96 264.45C164.66 262.82 162.21 261.36 159.76 259.93C157.31 258.5 154.76 257.15 152.18 256.03C147.035 253.579 141.598 251.798 136 250.73C134.61 250.44 133.19 250.3 131.78 250.11C130.37 249.92 128.94 249.92 127.52 249.95C124.689 249.851 121.862 250.236 119.16 251.09Z" fill="#263238"/>
<path d="M111.63 266.12C114.578 263.799 117.367 261.283 119.98 258.59C122.625 255.933 125.088 253.1 127.35 250.11C124.397 252.422 121.608 254.935 119 257.63C116.354 260.29 113.892 263.127 111.63 266.12Z" fill="#263238"/>
<path d="M167.71 260.1C165.701 269.614 164.517 279.283 164.17 289C163.88 295.76 165.96 320.09 173.5 319.38C181.04 318.67 169.13 302.74 167.26 289.89C165.36 276.89 169.01 267.74 169.64 260.08L167.71 260.1Z" fill="#6C63FF"/>
<path d="M167.71 260.1C165.701 269.614 164.517 279.283 164.17 289C163.88 295.76 165.96 320.09 173.5 319.38C181.04 318.67 169.13 302.74 167.26 289.89C165.36 276.89 169.01 267.74 169.64 260.08L167.71 260.1Z" fill="black"/>
<path d="M195.24 259.13C197.647 267.593 199.32 276.249 200.24 285C200.94 291.1 200.61 313.25 193.75 313.08C186.89 312.91 196.64 297.74 197.51 286C198.4 274.08 194.51 266.08 193.51 259.19L195.24 259.13Z" fill="#6C63FF"/>
<path d="M195.24 259.13C197.647 267.593 199.32 276.249 200.24 285C200.94 291.1 200.61 313.25 193.75 313.08C186.89 312.91 196.64 297.74 197.51 286C198.4 274.08 194.51 266.08 193.51 259.19L195.24 259.13Z" fill="black"/>
<path d="M263.26 388.24C249.5 375.78 229.55 336.69 209.66 277.67C206.41 268.02 261.32 238.43 265.87 248.32C271.6 260.78 301.87 332.77 302.8 336.57C311 368.69 272.4 396.52 263.26 388.24Z" fill="#D3766A"/>
<path d="M204.31 245.32C202.06 257.37 209.47 277.01 209.47 277.01L268.38 254.55C268.38 254.55 263.51 235.34 265.81 225.06C266.48 222.06 269.33 206.31 273.08 191.19C277.33 174.02 279.59 155.48 278.57 153.61C276.57 150.01 269.87 151.31 264.28 162.18C258.69 173.05 251.46 196.18 250.66 197.42C250.355 197.811 250.021 198.179 249.66 198.52C249.07 198.83 231.73 197.89 226.79 203.99C221.85 210.09 204 243.11 204.31 245.32Z" fill="#D3766A"/>
<path d="M248.57 221.12C248.57 221.12 267.57 198.12 268.02 191.97C268.47 185.82 277.16 149.15 275.27 145.51C273.38 141.87 266.57 143.21 260.98 154.08C255.39 164.95 248.16 188.08 247.36 189.33C246.56 190.58 226.79 207.85 225.45 210C224.11 212.15 248.57 221.12 248.57 221.12Z" fill="#D3766A"/>
<path d="M261.08 209.7C262.55 206.78 263.9 203.81 265.26 200.84C265.927 199.347 266.567 197.844 267.18 196.33C267.48 195.57 267.79 194.81 268.07 194.03C268.21 193.65 268.34 193.24 268.47 192.84C268.585 192.425 268.678 192.005 268.75 191.58C270 185.21 271.23 178.79 272.42 172.38C273.61 165.97 274.76 159.58 275.75 153.09C275.976 151.433 276 149.754 275.82 148.09C275.724 147.231 275.509 146.39 275.18 145.59C274.86 144.728 274.262 143.996 273.48 143.51C273.074 143.296 272.63 143.166 272.173 143.128C271.715 143.09 271.255 143.146 270.82 143.29C270.009 143.541 269.248 143.93 268.57 144.44C267.256 145.435 266.085 146.606 265.09 147.92C266.21 146.75 267.462 145.713 268.82 144.83C269.485 144.41 270.215 144.103 270.98 143.92C271.327 143.831 271.689 143.814 272.043 143.869C272.397 143.924 272.736 144.05 273.04 144.24C274.21 145.03 274.61 146.69 274.73 148.24C274.825 149.82 274.724 151.405 274.43 152.96C273.15 159.31 271.9 165.74 270.72 172.14C269.54 178.54 268.39 184.96 267.45 191.44C267.176 193.007 266.744 194.541 266.16 196.02C265.63 197.55 265.05 199.07 264.49 200.6L261.08 209.7Z" fill="#263238"/>
<path d="M241.9 222C241.9 222 262.58 196.73 263.08 190.55C263.58 184.37 272.22 147.73 270.32 144.09C268.42 140.45 261.62 141.79 256.03 152.66C250.44 163.53 243.21 186.66 242.41 187.91C241.61 189.16 224.26 207.82 222.91 209.91C221.56 212 241.9 222 241.9 222Z" fill="#D3766A"/>
<path d="M255.55 212.28C257.19 208.63 258.69 204.92 260.19 201.2C260.9 199.33 261.61 197.45 262.27 195.56C262.6 194.61 262.93 193.66 263.27 192.69C263.57 191.707 263.8 190.705 263.96 189.69C265.413 181.843 266.823 173.973 268.19 166.08L270.19 154.25L270.65 151.25C270.826 150.235 270.94 149.209 270.99 148.18C271.042 147.116 270.955 146.051 270.73 145.01C270.526 143.86 269.954 142.807 269.1 142.01C268.615 141.604 268.019 141.353 267.39 141.29C266.803 141.241 266.212 141.323 265.66 141.53C264.663 141.907 263.739 142.456 262.93 143.15C261.378 144.477 259.98 145.973 258.76 147.61C256.335 150.836 254.485 154.455 253.29 158.31C254.775 154.615 256.841 151.182 259.41 148.14C260.655 146.621 262.056 145.237 263.59 144.01C264.321 143.427 265.146 142.973 266.03 142.67C266.396 142.519 266.796 142.47 267.187 142.53C267.579 142.59 267.946 142.756 268.25 143.01C268.835 143.637 269.212 144.43 269.33 145.28C269.489 146.204 269.543 147.144 269.49 148.08C269.37 149.94 268.9 151.95 268.58 153.91L266.51 165.72C265.16 173.6 263.8 181.48 262.62 189.4C262.505 190.371 262.324 191.333 262.08 192.28C261.83 193.28 261.56 194.19 261.27 195.14C260.69 197.04 260.06 198.94 259.43 200.83L255.55 212.28Z" fill="#263238"/>
<path d="M242.83 222.48C242.83 222.48 255.66 196.34 256.12 190.59C256.58 184.84 264.05 160.19 262.29 156.79C260.53 153.39 254.19 154.65 248.98 164.79C243.77 174.93 237.63 186.94 236.89 188.14C236.15 189.34 224.16 208 222.91 210C221.66 212 242.83 222.48 242.83 222.48Z" fill="#D3766A"/>
<path d="M248.41 216.57C250.41 211.81 252.28 207.02 254.19 202.23C255.19 199.84 256.08 197.44 257 195.03L257.68 193.22C257.917 192.601 258.111 191.966 258.26 191.32C258.58 190.06 258.85 188.79 259.1 187.53C260.1 182.46 261 177.38 261.71 172.26C262.07 169.71 262.41 167.15 262.71 164.58C262.84 163.29 262.97 162 263.06 160.7C263.17 159.369 263.17 158.031 263.06 156.7C263.02 156.273 262.896 155.858 262.695 155.479C262.495 155.099 262.221 154.763 261.89 154.49C261.182 153.999 260.312 153.798 259.46 153.93C258.058 154.163 256.723 154.698 255.55 155.5C253.259 156.973 251.363 158.985 250.03 161.36C247.52 165.9 245.16 170.46 242.76 175.02C240.36 179.58 237.97 184.21 235.76 188.72C234.5 190.94 233.15 193.15 231.83 195.35C230.51 197.55 229.22 199.8 228 202.07C231.14 197.97 234.11 193.79 237 189.48L244.22 175.77C246.64 171.24 249.06 166.67 251.57 162.22C252.768 160.081 254.462 158.26 256.51 156.91C257.46 156.238 258.545 155.78 259.69 155.57C259.9 155.506 260.123 155.492 260.339 155.529C260.556 155.567 260.761 155.655 260.937 155.787C261.113 155.918 261.256 156.089 261.354 156.286C261.452 156.483 261.502 156.7 261.5 156.92C261.595 158.148 261.595 159.382 261.5 160.61C261.42 161.88 261.31 163.16 261.18 164.44C260.92 166.99 260.61 169.54 260.27 172.08C259.57 177.17 258.89 182.27 257.99 187.33C257.77 188.59 257.54 189.85 257.26 191.09C256.958 192.323 256.577 193.536 256.12 194.72L253.51 202L248.41 216.57Z" fill="#263238"/>
<path d="M237 189.46C234.66 192.66 232.59 196.04 230.52 199.46C228.45 202.88 226.39 206.22 224.34 209.61C220.28 216.41 216.23 223.22 212.41 230.13C210.49 233.58 208.61 237.07 206.97 240.62C206.56 241.5 206.17 242.4 205.84 243.29C205.65 243.74 205.53 244.18 205.39 244.62C205.266 245.058 205.183 245.507 205.14 245.96C205.05 246.96 204.91 247.88 204.9 248.85L204.83 250.31V251.77C204.899 255.685 205.29 259.589 206 263.44C206.696 267.343 207.618 271.203 208.76 275C207.262 271.31 206.032 267.517 205.08 263.65C204.106 259.762 203.5 255.791 203.27 251.79C203.15 249.77 203.19 247.744 203.39 245.73C203.43 245.193 203.517 244.661 203.65 244.14C203.79 243.63 203.93 243.14 204.11 242.64C204.45 241.64 204.83 240.74 205.24 239.82C206.86 236.14 208.74 232.63 210.65 229.13C214.536 222.19 218.656 215.397 223.01 208.75C225.183 205.417 227.41 202.13 229.69 198.89C230.85 197.28 232.02 195.67 233.22 194.08C234.39 192.469 235.652 190.926 237 189.46Z" fill="#263238"/>
<path d="M274.31 249.06L209.58 306C209.58 306 243.68 384.13 259.79 394.06C278.46 405.56 317.12 376.26 305.09 334.06L274.31 249.06Z" fill="#6C63FF"/>
<path opacity="0.1" d="M305.12 334.13C294.75 337.384 285.173 342.765 277 349.93C272 354.29 267.47 359.03 262.26 363.1C257.489 366.863 252.322 370.096 246.85 372.74C245.85 373.2 244.91 373.65 243.92 374.07C242.92 372.42 241.92 370.7 240.92 368.94C245.681 366.901 250.229 364.399 254.5 361.47C259.74 357.89 264.44 353.61 269.37 349.63C274.055 345.823 279.076 342.449 284.37 339.55C290.679 336.115 297.4 333.497 304.37 331.76L305.19 334.02L305.12 334.13ZM296 309C294.76 309.286 293.52 309.586 292.28 309.9C286.95 311.2 281.71 312.82 276.48 314.48C271.48 316.08 266.48 318.05 261.28 319.09C244.6 322.44 230.41 312 216.14 304.63C220.326 299.841 224.968 295.47 230 291.58C233.564 288.839 237.479 286.589 241.64 284.89C247.022 282.898 252.645 281.63 258.36 281.12C267.25 280.12 276.23 280.12 285.03 278.57L283.61 274.66C276.73 275.26 269.77 275.17 262.88 275.53C254.73 275.95 246.67 277.07 239.16 279.98L209.61 305.98C209.61 305.98 210.27 307.48 211.44 310.1C211.67 309.83 211.9 309.56 212.14 309.3C217.22 311.81 222.14 314.69 227.14 317.3C235.41 321.66 244.51 325.76 254.06 325.55C259.44 325.43 264.5 323.62 269.37 321.48C274.24 319.34 279.37 316.99 284.47 315.06C288.53 313.54 292.617 312.136 296.73 310.85L296 309ZM276.61 255.4C275.78 255.68 274.95 255.95 274.11 256.2C270.742 257.203 267.292 257.906 263.8 258.3L272.21 250.91C273.06 250.71 273.91 250.5 274.75 250.28L276.61 255.4Z" fill="black"/>
<path d="M276.6 271.86C252.76 296.32 228.43 314.05 223.69 318.26C223.46 318.45 223.17 318.07 223.4 317.88C228.27 314 253.97 289.55 276.29 271.45C276.55 271.24 276.83 271.62 276.6 271.86Z" fill="#263238"/>
<path d="M246.44 377.86C241.44 368.58 236.38 359.33 231.44 350C226.5 340.67 221.91 331.22 217.44 321.69C214.96 316.43 213 311.37 210.66 306.05C213.02 303.95 214.72 302.16 217.21 299.77C217.54 299.45 217.07 298.86 216.7 299.14C213.7 301.41 208.85 305.57 208.95 305.82C212.95 315.58 217.283 325.2 221.95 334.68C226.616 344.16 231.59 353.527 236.87 362.78C239.836 367.94 242.983 372.994 246.31 377.94C246.36 378 246.49 378 246.44 377.86Z" fill="#263238"/>
<path d="M90.3597 394.48C108.19 389.3 150.36 335.94 174.91 274.88C178.71 265.44 129.29 228.76 123.4 237.88C116 249.45 73.9997 313.6 72.4997 317.24C59.8897 347.88 78.2697 398 90.3597 394.48Z" fill="#D3766A"/>
<path d="M184.87 243.8C185.37 256.05 175.22 274.43 175.22 274.43L120.13 243.78C120.13 243.78 127.69 225.46 126.89 214.96C126.65 211.91 126.08 195.9 124.54 180.4C122.78 162.8 123.19 144.13 124.47 142.4C126.93 139.12 133.41 141.4 137.38 152.93C141.35 164.46 145.22 188.38 145.83 189.75C146.086 190.183 146.377 190.594 146.7 190.98C147.24 191.37 164.53 192.92 168.55 199.66C172.57 206.4 185.52 241.67 184.87 243.8Z" fill="#D3766A"/>
<path d="M144.52 213.53C144.52 213.53 129 188.08 129.43 181.89C129.86 175.7 126.5 138.21 128.9 134.89C131.3 131.57 137.83 133.89 141.82 145.42C145.81 156.95 149.65 180.87 150.26 182.25C150.87 183.63 168 203.51 169 205.82C170 208.13 144.52 213.53 144.52 213.53Z" fill="#D3766A"/>
<path d="M133.77 200.43C132.77 197.34 131.77 194.21 130.89 191.07C130.45 189.5 130.04 187.92 129.64 186.33C129.45 185.53 129.26 184.74 129.09 183.93C129 183.53 128.94 183.1 128.86 182.69C128.805 182.262 128.771 181.831 128.76 181.4C128.44 174.92 128.14 168.4 127.87 161.88C127.6 155.36 127.39 148.88 127.33 142.31C127.342 140.623 127.56 138.944 127.98 137.31C128.201 136.474 128.538 135.673 128.98 134.93C129.428 134.122 130.132 133.485 130.98 133.12C131.411 132.964 131.868 132.898 132.325 132.923C132.782 132.949 133.23 133.067 133.64 133.27C134.407 133.636 135.104 134.133 135.7 134.74C136.86 135.907 137.853 137.23 138.65 138.67C137.706 137.354 136.616 136.15 135.4 135.08C134.803 134.574 134.127 134.169 133.4 133.88C133.07 133.738 132.714 133.665 132.355 133.665C131.996 133.665 131.64 133.738 131.31 133.88C130.04 134.49 129.4 136.08 129.07 137.56C128.753 139.109 128.625 140.69 128.69 142.27C129.05 148.74 129.37 155.27 129.62 161.79C129.87 168.31 130.1 174.79 130.1 181.36C130.154 182.946 130.362 184.523 130.72 186.07C131.03 187.66 131.39 189.25 131.72 190.84L133.77 200.43Z" fill="#263238"/>
<path d="M151 215.37C151 215.37 134.14 187.37 134.53 181.22C134.92 175.07 131.61 137.53 134 134.22C136.39 130.91 142.94 133.22 146.92 144.75C150.9 156.28 154.75 180.19 155.36 181.57C155.97 182.95 170.49 203.88 171.51 206.19C172.53 208.5 151 215.37 151 215.37Z" fill="#D3766A"/>
<path d="M138.87 203.78C137.77 199.93 136.82 196.04 135.87 192.15C135.43 190.197 135.014 188.237 134.62 186.27C134.42 185.27 134.24 184.27 134.09 183.27C133.936 182.257 133.849 181.235 133.83 180.21C133.517 172.21 133.247 164.21 133.02 156.21L132.75 144.21V141.21C132.72 140.179 132.753 139.147 132.85 138.12C132.958 137.06 133.2 136.019 133.57 135.02C133.934 133.931 134.634 132.985 135.57 132.32C136.106 131.987 136.73 131.823 137.36 131.85C137.948 131.889 138.521 132.053 139.04 132.33C139.976 132.849 140.815 133.525 141.52 134.33C142.863 135.862 144.03 137.539 145 139.33C146.947 142.866 148.263 146.713 148.89 150.7C147.951 146.811 146.395 143.097 144.28 139.7C143.271 138.018 142.085 136.449 140.74 135.02C140.102 134.337 139.351 133.768 138.52 133.34C138.18 133.138 137.791 133.031 137.395 133.031C136.999 133.031 136.611 133.138 136.27 133.34C135.603 133.877 135.117 134.607 134.88 135.43C134.586 136.321 134.398 137.245 134.32 138.18C134.17 140.05 134.32 142.1 134.38 144.08L134.74 156.08C134.95 164.08 135.17 172.08 135.21 180.08C135.185 181.055 135.225 182.031 135.33 183C135.44 184 135.58 185 135.73 186C136.03 188 136.38 189.93 136.73 191.89L138.87 203.78Z" fill="#263238"/>
<path d="M150 215.69C150 215.69 141 187.98 141.4 182.23C141.8 176.48 137.9 151.01 140.13 147.9C142.36 144.79 148.45 146.9 152.13 157.7C155.81 168.5 160.19 181.25 160.76 182.54C161.33 183.83 170.52 204.02 171.47 206.17C172.42 208.32 150 215.69 150 215.69Z" fill="#D3766A"/>
<path d="M145.33 209C144.05 204 142.86 199 141.65 194C141.037 191.5 140.453 188.99 139.9 186.47L139.48 184.58C139.339 183.92 139.238 183.252 139.18 182.58C139.05 181.28 138.96 179.99 138.89 178.7C138.62 173.54 138.46 168.39 138.49 163.22C138.49 160.64 138.49 158.06 138.63 155.48C138.63 154.18 138.73 152.89 138.82 151.59C138.885 150.244 139.062 148.906 139.35 147.59C139.563 146.756 140.095 146.038 140.83 145.59C141.6 145.207 142.488 145.135 143.31 145.39C144.664 145.815 145.908 146.536 146.95 147.5C149.008 149.286 150.598 151.548 151.58 154.09C153.41 158.94 155.11 163.79 156.83 168.65C158.55 173.51 160.26 178.43 161.83 183.21C162.76 185.59 163.83 187.97 164.77 190.34C165.71 192.71 166.71 195.12 167.6 197.54C165.08 193.02 162.73 188.46 160.49 183.78L155.3 169.19C153.54 164.35 151.8 159.49 149.96 154.72C149.074 152.437 147.659 150.398 145.83 148.77C144.974 147.96 143.95 147.348 142.83 146.98C142.63 146.883 142.41 146.835 142.188 146.84C141.966 146.845 141.749 146.902 141.553 147.008C141.358 147.113 141.19 147.264 141.065 147.447C140.939 147.63 140.858 147.84 140.83 148.06C140.564 149.265 140.397 150.489 140.33 151.72C140.22 152.99 140.16 154.27 140.1 155.55C139.99 158.11 139.93 160.68 139.9 163.25C139.9 168.38 139.81 173.53 139.98 178.66C139.98 179.94 140.07 181.22 140.17 182.49C140.292 183.752 140.496 185.005 140.78 186.24L142.28 193.82L145.33 209Z" fill="#263238"/>
<path d="M160.79 182.54L166.16 193.62C167.93 197.32 169.68 201.03 171.38 204.77C174.79 212.24 178.05 219.77 181.04 227.44C182.5 231.29 183.92 235.15 185.04 239.18C185.323 240.206 185.544 241.248 185.7 242.3C185.782 242.863 185.809 243.432 185.78 244L185.67 245.57C185.463 247.645 185.129 249.706 184.67 251.74C183.815 255.79 182.621 259.761 181.1 263.61C180.344 265.531 179.486 267.41 178.53 269.24C177.62 271.093 176.499 272.834 175.19 274.43C177.343 270.948 179.025 267.195 180.19 263.27C180.83 261.33 181.4 259.38 181.88 257.4C182.36 255.42 182.8 253.4 183.15 251.4C183.5 249.4 183.74 247.4 183.89 245.4L183.96 243.9C183.971 243.445 183.938 242.989 183.86 242.54C183.7 241.59 183.45 240.62 183.19 239.65C182.1 235.77 180.64 231.94 179.19 228.13C176.26 220.49 173.09 212.93 169.98 205.35C166.87 197.77 163.65 190.25 160.79 182.54Z" fill="#263238"/>
<path d="M114.94 237.46L165.52 317.46C165.52 317.46 107.23 390.58 89.8902 398.14C69.7802 407 52.7502 354.47 70.6002 314.39L114.94 237.46Z" fill="#6C63FF"/>
<path opacity="0.1" d="M113.17 378.17C110.29 381.17 107.51 383.94 104.89 386.44C102.413 387.309 99.9947 388.338 97.6505 389.52C92.2705 392.23 87.1805 395.46 82.0305 398.58C79.9788 397.841 78.1147 396.66 76.5705 395.12C86.5105 389.12 96.1605 382.46 107.57 379.41C109.39 378.91 111.27 378.49 113.17 378.17ZM154.7 300.38C152.7 301.06 150.7 301.81 148.76 302.61C139.32 306.44 130.2 311.02 120.6 314.45C112.107 317.573 103.13 319.174 94.0805 319.18C85.9966 319.113 77.9802 317.701 70.3605 315C70.0005 315.81 69.6605 316.62 69.3605 317.44C74.58 319.81 80.0614 321.556 85.6905 322.64C94.5009 324.403 103.571 324.427 112.39 322.71C122.47 320.66 131.84 316.41 141.2 312.3C146.69 309.89 152.2 307.47 157.97 305.57L154.7 300.38ZM96.4905 327.31C86.1206 326.14 75.6234 326.92 65.5405 329.61C65.1271 331.363 64.7738 333.113 64.4805 334.86C73.1783 332.582 82.2057 331.831 91.1605 332.64C109.51 334.24 127.66 339.91 146.05 341.18C147.69 339.23 149.27 337.35 150.76 335.55C132.57 335.06 114.47 329.14 96.4905 327.31ZM132 264.45C125.916 267.355 119.447 269.376 112.79 270.45C107.177 271.27 101.48 271.33 95.8505 270.63L97.8505 267.11C105.083 267.194 112.276 266.027 119.11 263.66C122.437 262.482 125.695 261.12 128.87 259.58L132 264.45ZM117.46 241.45C115.177 242.376 112.956 243.448 110.81 244.66L114.95 237.48L117.46 241.45Z" fill="black"/>
<path d="M147.32 323.48C126.88 296.12 113.16 269.32 109.74 263.98C109.58 263.73 110 263.5 110.15 263.76C113.23 269.17 133.37 298.37 147.78 323.24C148 323.52 147.52 323.74 147.32 323.48Z" fill="#263238"/>
<path d="M160.05 307.36C159.988 307.263 159.89 307.194 159.778 307.168C159.666 307.143 159.548 307.162 159.45 307.222C159.352 307.282 159.281 307.379 159.253 307.49C159.225 307.602 159.242 307.72 159.3 307.82C160.65 310.19 163.9 316.27 163.94 316.82C163.94 317.18 154.21 329.09 151.01 333.14C144.67 341.193 138.164 349.11 131.49 356.89C124.817 364.67 117.947 372.373 110.88 380C107.65 383.48 104.47 387.07 100.98 390.3C97.8603 393.18 94.3003 395.8 90.1203 396.87C82.6903 398.79 74.5003 394.45 71.0503 387.77C70.6204 386.917 70.269 386.026 70.0003 385.11C70.0003 385.02 69.8303 385.04 69.8503 385.11C71.0903 392.99 78.4603 398.85 86.3103 399.05C95.7503 399.29 102.86 391.46 108.79 385.15C116.124 377.37 123.28 369.44 130.26 361.36C137.24 353.28 144.084 345.03 150.79 336.61C154.1 332.44 165.98 316.97 166.08 316.61C166.18 316.25 160.82 308.53 160.05 307.36Z" fill="#263238"/>
<path d="M119.53 243.87C119.21 243.24 114.87 236.21 114.72 236.46C112.47 240.16 110.2 244.26 108.12 248.06C107.12 249.94 106.04 251.81 105.03 253.71C103.971 255.541 103.022 257.435 102.19 259.38C102.19 259.47 102.3 259.54 102.35 259.47C103.56 257.781 104.662 256.017 105.65 254.19C106.76 252.31 107.83 250.4 108.92 248.5C110.92 244.94 113.1 241.19 114.92 238.19C115.53 239.19 118.59 243.54 119.04 244.13C119.075 244.195 119.134 244.244 119.204 244.265C119.274 244.287 119.35 244.28 119.415 244.245C119.48 244.211 119.529 244.152 119.551 244.081C119.572 244.011 119.565 243.935 119.53 243.87Z" fill="#263238"/>
<path d="M350.25 432.09H202V438.74H350.25V432.09Z" fill="#455A64"/>
<path d="M276.62 432.1H202V438.75H276.62V432.1Z" fill="#263238"/>
<path d="M282.39 438.74L426.88 438.71L447.27 340.58L302.79 340.6L282.39 438.74Z" fill="#263238"/>
<path d="M289.37 438.74L433.85 438.71L454.25 340.58L309.76 340.6L289.37 438.74Z" fill="#37474F"/>
<path d="M353.63 391.85C353.47 393.067 353.575 394.304 353.937 395.476C354.299 396.649 354.911 397.729 355.729 398.644C356.548 399.558 357.554 400.285 358.68 400.775C359.805 401.264 361.023 401.505 362.25 401.48C364.883 401.414 367.405 400.406 369.357 398.639C371.31 396.872 372.563 394.463 372.89 391.85C373.052 390.633 372.949 389.395 372.587 388.222C372.226 387.048 371.614 385.967 370.796 385.052C369.977 384.137 368.969 383.41 367.843 382.921C366.717 382.433 365.498 382.193 364.27 382.22C361.638 382.286 359.116 383.294 357.164 385.061C355.211 386.828 353.958 389.237 353.63 391.85Z" fill="white"/>
<path d="M423.49 405C423.49 405 431 378 437 368.84C443 359.68 454.22 349.58 454.22 349.58C454.22 349.58 454 391.24 423.49 405Z" fill="#6C63FF"/>
<path d="M424 404.57C426.537 400.342 428.827 395.972 430.86 391.48C431.724 386.651 432.974 381.899 434.6 377.27C434.6 377.18 434.75 377.27 434.73 377.32C433.73 381.59 432.57 385.82 431.52 390.07C434.52 383.5 437.44 376.84 441.06 370.62C441.896 367.618 443.067 364.72 444.55 361.98C444.55 361.9 444.72 361.98 444.68 361.98C443.766 364.093 442.984 366.26 442.34 368.47C444.044 365.696 445.956 363.055 448.06 360.57C448.19 360.41 448.45 360.57 448.32 360.75C443.51 367 440.17 374 437 381.11C440.422 377.399 443.58 373.453 446.45 369.3C446.45 369.3 446.54 369.3 446.51 369.35C443.519 373.999 440.136 378.385 436.4 382.46C434.08 387.67 431.8 392.9 429.04 397.86C434.56 393.2 438.81 387.16 443.04 381.34C443.062 381.321 443.089 381.309 443.118 381.307C443.147 381.304 443.176 381.312 443.2 381.328C443.224 381.344 443.242 381.368 443.251 381.395C443.26 381.423 443.26 381.453 443.25 381.48C439.04 387.87 434.69 393.89 428.64 398.62C427.427 400.797 426.091 402.904 424.64 404.93C424.593 405.015 424.513 405.077 424.419 405.104C424.326 405.13 424.225 405.118 424.14 405.07C424.055 405.022 423.993 404.943 423.967 404.849C423.94 404.755 423.953 404.655 424 404.57Z" fill="#263238"/>
<path d="M421.16 407.47C421.16 407.47 434.69 382.55 430.76 358.4C426.83 334.25 422.62 325.64 422.62 325.64C422.62 325.64 401.35 363.21 421.16 407.47Z" fill="#6C63FF"/>
<path d="M415.6 368.3C416.748 375.148 418.499 381.881 420.83 388.42C420.83 379.55 421.03 370.69 421.27 361.82C419.748 356.445 418.891 350.904 418.72 345.32C418.72 345.15 418.95 345.16 418.97 345.32C419.393 350.111 420.185 354.862 421.34 359.53C421.54 352.21 421.79 344.9 422.05 337.59C422.057 337.57 422.07 337.553 422.087 337.54C422.104 337.528 422.124 337.521 422.145 337.521C422.167 337.521 422.187 337.528 422.204 337.54C422.221 337.553 422.234 337.57 422.24 337.59C422.24 349.01 422.24 360.43 422.17 371.86C423.816 367.44 425.12 362.9 426.07 358.28H426.15C425.602 363.599 424.253 368.804 422.15 373.72C422.15 381.02 422.02 388.32 421.86 395.62C424.15 387.86 426.59 380.34 427.25 372.14C427.25 372.03 427.43 372.03 427.42 372.14C427.25 381.19 424.91 390.37 421.93 398.88C421.901 398.963 421.849 399.036 421.78 399.09C421.71 401.76 421.64 404.43 421.55 407.09C421.55 407.17 421.519 407.246 421.463 407.302C421.406 407.359 421.33 407.39 421.25 407.39C421.171 407.39 421.095 407.359 421.038 407.302C420.982 407.246 420.95 407.17 420.95 407.09C420.85 401.63 420.807 396.17 420.82 390.71C417.871 383.561 416.068 375.991 415.48 368.28C415.48 368.25 415.59 368.23 415.6 368.3Z" fill="#263238"/>
<path d="M416.53 364.45C417.003 366.618 417.317 368.817 417.47 371.03C417.47 371.1 417.36 371.11 417.35 371.03C416.822 368.873 416.448 366.68 416.23 364.47C416.21 364.31 416.5 364.28 416.53 364.45Z" fill="#263238"/>
<path d="M424.44 346.24C424.44 346.16 424.57 346.18 424.57 346.24C424.554 347.777 424.325 349.305 423.89 350.78C423.89 350.9 423.68 350.84 423.71 350.72C424 349.24 424.19 347.74 424.44 346.24Z" fill="#263238"/>
<path d="M416.22 409.37C416.22 409.37 416.77 383.37 409.31 370.44C404.447 362.372 397.626 355.662 389.48 350.93C389.48 350.93 394.47 396.77 416.22 409.37Z" fill="#6C63FF"/>
<path d="M402.63 387.13C405.625 391.674 409.001 395.956 412.72 399.93C411.227 394.596 409.507 389.37 407.56 384.25C403.38 380.58 399.23 376.78 396.66 371.76C396.66 371.68 396.74 371.61 396.78 371.69C399.54 376.13 403.23 379.69 407.11 383.11C404.118 375.364 400.652 367.809 396.73 360.49C396.72 360.471 396.713 360.451 396.71 360.43C396.708 360.409 396.709 360.388 396.715 360.367C396.726 360.326 396.753 360.291 396.79 360.27C396.827 360.249 396.871 360.243 396.913 360.254C396.954 360.265 396.989 360.293 397.01 360.33C399.398 364.165 401.574 368.128 403.53 372.2C402.83 369.42 402.27 366.57 401.53 363.82C401.53 363.804 401.536 363.789 401.548 363.777C401.559 363.766 401.574 363.76 401.59 363.76C401.606 363.76 401.621 363.766 401.633 363.777C401.644 363.789 401.65 363.804 401.65 363.82C403.112 367.349 404.139 371.043 404.71 374.82C407.322 380.589 409.517 386.537 411.28 392.62C411.09 388.72 410.84 384.84 410.44 380.95C410.44 380.88 410.56 380.86 410.57 380.95C411.405 385.265 411.784 389.656 411.7 394.05C412.78 397.93 413.683 401.846 414.41 405.8C414.41 405.91 414.27 405.95 414.25 405.85C413.84 404.19 413.4 402.55 412.95 400.91C412.95 400.91 412.89 400.91 412.87 400.91C408.708 396.947 405.228 392.325 402.57 387.23C402.57 387.23 402.61 387.11 402.63 387.13Z" fill="#263238"/>
<path d="M394 366C394.83 366.9 395.6 367.84 396.4 368.77C397.181 369.55 397.9 370.389 398.55 371.28C398.55 371.28 398.55 371.36 398.49 371.34C397.558 370.638 396.724 369.814 396.01 368.89C395.222 368.019 394.509 367.082 393.88 366.09C393.876 366.074 393.876 366.058 393.881 366.042C393.886 366.027 393.896 366.013 393.909 366.003C393.922 365.993 393.938 365.988 393.954 365.987C393.97 365.987 393.987 365.991 394 366Z" fill="#263238"/>
<path d="M438.39 406.2L437.45 414.54L434.61 439.74H409.9L407.06 414.54L406.12 406.2H438.39Z" fill="#DBDBDB"/>
<path d="M438.39 406.2L437.45 414.54H407.06L406.12 406.2H438.39Z" fill="#A6A6A6"/>
<path d="M403.93 409.6H440.58V400.16H403.93V409.6Z" fill="#DBDBDB"/>
<path d="M448.61 172.61V303.63H394.07L383.09 325.64L372.12 303.63H317.58V172.61H448.61Z" fill="white"/>
<path d="M448.61 172.61L448.82 238.04L448.93 303.63V304H448.61L394.07 304.06L394.42 303.85L383.47 325.85L383.09 326.6L382.71 325.85L371.71 303.85L372.11 304.1H317.57H317.09V303.61L317.25 172.61V172.29H317.57L383.17 172.4L448.61 172.61ZM448.61 172.61L383.01 172.83L317.58 172.94L317.9 172.61L318.06 303.61L317.58 303.13H372.12H372.4L372.52 303.38L383.52 325.38H382.76L393.76 303.38L393.87 303.16H394.11L448.65 303.23L448.33 303.55L448.44 238.13L448.61 172.61Z" fill="#263238"/>
<path d="M344.98 232.49L378.78 240.6L421.21 236.28L382.65 229.52L344.98 232.49Z" fill="#6C63FF"/>
<path opacity="0.3" d="M344.98 232.49L378.78 240.6L421.21 236.28L382.65 229.52L344.98 232.49Z" fill="black"/>
<path d="M350.11 278.76L344.98 232.49L378.78 240.6V288.79L350.11 278.76Z" fill="#6C63FF"/>
<path opacity="0.1" d="M350.11 278.76L344.98 232.49L378.78 240.6V288.79L350.11 278.76Z" fill="black"/>
<path d="M359.39 282.01L367.57 284.87L364.73 237.23L355.4 234.99L359.39 282.01Z" fill="#37474F"/>
<path d="M378.78 240.6V288.79L415.49 282.22L421.21 236.28L378.78 240.6Z" fill="#6C63FF"/>
<path d="M393.31 286.19L402.6 284.53L407.07 237.73L395.63 238.89L393.31 286.19Z" fill="#455A64"/>
<path d="M423.32 206.82L387.01 213.59L387.69 200.42L424.92 195.08L423.32 206.82Z" fill="#6C63FF"/>
<path opacity="0.2" d="M423.32 206.82L387.01 213.59L387.69 200.42L424.92 195.08L423.32 206.82Z" fill="black"/>
<path d="M342.11 206.66L341.27 194.28L387.69 200.42L387.01 213.59L342.11 206.66Z" fill="#6C63FF"/>
<path opacity="0.1" d="M342.11 206.66L341.27 194.28L387.69 200.42L387.01 213.59L342.11 206.66Z" fill="black"/>
<path d="M411.3 209.06L400.52 211.07L401.73 198.4L412.73 196.82L411.3 209.06Z" fill="#37474F"/>
<path d="M370.87 211.09L357.87 209.09L357.24 196.4L370.91 198.2L370.87 211.09Z" fill="#455A64"/>
<path d="M424.92 195.08L387.69 200.42L341.27 194.28L382.82 191.54L424.92 195.08Z" fill="#6C63FF"/>
<path d="M412.73 196.82L369.47 192.42L360.33 193.03L401.73 198.4L412.73 196.82Z" fill="#455A64"/>
<path d="M370.91 198.2L357.24 196.4L396.96 192.73L407.86 193.65L370.91 198.2Z" fill="#455A64"/>
<path d="M394.56 191.89C394.56 191.89 402.01 190.08 406.51 193.43C411.01 196.78 412.73 201.24 414.32 202.31C415.91 203.38 421.51 203.2 421.51 203.2L416.51 213.48C416.51 213.48 413.26 214.48 409.89 210.25C406.52 206.02 405.23 200.18 401.73 197.53C398.23 194.88 393.16 194.38 393.16 194.38L394.56 191.89Z" fill="#455A64"/>
<path d="M404 200C404.961 197.735 405.513 195.318 405.63 192.86C401.1 190.3 394.55 191.86 394.55 191.86L393.18 194.35C393.18 194.35 398.26 194.86 401.75 197.5C402.637 198.199 403.398 199.044 404 200Z" fill="#37474F"/>
<path d="M383 192.48C383 192.48 375.69 189.77 370.35 192.36C365.01 194.95 362.24 198.58 360.35 199.36C358.46 200.14 352.7 198.84 352.7 198.84L355.82 210.53C355.82 210.53 358.99 212.23 363.34 208.53C367.69 204.83 370.2 198.99 374.34 196.94C378.48 194.89 383.86 195.32 383.86 195.32L383 192.48Z" fill="#455A64"/>
<path d="M367.3 204.17C369.61 201.24 371.63 198.26 374.37 196.91C378.53 194.91 383.89 195.29 383.89 195.29L382.99 192.48C382.99 192.48 375.68 189.77 370.34 192.36C369.27 192.874 368.237 193.462 367.25 194.12C366.696 197.449 366.713 200.847 367.3 204.17Z" fill="#37474F"/>
<path d="M367.3 204.17C366.647 205.322 365.847 206.384 364.92 207.33C364.461 207.81 363.966 208.254 363.44 208.66C362.916 209.066 362.342 209.402 361.73 209.66C363.75 208 365.4 206 367.3 204.17Z" fill="#263238"/>
<path d="M365.05 195.72C364.51 196.23 364 196.77 363.45 197.29C362.918 197.817 362.353 198.312 361.76 198.77C361.445 199.01 361.111 199.224 360.76 199.41C360.409 199.601 360.02 199.714 359.62 199.74C358.863 199.815 358.098 199.757 357.36 199.57C358.099 199.567 358.835 199.497 359.56 199.36C360.255 199.191 360.896 198.847 361.42 198.36L363.2 197C363.781 196.524 364.4 196.096 365.05 195.72Z" fill="#263238"/>
<path d="M370 192.46C370.19 194.27 378.78 196.35 384.34 194.26C384.34 194.26 380.1 190.26 375.89 190.11C371.68 189.96 369.94 191.67 370 192.46Z" fill="#263238"/>
<path d="M384.36 194.26V192.66C381.06 186.42 375.09 183.74 374.63 183.74C374.17 183.74 371.76 185.74 370.73 187.74C370.074 189.225 369.829 190.858 370.02 192.47C370.09 191.88 371.78 190.32 375.02 190.47C378.26 190.62 383.63 193.41 384.36 194.26Z" fill="#455A64"/>
<path d="M384.36 193.64V192.93C383.642 191.783 382.696 190.796 381.58 190.03C382.12 190.61 382.63 191.2 383.12 191.81C381.765 190.785 380.307 189.904 378.77 189.18C378.71 189.18 378.65 189.25 378.72 189.28C380.759 190.515 382.651 191.978 384.36 193.64Z" fill="#263238"/>
<path d="M373.63 206.06C375.44 207.2 382.12 201.62 384.23 194.95C384.23 194.95 378.96 195.05 375.71 198.81C372.46 202.57 372.84 205.56 373.63 206.06Z" fill="#263238"/>
<path d="M384.23 195V192.89C376.04 191.39 369.23 194.97 368.87 195.4C368.51 195.83 368.61 199.51 369.72 201.92C370.83 204.33 374.07 206.53 373.58 206.03C373.09 205.53 372.88 202.83 375.37 199.92C377.773 197.441 380.856 195.729 384.23 195Z" fill="#455A64"/>
<path d="M384.24 194.18V193.68C381.633 193.761 379.077 194.424 376.76 195.62C376.69 195.62 376.76 195.77 376.81 195.74C378.127 195.217 379.489 194.815 380.88 194.54C381.99 194.341 383.113 194.221 384.24 194.18Z" fill="#263238"/>
<path d="M370.9 203.64C370.483 203.402 370.138 203.057 369.9 202.64C369.776 202.442 369.675 202.231 369.6 202.01C369.529 201.78 369.502 201.539 369.52 201.3C369.815 201.635 370.082 201.993 370.32 202.37C370.57 202.765 370.765 203.192 370.9 203.64Z" fill="#263238"/>
<path d="M402 192.65C401.79 194.46 393.17 196.44 387.64 194.28C387.64 194.28 391.93 190.37 396.15 190.23C400.37 190.09 402.06 191.87 402 192.65Z" fill="#263238"/>
<path d="M401.32 187.92C400.32 185.92 397.92 183.92 397.46 183.92C397 183.92 391 186.52 387.63 192.72V194.32C388.37 193.48 393.76 190.7 397.01 190.61C400.26 190.52 401.93 192.1 402.01 192.69C402.218 191.067 401.979 189.418 401.32 187.92Z" fill="#455A64"/>
<path d="M393.57 188.3C392.047 189.05 390.644 190.024 389.41 191.19C388.782 191.769 388.187 192.383 387.63 193.03V193.88C388.236 193.066 388.905 192.301 389.63 191.59C390.873 190.42 392.234 189.382 393.69 188.49C393.715 188.474 393.733 188.449 393.739 188.42C393.746 188.391 393.741 188.36 393.725 188.335C393.709 188.31 393.684 188.292 393.655 188.285C393.626 188.279 393.595 188.284 393.57 188.3Z" fill="#263238"/>
<path d="M398.22 206.19C396.39 207.32 389.77 201.67 387.73 194.97C387.73 194.97 393 195.13 396.21 198.97C399.42 202.81 399 205.7 398.22 206.19Z" fill="#263238"/>
<path d="M403.08 195.56C402.75 195.13 395.95 191.46 387.74 192.86V195C391.101 195.765 394.162 197.504 396.54 200C398.99 202.95 398.74 205.65 398.25 206.14C397.76 206.63 401.02 204.48 402.16 202.08C403.3 199.68 403.4 196 403.08 195.56Z" fill="#455A64"/>
<path d="M396 197.1C394.971 195.935 393.633 195.085 392.14 194.65C391.051 194.278 389.929 194.007 388.79 193.84C389.496 193.8 390.204 193.8 390.91 193.84C392.177 193.984 393.424 194.266 394.63 194.68C394.71 194.68 394.74 194.58 394.68 194.54C392.82 193.35 390.03 193.24 387.79 193.54V194.22C389.032 194.354 390.262 194.581 391.47 194.9C393.122 195.263 394.652 196.049 395.91 197.18C395.91 197.18 396 197.15 396 197.1Z" fill="#263238"/>
<path d="M388.79 193.18C388.79 192.75 388.65 191.18 388.06 190.93C387.47 190.68 386.43 191.04 386.16 191.04C385.89 191.04 384.86 190.66 384.27 190.9C383.68 191.14 383.53 192.72 383.51 193.15C383.49 193.58 383.51 195.25 384.07 195.44C384.763 195.503 385.462 195.453 386.14 195.29C386.812 195.459 387.508 195.52 388.2 195.47C388.75 195.28 388.79 193.61 388.79 193.18Z" fill="#455A64"/>
<path d="M423.74 224.19L442 220.51L442.13 225.15L423.74 224.19Z" fill="#6C63FF"/>
<path d="M422.36 216.97L430 208.28L432.25 210.8L422.36 216.97Z" fill="#6C63FF"/>
<path d="M421.99 225.86L432.25 230.92L430.71 234.04L421.99 225.86Z" fill="#6C63FF"/>
<path d="M342.45 218.14L324.19 221.81L324.06 217.17L342.45 218.14Z" fill="#6C63FF"/>
<path d="M343.83 225.35L336.19 234.04L333.94 231.52L343.83 225.35Z" fill="#6C63FF"/>
<path d="M344.2 216.47L333.94 211.4L335.47 208.28L344.2 216.47Z" fill="#6C63FF"/>
<path d="M168.77 100.99L143.9 74.1499L151.54 69.1699L168.77 100.99Z" fill="#455A64"/>
<path d="M161.16 109.68L138.78 105.79L140.69 99.4302L161.16 109.68Z" fill="#455A64"/>
<path d="M173.75 97.6399L171.72 75.2499L178.52 74.6299L173.75 97.6399Z" fill="#455A64"/>
<path d="M45.75 439.07L96.82 438.83L147.88 438.74L250 438.58L352.12 438.74L403.19 438.83L454.25 439.07L403.19 439.32L352.12 439.41L250 439.57L147.88 439.41L96.82 439.32L45.75 439.07Z" fill="#263238"/>
</svg>
