<svg width="500" height="500" viewBox="0 0 500 500" fill="none" xmlns="http://www.w3.org/2000/svg">
<path d="M500 382.4H0V382.65H500V382.4Z" fill="#EBEBEB"/>
<path d="M449.9 398.49H435V398.74H449.9V398.49Z" fill="#EBEBEB"/>
<path d="M331.22 401.21H322.53V401.46H331.22V401.21Z" fill="#EBEBEB"/>
<path d="M430.78 389.21H396.59V389.46H430.78V389.21Z" fill="#EBEBEB"/>
<path d="M109.63 394.37H66.4404V394.62H109.63V394.37Z" fill="#EBEBEB"/>
<path d="M134.11 394.37H118.53V394.62H134.11V394.37Z" fill="#EBEBEB"/>
<path d="M254.76 391.01H161.08V391.26H254.76V391.01Z" fill="#EBEBEB"/>
<path d="M237 337.8H43.91C42.3973 337.797 40.9475 337.195 39.8788 336.124C38.8102 335.054 38.21 333.603 38.21 332.09V60.66C38.2231 59.156 38.8292 57.718 39.8964 56.6582C40.9637 55.5985 42.4059 55.0026 43.91 55H237C238.514 55 239.967 55.6016 241.038 56.6724C242.108 57.7433 242.71 59.1956 242.71 60.71V332.09C242.71 333.604 242.108 335.057 241.038 336.128C239.967 337.198 238.514 337.8 237 337.8ZM43.91 55.2C42.4636 55.2026 41.0774 55.7791 40.0556 56.8027C39.0338 57.8264 38.46 59.2136 38.46 60.66V332.09C38.46 333.536 39.0338 334.924 40.0556 335.947C41.0774 336.971 42.4636 337.547 43.91 337.55H237C238.447 337.547 239.834 336.971 240.858 335.948C241.881 334.924 242.457 333.537 242.46 332.09V60.66C242.457 59.2127 241.881 57.8255 240.858 56.8021C239.834 55.7787 238.447 55.2026 237 55.2H43.91Z" fill="#EBEBEB"/>
<path d="M453.31 337.8H260.21C258.696 337.797 257.246 337.195 256.175 336.125C255.105 335.054 254.503 333.604 254.5 332.09V60.66C254.516 59.1551 255.124 57.7171 256.193 56.6576C257.262 55.5981 258.705 55.0025 260.21 55H453.31C454.812 55.0052 456.252 55.6022 457.317 56.6617C458.382 57.7212 458.987 59.1578 459 60.66V332.09C459 333.601 458.401 335.05 457.335 336.121C456.268 337.191 454.821 337.795 453.31 337.8ZM260.21 55.2C258.763 55.2026 257.375 55.7787 256.352 56.8021C255.329 57.8255 254.753 59.2127 254.75 60.66V332.09C254.753 333.537 255.329 334.924 256.352 335.948C257.375 336.971 258.763 337.547 260.21 337.55H453.31C454.757 337.547 456.145 336.971 457.168 335.948C458.191 334.924 458.767 333.537 458.77 332.09V60.66C458.767 59.2127 458.191 57.8255 457.168 56.8021C456.145 55.7787 454.757 55.2026 453.31 55.2H260.21Z" fill="#EBEBEB"/>
<path d="M428.78 357.22C400.88 349.76 366.3 357.67 292.56 363.67C218.82 369.67 237.89 325 153.67 329.67C69.45 334.34 18.5 382.4 18.5 382.4H469.58C469.58 382.4 465.47 367 428.78 357.22Z" fill="#FAFAFA"/>
<path d="M377.33 280.33C397.394 280.33 413.66 264.064 413.66 244C413.66 223.935 397.394 207.67 377.33 207.67C357.265 207.67 341 223.935 341 244C341 264.064 357.265 280.33 377.33 280.33Z" fill="#F5F5F5"/>
<path d="M387.216 282.165C390.431 262.36 376.982 243.699 357.176 240.484C337.371 237.269 318.71 250.718 315.495 270.523C312.28 290.329 325.729 308.99 345.534 312.205C365.34 315.42 384.001 301.971 387.216 282.165Z" fill="#F5F5F5"/>
<path d="M402.759 291.665C411.549 282.874 411.549 268.621 402.759 259.831C393.968 251.04 379.715 251.04 370.925 259.831C362.134 268.621 362.134 282.874 370.925 291.665C379.715 300.455 393.968 300.455 402.759 291.665Z" fill="#F5F5F5"/>
<path d="M338.35 238.21C355.216 238.21 368.89 224.537 368.89 207.67C368.89 190.803 355.216 177.13 338.35 177.13C321.483 177.13 307.81 190.803 307.81 207.67C307.81 224.537 321.483 238.21 338.35 238.21Z" fill="#F5F5F5"/>
<path d="M170.449 208.401C170.849 188.341 154.91 171.755 134.849 171.356C114.789 170.956 98.203 186.895 97.8039 206.956C97.4047 227.016 113.343 243.602 133.404 244.001C153.464 244.4 170.05 228.462 170.449 208.401Z" fill="#F5F5F5"/>
<path d="M197.107 248.054C208.679 231.662 204.771 208.994 188.38 197.422C171.988 185.851 149.32 189.758 137.748 206.15C126.176 222.541 130.084 245.21 146.475 256.781C162.867 268.353 185.536 264.445 197.107 248.054Z" fill="#F5F5F5"/>
<path d="M112.164 249.569C127.761 243.15 135.202 225.302 128.782 209.704C122.363 194.107 104.515 186.666 88.9175 193.086C73.32 199.505 65.8796 217.353 72.2989 232.95C78.7181 248.548 96.5662 255.988 112.164 249.569Z" fill="#F5F5F5"/>
<path d="M51.9297 243.23H66.1297L62.0897 233.44L51.9297 243.23Z" fill="#E0E0E0"/>
<path d="M168.45 235.89L108.65 203.15L60.3301 235.89V382.4H168.45V235.89Z" fill="#F0F0F0"/>
<path d="M168.45 382.4H365.75V235.89L168.45 235.89L168.45 382.4Z" fill="#E6E6E6"/>
<path d="M168.45 235.89H365.75V251.19L168.45 253.7V235.89Z" fill="#E0E0E0"/>
<path d="M138.69 281.47H78.6104V382.4H138.69V281.47Z" fill="#E0E0E0"/>
<path d="M83.9096 284.74H73.3096V382.4H83.9096V284.74Z" fill="#FAFAFA"/>
<path d="M83.9105 382.4H85.2305L85.2305 284.74H83.9105L83.9105 382.4Z" fill="#E6E6E6"/>
<path d="M143.99 382.4H145.31V284.74H143.99V382.4Z" fill="#E6E6E6"/>
<path d="M143.99 284.74H133.39V382.4H143.99V284.74Z" fill="#FAFAFA"/>
<path d="M147.974 285.406L147.609 274.812L68.9459 277.518L69.3103 288.112L147.974 285.406Z" fill="#FAFAFA"/>
<path d="M149.23 285.366L148.865 274.772L147.616 274.815L147.98 285.409L149.23 285.366Z" fill="#E6E6E6"/>
<path d="M108.65 199.39V205.6L173.84 243.23L177.61 238.52L108.65 199.39Z" fill="#FAFAFA"/>
<path d="M108.65 199.39V205.6L51.9299 243.23L48.1699 238.52L108.65 199.39Z" fill="#FAFAFA"/>
<path d="M371.61 238.52V244.73L173.84 243.23L177.61 238.52H371.61Z" fill="#FAFAFA"/>
<path d="M108.65 199.39H317.68L371.61 238.52H177.61L108.65 199.39Z" fill="#EBEBEB"/>
<path d="M237.89 323L233.56 320.78L228.33 323V382.4H237.89V323Z" fill="#F5F5F5"/>
<path d="M306.11 323L301.78 320.78L296.56 323V382.4H306.11V323Z" fill="#F5F5F5"/>
<path d="M391.44 323L387.11 320.78L381.89 323V382.4H391.44V323Z" fill="#F5F5F5"/>
<path d="M448.67 323L444.33 320.78L439.11 323V382.4H448.67V323Z" fill="#F5F5F5"/>
<path d="M310.265 331.549L221.273 336.15L221.692 344.239L310.683 339.638L310.265 331.549Z" fill="#F5F5F5"/>
<path d="M453.62 332.196L377.103 336.152L377.521 344.242L454.039 340.285L453.62 332.196Z" fill="#F5F5F5"/>
<path d="M399.904 338.986L303.001 335.975L302.749 344.071L399.653 347.082L399.904 338.986Z" fill="#F5F5F5"/>
<path d="M410.29 141.92C405.59 133.63 397.71 127.72 390.37 127.72C388.267 127.678 386.193 128.228 384.388 129.309C382.582 130.389 381.117 131.956 380.16 133.83C377.821 131.747 374.839 130.53 371.71 130.38C366.71 130.38 363.51 134.38 363.32 140.01C360.953 138.764 358.35 138.031 355.68 137.86C350.68 137.6 346.97 139.86 345.39 143.63C344.422 143.012 343.316 142.644 342.17 142.56C339.27 142.41 337.68 144.73 338.61 147.73C338.67 147.92 338.74 148.1 338.81 148.28H419.94C419.77 145.34 413.89 142.07 410.29 141.92Z" fill="#FAFAFA"/>
<path d="M184.03 166.37C210.932 166.37 232.74 144.562 232.74 117.66C232.74 90.7582 210.932 68.95 184.03 68.95C157.129 68.95 135.32 90.7582 135.32 117.66C135.32 144.562 157.129 166.37 184.03 166.37Z" fill="#F0F0F0"/>
<path d="M311.52 104.63C303.97 91.3199 291.34 81.8399 279.52 81.8399C276.146 81.7734 272.821 82.6571 269.924 84.3899C267.028 86.1228 264.677 88.635 263.14 91.6399C258.92 88.1799 254.14 86.1099 249.58 86.1099C241.58 86.1099 236.41 92.5199 236.12 101.56C232.315 99.5678 228.136 98.3927 223.85 98.1099C215.78 97.6999 209.85 101.39 207.34 107.38C205.789 106.379 204.012 105.784 202.17 105.65C197.52 105.42 194.97 109.14 196.46 113.95C196.56 114.25 196.67 114.54 196.77 114.83H327C326.73 110.12 317.3 104.86 311.52 104.63Z" fill="#FAFAFA"/>
<path d="M157.58 143.87C157.361 143.839 157.141 143.822 156.92 143.82C154.53 140.82 151.77 138.91 149.4 138.91C148.584 138.914 147.79 139.176 147.132 139.66C146.475 140.143 145.987 140.822 145.74 141.6C141.35 135.78 136.13 132 131.68 132C128.09 132 125.68 134.46 124.62 138.47C122.26 136.19 119.76 134.82 117.54 134.82C113.64 134.82 111.72 139.05 112.41 145.02C110.54 143.753 108.386 142.967 106.14 142.73C102.19 142.46 99.66 144.89 98.98 148.85C98.2175 148.224 97.2903 147.832 96.31 147.72C94.15 147.57 93.22 149.72 94.11 152.67H168.43C166.36 148.25 161.64 144.37 157.58 143.87Z" fill="#FAFAFA"/>
<path d="M436.12 97.6301H435.75C434.37 95.9001 432.75 94.8001 431.41 94.8001C430.942 94.8051 430.487 94.9575 430.11 95.2357C429.733 95.514 429.453 95.9039 429.31 96.3501C426.79 93.0001 423.78 90.8201 421.22 90.8201C419.15 90.8201 417.75 92.2401 417.16 94.5501C416.111 93.3636 414.655 92.6142 413.08 92.4501C410.83 92.4501 409.73 94.8801 410.08 98.3101C409.015 97.5885 407.789 97.1387 406.51 97.0001C404.24 96.8401 402.78 98.2401 402.39 100.52C401.949 100.162 401.415 99.9365 400.85 99.8701C399.61 99.7801 399.08 101.04 399.59 102.72H442.37C441.18 100.15 438.46 97.9201 436.12 97.6301Z" fill="#F5F5F5"/>
<path d="M250 427.56C357.083 427.56 443.89 422.492 443.89 416.24C443.89 409.988 357.083 404.92 250 404.92C142.918 404.92 56.1104 409.988 56.1104 416.24C56.1104 422.492 142.918 427.56 250 427.56Z" fill="#F5F5F5"/>
<path d="M301.74 99.78C299.854 98.5967 298.031 97.3149 296.28 95.94C296.147 95.5812 295.962 95.2442 295.73 94.94C296.84 95.34 298 95.8 299.14 96.32C299.176 96.3303 299.214 96.3303 299.25 96.32C299.304 96.3202 299.357 96.3053 299.402 96.277C299.448 96.2487 299.486 96.2082 299.51 96.16C299.538 96.0906 299.539 96.0132 299.513 95.9428C299.488 95.8725 299.436 95.8144 299.37 95.78C297.91 95.13 296.42 94.55 295.05 94.07C289.33 87.36 280.34 80.19 274.98 80.89C274.2 80.5 273.4 80.08 272.61 79.64C272.578 79.6205 272.544 79.6077 272.507 79.6022C272.471 79.5967 272.434 79.5986 272.398 79.608C272.363 79.6174 272.329 79.6339 272.3 79.6566C272.271 79.6793 272.247 79.7077 272.23 79.74C272.193 79.8053 272.182 79.8825 272.201 79.9552C272.22 80.0279 272.266 80.0906 272.33 80.13C272.92 80.46 273.51 80.78 274.1 81.13C273.683 81.2713 273.282 81.4521 272.9 81.67L272.23 81.57C271.23 81 270.23 80.37 269.31 79.7C269.279 79.679 269.245 79.6641 269.21 79.6562C269.174 79.6484 269.136 79.6477 269.1 79.6542C269.064 79.6607 269.029 79.6743 268.998 79.6941C268.967 79.714 268.941 79.7398 268.92 79.77C268.877 79.8326 268.86 79.9095 268.873 79.9843C268.886 80.0591 268.928 80.1258 268.99 80.17C269.6 80.59 270.21 80.99 270.83 81.37L269.68 81.24C269.606 81.2366 269.534 81.2601 269.477 81.3062C269.42 81.3522 269.382 81.4176 269.37 81.49C269.364 81.5654 269.388 81.6399 269.437 81.6978C269.485 81.7557 269.555 81.7924 269.63 81.8C269.63 81.8 270.63 81.9 272.04 82.11H272.13C268.28 84.74 263.5 90.95 261.18 94.61C266.08 104.39 290.9 109.76 290.9 109.76C290.9 109.76 291.5 105.07 295.74 99.46C295.837 99.3131 295.924 99.1594 296 99C296.94 99.77 297.55 100.22 297.56 100.24C297.615 100.254 297.674 100.254 297.73 100.24C297.774 100.24 297.817 100.23 297.857 100.211C297.897 100.192 297.932 100.164 297.96 100.13C298.004 100.069 298.022 99.9925 298.011 99.9178C298 99.8431 297.96 99.7757 297.9 99.73C297.9 99.73 297.24 99.24 296.24 98.42C296.447 97.8789 296.523 97.2961 296.46 96.72C299.16 98.79 301.46 100.17 301.46 100.19C301.509 100.204 301.561 100.204 301.61 100.19C301.658 100.192 301.705 100.18 301.747 100.158C301.79 100.135 301.825 100.101 301.85 100.06C301.859 100.008 301.853 99.954 301.834 99.9046C301.814 99.8553 301.782 99.8122 301.74 99.78Z" fill="#6C63FF"/>
<path d="M311.51 110.38C312.51 110.58 313.18 110.68 313.2 110.68C313.268 110.681 313.333 110.657 313.385 110.613C313.436 110.568 313.47 110.507 313.48 110.44C313.486 110.403 313.484 110.366 313.475 110.329C313.466 110.293 313.449 110.259 313.427 110.23C313.405 110.2 313.377 110.175 313.345 110.156C313.312 110.137 313.277 110.125 313.24 110.12C313.24 110.12 312.18 109.95 310.61 109.62C310.33 109.39 310.04 109.17 309.74 108.94C310.86 108.94 312.02 108.88 313.19 108.94C313.264 108.94 313.335 108.91 313.388 108.858C313.44 108.805 313.47 108.734 313.47 108.66C313.47 108.586 313.442 108.516 313.392 108.462C313.342 108.408 313.273 108.375 313.2 108.37C311.77 108.37 310.34 108.37 309.01 108.44C308.53 108.1 308.01 107.78 307.51 107.44C310.45 107.88 312.64 108.02 312.67 108.02C312.741 108.02 312.809 107.993 312.861 107.945C312.913 107.897 312.945 107.831 312.95 107.76C312.953 107.723 312.948 107.686 312.936 107.651C312.925 107.616 312.906 107.584 312.882 107.556C312.858 107.528 312.829 107.505 312.796 107.489C312.763 107.472 312.727 107.463 312.69 107.46C310.471 107.296 308.261 107.019 306.07 106.63C304.305 105.698 302.431 104.993 300.49 104.53C286.15 101.25 272.29 91.84 262.58 89.83C259.02 89.1 254.15 88 249.48 87.1C247.031 86.0812 244.653 84.902 242.36 83.57C242.328 83.5503 242.292 83.5373 242.255 83.5317C242.218 83.526 242.18 83.5279 242.144 83.5373C242.107 83.5466 242.073 83.5632 242.043 83.586C242.013 83.6088 241.988 83.6373 241.97 83.67C241.933 83.7338 241.923 83.8094 241.942 83.8805C241.961 83.9516 242.007 84.0125 242.07 84.05C243.07 84.62 244 85.14 244.94 85.62C242.94 85.1 241.02 84.73 239.59 84.49C238.64 83.9 237.66 83.26 236.7 82.57C236.64 82.5265 236.566 82.5084 236.492 82.5196C236.419 82.5309 236.354 82.5705 236.31 82.63C236.268 82.6921 236.251 82.7676 236.262 82.8416C236.273 82.9156 236.312 82.9828 236.37 83.03C236.97 83.46 237.58 83.87 238.19 84.27C237.48 84.16 237.06 84.11 237.04 84.11C237.003 84.106 236.966 84.1094 236.93 84.1198C236.895 84.1303 236.862 84.1476 236.833 84.1708C236.804 84.194 236.78 84.2227 236.763 84.2551C236.745 84.2876 236.734 84.3232 236.73 84.36C236.726 84.3968 236.729 84.4339 236.74 84.4694C236.75 84.5049 236.767 84.538 236.791 84.5668C236.814 84.5956 236.843 84.6195 236.875 84.6372C236.907 84.6549 236.943 84.666 236.98 84.67C236.98 84.67 237.98 84.79 239.38 85.03C239.75 85.26 240.11 85.48 240.46 85.68C236.69 85.32 234.23 85.57 234.75 87.04C235.85 90.19 242.69 94.1 251.2 96.1C249.77 96.04 248.2 95.93 246.64 95.73C246.566 95.7242 246.493 95.7469 246.435 95.7934C246.378 95.8398 246.34 95.9066 246.33 95.98C246.321 96.0528 246.342 96.126 246.387 96.184C246.431 96.242 246.497 96.28 246.57 96.29C248.992 96.5824 251.43 96.7227 253.87 96.71H254.26C255.39 96.9 256.53 97.07 257.7 97.19C269.01 98.31 290.04 116.96 303.34 120.51C319.24 124.74 318.42 116.65 311.51 110.38Z" fill="#6C63FF"/>
<path opacity="0.3" d="M311.51 110.38C312.51 110.58 313.18 110.68 313.2 110.68C313.268 110.681 313.333 110.657 313.385 110.613C313.436 110.568 313.47 110.507 313.48 110.44C313.486 110.403 313.484 110.366 313.475 110.329C313.466 110.293 313.449 110.259 313.427 110.23C313.405 110.2 313.377 110.175 313.345 110.156C313.312 110.137 313.277 110.125 313.24 110.12C313.24 110.12 312.18 109.95 310.61 109.62C310.33 109.39 310.04 109.17 309.74 108.94C310.86 108.94 312.02 108.88 313.19 108.94C313.264 108.94 313.335 108.91 313.388 108.858C313.44 108.805 313.47 108.734 313.47 108.66C313.47 108.586 313.442 108.516 313.392 108.462C313.342 108.408 313.273 108.375 313.2 108.37C311.77 108.37 310.34 108.37 309.01 108.44C308.53 108.1 308.01 107.78 307.51 107.44C310.45 107.88 312.64 108.02 312.67 108.02C312.741 108.02 312.809 107.993 312.861 107.945C312.913 107.897 312.945 107.831 312.95 107.76C312.953 107.723 312.948 107.686 312.936 107.651C312.925 107.616 312.906 107.584 312.882 107.556C312.858 107.528 312.829 107.505 312.796 107.489C312.763 107.472 312.727 107.463 312.69 107.46C310.471 107.296 308.261 107.019 306.07 106.63C304.305 105.698 302.431 104.993 300.49 104.53C286.15 101.25 272.29 91.84 262.58 89.83C259.02 89.1 254.15 88 249.48 87.1C247.031 86.0812 244.653 84.902 242.36 83.57C242.328 83.5503 242.292 83.5373 242.255 83.5317C242.218 83.526 242.18 83.5279 242.144 83.5373C242.107 83.5466 242.073 83.5632 242.043 83.586C242.013 83.6088 241.988 83.6373 241.97 83.67C241.933 83.7338 241.923 83.8094 241.942 83.8805C241.961 83.9516 242.007 84.0125 242.07 84.05C243.07 84.62 244 85.14 244.94 85.62C242.94 85.1 241.02 84.73 239.59 84.49C238.64 83.9 237.66 83.26 236.7 82.57C236.64 82.5265 236.566 82.5084 236.492 82.5196C236.419 82.5309 236.354 82.5705 236.31 82.63C236.268 82.6921 236.251 82.7676 236.262 82.8416C236.273 82.9156 236.312 82.9828 236.37 83.03C236.97 83.46 237.58 83.87 238.19 84.27C237.48 84.16 237.06 84.11 237.04 84.11C237.003 84.106 236.966 84.1094 236.93 84.1198C236.895 84.1303 236.862 84.1476 236.833 84.1708C236.804 84.194 236.78 84.2227 236.763 84.2551C236.745 84.2876 236.734 84.3232 236.73 84.36C236.726 84.3968 236.729 84.4339 236.74 84.4694C236.75 84.5049 236.767 84.538 236.791 84.5668C236.814 84.5956 236.843 84.6195 236.875 84.6372C236.907 84.6549 236.943 84.666 236.98 84.67C236.98 84.67 237.98 84.79 239.38 85.03C239.75 85.26 240.11 85.48 240.46 85.68C236.69 85.32 234.23 85.57 234.75 87.04C235.85 90.19 242.69 94.1 251.2 96.1C249.77 96.04 248.2 95.93 246.64 95.73C246.566 95.7242 246.493 95.7469 246.435 95.7934C246.378 95.8398 246.34 95.9066 246.33 95.98C246.321 96.0528 246.342 96.126 246.387 96.184C246.431 96.242 246.497 96.28 246.57 96.29C248.992 96.5824 251.43 96.7227 253.87 96.71H254.26C255.39 96.9 256.53 97.07 257.7 97.19C269.01 98.31 290.04 116.96 303.34 120.51C319.24 124.74 318.42 116.65 311.51 110.38Z" fill="black"/>
<path d="M253.38 176.23L252.84 177.09L252.36 177.8L251.43 179.16C250.81 180.05 250.16 180.9 249.52 181.75C248.23 183.46 246.86 185.07 245.45 186.68C244.04 188.29 242.55 189.82 241.01 191.34C239.47 192.86 237.86 194.34 236.14 195.74C234.42 197.14 232.67 198.52 230.79 199.82C228.857 201.132 226.854 202.337 224.79 203.43C222.632 204.59 220.393 205.592 218.09 206.43C215.644 207.279 213.132 207.925 210.58 208.36L209.38 208.57C208.672 208.69 207.948 208.69 207.24 208.57C204.374 208.074 201.544 207.386 198.77 206.51C196.123 205.664 193.52 204.686 190.97 203.58C189.72 203.02 188.48 202.45 187.26 201.85C186.04 201.25 184.85 200.59 183.66 199.94C182.47 199.29 181.32 198.57 180.17 197.84C179.02 197.11 177.93 196.36 176.72 195.47C175.614 194.658 174.797 193.514 174.388 192.205C173.979 190.895 174 189.489 174.446 188.192C174.893 186.896 175.743 185.775 176.872 184.996C178.001 184.217 179.349 183.818 180.72 183.86H181.45C182.58 183.86 183.86 184.06 185.07 184.15L188.72 184.52L192.33 184.87C193.52 185 194.71 185.1 195.88 185.2C198.23 185.45 200.55 185.56 202.79 185.69C205.03 185.82 207.21 185.84 209.27 185.82L206 186C208.386 185.15 210.652 183.993 212.74 182.56C213.941 181.747 215.099 180.872 216.21 179.94C217.38 179.02 218.53 177.94 219.67 176.94C221.92 174.77 224.17 172.42 226.3 169.94C227.37 168.71 228.4 167.41 229.43 166.14L230.93 164.21L232.23 162.49L232.7 161.87C234.655 159.241 237.556 157.475 240.789 156.946C244.023 156.417 247.335 157.166 250.026 159.035C252.717 160.904 254.576 163.746 255.209 166.96C255.843 170.175 255.201 173.51 253.42 176.26L253.38 176.23Z" fill="#FFC3BD"/>
<path d="M265 155.81C261.94 182.93 224.6 205.88 224.6 205.88C216.68 205.01 208.88 191.88 207.76 183.32C207.76 183.32 230.68 151.25 242.3 144.91C253 139 266.34 143.46 265 155.81Z" fill="#263238"/>
<path d="M210.21 178.35C207.84 180.63 206.11 182.35 206.12 184.94C207 187.38 212.63 205.26 216.42 207.74C220.21 210.22 225.88 206.93 230.74 203.43C231.12 193.83 216.51 188.74 210.21 178.35Z" fill="#263238"/>
<path opacity="0.2" d="M210.21 178.35C207.84 180.63 206.11 182.35 206.12 184.94C207 187.38 212.63 205.26 216.42 207.74C220.21 210.22 225.88 206.93 230.74 203.43C231.12 193.83 216.51 188.74 210.21 178.35Z" fill="white"/>
<path d="M182.21 184.47L182.58 191.75C180.23 199.05 171.37 194.4 171.37 194.4L166.21 193.89C165.306 193.739 164.484 193.272 163.891 192.573C163.298 191.874 162.972 190.987 162.97 190.07L162.68 184.98C162.546 183.936 162.829 182.882 163.467 182.045C164.106 181.208 165.048 180.657 166.09 180.51L170.61 180.22C171.921 180.139 173.233 180.38 174.43 180.92L182.21 184.47Z" fill="#FFC3BD"/>
<path d="M252.21 140.23C268.235 138.707 284.38 138.962 300.35 140.99C309.58 142.29 316.1 147.99 314.98 166.99C312.71 205.35 311.37 235.81 306.49 249.6C306.49 249.6 245.4 268.95 225.16 249.45C220.23 203.27 231.72 165.45 239.28 149.45C240.458 146.93 242.268 144.756 244.533 143.141C246.798 141.526 249.443 140.523 252.21 140.23Z" fill="#263238"/>
<path opacity="0.2" d="M255.57 201.44C255.503 201.441 255.437 201.417 255.385 201.373C255.334 201.328 255.3 201.267 255.29 201.2C254.94 198.91 255.83 196.38 256.61 194.14C257.128 192.855 257.487 191.512 257.68 190.14C257.74 189.14 257.68 188.07 257.68 187.08C257.541 185.42 257.673 183.748 258.07 182.13L258.36 181.22C258.94 179.43 259.36 178.13 258.93 176.8C258.64 175.91 259.22 173.9 259.84 171.8C260.39 169.9 261.01 167.74 260.74 167.03C260.1 165.34 260.05 163.86 261.53 160.43C262.117 158.944 262.326 157.336 262.14 155.75C261.962 154.558 262.128 153.34 262.62 152.24C262.637 152.207 262.66 152.178 262.689 152.154C262.718 152.13 262.751 152.113 262.786 152.102C262.822 152.092 262.859 152.089 262.896 152.094C262.933 152.099 262.968 152.111 263 152.13C263.065 152.166 263.113 152.226 263.134 152.297C263.155 152.369 263.146 152.445 263.11 152.51C262.671 153.519 262.533 154.634 262.71 155.72C262.9 157.396 262.673 159.093 262.05 160.66C260.64 163.92 260.67 165.25 261.27 166.83C261.61 167.71 261.01 169.83 260.38 171.96C259.84 173.82 259.23 175.96 259.47 176.65C259.96 178.16 259.47 179.6 258.9 181.43C258.8 181.72 258.71 182.02 258.61 182.33C258.231 183.89 258.11 185.501 258.25 187.1C258.25 188.1 258.3 189.1 258.25 190.2C258.054 191.631 257.681 193.031 257.14 194.37C256.38 196.54 255.52 199.01 255.85 201.15C255.856 201.187 255.854 201.224 255.845 201.261C255.836 201.297 255.82 201.331 255.798 201.36C255.775 201.39 255.747 201.415 255.715 201.434C255.683 201.453 255.647 201.465 255.61 201.47L255.57 201.44Z" fill="white"/>
<path d="M257.74 329.3C264.47 303.36 282.05 272.44 270.93 247.47L222.62 247.32C222.62 247.32 221.42 298.73 221.09 322.99C220.74 348.21 222.91 379.59 222.91 379.59L242.68 381.09C242.68 381.09 256.16 358.41 257.74 329.3Z" fill="#6C63FF"/>
<path d="M243.61 381.87L222.25 380.3C222.069 380.288 221.897 380.211 221.768 380.082C221.64 379.953 221.562 379.782 221.55 379.6L221.09 371.68C221.083 371.569 221.101 371.458 221.142 371.355C221.183 371.252 221.247 371.159 221.328 371.084C221.41 371.008 221.507 370.952 221.613 370.918C221.718 370.884 221.83 370.875 221.94 370.89L245.63 374C245.738 374.013 245.841 374.049 245.933 374.106C246.025 374.163 246.103 374.24 246.162 374.33C246.221 374.421 246.26 374.523 246.275 374.63C246.29 374.737 246.282 374.846 246.25 374.95L244.38 381.29C244.341 381.462 244.242 381.614 244.101 381.72C243.96 381.826 243.786 381.879 243.61 381.87Z" fill="#263238"/>
<path opacity="0.2" d="M271.1 272C271.288 278.13 271.041 284.265 270.36 290.36C268 298.52 264.98 306.69 262.28 314.61C258.73 292.22 258.72 266.07 271.1 272Z" fill="black"/>
<path d="M308.37 320.91C310.71 294.68 319.37 259.38 311 247.32H253.18C253.18 247.32 264.69 299.6 269.42 323.79C274.33 348.95 288.42 380.97 288.42 380.97H307.15C307.15 380.97 314.32 350.83 308.37 320.91Z" fill="#6C63FF"/>
<path d="M308.48 381.73H287.26C287.092 381.728 286.93 381.669 286.8 381.561C286.671 381.454 286.583 381.305 286.55 381.14L285.16 373.61C285.141 373.496 285.147 373.38 285.178 373.269C285.21 373.158 285.265 373.055 285.34 372.968C285.416 372.881 285.51 372.812 285.615 372.766C285.721 372.719 285.835 372.697 285.95 372.7L309.04 373.7C309.137 373.705 309.232 373.729 309.319 373.771C309.407 373.814 309.485 373.873 309.549 373.945C309.613 374.018 309.662 374.103 309.693 374.194C309.725 374.286 309.737 374.383 309.73 374.48L309.25 380.99C309.24 381.188 309.155 381.375 309.012 381.512C308.869 381.65 308.679 381.728 308.48 381.73Z" fill="#263238"/>
<path d="M257.54 144.42C259.38 142.62 261.31 143.67 262.2 140.95C262.597 138.814 262.243 136.606 261.2 134.7L283.1 122.88C282.67 130.94 282.35 137.3 285.92 140.51C286.92 146.51 276.78 151.56 263.64 150.93C257.46 150.64 254.89 147 257.54 144.42Z" fill="#FFC3BD"/>
<path opacity="0.2" d="M261.51 135.38L278.81 131.06C274.44 137.93 266.56 141.7 262.33 140.06C262.466 138.455 262.183 136.843 261.51 135.38Z" fill="black"/>
<path d="M260.56 99.1001C258.024 100.952 255.603 102.956 253.31 105.1C254.144 105.355 255.035 105.355 255.87 105.1C253.71 108.86 254.55 114.01 255.64 115.54C261 110.51 260.56 99.1001 260.56 99.1001Z" fill="#263238"/>
<path d="M268.67 95.9401C277.05 96.7701 288.81 104.21 287.78 113.27C286.59 123.8 283.78 130.63 276.66 134.16C262.41 141.16 255.46 134.41 254.3 123.57C253.25 113.82 256.83 94.7801 268.67 95.9401Z" fill="#FFC3BD"/>
<path d="M283 102.62C283.55 107.15 282.9 111.56 280.48 112.79C283.74 112.89 284.91 112.25 284.91 112.25C284.91 112.25 279.12 116.65 283 119.47C285.907 117.695 288.438 115.368 290.45 112.62C290.45 112.62 289.71 106.78 283 102.62Z" fill="#263238"/>
<path opacity="0.2" d="M272.69 112.74C274.01 112.304 275.448 112.408 276.69 113.03C275.351 113.197 273.992 113.098 272.69 112.74Z" fill="black"/>
<path opacity="0.2" d="M272.69 113.7C273.311 113.63 273.94 113.697 274.533 113.896C275.125 114.095 275.667 114.42 276.12 114.85C274.907 114.722 273.736 114.329 272.69 113.7Z" fill="black"/>
<path d="M265.92 124C265.438 124.001 264.957 123.964 264.48 123.89C264.407 123.878 264.341 123.838 264.296 123.778C264.252 123.718 264.232 123.644 264.24 123.57C264.245 123.532 264.258 123.495 264.277 123.463C264.297 123.43 264.322 123.401 264.353 123.379C264.384 123.356 264.42 123.34 264.457 123.332C264.494 123.323 264.533 123.323 264.57 123.33C265.765 123.538 266.992 123.46 268.151 123.104C269.31 122.748 270.368 122.123 271.24 121.28C271.295 121.226 271.368 121.195 271.445 121.195C271.522 121.195 271.596 121.226 271.65 121.28C271.702 121.334 271.73 121.405 271.73 121.48C271.73 121.554 271.702 121.626 271.65 121.68C270.897 122.427 270.002 123.017 269.018 123.416C268.035 123.814 266.982 124.013 265.92 124Z" fill="#263238"/>
<path d="M290.39 122.54C289.657 123.531 288.735 124.368 287.678 125.003C286.621 125.638 285.449 126.058 284.23 126.24C280.95 126.69 279.72 123.65 280.98 120.79C282.11 118.21 285.17 114.86 288.3 115.72C291.43 116.58 292.17 120.06 290.39 122.54Z" fill="#FFC3BD"/>
<path d="M254.32 116.08C252.74 122.78 250.62 128.55 252.56 131.08C252.798 130.617 253.09 130.184 253.43 129.79C253.512 131.429 253.98 133.026 254.797 134.449C255.614 135.873 256.756 137.083 258.13 137.98C258.316 137.37 258.424 136.738 258.45 136.1C258.45 136.1 262.9 138.63 272.69 136.51C272.427 136.87 272.243 137.281 272.152 137.718C272.06 138.154 272.063 138.605 272.16 139.04C275.266 138.246 277.966 136.324 279.735 133.65C281.504 130.976 282.215 127.739 281.73 124.57C281.385 122.02 281.907 119.428 283.21 117.21C283.21 117.21 281.78 115.87 280.09 118.13C278.4 120.39 276.84 131.06 271.74 129.54C267.37 128.24 265.57 127.66 262.94 129.65C259.82 126.83 256.67 125.5 255.49 126.3C254.37 124.78 254.2 119.38 254.32 116.08Z" fill="#263238"/>
<path d="M273.13 135.74C271.72 137.29 266.92 138.64 264.82 138.86C265.576 138.2 266.13 137.34 266.42 136.38L273.13 135.74Z" fill="#263238"/>
<path d="M270.84 113C270.78 113.92 270.24 114.63 269.63 114.59C269.02 114.55 268.63 113.76 268.63 112.83C268.63 111.9 269.23 111.2 269.84 111.25C270.45 111.3 270.9 112.07 270.84 113Z" fill="#263238"/>
<path d="M260.015 112.33C260.071 111.41 259.624 110.634 259.018 110.597C258.411 110.561 257.875 111.277 257.819 112.198C257.764 113.119 258.21 113.895 258.817 113.931C259.423 113.968 259.96 113.251 260.015 112.33Z" fill="#263238"/>
<path d="M262.38 113.24L262.43 121.01C262.43 121.01 259.93 121.63 258.43 120.27C259.118 117.625 260.479 115.203 262.38 113.24Z" fill="#ED847E"/>
<path d="M272.49 110.64C272.582 110.66 272.677 110.66 272.77 110.64C272.837 110.617 272.898 110.58 272.951 110.532C273.003 110.485 273.046 110.427 273.076 110.363C273.105 110.298 273.122 110.229 273.124 110.158C273.127 110.087 273.115 110.016 273.09 109.95C272.816 109.129 272.352 108.385 271.735 107.778C271.117 107.171 270.365 106.719 269.54 106.46C269.47 106.442 269.397 106.438 269.326 106.449C269.255 106.459 269.187 106.484 269.125 106.521C269.064 106.559 269.011 106.608 268.968 106.666C268.926 106.724 268.896 106.79 268.88 106.86C268.849 107.002 268.875 107.15 268.951 107.273C269.028 107.396 269.149 107.484 269.29 107.52C269.941 107.731 270.533 108.095 271.016 108.58C271.499 109.065 271.861 109.658 272.07 110.31C272.108 110.395 272.166 110.469 272.239 110.526C272.312 110.584 272.398 110.623 272.49 110.64Z" fill="#263238"/>
<path d="M254.46 108.5C254.549 108.498 254.637 108.475 254.716 108.431C254.794 108.387 254.861 108.325 254.91 108.25C255.253 107.661 255.733 107.164 256.309 106.8C256.885 106.436 257.541 106.217 258.22 106.16C258.364 106.155 258.5 106.093 258.599 105.988C258.698 105.884 258.752 105.744 258.75 105.6C258.742 105.457 258.68 105.322 258.575 105.223C258.471 105.125 258.333 105.07 258.19 105.07C257.333 105.132 256.504 105.4 255.773 105.851C255.041 106.302 254.43 106.922 253.99 107.66C253.914 107.783 253.89 107.93 253.922 108.07C253.954 108.21 254.039 108.332 254.16 108.41C254.25 108.467 254.353 108.498 254.46 108.5Z" fill="#263238"/>
<path d="M311 247.32C312.216 241.857 312.886 236.286 313 230.69C313.035 229.681 312.784 228.683 312.277 227.811C311.769 226.938 311.024 226.227 310.13 225.76C306.057 223.552 302.619 220.336 300.145 216.419C297.671 212.502 296.244 208.016 296 203.39C295.93 202.161 295.503 200.98 294.771 199.99C294.039 199.001 293.034 198.246 291.88 197.82C273.93 191.33 248.45 192.7 237.88 194.9C236.534 195.168 235.314 195.873 234.41 196.906C233.506 197.938 232.968 199.24 232.88 200.61C232.35 209.05 230.43 221.96 225.27 224.75C224.514 225.125 223.852 225.664 223.333 226.329C222.813 226.993 222.45 227.766 222.27 228.59C220.55 237.74 222.67 247.32 222.67 247.32C222.67 247.32 255.41 252.85 311 247.32Z" fill="#6C63FF"/>
<path opacity="0.2" d="M259.07 214.48H259C258.52 214.37 247.42 211.72 243.85 205.36C243.828 205.318 243.816 205.272 243.816 205.225C243.816 205.178 243.828 205.132 243.85 205.09C243.873 205.05 243.905 205.016 243.943 204.99C243.981 204.964 244.024 204.947 244.07 204.94C251.9 204.06 273.84 204.64 280.83 206.72C280.88 206.738 280.925 206.768 280.96 206.809C280.995 206.849 281.019 206.898 281.03 206.95C281.036 207.003 281.028 207.057 281.007 207.106C280.985 207.155 280.952 207.198 280.91 207.23C274.22 211.98 259.27 214.46 259.12 214.48H259.07ZM244.57 205.48C248.12 211.14 258.25 213.73 259.08 213.94C260.08 213.77 273.5 211.44 280.08 207.12C272.73 205.19 252.48 204.66 244.57 205.45V205.48Z" fill="black"/>
<path opacity="0.2" d="M259.47 231.6H259.21C250.74 231.6 246.02 230.46 243.9 227.9C241.78 225.34 242.47 221.36 243.42 216.42C243.965 213.793 244.369 211.14 244.63 208.47C244.64 208.396 244.678 208.328 244.735 208.28C244.792 208.232 244.866 208.207 244.94 208.21C244.977 208.212 245.012 208.222 245.045 208.239C245.077 208.255 245.106 208.278 245.13 208.307C245.153 208.335 245.17 208.367 245.181 208.402C245.191 208.437 245.195 208.474 245.19 208.51C244.932 211.197 244.524 213.868 243.97 216.51C243.05 221.31 242.32 225.09 244.34 227.51C246.36 229.93 250.92 231 259.21 231H259.47C268.94 231 274.17 231 276.8 228.16C279.43 225.32 279.48 219.71 278.8 209.49C278.797 209.416 278.823 209.344 278.871 209.289C278.919 209.233 278.987 209.198 279.06 209.19C279.135 209.187 279.208 209.212 279.266 209.26C279.323 209.308 279.36 209.376 279.37 209.45C280.1 220.06 279.97 225.62 277.24 228.55C274.51 231.48 269.1 231.6 259.47 231.6Z" fill="black"/>
<path d="M259.21 211.56C259.834 211.56 260.34 211.054 260.34 210.43C260.34 209.806 259.834 209.3 259.21 209.3C258.586 209.3 258.08 209.806 258.08 210.43C258.08 211.054 258.586 211.56 259.21 211.56Z" fill="white"/>
<path d="M245.46 189.64L238.46 190.18C237.993 190.213 237.531 190.061 237.175 189.755C236.819 189.45 236.598 189.017 236.56 188.55C236.527 188.084 236.68 187.623 236.985 187.269C237.291 186.915 237.724 186.696 238.19 186.66L245.19 186.13C245.421 186.111 245.653 186.138 245.873 186.209C246.094 186.28 246.298 186.395 246.473 186.545C246.649 186.696 246.793 186.88 246.897 187.087C247.002 187.294 247.064 187.519 247.08 187.75C247.098 187.98 247.07 188.212 246.998 188.432C246.926 188.652 246.812 188.855 246.662 189.031C246.511 189.206 246.328 189.35 246.121 189.455C245.915 189.559 245.691 189.622 245.46 189.64Z" fill="white"/>
<path d="M239.55 194.8L239.75 186.86C239.772 186.32 239.985 185.805 240.351 185.408C240.718 185.01 241.213 184.756 241.75 184.69C242 184.665 242.253 184.695 242.491 184.777C242.729 184.859 242.947 184.991 243.129 185.165C243.312 185.338 243.454 185.549 243.547 185.783C243.641 186.017 243.682 186.268 243.67 186.52L243.46 194.46C243.44 195.001 243.227 195.516 242.86 195.914C242.494 196.312 241.997 196.566 241.46 196.63C241.21 196.655 240.957 196.625 240.719 196.543C240.482 196.461 240.265 196.329 240.083 196.155C239.902 195.981 239.76 195.77 239.668 195.536C239.576 195.302 239.535 195.051 239.55 194.8Z" fill="white"/>
<path d="M250.45 140.14C248.2 142.85 239.45 155.22 238.81 188C238.804 188.121 238.846 188.24 238.926 188.332C239.006 188.423 239.119 188.48 239.24 188.49C240.821 188.523 242.402 188.436 243.97 188.23C244.083 188.218 244.188 188.164 244.263 188.079C244.339 187.994 244.381 187.884 244.38 187.77C244.38 184.15 244.86 157.16 255.5 139.97C255.543 139.898 255.566 139.815 255.566 139.73C255.566 139.646 255.544 139.563 255.501 139.49C255.458 139.418 255.396 139.358 255.322 139.318C255.248 139.277 255.164 139.257 255.08 139.26C253.575 139.299 252.084 139.551 250.65 140.01C250.573 140.034 250.503 140.079 250.45 140.14Z" fill="#6C63FF"/>
<path d="M262.94 150.88C266.89 150.39 270.16 146.67 270.16 146.67C270.16 146.67 280.57 144.11 283.42 139.05C283.709 138.525 284.187 138.129 284.758 137.943C285.328 137.757 285.947 137.796 286.49 138.05C287.592 138.505 288.625 139.111 289.56 139.85C289.56 139.85 282.7 157.21 262.94 150.88Z" fill="#263238"/>
<path d="M270.16 146.67C270.16 146.67 273.98 151.17 273.83 156.67C283.33 152.77 290.25 143.16 290.53 139.22C286.53 136.41 284.1 136.98 284.1 136.98C284.1 136.98 278.61 144.19 270.16 146.67Z" fill="#6C63FF"/>
<path d="M262.94 150.88C261.53 149.75 261.61 147.15 262.43 146.46C262.09 144.18 262.43 142.98 262.36 139.46C258.78 139.23 255.64 143.2 254.51 145.93C253.38 148.66 260.53 151.45 262.94 150.88Z" fill="#263238"/>
<path d="M262.43 146.46C259.89 147.7 257.52 152.15 258.05 154.85C253.97 152.12 253.66 142.85 258.74 139.49C259.96 138.86 262.36 139.49 262.36 139.49C262.36 139.49 262.92 144.36 262.43 146.46Z" fill="#6C63FF"/>
<path d="M266.09 164.19C265.92 165.19 265.37 165.98 264.86 165.89C264.35 165.8 264.08 164.89 264.25 163.89C264.42 162.89 264.97 162.1 265.48 162.19C265.99 162.28 266.26 163.16 266.09 164.19Z" fill="white"/>
<path d="M264.53 175.28C264.46 176.28 263.98 177.13 263.46 177.09C262.94 177.05 262.6 176.18 262.67 175.09C262.74 174 263.23 173.25 263.75 173.29C264.27 173.33 264.61 174.25 264.53 175.28Z" fill="white"/>
<path d="M262.86 187.21C262.78 188.21 262.3 189.06 261.79 189.02C261.28 188.98 260.92 188.11 261 187.02C261.08 185.93 261.56 185.18 262.07 185.21C262.58 185.24 262.94 186.18 262.86 187.21Z" fill="white"/>
<path d="M321.63 157.78L322.34 158.5L322.93 159.12L324.05 160.33C324.78 161.14 325.47 161.96 326.15 162.78C327.53 164.41 328.8 166.11 330.05 167.84C331.3 169.57 332.47 171.37 333.61 173.21C334.75 175.05 335.82 176.95 336.81 178.93C337.8 180.91 338.75 182.93 339.59 185.06C340.438 187.233 341.169 189.449 341.78 191.7C342.425 194.059 342.899 196.462 343.2 198.89C343.503 201.465 343.58 204.061 343.43 206.65L343.35 207.9C343.299 208.608 343.137 209.303 342.87 209.96C341.67 212.855 340.155 215.608 338.35 218.17C336.676 220.56 334.785 222.789 332.7 224.83C330.702 226.784 328.556 228.579 326.28 230.2C325.16 231 324 231.73 322.82 232.44C322.22 232.79 321.62 233.13 321.01 233.44L319.01 234.44C318.014 234.94 316.898 235.149 315.788 235.043C314.679 234.936 313.623 234.519 312.74 233.839C311.857 233.159 311.184 232.244 310.799 231.199C310.413 230.153 310.33 229.02 310.56 227.93L311.25 224.61C311.342 224.386 311.456 224.172 311.59 223.97L312.01 223.27L312.87 221.84C313.46 220.9 314 219.93 314.55 218.98C315.1 218.03 315.61 217.08 316.12 216.14C316.63 215.2 317.12 214.27 317.54 213.33C319.215 210.025 320.426 206.505 321.14 202.87L320.58 206.17C320.457 204.983 320.25 203.807 319.96 202.65C319.629 201.355 319.225 200.079 318.75 198.83C318.26 197.53 317.64 196.2 316.98 194.83C316.32 193.46 315.58 192.13 314.79 190.83C313.18 188.15 311.39 185.44 309.43 182.83C308.43 181.5 307.43 180.21 306.43 178.92L304.87 177L303.49 175.36L302.98 174.75C300.897 172.251 299.858 169.045 300.08 165.8C300.302 162.554 301.768 159.52 304.173 157.328C306.577 155.137 309.734 153.957 312.986 154.036C316.238 154.114 319.334 155.445 321.63 157.75V157.78Z" fill="#FFC3BD"/>
<path d="M304.3 142C330.06 151 344.11 192.54 344.11 192.54C341.5 200 327 204.71 318.37 203.88C318.37 203.88 292.21 174.4 288.62 161.65C285.29 149.85 292.57 137.84 304.3 142Z" fill="#263238"/>
<path d="M314.07 200.34C315.77 203.16 317.07 205.23 319.59 205.79C322.16 205.48 340.85 203.98 344.11 200.84C347.37 197.7 345.42 191.44 343.11 185.92C333.82 183.41 325.61 196.51 314.07 200.34Z" fill="#263238"/>
<path opacity="0.2" d="M314.07 200.34C315.77 203.16 317.07 205.23 319.59 205.79C322.16 205.48 340.85 203.98 344.11 200.84C347.37 197.7 345.42 191.44 343.11 185.92C333.82 183.41 325.61 196.51 314.07 200.34Z" fill="white"/>
<path d="M316.11 223.58L319.11 230.22C319.61 237.87 309.66 236.8 309.66 236.8L304.66 238.22C303.765 238.412 302.83 238.28 302.023 237.848C301.215 237.416 300.587 236.712 300.25 235.86L298.11 231.23C297.602 230.308 297.478 229.223 297.764 228.211C298.051 227.198 298.725 226.339 299.64 225.82L303.74 223.89C304.929 223.331 306.238 223.073 307.55 223.14L316.11 223.58Z" fill="#FFC3BD"/>
<path d="M289 192.64L282.18 191.12C281.727 191.015 281.333 190.736 281.084 190.343C280.835 189.95 280.751 189.475 280.85 189.02C280.953 188.565 281.231 188.169 281.624 187.918C282.018 187.667 282.494 187.582 282.95 187.68L289.77 189.2C290.225 189.305 290.621 189.586 290.87 189.981C291.119 190.376 291.202 190.854 291.1 191.31C290.997 191.765 290.719 192.16 290.325 192.409C289.931 192.658 289.455 192.741 289 192.64Z" fill="white"/>
<path d="M283.6 197.14L283.88 189.14C283.906 188.618 284.126 188.125 284.495 187.755C284.865 187.386 285.358 187.166 285.88 187.14C286.138 187.139 286.393 187.192 286.629 187.294C286.866 187.395 287.08 187.544 287.257 187.732C287.434 187.919 287.571 188.141 287.659 188.383C287.747 188.625 287.785 188.883 287.77 189.14L287.49 197.14C287.463 197.662 287.244 198.155 286.875 198.525C286.505 198.894 286.012 199.113 285.49 199.14C285.232 199.14 284.977 199.088 284.74 198.986C284.503 198.884 284.29 198.735 284.113 198.548C283.936 198.361 283.799 198.139 283.711 197.897C283.623 197.655 283.585 197.397 283.6 197.14Z" fill="white"/>
<path d="M293.41 139.63C291.18 141.95 283.89 155.8 283.21 189.21C283.204 189.305 283.228 189.399 283.278 189.479C283.329 189.56 283.402 189.623 283.49 189.66C284.985 190.204 286.519 190.632 288.08 190.94C288.146 190.955 288.215 190.955 288.282 190.94C288.348 190.925 288.41 190.895 288.464 190.853C288.518 190.811 288.561 190.757 288.592 190.696C288.622 190.635 288.638 190.568 288.64 190.5C288.85 185.99 290.56 154.65 298.51 140.91C298.544 140.85 298.565 140.784 298.571 140.715C298.576 140.646 298.566 140.577 298.541 140.513C298.516 140.448 298.477 140.39 298.426 140.343C298.376 140.296 298.316 140.261 298.25 140.24C296.79 139.763 295.265 139.514 293.73 139.5C293.67 139.498 293.611 139.508 293.556 139.531C293.501 139.553 293.451 139.587 293.41 139.63Z" fill="#6C63FF"/>
<path d="M241 407.7C240.23 400.12 243.53 380.48 243.53 380.48L222.29 379C222.29 379 224.66 404.45 222.29 407.26C219 409.6 210.13 411 210.13 411C210.13 411 209.01 414 209.69 416.21H240.33C240.619 416.211 240.905 416.145 241.166 416.019C241.426 415.893 241.655 415.71 241.834 415.482C242.013 415.255 242.138 414.99 242.2 414.707C242.261 414.424 242.258 414.131 242.19 413.85C241.659 411.828 241.262 409.774 241 407.7Z" fill="#263238"/>
<path d="M310.19 407.7C308.32 400.12 308.81 380.48 308.81 380.48L287.35 379C287.35 379 293.35 404.45 291.41 407.26C289.39 408.797 287.182 410.071 284.84 411.05C284.452 412.781 284.555 414.585 285.14 416.26H309.38C309.688 416.249 309.992 416.175 310.27 416.043C310.549 415.91 310.798 415.722 311.002 415.49C311.205 415.257 311.358 414.986 311.453 414.692C311.547 414.398 311.58 414.087 311.55 413.78C311.205 411.731 310.751 409.701 310.19 407.7Z" fill="#263238"/>
<path d="M222.08 244.11C222.08 244.11 221.08 248.27 222.52 251.6C244.78 257.6 292.97 255.6 312.93 251.34C313.17 248.801 312.742 246.243 311.69 243.92C311.69 243.92 285.54 248.07 260.34 247.44C235.14 246.81 222.08 244.11 222.08 244.11Z" fill="#263238"/>
<path d="M237.48 243.76C236.11 247.43 236.77 254.58 237.48 255.89C240.82 257.07 241.99 256.7 241.99 256.7C241.99 256.7 240.91 247.8 241.99 244.37C240.543 243.867 239.009 243.66 237.48 243.76Z" fill="#6C63FF"/>
<path d="M287 245.12C288.37 248.78 287.71 255.94 287 257.25C283.66 258.42 282.49 258.06 282.49 258.06C282.49 258.06 283.57 249.16 282.49 245.73C283.938 245.227 285.471 245.019 287 245.12Z" fill="#6C63FF"/>
<path d="M283 102.62C279.08 102.45 268.64 99.48 268.64 99.48C269.562 98.8578 270.616 98.4574 271.72 98.31C266.48 98.4 263.72 100.99 256.31 99.53C257.4 97.53 263.31 94.61 270.97 95.89C275.624 96.7106 279.865 99.0826 283 102.62Z" fill="#263238"/>
<path d="M168.1 137.83C163.85 134.94 163.29 139.21 163.29 139.21C163.29 161 178.06 393.59 179.41 414.71C179.4 415.087 179.533 415.453 179.781 415.737C180.029 416.02 180.375 416.2 180.75 416.24H183C183.197 416.216 183.387 416.152 183.558 416.052C183.729 415.953 183.879 415.82 183.998 415.661C184.116 415.502 184.202 415.321 184.248 415.128C184.295 414.936 184.303 414.736 184.27 414.54C182.84 392.31 168.05 159.57 168.1 137.83Z" fill="#6C63FF"/>
<path d="M166.73 158.55C165.812 158.598 164.892 158.489 164.01 158.23C163.745 158.138 163.515 157.965 163.354 157.735C163.193 157.505 163.107 157.231 163.11 156.95C162.87 152.58 161.93 135.78 161.65 133.44C156.04 134.09 148.06 136.95 143.86 118.76C139.66 100.57 139.34 78.8901 137.99 71.8601C143.07 76.6301 145.66 96.9801 147.46 107.31C149.26 117.64 151.79 122.37 155.82 122.21C159.85 122.05 162.82 118.51 161.21 105.6C159.6 92.6901 155 67.2201 153.52 62.3301C158.47 64.4701 165.03 87.5301 167.05 106.78C169.07 126.03 175.05 121.9 178.13 118.51C181.21 115.12 176.05 78.0101 174.26 70.2301C178.87 77.7601 180.26 85.7801 182.41 101.33C184.56 116.88 188.41 132.81 168.78 132.56C169.17 137.04 169.92 152.28 170.13 156.74C170.173 157.048 170.102 157.361 169.931 157.62C169.76 157.88 169.5 158.068 169.2 158.15L166.73 158.55Z" fill="#6C63FF"/>
<path opacity="0.6" d="M166.73 158.55C165.812 158.598 164.892 158.489 164.01 158.23C163.745 158.138 163.515 157.965 163.354 157.735C163.193 157.505 163.107 157.231 163.11 156.95C162.87 152.58 161.93 135.78 161.65 133.44C156.04 134.09 148.06 136.95 143.86 118.76C139.66 100.57 139.34 78.8901 137.99 71.8601C143.07 76.6301 145.66 96.9801 147.46 107.31C149.26 117.64 151.79 122.37 155.82 122.21C159.85 122.05 162.82 118.51 161.21 105.6C159.6 92.6901 155 67.2201 153.52 62.3301C158.47 64.4701 165.03 87.5301 167.05 106.78C169.07 126.03 175.05 121.9 178.13 118.51C181.21 115.12 176.05 78.0101 174.26 70.2301C178.87 77.7601 180.26 85.7801 182.41 101.33C184.56 116.88 188.41 132.81 168.78 132.56C169.17 137.04 169.92 152.28 170.13 156.74C170.173 157.048 170.102 157.361 169.931 157.62C169.76 157.88 169.5 158.068 169.2 158.15L166.73 158.55Z" fill="white"/>
</svg>
