<svg width="500" height="500" viewBox="0 0 500 500" fill="none" xmlns="http://www.w3.org/2000/svg">
<path d="M500 382.4H0V382.65H500V382.4Z" fill="#EBEBEB"/>
<path d="M237 337.8H43.91C42.3973 337.797 40.9475 337.195 39.8788 336.124C38.8102 335.054 38.21 333.603 38.21 332.09V60.66C38.2231 59.156 38.8292 57.718 39.8964 56.6582C40.9637 55.5985 42.4059 55.0026 43.91 55H237C238.514 55 239.967 55.6016 241.038 56.6724C242.108 57.7433 242.71 59.1956 242.71 60.71V332.09C242.71 333.604 242.108 335.057 241.038 336.128C239.967 337.198 238.514 337.8 237 337.8ZM43.91 55.2C42.4636 55.2026 41.0774 55.7791 40.0556 56.8027C39.0338 57.8264 38.46 59.2136 38.46 60.66V332.09C38.46 333.536 39.0338 334.924 40.0556 335.947C41.0774 336.971 42.4636 337.547 43.91 337.55H237C238.447 337.547 239.834 336.971 240.858 335.948C241.881 334.924 242.457 333.537 242.46 332.09V60.66C242.457 59.2127 241.881 57.8255 240.858 56.8021C239.834 55.7787 238.447 55.2026 237 55.2H43.91Z" fill="#EBEBEB"/>
<path d="M453.31 337.8H260.21C258.696 337.797 257.246 337.195 256.175 336.125C255.105 335.054 254.503 333.604 254.5 332.09V60.66C254.516 59.1551 255.124 57.7171 256.193 56.6576C257.262 55.5981 258.705 55.0025 260.21 55H453.31C454.812 55.0052 456.252 55.6022 457.317 56.6617C458.382 57.7212 458.987 59.1578 459 60.66V332.09C459 333.601 458.401 335.05 457.335 336.121C456.268 337.191 454.821 337.795 453.31 337.8ZM260.21 55.2C258.763 55.2026 257.375 55.7787 256.352 56.8021C255.329 57.8255 254.753 59.2127 254.75 60.66V332.09C254.753 333.537 255.329 334.924 256.352 335.948C257.375 336.971 258.763 337.547 260.21 337.55H453.31C454.757 337.547 456.145 336.971 457.168 335.948C458.191 334.924 458.767 333.537 458.77 332.09V60.66C458.767 59.2127 458.191 57.8255 457.168 56.8021C456.145 55.7787 454.757 55.2026 453.31 55.2H260.21Z" fill="#EBEBEB"/>
<path d="M77.2803 391.92H51.2803V392.17H77.2803V391.92Z" fill="#EBEBEB"/>
<path d="M190.18 389.21H145.15V389.46H190.18V389.21Z" fill="#EBEBEB"/>
<path d="M139.07 401.21H78.2803V401.46H139.07V401.21Z" fill="#EBEBEB"/>
<path d="M448.72 399.53H429.49V399.78H448.72V399.53Z" fill="#EBEBEB"/>
<path d="M420.58 399.53H365.29V399.78H420.58V399.53Z" fill="#EBEBEB"/>
<path d="M331.52 395.31H257.05V395.56H331.52V395.31Z" fill="#EBEBEB"/>
<path d="M437.96 252.81H402.27V382.4H437.96V252.81Z" fill="#E6E6E6"/>
<path d="M402.27 252.81H270.37V382.4H402.27V252.81Z" fill="#F5F5F5"/>
<path d="M395.37 382.4V259.72H277.29V382.4H395.37Z" fill="#E6E6E6"/>
<path d="M395.36 259.71H326.25V382.39H395.36V259.71Z" fill="#E0E0E0"/>
<path d="M397.66 299.36V257.59H273.54V299.36H397.66Z" fill="#F5F5F5"/>
<path d="M388.29 294.91H282.9V262H388.29V294.91ZM285 292.83H386.22V264.11H285V292.83Z" fill="white"/>
<path d="M373.35 219.45H340.82V252.73H373.35V219.45Z" fill="#E6E6E6"/>
<path d="M298.07 252.73H340.82V219.45H298.07V252.73Z" fill="#F0F0F0"/>
<g style="mix-blend-mode:multiply" opacity="0.7">
<path d="M373.35 215.35H298.07V220.34H373.35V215.35Z" fill="#E6E6E6"/>
</g>
<path d="M374.99 214.84H340.82V219.46H374.99V214.84Z" fill="#E6E6E6"/>
<path d="M296.42 219.45H340.81V214.83H296.42V219.45Z" fill="#F0F0F0"/>
<path d="M412.36 237.91H385.75V252.73H412.36V237.91Z" fill="#EBEBEB"/>
<path d="M350.78 252.72H385.75V237.9H350.78V252.72Z" fill="#F5F5F5"/>
<g style="mix-blend-mode:multiply" opacity="0.7">
<path d="M412.35 234.55H350.77V238.64H412.35V234.55Z" fill="#E6E6E6"/>
</g>
<path d="M413.7 234.13H385.75V237.91H413.7V234.13Z" fill="#EBEBEB"/>
<path d="M349.43 237.9H385.75V234.12H349.43V237.9Z" fill="#F5F5F5"/>
<path d="M306.66 211.2H409.47V74.7802H306.66V211.2Z" fill="#E6E6E6"/>
<path d="M298.85 211.2H406.05V74.7802H298.85V211.2Z" fill="#F5F5F5"/>
<path d="M394.1 203.22H310.82C309.759 203.22 308.742 202.799 307.992 202.049C307.242 201.299 306.82 200.281 306.82 199.22V86.7402C306.82 85.6794 307.242 84.662 307.992 83.9118C308.742 83.1617 309.759 82.7402 310.82 82.7402H394.1C395.161 82.7402 396.179 83.1617 396.929 83.9118C397.679 84.662 398.1 85.6794 398.1 86.7402V199.23C398.098 200.289 397.675 201.304 396.925 202.052C396.175 202.8 395.159 203.22 394.1 203.22ZM310.82 84.7602C310.29 84.7602 309.781 84.971 309.406 85.346C309.031 85.7211 308.82 86.2298 308.82 86.7602V199.23C308.82 199.761 309.031 200.269 309.406 200.644C309.781 201.02 310.29 201.23 310.82 201.23H394.1C394.631 201.23 395.139 201.02 395.515 200.644C395.89 200.269 396.1 199.761 396.1 199.23V86.7402C396.1 86.2098 395.89 85.7011 395.515 85.326C395.139 84.9509 394.631 84.7402 394.1 84.7402L310.82 84.7602Z" fill="white"/>
<path d="M65.4301 364.65H210.58L210.58 78.1899H65.4301L65.4301 364.65Z" fill="#E6E6E6"/>
<path d="M62.2201 364.65H209.08L209.08 78.1899H62.2201L62.2201 364.65Z" fill="#F5F5F5"/>
<path d="M221.78 75.7299H54.23C53.9002 75.7195 53.5873 75.5812 53.3577 75.3441C53.1281 75.1071 52.9998 74.7899 53 74.4599C53 74.1231 53.1338 73.8001 53.372 73.5619C53.6101 73.3237 53.9332 73.1899 54.27 73.1899H221.78C222.117 73.1899 222.44 73.3237 222.678 73.5619C222.916 73.8001 223.05 74.1231 223.05 74.4599C223.05 74.6267 223.017 74.7919 222.953 74.9459C222.889 75.1 222.796 75.24 222.678 75.358C222.56 75.4759 222.42 75.5694 222.266 75.6333C222.112 75.6971 221.947 75.7299 221.78 75.7299Z" fill="#E6E6E6"/>
<path d="M65.4301 369.49H210.58V364.65H65.4301V369.49Z" fill="#E6E6E6"/>
<path d="M56.2796 369.49H196.1V364.65H56.2796V369.49Z" fill="#F5F5F5"/>
<path d="M204.57 358.81L204.57 84.0498L66.7203 84.0498L66.7203 358.81H204.57Z" fill="#FAFAFA"/>
<path d="M156.69 358.8L146.06 84.0498H126.94L137.57 358.8H156.69Z" fill="white"/>
<path d="M132.16 358.8L121.53 84.0498H112.65L123.28 358.8H132.16Z" fill="white"/>
<path d="M67.29 197.08V83.2598H66.72V197.08H67.29Z" fill="#E6E6E6"/>
<path opacity="0.4" d="M76.7396 69.3198H55.8896V348.44H76.7396V69.3198Z" fill="#E0E0E0"/>
<path opacity="0.4" d="M99.9799 69.3198H79.1299V348.44H99.9799V69.3198Z" fill="#E0E0E0"/>
<path opacity="0.4" d="M86.2396 71.8198H65.3896V350.94H86.2396V71.8198Z" fill="#E0E0E0"/>
<path opacity="0.4" d="M193.7 69.3198H172.85V348.44H193.7V69.3198Z" fill="#E0E0E0"/>
<path opacity="0.4" d="M216.95 69.3198H196.1V348.44H216.95V69.3198Z" fill="#E0E0E0"/>
<path opacity="0.4" d="M203.2 71.8198H182.35V350.94H203.2V71.8198Z" fill="#E0E0E0"/>
<path d="M250 427.56C357.083 427.56 443.89 422.492 443.89 416.24C443.89 409.988 357.083 404.92 250 404.92C142.918 404.92 56.1104 409.988 56.1104 416.24C56.1104 422.492 142.918 427.56 250 427.56Z" fill="#F5F5F5"/>
<path d="M364 103C355.93 99.4402 346.59 97.4302 341.91 105.08C338.84 110.08 337.31 120.3 331.91 125.8C331.454 126.206 331.088 126.701 330.833 127.255C330.578 127.81 330.441 128.41 330.43 129.02C330.424 129.097 330.424 129.174 330.43 129.25C330.52 132.33 332.99 136.45 339.34 137.97C338.072 137.149 336.989 136.073 336.16 134.81C338.775 135.94 341.591 136.532 344.44 136.55C351.92 136.47 357.67 137.04 361.1 138.82C364.53 140.6 370.77 132.82 370.49 129.28C371.84 131.28 373.49 129.28 374.02 124.36C375.47 111.71 371.36 101.34 364 103Z" fill="#263238"/>
<path d="M345.63 142.54C344.337 142.538 343.073 142.153 341.999 141.433C340.925 140.713 340.088 139.691 339.595 138.496C339.101 137.301 338.973 135.986 339.226 134.718C339.48 133.45 340.104 132.286 341.019 131.372C341.934 130.458 343.099 129.836 344.367 129.585C345.636 129.333 346.95 129.463 348.145 129.959C349.339 130.454 350.36 131.292 351.078 132.368C351.796 133.443 352.18 134.707 352.18 136C352.177 137.735 351.486 139.399 350.258 140.625C349.03 141.851 347.365 142.54 345.63 142.54ZM345.63 129.94C344.431 129.94 343.259 130.295 342.263 130.961C341.266 131.627 340.49 132.574 340.031 133.681C339.572 134.788 339.452 136.007 339.686 137.182C339.92 138.358 340.497 139.438 341.345 140.285C342.192 141.133 343.272 141.71 344.447 141.944C345.623 142.177 346.841 142.057 347.949 141.599C349.056 141.14 350.002 140.363 350.668 139.367C351.334 138.37 351.69 137.199 351.69 136C351.69 134.393 351.051 132.851 349.915 131.715C348.778 130.578 347.237 129.94 345.63 129.94Z" fill="#6C63FF"/>
<path d="M338.87 165.28C336.381 170.175 333.596 174.914 330.53 179.47C328.983 181.809 327.314 184.066 325.53 186.23C323.646 188.626 321.469 190.776 319.05 192.63C318.59 192.978 318.097 193.283 317.58 193.54C316.947 193.857 316.274 194.089 315.58 194.23C314.217 194.485 312.811 194.382 311.5 193.93C309.656 193.23 308.004 192.103 306.68 190.64C305.613 189.507 304.653 188.278 303.81 186.97C303 185.73 302.28 184.49 301.62 183.24C299.099 178.315 297.088 173.145 295.62 167.81L299.99 166.17C302.299 170.791 304.884 175.269 307.73 179.58C309.008 181.545 310.515 183.351 312.22 184.96C312.716 185.465 313.327 185.842 314 186.06C314.12 186.06 314 185.99 313.86 186.01C313.72 186.03 313.74 186.01 313.73 186.01C313.72 186.01 313.67 186.01 313.92 185.83C315.61 184.281 317.129 182.554 318.45 180.68C319.92 178.68 321.33 176.55 322.71 174.39C324.09 172.23 325.39 169.97 326.71 167.73C328.03 165.49 329.28 163.17 330.49 160.96L338.87 165.28Z" fill="#B55B52"/>
<path d="M336.1 152.13C332.18 151.99 325.24 166.27 325.24 166.27L332.71 183C332.71 183 347.36 163.72 345.71 158.89C344 153.84 341.82 152.33 336.1 152.13Z" fill="#6C63FF"/>
<path opacity="0.6" d="M336.1 152.13C332.18 151.99 325.24 166.27 325.24 166.27L332.71 183C332.71 183 347.36 163.72 345.71 158.89C344 153.84 341.82 152.33 336.1 152.13Z" fill="white"/>
<path d="M299.36 159.46L300.52 169.79L297.8 171.69C294.07 170.83 292.51 165.11 292.51 165.11L290.83 161.44C290.469 160.648 290.36 159.765 290.515 158.909C290.671 158.053 291.084 157.265 291.7 156.65L292.46 155.9C292.809 155.544 293.233 155.269 293.7 155.095C294.168 154.921 294.668 154.852 295.165 154.893C295.663 154.934 296.145 155.084 296.577 155.333C297.01 155.581 297.383 155.921 297.67 156.33L298.76 157.89C299.088 158.355 299.294 158.894 299.36 159.46Z" fill="#B55B52"/>
<path d="M355.06 408.46H345.84L345 387.1H354.23L355.06 408.46Z" fill="#B55B52"/>
<path d="M345 407.39H355.37C355.541 407.387 355.707 407.452 355.833 407.569C355.958 407.687 356.032 407.849 356.04 408.02L356.39 416.22C356.385 416.654 356.21 417.068 355.904 417.374C355.597 417.681 355.183 417.855 354.75 417.86C351.14 417.8 349.42 417.59 344.86 417.59C342.06 417.59 335.61 417.88 331.74 417.88C327.87 417.88 328.04 414.05 329.69 413.7C337.08 412.15 340.76 410.01 343.4 407.96C343.856 407.6 344.418 407.4 345 407.39Z" fill="#263238"/>
<path d="M345 387.11L345.43 398.12H354.66L354.23 387.11H345Z" fill="black"/>
<path d="M332.4 156.7C332.2 162.53 333.21 176.15 339.34 207.87L376.79 206.75C375.79 192.59 375.45 183.47 380.53 156.88C380.688 156.06 380.676 155.217 380.494 154.402C380.311 153.588 379.963 152.82 379.47 152.146C378.977 151.472 378.351 150.907 377.63 150.486C376.909 150.065 376.109 149.798 375.28 149.7C372.53 149.38 369.18 149.08 365.8 149.02C360.128 148.784 354.447 148.954 348.8 149.53C344.47 150.05 339.8 150.95 336.73 151.6C335.541 151.841 334.467 152.476 333.682 153.401C332.897 154.325 332.445 155.488 332.4 156.7Z" fill="#6C63FF"/>
<path opacity="0.7" d="M332.4 156.7C332.2 162.53 333.21 176.15 339.34 207.87L376.79 206.75C375.79 192.59 375.45 183.47 380.53 156.88C380.688 156.06 380.676 155.217 380.494 154.402C380.311 153.588 379.963 152.82 379.47 152.146C378.977 151.472 378.351 150.907 377.63 150.486C376.909 150.065 376.109 149.798 375.28 149.7C372.53 149.38 369.18 149.08 365.8 149.02C360.128 148.784 354.447 148.954 348.8 149.53C344.47 150.05 339.8 150.95 336.73 151.6C335.541 151.841 334.467 152.476 333.682 153.401C332.897 154.325 332.445 155.488 332.4 156.7Z" fill="white"/>
<path d="M363.54 129.92C362.63 135.43 361.86 145.48 365.8 149.02C362.84 153.686 358.176 157.012 352.8 158.29C344.17 153.91 348.8 149.53 348.8 149.53C354.86 147.89 354.57 143.37 353.38 139.15L363.54 129.92Z" fill="#B55B52"/>
<path d="M352.81 158.29L353.93 156.1L359.92 157.46L352.81 158.29Z" fill="#6C63FF"/>
<path d="M353.93 156.1C355.85 155.22 364.76 149.42 365.11 147.61C366.844 147.851 368.543 148.301 370.17 148.95C370.17 148.95 368.57 156.1 359.92 160.95C359.317 159.767 358.472 158.723 357.44 157.888C356.408 157.052 355.212 156.443 353.93 156.1Z" fill="white"/>
<path d="M352.81 158.29L352.31 156.1L348.63 156.36L352.81 158.29Z" fill="#6C63FF"/>
<path d="M352.31 156.1C349.31 154.1 350.43 150 350.72 148.19C349.22 148.342 347.749 148.706 346.35 149.27C346.35 149.27 341.84 153.41 346.21 160.99C347.738 158.814 349.854 157.118 352.31 156.1Z" fill="white"/>
<path opacity="0.2" d="M359.4 133.69L353.4 139.14C353.697 140.119 353.904 141.123 354.02 142.14C356.34 141.74 359.47 139.08 359.64 136.64C359.738 135.65 359.657 134.651 359.4 133.69Z" fill="black"/>
<path d="M366.45 118.24C366.05 127.38 366.07 131.24 361.54 136.03C354.72 143.2 343.54 140.71 341.23 131.63C339.13 123.45 340.15 109.87 349.03 106.08C350.984 105.237 353.121 104.907 355.238 105.121C357.356 105.336 359.383 106.088 361.128 107.306C362.873 108.524 364.278 110.168 365.21 112.082C366.141 113.995 366.568 116.115 366.45 118.24Z" fill="#B55B52"/>
<path d="M359.92 108.57C356.85 113.72 352.48 107.17 349 111.09C346.21 114.23 341.64 110.93 339 119.89C339.92 112.19 341.21 105.38 349.08 103.12C353.93 101.72 363.21 101.19 359.92 108.57Z" fill="#263238"/>
<path d="M361.49 105C358.8 106.87 356.04 109.56 356.37 112.85C356.7 116.14 361.42 114.7 362.05 117.01C362.68 119.32 359.23 124.18 364.24 124.66C369.96 121.47 371.56 120.77 370.52 115.87C369.48 110.97 365.86 104.35 361.49 105Z" fill="#263238"/>
<path d="M339.26 207.87C339.26 207.87 335.64 276 335.45 304C335.26 333.14 343.45 396 343.45 396H355.92C355.92 396 353.55 332.48 355.47 303.74C357.56 272.41 364.85 207.06 364.85 207.06L339.26 207.87Z" fill="#6C63FF"/>
<path d="M356.97 396.43H342.33L341.73 391.76L358.18 391.19L356.97 396.43Z" fill="#263238"/>
<path opacity="0.2" d="M362.22 231.52C360.88 229.84 359.11 230.72 356.8 235.52C348.92 251.87 352.92 277.94 356.29 292.96C357.81 274.24 360.31 249.61 362.22 231.52Z" fill="black"/>
<path d="M351 121.74C351 122.48 350.63 123.09 350.14 123.1C349.65 123.11 349.25 122.51 349.24 121.77C349.23 121.03 349.61 120.41 350.09 120.4C350.57 120.39 351 121 351 121.74Z" fill="#263238"/>
<path d="M342.62 121.67C342.62 122.41 342.24 123.02 341.76 123.03C341.28 123.04 340.87 122.44 340.85 121.7C340.83 120.96 341.23 120.34 341.71 120.34C342.19 120.34 342.6 120.92 342.62 121.67Z" fill="#263238"/>
<path d="M341.93 120.37L340.13 119.89C340.13 119.89 341.07 121.27 341.93 120.37Z" fill="#263238"/>
<path d="M345.54 122.35C344.91 124.062 344.045 125.677 342.97 127.15C343.353 127.415 343.79 127.592 344.25 127.67C344.709 127.748 345.18 127.724 345.63 127.6L345.54 122.35Z" fill="#A02724"/>
<path d="M350.1 130.05C349.737 130.115 349.369 130.148 349 130.15C348.972 130.151 348.943 130.147 348.917 130.137C348.89 130.127 348.866 130.112 348.845 130.092C348.825 130.072 348.808 130.049 348.797 130.023C348.786 129.996 348.78 129.968 348.78 129.94C348.78 129.883 348.802 129.829 348.841 129.788C348.88 129.747 348.934 129.722 348.99 129.72C349.917 129.724 350.832 129.51 351.661 129.095C352.49 128.68 353.209 128.075 353.76 127.33C353.794 127.289 353.842 127.262 353.894 127.254C353.947 127.245 354 127.256 354.045 127.284C354.09 127.312 354.124 127.355 354.139 127.406C354.155 127.457 354.152 127.511 354.13 127.56C353.657 128.221 353.057 128.782 352.365 129.209C351.673 129.637 350.903 129.922 350.1 130.05Z" fill="#263238"/>
<path d="M369.05 126.85C368.688 127.648 368.173 128.367 367.533 128.966C366.893 129.565 366.141 130.032 365.32 130.34C363.12 131.15 361.83 129.23 362.32 127.05C362.73 125.05 364.32 122.31 366.65 122.44C367.147 122.48 367.626 122.644 368.043 122.915C368.461 123.187 368.805 123.558 369.043 123.996C369.281 124.434 369.406 124.924 369.408 125.422C369.409 125.92 369.286 126.411 369.05 126.85Z" fill="#B55B52"/>
<path d="M365.19 142.54C363.897 142.54 362.632 142.156 361.557 141.438C360.481 140.719 359.643 139.698 359.148 138.503C358.653 137.308 358.524 135.993 358.776 134.724C359.028 133.455 359.651 132.29 360.566 131.375C361.481 130.461 362.646 129.838 363.915 129.586C365.183 129.333 366.498 129.463 367.693 129.958C368.888 130.453 369.91 131.291 370.628 132.367C371.347 133.442 371.73 134.706 371.73 136C371.728 137.734 371.038 139.396 369.812 140.622C368.586 141.847 366.924 142.537 365.19 142.54ZM365.19 129.94C363.991 129.938 362.819 130.292 361.821 130.956C360.823 131.621 360.045 132.567 359.585 133.674C359.124 134.781 359.003 136 359.236 137.176C359.468 138.352 360.045 139.433 360.892 140.281C361.739 141.13 362.819 141.708 363.994 141.943C365.17 142.177 366.389 142.058 367.497 141.6C368.605 141.141 369.552 140.365 370.218 139.368C370.885 138.371 371.24 137.199 371.24 136C371.238 134.395 370.6 132.857 369.466 131.721C368.332 130.586 366.795 129.945 365.19 129.94Z" fill="#6C63FF"/>
<path d="M354.32 117.72C354.229 117.735 354.136 117.721 354.053 117.679C353.971 117.638 353.903 117.572 353.86 117.49C352.92 115.7 350.34 115.35 350.31 115.35C350.201 115.328 350.104 115.265 350.039 115.173C349.974 115.082 349.947 114.97 349.962 114.859C349.977 114.748 350.034 114.647 350.121 114.577C350.208 114.507 350.319 114.472 350.43 114.48C350.55 114.48 353.48 114.9 354.63 117.08C354.658 117.131 354.676 117.187 354.682 117.245C354.688 117.303 354.683 117.362 354.666 117.418C354.649 117.474 354.621 117.526 354.584 117.571C354.547 117.616 354.502 117.653 354.45 117.68L354.32 117.72Z" fill="#263238"/>
<path d="M339.999 117C339.925 117.015 339.848 117.01 339.776 116.986C339.704 116.961 339.639 116.918 339.589 116.86C339.551 116.817 339.521 116.766 339.503 116.711C339.484 116.656 339.477 116.597 339.482 116.539C339.487 116.482 339.503 116.425 339.53 116.374C339.557 116.322 339.594 116.277 339.64 116.24C340.157 115.778 340.777 115.446 341.448 115.272C342.12 115.098 342.823 115.087 343.499 115.24C343.611 115.275 343.705 115.352 343.761 115.454C343.817 115.557 343.831 115.677 343.799 115.79C343.783 115.845 343.757 115.896 343.721 115.94C343.685 115.985 343.64 116.021 343.59 116.048C343.54 116.075 343.485 116.092 343.428 116.097C343.371 116.103 343.314 116.097 343.26 116.08C342.722 115.965 342.164 115.98 341.634 116.124C341.103 116.269 340.615 116.538 340.209 116.91C340.148 116.957 340.076 116.987 339.999 117Z" fill="#263238"/>
<path d="M386.26 160.77C387.94 165.58 389.42 170.38 390.76 175.29C391.44 177.74 392.09 180.21 392.64 182.74C392.91 184.01 393.18 185.29 393.41 186.62C393.663 188.039 393.83 189.471 393.91 190.91V191.54V192.28C393.91 192.72 393.85 192.99 393.81 193.36C393.75 194.05 393.66 194.68 393.57 195.36C393.39 196.65 393.18 197.91 392.97 199.16C392.55 201.67 392.05 204.16 391.55 206.61C390.55 211.54 389.36 216.43 388.02 221.3L383.41 220.54C383.68 215.54 384.06 210.54 384.46 205.54L385.06 198.13C385.15 196.9 385.23 195.68 385.3 194.49C385.3 193.89 385.37 193.29 385.38 192.73C385.38 192.47 385.38 192.12 385.38 191.94V191.74V191.44C385.235 190.39 385.034 189.349 384.78 188.32C384.52 187.19 384.22 186.04 383.9 184.88C383.25 182.56 382.56 180.21 381.85 177.88L377.36 163.8L386.26 160.77Z" fill="#B55B52"/>
<path d="M375.28 149.7C387.56 151.22 389.99 166.22 391.74 169.99L379.69 180.1C379.69 180.1 372.06 167.27 370.95 162.29C369.8 157.1 370.84 149.15 375.28 149.7Z" fill="#6C63FF"/>
<path opacity="0.7" d="M375.28 149.7C387.56 151.22 389.99 166.22 391.74 169.99L379.69 180.1C379.69 180.1 372.06 167.27 370.95 162.29C369.8 157.1 370.84 149.15 375.28 149.7Z" fill="white"/>
<path d="M341.36 409C340.589 409.076 339.816 408.874 339.18 408.43C339.043 408.292 338.944 408.121 338.893 407.934C338.843 407.746 338.841 407.548 338.89 407.36C338.911 407.236 338.961 407.12 339.036 407.019C339.111 406.918 339.208 406.836 339.32 406.78C340.51 406.16 344 408.04 344.39 408.26C344.429 408.281 344.459 408.314 344.477 408.353C344.495 408.393 344.5 408.438 344.49 408.48C344.477 408.527 344.451 408.569 344.416 408.603C344.381 408.636 344.337 408.659 344.29 408.67C343.325 408.866 342.345 408.977 341.36 409ZM339.91 407.09C339.766 407.082 339.621 407.109 339.49 407.17C339.445 407.192 339.407 407.224 339.377 407.264C339.347 407.304 339.328 407.351 339.32 407.4C339.289 407.522 339.289 407.651 339.32 407.773C339.352 407.896 339.414 408.008 339.5 408.1C340.01 408.61 341.5 408.69 343.6 408.35C342.454 407.717 341.205 407.294 339.91 407.1V407.09Z" fill="#6C63FF"/>
<path d="M344.25 408.68H344.16C343.11 408.18 341.16 406.19 341.42 405.15C341.48 404.9 341.69 404.59 342.3 404.53C342.511 404.505 342.725 404.525 342.927 404.591C343.129 404.657 343.314 404.766 343.47 404.91C344.53 405.91 344.47 408.36 344.47 408.46C344.471 408.5 344.461 408.54 344.442 408.575C344.422 408.61 344.394 408.639 344.36 408.66C344.326 408.677 344.288 408.684 344.25 408.68ZM342.43 404.94H342.3C341.9 404.94 341.85 405.14 341.84 405.19C341.67 405.82 342.99 407.38 344.04 408.06C344.069 407.042 343.76 406.043 343.16 405.22C343.063 405.127 342.949 405.054 342.824 405.006C342.698 404.958 342.564 404.935 342.43 404.94Z" fill="#6C63FF"/>
<path d="M411 404.98L401.98 406.92L394.47 386.69L403.49 384.75L411 404.98Z" fill="#B55B52"/>
<path d="M401.42 406L411.55 403.81C411.724 403.77 411.908 403.794 412.066 403.878C412.224 403.963 412.346 404.102 412.41 404.27L415.41 412.02C415.478 412.216 415.504 412.425 415.485 412.632C415.467 412.838 415.404 413.039 415.302 413.22C415.2 413.4 415.06 413.557 414.892 413.68C414.725 413.802 414.533 413.888 414.33 413.93C410.78 414.63 409.04 414.79 404.58 415.75C401.84 416.34 396.99 418.2 393.13 417.93C389.27 417.66 389.28 413.82 390.91 413.59C398.21 412.54 398.13 409.39 400.05 406.88C400.391 406.437 400.875 406.127 401.42 406Z" fill="#263238"/>
<path d="M400.32 407.84C399.559 408.073 398.742 408.045 398 407.76C397.828 407.663 397.681 407.526 397.574 407.361C397.466 407.196 397.399 407.007 397.38 406.81C397.357 406.691 397.366 406.568 397.406 406.454C397.447 406.34 397.517 406.238 397.61 406.16C398.61 405.32 402.61 406.37 403.04 406.5C403.085 406.509 403.126 406.532 403.157 406.566C403.187 406.601 403.206 406.644 403.21 406.69C403.212 406.736 403.201 406.781 403.178 406.82C403.155 406.859 403.121 406.89 403.08 406.91C402.19 407.304 401.266 407.615 400.32 407.84ZM398.32 406.33C398.182 406.353 398.052 406.408 397.94 406.49C397.904 406.522 397.876 406.563 397.86 406.608C397.845 406.654 397.841 406.703 397.85 406.75C397.86 406.88 397.902 407.005 397.972 407.115C398.041 407.224 398.137 407.316 398.25 407.38C398.91 407.75 400.42 407.52 402.34 406.76C401.022 406.381 399.648 406.235 398.28 406.33H398.32Z" fill="#6C63FF"/>
<path d="M403 406.92C401.81 406.67 399.24 405.19 399.17 404.13C399.17 403.88 399.26 403.55 399.84 403.36C400.046 403.291 400.265 403.265 400.481 403.284C400.698 403.303 400.909 403.366 401.1 403.47C402.45 404.17 403.22 406.54 403.25 406.64C403.26 406.676 403.261 406.715 403.252 406.752C403.244 406.788 403.226 406.822 403.2 406.85C403.177 406.88 403.146 406.903 403.111 406.915C403.075 406.928 403.036 406.93 403 406.92ZM400 403.74H399.87C399.49 403.87 399.5 404.03 399.5 404.08C399.5 404.71 401.33 405.93 402.58 406.35C402.259 405.348 401.637 404.468 400.8 403.83C400.57 403.718 400.31 403.686 400.06 403.74H400Z" fill="#6C63FF"/>
<path d="M394.47 386.7L398.34 397.13L407.36 395.18L403.49 384.75L394.47 386.7Z" fill="black"/>
<path d="M376.79 206.75C385.79 221.03 383.26 273.55 384.68 301.59C393.12 326.46 408.01 392.86 408.01 392.86L395.82 395.49C395.82 395.49 368.93 329.59 363.35 301.44C357.19 270.37 349.69 206.75 349.69 206.75H376.79Z" fill="#6C63FF"/>
<path d="M408.92 393.12L394.62 396.21L393.12 391.75L409.08 387.72L408.92 393.12Z" fill="#263238"/>
<path d="M350.33 120.44L348.53 119.96C348.53 119.96 349.47 121.34 350.33 120.44Z" fill="#263238"/>
<path d="M377.28 204.54L378.34 207.86C378.48 208.12 378.18 208.39 377.74 208.41L339.2 209.55C338.87 209.55 338.58 209.41 338.56 209.19L338.12 205.85C338.12 205.62 338.37 205.42 338.74 205.4L376.66 204.28C376.777 204.265 376.896 204.281 377.005 204.327C377.114 204.372 377.209 204.446 377.28 204.54Z" fill="#263238"/>
<path d="M372.31 208.93H373.31C373.51 208.93 373.66 208.82 373.65 208.69L373.04 204.35C373.04 204.22 372.84 204.12 372.64 204.13H371.64C371.44 204.13 371.29 204.24 371.31 204.37L371.91 208.71C371.93 208.84 372.11 208.94 372.31 208.93Z" fill="#6C63FF"/>
<path d="M342.07 209.83H343.07C343.27 209.83 343.42 209.72 343.4 209.59L342.8 205.25C342.8 205.12 342.6 205.02 342.4 205.03H341.4C341.2 205.03 341.05 205.14 341.06 205.27L341.67 209.61C341.69 209.74 341.87 209.84 342.07 209.83Z" fill="#6C63FF"/>
<path d="M357.19 209.38H358.19C358.39 209.38 358.54 209.27 358.52 209.14L357.92 204.8C357.92 204.67 357.72 204.57 357.52 204.58H356.52C356.32 204.58 356.17 204.69 356.19 204.82L356.79 209.16C356.81 209.29 357 209.39 357.19 209.38Z" fill="#6C63FF"/>
<path d="M384 219L377.25 226.33L386.62 226.74C386.62 226.85 389.67 221.74 387.76 218.38L384 219Z" fill="#B55B52"/>
<path d="M379.71 234H382.43C383.029 233.995 383.611 233.798 384.09 233.438C384.568 233.078 384.919 232.574 385.09 232L386.64 226.75L377.27 226.34L376.89 231C376.864 231.385 376.918 231.772 377.048 232.136C377.178 232.5 377.382 232.833 377.646 233.114C377.911 233.396 378.231 233.62 378.586 233.772C378.941 233.925 379.324 234.002 379.71 234Z" fill="#B55B52"/>
<path d="M140.33 407.44L131.72 407.31L132.26 387.29L140.87 387.42L140.33 407.44Z" fill="#FFC3BD"/>
<path d="M131.62 406.31L141.03 406.46C141.197 406.457 141.359 406.517 141.483 406.628C141.607 406.74 141.685 406.894 141.7 407.06L142.52 414.76C142.534 414.954 142.507 415.149 142.442 415.333C142.377 415.516 142.274 415.684 142.141 415.826C142.007 415.968 141.846 416.081 141.667 416.157C141.488 416.234 141.295 416.272 141.1 416.27C137.71 416.16 132.83 415.89 128.56 415.82C123.56 415.74 124.06 415.95 118.21 415.82C114.67 415.77 114.1 412.17 115.62 411.82C122.53 410.45 123.23 410.38 129.47 406.87C130.125 406.498 130.867 406.305 131.62 406.31Z" fill="#263238"/>
<path d="M129.63 149.6C127.63 155.86 125.44 162.04 123.15 168.19C122.01 171.27 120.85 174.34 119.64 177.4C118.43 180.46 117.22 183.52 115.94 186.58C115.65 187.31 115.24 188.19 114.88 189.01C114.52 189.83 114.12 190.62 113.73 191.4C113.34 192.18 112.93 192.95 112.51 193.7C112.09 194.45 111.69 195.21 111.26 195.94C109.6 198.94 107.77 201.7 105.96 204.5C102.28 210.07 98.3802 215.38 94.1802 220.56L88.7402 217L97.3702 199.56C100.221 194.002 102.713 188.267 104.83 182.39L110.91 163.88C112.91 157.7 115.06 151.51 117.23 145.39L129.63 149.6Z" fill="#FFC3BD"/>
<path d="M135.42 145.59C133.31 152.53 126.02 169.86 126.02 169.86L109.31 158.2C109.31 158.2 112.25 146.92 118.86 141.61C128.24 134.08 138.14 136.64 135.42 145.59Z" fill="#263238"/>
<path opacity="0.2" d="M125.48 151.23C119.33 152.72 114.67 158.92 115.42 162.47L126.02 169.86C126.02 169.86 128.29 161.15 132.3 155.35C130 153 127.26 150.8 125.48 151.23Z" fill="black"/>
<path d="M122.78 167C123.38 166.551 123.936 166.045 124.44 165.49C124.44 165.49 112.03 156.84 108.9 156.75C108.356 157.409 108.037 158.226 107.99 159.08C107.99 159.08 118.83 167.13 122.78 167Z" fill="#6C63FF"/>
<path d="M91.7905 214.05L83.4805 219.41L90.1305 226.64C90.1305 226.64 97.1305 223.37 95.8805 217.08L91.7905 214.05Z" fill="#FFC3BD"/>
<path d="M80.0004 227.8L84.1004 229.88C84.4367 230.05 84.8142 230.121 85.1892 230.086C85.5643 230.05 85.9217 229.91 86.2204 229.68L90.1704 226.68L83.5204 219.45L79.3304 224.85C79.1604 225.081 79.042 225.346 78.9835 225.627C78.9249 225.908 78.9275 226.199 78.9911 226.478C79.0546 226.758 79.1777 227.021 79.3518 227.249C79.526 227.477 79.7472 227.665 80.0004 227.8Z" fill="#FFC3BD"/>
<path opacity="0.2" d="M132.26 387.29L131.98 397.61L140.6 397.75L140.88 387.43L132.26 387.29Z" fill="black"/>
<path d="M171.22 141.31C163.17 174.1 166.36 208.9 165.79 215.94L119.61 215.19C116.61 178.83 119.61 154.96 121.49 144.4C121.831 142.529 122.769 140.819 124.162 139.525C125.555 138.231 127.33 137.422 129.22 137.22L129.79 137.16C131.05 137.03 132.41 136.92 133.79 136.84C134.57 136.79 135.37 136.77 136.17 136.75C142.74 136.863 149.297 137.351 155.81 138.21C157.04 138.36 158.3 138.55 159.51 138.75C160.72 138.95 161.75 139.14 162.79 139.35C167.56 140.28 171.22 141.31 171.22 141.31Z" fill="#263238"/>
<path opacity="0.2" d="M161.93 155.37C161.22 158.55 162.72 173.02 166.17 176.59C166.44 171.96 166.86 167.12 167.47 162.17L161.93 155.37Z" fill="black"/>
<path d="M154.69 116C153.23 122.2 151.57 133.65 155.83 138.18C152.28 141.33 147.61 145.4 140.14 144.63C134.05 144.01 134.14 139.29 136.21 136.72C143.31 135.57 143.32 130.34 142.27 125.36L154.69 116Z" fill="#FFC3BD"/>
<path opacity="0.2" d="M153.46 123L148.34 120.86L146.43 122.3C146.63 123 146.12 125.54 146.43 126.3C147.31 128.42 150.84 129.53 153.12 129.17C153.083 127.108 153.197 125.046 153.46 123Z" fill="black"/>
<path d="M150 89.21C146.41 91.87 146.4 92.21 142.64 91.48C138.88 90.75 128.25 86.87 131.08 96.05C122.14 96.57 123.4 105.98 127.4 111.28C131.4 116.58 135.4 117.09 135.86 121.44C136.44 126.55 145.09 127.54 146.3 124.67L158.65 114.13C162.75 114.38 158.79 107.7 160.82 103.86C161.135 103.264 161.305 102.602 161.315 101.927C161.326 101.253 161.177 100.586 160.88 99.98C162.032 99.4272 163.011 98.5695 163.71 97.5C167.84 91.43 155.83 84.93 150 89.21Z" fill="#263238"/>
<path d="M136 107.82C137.08 116.31 137.28 121.33 141.88 125.39C148.79 131.49 159.07 126.8 160.55 118.14C161.88 110.34 159.89 97.7698 151.31 94.9998C149.412 94.3856 147.388 94.2632 145.43 94.6441C143.471 95.025 141.641 95.8968 140.111 97.1779C138.582 98.4589 137.402 100.107 136.683 101.968C135.964 103.83 135.729 105.843 136 107.82Z" fill="#FFC3BD"/>
<path d="M136.85 97.7401C141.32 96.7401 145.42 101.92 143 105.52C140.58 109.12 145.74 113.6 140.33 115.92C136.55 117.54 134.72 113.61 132.89 110.92C130.08 106.81 132.09 98.7901 136.85 97.7401Z" fill="#263238"/>
<path d="M132.48 96.65C137.94 99.59 139.27 102.45 147.38 99.65C152.17 98.01 153.38 101.78 159.54 100.45C160.73 93.1799 152.25 91.57 147.97 92.37C143.69 93.17 132.48 96.65 132.48 96.65Z" fill="#263238"/>
<path d="M132.48 98.1098C132.315 98.1002 132.152 98.063 132 97.9998C126.15 95.9998 126.23 91.5898 126.24 91.3998C126.26 91.0169 126.428 90.6567 126.707 90.3941C126.986 90.1315 127.356 89.9867 127.74 89.9898C128.122 90.0028 128.483 90.1652 128.747 90.4419C129.01 90.7186 129.155 91.0876 129.15 91.4698C129.15 91.6198 129.24 93.9898 132.93 95.2398C133.255 95.3523 133.531 95.5766 133.707 95.8728C133.884 96.169 133.95 96.5181 133.893 96.8582C133.837 97.1983 133.662 97.5076 133.4 97.7311C133.137 97.9547 132.804 98.0782 132.46 98.0798L132.48 98.1098Z" fill="#263238"/>
<path d="M134.62 116.07C135.649 117.723 137.228 118.959 139.08 119.56C141.3 120.16 141.83 117.73 140.72 115.27C139.72 113.06 137.37 110.08 135.37 110.57C133.37 111.06 133.2 113.9 134.62 116.07Z" fill="#FFC3BD"/>
<path d="M146.38 300.88C146.03 257.47 155.64 215.78 155.64 215.78L119.64 215.2C119.64 215.2 123.78 277.9 125.22 304.2C126.72 331.5 128.81 395.61 128.81 395.61L143.42 395.83C143.42 395.83 148.4 335.14 146.38 300.88Z" fill="#6C63FF"/>
<path opacity="0.2" d="M147.81 239.66C137.55 253.71 142.16 280.13 146.37 298.8C146.534 278.209 148.285 257.661 151.61 237.34L147.81 239.66Z" fill="black"/>
<path d="M127.9 395.88L145.28 396.15L146.26 390.52L126.89 389.92L127.9 395.88Z" fill="#263238"/>
<path d="M150.06 109.89C150.06 110.58 150.51 111.12 150.96 111.08C151.41 111.04 151.75 110.46 151.7 109.76C151.65 109.06 151.25 108.53 150.8 108.57C150.35 108.61 150 109.19 150.06 109.89Z" fill="#263238"/>
<path d="M158.22 109.3C158.27 110 158.67 110.53 159.13 110.5C159.59 110.47 159.91 109.87 159.87 109.18C159.83 108.49 159.42 107.95 158.96 107.98C158.5 108.01 158.18 108.61 158.22 109.3Z" fill="#263238"/>
<path d="M155.83 109.41C156.797 111.473 158.046 113.391 159.54 115.11C158.39 116.34 156.26 115.97 156.26 115.97L155.83 109.41Z" fill="#ED847E"/>
<path d="M151.65 118C150.871 117.964 150.108 117.767 149.407 117.423C148.707 117.079 148.085 116.595 147.58 116C147.557 115.956 147.551 115.906 147.562 115.857C147.573 115.809 147.6 115.766 147.64 115.736C147.679 115.706 147.728 115.691 147.778 115.694C147.827 115.696 147.874 115.716 147.91 115.75C148.482 116.397 149.198 116.899 150.001 117.216C150.805 117.532 151.671 117.654 152.53 117.57C152.557 117.567 152.585 117.57 152.611 117.578C152.637 117.587 152.661 117.6 152.681 117.618C152.702 117.636 152.719 117.657 152.73 117.682C152.742 117.706 152.749 117.733 152.75 117.76C152.753 117.814 152.735 117.867 152.7 117.908C152.664 117.949 152.614 117.975 152.56 117.98C152.258 118.007 151.954 118.014 151.65 118Z" fill="#263238"/>
<path d="M148.08 107.21C148.009 107.21 147.939 107.189 147.88 107.15C147.834 107.121 147.795 107.082 147.764 107.037C147.734 106.993 147.713 106.942 147.703 106.889C147.692 106.835 147.693 106.78 147.705 106.727C147.716 106.674 147.738 106.624 147.77 106.58C148.113 106.026 148.583 105.562 149.141 105.226C149.7 104.89 150.33 104.693 150.98 104.65C151.089 104.65 151.193 104.693 151.27 104.77C151.347 104.847 151.39 104.951 151.39 105.06C151.39 105.169 151.347 105.273 151.27 105.35C151.193 105.427 151.089 105.47 150.98 105.47C150.465 105.511 149.967 105.674 149.527 105.945C149.087 106.216 148.718 106.588 148.45 107.03C148.41 107.09 148.354 107.138 148.289 107.17C148.224 107.201 148.152 107.215 148.08 107.21Z" fill="#263238"/>
<path d="M160.09 105.14C160.023 105.141 159.956 105.126 159.895 105.097C159.834 105.067 159.781 105.024 159.74 104.97C159.453 104.547 159.067 104.2 158.616 103.96C158.165 103.72 157.662 103.593 157.15 103.59C157.096 103.593 157.043 103.585 156.992 103.567C156.941 103.549 156.894 103.521 156.854 103.484C156.814 103.448 156.782 103.404 156.759 103.356C156.736 103.307 156.723 103.254 156.72 103.2C156.715 103.093 156.751 102.988 156.823 102.908C156.894 102.827 156.993 102.778 157.1 102.77C157.748 102.767 158.386 102.921 158.961 103.219C159.536 103.516 160.03 103.949 160.4 104.48C160.434 104.523 160.458 104.573 160.472 104.625C160.486 104.678 160.49 104.733 160.482 104.787C160.475 104.841 160.456 104.893 160.429 104.94C160.401 104.987 160.364 105.028 160.32 105.06C160.252 105.106 160.172 105.133 160.09 105.14Z" fill="#263238"/>
<path d="M130.06 407.08C130.094 407.068 130.124 407.046 130.147 407.018C130.17 406.99 130.185 406.956 130.19 406.92C130.197 406.878 130.191 406.834 130.173 406.795C130.155 406.756 130.126 406.723 130.09 406.7C129.7 406.5 126.26 404.7 125.2 405.25C125.102 405.305 125.019 405.383 124.958 405.477C124.897 405.571 124.86 405.678 124.85 405.79C124.828 405.974 124.85 406.161 124.915 406.335C124.979 406.508 125.084 406.665 125.22 406.79C126.15 407.64 128.63 407.34 130.03 407.09L130.06 407.08ZM125.47 405.58C126.12 405.36 127.99 406.11 129.35 406.78C127.44 407.07 126.02 406.97 125.5 406.49C125.409 406.408 125.34 406.305 125.298 406.19C125.256 406.075 125.243 405.951 125.26 405.83C125.259 405.785 125.27 405.74 125.293 405.701C125.316 405.662 125.35 405.631 125.39 405.61L125.47 405.58Z" fill="#6C63FF"/>
<path d="M130.06 407.08H130.11C130.139 407.06 130.162 407.033 130.178 407.001C130.194 406.97 130.201 406.935 130.2 406.9C130.2 406.8 129.99 404.47 128.91 403.55C128.756 403.415 128.577 403.313 128.383 403.25C128.189 403.186 127.984 403.162 127.78 403.18C127.22 403.23 127.05 403.52 127.01 403.74C126.84 404.74 128.87 406.62 129.9 407.1C129.954 407.108 130.01 407.102 130.06 407.08ZM127.61 403.6C127.68 403.591 127.75 403.591 127.82 403.6C127.969 403.586 128.12 403.603 128.263 403.65C128.405 403.696 128.537 403.771 128.65 403.87C129.279 404.631 129.66 405.566 129.74 406.55C128.69 405.9 127.31 404.41 127.41 403.83C127.42 403.75 127.44 403.66 127.61 403.6Z" fill="#6C63FF"/>
<path d="M201.81 407.44L193.16 407.31L187.62 387.29L196.28 387.42L201.81 407.44Z" fill="#FFC3BD"/>
<path d="M192.55 406.31L201.99 406.46C202.165 406.464 202.335 406.525 202.474 406.633C202.612 406.741 202.713 406.891 202.76 407.06L204.9 414.76C204.956 414.938 204.969 415.128 204.937 415.312C204.904 415.496 204.828 415.67 204.714 415.818C204.6 415.966 204.452 416.085 204.282 416.164C204.113 416.242 203.927 416.279 203.74 416.27C200.33 416.16 199.22 415.89 194.94 415.82C189.94 415.74 192.28 415.95 186.41 415.82C182.86 415.77 181.68 412.19 183.14 411.82C187.76 410.82 188.7 408.91 190.51 406.87C190.794 406.643 191.121 406.476 191.472 406.379C191.823 406.283 192.189 406.26 192.55 406.31Z" fill="#263238"/>
<path opacity="0.2" d="M187.62 387.29L190.48 397.61L199.14 397.75L196.28 387.43L187.62 387.29Z" fill="black"/>
<path d="M180.17 301.49C175.27 262.69 171.61 224.61 165.79 215.94L135.28 215.45C135.28 215.45 152.93 278.45 158.89 304.33C165.07 331.2 186.54 393 186.54 393L200.46 393.2C200.46 393.2 189.31 331.5 180.17 301.49Z" fill="#6C63FF"/>
<path d="M184.62 395.88L201.99 396.15L202.97 390.52L183.61 389.92L184.62 395.88Z" fill="#263238"/>
<path d="M193.09 407C193.128 407.004 193.166 406.997 193.2 406.979C193.234 406.961 193.262 406.934 193.28 406.9C193.304 406.865 193.317 406.823 193.317 406.78C193.317 406.737 193.304 406.695 193.28 406.66C192.99 406.33 190.38 403.45 189.19 403.66C189.078 403.674 188.972 403.718 188.882 403.786C188.793 403.855 188.723 403.946 188.68 404.05C188.591 404.213 188.545 404.395 188.545 404.58C188.545 404.765 188.591 404.947 188.68 405.11C189.26 406.23 191.68 406.8 193.09 407.04V407ZM189.3 404C189.99 404 191.49 405.37 192.53 406.46C190.64 406.08 189.34 405.46 189.01 404.86C188.953 404.752 188.923 404.632 188.923 404.51C188.923 404.388 188.953 404.268 189.01 404.16C189.024 404.117 189.051 404.079 189.087 404.051C189.122 404.023 189.165 404.005 189.21 404H189.3Z" fill="#6C63FF"/>
<path d="M193.09 407H193.15C193.184 406.989 193.215 406.97 193.24 406.943C193.264 406.917 193.282 406.885 193.29 406.85C193.29 406.76 193.94 404.51 193.29 403.27C193.192 403.09 193.058 402.933 192.896 402.807C192.734 402.682 192.549 402.591 192.35 402.54C191.81 402.39 191.55 402.6 191.44 402.8C190.94 403.65 192.2 406.13 193 406.94C193.024 406.968 193.055 406.989 193.09 407ZM191.98 402.9H192.2C192.345 402.938 192.48 403.006 192.597 403.099C192.714 403.192 192.81 403.308 192.88 403.44C193.213 404.369 193.251 405.378 192.99 406.33C192.22 405.33 191.44 403.49 191.74 402.97C191.765 402.926 191.804 402.891 191.851 402.871C191.898 402.851 191.951 402.847 192 402.86L191.98 402.9Z" fill="#6C63FF"/>
<path d="M174.88 150.66L175.23 151.45L175.65 152.35L176.51 154.19C177.12 155.42 177.76 156.64 178.43 157.84C179.76 160.27 181.19 162.64 182.72 164.92C184.233 167.204 185.865 169.407 187.61 171.52C188.46 172.59 189.41 173.52 190.29 174.59L191.71 176.03L192.42 176.76L192.51 176.85C192.51 176.85 192.51 176.85 192.44 176.85C192.37 176.85 192.19 176.85 192.22 176.85C192.386 176.924 192.571 176.945 192.75 176.91C193.677 176.788 194.578 176.517 195.42 176.11C197.748 174.969 199.953 173.592 202 172C206.549 168.508 210.89 164.751 215 160.75L220.08 164.75C218.41 167.377 216.597 169.911 214.65 172.34C212.693 174.798 210.589 177.136 208.35 179.34C205.969 181.743 203.314 183.857 200.44 185.64C198.692 186.711 196.79 187.507 194.8 188C193.513 188.298 192.187 188.393 190.87 188.28C189.306 188.138 187.79 187.668 186.42 186.9C186.09 186.69 185.74 186.48 185.42 186.25L184.95 185.9L184.72 185.72L184.61 185.62L183.67 184.82L181.81 183.22C180.63 182.09 179.41 180.99 178.33 179.78C176.089 177.442 174.011 174.952 172.11 172.33C170.204 169.741 168.46 167.036 166.89 164.23C166.11 162.82 165.37 161.4 164.66 159.94C164.31 159.21 163.95 158.48 163.66 157.73L163.17 156.58L162.67 155.3L174.88 150.66Z" fill="#FFC3BD"/>
<path d="M171.22 141.31C179.22 143.77 182.89 161.61 182.89 161.61L170.71 172.31C165.994 167.477 162.306 161.738 159.87 155.44C155.76 144.42 161.57 138.32 171.22 141.31Z" fill="#263238"/>
<path d="M183.48 161.94C183.257 161.222 182.969 160.526 182.62 159.86C182.62 159.86 170.3 168.65 169.17 171.56C169.608 172.295 170.271 172.869 171.06 173.2C171.06 173.2 182.24 165.68 183.48 161.94Z" fill="#6C63FF"/>
<path d="M213.57 162.65L218.24 155.27L225.17 163.12C225.17 163.12 220.17 169.29 216.43 167.12L213.57 162.65Z" fill="#FFC3BD"/>
<path d="M227.07 153.2L229.07 156.36C229.452 156.968 229.604 157.693 229.497 158.403C229.391 159.113 229.033 159.761 228.49 160.23L225.2 163.12L218.27 155.27L222.88 152.27C223.214 152.051 223.589 151.902 223.983 151.83C224.376 151.759 224.78 151.766 225.17 151.853C225.561 151.94 225.93 152.103 226.256 152.335C226.582 152.566 226.859 152.86 227.07 153.2Z" fill="#FFC3BD"/>
<path d="M328.47 174.44C323.888 169.852 318.444 166.214 312.451 163.736C306.458 161.258 300.035 159.988 293.55 160H272.43V164.74C267.307 167.165 262.639 170.453 258.63 174.46C254.004 169.823 248.499 166.156 242.437 163.673C236.376 161.19 229.88 159.941 223.33 160H202.22V164.92C195.122 168.349 188.949 173.426 184.215 179.729C179.481 186.032 176.325 193.376 175.01 201.148C173.695 208.92 174.26 216.894 176.658 224.403C179.055 231.912 183.215 238.738 188.79 244.31L237.29 292.81H237.06V314.15H252.38C256.382 314.15 260.22 312.56 263.05 309.73L328.47 244.31C333.06 239.723 336.701 234.277 339.185 228.283C341.669 222.289 342.947 215.864 342.947 209.375C342.947 202.886 341.669 196.461 339.185 190.467C336.701 184.473 333.06 179.027 328.47 174.44Z" fill="#6C63FF"/>
<path opacity="0.2" d="M328.47 174.44C323.888 169.852 318.444 166.214 312.451 163.736C306.458 161.258 300.035 159.988 293.55 160H272.43V164.74C267.307 167.165 262.639 170.453 258.63 174.46C254.004 169.823 248.499 166.156 242.437 163.673C236.376 161.19 229.88 159.941 223.33 160H202.22V164.92C195.122 168.349 188.949 173.426 184.215 179.729C179.481 186.032 176.325 193.376 175.01 201.148C173.695 208.92 174.26 216.894 176.658 224.403C179.055 231.912 183.215 238.738 188.79 244.31L237.29 292.81H237.06V314.15H252.38C256.382 314.15 260.22 312.56 263.05 309.73L328.47 244.31C333.06 239.723 336.701 234.277 339.185 228.283C341.669 222.289 342.947 215.864 342.947 209.375C342.947 202.886 341.669 196.461 339.185 190.467C336.701 184.473 333.06 179.027 328.47 174.44Z" fill="black"/>
<path d="M306.9 174.44C297.638 165.18 285.077 159.978 271.98 159.978C258.883 159.978 246.322 165.18 237.06 174.44C227.768 165.32 215.251 160.238 202.232 160.3C189.212 160.361 176.743 165.561 167.538 174.768C158.332 183.975 153.134 196.444 153.075 209.463C153.015 222.483 158.099 234.999 167.22 244.29L237.06 314.13L306.9 244.29C311.487 239.704 315.125 234.259 317.607 228.266C320.09 222.274 321.367 215.851 321.367 209.365C321.367 202.879 320.09 196.456 317.607 190.464C315.125 184.471 311.487 179.026 306.9 174.44Z" fill="#6C63FF"/>
<path d="M205.81 286.416L205.103 287.123L215.9 297.921L216.607 297.213L205.81 286.416Z" fill="#6C63FF"/>
<path d="M220.855 301.48L220.147 302.188L225.069 307.109L225.776 306.402L220.855 301.48Z" fill="#6C63FF"/>
<path opacity="0.2" d="M306.9 174.44C297.638 165.18 285.077 159.978 271.98 159.978C258.883 159.978 246.322 165.18 237.06 174.44C227.768 165.32 215.251 160.238 202.232 160.3C189.212 160.361 176.743 165.561 167.538 174.768C158.332 183.975 153.134 196.444 153.075 209.463C153.015 222.483 158.099 234.999 167.22 244.29L237.06 314.13L306.9 244.29C311.487 239.704 315.125 234.259 317.607 228.266C320.09 222.274 321.367 215.851 321.367 209.365C321.367 202.879 320.09 196.456 317.607 190.464C315.125 184.471 311.487 179.026 306.9 174.44Z" fill="black"/>
<path d="M174.42 237.08C170.781 233.44 167.894 229.119 165.924 224.364C163.954 219.609 162.94 214.512 162.94 209.365C162.94 204.218 163.954 199.121 165.924 194.366C167.894 189.61 170.781 185.289 174.42 181.65C178.06 178.01 182.381 175.123 187.136 173.153C191.891 171.184 196.988 170.17 202.135 170.17C207.283 170.17 212.379 171.184 217.135 173.153C221.89 175.123 226.211 178.01 229.85 181.65L237.06 188.86L244.27 181.65C247.91 178.01 252.231 175.123 256.986 173.153C261.741 171.184 266.838 170.17 271.985 170.17C277.133 170.17 282.229 171.184 286.985 173.153C291.74 175.123 296.061 178.01 299.7 181.65C303.34 185.289 306.227 189.61 308.197 194.366C310.166 199.121 311.18 204.218 311.18 209.365C311.18 214.512 310.166 219.609 308.197 224.364C306.227 229.119 303.34 233.44 299.7 237.08L237.06 299.72L174.42 237.08Z" fill="#6C63FF"/>
<path d="M186.16 202.62H203.38V207.15H197.6V221H191.93V207.2H186.16V202.62Z" fill="white"/>
<path d="M206 202.62H211.67V209H217.86V202.59H223.55V221H217.86V213.59H211.67V221H206V202.62Z" fill="white"/>
<path d="M238.54 217.92H232.11L231.22 220.92H225.43L232.32 202.59H238.5L245.39 221H239.46L238.54 217.92ZM237.37 213.92L235.37 207.33L233.37 213.92H237.37Z" fill="white"/>
<path d="M247.23 202.62H252.52L259.42 212.76V202.62H264.76V221H259.42L252.56 210.93V221H247.23V202.62Z" fill="white"/>
<path d="M268.55 202.62H274.22V209.55L280.15 202.62H287.68L281 209.54L288 221H281L277.13 213.46L274.21 216.53V221H268.54L268.55 202.62Z" fill="white"/>
<path d="M206.28 233.35H212.57L216.26 239.54L219.96 233.35H226.22L219.09 244V251.68H213.42V244L206.28 233.35Z" fill="white"/>
<path d="M225.8 242.53C225.675 241.255 225.834 239.969 226.264 238.762C226.695 237.556 227.387 236.46 228.291 235.553C229.196 234.646 230.289 233.95 231.494 233.516C232.699 233.081 233.985 232.919 235.26 233.04C238.31 233.04 240.67 233.86 242.32 235.5C243.178 236.418 243.84 237.502 244.265 238.685C244.689 239.868 244.868 241.125 244.79 242.38C244.86 244.198 244.489 246.006 243.71 247.65C243.009 249.004 241.919 250.119 240.58 250.85C239.01 251.663 237.258 252.059 235.49 252C233.724 252.058 231.967 251.716 230.35 251C228.965 250.31 227.818 249.22 227.06 247.87C226.169 246.235 225.734 244.391 225.8 242.53ZM231.46 242.53C231.326 243.938 231.679 245.35 232.46 246.53C232.825 246.911 233.262 247.215 233.747 247.422C234.232 247.629 234.753 247.736 235.28 247.736C235.808 247.736 236.329 247.629 236.814 247.422C237.299 247.215 237.736 246.911 238.1 246.53C238.76 245.74 239.1 244.32 239.1 242.26C239.228 240.921 238.873 239.581 238.1 238.48C237.746 238.084 237.309 237.772 236.819 237.566C236.33 237.36 235.801 237.266 235.27 237.29C234.75 237.27 234.232 237.368 233.756 237.578C233.279 237.787 232.857 238.103 232.52 238.5C231.707 239.686 231.332 241.118 231.46 242.55V242.53Z" fill="white"/>
<path d="M259.77 233.35H265.43V244.27C265.438 245.315 265.265 246.354 264.92 247.34C264.587 248.289 264.044 249.151 263.33 249.86C262.693 250.526 261.918 251.044 261.06 251.38C259.775 251.825 258.42 252.035 257.06 252C256.084 251.992 255.109 251.928 254.14 251.81C253.218 251.725 252.32 251.47 251.49 251.06C250.747 250.664 250.089 250.127 249.55 249.48C249.001 248.871 248.589 248.152 248.34 247.37C248.018 246.367 247.843 245.323 247.82 244.27V233.35H253.47V244.53C253.447 244.957 253.508 245.385 253.65 245.788C253.793 246.191 254.014 246.563 254.3 246.88C254.946 247.419 255.76 247.714 256.6 247.714C257.441 247.714 258.255 247.419 258.9 246.88C259.191 246.563 259.414 246.191 259.557 245.785C259.7 245.38 259.759 244.949 259.73 244.52L259.77 233.35Z" fill="white"/>
</svg>
