<svg width="500" height="500" viewBox="0 0 500 500" fill="none" xmlns="http://www.w3.org/2000/svg">
<path d="M443.92 330.2H263.17C259.94 330.2 257.31 327.57 257.31 324.34V61.0602C257.31 57.8302 259.94 55.2002 263.17 55.2002H443.92C447.15 55.2002 449.78 57.8302 449.78 61.0602V324.34C449.78 327.57 447.15 330.2 443.92 330.2ZM263.17 55.4502C260.08 55.4502 257.56 57.9702 257.56 61.0602V324.34C257.56 327.43 260.08 329.95 263.17 329.95H443.92C447.01 329.95 449.53 327.43 449.53 324.34V61.0602C449.53 57.9702 447.01 55.4502 443.92 55.4502H263.17Z" fill="#E0E0E0"/>
<path d="M235.49 330.2H54.7496C51.5196 330.2 48.8896 327.57 48.8896 324.34V61.0602C48.8896 57.8302 51.5196 55.2002 54.7496 55.2002H235.49C238.72 55.2002 241.35 57.8302 241.35 61.0602V324.34C241.35 327.57 238.72 330.2 235.49 330.2ZM54.7496 55.4502C51.6596 55.4502 49.1396 57.9702 49.1396 61.0602V324.34C49.1396 327.43 51.6596 329.95 54.7496 329.95H235.49C238.58 329.95 241.1 327.43 241.1 324.34V61.0602C241.1 57.9702 238.58 55.4502 235.49 55.4502H54.7496Z" fill="#E0E0E0"/>
<path d="M500 391.27H0V391.52H500V391.27Z" fill="#E0E0E0"/>
<path d="M67.7299 405.53H51.6699V405.78H67.7299V405.53Z" fill="#E0E0E0"/>
<path d="M223.88 402.82H170.35V403.07H223.88V402.82Z" fill="#E0E0E0"/>
<path d="M104.98 414.82H68.7305V415.07H104.98V414.82Z" fill="#E0E0E0"/>
<path d="M421.54 402.69H378.35V402.94H421.54V402.69Z" fill="#E0E0E0"/>
<path d="M436.78 402.69H430.45V402.94H436.78V402.69Z" fill="#E0E0E0"/>
<path d="M370.1 408.92H316.21V409.17H370.1V408.92Z" fill="#E0E0E0"/>
<path d="M140.41 49.2899C138.48 47.8299 135.65 47.6599 133.56 48.8899C130.78 43.2799 123.05 40.7999 117.53 43.7599C116.09 37.7099 110.13 33.0699 103.92 33.1399C97.6997 33.2099 91.8597 37.9999 90.5697 44.0799C90.3597 45.0499 90.2297 46.0999 89.5397 46.8099C88.4197 47.9599 86.5397 47.5699 84.9397 47.4499C79.9097 47.0599 74.8397 50.5899 73.4697 55.4499L142.79 55.1999C143.4 52.8499 142.35 50.7499 140.42 49.2899H140.41Z" fill="#F5F5F5"/>
<path d="M431.56 64.85C429.63 63.39 426.8 63.22 424.71 64.45C421.93 58.84 414.2 56.36 408.68 59.32C407.24 53.27 401.28 48.63 395.07 48.7C388.85 48.77 383.01 53.56 381.72 59.64C381.51 60.61 381.38 61.66 380.69 62.37C379.57 63.52 377.69 63.13 376.09 63.01C371.06 62.62 365.99 66.15 364.62 71.01L433.94 70.76C434.55 68.41 433.5 66.31 431.57 64.85H431.56Z" fill="#F5F5F5"/>
<path d="M469.5 193.76C467.57 192.3 464.74 192.13 462.65 193.36C459.87 187.75 452.14 185.27 446.62 188.23C445.18 182.18 439.22 177.54 433.01 177.61C426.79 177.68 420.95 182.47 419.66 188.55C419.45 189.52 419.32 190.57 418.63 191.28C417.51 192.43 415.63 192.04 414.03 191.92C409 191.53 403.93 195.06 402.56 199.92L471.88 199.67C472.49 197.32 471.44 195.22 469.51 193.76H469.5Z" fill="#EBEBEB"/>
<path d="M102.08 169.07C99.6804 167.26 96.1903 167.05 93.5903 168.57C90.1503 161.62 80.5604 158.55 73.7204 162.21C71.9404 154.72 64.5503 148.96 56.8503 149.05C49.1503 149.14 41.9104 155.08 40.3004 162.61C40.0504 163.81 39.8804 165.12 39.0204 165.99C37.6304 167.41 35.3104 166.93 33.3204 166.78C27.0804 166.29 20.8104 170.67 19.1104 176.69L105 176.38C105.75 173.47 104.46 170.87 102.06 169.06L102.08 169.07Z" fill="#F5F5F5"/>
<path d="M128.77 252.92C126.37 251.11 122.88 250.9 120.28 252.42C116.84 245.47 107.25 242.4 100.41 246.06C98.6298 238.57 91.2398 232.81 83.5398 232.9C75.8398 232.99 68.5998 238.93 66.9898 246.46C66.7398 247.66 66.5698 248.97 65.7098 249.84C64.3198 251.26 61.9998 250.78 60.0098 250.63C53.7698 250.14 47.4998 254.52 45.7998 260.54L131.69 260.23C132.44 257.32 131.15 254.72 128.75 252.91L128.77 252.92Z" fill="#F5F5F5"/>
<path d="M292.81 38.5201C290.73 36.9501 287.69 36.7701 285.44 38.0901C282.45 32.0501 274.12 29.3801 268.18 32.5701C266.63 26.0601 260.22 21.0601 253.52 21.1401C246.83 21.2201 240.54 26.3801 239.14 32.9201C238.92 33.9601 238.77 35.1001 238.03 35.8601C236.82 37.0901 234.8 36.6801 233.08 36.5501C227.66 36.1301 222.21 39.9301 220.73 45.1601L295.36 44.8901C296.01 42.3601 294.89 40.1001 292.81 38.5301V38.5201Z" fill="#EBEBEB"/>
<path d="M458.88 445.15C458.88 448.54 365.36 451.28 250 451.28C134.64 451.28 41.1201 448.53 41.1201 445.15C41.1201 441.77 134.64 439.02 250 439.02C365.36 439.02 458.88 441.77 458.88 445.15Z" fill="#F5F5F5"/>
<path d="M430.46 105.51H68.9102V442.58H430.46V105.51Z" fill="#6C63FF"/>
<path opacity="0.3" d="M430.46 105.51H68.9102V442.58H430.46V105.51Z" fill="white"/>
<path d="M277.01 152.54H80.9297V303.15H277.01V152.54Z" fill="#6C63FF"/>
<path d="M423.66 149.06H289.62V442.58H423.66V149.06Z" fill="#263238"/>
<path opacity="0.8" d="M277.01 152.54H80.9297V303.15H277.01V152.54Z" fill="white"/>
<path d="M411.3 166.57H303.79V293.09H411.3V166.57Z" fill="#6C63FF"/>
<path opacity="0.8" d="M411.3 166.57H303.79V293.09H411.3V166.57Z" fill="white"/>
<path opacity="0.6" d="M381.02 166.57L303.79 233.11V256.93L410.77 166.57H381.02Z" fill="white"/>
<path opacity="0.6" d="M411.31 181.81L303.79 273.3V284.77L411.31 194.7V181.81Z" fill="white"/>
<path opacity="0.6" d="M207.79 152.54L81.6396 235.24V267.55L248.14 152.54H207.79Z" fill="white"/>
<path opacity="0.6" d="M277 152.54L80.9297 289.46V303.15H83.6297L277.13 169.17L277 152.54Z" fill="white"/>
<path d="M316.22 314.76C316.22 318.48 313.21 321.49 309.49 321.49C305.77 321.49 302.76 318.48 302.76 314.76C302.76 311.04 305.77 308.03 309.49 308.03C313.21 308.03 316.22 311.04 316.22 314.76Z" fill="#6C63FF"/>
<path d="M282.88 301.82H75.1797V314.24H282.88V301.82Z" fill="#263238"/>
<path opacity="0.3" d="M271.31 412.52H95.8604V332H271.31V412.52ZM96.8604 411.52H270.31V333H96.8604V411.52Z" fill="white"/>
<path opacity="0.3" d="M261.9 403.96H105.62V340.55H261.9V403.96ZM106.62 402.96H260.9V341.55H106.62V402.96Z" fill="white"/>
<path d="M93.6205 67.75L54.2305 107.37H444.76L406.8 67.75H93.6205Z" fill="#6C63FF"/>
<path d="M54.2305 107.37C54.2305 120.32 63.9605 130.82 75.9705 130.82C87.9805 130.82 97.8005 120.32 97.8005 107.37H54.2305Z" fill="#6C63FF"/>
<path d="M97.7998 107.37C97.7998 120.32 107.53 130.82 119.54 130.82C131.55 130.82 141.37 120.32 141.37 107.37H97.7998Z" fill="#6C63FF"/>
<path d="M141.37 107.37C141.37 120.32 151.1 130.82 163.11 130.82C175.12 130.82 184.94 120.32 184.94 107.37H141.37Z" fill="#6C63FF"/>
<path d="M184.94 107.37C184.94 120.32 194.67 130.82 206.68 130.82C218.69 130.82 228.42 120.32 228.42 107.37H184.94Z" fill="#6C63FF"/>
<path d="M228.51 107.37C228.51 120.32 238.24 130.82 250.25 130.82C262.26 130.82 271.99 120.32 271.99 107.37H228.51Z" fill="#6C63FF"/>
<path d="M272.08 107.37C272.08 120.32 281.81 130.82 293.82 130.82C305.83 130.82 315.56 120.32 315.56 107.37H272.08Z" fill="#6C63FF"/>
<path d="M315.65 107.37C315.65 120.32 325.38 130.82 337.39 130.82C349.4 130.82 359.13 120.32 359.13 107.37H315.65Z" fill="#6C63FF"/>
<path d="M359.22 107.37C359.22 120.32 368.95 130.82 380.96 130.82C392.97 130.82 401.58 120.32 401.58 107.37H359.22Z" fill="#6C63FF"/>
<path d="M402.4 107.37C402.4 120.32 412.13 130.82 424.14 130.82C436.15 130.82 444.76 120.32 444.76 107.37H402.4Z" fill="#6C63FF"/>
<path opacity="0.5" d="M97.8005 107.37L119.54 67.75H93.6205L54.2305 107.37H97.8005Z" fill="white"/>
<path opacity="0.5" d="M141.37 107.37C141.28 107.37 157.57 67.75 157.57 67.75H188.56L184.94 107.37H141.37Z" fill="white"/>
<path opacity="0.5" d="M260.19 67.75H225.59L228.51 107.37H272.08L260.19 67.75Z" fill="white"/>
<path opacity="0.5" d="M315.65 107.37L314.98 105.42L299.76 67.75H332.89L359.22 107.37" fill="white"/>
<path opacity="0.6" d="M54.2305 107.37C54.2305 120.32 63.9605 130.82 75.9705 130.82C87.9805 130.82 97.8005 120.32 97.8005 107.37H54.2305Z" fill="white"/>
<path opacity="0.6" d="M141.37 107.37C141.37 120.32 151.1 130.82 163.11 130.82C175.12 130.82 184.94 120.32 184.94 107.37H141.37Z" fill="white"/>
<path opacity="0.6" d="M228.51 107.37C228.51 120.32 238.24 130.82 250.25 130.82C262.26 130.82 271.99 120.32 271.99 107.37H228.51Z" fill="white"/>
<path opacity="0.6" d="M315.65 107.37C315.65 120.32 325.38 130.82 337.39 130.82C349.4 130.82 359.13 120.32 359.13 107.37H315.65Z" fill="white"/>
<path opacity="0.5" d="M402.4 107.37L372.6 67.75H406.8L444.76 107.37H402.4Z" fill="white"/>
<path opacity="0.6" d="M402.4 107.37C402.4 120.32 412.13 130.82 424.14 130.82C436.15 130.82 444.76 120.32 444.76 107.37H402.4Z" fill="white"/>
<path d="M324.75 215.71L324.05 214.99L357.56 182L389.76 215L389.05 215.7L357.54 183.42L324.75 215.71Z" fill="#263238"/>
<path d="M392.25 214.62H321.01V256.6H392.25V214.62Z" fill="#6C63FF"/>
<path d="M388.04 218.96H325.18V252.27H388.04V218.96Z" fill="#263238"/>
<path d="M339.258 240.674C338.126 240.674 337.107 240.434 336.2 239.955C335.303 239.476 334.594 238.814 334.074 237.968C333.565 237.122 333.31 236.169 333.31 235.108C333.31 234.048 333.565 233.095 334.074 232.249C334.594 231.403 335.303 230.741 336.2 230.262C337.107 229.782 338.126 229.543 339.258 229.543C340.389 229.543 341.403 229.782 342.3 230.262C343.208 230.741 343.916 231.403 344.426 232.249C344.946 233.095 345.206 234.048 345.206 235.108C345.206 236.169 344.946 237.122 344.426 237.968C343.916 238.814 343.208 239.476 342.3 239.955C341.403 240.434 340.389 240.674 339.258 240.674ZM339.258 238.166C339.798 238.166 340.287 238.039 340.726 237.784C341.164 237.529 341.51 237.173 341.765 236.714C342.02 236.245 342.148 235.71 342.148 235.108C342.148 234.507 342.02 233.977 341.765 233.518C341.51 233.049 341.164 232.688 340.726 232.433C340.287 232.178 339.798 232.05 339.258 232.05C338.717 232.05 338.228 232.178 337.79 232.433C337.352 232.688 337.005 233.049 336.75 233.518C336.495 233.977 336.368 234.507 336.368 235.108C336.368 235.71 336.495 236.245 336.75 236.714C337.005 237.173 337.352 237.529 337.79 237.784C338.228 238.039 338.717 238.166 339.258 238.166ZM351.684 229.757C352.652 229.757 353.493 229.92 354.207 230.246C354.92 230.562 355.471 231.021 355.858 231.622C356.245 232.214 356.439 232.912 356.439 233.717C356.439 234.522 356.245 235.221 355.858 235.812C355.471 236.403 354.92 236.862 354.207 237.188C353.493 237.504 352.652 237.662 351.684 237.662H349.819V240.46H346.791V229.757H351.684ZM351.5 235.277C352.122 235.277 352.591 235.144 352.907 234.879C353.223 234.604 353.381 234.217 353.381 233.717C353.381 233.218 353.223 232.83 352.907 232.555C352.591 232.28 352.122 232.142 351.5 232.142H349.819V235.277H351.5ZM366.508 238.121V240.46H357.915V229.757H366.309V232.096H360.912V233.901H365.667V236.163H360.912V238.121H366.508ZM378.371 229.757V240.46H375.879L371.154 234.757V240.46H368.188V229.757H370.68L375.405 235.46V229.757H378.371Z" fill="white"/>
<path d="M197.97 460.29L178.53 333.78H118.83L124.77 460.29H132.23L131.56 445.03L187.84 444.99L190.57 460.29H197.97Z" fill="#6C63FF"/>
<path opacity="0.5" d="M197.97 460.29L178.53 333.78H118.83L124.77 460.29H132.23L131.56 445.03L187.84 444.99L190.57 460.29H197.97Z" fill="black"/>
<path d="M156.13 460.29L178.53 333.78H105.32L84.5996 460.29H92.9496L95.2896 444.56L150.78 445.28L148.44 460.29H156.13Z" fill="#6C63FF"/>
<path d="M153.12 433.49L168.5 342.36H111.34L95.96 433.49H153.12Z" fill="#263238"/>
<path opacity="0.3" d="M98.38 433.49L113.44 344.76H168.1L168.5 342.36H111.34L95.96 433.49H98.38Z" fill="black"/>
<path d="M142.48 365.55L135.193 379.3H132.462L131.087 369.223L125.587 379.3H122.857L121.05 365.55H123.584L124.939 376L130.576 365.55H132.953L134.309 376.098L139.946 365.55H142.48ZM147.128 367.326L146.398 371.013H153.266L152.841 373.181H145.952L145.183 377.091H153.206L152.76 379.3H142.123L144.96 365.118H155.313L154.867 367.326H147.128Z" fill="white"/>
<path d="M127.57 389.338H123.721L122.616 391.11H121.096L126.072 383.454H127.483L129.386 391.11H127.975L127.57 389.338ZM127.308 388.223L126.532 384.854L124.421 388.223H127.308ZM137.785 385.762C137.785 386.498 137.588 387.122 137.195 387.632C136.801 388.135 136.251 388.485 135.543 388.682L136.91 391.11H135.401L134.143 388.868H134.133H132.241L131.803 391.11H130.37L131.902 383.454H134.876C135.802 383.454 136.517 383.659 137.02 384.067C137.53 384.468 137.785 385.033 137.785 385.762ZM134.176 387.698C134.869 387.698 135.405 387.545 135.784 387.238C136.163 386.925 136.353 386.476 136.353 385.893C136.353 385.485 136.21 385.179 135.926 384.975C135.649 384.763 135.248 384.657 134.723 384.657H133.094L132.481 387.698H134.176ZM141.071 384.646L140.677 386.637H144.385L144.155 387.807H140.437L140.021 389.918H144.352L144.111 391.11H138.37L139.901 383.454H145.489L145.249 384.646H141.071Z" fill="white"/>
<path d="M113.4 408.764C112.332 408.764 111.409 408.574 110.628 408.194C109.859 407.804 109.268 407.265 108.858 406.578C108.447 405.88 108.242 405.074 108.242 404.16C108.242 402.949 108.514 401.851 109.058 400.866C109.612 399.88 110.392 399.105 111.398 398.541C112.404 397.966 113.554 397.679 114.847 397.679C115.915 397.679 116.833 397.874 117.603 398.264C118.383 398.643 118.978 399.182 119.389 399.88C119.8 400.568 120.005 401.369 120.005 402.282C120.005 403.493 119.728 404.591 119.173 405.577C118.629 406.562 117.854 407.342 116.849 407.917C115.843 408.482 114.693 408.764 113.4 408.764ZM113.569 407.009C114.442 407.009 115.211 406.803 115.879 406.393C116.556 405.972 117.074 405.413 117.434 404.715C117.803 404.006 117.988 403.237 117.988 402.405C117.988 401.502 117.695 400.783 117.11 400.25C116.536 399.706 115.72 399.434 114.662 399.434C113.79 399.434 113.015 399.644 112.337 400.065C111.67 400.476 111.157 401.035 110.798 401.743C110.439 402.441 110.259 403.206 110.259 404.037C110.259 404.94 110.546 405.664 111.121 406.208C111.696 406.742 112.512 407.009 113.569 407.009ZM127.502 397.494C128.847 397.494 129.884 397.79 130.615 398.383C131.356 398.965 131.726 399.786 131.726 400.845C131.726 401.787 131.509 402.602 131.075 403.29C130.652 403.968 130.038 404.492 129.233 404.862C128.439 405.222 127.502 405.402 126.422 405.402H123.707L123.056 408.61H120.991L123.215 397.494H127.502ZM126.502 403.655C127.508 403.655 128.28 403.433 128.82 402.988C129.371 402.533 129.646 401.882 129.646 401.035C129.646 400.442 129.44 399.998 129.027 399.701C128.624 399.394 128.042 399.241 127.28 399.241H124.93L124.056 403.655H126.502ZM136.281 399.225L135.709 402.115H141.093L140.759 403.814H135.36L134.757 406.879H141.045L140.696 408.61H132.359L134.582 397.494H142.697L142.347 399.225H136.281ZM155.082 397.494L152.859 408.61H151.159L146.602 400.829L145.046 408.61H142.997L145.22 397.494H146.919L151.493 405.275L153.033 397.494H155.082Z" fill="white"/>
<path opacity="0.3" d="M130.41 358.46C128.95 355.37 127.48 352.27 126.02 349.18C125.61 348.31 124.31 349.07 124.72 349.94C126.18 353.03 127.65 356.13 129.11 359.22C129.52 360.09 130.82 359.33 130.41 358.46Z" fill="white"/>
<path opacity="0.3" d="M137.09 359.55C137.63 356.09 138.17 352.63 138.71 349.17C138.77 348.77 138.61 348.37 138.19 348.25C137.84 348.15 137.33 348.37 137.27 348.77C136.73 352.23 136.19 355.69 135.65 359.15C135.59 359.55 135.75 359.95 136.17 360.07C136.52 360.17 137.03 359.95 137.09 359.55Z" fill="white"/>
<path opacity="0.3" d="M141.26 360.82C144.06 357.11 147.2 353.67 150.64 350.55C151.36 349.9 150.29 348.84 149.58 349.49C146.04 352.7 142.84 356.25 139.97 360.06C139.72 360.39 139.92 360.9 140.24 361.09C140.62 361.32 141.02 361.14 141.27 360.82H141.26Z" fill="white"/>
<path opacity="0.3" d="M121.22 416.13C118.36 419.01 115.68 422.07 113.19 425.27C112.94 425.59 112.88 426.02 113.19 426.33C113.45 426.59 114 426.65 114.25 426.33C116.74 423.12 119.42 420.07 122.28 417.19C122.96 416.5 121.9 415.44 121.22 416.13Z" fill="white"/>
<path opacity="0.3" d="M126.57 416.26C125.83 420.38 125.61 424.58 125.94 428.76C126.02 429.72 127.52 429.72 127.44 428.76C127.11 424.72 127.29 420.65 128.01 416.66C128.18 415.72 126.73 415.31 126.56 416.26H126.57Z" fill="white"/>
<path opacity="0.3" d="M132.88 417.22C134.47 420.36 136.44 423.2 138.56 426.01C138.8 426.33 139.21 426.5 139.59 426.28C139.91 426.09 140.1 425.58 139.86 425.25C137.74 422.44 135.77 419.6 134.18 416.46C133.74 415.6 132.45 416.36 132.88 417.22Z" fill="white"/>
<path d="M461.02 290.07C445.07 308.72 440.42 336.33 449.36 359.19C459.3 350.32 466.3 336.8 466.74 324.97C467.18 313.14 464.09 301.5 461.02 290.07Z" fill="#6C63FF"/>
<path d="M458.24 361.34C452.83 369.63 450.24 379.73 450.99 389.6C459.61 386.6 467.21 376.86 471.77 368.95C476.33 361.04 478.87 352.16 481.19 343.33C471.85 346.62 463.65 353.05 458.24 361.34Z" fill="#6C63FF"/>
<path d="M456.2 322.64C449.8 345.64 446.54 369.48 446.55 393.35C446.55 400.18 446.83 407.01 447.36 413.82C447.4 414.3 448.15 414.3 448.11 413.82C446.24 389.93 447.63 365.81 452.29 342.3C453.59 335.75 455.14 329.26 456.93 322.83C457.06 322.36 456.34 322.17 456.21 322.63L456.2 322.64Z" fill="#263238"/>
<path d="M447.64 397.41C454.19 381.83 462.79 367.24 472.73 353.6C473.01 353.21 472.36 352.83 472.08 353.22C462.1 366.92 453.49 381.56 446.92 397.2C446.73 397.64 447.46 397.84 447.64 397.4V397.41Z" fill="#263238"/>
<path d="M438.31 374.26C442.82 381.17 444.98 389.59 444.35 397.82C437.16 395.32 430.83 387.2 427.03 380.6C423.23 374 421.11 366.6 419.17 359.24C426.96 361.98 433.79 367.35 438.31 374.26Z" fill="#6C63FF"/>
<path d="M447.44 403.27C442.07 390.49 434.97 378.65 426.82 367.47C426.54 367.08 425.89 367.46 426.17 367.85C434.28 378.98 441.37 390.76 446.71 403.47C446.89 403.91 447.62 403.72 447.43 403.27H447.44Z" fill="#263238"/>
<path d="M447.68 407.56C457.82 397.12 468.18 386.9 478.32 376.46C478.66 376.11 478.13 375.58 477.79 375.93C467.65 386.37 457.29 396.59 447.15 407.03C446.81 407.38 447.34 407.91 447.68 407.56Z" fill="#263238"/>
<path d="M478.67 371.63C469.87 380.12 461.85 389.42 454.75 399.37H456.36C463.06 399.06 469.56 395.75 473.76 390.53C477.96 385.31 479.8 378.24 478.67 371.63Z" fill="#6C63FF"/>
<path d="M436.97 351.41C440.75 357.59 444.31 363.9 447.64 370.33C447.86 370.76 448.51 370.38 448.29 369.95C444.95 363.52 441.39 357.21 437.62 351.03C437.37 350.62 436.72 351 436.97 351.41Z" fill="#263238"/>
<path d="M427.9 320.19C426.46 326.67 425.03 335.1 425.02 341.85C425.01 348.6 427.06 355.19 430.9 359.71C434.74 364.23 442.48 366.21 445.6 363.63L427.91 320.19H427.9Z" fill="#6C63FF"/>
<path d="M466.14 410.54H427.7V417.66H466.14V410.54Z" fill="#263238"/>
<path d="M459.92 443.04H436.05L431.71 416.03H463.35L459.92 443.04Z" fill="#263238"/>
<path opacity="0.2" d="M432 417.79H463.13L462.74 420.85H432.49L432 417.79Z" fill="black"/>
<path d="M43.8001 288.98C59.7501 307.63 64.4001 335.24 55.4601 358.1C45.5201 349.23 38.5201 335.71 38.0801 323.88C37.6401 312.05 40.7301 300.41 43.8001 288.98Z" fill="#6C63FF"/>
<path d="M46.5799 360.25C51.9899 368.54 54.5799 378.64 53.8299 388.51C45.2099 385.51 37.6099 375.77 33.0499 367.86C28.4899 359.95 25.9499 351.07 23.6299 342.24C32.9699 345.53 41.1699 351.96 46.5799 360.25Z" fill="#6C63FF"/>
<path d="M47.8897 321.74C54.3097 344.83 57.5697 368.76 57.5097 392.73C57.4997 399.4 57.2197 406.07 56.6997 412.73C56.6597 413.21 57.4097 413.21 57.4497 412.73C59.3097 388.93 57.9297 364.91 53.3397 341.48C52.0297 334.78 50.4397 328.13 48.6097 321.54C48.4797 321.08 47.7597 321.27 47.8897 321.74Z" fill="#263238"/>
<path d="M57.9 396.12C51.33 380.48 42.72 365.83 32.74 352.14C32.46 351.75 31.81 352.13 32.09 352.52C42.03 366.16 50.63 380.75 57.18 396.33C57.36 396.77 58.09 396.58 57.9 396.13V396.12Z" fill="#263238"/>
<path d="M66.5096 373.17C61.9996 380.08 59.8396 388.5 60.4696 396.73C67.6596 394.23 73.9896 386.11 77.7896 379.51C81.5896 372.91 83.7096 365.51 85.6496 358.15C77.8596 360.89 71.0296 366.26 66.5096 373.17Z" fill="#6C63FF"/>
<path d="M58.1002 402.37C63.4502 389.66 70.5302 377.87 78.6402 366.75C78.9202 366.36 78.2702 365.98 77.9902 366.37C69.8402 377.56 62.7402 389.4 57.3702 402.17C57.1802 402.61 57.9102 402.81 58.0902 402.37H58.1002Z" fill="#263238"/>
<path d="M57.6603 405.93C47.5203 395.49 37.1603 385.27 27.0203 374.83C26.6803 374.48 26.1503 375.01 26.4903 375.36C36.6303 385.8 46.9903 396.02 57.1303 406.46C57.4703 406.81 58.0003 406.28 57.6603 405.93Z" fill="#263238"/>
<path d="M26.1403 370.53C34.9403 379.02 42.9603 388.32 50.0603 398.27H48.4503C41.7503 397.96 35.2503 394.65 31.0503 389.43C26.8503 384.21 25.0103 377.14 26.1403 370.53Z" fill="#6C63FF"/>
<path d="M67.1904 349.94C63.4104 356.12 59.8504 362.43 56.5204 368.86C56.3004 369.29 56.9504 369.67 57.1704 369.24C60.5104 362.81 64.0704 356.5 67.8404 350.32C68.0904 349.91 67.4404 349.53 67.1904 349.94Z" fill="#263238"/>
<path d="M76.9097 319.09C78.3497 325.57 79.7797 334 79.7997 340.75C79.8097 347.5 77.7597 354.09 73.9197 358.61C70.0797 363.13 62.3397 365.11 59.2197 362.53L76.9097 319.09Z" fill="#6C63FF"/>
<path d="M38.6703 416.57H77.1104V409.45H38.6703V416.57Z" fill="#263238"/>
<path d="M44.8897 441.95H68.7697L73.0997 414.93H41.4697L44.8897 441.95Z" fill="#263238"/>
<path opacity="0.2" d="M72.8204 416.7H41.6904L42.0804 419.76H72.3304L72.8204 416.7Z" fill="black"/>
<path d="M225.78 222.94L207.14 238.03L204.49 213.76H197.82C197.82 213.76 197.09 238.16 196.98 241.2C196.87 244.13 197.4 247 198.31 249.36C199.82 253.29 204.61 254.78 208.16 252.52L230.57 238.29L235.28 218.92L231.59 219.82C229.48 220.49 227.51 221.55 225.79 222.94H225.78Z" fill="#B97964"/>
<path d="M204.51 214.48C204.51 214.48 206.67 212.61 206.83 210.26C206.99 207.91 207.74 206.06 207.73 204.31C207.73 202.55 206.18 204.36 205.55 205.49C204.92 206.62 204.2 207.89 203.43 207.28C202.66 206.68 199.55 198.87 198.39 198.15C197.23 197.43 197.34 198.86 197.34 198.86C197.34 198.86 196.53 196.98 195.7 197.11C195.48 197.14 195.03 197.57 195.27 198.48C195.8 200.54 197.12 204.79 197.12 204.79C197.05 204.54 195.04 199.41 194.63 198.68C194.11 197.73 193.37 197.55 192.83 197.88C192.06 198.34 194.34 204.79 194.24 205.13C194.24 205.13 193.05 201.37 191.92 201.15C190.78 200.93 191.4 203.34 192.35 205.36C193.22 207.21 194.44 211.07 195.51 212.86C196.82 215.07 198.2 216.25 200.6 215.98C203 215.7 204.5 214.5 204.5 214.5L204.51 214.48Z" fill="#B97964"/>
<path opacity="0.2" d="M207.14 238.02C207.14 238.02 207.58 239.76 207.14 242.01C207.14 242.01 210.05 239.5 209.31 236.26L207.14 238.02Z" fill="black"/>
<path opacity="0.2" d="M199.64 203.88C199.54 203.88 199.45 203.82 199.41 203.73C198.73 202.1 197.95 200.48 197.1 198.93C197.03 198.81 197.08 198.66 197.2 198.59C197.32 198.52 197.47 198.57 197.54 198.69C198.4 200.26 199.18 201.89 199.87 203.54C199.92 203.67 199.87 203.81 199.74 203.87C199.71 203.88 199.68 203.89 199.64 203.89V203.88Z" fill="black"/>
<path opacity="0.2" d="M195.56 207.57C195.49 207.57 195.41 207.54 195.36 207.47C195.28 207.36 195.3 207.2 195.41 207.12C196.82 206.03 198.38 205.17 200.05 204.56C200.18 204.51 200.32 204.58 200.37 204.71C200.42 204.84 200.35 204.98 200.22 205.03C198.6 205.63 197.08 206.47 195.71 207.52C195.66 207.55 195.61 207.57 195.56 207.57Z" fill="black"/>
<path d="M276.58 452.57L267.94 453.41L263.22 431.36L276.58 430.11V452.57Z" fill="#B97964"/>
<path d="M266.69 449.6H269.77C270.47 449.6 271.11 449.95 271.53 450.52C273.31 452.95 274.65 452.03 276.58 449.75C277.81 449.61 278.14 451.02 278.24 451.4L280.55 459.79C280.75 460.49 280.34 461.22 279.64 461.42C279.52 461.46 279.39 461.47 279.26 461.47H254.82C250.93 461.47 250.13 457.55 251.73 457.19C258.93 455.6 264.03 453.48 266.25 451.39C266.66 451.02 266.24 450.75 266.69 449.61V449.6Z" fill="#263238"/>
<path d="M262.09 452.46C263.06 452.44 264.03 452.31 264.98 452.09C265.07 452.06 265.12 451.96 265.08 451.87C265.06 451.82 265.02 451.78 264.98 451.77C264.55 451.56 260.69 449.76 259.72 450.44C259.54 450.56 259.44 450.77 259.47 450.98C259.47 451.38 259.67 451.75 259.99 451.99C260.62 452.37 261.35 452.53 262.08 452.46H262.09ZM264.38 451.86C263.24 452.07 261.13 452.35 260.25 451.7C260.02 451.52 259.88 451.25 259.87 450.96C259.85 450.87 259.89 450.78 259.97 450.73C260.5 450.36 262.78 451.15 264.38 451.86Z" fill="#6C63FF"/>
<path d="M264.94 452.09C264.94 452.09 265.02 452.1 265.06 452.09C265.11 452.05 265.13 451.97 265.11 451.91C265.11 451.75 264.2 447.95 262.09 448.19C261.57 448.26 261.42 448.51 261.4 448.72C261.27 449.73 263.7 451.63 264.85 452.11L264.94 452.08V452.09ZM262.3 448.5C263.64 448.5 264.41 450.72 264.68 451.6C263.42 450.94 261.66 449.35 261.77 448.74C261.77 448.69 261.77 448.55 262.16 448.51H262.3V448.5Z" fill="#6C63FF"/>
<path d="M267.17 453.92C267.09 453.92 267.01 453.88 266.96 453.8C266.43 452.95 265.51 452.36 264.52 452.23C264.38 452.21 264.29 452.09 264.31 451.95C264.33 451.81 264.45 451.73 264.59 451.74C265.73 451.9 266.77 452.57 267.39 453.54C267.46 453.66 267.43 453.81 267.31 453.88C267.27 453.91 267.22 453.92 267.18 453.92H267.17Z" fill="#6C63FF"/>
<path d="M265.25 455.36C265.17 455.36 265.09 455.32 265.04 455.24C264.51 454.39 263.59 453.8 262.6 453.67C262.46 453.65 262.37 453.53 262.39 453.39C262.41 453.25 262.53 453.17 262.67 453.18C263.81 453.34 264.85 454.01 265.47 454.98C265.54 455.1 265.51 455.25 265.39 455.32C265.35 455.35 265.3 455.36 265.26 455.36H265.25Z" fill="#6C63FF"/>
<path d="M262.87 456.57C262.79 456.57 262.71 456.53 262.66 456.45C262.13 455.6 261.21 455.01 260.22 454.88C260.08 454.86 259.99 454.74 260.01 454.6C260.03 454.46 260.15 454.38 260.29 454.39C261.43 454.55 262.47 455.22 263.09 456.19C263.16 456.31 263.13 456.46 263.01 456.53C262.97 456.56 262.92 456.57 262.88 456.57H262.87Z" fill="#6C63FF"/>
<path d="M234.71 451.9L226.07 452.74L222.07 430.61L234.35 429.28L234.71 451.9Z" fill="#B97964"/>
<path d="M224.82 448.93H227.9C228.6 448.93 229.24 449.28 229.66 449.85C231.44 452.28 232.78 451.36 234.71 449.08C235.94 448.94 236.27 450.35 236.37 450.73L238.68 459.12C238.88 459.82 238.47 460.55 237.77 460.75C237.65 460.79 237.52 460.8 237.39 460.8H212.95C209.06 460.8 208.26 456.88 209.86 456.52C217.06 454.93 222.16 452.81 224.38 450.72C224.79 450.35 224.37 450.08 224.82 448.94V448.93Z" fill="#263238"/>
<path d="M220.22 451.79C221.19 451.77 222.16 451.64 223.11 451.42C223.2 451.39 223.25 451.29 223.21 451.2C223.19 451.15 223.15 451.11 223.11 451.1C222.68 450.89 218.82 449.09 217.85 449.77C217.67 449.89 217.57 450.1 217.6 450.31C217.6 450.71 217.8 451.08 218.12 451.32C218.75 451.7 219.48 451.86 220.21 451.79H220.22ZM222.51 451.19C221.37 451.4 219.26 451.68 218.38 451.03C218.15 450.85 218.01 450.58 218 450.29C217.98 450.2 218.02 450.11 218.1 450.06C218.63 449.69 220.91 450.48 222.51 451.19Z" fill="#6C63FF"/>
<path d="M223.07 451.43C223.07 451.43 223.15 451.44 223.19 451.43C223.24 451.38 223.26 451.31 223.24 451.25C223.24 451.09 222.33 447.29 220.22 447.53C219.7 447.6 219.55 447.85 219.53 448.06C219.4 449.07 221.83 450.97 222.98 451.45L223.07 451.42V451.43ZM220.43 447.84C221.77 447.84 222.54 450.06 222.81 450.94C221.55 450.28 219.79 448.69 219.9 448.08C219.9 448.03 219.9 447.89 220.29 447.85H220.43V447.84Z" fill="#6C63FF"/>
<path d="M225.3 453.25C225.22 453.25 225.14 453.21 225.09 453.13C224.56 452.28 223.64 451.69 222.65 451.56C222.51 451.54 222.42 451.42 222.44 451.28C222.46 451.14 222.59 451.05 222.72 451.07C223.86 451.23 224.9 451.9 225.52 452.87C225.59 452.99 225.56 453.14 225.44 453.21C225.4 453.24 225.35 453.25 225.31 453.25H225.3Z" fill="#6C63FF"/>
<path d="M223.38 454.69C223.3 454.69 223.22 454.65 223.17 454.57C222.64 453.72 221.72 453.13 220.73 453C220.59 452.98 220.5 452.85 220.52 452.72C220.54 452.58 220.67 452.49 220.8 452.51C221.94 452.67 222.98 453.34 223.6 454.31C223.67 454.43 223.64 454.58 223.52 454.65C223.48 454.68 223.43 454.69 223.39 454.69H223.38Z" fill="#6C63FF"/>
<path d="M221 455.9C220.92 455.9 220.84 455.86 220.79 455.78C220.26 454.93 219.34 454.34 218.35 454.21C218.21 454.19 218.12 454.07 218.14 453.93C218.16 453.79 218.29 453.7 218.42 453.72C219.56 453.88 220.6 454.55 221.22 455.52C221.29 455.64 221.26 455.79 221.14 455.86C221.1 455.89 221.05 455.9 221.01 455.9H221Z" fill="#6C63FF"/>
<path d="M220.82 288.18C220.2 290.02 213.22 349.11 213.3 361.86C213.37 372.18 221.35 441.79 221.35 441.79L236.38 441.27C236.38 441.27 235.6 406.91 236.04 394.98C236.48 383.05 233.61 360.64 233.61 360.64L251.6 306.84L250.92 288.79L220.8 288.19L220.82 288.18Z" fill="#263238"/>
<path d="M274.55 367.56C274.15 365.84 273.52 362.34 272.75 357.73C272.77 357.73 272.8 357.72 272.82 357.71C272.25 351.61 274.21 320.01 272.28 301.97C270.8 290.47 268.05 284.36 265.1 280.55C264.95 280.35 264.81 280.18 264.68 280.02C264.19 279.41 263.89 279.07 263.89 279.07C263.33 279.21 262.77 279.34 262.21 279.46C262 279.51 261.79 279.55 261.59 279.59C240.7 283.96 223.03 277.7 223.03 277.7C221.11 282.45 220.06 294.23 218.65 304.72C220.83 307.12 229.33 309.34 240.33 311.41L243.47 325.6C245.12 334.4 247.24 343.02 249.04 350.79L250.92 359.3C251.03 359.86 251.15 360.41 251.25 360.95C252.2 365.84 262.93 443.34 262.93 443.34L278.2 443.59C278.2 443.59 279.89 390.88 274.54 367.56H274.55Z" fill="#263238"/>
<path d="M232.13 218.56C224.39 222.54 214.49 230.95 214.49 230.95L223.29 246.52C223.29 246.52 241.42 234.17 239.51 229.61C237.52 224.86 237.43 217.73 232.13 218.56Z" fill="#263238"/>
<path d="M227.85 228.41C226.88 230.07 226.54 231.02 225.94 232.93C225.33 234.84 225 238.32 224.85 240.12L228.13 241.07C228 236.68 227.98 232.81 227.86 228.42L227.85 228.41Z" fill="black"/>
<path d="M270.75 241.47L275.65 223.59C272.23 218.49 255.83 214.04 255.83 214.04L244.69 214.65C244.69 214.65 240.41 215.6 236.74 216.8C231.85 218.4 229.2 219.68 228.04 222.39C228.04 222.39 226 228.4 227.23 240.8C227.57 244.21 227.18 261.93 226.23 267.78L221.21 282.65C241.56 298.5 266.87 281.59 266.87 281.59C265.96 278.79 265.34 275.68 264.93 272.95C265.23 269.46 264.81 264.08 266.29 257.97C266.58 256.79 270.26 242.61 270.75 241.47Z" fill="#263238"/>
<path opacity="0.3" d="M269.04 246.53C269.04 246.53 261.24 236.7 262.56 232.62L270.59 240.13L269.04 246.53Z" fill="black"/>
<path d="M267.6 223.28C268.1 223.61 271.97 221.66 276.28 226.99C280.14 231.76 298.54 250.71 297.94 257.36C297.4 263.3 272.34 282.11 272.34 282.11L268.2 276.38L284.58 256.14L269.07 242.11L267.59 223.28H267.6Z" fill="#B97964"/>
<path d="M272.47 221.31C276.87 222.28 284.59 233.58 284.59 233.58L270.98 244.85C270.98 244.85 262.49 234.78 263.2 229.03C263.81 224.17 266.89 220.07 272.48 221.31H272.47Z" fill="#263238"/>
<path d="M226.54 235.07C226.51 234.3 227.13 233.68 227.9 233.7C234.05 233.87 258.46 233.74 259.49 235.36C260.68 237.22 258.86 261.18 260.9 263.49C262.94 265.8 265.37 265.47 265.37 265.47L265.24 270.77C265.24 270.77 263.07 269.87 262.41 271.74C261.75 273.61 267.82 357.35 263.34 358.88C258.86 360.41 215.37 363.64 212.49 358.88C209.6 354.12 216.95 294.89 219.45 282.49C221.95 270.09 224.22 261.74 225.57 255.6C226.9 249.54 226.67 238.89 226.54 235.07Z" fill="#6C63FF"/>
<path d="M229.28 241.06C229.28 241.06 232 220.17 233.47 217.98C234.93 215.79 239.78 215.35 239.78 215.35C239.78 215.35 237.68 217.07 236.81 220.42C235.94 223.77 233.62 242.01 233.62 242.01L229.28 241.06Z" fill="#6C63FF"/>
<path d="M250.71 239.57C250.71 239.57 254.89 216.94 260.69 215.35L265.05 216.8C265.05 216.8 255.99 225.35 255.81 240.41L250.71 239.57Z" fill="#6C63FF"/>
<path opacity="0.3" d="M223.43 292.16C223.43 292.16 244.18 293.84 252.72 292.16C252.72 292.16 253.56 309.85 249.82 313.06C245.55 316.72 224.34 318.55 223.41 308.64C222.79 302.05 223.43 292.16 223.43 292.16Z" fill="black"/>
<path opacity="0.3" d="M232.95 235.5C232.95 235.92 232.61 236.27 232.18 236.27C231.75 236.27 231.41 235.93 231.41 235.5C231.41 235.07 231.75 234.73 232.18 234.73C232.61 234.73 232.95 235.07 232.95 235.5Z" fill="black"/>
<path opacity="0.3" d="M254.87 235.5C254.87 235.92 254.53 236.27 254.1 236.27C253.67 236.27 253.33 235.93 253.33 235.5C253.33 235.07 253.67 234.73 254.1 234.73C254.53 234.73 254.87 235.07 254.87 235.5Z" fill="black"/>
<path d="M281.89 211.22C281.23 210.19 280 209.59 278.91 208.91C274.78 206.31 272.43 201.96 271.23 197.58C270.03 193.2 269.8 188.66 268.97 184.21C268.59 182.2 268.06 180.14 266.74 178.48C265.42 176.81 261.34 174.17 258.43 177.98L258.41 184.46C257.27 187.52 257.41 190.84 257.82 194.04C258.23 197.24 256 192.3 255.84 195.52C255.74 197.45 255.88 206.18 255.84 208.11C255.79 210.05 258.48 213.4 259.69 215.01C261.21 217.03 263.9 218.11 266.57 218.59C270.02 219.22 273.66 219 276.99 217.96C278.61 217.45 280.21 216.72 281.27 215.51C282.33 214.3 282.73 212.54 281.88 211.21L281.89 211.22Z" fill="#263238"/>
<path d="M258.49 177.47C260.2 177.77 261.55 179.17 262.27 180.75C262.75 181.8 263 182.99 262.8 184.12C262.6 185.26 261.91 186.34 260.87 186.84C259.83 187.34 258.45 187.17 257.68 186.31C256.98 185.53 256.87 184.37 257.08 183.34C257.28 182.31 257.75 181.36 258.09 180.37C258.42 179.38 258.62 178.28 258.28 177.3" fill="#6C63FF"/>
<path d="M258.44 214.75C258.44 214.75 254.99 217.41 250.54 221.24C249.61 222.04 248.59 222.73 247.51 223.3C244.6 224.85 243.34 224.45 242.62 223.05C242.46 222.74 242.12 221.86 242.03 221.51C241.42 219.16 240.49 217.68 242.39 216.17C244.53 214.46 245.57 213 245.18 210.69C244.98 209.38 244.5 208.03 243.95 206.72L245.64 204.75L254.46 195.84C254.24 201.79 253.79 211.53 258.44 214.76V214.75Z" fill="#B97964"/>
<path opacity="0.2" d="M245.25 211.19C247.68 209.75 250.34 207.25 250.02 204.4C249.88 203.2 249.62 202.06 249.33 201.33L244.4 207.86C244.8 208.91 244.95 209.61 245.25 211.2V211.19Z" fill="black"/>
<path d="M256.96 186.28C256.13 195.35 255.97 199.19 251.29 203.95C244.25 211.1 233.43 208.7 231.56 199.71C229.88 191.62 231.52 178.15 240.42 174.34C249.19 170.59 257.79 177.22 256.95 186.28H256.96Z" fill="#B97964"/>
<path d="M245.67 189.14C245.62 189.99 245.1 190.69 244.5 190.7C243.9 190.71 243.46 190.03 243.51 189.19C243.56 188.34 244.08 187.64 244.67 187.63C245.27 187.62 245.71 188.3 245.66 189.14H245.67Z" fill="#263238"/>
<path d="M236.27 189.01C236.22 189.83 235.7 190.51 235.11 190.52C234.52 190.53 234.07 189.88 234.12 189.05C234.17 188.23 234.69 187.55 235.28 187.54C235.87 187.53 236.32 188.18 236.27 189.01Z" fill="#263238"/>
<path d="M247.22 185.65C247.11 185.68 246.99 185.66 246.89 185.59C245.33 184.5 243.83 185.16 243.82 185.17C243.6 185.27 243.35 185.17 243.26 184.94C243.18 184.71 243.29 184.44 243.51 184.34C243.59 184.3 245.47 183.47 247.4 184.82C247.59 184.96 247.63 185.24 247.49 185.45C247.42 185.55 247.32 185.62 247.22 185.64V185.65Z" fill="#263238"/>
<path d="M233.06 185.35C232.96 185.31 232.87 185.23 232.83 185.13C232.74 184.91 232.86 184.66 233.09 184.56C235.44 183.6 237.16 184.67 237.23 184.72C237.43 184.85 237.48 185.12 237.33 185.31C237.18 185.51 236.9 185.56 236.69 185.44C236.62 185.4 235.28 184.59 233.41 185.35C233.29 185.4 233.16 185.4 233.05 185.35H233.06Z" fill="#263238"/>
<path d="M253.1 191.97C253.1 191.97 250.3 187.74 251.46 179.51C251.65 178.13 250.78 176.82 249.41 176.56C245.5 175.8 240.27 170.87 233.89 180.67C233.89 180.67 237.14 168.21 254.75 173.66C266.08 177.16 259.75 191.31 258.11 192.69C256.48 194.07 253.1 191.98 253.1 191.98V191.97Z" fill="#263238"/>
<path d="M259.7 193.67C258.63 195.53 256.89 196.7 255.29 197.1C252.89 197.7 251.65 193.84 252.47 191.44C253.21 189.28 255.57 187.84 257.9 188.31C260.2 188.78 260.92 191.54 259.7 193.67Z" fill="#B97964"/>
<path d="M238.71 188.76C238.71 188.76 237.29 192.15 235.69 194.27C235.41 194.64 235.58 195.18 236.02 195.34C237.14 195.75 238.45 195.38 238.45 195.38L238.71 188.76Z" fill="#A24E3F"/>
<path d="M244.85 187.6L242.77 187.11C242.77 187.11 243.91 188.66 244.85 187.6Z" fill="#263238"/>
<path d="M235.49 187.56L233.41 187.07C233.41 187.07 234.55 188.62 235.49 187.56Z" fill="#263238"/>
<path d="M252.49 173.06C244.55 167.72 236.27 172.27 236.27 172.27C226.78 177.78 230.97 187.07 230.97 187.07C237.61 183.55 240.85 182.21 247.22 178.54C245.73 180.92 248.26 184.27 251.05 186.73C253.84 189.19 253.02 190.26 253.02 190.26C260.56 182.01 260.43 178.4 252.49 173.05V173.06Z" fill="#263238"/>
<path opacity="0.2" d="M255.03 194.6C254.91 194.6 254.81 194.52 254.78 194.39C254.63 193.59 254.7 192.76 254.97 191.99C255.15 191.47 255.52 190.76 256.21 190.35C256.89 189.95 257.75 189.98 258.3 190.42C258.41 190.51 258.42 190.66 258.34 190.77C258.25 190.88 258.09 190.89 257.99 190.81C257.61 190.5 256.97 190.48 256.47 190.78C255.91 191.11 255.61 191.71 255.45 192.15C255.21 192.84 255.15 193.58 255.28 194.29C255.3 194.43 255.21 194.56 255.08 194.58C255.07 194.58 255.05 194.58 255.04 194.58L255.03 194.6Z" fill="black"/>
<path d="M239.01 197.97C239.72 198.99 240.61 200.97 240.61 200.97C240.8 200.92 241 200.87 241.19 200.82C243.81 200.11 244.79 198.91 245.08 197.8C245.24 197.19 245.18 196.6 245.08 196.14C244.96 195.6 244.76 195.25 244.76 195.25C243.6 196.46 241.2 197.31 239.91 197.71C239.37 197.88 239.02 197.97 239.02 197.97H239.01Z" fill="#263238"/>
<path d="M239.9 197.71L240.39 198.58C242.86 197.9 244.5 197.1 245.07 196.14C244.95 195.6 244.75 195.25 244.75 195.25C243.59 196.46 241.19 197.31 239.9 197.71Z" fill="white"/>
<path d="M241.18 200.82C243.8 200.11 244.78 198.91 245.07 197.8C244.19 198.08 243.15 198.51 242.32 199.17C241.68 199.67 241.35 200.26 241.18 200.82Z" fill="#DC5753"/>
<path opacity="0.3" d="M284.59 256.14C284.59 256.14 286.05 255.23 289.06 255.33C289.06 255.33 286.76 252.93 283.15 254.83L284.59 256.14Z" fill="black"/>
<path d="M268.94 277.38C268.94 277.38 265.34 272.31 263.81 271.98C262.28 271.65 255.28 272.51 255.14 273.51C255.01 274.51 256.07 274.64 256.07 274.64L254.34 276.64C254.34 276.64 254.34 277.24 255.14 277.37C255.14 277.37 255.21 278.84 256.01 278.9C256.81 278.97 259.94 277.9 259.94 277.9L257.34 279.7C257.34 279.7 256.94 280.37 258.94 280.17C260.94 279.97 261.64 278.97 261.64 278.97C261.64 278.97 266.27 282.9 268.54 282.9C270.81 282.9 272.34 282.1 272.34 282.1L268.94 277.37V277.38Z" fill="#B97964"/>
</svg>
