<svg width="500" height="500" viewBox="0 0 500 500" fill="none" xmlns="http://www.w3.org/2000/svg">
<path d="M500 382.4H0V382.65H500V382.4Z" fill="#E6E6E6"/>
<path d="M445.58 388.83H422.33V389.08H445.58V388.83Z" fill="#E6E6E6"/>
<path d="M361 394.26H250.57V394.51H361V394.26Z" fill="#E6E6E6"/>
<path d="M203.33 394.39H192.5V394.64H203.33V394.39Z" fill="#E6E6E6"/>
<path d="M115.56 391.39H78V391.64H115.56V391.39Z" fill="#E6E6E6"/>
<path d="M412.65 388.83H390.67V389.08H412.65V388.83Z" fill="#E6E6E6"/>
<path d="M69.8404 391.39H51.6504V391.64H69.8404V391.39Z" fill="#E6E6E6"/>
<path d="M237 337.8H43.91C42.3973 337.797 40.9475 337.195 39.8788 336.124C38.8102 335.054 38.21 333.603 38.21 332.09V60.66C38.2231 59.156 38.8292 57.718 39.8964 56.6582C40.9637 55.5985 42.4059 55.0026 43.91 55H237C238.514 55 239.967 55.6016 241.038 56.6724C242.108 57.7433 242.71 59.1956 242.71 60.71V332.09C242.71 333.604 242.108 335.057 241.038 336.128C239.967 337.198 238.514 337.8 237 337.8ZM43.91 55.2C42.4636 55.2026 41.0774 55.7791 40.0556 56.8027C39.0338 57.8264 38.46 59.2136 38.46 60.66V332.09C38.46 333.536 39.0338 334.924 40.0556 335.947C41.0774 336.971 42.4636 337.547 43.91 337.55H237C238.447 337.547 239.834 336.971 240.858 335.948C241.881 334.924 242.457 333.537 242.46 332.09V60.66C242.457 59.2127 241.881 57.8255 240.858 56.8021C239.834 55.7787 238.447 55.2026 237 55.2H43.91Z" fill="#E6E6E6"/>
<path d="M453.31 337.8H260.21C258.696 337.797 257.246 337.195 256.175 336.125C255.105 335.054 254.503 333.604 254.5 332.09V60.66C254.516 59.1551 255.124 57.7171 256.193 56.6576C257.262 55.5981 258.705 55.0025 260.21 55H453.31C454.812 55.0052 456.252 55.6022 457.317 56.6617C458.382 57.7212 458.987 59.1578 459 60.66V332.09C459 333.601 458.401 335.05 457.335 336.121C456.268 337.191 454.821 337.795 453.31 337.8ZM260.21 55.2C258.763 55.2026 257.375 55.7787 256.352 56.8021C255.329 57.8255 254.753 59.2127 254.75 60.66V332.09C254.753 333.537 255.329 334.924 256.352 335.948C257.375 336.971 258.763 337.547 260.21 337.55H453.31C454.757 337.547 456.145 336.971 457.168 335.948C458.191 334.924 458.767 333.537 458.77 332.09V60.66C458.767 59.2127 458.191 57.8255 457.168 56.8021C456.145 55.7787 454.757 55.2026 453.31 55.2H260.21Z" fill="#E6E6E6"/>
<path d="M323.57 205.12H399.14V73.5501H323.57V205.12Z" fill="#E6E6E6"/>
<path d="M319.49 205.12H395.06V73.5501H319.49V205.12Z" fill="#F5F5F5"/>
<path d="M387.72 198.95V79.73H326.81V198.95H387.72Z" fill="#FAFAFA"/>
<path d="M329.9 198.95V79.73H326.81V198.95H329.9Z" fill="#E6E6E6"/>
<path d="M322.52 170.17H392.03V161.88H322.52V170.17Z" fill="#F5F5F5"/>
<path d="M195.14 205.12H270.71V73.5501H195.14V205.12Z" fill="#E6E6E6"/>
<path d="M191.06 205.12H266.63V73.5501H191.06V205.12Z" fill="#F5F5F5"/>
<path d="M259.3 198.95V79.73H198.39V198.95H259.3Z" fill="#FAFAFA"/>
<path d="M201.47 198.94V79.7202H198.38V198.94H201.47Z" fill="#E6E6E6"/>
<path d="M194.09 170.17H263.6V161.88H194.09V170.17Z" fill="#F5F5F5"/>
<path d="M66.72 205.12H142.29L142.29 73.5501H66.72L66.72 205.12Z" fill="#E6E6E6"/>
<path d="M62.64 205.12H138.21L138.21 73.5501H62.64L62.64 205.12Z" fill="#F5F5F5"/>
<path d="M130.87 198.94V79.7202H69.9601V198.94H130.87Z" fill="#FAFAFA"/>
<path d="M73.0498 198.95L73.0498 79.73H69.9598V198.95H73.0498Z" fill="#E6E6E6"/>
<path d="M65.6697 170.17H135.18V161.88H65.6697V170.17Z" fill="#F5F5F5"/>
<path d="M140 286.52C126.37 288.4 117.94 258.78 148 233.7C146.43 262.73 163.78 283.24 140 286.52Z" fill="#E6E6E6"/>
<path d="M130 325.31C110.24 311.46 123.76 263.07 184.91 266.58C158.47 302.2 164.46 349.45 130 325.31Z" fill="#E0E0E0"/>
<path d="M137 325C150.13 310.86 131.44 275.27 84.1904 288.27C110.85 311.67 114.09 349.64 137 325Z" fill="#E0E0E0"/>
<path d="M120.14 304.36C115.6 298.83 110.24 292.61 111.54 286.03C112.84 279.45 116.09 274.56 113.54 267.56C110.44 259.16 111.04 249.14 116.28 249.98C121.52 250.82 127.39 256.98 127.28 265.09C127.19 272.97 132.28 275.49 137.18 279.68C142.08 283.87 143.81 290 144.68 296C146.2 305.53 158.55 303.73 161.83 312C165.22 320 158.46 330.65 147.65 333.1C136.84 335.55 129.14 337.1 121.77 328.64C114.28 319.73 126.86 312.28 120.14 304.36Z" fill="#F5F5F5"/>
<path d="M157.33 382.4H116.72L113.66 327.08H160.39L157.33 382.4Z" fill="#EBEBEB"/>
<path d="M163.42 325.95H110.63V331.91H163.42V325.95Z" fill="#EBEBEB"/>
<path d="M396.74 374.89H424.06V256.42H396.74V374.89Z" fill="#EBEBEB"/>
<path d="M182.65 382.4L418.81 382.4V374.89L182.65 374.89V382.4Z" fill="#EBEBEB"/>
<path d="M396.74 256.42H177.41V374.89H396.74V256.42Z" fill="#F5F5F5"/>
<path d="M386 271H188.15V309.86H386V271Z" fill="#EBEBEB"/>
<path d="M386 321.45H188.15V360.31H386V321.45Z" fill="#EBEBEB"/>
<path d="M225.53 293.09H348.62C349.325 293.087 350 292.806 350.498 292.308C350.996 291.809 351.277 291.134 351.28 290.43C351.28 289.723 351 289.046 350.502 288.545C350.003 288.045 349.327 287.762 348.62 287.76H225.53C224.824 287.762 224.147 288.045 223.649 288.545C223.15 289.046 222.87 289.723 222.87 290.43C222.873 291.134 223.154 291.809 223.652 292.308C224.15 292.806 224.825 293.087 225.53 293.09Z" fill="#F5F5F5"/>
<path d="M225.53 343.54H348.62C349.325 343.538 350 343.256 350.498 342.758C350.996 342.26 351.277 341.585 351.28 340.88C351.277 340.176 350.996 339.501 350.498 339.002C350 338.504 349.325 338.223 348.62 338.22H225.53C224.825 338.223 224.15 338.504 223.652 339.002C223.154 339.501 222.873 340.176 222.87 340.88C222.873 341.585 223.154 342.26 223.652 342.758C224.15 343.256 224.825 343.538 225.53 343.54Z" fill="#F5F5F5"/>
<path d="M336.19 239.13C336.19 239.13 367.49 268.79 386.07 239.01C386.07 239.01 381.13 229.44 375.92 228.62C370.71 227.8 370.5 236.9 365.92 234.09C361.34 231.28 355.99 221.67 353.07 226.8C350.15 231.93 346.14 224.62 341.77 224.2C337.4 223.78 336.19 239.13 336.19 239.13Z" fill="#F5F5F5"/>
<path d="M388.06 237.08C388.06 237.08 387.38 256.42 361 256.42C334.62 256.42 333.94 237.08 333.94 237.08H388.06Z" fill="#EBEBEB"/>
<path d="M254.61 227H269.8V256.42H225.2C225.2 248.619 228.298 241.137 233.814 235.62C239.329 230.103 246.809 227.003 254.61 227Z" fill="#F5F5F5"/>
<path d="M283.81 227H269.8V256.42H283.81V227Z" fill="#E6E6E6"/>
<path d="M250 427.56C357.083 427.56 443.89 422.492 443.89 416.24C443.89 409.988 357.083 404.92 250 404.92C142.918 404.92 56.1104 409.988 56.1104 416.24C56.1104 422.492 142.918 427.56 250 427.56Z" fill="#F5F5F5"/>
<path d="M218 197.76L217.34 198.76C217.14 199.05 216.93 199.31 216.73 199.58C216.32 200.12 215.89 200.58 215.46 201.13C214.59 202.13 213.71 203.13 212.77 204.01C210.89 205.816 208.885 207.487 206.77 209.01C204.657 210.532 202.435 211.896 200.12 213.09C198.95 213.66 197.79 214.25 196.58 214.73L194.77 215.45L194.26 215.64C193.98 215.73 193.72 215.83 193.41 215.9C192.805 216.051 192.183 216.121 191.56 216.11C190.372 216.102 189.203 215.81 188.15 215.26C187.303 214.818 186.525 214.255 185.84 213.59C184.754 212.519 183.816 211.308 183.05 209.99C181.74 207.707 180.671 205.294 179.86 202.79C178.287 198.069 177.162 193.211 176.5 188.28L180.68 187.36C181.44 189.55 182.22 191.81 183.08 193.99C183.94 196.17 184.8 198.34 185.8 200.4C186.71 202.388 187.795 204.292 189.04 206.09C189.535 206.835 190.131 207.508 190.81 208.09C191.005 208.25 191.225 208.378 191.46 208.47C191.6 208.47 191.59 208.47 191.52 208.47H191.45L191.78 208.31L193.27 207.59C194.27 207.11 195.22 206.59 196.18 206.01C198.074 204.875 199.903 203.637 201.66 202.3C203.394 200.937 205.04 199.468 206.59 197.9C207.37 197.14 208.11 196.33 208.82 195.51C209.17 195.1 209.52 194.69 209.82 194.28L210.3 193.67L210.69 193.15L218 197.76Z" fill="#B97964"/>
<path d="M205.89 197.33L210.96 209.49L207.29 211.78L201.59 200.75L205.89 197.33Z" fill="#263238"/>
<path d="M220.24 187.09C211.97 186.98 203.57 197.45 203.36 197.71L209.9 213.09C209.9 213.09 224.45 201.28 225.18 196.66C225.94 191.85 225.48 187.16 220.24 187.09Z" fill="#6C63FF"/>
<path opacity="0.3" d="M220.24 187.09C211.97 186.98 203.57 197.45 203.36 197.71L209.9 213.09C209.9 213.09 224.45 201.28 225.18 196.66C225.94 191.85 225.48 187.16 220.24 187.09Z" fill="black"/>
<path d="M180 185.77L174.28 181.32L173.12 190.08C173.12 190.08 178.68 192.26 181.64 190.37L181.56 188.77C181.53 188.187 181.376 187.618 181.106 187.1C180.837 186.583 180.46 186.129 180 185.77Z" fill="#B97964"/>
<path d="M166.66 180.88L167.02 187.53L173.15 190.08L174.31 181.32L166.66 180.88Z" fill="#B97964"/>
<path d="M292 185.06L300.84 182.85L294.66 176.54C294.66 176.54 288.93 178.88 290.33 183.88L292 185.06Z" fill="#B97964"/>
<path d="M305.23 181.28L304.5 174.34L294.61 176.54L300.79 182.85L305.23 181.28Z" fill="#B97964"/>
<path d="M263.17 407.47L254.94 408.26L248.07 388.84L256.3 388.04L263.17 407.47Z" fill="#B97964"/>
<path d="M351.27 366.64L345.21 372.52L329.63 360.36L335.7 354.48L351.27 366.64Z" fill="#B97964"/>
<path d="M343.46 371.38L348.12 363.11C348.199 362.968 348.326 362.859 348.479 362.804C348.631 362.749 348.799 362.751 348.95 362.81L356.03 365.55C356.205 365.626 356.362 365.738 356.491 365.879C356.62 366.02 356.718 366.186 356.778 366.367C356.839 366.548 356.86 366.74 356.842 366.93C356.823 367.12 356.765 367.304 356.67 367.47C355 370.33 354.05 371.62 352 375.26C350.74 377.5 348.28 382.63 346.54 385.72C344.8 388.81 341.65 387.25 342.1 385.81C344.1 379.34 343.76 375.73 343.22 372.87C343.121 372.361 343.206 371.833 343.46 371.38Z" fill="#263238"/>
<path d="M253.3 405.74H263.3C263.479 405.744 263.653 405.805 263.795 405.915C263.937 406.025 264.041 406.177 264.09 406.35L266.27 414.28C266.325 414.468 266.335 414.665 266.299 414.858C266.264 415.05 266.183 415.23 266.064 415.385C265.945 415.54 265.791 415.665 265.615 415.749C265.439 415.834 265.245 415.875 265.05 415.87C261.54 415.81 259.83 415.6 255.42 415.6C252.71 415.6 243.88 415.89 240.13 415.89C236.38 415.89 235.7 412.18 237.22 411.89C244.02 410.38 249.76 408.31 251.85 406.33C252.237 405.95 252.758 405.738 253.3 405.74Z" fill="#263238"/>
<path d="M248.08 388.84L251.61 398.86H260.13L256.31 388.04L248.08 388.84Z" fill="#A76755"/>
<path d="M335.71 354.48L329.64 360.37L337.67 366.63L343.74 360.75L335.71 354.48Z" fill="#A76755"/>
<path d="M212.19 189.76C212.19 189.76 208.79 192.35 231.7 237.06L264.36 226.51C259.52 213.4 256.86 205.21 254.36 175.88C249.516 176.416 244.716 177.301 240 178.53C234.957 179.799 230.003 181.399 225.17 183.32C218.93 186 212.19 189.76 212.19 189.76Z" fill="#6C63FF"/>
<path opacity="0.3" d="M212.19 189.76C212.19 189.76 208.79 192.35 231.7 237.06L264.36 226.51C259.52 213.4 256.86 205.21 254.36 175.88C249.516 176.416 244.716 177.301 240 178.53C234.957 179.799 230.003 181.399 225.17 183.32C218.93 186 212.19 189.76 212.19 189.76Z" fill="black"/>
<path d="M233.09 162.3C233.69 167.38 235.58 176.42 239.95 178.53C239.95 178.53 240.2 183.79 231.34 186.65C221.59 189.8 225.12 183.32 225.12 183.32C230.03 180.32 228.61 176.42 226.49 173.02L233.09 162.3Z" fill="#B97964"/>
<path d="M216.7 187.34C219.11 186.09 222.18 184.57 225.12 183.34C229.959 181.384 234.932 179.776 240 178.53C242.85 177.75 245.73 177.17 248.16 176.76C248.39 177.44 247.7 179.2 246.01 181.63C240.66 186.07 229.25 191.84 220.84 191.63C217.16 190.26 216.24 188.81 216.7 187.34Z" fill="#B97964"/>
<path d="M246 181.63C242.367 186.499 238.026 190.797 233.12 194.38C228.943 193.871 224.826 192.95 220.83 191.63C229.2 191.84 240.61 186.07 246 181.63Z" fill="#263238"/>
<path d="M230.4 166.67L226.49 173C227.001 173.789 227.439 174.622 227.8 175.49C229.74 174.54 232.21 171.73 231.74 169.49C231.461 168.479 231.008 167.525 230.4 166.67Z" fill="#A76755"/>
<path d="M235.07 152.92C235.57 161.29 235.97 164.82 232.29 169.6C226.76 176.78 216.37 175.6 213.37 167.52C210.68 160.27 210.31 147.8 218.04 143.52C219.738 142.566 221.652 142.061 223.601 142.053C225.549 142.046 227.467 142.536 229.172 143.478C230.878 144.419 232.315 145.781 233.347 147.433C234.379 149.086 234.972 150.974 235.07 152.92Z" fill="#B97964"/>
<path d="M251.601 137.919C253.492 129.604 248.284 121.331 239.969 119.44C231.654 117.55 223.38 122.758 221.49 131.073C219.599 139.388 224.807 147.661 233.122 149.552C241.437 151.442 249.71 146.234 251.601 137.919Z" fill="#263238"/>
<path d="M232.69 141.2C235.87 143.3 237.45 146.52 236.22 148.39C234.99 150.26 231.41 150.08 228.22 147.98C225.03 145.88 223.46 142.66 224.69 140.79C225.92 138.92 229.5 139.1 232.69 141.2Z" fill="#6C63FF"/>
<path opacity="0.6" d="M232.69 141.2C235.87 143.3 237.45 146.52 236.22 148.39C234.99 150.26 231.41 150.08 228.22 147.98C225.03 145.88 223.46 142.66 224.69 140.79C225.92 138.92 229.5 139.1 232.69 141.2Z" fill="#FAFAFA"/>
<path d="M231 158.63C231.83 156.71 228.94 151.01 229.56 148.88C227.9 147.33 211.07 152.81 212.43 148.81C213.73 144.97 217.83 139.88 227.19 142.01C237.19 144.29 238.06 152.94 236.94 155.7C235.82 158.46 234.23 161.33 234.23 161.33L231 158.63Z" fill="#263238"/>
<path d="M237.27 160.26C237.291 161.88 236.673 163.443 235.55 164.61C234.04 166.14 232.22 165.04 231.75 163.06C231.32 161.28 231.6 158.33 233.54 157.55C233.968 157.384 234.43 157.327 234.885 157.386C235.341 157.445 235.774 157.617 236.145 157.887C236.516 158.156 236.814 158.515 237.01 158.93C237.207 159.344 237.296 159.802 237.27 160.26Z" fill="#B97964"/>
<path d="M231.7 237.06C231.7 237.06 216.56 310.9 225 335.25C233.78 360.58 248.07 395.94 248.07 395.94L261.42 395.18C261.42 395.18 250.42 350.5 247.71 330.32C244 302.5 259.89 228 259.89 228L231.7 237.06Z" fill="#6C63FF"/>
<path opacity="0.6" d="M231.7 237.06C231.7 237.06 216.56 310.9 225 335.25C233.78 360.58 248.07 395.94 248.07 395.94L261.42 395.18C261.42 395.18 250.42 350.5 247.71 330.32C244 302.5 259.89 228 259.89 228L231.7 237.06Z" fill="#FAFAFA"/>
<path d="M262.47 395.5L247.02 396.39L244.54 390.31L261.58 388.54L262.47 395.5Z" fill="#6C63FF"/>
<path opacity="0.2" d="M262.47 395.5L247.02 396.39L244.54 390.31L261.58 388.54L262.47 395.5Z" fill="black"/>
<path d="M247.71 242.74C245.39 251.32 247.33 264.18 251.71 273.2C252.78 266.2 253.92 259.42 255 253.35C252.75 249 250.27 245.14 247.71 242.74Z" fill="#6C63FF"/>
<path opacity="0.4" d="M247.71 242.74C245.39 251.32 247.33 264.18 251.71 273.2C252.78 266.2 253.92 259.42 255 253.35C252.75 249 250.27 245.14 247.71 242.74Z" fill="#FAFAFA"/>
<path d="M240.32 234.27C240.32 234.27 262.8 288 277.69 317.5C289.69 341.36 334.22 366.33 334.22 366.33L342.22 357.85C342.22 357.85 308.94 328.3 300.64 312.12C274.08 260.33 279.54 237.71 264.38 226.51L240.32 234.27Z" fill="#6C63FF"/>
<path opacity="0.6" d="M240.32 234.27C240.32 234.27 262.8 288 277.69 317.5C289.69 341.36 334.22 366.33 334.22 366.33L342.22 357.85C342.22 357.85 308.94 328.3 300.64 312.12C274.08 260.33 279.54 237.71 264.38 226.51L240.32 234.27Z" fill="#FAFAFA"/>
<path d="M343.71 356.64L332.71 368.33L325.75 364.67L338.42 351.75L343.71 356.64Z" fill="#6C63FF"/>
<path opacity="0.2" d="M343.71 356.64L332.71 368.33L325.75 364.67L338.42 351.75L343.71 356.64Z" fill="black"/>
<path d="M264.23 224.44L266.64 226.89C266.83 227.08 266.64 227.4 266.26 227.52L232.01 238.52C231.71 238.62 231.42 238.52 231.34 238.37L230.11 235.55C230.02 235.35 230.22 235.1 230.54 234.99L263.61 224.32C263.714 224.285 263.827 224.277 263.935 224.298C264.044 224.319 264.145 224.368 264.23 224.44Z" fill="#263238"/>
<path d="M261 229.57L261.88 229.29C262.06 229.23 262.16 229.09 262.12 228.99L260.48 225.32C260.48 225.22 260.24 225.18 260.07 225.23L259.18 225.52C259.01 225.52 258.9 225.71 258.95 225.82L260.59 229.48C260.62 229.59 260.8 229.63 261 229.57Z" fill="#6C63FF"/>
<path opacity="0.6" d="M261 229.57L261.88 229.29C262.06 229.23 262.16 229.09 262.12 228.99L260.48 225.32C260.48 225.22 260.24 225.18 260.07 225.23L259.18 225.52C259.01 225.52 258.9 225.71 258.95 225.82L260.59 229.48C260.62 229.59 260.8 229.63 261 229.57Z" fill="#FAFAFA"/>
<path d="M234.6 238.09L235.49 237.8C235.66 237.74 235.77 237.61 235.72 237.5L234.08 233.84C234.03 233.73 233.85 233.69 233.67 233.75L232.78 234.03C232.61 234.09 232.5 234.22 232.55 234.33L234.19 237.99C234.24 238.1 234.42 238.14 234.6 238.09Z" fill="#6C63FF"/>
<path opacity="0.6" d="M234.6 238.09L235.49 237.8C235.66 237.74 235.77 237.61 235.72 237.5L234.08 233.84C234.03 233.73 233.85 233.69 233.67 233.75L232.78 234.03C232.61 234.09 232.5 234.22 232.55 234.33L234.19 237.99C234.24 238.1 234.42 238.14 234.6 238.09Z" fill="#FAFAFA"/>
<path d="M247.79 233.83L248.67 233.54C248.85 233.54 248.96 233.35 248.91 233.24L247.27 229.58C247.22 229.47 247.03 229.43 246.86 229.49L245.97 229.78C245.8 229.83 245.69 229.97 245.74 230.07L247.38 233.74C247.429 233.797 247.496 233.837 247.57 233.853C247.644 233.869 247.721 233.861 247.79 233.83Z" fill="#6C63FF"/>
<path opacity="0.6" d="M247.79 233.83L248.67 233.54C248.85 233.54 248.96 233.35 248.91 233.24L247.27 229.58C247.22 229.47 247.03 229.43 246.86 229.49L245.97 229.78C245.8 229.83 245.69 229.97 245.74 230.07L247.38 233.74C247.429 233.797 247.496 233.837 247.57 233.853C247.644 233.869 247.721 233.861 247.79 233.83Z" fill="#FAFAFA"/>
<path d="M222.75 156.78C222.83 157.45 222.54 158.05 222.1 158.1C221.66 158.15 221.23 157.65 221.15 156.97C221.07 156.29 221.36 155.7 221.8 155.65C222.24 155.6 222.67 156.1 222.75 156.78Z" fill="#263238"/>
<path d="M215.1 157.71C215.19 158.39 214.89 158.98 214.45 159.03C214.01 159.08 213.58 158.58 213.5 157.91C213.42 157.24 213.71 156.64 214.15 156.58C214.59 156.52 215 157 215.1 157.71Z" fill="#263238"/>
<path d="M214.35 156.6L212.67 156.33C212.67 156.33 213.66 157.5 214.35 156.6Z" fill="#263238"/>
<path d="M217.27 158.63C216.852 160.245 216.216 161.796 215.38 163.24C215.757 163.441 216.172 163.559 216.598 163.586C217.024 163.614 217.45 163.55 217.85 163.4L217.27 158.63Z" fill="#A24E3F"/>
<path d="M220.53 165.77C220.481 165.771 220.434 165.754 220.398 165.723C220.361 165.691 220.337 165.648 220.33 165.6C220.326 165.546 220.343 165.493 220.376 165.451C220.409 165.409 220.457 165.38 220.51 165.37C221.352 165.286 222.163 165.005 222.877 164.55C223.591 164.095 224.188 163.479 224.62 162.75C224.63 162.726 224.646 162.703 224.665 162.685C224.685 162.666 224.708 162.652 224.733 162.643C224.758 162.633 224.785 162.629 224.812 162.631C224.839 162.632 224.865 162.639 224.89 162.65C224.913 162.662 224.934 162.678 224.952 162.698C224.969 162.718 224.983 162.741 224.991 162.766C224.999 162.791 225.003 162.818 225.001 162.844C224.999 162.871 224.992 162.897 224.98 162.92C224.525 163.715 223.886 164.388 223.117 164.884C222.348 165.38 221.471 165.684 220.56 165.77H220.53Z" fill="#263238"/>
<path d="M223.7 154.38C223.604 154.379 223.512 154.344 223.44 154.28C223.07 153.938 222.624 153.69 222.139 153.556C221.653 153.422 221.143 153.406 220.65 153.51C220.599 153.525 220.545 153.53 220.492 153.524C220.439 153.518 220.388 153.502 220.341 153.476C220.294 153.45 220.253 153.414 220.221 153.372C220.188 153.33 220.164 153.282 220.15 153.23C220.135 153.18 220.13 153.126 220.136 153.074C220.142 153.022 220.159 152.971 220.185 152.925C220.211 152.879 220.247 152.839 220.289 152.808C220.331 152.776 220.379 152.753 220.43 152.74C221.05 152.604 221.694 152.617 222.307 152.779C222.921 152.941 223.488 153.246 223.96 153.67C223.998 153.707 224.028 153.752 224.048 153.801C224.069 153.85 224.079 153.902 224.079 153.955C224.079 154.008 224.069 154.061 224.048 154.11C224.028 154.159 223.998 154.203 223.96 154.24C223.894 154.317 223.801 154.367 223.7 154.38Z" fill="#263238"/>
<path d="M211.15 154.61C211.091 154.624 211.029 154.624 210.97 154.61C210.878 154.559 210.808 154.475 210.777 154.374C210.745 154.274 210.753 154.165 210.8 154.07C211.074 153.498 211.479 153 211.983 152.616C212.488 152.231 213.076 151.972 213.7 151.86C213.805 151.849 213.909 151.879 213.992 151.945C214.074 152.01 214.127 152.106 214.14 152.21C214.147 152.263 214.143 152.316 214.129 152.367C214.116 152.419 214.092 152.467 214.059 152.508C214.027 152.55 213.986 152.585 213.94 152.611C213.894 152.637 213.843 152.654 213.79 152.66C213.296 152.752 212.832 152.961 212.435 153.269C212.039 153.577 211.721 153.975 211.51 154.43C211.471 154.489 211.417 154.537 211.354 154.569C211.291 154.6 211.22 154.615 211.15 154.61Z" fill="#263238"/>
<path d="M261 183.69L261.38 184.17L261.85 184.74C262.17 185.12 262.5 185.51 262.85 185.89C263.54 186.66 264.26 187.42 265.03 188.14C266.538 189.618 268.131 191.007 269.8 192.3C271.496 193.584 273.255 194.782 275.07 195.89C275.98 196.44 276.91 196.96 277.85 197.47L279.28 198.2L279.97 198.55C280.14 198.63 280.31 198.71 280.47 198.77C280.981 198.983 281.527 199.095 282.08 199.1C282.589 199.071 283.076 198.89 283.48 198.58C284.82 197.469 285.879 196.058 286.57 194.46C287.499 192.534 288.245 190.525 288.8 188.46C289.419 186.354 289.929 184.218 290.33 182.06L294.6 182.33C294.734 187.253 294.031 192.163 292.52 196.85C292.092 198.128 291.54 199.361 290.87 200.53C290.128 201.863 289.168 203.063 288.03 204.08C286.676 205.283 285.02 206.095 283.24 206.43C281.51 206.732 279.732 206.608 278.06 206.07C277.67 205.96 277.31 205.82 276.94 205.68L276.07 205.32L274.37 204.61C273.24 204.1 272.13 203.61 271.04 202.99C268.853 201.836 266.745 200.536 264.73 199.1C262.713 197.646 260.793 196.062 258.98 194.36C258.08 193.5 257.21 192.59 256.36 191.65C255.94 191.17 255.52 190.65 255.12 190.19L254.51 189.4C254.3 189.12 254.14 188.9 253.86 188.5L261 183.69Z" fill="#B97964"/>
<path d="M268.09 188.96L261.83 199.47L258.78 196.59L264.56 186.06L268.09 188.96Z" fill="#263238"/>
<path d="M254.4 175.88C258 175.82 266.74 186.14 266.74 186.14L259.14 199.37C259.14 199.37 249.46 190.84 249.47 186.17C249.48 181.3 250.3 176 254.4 175.88Z" fill="#6C63FF"/>
<path opacity="0.3" d="M254.4 175.88C258 175.82 266.74 186.14 266.74 186.14L259.14 199.37C259.14 199.37 249.46 190.84 249.47 186.17C249.48 181.3 250.3 176 254.4 175.88Z" fill="black"/>
<path d="M341.82 375.87C341.542 375.859 341.275 375.757 341.06 375.58C340.96 375.513 340.88 375.42 340.829 375.311C340.778 375.201 340.757 375.08 340.77 374.96C340.86 373.88 343.57 372.46 343.87 372.3C343.903 372.279 343.941 372.267 343.98 372.267C344.02 372.267 344.058 372.279 344.09 372.3C344.12 372.325 344.143 372.358 344.155 372.395C344.168 372.432 344.169 372.472 344.16 372.51C343.85 373.59 343.16 375.45 342.16 375.78C342.053 375.83 341.938 375.86 341.82 375.87ZM343.63 372.87C342.57 373.47 341.22 374.41 341.17 374.97C341.162 375.024 341.172 375.079 341.197 375.128C341.222 375.176 341.262 375.215 341.31 375.24C341.404 375.331 341.52 375.395 341.647 375.425C341.774 375.455 341.906 375.45 342.03 375.41C342.58 375.25 343.16 374.31 343.63 372.89V372.87Z" fill="#6C63FF"/>
<path d="M341.45 373.25C341.01 373.287 340.571 373.178 340.2 372.94C340.079 372.836 339.998 372.694 339.969 372.538C339.94 372.382 339.965 372.22 340.04 372.08C340.094 371.935 340.18 371.804 340.293 371.699C340.406 371.593 340.542 371.515 340.69 371.47C341.85 371.08 343.97 372.25 344.06 372.3C344.092 372.318 344.12 372.344 344.139 372.375C344.158 372.407 344.169 372.443 344.17 372.48C344.168 372.514 344.158 372.548 344.141 372.578C344.123 372.607 344.099 372.632 344.07 372.65C343.253 373.046 342.357 373.251 341.45 373.25ZM341.24 371.79C341.097 371.788 340.956 371.808 340.82 371.85C340.727 371.879 340.643 371.928 340.572 371.994C340.501 372.059 340.445 372.14 340.41 372.23C340.31 372.47 340.41 372.57 340.41 372.64C340.86 373.02 342.52 372.86 343.47 372.47C342.777 372.102 342.02 371.871 341.24 371.79Z" fill="#6C63FF"/>
<path d="M248.86 407.4C248.161 407.459 247.461 407.294 246.86 406.93C246.703 406.815 246.575 406.664 246.487 406.491C246.398 406.317 246.351 406.125 246.35 405.93C246.339 405.824 246.356 405.718 246.4 405.621C246.444 405.524 246.513 405.441 246.6 405.38C247.51 404.76 250.93 406.32 251.6 406.63C251.639 406.649 251.67 406.679 251.69 406.717C251.71 406.755 251.717 406.798 251.71 406.84C251.707 406.881 251.69 406.919 251.663 406.95C251.636 406.981 251.6 407.002 251.56 407.01C250.676 407.231 249.771 407.361 248.86 407.4ZM247.26 405.67C247.125 405.658 246.99 405.686 246.87 405.75C246.84 405.771 246.816 405.8 246.802 405.833C246.788 405.867 246.784 405.904 246.79 405.94C246.794 406.071 246.827 406.2 246.888 406.316C246.948 406.432 247.035 406.532 247.14 406.61C247.93 407.21 249.81 406.98 250.91 406.78C249.756 406.229 248.526 405.854 247.26 405.67Z" fill="#6C63FF"/>
<path d="M251.56 407.05H251.48C250.35 406.59 248.07 404.76 248.2 403.81C248.2 403.6 248.36 403.34 248.88 403.28C250.88 403.02 251.72 406.67 251.75 406.82C251.758 406.856 251.757 406.893 251.746 406.928C251.736 406.963 251.716 406.995 251.69 407.02C251.65 407.043 251.605 407.054 251.56 407.05ZM249.06 403.66H248.93C248.72 403.66 248.6 403.75 248.59 403.85C248.52 404.39 250.09 405.85 251.25 406.47C251 405.61 250.26 403.66 249.06 403.66Z" fill="#6C63FF"/>
<path d="M222 155.66L220.32 155.39C220.32 155.39 221.31 156.56 222 155.66Z" fill="#263238"/>
<path d="M159.44 85.7798C157.67 87.9998 147.92 90.6098 140.17 89.8898C137.5 107.41 146.83 127.58 146.83 127.58C146.83 127.58 167.08 125.17 167.58 116.83C168.08 108.49 159.44 85.7798 159.44 85.7798Z" fill="#6C63FF"/>
<path opacity="0.4" d="M159.44 85.7798C157.67 87.9998 147.92 90.6098 140.17 89.8898C137.5 107.41 146.83 127.58 146.83 127.58C146.83 127.58 167.08 125.17 167.58 116.83C168.08 108.49 159.44 85.7798 159.44 85.7798Z" fill="#FAFAFA"/>
<path d="M312.73 72.4502C314.54 75.0002 323.73 77.5302 330.84 76.2102C334.65 96.9502 327.59 121.59 327.59 121.59C327.59 121.59 308.72 119.91 307.59 110C306.46 100.09 312.73 72.4502 312.73 72.4502Z" fill="#6C63FF"/>
<path opacity="0.4" d="M312.73 72.4502C314.54 75.0002 323.73 77.5302 330.84 76.2102C334.65 96.9502 327.59 121.59 327.59 121.59C327.59 121.59 308.72 119.91 307.59 110C306.46 100.09 312.73 72.4502 312.73 72.4502Z" fill="#FAFAFA"/>
<path d="M180 252.07C179.856 252.091 179.709 252.083 179.568 252.048C179.427 252.012 179.295 251.948 179.179 251.861C179.062 251.773 178.965 251.664 178.891 251.538C178.817 251.413 178.769 251.274 178.75 251.13L155 82.6599C154.98 82.5111 154.991 82.3599 155.031 82.2153C155.071 82.0707 155.14 81.9357 155.233 81.8181C155.326 81.7006 155.442 81.603 155.574 81.5312C155.706 81.4593 155.85 81.4147 156 81.3999C156.144 81.3801 156.291 81.3891 156.432 81.4261C156.573 81.4632 156.705 81.5277 156.822 81.6159C156.938 81.7041 157.035 81.8143 157.109 81.9403C157.182 82.0662 157.23 82.2054 157.25 82.3498L181 250.81C181.019 250.959 181.009 251.11 180.969 251.254C180.928 251.399 180.86 251.534 180.766 251.652C180.673 251.769 180.557 251.867 180.426 251.939C180.294 252.01 180.149 252.055 180 252.07Z" fill="#6C63FF"/>
<path opacity="0.2" d="M180 252.07C179.856 252.091 179.709 252.083 179.568 252.048C179.427 252.012 179.295 251.948 179.179 251.861C179.062 251.773 178.965 251.664 178.891 251.538C178.817 251.413 178.769 251.274 178.75 251.13L155 82.6599C154.98 82.5111 154.991 82.3599 155.031 82.2153C155.071 82.0707 155.14 81.9357 155.233 81.8181C155.326 81.7006 155.442 81.603 155.574 81.5312C155.706 81.4593 155.85 81.4147 156 81.3999C156.144 81.3801 156.291 81.3891 156.432 81.4261C156.573 81.4632 156.705 81.5277 156.822 81.6159C156.938 81.7041 157.035 81.8143 157.109 81.9403C157.182 82.0662 157.23 82.2054 157.25 82.3498L181 250.81C181.019 250.959 181.009 251.11 180.969 251.254C180.928 251.399 180.86 251.534 180.766 251.652C180.673 251.769 180.557 251.867 180.426 251.939C180.294 252.01 180.149 252.055 180 252.07Z" fill="black"/>
<path d="M293.17 239.55C293.319 239.569 293.47 239.559 293.615 239.519C293.759 239.479 293.894 239.41 294.012 239.317C294.129 239.223 294.227 239.107 294.299 238.976C294.371 238.844 294.415 238.699 294.43 238.55L318.23 70.0898C318.251 69.9453 318.244 69.7981 318.208 69.6565C318.172 69.5149 318.109 69.3818 318.022 69.2647C317.934 69.1477 317.825 69.049 317.699 68.9744C317.574 68.8997 317.435 68.8506 317.29 68.8298C317.141 68.8103 316.99 68.8209 316.846 68.861C316.701 68.901 316.566 68.9698 316.448 69.063C316.331 69.1563 316.233 69.2722 316.162 69.404C316.09 69.5357 316.045 69.6805 316.03 69.8298L292.23 238.29C292.19 238.581 292.266 238.877 292.442 239.112C292.618 239.348 292.879 239.505 293.17 239.55Z" fill="#6C63FF"/>
<path opacity="0.2" d="M293.17 239.55C293.319 239.569 293.47 239.559 293.615 239.519C293.759 239.479 293.894 239.41 294.012 239.317C294.129 239.223 294.227 239.107 294.299 238.976C294.371 238.844 294.415 238.699 294.43 238.55L318.23 70.0898C318.251 69.9453 318.244 69.7981 318.208 69.6565C318.172 69.5149 318.109 69.3818 318.022 69.2647C317.934 69.1477 317.825 69.049 317.699 68.9744C317.574 68.8997 317.435 68.8506 317.29 68.8298C317.141 68.8103 316.99 68.8209 316.846 68.861C316.701 68.901 316.566 68.9698 316.448 69.063C316.331 69.1563 316.233 69.2722 316.162 69.404C316.09 69.5357 316.045 69.6805 316.03 69.8298L292.23 238.29C292.19 238.581 292.266 238.877 292.442 239.112C292.618 239.348 292.879 239.505 293.17 239.55Z" fill="black"/>
<path d="M154.05 86.2199L158.55 119.3C158.577 119.509 158.65 119.71 158.762 119.888C158.875 120.066 159.024 120.218 159.201 120.333C159.378 120.448 159.577 120.524 159.786 120.554C159.995 120.585 160.207 120.569 160.41 120.51C170.47 117.63 226.41 103.27 312.34 112.41C312.705 112.452 313.072 112.355 313.369 112.138C313.665 111.921 313.869 111.6 313.94 111.24C315.56 102.86 318.35 78.9899 319.06 72.8799C319.102 72.4947 318.992 72.1082 318.753 71.8035C318.513 71.4987 318.164 71.2999 317.78 71.2499C306.24 69.7899 227.47 61.0599 155.06 84.6199C154.732 84.7284 154.452 84.9472 154.268 85.239C154.084 85.5308 154.007 85.8775 154.05 86.2199Z" fill="#6C63FF"/>
<path opacity="0.6" d="M154.05 86.2199L158.55 119.3C158.577 119.509 158.65 119.71 158.762 119.888C158.875 120.066 159.024 120.218 159.201 120.333C159.378 120.448 159.577 120.524 159.786 120.554C159.995 120.585 160.207 120.569 160.41 120.51C170.47 117.63 226.41 103.27 312.34 112.41C312.705 112.452 313.072 112.355 313.369 112.138C313.665 111.921 313.869 111.6 313.94 111.24C315.56 102.86 318.35 78.9899 319.06 72.8799C319.102 72.4947 318.992 72.1082 318.753 71.8035C318.513 71.4987 318.164 71.2999 317.78 71.2499C306.24 69.7899 227.47 61.0599 155.06 84.6199C154.732 84.7284 154.452 84.9472 154.268 85.239C154.084 85.5308 154.007 85.8775 154.05 86.2199Z" fill="#FAFAFA"/>
<path d="M168.48 91.9998L173.22 90.9998L176.57 99.7098L177.42 90.1498L182.15 89.1498L186.3 97.6898L186.36 88.2998L191.08 87.2998L190.46 104.2L185.57 105.2L180.88 95.5798L179.88 106.34L174.99 107.34L168.48 91.9998Z" fill="#FAFAFA"/>
<path d="M193.4 87.1201L206.89 85.1201L207.33 88.6001L198.89 89.8401L199.22 92.4401L207.05 91.2901L207.47 94.6201L199.64 95.7701L200 99.0001L208.69 97.7301L209.16 101.43L195.42 103.43L193.4 87.1201Z" fill="#FAFAFA"/>
<path d="M210.32 84.7302L215.38 84.1802L216.46 96.5502L224.35 95.7002L224.71 99.7002L211.71 101.1L210.32 84.7302Z" fill="#FAFAFA"/>
<path d="M237.06 92.0599L241.57 93.0599C241.384 94.2151 240.958 95.3186 240.32 96.2999C239.735 97.1833 238.938 97.9054 238 98.3999C236.877 98.941 235.656 99.2473 234.41 99.2999C232.924 99.4584 231.42 99.2981 230 98.8299C228.771 98.2986 227.727 97.4146 227 96.2899C226.043 94.8188 225.526 93.1049 225.51 91.3499C225.248 89.0475 225.91 86.735 227.35 84.9199C228.122 84.1006 229.051 83.4454 230.082 82.9935C231.113 82.5416 232.225 82.3023 233.35 82.2899C235.047 82.0681 236.771 82.3828 238.28 83.1899C239.606 84.071 240.604 85.3644 241.12 86.8699L236.69 88.1899C236.569 87.8048 236.383 87.4431 236.14 87.1199C235.834 86.7567 235.442 86.475 235 86.2999C234.282 86.0063 233.481 85.9822 232.746 86.2321C232.011 86.482 231.391 86.9891 231 87.6599C230.515 88.6875 230.331 89.8319 230.47 90.9599C230.557 92.7799 230.89 94.0099 231.47 94.6499C231.772 94.9689 232.145 95.2121 232.559 95.3598C232.972 95.5075 233.415 95.5555 233.85 95.4999C234.261 95.4949 234.665 95.4032 235.037 95.2308C235.41 95.0585 235.741 94.8094 236.01 94.4999C236.563 93.7898 236.925 92.9496 237.06 92.0599Z" fill="#FAFAFA"/>
<path d="M243.42 90.1502C243.341 89 243.492 87.8456 243.863 86.7539C244.233 85.6622 244.817 84.6549 245.58 83.7902C246.397 82.9854 247.368 82.3529 248.435 81.9303C249.502 81.5077 250.642 81.3037 251.79 81.3302C252.928 81.2168 254.078 81.3356 255.17 81.6793C256.261 82.0231 257.271 82.5847 258.14 83.3302C258.919 84.1399 259.524 85.1007 259.918 86.1532C260.312 87.2058 260.486 88.3278 260.43 89.4502C260.516 91.0926 260.208 92.7318 259.53 94.2302C258.917 95.4782 257.955 96.5207 256.76 97.2302C255.369 98.0067 253.802 98.413 252.21 98.4102C250.636 98.5208 249.059 98.2676 247.6 97.6702C246.344 97.0931 245.297 96.1434 244.6 94.9502C243.779 93.4863 243.372 91.8275 243.42 90.1502ZM248.49 90.0102C248.401 91.2768 248.755 92.5349 249.49 93.5702C249.802 93.923 250.192 94.1974 250.63 94.3711C251.068 94.5449 251.54 94.6131 252.01 94.5702C252.489 94.581 252.965 94.4832 253.401 94.284C253.838 94.0849 254.223 93.7896 254.53 93.4202C255.227 92.2574 255.526 90.8984 255.38 89.5502C255.465 88.3429 255.11 87.1455 254.38 86.1802C254.06 85.8287 253.664 85.5557 253.221 85.3822C252.779 85.2088 252.303 85.1397 251.83 85.1802C251.36 85.1788 250.895 85.2832 250.471 85.4858C250.047 85.6883 249.674 85.9838 249.38 86.3502C248.676 87.4301 248.362 88.7177 248.49 90.0002V90.0102Z" fill="#FAFAFA"/>
<path d="M263.51 81.29H270.18L272.48 91.36L275.31 81.36L281.98 81.42L281.53 97.92H277.37L277.71 85.33L274.17 97.89H270.41L267.56 85.27L267.22 97.86H263.06L263.51 81.29Z" fill="#FAFAFA"/>
<path d="M285.64 81.5801L299.21 82.1901L299 85.7101L290.5 85.3301L290.33 88.0001L298.21 88.3501L298 91.6601L290.12 91.3101L289.92 94.5701L298.66 94.9501L298.42 98.6901L284.6 98.0701L285.64 81.5801Z" fill="#FAFAFA"/>
</svg>
