<svg width="500" height="500" viewBox="0 0 500 500" fill="none" xmlns="http://www.w3.org/2000/svg">
<path d="M93.9202 440C179.6 479 318.5 479 404.18 440C489.86 401 489.85 337.69 404.18 298.67C318.51 259.65 179.6 259.67 93.9202 298.67C8.24016 337.67 8.24016 401 93.9202 440Z" fill="#F5F5F5"/>
<path d="M397.31 386.89C425.537 386.89 448.42 375.984 448.42 362.53C448.42 349.076 425.537 338.17 397.31 338.17C369.083 338.17 346.2 349.076 346.2 362.53C346.2 375.984 369.083 386.89 397.31 386.89Z" fill="#E0E0E0"/>
<path d="M97.7799 399.6C126.007 399.6 148.89 388.694 148.89 375.24C148.89 361.786 126.007 350.88 97.7799 350.88C69.5526 350.88 46.6699 361.786 46.6699 375.24C46.6699 388.694 69.5526 399.6 97.7799 399.6Z" fill="#E0E0E0"/>
<path d="M67.4103 370.08H76.7803V354.04H67.4103V370.08Z" fill="#B16668"/>
<path d="M105.72 357.94L115.09 358.26L115.56 341.29L105.72 340.97V357.94Z" fill="#B16668"/>
<path d="M70.2098 240.3C70.2098 249.24 70.6798 301.08 70.6798 301.08C70.4598 303.65 67.9898 308.23 67.7898 317.5C67.5098 330.94 67.0098 362.07 67.0098 362.07C68.6282 362.863 70.4007 363.292 72.2026 363.327C74.0045 363.361 75.7921 363.001 77.4398 362.27C77.4398 362.27 87.3698 318 89.0498 304.72C90.5098 293.1 93.0498 261.55 93.0498 261.55L100.21 300.81C99.1099 305.692 98.7026 310.705 98.9998 315.7C99.4398 321.85 105.14 352.7 105.14 352.7C106.773 353.622 108.588 354.174 110.458 354.318C112.327 354.461 114.205 354.192 115.96 353.53C115.96 353.53 116.52 305.13 116.62 299.53C116.75 293.09 113.94 237.7 113.94 237.7L70.2098 240.3Z" fill="#37474F"/>
<path d="M76.7801 365.46V364.12C77.2801 364.12 77.5901 364.61 77.7801 365.81C77.9131 366.702 78.0934 367.587 78.3201 368.46C78.7397 370.101 79.288 371.706 79.9601 373.26C81.2801 376.52 82.3901 377.74 85.4301 381.55C86.4667 382.607 87.4385 383.726 88.3401 384.9C88.9001 385.9 89.1001 388.71 88.1401 389.35C84.6001 391.71 79.2301 391.78 75.4301 390.66C74.0141 390.266 72.7415 389.473 71.7643 388.376C70.7872 387.278 70.1469 385.922 69.9201 384.47C69.7801 383.6 69.8301 382.72 69.7301 381.85C69.4013 379.874 68.5984 378.007 67.3901 376.41C66.681 375.48 66.0773 374.473 65.5901 373.41C64.8001 371.48 65.4301 369.32 65.9301 367.41C66.3701 365.75 66.8401 363.93 67.4001 364.09V365.09C68.7369 366.137 70.3921 366.695 72.0901 366.67C73.4701 366.78 76.7901 366.5 76.7801 365.46Z" fill="#263238"/>
<path d="M115.19 355.37C115.67 355.37 116.07 356.08 117.19 357.24C118.793 358.868 120.655 360.22 122.7 361.24C126.21 363 133.03 365.7 136.11 367.09C138.04 367.96 137.95 370.29 135.96 371.61C133.97 372.93 129.15 373.89 123.38 372.61C120.23 371.91 116.13 369 113.54 369.16C110.95 369.32 106.09 369.28 104.18 367.96C102.27 366.64 103.03 363.82 103.57 361.4C104.16 358.75 104.9 354.63 105.77 354.81V355.72C106.9 357.43 112.71 358.12 115.19 356.87V355.37Z" fill="#263238"/>
<path d="M93 261.55C97.8264 260.033 102.263 257.48 106 254.07C106 254.07 103.48 258.78 96 263.17L99.62 298.09L93 261.55Z" fill="#263238"/>
<path d="M107.89 218.9C101.77 198.52 102.98 181.26 101.83 175.98L117.52 197.89C118.184 205.111 119.256 212.29 120.73 219.39C122.54 227.18 125.01 236.89 127.97 242.93C128.507 243.994 129.414 244.826 130.52 245.27C133.52 246.48 134.86 248.01 137.23 249.76C139.09 251.14 140.5 251.32 140.39 251.88C140.185 252.51 139.75 253.04 139.172 253.364C138.594 253.688 137.915 253.783 137.27 253.63C135.839 253.33 134.449 252.86 133.13 252.23C134.461 254.488 136.149 256.514 138.13 258.23C142.67 262.18 143.32 264.97 135.78 266.34C131.05 267.21 126.78 264.94 121.39 255.12C119.348 251.546 117.567 247.83 116.06 244C112.46 234 109.74 225.07 107.89 218.9Z" fill="#B16668"/>
<path d="M100.56 170.91C105.43 171.77 110.25 172.91 113.24 177.59C116.23 182.27 120.55 204.36 120.55 204.36C120.55 204.36 114.27 208.77 107.07 208.58L100.56 170.91Z" fill="#6C63FF"/>
<path opacity="0.1" d="M100.56 170.91C105.43 171.77 110.25 172.91 113.24 177.59C116.23 182.27 120.55 204.36 120.55 204.36C120.55 204.36 114.27 208.77 107.07 208.58L100.56 170.91Z" fill="black"/>
<path d="M67.0002 179.12C63.7302 181.45 46.4802 220.41 45.8202 223.12C44.9302 226.81 45.3402 230.94 47.1502 232.28C48.9602 233.62 52.9502 231.7 55.0402 229.66C59.0402 225.66 73.0402 196.52 73.0402 196.52L67.0002 179.12Z" fill="#9A4A4D"/>
<path d="M84.1501 171C76.1501 172.92 66.1501 176.13 62.5801 183.45C59.0101 190.77 53.5801 202.66 53.5801 202.66C57.2803 206.27 61.7936 208.938 66.7401 210.44L70.7401 203.44L70.1501 240.44C76.6001 245.14 100.29 247.7 113.87 237.78C113.87 237.78 112.21 193.42 112.21 186.51C112.21 179.6 108.37 171.31 97.7801 170.69L84.1501 171Z" fill="#6C63FF"/>
<path opacity="0.1" d="M70.8004 203.35C70.8004 203.35 74.8004 196.44 75.6504 194.77L70.6504 211.77L70.8004 203.35Z" fill="black"/>
<path d="M99.3104 153.04C106.418 153.04 112.18 147.278 112.18 140.17C112.18 133.062 106.418 127.3 99.3104 127.3C92.2025 127.3 86.4404 133.062 86.4404 140.17C86.4404 147.278 92.2025 153.04 99.3104 153.04Z" fill="#263238"/>
<path d="M77.0498 149.32C77.0498 149.32 79.1398 159.12 79.9798 160.73C80.5347 161.724 81.4517 162.465 82.5398 162.8L82.3998 155.91L77.0498 149.32Z" fill="#263238"/>
<path d="M79.6698 135.28C78.9398 135.197 78.2005 135.28 77.5075 135.524C76.8146 135.769 76.1862 136.167 75.6698 136.69C73.9598 138.44 74.9198 143.94 77.0498 149.32L80.9798 149.77L79.6698 135.28Z" fill="#263238"/>
<path d="M82.1599 149.78C81.3699 150.25 80.2499 148.73 79.2799 147.72C78.3099 146.71 75.1299 145.31 73.5499 148.64C71.9699 151.97 74.9499 156.53 77.4499 157.32C81.7499 158.67 82.4499 155.91 82.4499 155.91L82.7599 171.91C88.1099 178.77 102.96 178.19 96.7599 171.03V166.3C98.6766 166.611 100.621 166.711 102.56 166.6C105.73 166.11 107.72 163.6 108.68 160.19C110.22 154.69 110.81 150.19 109.5 139.42C108.07 127.56 94.2699 127.42 86.8199 132.13C79.3699 136.84 82.1599 149.78 82.1599 149.78Z" fill="#B16668"/>
<path d="M82.1603 151.1C81.7603 151.1 80.2603 148.61 79.2803 147.72C77.9203 146.48 79.6703 135.28 79.6703 135.28C79.21 134.3 79.0535 133.205 79.221 132.136C79.3885 131.067 79.8724 130.072 80.6103 129.28C82.4703 127.23 85.0703 124.72 93.5103 125.72C99.5103 126.44 106.09 128.31 111.39 125.72C111.883 127.448 111.847 129.284 111.288 130.991C110.728 132.698 109.67 134.199 108.25 135.3C108.25 135.3 106.33 136.53 101.25 137.15C96.5855 137.5 91.8981 137.41 87.2503 136.88C85.7903 136.68 85.4803 138.1 84.6903 141.97C84.0703 145.32 83.4903 151.08 82.1603 151.1Z" fill="#263238"/>
<path d="M79.6799 136.15L74.9199 133.59C75.0728 133.271 75.2886 132.985 75.5544 132.751C75.8202 132.518 76.1304 132.34 76.4666 132.229C76.8028 132.117 77.1579 132.075 77.5107 132.105C77.8636 132.134 78.2068 132.235 78.5199 132.4C79.1588 132.755 79.636 133.344 79.8521 134.042C80.0681 134.741 80.0065 135.496 79.6799 136.15Z" fill="#263238"/>
<path d="M96.7098 166.29C96.7098 166.29 89.6498 164.87 87.1798 163.56C85.7265 162.802 84.5349 161.624 83.7598 160.18C84.1329 161.63 84.7925 162.99 85.6998 164.18C87.5098 166.49 96.6998 168.18 96.6998 168.18L96.7098 166.29Z" fill="#9A4A4D"/>
<path d="M94.9998 148C95.0052 148.383 94.8589 148.752 94.5929 149.028C94.3268 149.303 93.9627 149.462 93.5798 149.47C93.2014 149.454 92.8438 149.292 92.5825 149.018C92.3213 148.744 92.1769 148.379 92.1798 148C92.1745 147.617 92.3208 147.247 92.5868 146.972C92.8528 146.697 93.217 146.538 93.5998 146.53C93.9783 146.545 94.3359 146.707 94.5971 146.982C94.8583 147.256 95.0027 147.621 94.9998 148Z" fill="#263238"/>
<path d="M93.5098 142.66L90.5098 144.34C90.2918 143.924 90.243 143.44 90.3734 142.989C90.5039 142.538 90.8035 142.155 91.2098 141.92C91.4086 141.813 91.6268 141.748 91.8513 141.728C92.0758 141.708 92.3022 141.733 92.5168 141.802C92.7314 141.871 92.9299 141.983 93.1005 142.13C93.2711 142.277 93.4103 142.458 93.5098 142.66Z" fill="#263238"/>
<path d="M96.0701 157.79L99.3101 159C99.2405 159.218 99.1275 159.419 98.9778 159.592C98.8281 159.765 98.6449 159.906 98.4392 160.006C98.2335 160.106 98.0097 160.163 97.7812 160.174C97.5527 160.185 97.3244 160.15 97.1101 160.07C96.6744 159.9 96.3223 159.566 96.1281 159.141C95.934 158.715 95.9132 158.231 96.0701 157.79Z" fill="#9A4A4D"/>
<path d="M107.64 143.84L104.88 141.72C105.008 141.532 105.174 141.372 105.366 141.25C105.559 141.128 105.774 141.048 105.999 141.013C106.225 140.978 106.454 140.99 106.675 141.048C106.895 141.106 107.101 141.209 107.28 141.35C107.647 141.64 107.889 142.06 107.956 142.523C108.023 142.986 107.91 143.458 107.64 143.84Z" fill="#263238"/>
<path d="M106.79 147.61C106.778 147.888 106.685 148.156 106.522 148.382C106.359 148.607 106.133 148.78 105.873 148.878C105.613 148.977 105.329 148.996 105.058 148.935C104.787 148.874 104.539 148.734 104.347 148.533C104.154 148.332 104.024 148.079 103.974 147.806C103.924 147.532 103.956 147.25 104.065 146.994C104.174 146.738 104.356 146.519 104.588 146.366C104.82 146.212 105.092 146.13 105.37 146.13C105.56 146.134 105.748 146.175 105.923 146.252C106.097 146.328 106.255 146.438 106.387 146.576C106.518 146.713 106.622 146.875 106.691 147.053C106.76 147.23 106.794 147.419 106.79 147.61Z" fill="#263238"/>
<path d="M99.5801 146.26L100.04 154.78L104.49 153.26L99.5801 146.26Z" fill="#9A4A4D"/>
<path d="M61.8896 246.87C61.757 246.87 61.6299 246.817 61.5361 246.723C61.4423 246.63 61.3896 246.502 61.3896 246.37V89.0898C61.3896 88.9572 61.4423 88.8301 61.5361 88.7363C61.6299 88.6425 61.757 88.5898 61.8896 88.5898C62.0223 88.5898 62.1494 88.6425 62.2432 88.7363C62.337 88.8301 62.3896 88.9572 62.3896 89.0898V246.37C62.3896 246.502 62.337 246.63 62.2432 246.723C62.1494 246.817 62.0223 246.87 61.8896 246.87Z" fill="#37474F"/>
<path d="M65.6898 102.78C65.6898 101.17 62.3598 96.7798 61.6898 96.7798C61.0198 96.7798 58.0498 101.09 58.0498 102.78C58.0802 103.115 58.1989 103.436 58.3939 103.71C58.589 103.984 58.8533 104.201 59.1598 104.34C59.9913 104.764 60.9114 104.985 61.8448 104.985C62.7782 104.985 63.6983 104.764 64.5298 104.34C64.8382 104.203 65.1046 103.986 65.3014 103.712C65.4982 103.438 65.6185 103.116 65.6498 102.78H65.6898Z" fill="#6C63FF"/>
<path opacity="0.1" d="M65.6898 102.78C65.6898 101.17 62.3598 96.7798 61.6898 96.7798C61.0198 96.7798 58.0498 101.09 58.0498 102.78C58.0802 103.115 58.1989 103.436 58.3939 103.71C58.589 103.984 58.8533 104.201 59.1598 104.34C59.9913 104.764 60.9114 104.985 61.8448 104.985C62.7782 104.985 63.6983 104.764 64.5298 104.34C64.8382 104.203 65.1046 103.986 65.3014 103.712C65.4982 103.438 65.6185 103.116 65.6498 102.78H65.6898Z" fill="black"/>
<path d="M84.0002 67.8801C84.0002 80.1801 74.3402 95.7201 61.7202 98.6601C49.0002 95.1101 39.4502 80.1801 39.4502 67.8801C39.4502 55.5801 47.3702 44.0801 61.7302 44.0801C76.0902 44.0801 84.0002 55.5701 84.0002 67.8801Z" fill="#6C63FF"/>
<path opacity="0.05" d="M40.2703 61.1299C39.7192 63.3374 39.4438 65.6046 39.4503 67.8799C39.4503 80.1799 49.0303 95.1099 61.7303 98.6599C72.2203 96.2099 80.6603 85.0599 83.2103 74.2999C83.2103 74.2999 79.8903 86.1099 65.2803 87.0599C50.6703 88.0099 38.8803 71.3099 40.2703 61.1299Z" fill="black"/>
<path d="M47.6496 232.52C44.9896 231.76 42.2596 223.8 42.4596 218.7C42.6596 213.6 49.5196 191.54 50.4596 187.3C51.5296 182.62 51.4596 179.06 52.4096 176.63C53.8096 173.04 58.4096 171.07 58.4096 171.07C58.4096 171.07 64.4096 168.2 66.5696 167.77C68.7296 167.34 69.5696 168.77 69.3296 169.9C69.0896 171.03 68.3296 173.9 68.1296 175.46C67.9871 177.457 67.403 179.397 66.4196 181.14C65.2896 182.95 60.6796 187.28 60.4996 189.69C60.3196 192.1 58.9896 205.18 58.2296 214.69C57.5996 222.47 56.8196 225.69 55.1296 227.75C53.4396 229.81 49.7196 233.1 47.6496 232.52Z" fill="#B16668"/>
<path d="M423.07 345.04H413.57V361.3H423.07V345.04Z" fill="#FFA8A7"/>
<path d="M390.14 344.18L380.65 344.5L380.18 327.3L390.14 326.97V344.18Z" fill="#FFA8A7"/>
<path d="M420 224.05C420 233.12 421.42 287.59 421.42 287.59C421.64 290.2 424.15 294.84 424.35 304.24C424.63 317.87 423.45 353.17 423.45 353.17C421.81 353.974 420.014 354.41 418.188 354.446C416.362 354.483 414.551 354.119 412.88 353.38C412.88 353.38 404.5 304.77 402.8 291.28C401.32 279.51 398.8 247.52 398.8 247.52L393.67 286C394.769 290.95 395.166 296.029 394.85 301.09C394.4 307.33 390.75 338.89 390.75 338.89C389.09 339.826 387.243 340.386 385.343 340.529C383.442 340.673 381.532 340.396 379.75 339.72C379.75 339.72 374.95 291.72 374.84 286C374.72 279.47 378 212.84 378 212.84L420 224.05Z" fill="#6C63FF"/>
<path d="M382.78 205.32C388.9 184.93 387.69 167.67 388.84 162.39L373.15 184.3C372.485 191.525 371.414 198.706 369.94 205.81C368.13 213.6 365.66 223.31 362.7 229.35C362.162 230.412 361.255 231.24 360.15 231.68C357.15 232.89 355.81 234.42 353.44 236.18C351.58 237.55 350.17 237.73 350.28 238.29C350.493 238.913 350.931 239.433 351.508 239.75C352.086 240.066 352.76 240.155 353.4 240C354.83 239.699 356.22 239.229 357.54 238.6C356.207 240.857 354.519 242.883 352.54 244.6C348 248.54 347.35 251.33 354.89 252.7C359.62 253.57 363.89 251.3 369.28 241.48C371.331 237.9 373.122 234.177 374.64 230.34C378.21 220.36 380.93 211.48 382.78 205.32Z" fill="#FFA8A7"/>
<path d="M390.1 157.32C385.23 158.18 380.42 159.32 377.43 164C374.44 168.68 370.12 190.77 370.12 190.77C370.12 190.77 376.4 195.18 383.6 194.99L390.1 157.32Z" fill="#E0E0E0"/>
<path d="M423.66 165.54C426.93 167.86 444.18 206.82 444.84 209.54C445.72 213.23 445.32 217.37 443.51 218.7C441.7 220.03 437.71 218.12 435.62 216.08C431.62 212.08 417.57 182.95 417.57 182.95L423.66 165.54Z" fill="#F28F8F"/>
<path d="M406.68 157.31C414.63 159.23 424.68 162.44 428.24 169.76C431.8 177.08 437.24 188.96 437.24 188.96C433.538 192.572 429.021 195.24 424.07 196.74L420.07 189.74L420.66 226.69C414.21 231.39 390.52 233.94 376.94 224.03C376.94 224.03 378.61 179.66 378.61 172.76C378.61 165.86 382.44 157.56 393.04 156.94L406.68 157.31Z" fill="#F0F0F0"/>
<path d="M420 189.71C420 189.71 416 182.79 415.15 181.13L420.15 198.13L420 189.71Z" fill="#E0E0E0"/>
<path d="M413.57 356.61V355.25C412.66 355.65 410.57 363.7 406.78 367.14C403.78 369.87 399.7 373.03 398.66 376.07C397.62 379.11 404.35 380.99 407.15 380.49C410.4 379.92 416.04 377.63 417.45 375.49C418.86 373.35 419.53 370.24 420.68 368.69C421.83 367.14 424.48 365.39 425.1 363.59C425.44 362.59 425.04 360.44 424.56 358.59C424.08 356.74 423.64 355.06 423.07 355.22V356.22C421.716 357.28 420.04 357.845 418.32 357.82C416.93 358 413.56 357.67 413.57 356.61Z" fill="#263238"/>
<path d="M380.55 341.57C380.06 341.57 379.66 342.29 378.55 343.46C376.928 345.098 375.042 346.45 372.97 347.46C369.41 349.24 362.5 351.98 359.37 353.39C357.37 354.27 357.51 356.63 359.53 357.97C361.55 359.31 366.42 360.29 372.28 358.97C375.47 358.25 379.63 355.31 382.28 355.46C384.93 355.61 389.83 355.59 391.77 354.25C393.71 352.91 392.94 350.05 392.39 347.6C391.79 344.92 391.04 340.74 390.15 340.93V341.85C389.01 343.58 383.15 344.28 380.61 343.01L380.55 341.57Z" fill="#263238"/>
<path opacity="0.1" d="M398.82 247.52C393.91 245.988 389.394 243.401 385.59 239.94C385.59 239.94 388.15 244.72 395.73 249.16L394.11 282.67L398.82 247.52Z" fill="black"/>
<path d="M409.66 122C410.373 121.915 411.096 121.994 411.774 122.232C412.451 122.469 413.066 122.858 413.57 123.37C415.25 125.09 414.9 128.27 413.57 135.57L408.38 136.17L409.66 122Z" fill="#263238"/>
<path d="M379.41 119.86C378.293 119.865 377.187 119.64 376.16 119.2C374.57 118.28 374.16 120.09 375.02 121.66C375.596 122.783 376.45 123.74 377.5 124.44C378.55 125.14 379.762 125.56 381.02 125.66C381.02 125.44 382.51 121.66 382.51 121.66L379.41 119.86Z" fill="#263238"/>
<path d="M407.23 136.14C408 136.6 409.1 135.14 410.05 134.14C411 133.14 414.1 131.78 415.64 135.04C417.18 138.3 413.64 142.78 411.54 144.24C409.04 145.98 407.23 144.62 407.23 144.62L406.68 157.32C406.68 157.32 403.92 164.06 396.46 165.07C389 166.08 390.54 159.94 392.99 156.92V152.3C392.99 152.3 389.14 153.06 387.32 152.59C386 152.174 384.805 151.437 383.84 150.446C382.874 149.455 382.17 148.24 381.79 146.91C379.739 140.134 379.311 132.971 380.54 126C382.44 114.47 395.44 114.28 402.72 118.86C410 123.44 407.23 136.14 407.23 136.14Z" fill="#FFA8A7"/>
<path d="M407.23 137.44C407.61 137.44 409.09 135 410.05 134.13C411.38 132.92 409.66 121.97 409.66 121.97C409.66 121.97 411.01 117.82 408.38 115.06C405.75 112.3 400.66 112.77 396.94 112.64C392.37 112.67 387.843 111.761 383.64 109.97C378.36 107.67 377.96 107.4 377.3 109.72C376.64 112.04 376.4 117.36 379.56 120.92L382.18 121.92C382.18 121.92 383.6 123.17 388.53 123.77C393.078 124.114 397.648 124.027 402.18 123.51C403.61 123.32 403.92 124.7 404.69 128.51C405.36 131.78 405.92 137.41 407.23 137.44Z" fill="#263238"/>
<path d="M409.65 122.82L414.31 120.32C414.161 120.007 413.951 119.727 413.691 119.498C413.431 119.268 413.128 119.094 412.799 118.984C412.47 118.875 412.123 118.833 411.778 118.862C411.432 118.89 411.096 118.988 410.79 119.15C410.164 119.497 409.696 120.072 409.484 120.756C409.271 121.44 409.331 122.179 409.65 122.82Z" fill="#263238"/>
<path d="M393 152.29C393 152.29 399.91 150.9 402.32 149.62C403.743 148.88 404.907 147.726 405.66 146.31C405.296 147.725 404.65 149.051 403.76 150.21C402 152.47 393 154.13 393 154.13V152.29Z" fill="#F28F8F"/>
<path d="M394.65 134.18C394.66 134.453 394.749 134.716 394.908 134.938C395.066 135.16 395.287 135.331 395.542 135.428C395.796 135.526 396.074 135.546 396.34 135.487C396.607 135.428 396.85 135.292 397.039 135.096C397.228 134.899 397.356 134.652 397.406 134.384C397.455 134.115 397.425 133.838 397.318 133.587C397.212 133.336 397.034 133.122 396.807 132.971C396.579 132.821 396.312 132.74 396.04 132.74C395.854 132.743 395.67 132.782 395.499 132.856C395.329 132.93 395.174 133.037 395.045 133.171C394.916 133.305 394.814 133.463 394.746 133.636C394.679 133.809 394.646 133.994 394.65 134.18Z" fill="#263238"/>
<path d="M396.37 128.45L399.37 130.09C399.583 129.684 399.631 129.211 399.502 128.771C399.373 128.33 399.078 127.957 398.68 127.73C398.483 127.617 398.265 127.546 398.039 127.521C397.813 127.496 397.585 127.518 397.368 127.586C397.151 127.654 396.951 127.765 396.779 127.914C396.607 128.063 396.468 128.245 396.37 128.45Z" fill="#263238"/>
<path d="M394.76 143.8L391.6 145C391.668 145.212 391.779 145.409 391.925 145.578C392.071 145.747 392.25 145.884 392.451 145.982C392.652 146.08 392.87 146.137 393.094 146.148C393.317 146.16 393.54 146.127 393.75 146.05C394.179 145.882 394.526 145.552 394.715 145.131C394.904 144.711 394.92 144.232 394.76 143.8Z" fill="#F28F8F"/>
<path d="M381.67 130.43L384.37 128.35C384.243 128.164 384.079 128.007 383.888 127.887C383.697 127.768 383.484 127.689 383.261 127.656C383.039 127.623 382.812 127.637 382.595 127.696C382.377 127.755 382.175 127.859 382 128C381.646 128.287 381.415 128.698 381.353 129.15C381.292 129.601 381.405 130.059 381.67 130.43Z" fill="#263238"/>
<path d="M383.22 133.79C383.23 134.063 383.32 134.327 383.479 134.549C383.638 134.771 383.859 134.942 384.114 135.039C384.369 135.136 384.648 135.156 384.914 135.096C385.181 135.036 385.424 134.899 385.613 134.702C385.802 134.505 385.928 134.256 385.977 133.987C386.025 133.718 385.994 133.441 385.886 133.19C385.778 132.939 385.598 132.726 385.369 132.577C385.141 132.427 384.873 132.348 384.6 132.35C384.227 132.361 383.873 132.518 383.614 132.787C383.356 133.057 383.214 133.417 383.22 133.79Z" fill="#263238"/>
<path d="M390.79 132.71L390.33 141.03L385.99 139.55L390.79 132.71Z" fill="#F28F8F"/>
<path d="M428.78 233.28C428.648 233.28 428.52 233.227 428.427 233.134C428.333 233.04 428.28 232.913 428.28 232.78V75.5C428.28 75.3674 428.333 75.2402 428.427 75.1464C428.52 75.0527 428.648 75 428.78 75C428.913 75 429.04 75.0527 429.134 75.1464C429.228 75.2402 429.28 75.3674 429.28 75.5V232.78C429.28 232.913 429.228 233.04 429.134 233.134C429.04 233.227 428.913 233.28 428.78 233.28Z" fill="#37474F"/>
<path d="M425 89.1899C425 87.5899 428.33 83.1899 429 83.1899C429.67 83.1899 432.64 87.4999 432.64 89.1899C432.611 89.5253 432.492 89.8466 432.297 90.1209C432.102 90.3951 431.837 90.6123 431.53 90.7499C430.698 91.174 429.778 91.3951 428.845 91.3951C427.912 91.3951 426.992 91.174 426.16 90.7499C425.843 90.6203 425.567 90.4065 425.363 90.1315C425.158 89.8566 425.033 89.531 425 89.1899Z" fill="#6C63FF"/>
<path opacity="0.1" d="M425 89.1899C425 87.5899 428.33 83.1899 429 83.1899C429.67 83.1899 432.64 87.4999 432.64 89.1899C432.611 89.5253 432.492 89.8466 432.297 90.1209C432.102 90.3951 431.837 90.6123 431.53 90.7499C430.698 91.174 429.778 91.3951 428.845 91.3951C427.912 91.3951 426.992 91.174 426.16 90.7499C425.843 90.6203 425.567 90.4065 425.363 90.1315C425.158 89.8566 425.033 89.531 425 89.1899Z" fill="black"/>
<path d="M406.66 54.2902C406.66 66.5902 416.31 82.1302 428.94 85.0702C441.64 81.5202 451.22 66.5902 451.22 54.2902C451.22 41.9902 443.3 30.4902 428.94 30.4902C414.58 30.4902 406.66 42.0002 406.66 54.2902Z" fill="#6C63FF"/>
<path opacity="0.05" d="M450.26 60.7202C450.26 60.7202 447 72.5202 432.33 73.4702C418.25 74.3802 406.8 58.9202 407.23 48.6802C406.849 50.5257 406.658 52.4056 406.66 54.2902C406.66 66.5902 416.31 82.1302 428.94 85.0702C439.47 82.1302 447.84 71.3702 450.41 60.7702L450.26 60.7202Z" fill="black"/>
<path d="M443 218.93C445.66 218.17 448.39 210.22 448.19 205.11C447.99 200 441.13 177.96 440.19 173.71C439.12 169.03 439.19 165.47 438.24 163.04C436.84 159.46 432.24 157.49 432.24 157.49C432.24 157.49 426.24 154.61 424.08 154.18C421.92 153.75 421.08 155.18 421.32 156.31C421.56 157.44 422.32 160.31 422.52 161.87C422.661 163.867 423.245 165.807 424.23 167.55C425.36 169.36 429.97 173.69 430.15 176.1C430.33 178.51 431.66 191.6 432.42 201.1C433.05 208.88 433.83 212.1 435.52 214.16C437.21 216.22 441 219.52 443 218.93Z" fill="#FFA8A7"/>
<path d="M184.77 364.97C212.997 364.97 235.88 354.064 235.88 340.61C235.88 327.156 212.997 316.25 184.77 316.25C156.543 316.25 133.66 327.156 133.66 340.61C133.66 354.064 156.543 364.97 184.77 364.97Z" fill="#E0E0E0"/>
<path d="M293.37 372.38C321.597 372.38 344.48 361.474 344.48 348.02C344.48 334.566 321.597 323.66 293.37 323.66C265.142 323.66 242.26 334.566 242.26 348.02C242.26 361.474 265.142 372.38 293.37 372.38Z" fill="#E0E0E0"/>
<path d="M197.63 139.7C200.28 139.32 202.52 139.7 207.15 146.02C211.29 151.68 219.54 161.18 219.54 161.18C219.54 161.18 227 141.63 226.78 139C226.56 136.37 224.91 134.75 223.83 129.91C222.75 125.07 222.44 124.15 221.63 122.74C220.82 121.33 223.63 120.99 224.76 122.74C225.89 124.49 226.03 126.96 226.82 126.52C227.61 126.08 228.15 120.76 227.48 116.94C226.81 113.12 228.55 112.26 229.34 113.48C229.798 114.162 230.121 114.926 230.29 115.73C231.107 115.563 231.955 115.616 232.745 115.883C233.536 116.15 234.241 116.622 234.79 117.25C236.79 119.43 238.45 122.78 238.44 128.45C238.43 134.12 235.81 137.15 235.44 139.71C235.07 142.27 230.44 166 227.16 174.02C225.1 179.02 222.25 180.54 218.77 177.61C214.08 173.66 201.21 157.84 201.21 157.84L197.63 139.7Z" fill="#FFA8A7"/>
<path d="M197.63 139.7C200.02 138.99 202.63 139.55 205.05 142.45C207.47 145.35 216.33 156.57 216.33 156.57C216.33 156.57 216.07 162.31 208.66 167.63L200.21 158.53L197.63 139.7Z" fill="#6C63FF"/>
<path d="M210.15 324.86L210.07 323.53C210.7 325.06 213.54 331.66 217.45 334.81C220.55 337.32 224.76 340.19 225.96 343.12C227.16 346.05 220.62 347.62 217.84 347.29C214.61 346.92 210.36 345.35 207.94 342.72C206.24 340.87 205.1 338.63 203.88 337.17C202.66 335.71 199.95 334.17 199.23 332.42C198.84 331.47 199.11 329.31 199.47 327.49C199.83 325.67 200.37 323.81 200.94 323.93C200.916 324.322 200.87 324.713 200.8 325.1C202.19 326.068 203.871 326.527 205.56 326.4C206.93 326.37 210.23 325.9 210.15 324.86Z" fill="#263238"/>
<path d="M220.26 337C219.26 336.24 218.33 335.5 217.45 334.79C214.72 332.58 212.51 328.69 211.21 326.03V325.98C210.215 323.826 209.782 321.456 209.95 319.09L210.07 315.94L200.07 316.14L200.8 325.08V325.31H200.85C201.42 327.22 206.01 332.13 208.65 335.31C210.41 337.46 213.65 340.15 217.42 340.42C221 340.76 222.7 339.54 220.26 337Z" fill="#FFA8A7"/>
<path d="M154.32 326C153.84 325.72 153.05 327.35 152.22 328.59C151.329 330.133 150.905 331.901 151 333.68C151.221 335.684 151.116 337.71 150.69 339.68C150.13 343 149.16 346.81 152.5 349.87C155.37 352.49 161.77 353.71 163.81 351.87C164.224 351.533 164.553 351.103 164.77 350.614C164.988 350.126 165.087 349.594 165.06 349.06C164.65 347.611 164.087 346.209 163.38 344.88C162.59 343.372 161.883 341.823 161.26 340.24L154.32 326Z" fill="#263238"/>
<path d="M163.34 320.38C162.9 320.01 161.95 332.29 161.68 335.21C161.41 338.13 161.92 339.66 162.4 342.77C162.639 343.505 162.586 344.303 162.25 345C161.997 345.322 161.671 345.581 161.299 345.755C160.928 345.928 160.52 346.012 160.11 346C157.99 346 156.31 345.22 154.53 343.21C153.65 342.21 153.59 339.56 153.64 338.6C153.785 336.991 153.815 335.373 153.73 333.76C153.57 332.05 153.07 330.04 153.29 328.76C153.478 327.768 153.816 326.811 154.29 325.92C155.1 324.07 155.64 319.01 155.64 319.01L163.34 320.38Z" fill="#FFA8A7"/>
<path d="M167.53 190.19C162.34 196.86 161.4 203.74 162.53 223.19C163.66 242.64 162.02 258.53 161.73 259.62C161.44 260.71 158.15 271.45 156.6 278.68C154.79 287.15 154.54 322.02 154.54 322.02C154.54 322.02 158.23 324.02 163.93 322.66C163.93 322.66 177.69 268.17 179.15 263.78C180.61 259.39 191.66 214.11 191.66 214.11L190.25 188.04L167.53 190.19Z" fill="#37474F"/>
<path d="M207.22 212.61C206.43 203.61 204.5 188.02 204.5 188.02L181.5 186.67C177.77 192.48 179.39 202.14 180.41 210.87L193.57 262.39C193.3 264.86 191.03 270.09 193.57 283.39C196.4 298.21 199.87 317.8 199.87 317.8C199.87 317.8 205.27 320 210.23 317.91C210.23 317.91 212.13 270.99 210.92 258.18C209.59 244.27 207.76 218.77 207.22 212.61Z" fill="#37474F"/>
<path d="M187.64 234.47L191.39 215.57C194.714 214.386 197.87 212.776 200.78 210.78C198.921 213.129 196.704 215.171 194.21 216.83L187.64 234.47Z" fill="#263238"/>
<path d="M168.92 144.42C166.34 145.91 162.07 147.27 160.29 152.29C157.86 159.29 151.41 177.47 148.93 184H160.85L169.1 167.1C175.48 161.62 174.62 146.39 168.92 144.42Z" fill="#FFA8A7"/>
<path d="M203 173.41C203.57 178.66 205.69 198.08 205.69 198.08C188.34 207.33 166.83 201.2 163.54 197.39C166.54 187.57 169.73 181.98 172.18 179.39L169.1 167.1C169.1 167.1 176.37 158.45 168.92 144.42L178.59 141.24L191.83 140.09L197.63 139.7C199.7 141.64 202.96 148.59 205.08 154C206.44 157.49 207.91 163.07 203 173.41Z" fill="#F5F5F5"/>
<path d="M168.92 144.42C163.22 145.54 160.66 148.34 158.38 154.56C155.92 161.29 152.97 168.56 152.97 168.56C154.567 170.868 156.795 172.666 159.388 173.739C161.982 174.812 164.829 175.114 167.59 174.61L171.28 164.32C171.28 164.32 176.23 155.24 168.92 144.42Z" fill="#6C63FF"/>
<path d="M170.67 173.28C170.82 173.88 174.88 179.28 176.87 180.52C178.86 181.76 173.35 183.52 172.57 186.67C171 193 180.81 201.13 193 202.29C179.21 204.55 166.08 200.29 163.57 197.39C166.57 187.57 169.76 181.98 172.21 179.39L170.67 173.28Z" fill="#E6E6E6"/>
<path d="M207.15 138.47H188.62C185.642 138.471 182.692 137.886 179.94 136.746C177.187 135.607 174.687 133.936 172.58 131.83C170.474 129.724 168.803 127.223 167.664 124.471C166.525 121.719 165.939 118.769 165.94 115.79C165.94 110.326 168.111 105.087 171.974 101.224C175.837 97.3603 181.077 95.1899 186.54 95.1899C189.246 95.1886 191.926 95.7205 194.427 96.7552C196.927 97.7898 199.199 99.307 201.113 101.22C203.027 103.133 204.546 105.404 205.581 107.904C206.617 110.404 207.15 113.084 207.15 115.79V138.47Z" fill="#263238"/>
<path d="M199.79 104.16C201.97 105.45 204.66 110.92 204.39 122.4C204.16 132.12 201.01 134.53 199.39 135.22C197.77 135.91 194.75 135.49 191.79 134.99V140.83C191.606 142.064 190.941 143.175 189.94 143.92C187.52 145.43 184.66 144.86 183.05 144.28C179.5 143 178.8 141.28 178.8 141.28L178.86 127.85C178.86 127.85 177.12 129.55 174.15 126.96C171.71 124.82 170.89 121.22 172.79 119.28C173.285 118.82 173.882 118.485 174.532 118.301C175.182 118.117 175.866 118.091 176.529 118.223C177.191 118.356 177.812 118.645 178.341 119.065C178.87 119.485 179.291 120.025 179.57 120.64C179.57 120.64 181.31 120.78 183.05 117.54C183.05 117.54 182.99 108.76 184.95 107.62C191.2 104 195.62 104.16 199.79 104.16Z" fill="#FFA8A7"/>
<path d="M191.82 119.34C191.832 119.502 191.812 119.666 191.761 119.82C191.709 119.975 191.628 120.117 191.521 120.24C191.414 120.363 191.284 120.463 191.138 120.535C190.992 120.607 190.833 120.65 190.67 120.66C190.417 120.684 190.163 120.631 189.941 120.509C189.718 120.387 189.537 120.201 189.421 119.975C189.305 119.749 189.26 119.494 189.291 119.242C189.321 118.99 189.427 118.753 189.594 118.561C189.76 118.37 189.981 118.233 190.226 118.168C190.472 118.103 190.731 118.113 190.971 118.197C191.21 118.281 191.419 118.434 191.571 118.638C191.722 118.842 191.809 119.086 191.82 119.34Z" fill="#263238"/>
<path d="M193.86 128.2L196.7 129.1C196.647 129.289 196.557 129.466 196.435 129.619C196.312 129.773 196.16 129.9 195.988 129.994C195.815 130.087 195.625 130.144 195.43 130.163C195.234 130.181 195.037 130.16 194.85 130.1C194.474 129.97 194.161 129.7 193.977 129.347C193.793 128.994 193.751 128.583 193.86 128.2Z" fill="#F28F8F"/>
<path d="M202.88 115.53L200.41 113.82C200.512 113.652 200.648 113.508 200.809 113.395C200.969 113.282 201.151 113.203 201.344 113.164C201.536 113.124 201.734 113.125 201.927 113.166C202.119 113.206 202.3 113.286 202.46 113.4C202.791 113.632 203.019 113.984 203.098 114.381C203.176 114.777 203.098 115.189 202.88 115.53Z" fill="#263238"/>
<path d="M190.12 115L187.31 116.08C187.229 115.901 187.186 115.707 187.184 115.511C187.181 115.315 187.219 115.12 187.295 114.939C187.371 114.758 187.483 114.594 187.625 114.459C187.767 114.323 187.936 114.218 188.12 114.15C188.499 114.009 188.917 114.019 189.289 114.177C189.661 114.335 189.959 114.629 190.12 115Z" fill="#263238"/>
<path d="M202.21 119.07C202.214 119.311 202.146 119.548 202.016 119.752C201.885 119.955 201.698 120.116 201.477 120.213C201.256 120.311 201.012 120.341 200.774 120.301C200.536 120.26 200.315 120.151 200.139 119.985C199.962 119.82 199.839 119.607 199.783 119.372C199.727 119.137 199.742 118.891 199.826 118.664C199.909 118.437 200.057 118.24 200.252 118.097C200.446 117.954 200.679 117.872 200.92 117.86C201.251 117.852 201.571 117.974 201.813 118.2C202.054 118.427 202.197 118.739 202.21 119.07Z" fill="#263238"/>
<path d="M196.34 118.37L196.53 125.73L200.41 124.53L196.34 118.37Z" fill="#F28F8F"/>
<path d="M191.83 135C188.7 134.59 182.26 132.75 181.26 130.2C181.66 131.491 182.449 132.626 183.52 133.45C185.44 135.1 191.83 136.95 191.83 136.95V135Z" fill="#F28F8F"/>
<path d="M183.56 96.2901L183.09 90.8901C183.443 90.8368 183.804 90.8565 184.15 90.9479C184.496 91.0393 184.819 91.2006 185.1 91.4216C185.381 91.6427 185.614 91.919 185.784 92.2334C185.954 92.5479 186.058 92.8939 186.09 93.2501C186.143 93.9857 185.91 94.7134 185.438 95.2803C184.966 95.8473 184.293 96.2092 183.56 96.2901Z" fill="#263238"/>
<path d="M183.27 96.8298L178.9 93.6298C179.096 93.3319 179.35 93.0768 179.647 92.8801C179.945 92.6834 180.279 92.5492 180.63 92.4856C180.98 92.422 181.34 92.4303 181.688 92.5101C182.035 92.5899 182.363 92.7395 182.65 92.9498C183.232 93.3935 183.62 94.0437 183.736 94.7659C183.851 95.4881 183.685 96.227 183.27 96.8298Z" fill="#263238"/>
<path d="M179.61 120.62V125.73C180.533 125.73 181.418 125.363 182.071 124.711C182.724 124.058 183.09 123.173 183.09 122.25V117.52L179.61 120.62Z" fill="#263238"/>
<path d="M193.53 96.3999C198.119 96.3999 202.519 98.2226 205.763 101.467C209.008 104.711 210.83 109.112 210.83 113.7V115.94H202.37C200.465 115.941 198.624 115.251 197.189 113.999C195.753 112.747 194.819 111.017 194.56 109.13L194.25 115.94C192.685 115.941 191.175 115.355 190.02 114.298C188.865 113.241 188.148 111.79 188.01 110.23L187.91 109.11C187.762 110.969 186.919 112.703 185.55 113.969C184.181 115.235 182.385 115.938 180.52 115.94H179.76L178.9 103.72L193.53 96.3999Z" fill="#263238"/>
<path d="M311.12 338.32V337C310.59 338.57 308.12 345.33 304.43 348.71C301.48 351.4 297.43 354.51 296.43 357.51C295.43 360.51 302.03 361.68 304.79 361.19C307.99 360.63 312.14 358.81 314.39 356.04C315.98 354.09 316.99 351.78 318.12 350.25C319.25 348.72 321.86 347 322.47 345.25C322.81 344.25 322.41 342.14 321.94 340.34C321.47 338.54 321.04 336.87 320.47 337.02V338.02C319.139 339.07 317.486 339.628 315.79 339.6C314.43 339.64 311.11 339.37 311.12 338.32Z" fill="#263238"/>
<path d="M301.76 351.06C302.68 350.24 303.6 349.45 304.43 348.68C307.03 346.32 309 342.31 310.14 339.57C310.79 338.01 311.13 336.339 311.14 334.65V329.32H320.49V338V338.23H320.44C319.99 340.17 315.7 345.35 313.26 348.72C311.63 350.98 308.52 353.85 304.81 354.35C301.27 354.84 299.48 353.73 301.76 351.06Z" fill="#B16668"/>
<path d="M274.63 329.1V327.76C274.11 329.33 271.63 336.09 267.95 339.47C265 342.16 260.95 345.27 259.95 348.27C258.95 351.27 265.55 352.44 268.31 351.95C271.51 351.38 275.65 349.57 277.91 346.8C279.49 344.85 280.5 342.54 281.64 341.01C282.78 339.48 285.38 337.76 285.99 336.01C286.33 335.01 285.93 332.9 285.46 331.1C285.02 329.45 284.55 327.63 283.99 327.78V328.78C282.658 329.83 281.005 330.388 279.31 330.36C277.94 330.42 274.62 330.15 274.63 329.1Z" fill="#263238"/>
<path d="M265.28 341.84C266.19 341.02 267.11 340.23 267.95 339.46C270.54 337.1 272.52 333.09 273.65 330.35C274.306 328.792 274.645 327.12 274.65 325.43V320.1H284V328.77V329H283.95C283.5 330.94 279.21 336.11 276.77 339.49C275.13 341.75 272.03 344.62 268.32 345.12C264.79 345.62 263 344.51 265.28 341.84Z" fill="#B16668"/>
<path d="M318.61 193C325.86 208.84 318.35 264.63 318.35 264.63C318.57 267.2 321.5 272.26 322.6 283.57C323.89 296.93 320.6 330.49 320.6 330.49C319.175 331.317 317.569 331.784 315.922 331.851C314.275 331.917 312.637 331.58 311.15 330.87C311.15 330.87 302.2 280.28 300.53 267C299.06 255.41 296.26 229.91 296.26 229.91L288.26 266.91C289.421 270.649 290.264 274.479 290.78 278.36C291.54 286.18 283.97 322.57 283.97 322.57C283.97 322.57 280.74 323.75 274.61 322.85C274.61 322.85 271.94 274.55 271.23 265.14C270.04 249.32 274.23 199.98 277.14 190.62L318.61 193Z" fill="#37474F"/>
<path d="M296.26 229.9L293.9 215.19C293.9 215.19 283.9 213.12 279.43 208.88C279.43 208.88 284.16 214.77 291.2 216.7L293.85 228L289.23 262.29L296.26 229.9Z" fill="#263238"/>
<path d="M291.38 137.51C289.126 137.138 286.812 137.404 284.701 138.277C282.589 139.149 280.764 140.595 279.43 142.45C276.28 146.64 264.16 181.89 264.16 181.89H275.07L290 152.35L291.38 137.51Z" fill="#B16668"/>
<path d="M305.82 137.94C315.12 138.58 315.77 143.07 318.09 147.94C319.807 151.727 319.965 156.038 318.53 159.94L312.06 178.68C312.06 178.68 315.06 186.01 318.61 192.94C302.35 202.01 282.05 197.24 277.16 190.62C276.96 189.22 278.16 178.24 278.99 171.07C276.12 163.88 275.37 159.33 276.58 154.58C278.82 145.77 287.52 137.18 291.38 137.49L305.82 137.94Z" fill="#F5F5F5"/>
<path d="M301.66 194.72C302.936 194.427 304.141 193.882 305.204 193.117C306.267 192.351 307.166 191.381 307.848 190.262C308.53 189.144 308.982 187.901 309.176 186.606C309.37 185.31 309.304 183.989 308.98 182.72C308.938 182.545 308.881 182.375 308.81 182.21C308.587 181.529 308.142 180.942 307.545 180.544C306.948 180.147 306.234 179.962 305.52 180.02C306.564 179.331 307.461 178.442 308.158 177.403C308.855 176.364 309.338 175.197 309.58 173.97L311.58 164.06C311.58 164.06 307.91 152.42 308.28 148.43L317.61 148.97L318.82 149.81C319.811 153.126 319.716 156.672 318.55 159.93L312.08 178.67C312.08 178.67 315.08 186 318.63 192.93C313.34 195.775 307.502 197.453 301.509 197.849C295.516 198.246 289.508 197.353 283.89 195.23C289.792 196.182 295.821 196.009 301.66 194.72Z" fill="#E6E6E6"/>
<path d="M340.05 184.41C340.05 184.41 330.82 166.25 324.72 152.35C320.32 142.35 319.33 140.05 312.32 138.96L309.85 138.58C306.53 149.49 308.85 154.44 313.19 161.91L328.38 190.71C331.82 190 340.12 185.45 340.05 184.41Z" fill="#B16668"/>
<path d="M301.96 130.23H295.37C290.721 130.23 286.262 128.383 282.975 125.096C279.687 121.808 277.84 117.349 277.84 112.7V109.76C277.84 105.084 279.698 100.6 283.004 97.2937C286.31 93.9874 290.795 92.13 295.47 92.13H301.81C306.486 92.13 310.97 93.9874 314.277 97.2937C317.583 100.6 319.44 105.084 319.44 109.76V112.7C319.44 117.349 317.594 121.808 314.306 125.096C311.018 128.383 306.56 130.23 301.91 130.23H301.96Z" fill="#263238"/>
<path d="M284.72 100.54C282.52 101.84 279.8 107.37 280.07 118.96C280.3 128.78 283.48 131.2 285.07 131.9C286.66 132.6 289.75 132.17 292.75 131.68V137.57C292.75 137.57 288.6 142.38 288.87 145.08C289.14 147.78 294.87 148.42 298.72 145.78C301.234 143.973 303.391 141.715 305.08 139.12V124.88C305.08 124.88 307.08 127.58 310.41 125.38C313.74 123.18 313.85 117.75 311.93 115.79C310.01 113.83 305.85 114.46 305.08 117.16C305.08 117.16 300.3 117.33 293.94 113.83C291.465 112.498 289.34 110.6 287.738 108.29C286.135 105.98 285.102 103.325 284.72 100.54Z" fill="#B16668"/>
<path d="M292.13 116.49C292.126 116.734 292.194 116.973 292.326 117.178C292.457 117.383 292.646 117.545 292.869 117.643C293.091 117.741 293.338 117.772 293.578 117.731C293.818 117.69 294.041 117.58 294.218 117.413C294.396 117.246 294.521 117.031 294.577 116.794C294.633 116.557 294.618 116.309 294.534 116.081C294.45 115.852 294.3 115.653 294.104 115.509C293.908 115.365 293.673 115.282 293.43 115.27C293.265 115.265 293.1 115.292 292.945 115.351C292.79 115.409 292.648 115.497 292.527 115.611C292.406 115.724 292.309 115.86 292.241 116.011C292.173 116.162 292.135 116.325 292.13 116.49Z" fill="#263238"/>
<path d="M290.7 124.81L287.84 125.73C287.894 125.92 287.985 126.096 288.108 126.25C288.232 126.404 288.385 126.531 288.558 126.624C288.732 126.717 288.922 126.775 289.118 126.793C289.314 126.811 289.512 126.79 289.7 126.73C290.078 126.595 290.392 126.323 290.577 125.967C290.763 125.61 290.806 125.197 290.7 124.81Z" fill="#9A4A4D"/>
<path d="M282 112.7L284.5 110.96C284.394 110.793 284.255 110.648 284.092 110.536C283.929 110.424 283.744 110.346 283.55 110.306C283.356 110.267 283.155 110.268 282.961 110.308C282.767 110.348 282.583 110.427 282.42 110.54C282.085 110.776 281.855 111.133 281.776 111.536C281.698 111.938 281.778 112.355 282 112.7Z" fill="#263238"/>
<path d="M282.58 115.6C282.578 115.843 282.648 116.081 282.781 116.285C282.913 116.488 283.103 116.649 283.326 116.746C283.549 116.842 283.795 116.872 284.035 116.83C284.274 116.788 284.496 116.676 284.672 116.509C284.849 116.342 284.972 116.127 285.028 115.89C285.083 115.653 285.067 115.406 284.983 115.178C284.899 114.95 284.749 114.752 284.553 114.608C284.357 114.464 284.123 114.382 283.88 114.37C283.546 114.364 283.222 114.49 282.979 114.72C282.736 114.95 282.593 115.266 282.58 115.6Z" fill="#263238"/>
<path d="M288.62 114.89L288.42 122.32L284.51 121.11L288.62 114.89Z" fill="#9A4A4D"/>
<path d="M292.76 131.68C295.91 131.26 302.41 129.39 303.42 126.83C303.019 128.128 302.226 129.271 301.15 130.1C299.21 131.77 292.76 133.64 292.76 133.64V131.68Z" fill="#9A4A4D"/>
<path d="M316.9 94.3601C312.84 96.0501 313.75 99.5301 315.45 103.59C317.15 107.65 319 110.74 323 109C324.073 108.678 325.068 108.134 325.918 107.403C326.768 106.672 327.454 105.77 327.934 104.757C328.413 103.743 328.674 102.64 328.699 101.519C328.725 100.398 328.514 99.2848 328.082 98.2505C327.649 97.2162 327.004 96.2844 326.188 95.5154C325.372 94.7465 324.404 94.1577 323.346 93.7871C322.287 93.4165 321.163 93.2725 320.046 93.3643C318.929 93.4561 317.843 93.7818 316.86 94.3201L316.9 94.3601Z" fill="#263238"/>
<path d="M313.33 97.9998L311.91 91.2298C312.345 91.1203 312.798 91.0992 313.241 91.1679C313.684 91.2365 314.109 91.3935 314.49 91.6294C314.872 91.8654 315.202 92.1755 315.461 92.5415C315.721 92.9074 315.904 93.3217 316 93.7598C316.188 94.6745 316.015 95.6263 315.517 96.4164C315.02 97.2065 314.236 97.7738 313.33 97.9998Z" fill="#263238"/>
<path d="M346.65 181.89H134.7V230.42H346.65V181.89Z" fill="#6C63FF"/>
<path d="M163.53 217.35C163.346 217.18 163.215 216.961 163.15 216.72L158 200C157.982 199.897 157.982 199.792 158 199.69C158 199.36 158.2 199.2 158.61 199.2H161.55C161.774 199.176 161.999 199.229 162.19 199.35C162.34 199.489 162.436 199.677 162.46 199.88L165.78 211.55L169.55 201.55C169.622 201.342 169.742 201.153 169.9 201C170.074 200.868 170.292 200.807 170.51 200.83H172.15C172.358 200.812 172.566 200.865 172.74 200.98C172.888 201.143 172.998 201.338 173.06 201.55L176.8 211.55L180.15 199.88C180.2 199.685 180.292 199.504 180.42 199.35C180.613 199.227 180.842 199.174 181.07 199.2H184C184.41 199.2 184.61 199.36 184.61 199.69C184.622 199.793 184.622 199.897 184.61 200L179.38 216.7C179.326 216.947 179.201 217.173 179.02 217.35C178.817 217.466 178.583 217.519 178.35 217.5H176C175.783 217.516 175.567 217.456 175.39 217.33C175.223 217.146 175.094 216.932 175.01 216.7L171.2 206.44L167.38 216.7C167.297 216.938 167.16 217.154 166.98 217.33C166.795 217.455 166.573 217.515 166.35 217.5H164.18C163.953 217.512 163.728 217.46 163.53 217.35Z" fill="white"/>
<path d="M190.34 217.08C188.78 216.441 187.447 215.351 186.51 213.95C185.507 212.377 185.008 210.535 185.08 208.67C185.08 205.39 185.957 202.9 187.71 201.2C189.46 199.5 191.95 198.64 195.18 198.64C198.41 198.64 200.81 199.47 202.45 201.12C204.09 202.77 204.91 205.12 204.91 208.29C204.91 209.18 204.5 209.63 203.69 209.63H189.69C189.652 210.369 189.792 211.106 190.098 211.78C190.405 212.453 190.868 213.043 191.45 213.5C192.882 214.479 194.599 214.954 196.33 214.85C198.223 214.878 200.089 214.406 201.74 213.48C201.866 213.396 202.01 213.341 202.16 213.32C202.34 213.32 202.48 213.44 202.58 213.67L203.5 215.31C203.567 215.44 203.605 215.584 203.61 215.73C203.599 215.834 203.562 215.933 203.503 216.019C203.443 216.104 203.363 216.174 203.27 216.22C202.222 216.86 201.082 217.336 199.89 217.63C198.525 217.956 197.124 218.111 195.72 218.09C193.877 218.116 192.048 217.773 190.34 217.08ZM200.48 206.8C200.518 206.129 200.421 205.457 200.196 204.823C199.971 204.19 199.623 203.607 199.17 203.11C198.636 202.632 198.011 202.267 197.332 202.037C196.653 201.807 195.935 201.716 195.22 201.77C193.727 201.673 192.255 202.165 191.12 203.14C190.64 203.617 190.266 204.189 190.019 204.82C189.773 205.45 189.661 206.124 189.69 206.8H200.48Z" fill="white"/>
<path d="M209 217.18C208.769 216.9 208.651 216.543 208.67 216.18V193C208.639 192.614 208.757 192.231 209 191.93C209.147 191.802 209.318 191.705 209.504 191.647C209.69 191.588 209.886 191.569 210.08 191.59H212.08C212.48 191.552 212.88 191.674 213.19 191.93C213.314 192.077 213.409 192.247 213.467 192.431C213.525 192.614 213.547 192.808 213.53 193V216.15C213.552 216.511 213.438 216.868 213.21 217.15C212.892 217.407 212.487 217.529 212.08 217.49H210.08C209.888 217.513 209.694 217.497 209.509 217.444C209.323 217.39 209.15 217.301 209 217.18Z" fill="white"/>
<path d="M220.1 215.59C219.128 214.682 218.369 213.57 217.878 212.334C217.387 211.097 217.176 209.768 217.26 208.44C217.223 206.65 217.672 204.884 218.56 203.33C219.438 201.846 220.726 200.647 222.27 199.88C224.036 199.024 225.979 198.599 227.94 198.64C229.315 198.617 230.686 198.771 232.02 199.1C233.141 199.407 234.197 199.911 235.14 200.59C235.235 200.636 235.317 200.705 235.378 200.79C235.439 200.876 235.478 200.976 235.49 201.08C235.474 201.273 235.409 201.459 235.3 201.62L234.3 203.41C234.14 203.66 234 203.79 233.88 203.79C233.681 203.769 233.493 203.689 233.34 203.56C232.607 203.106 231.821 202.743 231 202.48C230.102 202.215 229.167 202.09 228.23 202.11C227.404 202.068 226.577 202.197 225.803 202.489C225.028 202.782 224.323 203.231 223.73 203.81C223.166 204.436 222.73 205.167 222.448 205.961C222.167 206.756 222.045 207.598 222.09 208.44C222.026 209.285 222.139 210.134 222.422 210.933C222.704 211.732 223.15 212.463 223.73 213.08C225.076 214.194 226.799 214.745 228.54 214.62C230.346 214.673 232.121 214.151 233.61 213.13C233.758 213.026 233.93 212.96 234.11 212.94C234.26 212.94 234.41 213.07 234.56 213.32L235.67 215.19C235.766 215.309 235.819 215.457 235.82 215.61C235.82 215.79 235.69 215.97 235.44 216.15C234.431 216.807 233.324 217.3 232.16 217.61C230.814 217.951 229.429 218.113 228.04 218.09C224.64 218.09 221.994 217.257 220.1 215.59Z" fill="white"/>
<path d="M241.49 215.48C239.757 213.517 238.8 210.989 238.8 208.37C238.8 205.751 239.757 203.223 241.49 201.26C243.28 199.52 245.83 198.64 249.14 198.64C252.45 198.64 255 199.52 256.8 201.26C258.546 203.217 259.511 205.748 259.511 208.37C259.511 210.993 258.546 213.523 256.8 215.48C255 217.22 252.44 218.09 249.14 218.09C245.84 218.09 243.28 217.22 241.49 215.48ZM253.25 212.94C254.283 211.65 254.79 210.018 254.67 208.37C254.789 206.738 254.282 205.121 253.25 203.85C252.116 202.851 250.657 202.3 249.145 202.3C247.634 202.3 246.174 202.851 245.04 203.85C244.002 205.118 243.49 206.736 243.61 208.37C243.495 210.013 244.006 211.638 245.04 212.92C246.165 213.938 247.628 214.501 249.145 214.501C250.662 214.501 252.125 213.938 253.25 212.92V212.94Z" fill="white"/>
<path d="M263.59 217.18C263.347 216.905 263.222 216.546 263.24 216.18V200.28C263.214 199.995 263.284 199.71 263.44 199.47C263.56 199.32 263.83 199.25 264.24 199.25H266.24C266.457 199.228 266.675 199.289 266.85 199.42C266.993 199.584 267.074 199.792 267.08 200.01L267.19 201.61C267.874 200.716 268.74 199.976 269.73 199.44C270.785 198.904 271.957 198.64 273.14 198.67C274.164 198.645 275.174 198.905 276.06 199.42C276.894 199.923 277.532 200.696 277.87 201.61C278.551 200.65 279.463 199.877 280.523 199.363C281.582 198.849 282.754 198.611 283.93 198.67C284.719 198.631 285.508 198.757 286.247 199.04C286.985 199.322 287.657 199.755 288.22 200.31C289.363 201.668 289.93 203.419 289.8 205.19V216.19C289.818 216.551 289.704 216.906 289.48 217.19C289.162 217.447 288.756 217.569 288.35 217.53H286.67C286.273 217.561 285.879 217.439 285.57 217.19C285.331 216.913 285.209 216.555 285.23 216.19V205.43C285.316 204.525 285.047 203.621 284.48 202.91C284.178 202.639 283.826 202.433 283.442 202.302C283.059 202.171 282.653 202.12 282.25 202.15C281.781 202.129 281.314 202.207 280.878 202.38C280.442 202.552 280.047 202.815 279.72 203.15C279.035 203.91 278.675 204.908 278.72 205.93V216.12C278.74 216.485 278.618 216.843 278.38 217.12C278.067 217.371 277.669 217.493 277.27 217.46H275.71C275.312 217.495 274.917 217.373 274.61 217.12C274.367 216.845 274.242 216.486 274.26 216.12V205.24C274.332 204.406 274.097 203.574 273.6 202.9C273.32 202.631 272.986 202.425 272.621 202.296C272.255 202.166 271.866 202.117 271.48 202.15C270.983 202.132 270.488 202.22 270.027 202.408C269.567 202.596 269.152 202.88 268.81 203.24C268.113 204.017 267.754 205.038 267.81 206.08V216.15C267.828 216.511 267.714 216.866 267.49 217.15C267.172 217.407 266.766 217.529 266.36 217.49H264.68C264.29 217.529 263.9 217.418 263.59 217.18Z" fill="white"/>
<path d="M298.63 217.08C297.077 216.454 295.744 215.383 294.8 214C293.797 212.426 293.298 210.584 293.37 208.72C293.37 205.44 294.247 202.95 296 201.25C297.75 199.55 300.24 198.69 303.47 198.69C306.7 198.69 309.1 199.52 310.74 201.17C312.38 202.82 313.2 205.17 313.2 208.34C313.2 209.23 312.79 209.68 311.98 209.68H298C297.962 210.419 298.102 211.156 298.408 211.829C298.715 212.503 299.178 213.093 299.76 213.55C301.191 214.53 302.909 215.005 304.64 214.9C306.532 214.927 308.398 214.454 310.05 213.53C310.176 213.445 310.32 213.391 310.47 213.37C310.65 213.37 310.79 213.49 310.89 213.72L311.81 215.36C311.877 215.49 311.915 215.634 311.92 215.78C311.909 215.884 311.872 215.983 311.813 216.069C311.753 216.154 311.673 216.223 311.58 216.27C310.532 216.91 309.392 217.386 308.2 217.68C306.835 218.006 305.434 218.161 304.03 218.14C302.177 218.153 300.341 217.792 298.63 217.08ZM308.77 206.8C308.808 206.129 308.711 205.457 308.486 204.823C308.262 204.19 307.913 203.607 307.46 203.11C306.926 202.632 306.3 202.268 305.622 202.038C304.943 201.807 304.225 201.716 303.51 201.77C302.017 201.671 300.544 202.163 299.41 203.14C298.934 203.619 298.563 204.192 298.32 204.822C298.078 205.452 297.969 206.125 298 206.8H308.77Z" fill="white"/>
<path d="M316.17 216V215.19C316.17 214.13 316.92 213.59 318.42 213.59H319.42C320.92 213.59 321.67 214.13 321.67 215.19V216C321.67 217.04 320.92 217.56 319.42 217.56H318.42C316.92 217.533 316.17 217.013 316.17 216ZM316.99 210C316.773 209.695 316.67 209.323 316.7 208.95L316.48 193C316.446 192.616 316.56 192.233 316.8 191.93C316.949 191.803 317.123 191.707 317.31 191.648C317.497 191.59 317.695 191.57 317.89 191.59H320C320.195 191.57 320.392 191.59 320.58 191.648C320.767 191.707 320.941 191.803 321.09 191.93C321.329 192.233 321.444 192.616 321.41 193L321.15 208.94C321.18 209.313 321.077 209.685 320.86 209.99C320.581 210.223 320.222 210.338 319.86 210.31H317.99C317.812 210.336 317.631 210.321 317.46 210.268C317.288 210.214 317.131 210.123 317 210H316.99Z" fill="white"/>
<path d="M134.7 190.65C134.08 192.38 132.7 193.2 131.7 194.92C130.7 196.64 130.28 201.78 131.41 203.92C132.271 205.421 133.482 206.693 134.939 207.628C136.395 208.562 138.056 209.133 139.78 209.29C141.226 209.349 142.654 208.95 143.86 208.15C144.422 207.773 144.918 207.307 145.33 206.77C145.706 206.194 145.989 205.563 146.17 204.9C146.184 204.847 146.212 204.799 146.25 204.76C146.304 204.725 146.366 204.705 146.43 204.7C146.868 204.637 147.28 204.453 147.62 204.17C147.789 204.028 147.925 203.85 148.019 203.65C148.112 203.449 148.16 203.231 148.16 203.01C148.126 202.729 148.026 202.46 147.868 202.225C147.71 201.99 147.498 201.796 147.25 201.66C146.744 201.4 146.211 201.198 145.66 201.06C144.33 200.63 143.1 199.96 141.8 199.47C139.165 198.533 136.747 197.074 134.69 195.18L134.7 190.65Z" fill="#FFA8A7"/>
<path d="M346.66 192.21C347.28 193.96 348.66 194.79 349.66 196.54C350.66 198.29 351.1 203.54 349.96 205.67C349.086 207.195 347.857 208.487 346.377 209.435C344.897 210.384 343.211 210.962 341.46 211.12C340.069 211.217 338.685 210.859 337.515 210.102C336.344 209.345 335.451 208.228 334.97 206.92C334.06 203.77 335.63 202.58 339.41 201.15C342.086 200.203 344.542 198.723 346.63 196.8L346.66 192.21Z" fill="#B16668"/>
<path d="M254 177.67C259.6 178.58 261.21 181.89 261.21 181.89H256.63C256.63 181.89 256.05 183.43 257.63 189.2C258.17 191.2 255.18 191.28 255.09 190.52C254.55 191.76 250.61 193.52 247.67 191.52C244.97 189.73 243.77 186.99 244.37 181.86C245.36 176.15 253 177.51 254 177.67Z" fill="#B16668"/>
</svg>
