<svg width="500" height="500" viewBox="0 0 500 500" fill="none" xmlns="http://www.w3.org/2000/svg">
<path d="M183.69 390C186.03 390 188.42 390 190.86 390C196.94 389.88 202.55 389.49 207.79 388.89V274.67H183.69V390Z" fill="#6C63FF"/>
<path d="M228.27 385C236.616 382.757 244.694 379.612 252.36 375.62V274.62H228.27V385Z" fill="#6C63FF"/>
<path d="M272.84 363.22C280.84 358.05 288.22 353.55 296.94 351.3V274.67H272.84V363.22Z" fill="#6C63FF"/>
<path d="M317.42 350.23C326.04 351.23 333.9 353.52 341.52 355.99V274.67H317.42V350.23Z" fill="#6C63FF"/>
<path d="M69.5003 311.08C70.9003 314.913 72.417 318.66 74.0503 322.32V274.67H61.3203C62.538 287.097 65.2855 299.326 69.5003 311.08Z" fill="#6C63FF"/>
<path d="M94.5303 354.79C101.456 362.575 109.594 369.19 118.63 374.38V274.67H94.5303V354.79Z" fill="#6C63FF"/>
<path d="M139.11 383.35C146.967 385.831 155.034 387.588 163.21 388.6V274.67H139.11V383.35Z" fill="#6C63FF"/>
<path d="M362 362.17C369.879 364.139 378.069 364.533 386.1 363.33V274.67H362V362.17Z" fill="#6C63FF"/>
<path d="M420.52 140.63C413.749 126.988 405.402 114.188 395.65 102.49C354.7 53.9999 272 69.1199 240.16 94.1499C208.32 119.18 206.79 154.07 179.48 163.15C152.17 172.23 130.94 154.81 94.5296 176.81C69.8896 191.7 59.5296 227.09 60.5296 262.52H443.89C444.08 259.63 444.24 256.8 444.35 254.06C446.206 214.837 438.003 175.79 420.52 140.63ZM96.5896 214.32L91.9996 211.91L87.4096 214.32L88.2896 209.21L84.5696 205.59L89.6996 204.84L91.9996 200.19L94.2996 204.84L99.4296 205.59L95.7096 209.21L96.5896 214.32ZM201.38 224.41L194.76 233L192 222.5L181.83 218.85L190.92 212.99L191.25 202.19L199.62 209.02L210 206L206.09 216.08L212.17 225.01L201.38 224.41ZM252.58 157.72L251.72 163.96L247.29 159.48L241.09 160.58L244 155L241 149.44L247.22 150.44L251.59 145.9L252.59 152.12L258.25 154.88L252.58 157.72ZM276 253.91L271 251.27L266 253.91L267 248.32L262.93 244.32L268.55 243.5L271.06 238.42L273.57 243.5L279.19 244.32L275.12 248.32L276 253.91ZM345.63 89.6199L343 88.2399L340.37 89.6199L340.87 86.6899L338.75 84.6199L341.69 84.1899L343 81.5299L344.31 84.1899L347.25 84.6199L345.13 86.6899L345.63 89.6199ZM423.63 228.15L417 224.66L410.35 228.15L411.62 220.75L406.24 215.5L413.67 214.42L417 207.69L420.33 214.42L427.76 215.5L422.38 220.75L423.63 228.15Z" fill="#6C63FF"/>
<path d="M406.58 356.24C407.73 355.64 408.89 355 410.07 354.31C419.02 349.1 425.7 339.73 430.68 328.22V274.67H406.58V356.24Z" fill="#6C63FF"/>
<path d="M183.69 390C186.03 390 188.42 390 190.86 390C196.94 389.88 202.55 389.49 207.79 388.89V274.67H183.69V390Z" fill="white"/>
<path d="M228.27 385C236.616 382.757 244.694 379.612 252.36 375.62V274.62H228.27V385Z" fill="white"/>
<path d="M272.84 363.22C280.84 358.05 288.22 353.55 296.94 351.3V274.67H272.84V363.22Z" fill="white"/>
<path d="M317.42 350.23C326.04 351.23 333.9 353.52 341.52 355.99V274.67H317.42V350.23Z" fill="white"/>
<path d="M69.5003 311.08C70.9003 314.913 72.417 318.66 74.0503 322.32V274.67H61.3203C62.538 287.097 65.2855 299.326 69.5003 311.08Z" fill="white"/>
<path d="M94.5303 354.79C101.456 362.575 109.594 369.19 118.63 374.38V274.67H94.5303V354.79Z" fill="white"/>
<path d="M139.11 383.35C146.967 385.831 155.034 387.588 163.21 388.6V274.67H139.11V383.35Z" fill="white"/>
<path d="M362 362.17C369.879 364.139 378.069 364.533 386.1 363.33V274.67H362V362.17Z" fill="white"/>
<path d="M420.52 140.63C413.749 126.988 405.402 114.188 395.65 102.49C354.7 53.9999 272 69.1199 240.16 94.1499C208.32 119.18 206.79 154.07 179.48 163.15C152.17 172.23 130.94 154.81 94.5296 176.81C69.8896 191.7 59.5296 227.09 60.5296 262.52H443.89C444.08 259.63 444.24 256.8 444.35 254.06C446.206 214.837 438.003 175.79 420.52 140.63ZM96.5896 214.32L91.9996 211.91L87.4096 214.32L88.2896 209.21L84.5696 205.59L89.6996 204.84L91.9996 200.19L94.2996 204.84L99.4296 205.59L95.7096 209.21L96.5896 214.32ZM201.38 224.41L194.76 233L192 222.5L181.83 218.85L190.92 212.99L191.25 202.19L199.62 209.02L210 206L206.09 216.08L212.17 225.01L201.38 224.41ZM252.58 157.72L251.72 163.96L247.29 159.48L241.09 160.58L244 155L241 149.44L247.22 150.44L251.59 145.9L252.59 152.12L258.25 154.88L252.58 157.72ZM276 253.91L271 251.27L266 253.91L267 248.32L262.93 244.32L268.55 243.5L271.06 238.42L273.57 243.5L279.19 244.32L275.12 248.32L276 253.91ZM345.63 89.6199L343 88.2399L340.37 89.6199L340.87 86.6899L338.75 84.6199L341.69 84.1899L343 81.5299L344.31 84.1899L347.25 84.6199L345.13 86.6899L345.63 89.6199ZM423.63 228.15L417 224.66L410.35 228.15L411.62 220.75L406.24 215.5L413.67 214.42L417 207.69L420.33 214.42L427.76 215.5L422.38 220.75L423.63 228.15Z" fill="white"/>
<path d="M406.58 356.24C407.73 355.64 408.89 355 410.07 354.31C419.02 349.1 425.7 339.73 430.68 328.22V274.67H406.58V356.24Z" fill="white"/>
<path d="M335.35 428.64C365.721 428.64 390.34 424.906 390.34 420.3C390.34 415.694 365.721 411.96 335.35 411.96C304.98 411.96 280.36 415.694 280.36 420.3C280.36 424.906 304.98 428.64 335.35 428.64Z" fill="#6C63FF"/>
<path opacity="0.5" d="M335.35 428.64C365.721 428.64 390.34 424.906 390.34 420.3C390.34 415.694 365.721 411.96 335.35 411.96C304.98 411.96 280.36 415.694 280.36 420.3C280.36 424.906 304.98 428.64 335.35 428.64Z" fill="white"/>
<path d="M167.73 416.51C190.561 416.51 209.07 412.776 209.07 408.17C209.07 403.564 190.561 399.83 167.73 399.83C144.898 399.83 126.39 403.564 126.39 408.17C126.39 412.776 144.898 416.51 167.73 416.51Z" fill="#6C63FF"/>
<path opacity="0.5" d="M167.73 416.51C190.561 416.51 209.07 412.776 209.07 408.17C209.07 403.564 190.561 399.83 167.73 399.83C144.898 399.83 126.39 403.564 126.39 408.17C126.39 412.776 144.898 416.51 167.73 416.51Z" fill="white"/>
<path d="M147.63 386.51L168.68 377.75C167.21 375.34 165.74 376.48 163.86 372.58C162.86 370.58 163.74 367.36 162.48 364.78C161.48 362.67 158.37 361.33 157.17 358.91C156.08 356.73 156.87 353.48 155.69 351.13C154.51 348.78 151.48 347.62 150.3 345.33C149.12 343.04 149.89 339.82 148.7 337.57C147.51 335.32 144.4 334.08 143.21 331.86C142.02 329.64 142.65 326.31 141.43 324.14C140.21 321.97 137 320.71 135.77 318.62C134.39 316.28 134.9 312.97 133.63 310.98C132.08 308.56 128.85 307.68 127.54 305.98C125.08 302.78 123.76 299.26 122.54 299.5C121.32 299.74 122.38 303.28 123.05 307.5C123.39 309.6 121.81 312.5 122.51 315.31C123.07 317.57 125.83 319.45 126.59 322.03C127.26 324.34 125.92 327.39 126.71 329.88C127.5 332.37 130.28 333.96 131.09 336.39C131.9 338.82 130.63 341.85 131.45 344.24C132.27 346.63 135.15 348.3 135.98 350.65C136.81 353 135.64 356.17 136.48 358.49C137.32 360.81 140.27 362.57 141.1 364.84C142.03 367.35 140.88 370.47 141.7 372.66C142.7 375.32 145.63 376.94 146.4 378.95C148.07 383.34 145.72 383.26 147.1 386.78L147.63 386.51Z" fill="#2E353A"/>
<path d="M124.96 306.59L156.26 381.78" stroke="white" stroke-width="0.360849" stroke-miterlimit="10"/>
<path d="M131.53 313.11L129.33 317.49L124.97 314.92" stroke="white" stroke-width="0.360849" stroke-miterlimit="10"/>
<path d="M136.97 326.19L134.78 330.58L130.42 328.01" stroke="white" stroke-width="0.360849" stroke-miterlimit="10"/>
<path d="M142.1 338.5L139.91 342.89L135.54 340.32" stroke="white" stroke-width="0.360849" stroke-miterlimit="10"/>
<path d="M148.2 353.14L146 357.53L141.64 354.96" stroke="white" stroke-width="0.360849" stroke-miterlimit="10"/>
<path d="M154.36 367.94L152.17 372.33L147.81 369.76" stroke="white" stroke-width="0.360849" stroke-miterlimit="10"/>
<path d="M145.25 380.7L179.59 379.61C178.8 375.43 176.13 376.25 175.59 369.76C175.31 366.48 178.21 362.33 177.81 358.03C177.48 354.49 173.87 350.97 173.47 346.92C173.11 343.27 175.96 339.11 175.55 335.17C175.15 331.45 171.49 327.98 171.06 324.12C170.63 320.26 173.42 316.12 172.96 312.33C172.5 308.54 168.77 305.12 168.27 301.33C167.77 297.54 170.45 293.21 169.89 289.51C169.31 285.59 165.49 282.3 164.89 278.69C164.2 274.69 166.69 270.27 165.96 266.81C165.07 262.56 160.96 259.59 160.06 256.47C158.32 250.65 158.33 244.98 156.48 244.67C154.63 244.36 154.23 249.9 152.94 256.15C152.29 259.29 148.5 262.57 148 266.87C147.59 270.35 150.47 274.47 150.15 278.5C149.86 282.12 146.35 285.7 146.15 289.62C145.94 293.32 149.01 297.29 148.84 301.15C148.67 305.01 145.28 308.58 145.16 312.39C145.04 316.2 148.16 320.08 148.11 323.84C148.06 327.6 144.68 331.44 144.62 335.15C144.56 339.07 147.78 342.92 147.74 346.56C147.74 350.56 144.42 354.38 144.41 357.91C144.41 362.18 147.65 366.02 147.66 369.28C147.66 376.34 144.4 374.98 144.46 380.67L145.25 380.7Z" fill="#2E353A"/>
<path d="M156.04 256.01L159.95 378.65" stroke="white" stroke-width="0.543628" stroke-miterlimit="10"/>
<path d="M161.81 268.7L156.37 273.7L151.6 267.75" stroke="white" stroke-width="0.543628" stroke-miterlimit="10"/>
<path d="M162.49 290.04L157.05 295.05L152.28 289.1" stroke="white" stroke-width="0.543628" stroke-miterlimit="10"/>
<path d="M163.13 310.12L157.69 315.12L152.92 309.17" stroke="white" stroke-width="0.543628" stroke-miterlimit="10"/>
<path d="M163.89 334L158.45 339.01L153.69 333.06" stroke="white" stroke-width="0.543628" stroke-miterlimit="10"/>
<path d="M164.66 358.14L159.22 363.15L154.45 357.2" stroke="white" stroke-width="0.543628" stroke-miterlimit="10"/>
<path d="M165.93 303.56C167.69 304.77 172.43 305.56 172.44 305.56C172.45 305.56 172.02 302.28 171.97 302.07C171.35 299.7 168.77 295.49 166.04 295.34C165.585 295.326 165.132 295.408 164.711 295.58C164.29 295.753 163.91 296.012 163.596 296.342C163.282 296.671 163.041 297.063 162.888 297.491C162.735 297.92 162.675 298.376 162.71 298.83C162.79 300.78 164.42 302.52 165.93 303.56Z" fill="#2E353A"/>
<path d="M213.46 313.85C213.46 313.85 214.93 310.85 215 310.68C215.79 308.37 216 303.43 213.77 301.79C213.398 301.528 212.975 301.347 212.529 301.26C212.083 301.172 211.623 301.18 211.179 301.282C210.736 301.383 210.319 301.577 209.956 301.851C209.592 302.125 209.291 302.472 209.07 302.87C208.07 304.53 208.47 306.87 209.15 308.57C210 310.56 213.46 313.85 213.46 313.85Z" fill="#2E353A"/>
<path d="M230.87 299.48C228.25 298.68 224.36 301.72 222.96 303.73C222.84 303.9 221.25 306.83 221.3 306.84H221.36C220.74 307.31 220.09 307.84 219.36 308.41C218.07 309.49 216.61 310.73 215.12 312.18C213.497 313.724 211.964 315.36 210.53 317.08C208.918 319.003 207.479 321.064 206.23 323.24V323.32C206.4 322.54 206.79 320.32 206.8 320.16C206.95 317.72 205.8 312.91 203.26 311.91C202.831 311.754 202.374 311.69 201.918 311.723C201.463 311.756 201.019 311.884 200.617 312.101C200.215 312.317 199.863 312.616 199.584 312.978C199.305 313.339 199.106 313.756 199 314.2C198.48 316.06 199.49 318.2 200.59 319.67C201.84 321.31 205.77 323.43 206.09 323.6C204.873 325.861 203.808 328.199 202.9 330.6C202.37 331.99 201.9 333.4 201.39 334.83C201.51 334.15 201.62 333.53 201.62 333.45C201.77 331.01 200.62 326.2 198.09 325.2C197.662 325.045 197.207 324.983 196.753 325.016C196.299 325.049 195.857 325.177 195.456 325.392C195.055 325.607 194.704 325.904 194.426 326.264C194.147 326.624 193.948 327.038 193.84 327.48C193.31 329.34 194.32 331.48 195.42 332.95C196.52 334.42 199.86 336.3 200.75 336.78L200.21 338.43C199.36 341.06 198.53 343.7 197.64 346.26C197.32 347.16 196.98 348.04 196.64 348.91C196.74 348.31 196.83 347.79 196.84 347.72C196.99 345.27 195.84 340.47 193.3 339.47C192.872 339.314 192.416 339.25 191.962 339.282C191.508 339.314 191.065 339.442 190.664 339.658C190.263 339.873 189.911 340.171 189.633 340.531C189.355 340.892 189.156 341.307 189.05 341.75C188.53 343.61 189.53 345.75 190.64 347.22C191.75 348.69 194.76 350.39 195.8 350.97C195.43 351.85 195.05 352.75 194.65 353.59C194.36 354.16 194.12 354.73 193.8 355.29C193.48 355.85 193.19 356.4 192.89 356.94C192.27 357.94 191.63 359.04 191 360.04C190.57 360.73 190.15 361.38 189.72 362.04C190.04 361.14 190.64 359.38 190.72 359.23C191.097 357.112 190.925 354.933 190.22 352.9C190.278 352.664 190.311 352.423 190.32 352.18C190.35 351.726 190.284 351.271 190.126 350.844C189.968 350.418 189.723 350.029 189.405 349.703C189.087 349.378 188.704 349.123 188.281 348.955C187.858 348.788 187.405 348.711 186.95 348.73C184.22 348.92 181.68 353.16 181.1 355.53C181.1 355.67 180.86 357.23 180.74 358.22C180.74 357.63 180.74 357.06 180.68 356.45C180.68 355.25 180.54 354.05 180.46 352.76C180.39 352.14 180.33 351.51 180.26 350.88C180.19 350.25 180.08 349.59 179.99 348.94C179.75 347.43 179.43 345.94 179.07 344.4C180.13 344.4 183.86 344.14 185.5 343.32C187.14 342.5 188.99 341.01 189.35 339.11C189.448 338.666 189.452 338.206 189.36 337.76C189.269 337.314 189.085 336.893 188.82 336.523C188.555 336.153 188.215 335.844 187.822 335.614C187.429 335.384 186.992 335.24 186.54 335.19C183.81 334.96 180.67 338.77 179.73 341.02C179.67 341.17 179.18 342.86 178.92 343.8C178.7 342.89 178.49 341.98 178.24 341.06C177.51 338.43 176.69 335.78 175.88 333.13L175.16 330.7C175.53 330.7 179.98 330.53 181.82 329.61C183.45 328.8 185.31 327.3 185.66 325.4C185.76 324.957 185.765 324.497 185.675 324.051C185.585 323.605 185.402 323.184 185.137 322.814C184.873 322.444 184.533 322.134 184.141 321.904C183.749 321.674 183.312 321.53 182.86 321.48C180.13 321.25 176.98 325.06 176.04 327.32C175.97 327.49 175.26 329.93 175.11 330.56C174.59 328.77 174.11 326.99 173.65 325.21C173.053 322.812 172.616 320.376 172.34 317.92C172.51 317.92 177.15 317.77 179.04 316.83C180.67 316.02 182.53 314.52 182.88 312.62C182.98 312.177 182.985 311.717 182.895 311.271C182.805 310.825 182.622 310.404 182.357 310.034C182.093 309.664 181.753 309.354 181.361 309.124C180.969 308.894 180.532 308.75 180.08 308.7C177.35 308.47 174.2 312.28 173.26 314.53C173.2 314.68 172.66 316.53 172.42 317.43H172.27C172.05 314.952 172.05 312.459 172.27 309.98C172.38 308.62 172.56 307.32 172.76 306.06C173.63 306.12 177.6 306.36 179.39 305.7C181.18 305.04 183.11 303.79 183.67 301.94C183.817 301.509 183.872 301.052 183.831 300.599C183.79 300.145 183.653 299.705 183.43 299.308C183.208 298.911 182.904 298.565 182.538 298.293C182.173 298.021 181.755 297.829 181.31 297.73C178.62 297.2 175.08 300.64 173.9 302.78C173.83 302.9 173.31 304.15 172.9 305.07C173 304.51 173.09 303.92 173.2 303.38C173.6 301.38 174.09 299.51 174.54 297.89C174.8 296.97 175.05 296.14 175.3 295.37C176.18 294.98 179.72 293.37 180.98 292.01C182.24 290.65 183.4 288.6 183.05 286.69C182.98 286.244 182.818 285.818 182.575 285.439C182.331 285.059 182.01 284.735 181.634 284.486C181.257 284.238 180.833 284.07 180.388 283.995C179.943 283.92 179.487 283.939 179.05 284.05C176.43 284.82 174.87 289.5 174.8 291.95C174.8 292.16 175.09 295.47 175.14 295.45C174.89 296.19 174.62 296.98 174.36 297.86C173.87 299.47 173.36 301.3 172.9 303.34C172.396 305.523 172.022 307.733 171.78 309.96C171.489 312.453 171.425 314.966 171.59 317.47C171.585 317.5 171.585 317.53 171.59 317.56C171.29 316.82 170.4 314.76 170.31 314.61C169.1 312.49 165.49 309.1 162.82 309.67C162.378 309.778 161.963 309.978 161.603 310.256C161.243 310.534 160.946 310.885 160.73 311.286C160.514 311.687 160.385 312.128 160.35 312.582C160.316 313.036 160.377 313.492 160.53 313.92C161.12 315.76 163.15 317.01 164.87 317.61C166.82 318.29 171.27 317.89 171.62 317.85C171.844 320.398 172.242 322.927 172.81 325.42C173.12 326.87 173.49 328.33 173.88 329.78C173.6 329.14 173.35 328.58 173.31 328.5C172.09 326.38 168.49 323 165.81 323.57C165.367 323.677 164.952 323.875 164.591 324.153C164.23 324.431 163.931 324.782 163.715 325.184C163.499 325.585 163.37 326.027 163.337 326.481C163.303 326.935 163.365 327.392 163.52 327.82C164.11 329.66 166.14 330.9 167.87 331.51C169.6 332.12 173.42 331.85 174.42 331.77C174.58 332.32 174.72 332.88 174.88 333.43C175.63 336.1 176.39 338.76 177.05 341.38C177.29 342.31 177.48 343.23 177.68 344.15C177.44 343.59 177.23 343.15 177.19 343.04C175.97 340.92 172.37 337.54 169.69 338.11C169.248 338.218 168.833 338.418 168.473 338.696C168.113 338.974 167.816 339.325 167.6 339.726C167.384 340.127 167.255 340.568 167.22 341.022C167.186 341.476 167.247 341.932 167.4 342.36C167.99 344.2 170.02 345.45 171.75 346.05C173.48 346.65 176.93 346.42 178.12 346.32C178.3 347.27 178.48 348.22 178.6 349.15C178.68 349.78 178.79 350.39 178.83 351.03C178.87 351.67 178.93 352.29 178.98 352.92C179.04 354.12 179.1 355.36 179.12 356.53C179.12 357.35 179.12 358.13 179.12 358.91C178.9 357.99 178.43 356.19 178.37 356.04C177.49 353.76 174.44 349.87 171.71 350.04C171.257 350.08 170.817 350.214 170.419 350.434C170.021 350.654 169.673 350.955 169.399 351.318C169.125 351.681 168.93 352.098 168.827 352.541C168.723 352.984 168.714 353.443 168.8 353.89C169.11 355.8 170.92 357.34 172.54 358.2C174.31 359.14 178.6 359.43 179.13 359.46C179.13 360.76 179.13 362.02 179.13 363.21C179.07 366.95 178.89 370.11 178.72 372.45L180.53 372.81C180.65 370.41 180.77 367.12 180.76 363.22C180.76 361.9 180.76 360.5 180.68 359.05C182.032 358.798 183.368 358.465 184.68 358.05C185.77 359.81 188.96 362.24 189.37 362.55C188.66 363.64 187.96 364.69 187.29 365.67C185.19 368.72 183.29 371.23 181.88 373.09L183.88 373.47C185.21 371.65 186.88 369.32 188.65 366.57C189.38 365.47 190.13 364.28 190.89 363.05C191.38 363.25 195.35 364.9 197.36 364.84C199.19 364.78 201.5 364.2 202.62 362.62C202.895 362.259 203.09 361.844 203.194 361.402C203.298 360.96 203.308 360.501 203.223 360.055C203.138 359.609 202.96 359.186 202.701 358.813C202.443 358.44 202.108 358.126 201.72 357.89C199.33 356.54 194.88 358.68 193.08 360.33C192.97 360.43 191.94 361.62 191.3 362.33C191.61 361.82 191.91 361.33 192.22 360.81C192.85 359.81 193.44 358.74 194.08 357.62L194.95 355.94C195.26 355.39 195.51 354.76 195.79 354.17C196.42 352.78 196.99 351.34 197.53 349.88C198.44 350.43 201.67 352.31 203.53 352.53C205.39 352.75 207.72 352.53 209.06 351.14C209.388 350.825 209.645 350.444 209.816 350.022C209.987 349.6 210.067 349.147 210.051 348.692C210.034 348.238 209.923 347.791 209.723 347.383C209.523 346.974 209.239 346.612 208.89 346.32C206.74 344.62 202.01 346.06 199.98 347.43C199.86 347.51 198.51 348.65 197.78 349.29C198.1 348.41 198.42 347.54 198.72 346.63C199.56 344.03 200.34 341.37 201.13 338.72C201.37 337.91 201.62 337.1 201.87 336.3C202.19 336.49 205.98 338.81 208.02 339.06C209.84 339.28 212.21 339.06 213.55 337.67C213.878 337.355 214.135 336.974 214.306 336.552C214.477 336.13 214.557 335.677 214.541 335.222C214.524 334.768 214.413 334.321 214.213 333.913C214.013 333.504 213.729 333.142 213.38 332.85C211.23 331.15 206.5 332.59 204.47 333.96C204.32 334.06 202.38 335.71 201.91 336.15C202.45 334.37 203.01 332.6 203.64 330.88C204.465 328.553 205.44 326.281 206.56 324.08C206.71 324.17 210.66 326.61 212.75 326.86C214.57 327.09 216.94 326.86 218.28 325.47C218.608 325.155 218.865 324.774 219.036 324.352C219.207 323.93 219.287 323.477 219.271 323.022C219.254 322.568 219.143 322.121 218.943 321.713C218.743 321.304 218.459 320.942 218.11 320.65C215.96 318.96 211.23 320.4 209.2 321.76C209.07 321.85 207.59 323.1 206.9 323.76L206.78 323.66C207.97 321.475 209.352 319.4 210.91 317.46C211.75 316.39 212.62 315.4 213.48 314.46C214.17 314.98 217.35 317.37 219.21 317.81C221.07 318.25 223.37 318.26 224.86 317.03C225.22 316.752 225.517 316.401 225.732 316C225.947 315.599 226.075 315.157 226.108 314.703C226.141 314.25 226.078 313.794 225.924 313.366C225.769 312.938 225.526 312.548 225.21 312.22C223.26 310.3 218.41 311.22 216.21 312.34C216.09 312.41 214.96 313.16 214.15 313.73C214.54 313.31 214.94 312.87 215.33 312.48C216.79 311.01 218.21 309.74 219.48 308.64C220.2 308.01 220.87 307.46 221.48 306.96C222.43 307.12 226.26 307.74 228.07 307.29C229.88 306.84 231.98 305.78 232.73 304C232.936 303.586 233.051 303.132 233.067 302.67C233.083 302.207 233 301.747 232.824 301.319C232.648 300.891 232.383 300.505 232.046 300.188C231.709 299.871 231.308 299.63 230.87 299.48Z" fill="#2E353A"/>
<path d="M206.13 372.04H131.7V381.89H206.13V372.04Z" fill="#2E353A"/>
<path d="M194.43 410.21H143.39L137.01 380.8H200.81L194.43 410.21Z" fill="#2E353A"/>
<path d="M132.33 223L131.58 293.94C131.58 293.94 128.58 295.45 120.26 295.45C111.94 295.45 108.94 293.94 108.94 293.94L111.94 265.26C111.94 265.26 101.39 263 101.39 260C101.39 257 124.78 174 124.78 174C124.78 174 136.86 195.07 132.33 223Z" fill="#6C63FF" stroke="#2E353A" stroke-miterlimit="10"/>
<path d="M111.95 265.25L121.73 220.05" stroke="#2E353A" stroke-miterlimit="10"/>
<path d="M115.73 173.94C115.73 173.94 129.31 192.05 130.82 199.6C132.33 207.15 132.33 223 132.33 223C136.759 211.891 139.555 200.2 140.63 188.29C142.14 169.42 127.05 159.61 127.05 159.61L115.73 173.94Z" fill="#2E353A" stroke="#2E353A" stroke-miterlimit="10"/>
<path d="M370.92 223L371.67 293.94C371.67 293.94 374.67 295.45 382.99 295.45C391.31 295.45 394.31 293.94 394.31 293.94L391.31 265.26C391.31 265.26 401.86 263 401.86 260C401.86 257 378.46 174 378.46 174C378.46 174 366.39 195.07 370.92 223Z" fill="#6C63FF" stroke="#2E353A" stroke-miterlimit="10"/>
<path d="M391.29 265.25L382.22 212.69" stroke="#2E353A" stroke-miterlimit="10"/>
<path d="M387.52 173.94C387.52 173.94 373.93 192.05 372.42 199.6C370.91 207.15 370.92 222.99 370.92 222.99C366.486 211.883 363.686 200.191 362.61 188.28C361.1 169.41 376.2 159.6 376.2 159.6L387.52 173.94Z" fill="#2E353A" stroke="#2E353A" stroke-miterlimit="10"/>
<path d="M387.41 173.94C346.274 149.612 299.361 136.778 251.57 136.778C203.779 136.778 156.865 149.612 115.73 173.94L91.9098 133.66C90.1998 130.8 91.8098 126.66 95.5598 124.6C143.234 97.9485 196.942 83.9556 251.56 83.9556C306.178 83.9556 359.885 97.9485 407.56 124.6C411.3 126.69 412.92 130.8 411.21 133.66L387.41 173.94Z" fill="#6C63FF"/>
<path d="M387.41 173.94C346.274 149.612 299.361 136.778 251.57 136.778C203.779 136.778 156.865 149.612 115.73 173.94L91.9098 133.66C90.1998 130.8 91.8098 126.66 95.5598 124.6C143.234 97.9485 196.942 83.9556 251.56 83.9556C306.178 83.9556 359.885 97.9485 407.56 124.6C411.3 126.69 412.92 130.8 411.21 133.66L387.41 173.94Z" stroke="#2E353A" stroke-miterlimit="10"/>
<path d="M152.665 143.847C151.913 144.087 151.243 144.102 150.655 143.892C150.094 143.673 149.549 143.218 149.021 142.529L132.398 120.656C131.807 119.864 131.622 119.095 131.843 118.349C132.092 117.594 132.732 117.052 133.761 116.723C134.512 116.482 135.155 116.476 135.688 116.704C136.212 116.904 136.72 117.339 137.211 118.011L151.862 137.891L150.192 138.426L150.914 113.668C150.951 112.827 151.121 112.159 151.422 111.664C151.724 111.169 152.208 110.814 152.876 110.6C153.544 110.386 154.131 110.398 154.636 110.635C155.141 110.872 155.658 111.335 156.186 112.025L170.893 131.796L169.433 132.263L169.932 107.53C169.951 106.727 170.111 106.077 170.412 105.582C170.714 105.086 171.226 104.723 171.95 104.491C172.84 104.206 173.592 104.302 174.205 104.781C174.819 105.259 175.115 105.993 175.094 106.981L174.202 134.509C174.164 135.35 173.98 136.022 173.651 136.526C173.322 137.031 172.781 137.403 172.03 137.644C171.279 137.884 170.623 137.895 170.062 137.676C169.501 137.457 168.956 137.002 168.429 136.312L154.536 117.937L155.496 117.63L154.794 140.725C154.757 141.566 154.573 142.238 154.244 142.743C153.942 143.238 153.416 143.606 152.665 143.847Z" fill="#2E353A"/>
<path d="M189.274 132.761C188.329 132.963 187.547 132.876 186.927 132.5C186.33 132.089 185.93 131.411 185.728 130.466L180.491 106.029C180.289 105.084 180.379 104.316 180.761 103.725C181.166 103.099 181.841 102.685 182.786 102.482L198.118 99.1967C198.834 99.0433 199.418 99.1129 199.87 99.4053C200.35 99.6916 200.664 100.178 200.812 100.866C200.965 101.581 200.884 102.183 200.569 102.669C200.277 103.121 199.773 103.424 199.057 103.577L186.087 106.357L187.872 114.689L199.897 112.112C200.642 111.952 201.24 112.019 201.692 112.311C202.144 112.604 202.447 113.108 202.6 113.824C202.753 114.539 202.684 115.123 202.391 115.575C202.099 116.027 201.581 116.333 200.836 116.493L188.811 119.069L190.697 127.874L203.668 125.094C204.383 124.941 204.967 125.011 205.419 125.303C205.9 125.589 206.217 126.09 206.37 126.806C206.524 127.522 206.44 128.109 206.119 128.567C205.826 129.019 205.322 129.322 204.606 129.475L189.274 132.761Z" fill="#2E353A"/>
<path d="M214.782 127.94C213.885 128.058 213.159 127.903 212.603 127.476C212.043 127.02 211.704 126.343 211.586 125.447L208.299 100.413C208.177 99.4874 208.317 98.7628 208.719 98.2392C209.146 97.683 209.808 97.346 210.705 97.2282C211.602 97.1105 212.314 97.2671 212.841 97.698C213.394 98.0962 213.731 98.7581 213.852 99.6837L216.894 122.852L229.476 121.2C230.257 121.097 230.877 121.222 231.335 121.574C231.822 121.922 232.115 122.472 232.214 123.224C232.312 123.976 232.173 124.597 231.796 125.088C231.445 125.546 230.878 125.826 230.097 125.929L214.782 127.94Z" fill="#2E353A"/>
<path d="M250.859 125.028C247.648 125.143 244.866 124.6 242.513 123.398C240.188 122.165 238.371 120.388 237.06 118.067C235.748 115.717 235.034 112.921 234.918 109.68C234.831 107.257 235.104 105.069 235.735 103.117C236.366 101.136 237.314 99.4355 238.579 98.0162C239.842 96.5676 241.41 95.4444 243.282 94.6466C245.182 93.8185 247.329 93.3615 249.723 93.2758C251.329 93.2184 252.913 93.3663 254.475 93.7197C256.037 94.0731 257.416 94.6084 258.611 95.3258C259.237 95.6834 259.663 96.1359 259.887 96.6834C260.11 97.2016 260.173 97.7256 260.075 98.2553C259.976 98.7559 259.743 99.1881 259.376 99.5521C259.038 99.915 258.593 100.136 258.04 100.214C257.516 100.262 256.925 100.093 256.268 99.7072C255.342 99.1556 254.349 98.7673 253.288 98.5421C252.228 98.317 251.157 98.2237 250.077 98.2624C248.004 98.3366 246.267 98.8227 244.867 99.7206C243.466 100.619 242.43 101.884 241.757 103.516C241.085 105.148 240.791 107.131 240.874 109.467C240.957 111.774 241.392 113.732 242.181 115.341C242.969 116.95 244.094 118.152 245.555 118.947C247.016 119.743 248.783 120.103 250.856 120.029C251.965 119.99 253.056 119.819 254.127 119.517C255.196 119.187 256.203 118.712 257.145 118.094C257.774 117.691 258.338 117.51 258.836 117.551C259.363 117.561 259.807 117.721 260.169 118.029C260.531 118.338 260.779 118.739 260.913 119.231C261.047 119.694 261.036 120.191 260.879 120.723C260.722 121.226 260.387 121.676 259.875 122.074C258.737 122.963 257.359 123.67 255.741 124.196C254.151 124.691 252.524 124.969 250.859 125.028Z" fill="#2E353A"/>
<path d="M279.354 125.777C276.374 125.508 273.818 124.616 271.687 123.098C269.585 121.584 268.026 119.588 267.012 117.111C266.001 114.605 265.64 111.745 265.929 108.531C266.147 106.106 266.694 103.961 267.569 102.096C268.446 100.202 269.589 98.6256 270.998 97.3681C272.439 96.0841 274.098 95.1584 275.975 94.591C277.884 93.997 279.964 93.8013 282.213 94.0037C285.223 94.2746 287.778 95.1673 289.88 96.6818C291.985 98.1672 293.545 100.148 294.559 102.625C295.573 105.102 295.935 107.948 295.646 111.161C295.428 113.586 294.88 115.746 294.003 117.64C293.125 119.535 291.966 121.124 290.525 122.408C289.113 123.695 287.453 124.635 285.544 125.229C283.667 125.797 281.603 125.979 279.354 125.777ZM279.788 120.956C281.687 121.127 283.333 120.833 284.727 120.075C286.15 119.319 287.286 118.141 288.138 116.538C289.018 114.939 289.562 112.985 289.77 110.677C290.085 107.171 289.541 104.383 288.137 102.312C286.762 100.245 284.643 99.0821 281.779 98.8244C279.91 98.6561 278.263 98.9498 276.84 99.7053C275.42 100.432 274.27 101.595 273.39 103.194C272.541 104.767 272.012 106.722 271.802 109.06C271.489 112.536 272.033 115.325 273.434 117.424C274.836 119.523 276.954 120.701 279.788 120.956Z" fill="#2E353A"/>
<path d="M301.722 128.561C300.927 128.369 300.371 127.994 300.055 127.437C299.739 126.88 299.677 126.203 299.869 125.408L306.053 99.806C306.252 98.9824 306.63 98.4125 307.188 98.0962C307.752 97.7516 308.431 97.6753 309.227 97.8674C309.937 98.0389 310.456 98.3147 310.785 98.6947C311.149 99.0532 311.423 99.6002 311.606 100.336L317.425 122.345L316.062 122.016L331.287 105.09C331.786 104.519 332.264 104.154 332.724 103.994C333.19 103.806 333.778 103.798 334.488 103.969C335.283 104.162 335.839 104.536 336.155 105.094C336.478 105.622 336.54 106.299 336.341 107.122L330.157 132.724C329.965 133.52 329.601 134.093 329.065 134.444C328.558 134.803 327.892 134.883 327.069 134.684C326.274 134.492 325.718 134.117 325.402 133.56C325.086 133.002 325.023 132.326 325.216 131.531L329.98 111.807L330.917 112.034L318.03 126.188C317.629 126.603 317.245 126.885 316.878 127.037C316.511 127.189 316.058 127.2 315.518 127.069C314.978 126.939 314.566 126.719 314.28 126.41C314.001 126.072 313.788 125.645 313.642 125.128L308.563 106.589L309.585 106.836L304.81 126.602C304.618 127.397 304.254 127.97 303.719 128.322C303.211 128.68 302.546 128.76 301.722 128.561Z" fill="#2E353A"/>
<path d="M342.563 139.377C341.664 139.029 341.059 138.529 340.747 137.876C340.474 137.206 340.511 136.422 340.859 135.523L349.861 112.268C350.209 111.369 350.704 110.777 351.346 110.493C352.027 110.193 352.816 110.216 353.716 110.564L368.306 116.212C368.987 116.476 369.436 116.853 369.653 117.344C369.898 117.846 369.893 118.424 369.64 119.078C369.377 119.759 368.98 120.217 368.451 120.45C367.96 120.668 367.374 120.644 366.692 120.381L354.35 115.603L351.281 123.532L362.724 127.961C363.433 128.235 363.896 128.618 364.113 129.11C364.33 129.601 364.306 130.187 364.043 130.868C363.779 131.549 363.402 131.999 362.91 132.216C362.419 132.433 361.819 132.404 361.111 132.13L349.667 127.701L346.424 136.079L358.767 140.856C359.448 141.12 359.897 141.497 360.114 141.989C360.359 142.491 360.349 143.082 360.085 143.763C359.822 144.444 359.431 144.888 358.912 145.095C358.421 145.312 357.834 145.289 357.153 145.025L342.563 139.377Z" fill="#2E353A"/>
<path d="M338.18 220.6C338.18 220.6 325.46 211.2 319.35 206.6C313.24 202 302.77 188.8 300.15 183C298.854 180.014 297.398 177.1 295.79 174.27C295.79 174.27 297 168.44 297 167C297 165.56 295.83 163.66 295.09 162.44C294.72 161.83 292.09 158.34 292.09 161C292.09 163.08 293.34 164.12 293.34 165.37C291.656 164.44 290.27 163.054 289.34 161.37C287.88 158.67 287.26 157.62 286.42 158.25C284.93 159.37 286.84 162.25 286.84 162.25C286.84 162.25 286.42 158.25 284.34 158.91C283.14 159.27 284.76 162.66 285.59 164.12C286.42 165.58 285.17 163.12 285.38 165.58C285.53 167.41 287.62 171.91 289.55 174.12C290.25 174.93 291.88 174.68 292.05 174.96C292.67 175.96 299.34 191.42 303.92 199.13C308.5 206.84 311.22 209.13 314.97 212.88C318.72 216.63 323.72 223.09 328.09 226.21C332.46 229.33 334.76 228.09 337.26 226C339.76 223.91 340.13 222.72 338.18 220.6Z" fill="white" stroke="#2E353A" stroke-linecap="round" stroke-linejoin="round"/>
<path d="M293.27 165.36C293.27 165.36 291.39 168.91 292.27 170.36" stroke="#2E353A" stroke-linecap="round" stroke-linejoin="round"/>
<path d="M286.81 162.24L288.48 165.36" stroke="#2E353A" stroke-linecap="round" stroke-linejoin="round"/>
<path d="M288.68 172.45C287.244 170.629 285.988 168.673 284.93 166.61C284.1 164.53 284.73 159.95 285.98 160.78C287.23 161.61 286.81 166.2 286.81 166.2L289.31 169.11" fill="white"/>
<path d="M288.68 172.45C287.244 170.629 285.988 168.673 284.93 166.61C284.1 164.53 284.73 159.95 285.98 160.78C287.23 161.61 286.81 166.2 286.81 166.2L289.31 169.11" stroke="#2E353A" stroke-linecap="round" stroke-linejoin="round"/>
<path d="M340.87 194.62C340.87 194.62 334.48 192.29 335.64 184.15C336.8 176.01 343.78 180.08 343.78 180.08C343.78 180.08 336.78 170.77 351.05 168.74C365.32 166.71 375.78 179.5 379.27 193.74C382.76 207.98 360.65 209.44 363.85 220.21C367.05 230.98 379.56 243.21 377.52 258.02C375.48 272.83 355.13 281.02 345.82 273.14C336.51 265.26 332.73 253.08 338 242C343.27 230.92 346.14 217.86 347.59 212C349.04 206.14 340.87 194.62 340.87 194.62Z" fill="#2E353A" stroke="#2E353A" stroke-linecap="round" stroke-linejoin="round"/>
<path d="M363.75 205.5C355 202 350.5 187.75 350.5 179.75C350.5 171.75 361.75 175.75 361.75 175.75C361.75 175.75 350.75 177.75 356.25 188.5C361.75 199.25 371.5 202.5 376.5 199.25" stroke="white" stroke-width="0.75" stroke-linecap="round" stroke-linejoin="round"/>
<path d="M362 213.25C362 213.25 354.25 215.75 356.5 225.5C358.75 235.25 376 247.5 371 260C366 272.5 357.25 277.5 346.75 273.75" stroke="white" stroke-width="0.75" stroke-linecap="round" stroke-linejoin="round"/>
<path d="M358.25 215.25C358.25 215.25 349.75 218.75 348.75 231.25C347.75 243.75 358 254.5 353.25 260.75C348.5 267 340.75 266.25 338.25 262.5" stroke="white" stroke-width="0.75" stroke-linecap="round" stroke-linejoin="round"/>
<path d="M338.84 208.29C338.84 208.29 339.71 211.49 336.84 216.44C333.97 221.39 332.48 222.54 332.48 222.54L342.95 221.67L349.64 209.45C349.64 209.45 339.42 210.33 338.84 208.29Z" fill="white" stroke="#2E353A" stroke-linecap="round" stroke-linejoin="round"/>
<path d="M349.31 181.24C349.31 181.24 339.13 190.55 337.09 198.69C335.05 206.83 337.67 212.07 341.46 212.07C345.25 212.07 353.09 208.87 353.09 208.87C353.09 208.87 355.42 210.87 357.74 209.75C358.404 209.429 358.97 208.936 359.38 208.322C359.789 207.709 360.028 206.997 360.07 206.26C360.07 206.26 344.07 190.55 349.31 181.24Z" fill="white" stroke="#2E353A" stroke-linecap="round" stroke-linejoin="round"/>
<path d="M345 195.21C344.3 196.1 343.46 196.6 343.11 196.33C342.76 196.06 343.04 195.12 343.74 194.23C344.44 193.34 345.28 192.84 345.62 193.11C345.96 193.38 345.69 194.32 345 195.21Z" fill="#2E353A"/>
<path d="M349.84 200.28C349.15 201.18 348.3 201.68 347.95 201.41C347.6 201.14 347.89 200.2 348.58 199.31C349.27 198.42 350.12 197.91 350.47 198.18C350.82 198.45 350.53 199.39 349.84 200.28Z" fill="#2E353A"/>
<path d="M344.54 197.11C343.353 197.529 342.21 198.064 341.13 198.71C340.22 199.39 341.81 200.3 341.81 200.3" stroke="#2E353A" stroke-width="0.75" stroke-linecap="round" stroke-linejoin="round"/>
<path d="M339.08 202.57C339.244 203.309 339.643 203.976 340.219 204.468C340.794 204.961 341.514 205.253 342.27 205.3C343.699 205.514 345.157 205.19 346.36 204.39" stroke="#2E353A" stroke-width="0.75" stroke-linecap="round" stroke-linejoin="round"/>
<path d="M344.77 189.38C345.493 189.267 346.231 189.443 346.826 189.869C347.421 190.296 347.825 190.939 347.95 191.66" stroke="#2E353A" stroke-width="0.75" stroke-linecap="round" stroke-linejoin="round"/>
<path d="M350 195.07C350 195.07 353.86 196.43 352.73 199.39" stroke="#2E353A" stroke-width="0.75" stroke-linecap="round" stroke-linejoin="round"/>
<path d="M311.84 407.19C311.84 407.19 306.46 410.78 304.66 411.67C302.86 412.56 295.25 413.91 295.02 415.93C294.79 417.95 298.83 419.07 303.32 419.07C307.81 419.07 313.18 419.07 315.87 419.52C318.56 419.97 320.36 420.86 321.48 417.95C322.6 415.04 320.8 407.41 320.8 407.41C320.8 407.41 316.1 409.21 311.84 407.19Z" fill="#6C63FF" stroke="#2E353A" stroke-linecap="round" stroke-linejoin="round"/>
<path d="M313.85 327.38C313.85 327.38 310.72 341.95 310.72 346.66C310.72 351.37 312.51 381.86 312.96 390.37C313.177 396.001 312.802 401.638 311.84 407.19C311.84 407.19 315.65 408.98 317.22 408.98C318.79 408.98 320.8 407.41 320.8 407.41C320.8 407.41 325.29 387.68 325.29 377.15C325.29 366.62 326.18 360.56 325.29 353.83C324.4 347.1 321.29 334.78 322.37 330.29C323.45 325.8 317.22 320.65 313.85 327.38Z" fill="#2E353A" stroke="#2E353A" stroke-linecap="round" stroke-linejoin="round"/>
<path d="M313.82 263C313.82 263 310 288.86 310 308.05C310 327.24 318.15 350.23 320.18 353.43C322.21 356.63 339.96 388.62 344.03 395.31C346.91 400.382 349.294 405.72 351.15 411.25C352.57 411.687 354.031 411.978 355.51 412.12C356.97 412.12 359 410.38 359 410.38C359 410.38 349.56 373.49 345.78 363.9C342 354.31 334.18 346.74 332.15 343C330.12 339.26 329.24 324.67 329.24 324.67C329.24 324.67 341.16 305.77 343.24 295.59C345.32 285.41 339.71 274 337.38 270C335.857 267.273 334.498 264.458 333.31 261.57C333.31 261.57 321.1 268.79 313.82 263Z" fill="#2E353A" stroke="#2E353A" stroke-linecap="round" stroke-linejoin="round"/>
<path d="M335.93 252.5C335.93 252.5 343.2 230.11 344.93 224.87C346.66 219.63 344.05 217.6 336.2 218.47C328.35 219.34 314.68 225.47 314.1 232.14C313.52 238.81 316.1 242.61 316.1 245.81C316.1 249.01 311.5 263 315 265.88C318.5 268.76 329.54 267.88 332.74 263.88C335.94 259.88 335.93 252.5 335.93 252.5Z" fill="#6C63FF" stroke="#2E353A" stroke-linecap="round" stroke-linejoin="round"/>
<path d="M338.18 220.6C338.602 224.259 337.701 227.948 335.64 231C332.15 236.52 324.3 234.49 324.88 228.38C325.46 222.27 332.86 217.2 338.18 220.6Z" fill="white" stroke="#2E353A" stroke-linecap="round" stroke-linejoin="round"/>
<path d="M333.22 229.26C334.166 229.109 335.067 228.749 335.856 228.206C336.645 227.662 337.303 226.95 337.782 226.12C338.261 225.291 338.549 224.365 338.625 223.41C338.701 222.455 338.562 221.495 338.22 220.6C338.003 219.983 337.628 219.434 337.131 219.009C336.634 218.584 336.033 218.298 335.39 218.18C330.39 217.31 308.63 219.05 303.1 218.47C297.57 217.89 276.64 205.09 271.1 200.15C265.56 195.21 263.54 192.59 263.54 190.55C263.54 188.51 262.08 183.86 260.92 182.41C259.76 180.96 257.72 178.04 257.72 178.04C257.72 178.04 255.72 178.04 255.98 179.21C256.454 180.516 257.036 181.781 257.72 182.99C257.72 182.99 251.9 179.5 250.45 177.99C250.304 177.789 250.118 177.62 249.904 177.496C249.689 177.371 249.451 177.292 249.204 177.265C248.958 177.237 248.708 177.262 248.471 177.337C248.234 177.412 248.016 177.535 247.83 177.7L251.03 181.19C251.03 181.19 250.74 183.52 253.03 187.3C254.762 189.882 256.927 192.145 259.43 193.99C259.43 193.99 271.06 207.66 279.79 215.22C288.52 222.78 296.65 227.44 303.93 228.6C310.35 229.68 320.37 231.61 333.22 229.26Z" fill="white" stroke="#2E353A" stroke-linecap="round" stroke-linejoin="round"/>
<path d="M351.19 411.25C351.19 411.25 346.59 416.16 343.45 418.17C340.31 420.18 336.27 421.54 336.95 423.33C337.63 425.12 345.95 424.9 349.95 424.67C353.95 424.44 362.05 420.67 363.4 419.74C364.75 418.81 359.04 410.38 359.04 410.38C359.04 410.38 354.67 412.84 351.19 411.25Z" fill="#6C63FF" stroke="#2E353A" stroke-linecap="round" stroke-linejoin="round"/>
<path d="M350 424.67C354 424.45 362.1 420.67 363.45 419.74C363.82 419.49 363.64 418.65 363.2 417.58C358.646 419.838 353.839 421.543 348.88 422.66C342.32 424.06 338.6 423.4 336.93 422.87C336.925 423.026 336.949 423.182 337 423.33C337.62 425.12 345.91 424.9 350 424.67Z" fill="#2E353A" stroke="#2E353A" stroke-linecap="round" stroke-linejoin="round"/>
<path d="M321.48 418C321.68 417.406 321.791 416.786 321.81 416.16C320.03 417.6 318.74 416.92 315.87 417.1C312.28 417.33 310.94 417.33 303.54 417.33C300.643 417.401 297.759 416.923 295.04 415.92C295.044 415.94 295.044 415.96 295.04 415.98C294.82 417.98 298.85 419.12 303.34 419.12C307.83 419.12 313.2 419.12 315.89 419.57C318.58 420.02 320.36 420.86 321.48 418Z" fill="#2E353A" stroke="#2E353A" stroke-linecap="round" stroke-linejoin="round"/>
<path d="M329.24 324.63C329.24 324.63 330.07 310.79 331.6 308.05C333.13 305.31 336.77 301.66 339.2 299.53" stroke="white" stroke-width="0.75" stroke-linecap="round" stroke-linejoin="round"/>
</svg>
